<?xml version="1.0" standalone="no"?>
<!DOCTYPE svg PUBLIC "-//W3C//DTD SVG 1.1//EN" "http://www.w3.org/Graphics/SVG/1.1/DTD/svg11.dtd" >
<svg xmlns="http://www.w3.org/2000/svg" xmlns:xlink="http://www.w3.org/1999/xlink" version="1.1">
<metadata>
Created by FontForge 20201107 at Tue Apr  2 15:09:29 2024
 By 
Copyright 2019 The Manrope Project Authors (https://github.com/sharanda/manrope)
Copyright 2021 The Vela Sans Project - Ravid Balaliev
</metadata>
<defs>
<font id="VelaSans-Light" horiz-adv-x="1193" >
  <font-face 
    font-family="Vela Sans Light"
    font-weight="300"
    font-stretch="normal"
    units-per-em="2048"
    panose-1="0 0 0 0 0 0 0 0 0 0"
    ascent="1638"
    descent="-410"
    x-height="1106"
    cap-height="1475"
    bbox="-390 -543 2580 2231"
    underline-thickness="51"
    underline-position="-101"
    unicode-range="U+000A-FB02"
  />
<missing-glyph horiz-adv-x="1515" 
d="M1311 1448h-1106v27h1106v-27zM1311 1329h-1106v33h1106v-33zM1311 1212h-1106v37h1106v-37zM1311 1092h-1106v43h1106v-43zM1311 975h-1106v45h1106v-45zM1311 858h-1106v49h1106v-49zM1311 737h-1106v58h1106v-58zM1311 621h-1106v61h1106v-61zM1311 502h-1106v67h1106
v-67zM1311 383h-1106v72h1106v-72zM1311 266h-1106v76h1106v-76zM1311 147h-1106v82h1106v-82zM1311 0h-1106v117h1106v-117z" />
    <glyph glyph-name="uniE001" unicode="&#x28;c&#x29;" horiz-adv-x="1793" 
d="M897 -33q-201 0 -368 100q-168 99 -266 267q-99 165 -99 366q0 203 99 368q98 167 266 267q168 99 368 99q199 0 368 -99q168 -100 266 -267q98 -166 98 -368q0 -200 -98 -366q-98 -168 -266 -267q-169 -100 -368 -100zM897 86q165 0 307 83q141 82 223 224
q82 143 82 309q0 165 -82 308q-83 140 -223 223q-143 82 -307 82q-166 0 -309 -82q-142 -82 -224 -223q-83 -142 -83 -308q0 -167 83 -309q81 -143 224 -224q142 -83 309 -83zM903 270q-189 0 -293 132q-90 116 -90 301q5 187 90 298q109 133 298 133q114 0 200 -53
q104 -63 137 -173l-104 -32q-30 70 -94 114q-57 41 -143 41q-128 0 -205 -97q-63 -80 -63 -228q0 -147 63 -236q71 -96 204 -96q83 0 147 40q57 39 89 111l106 -32q-44 -106 -128 -162q-91 -61 -214 -61z" />
    <glyph glyph-name="uniE002" unicode="&#x20;&#x3c;&#x33;&#x20;" horiz-adv-x="2394" 
d="M1198 -31q-53 0 -81 34l-437 461q-107 118 -107 269q0 1 0.5 11.5t1 32t0.5 45.5q1 82 106 199q104 116 257 116q130 0 260 -103q119 103 256 103q156 0 260 -117q105 -118 106 -199q1 -55 1 -87q0 -155 -109 -270l-437 -461q-31 -34 -77 -34zM1198 77l437 461
q78 82 78 195q0 25 -1 65q-1 59 -75 146q-74 85 -183 85q-133 0 -256 -139q-138 139 -260 139q-109 0 -181 -86q-71 -85 -73 -146q-1 -40 -1 -64q0 -113 77 -195z" />
    <glyph glyph-name="uniE003" unicode="&#x28;&#x3e;&#x29;" horiz-adv-x="2355" 
d="M1178 -276q-276 0 -508 136t-369 369t-137 508t137 508q137 234 369 370t508 136t508 -136t369 -370q136 -232 136 -508t-136 -508q-137 -233 -369 -369t-508 -136zM1181 -158q243 0 448 120q206 121 325 327t119 451q0 244 -120 448q-119 203 -325 324
q-204 120 -447 120q-246 0 -452 -119q-207 -120 -327 -324q-119 -204 -119 -449q0 -247 119 -451q120 -207 327 -327q205 -120 452 -120zM1049 1055l381 -318l-381 -317v635z" />
    <glyph glyph-name="uniE007" unicode="ff" horiz-adv-x="1321" 
d="M258 991h-197v115h197v116q0 138 72.5 210.5t210.5 72.5h149v-102h-132q-99 0 -140.5 -44t-41.5 -149v-104h493v116q0 138 72.5 210.5t210.5 72.5h150v-102h-133q-99 0 -140.5 -44t-41.5 -149v-104h315v-115h-315v-991h-118v991h-493v-991h-118v991z" />
    <glyph glyph-name="uniE008" unicode="ffl" horiz-adv-x="1845" 
d="M1681 0h-117v991h-577v-991h-118v991h-493v-991h-118v991h-197v115h197v116q0 138 72.5 210.5t210.5 72.5h149v-102h-132q-99 0 -140.5 -44t-41.5 -149v-104h493v113q0 141 72.5 213.5t213.5 72.5h147v-102h-133q-99 0 -140.5 -44t-41.5 -149v-104h577v399h117v-1505z
" />
    <glyph glyph-name="uniE009" unicode="tt" horiz-adv-x="1473" 
d="M20 991v115h248v370h119v-370h557v370h119v-370h343v-115h-343v-692q0 -103 40.5 -144.5t141.5 -41.5h161v-113h-197q-123 0 -194 69.5t-71 190.5v731h-557v-692q0 -103 40.5 -144.5t141.5 -41.5h161v-113h-196q-123 0 -194.5 69.5t-71.5 190.5v731h-248z" />
    <glyph glyph-name="fi" unicode="fi" horiz-adv-x="1186" 
d="M258 991h-197v115h197v116q0 138 72.5 210.5t210.5 72.5h149v-102h-132q-99 0 -140.5 -44t-41.5 -149v-104h314v-115h-314v-991h-118v991zM1023 1329h-118v151h118v-151zM1023 0h-118v1106h118v-1106z" />
    <glyph glyph-name="fl" unicode="fl" horiz-adv-x="1233" 
d="M258 991h-197v115h197v113q0 141 72.5 213.5t213.5 72.5h146v-102h-132q-99 0 -140.5 -44t-41.5 -149v-104h576v399h118v-1505h-118v991h-576v-991h-118v991z" />
    <glyph glyph-name="hyphen_hyphen.liga" unicode="&#x2d;&#x2d;" horiz-adv-x="1105" 
d="M983 592h-860v107h860v-107z" />
    <glyph glyph-name="hyphen_greater.liga" unicode="&#x2d;&#x3e;" horiz-adv-x="2042" 
d="M287 592v107h1265l-349 349l76 74l477 -477l-477 -477l-76 75l350 349h-1266z" />
    <glyph glyph-name="less_hyphen.liga" unicode="&#x3c;&#x2d;" horiz-adv-x="2042" 
d="M490 698h1266v-107h-1267l351 -348l-76 -75l-477 477l477 476l76 -74z" />
    <glyph glyph-name=".notdef" horiz-adv-x="1515" 
d="M1311 1448h-1106v27h1106v-27zM1311 1329h-1106v33h1106v-33zM1311 1212h-1106v37h1106v-37zM1311 1092h-1106v43h1106v-43zM1311 975h-1106v45h1106v-45zM1311 858h-1106v49h1106v-49zM1311 737h-1106v58h1106v-58zM1311 621h-1106v61h1106v-61zM1311 502h-1106v67h1106
v-67zM1311 383h-1106v72h1106v-72zM1311 266h-1106v76h1106v-76zM1311 147h-1106v82h1106v-82zM1311 0h-1106v117h1106v-117z" />
    <glyph glyph-name=".null" horiz-adv-x="0" 
 />
    <glyph glyph-name="uni000D" unicode="&#xd;" horiz-adv-x="1228" 
 />
    <glyph glyph-name="uni000A" unicode="&#xa;" horiz-adv-x="569" 
 />
    <glyph glyph-name="space" unicode=" " horiz-adv-x="409" 
 />
    <glyph glyph-name="exclam" unicode="!" horiz-adv-x="606" 
d="M360 369h-114v1106h114v-1106zM360 0h-114v151h114v-151z" />
    <glyph glyph-name="quotedbl" unicode="&#x22;" horiz-adv-x="751" 
d="M241 1106h-118v369h118v-369zM547 1106h-118v369h118v-369z" />
    <glyph glyph-name="numbersign" unicode="#" horiz-adv-x="1876" 
d="M551 0h-118l121 459h-431l31 115h433l94 358h-431l31 115h432l113 428h120l-115 -428h373l114 428h120l-115 -428h431l-30 -115h-432l-96 -358h431l-30 -115h-432l-123 -459h-117l121 459h-372zM801 932l-96 -358h372l95 358h-371z" />
    <glyph glyph-name="dollar" unicode="$" horiz-adv-x="1233" 
d="M585 -205v176q-205 14 -344.5 123.5t-175.5 286.5l120 20q38 -147 161.5 -232t300.5 -85q181 0 292.5 84.5t111.5 221.5q0 189 -248 262l-371 111q-310 92 -310 346q0 163 119 271t315 122v177h118v-177q197 -17 327.5 -131t160.5 -297l-122 -21q-22 151 -139.5 244
t-286.5 93q-160 1 -263 -78.5t-103 -198.5q0 -94 62.5 -150t215.5 -102l297 -88q170 -50 258 -146.5t88 -232.5q0 -181 -126 -295t-340 -128v-176h-118z" />
    <glyph glyph-name="percent" unicode="%" horiz-adv-x="1846" 
d="M492 768q-100 0 -184.5 48.5t-134.5 134.5q-50 82 -50 186q0 98 50 182.5t136 135.5q82 50 183 50q100 0 184.5 -48.5t134.5 -134.5q49 -83 49 -185q0 -100 -49 -185t-134 -135q-83 -49 -185 -49zM1662 1394l-1396 -1394l-82 82l1396 1393zM492 879q68 0 128 35t95 95
q35 58 35 128q0 68 -35 128t-95 95q-58 35 -128 35q-68 0 -128 -35t-95 -95q-36 -60 -36 -128t35.5 -127.5t95.5 -95.5q58 -35 128 -35zM1355 -31q-100 0 -184.5 49t-134.5 135q-50 82 -50 185q0 98 50 182.5t136 135.5q84 51 183 51q100 0 184 -49t135 -135q49 -83 49 -185
q0 -100 -49 -185t-134 -135q-83 -49 -185 -49zM1355 80q69 0 128.5 35t94.5 95q35 58 35 128q0 68 -35 128t-94 95q-58 35 -129 35q-68 0 -127.5 -35t-94.5 -95q-35 -58 -35 -128q0 -68 34.5 -127.5t94.5 -94.5q60 -36 128 -36z" />
    <glyph glyph-name="ampersand" unicode="&#x26;" horiz-adv-x="1321" 
d="M1210 0l-153 143q-124 -174 -425 -174q-236 0 -380.5 116.5t-149.5 310.5q-4 137 62.5 239.5t193.5 157.5q-93 89 -131 162t-38 165q0 172 116 278t305 106q145 0 251 -60.5t150 -168.5l-113 -40q-30 72 -105 113.5t-177 41.5q-142 0 -224 -71.5t-82 -195.5
q0 -75 41.5 -139.5t153.5 -168.5l500 -466q4 31 4 71v275h124v-281q0 -83 -23 -162l178 -166zM629 85q255 0 337 143l-513 478q-113 -33 -171.5 -112t-55.5 -194q3 -142 115 -228.5t288 -86.5z" />
    <glyph glyph-name="quotesingle" unicode="'" horiz-adv-x="404" 
d="M241 1106h-118v369h118v-369z" />
    <glyph glyph-name="parenleft" unicode="(" horiz-adv-x="854" 
d="M764 -289l-88 -70q-249 285 -342 660q-47 179 -47 367v8v8q0 374 181 721q86 167 208 306l88 -70q-179 -211 -271 -456q-96 -253 -96 -509q0 -255 97 -509.5t270 -455.5z" />
    <glyph glyph-name="parenright" unicode=")" horiz-adv-x="854" 
d="M178 -359l-88 70q173 201 270 455.5t97 509.5t-95 509q-93 246 -272 456l88 70q248 -284 343 -659q46 -183 46 -368v-8v-8q0 -374 -181 -721q-86 -167 -208 -306z" />
    <glyph glyph-name="asterisk" unicode="*" horiz-adv-x="875" 
d="M407 1037l-158 -221l-91 67l163 218l-260 81l35 107l257 -87l-3 273h113l-3 -273l258 87l35 -107l-260 -81l161 -218l-91 -67z" />
    <glyph glyph-name="plus" unicode="+" horiz-adv-x="1184" 
d="M646 268h-107v416h-416v108h416v414h107v-414h416v-108h-416v-416z" />
    <glyph glyph-name="comma" unicode="," horiz-adv-x="517" 
d="M123 -198l8 64h8q37 0 51 25t14 72v12q0 17 -1 25h-80v200h148v-251q0 -52 -18 -89t-46 -49q-29 -13 -51 -13q-18 0 -33 4z" />
    <glyph glyph-name="hyphen" unicode="-" horiz-adv-x="860" 
d="M737 592h-614v107h614v-107z" />
    <glyph glyph-name="period" unicode="." horiz-adv-x="484" 
d="M316 0h-148v148h148v-148z" />
    <glyph glyph-name="slash" unicode="/" horiz-adv-x="761" 
d="M516 1475h123l-393 -1475h-123z" />
    <glyph glyph-name="zero" unicode="0" horiz-adv-x="1420" 
d="M710 -31q-274 0 -420.5 203.5t-146.5 564.5t146.5 564.5t420.5 203.5t420.5 -203.5t146.5 -564.5t-146.5 -564.5t-420.5 -203.5zM710 85q207 0 324 167.5t117 484.5t-117 485t-324 168t-324 -167t-117 -486q0 -316 116.5 -484t324.5 -168z" />
    <glyph glyph-name="one" unicode="1" horiz-adv-x="824" 
d="M578 0h-118v1337l-279 -168l-58 103l337 203h118v-1475z" />
    <glyph glyph-name="two" unicode="2" horiz-adv-x="1192" 
d="M134 0v116l627 612q107 105 157.5 197t50.5 183q0 126 -97 204t-249 78q-161 0 -270.5 -92t-130.5 -245l-120 21q31 197 172 314t348 117q136 0 242 -48.5t166.5 -139.5t60.5 -211q-1 -112 -57.5 -222.5t-157.5 -209.5l-573 -558h788v-116h-957z" />
    <glyph glyph-name="three" unicode="3" horiz-adv-x="1254" 
d="M1132 435q0 -206 -141.5 -336t-365.5 -130q-443 0 -543 412l117 20q50 -166 149 -241.5t278 -75.5q171 0 277.5 98t106.5 250q0 158 -97.5 239.5t-287.5 81.5h-130v108l433 499h-762v115h912v-115l-437 -500q236 -3 363.5 -111.5t127.5 -313.5z" />
    <glyph glyph-name="four" unicode="4" horiz-adv-x="1258" 
d="M1011 0h-118v303h-791v115l513 1057h130l-512 -1057h660v534h118v-534h145v-115h-145v-303z" />
    <glyph glyph-name="five" unicode="5" horiz-adv-x="1254" 
d="M1152 435q0 -206 -141 -336t-366 -130q-442 0 -543 412l117 20q50 -165 149.5 -241t277.5 -76q172 0 278.5 98t106.5 250q0 158 -98 239.5t-288 81.5h-433l45 722h801v-115h-689l-31 -493h308q243 0 374.5 -111t131.5 -321z" />
    <glyph glyph-name="six" unicode="6" horiz-adv-x="1370" 
d="M691 -31q-287 0 -419.5 167t-134.5 530q-2 433 130 636t416 203q216 0 348.5 -105.5t173.5 -308.5l-119 -21q-35 165 -134.5 243t-274.5 78q-209 0 -311.5 -154t-110.5 -478l-1 -46q50 107 169.5 168t277.5 61q239 0 382.5 -129t143.5 -356t-146.5 -357.5t-389.5 -130.5z
M691 84q192 0 301 99t109 272t-109 271.5t-301 98.5t-300.5 -98.5t-108.5 -271.5q0 -174 108.5 -272.5t300.5 -98.5z" />
    <glyph glyph-name="seven" unicode="7" horiz-adv-x="1068" 
d="M334 0h-128l632 1358h-756v117h884v-117z" />
    <glyph glyph-name="eight" unicode="8" horiz-adv-x="1284" 
d="M642 1505q214 0 344.5 -110.5t130.5 -296.5q0 -114 -59.5 -205.5t-161.5 -131.5q116 -27 190.5 -125.5t74.5 -223.5q0 -199 -144 -321t-375 -122t-375 122t-144 321q0 126 74 224t190 125q-101 39 -160.5 130.5t-59.5 206.5q0 186 130.5 296.5t344.5 110.5zM642 816
q163 0 259 79t96 206q0 133 -97 211t-258 78q-162 0 -258 -78t-96 -211q0 -127 95.5 -206t258.5 -79zM642 701q-186 0 -292 -77.5t-106 -213.5q0 -147 109 -236.5t289 -89.5t288.5 89.5t108.5 236.5q0 136 -105.5 213.5t-291.5 77.5z" />
    <glyph glyph-name="nine" unicode="9" horiz-adv-x="1370" 
d="M680 1505q286 0 418.5 -167t134.5 -529q2 -433 -130 -636.5t-416 -203.5q-215 0 -348 106t-174 310l119 19q35 -165 134 -242.5t275 -77.5q209 0 311.5 154t110.5 479l1 45q-50 -107 -169.5 -168.5t-276.5 -61.5q-239 0 -382.5 129.5t-143.5 356.5t146 357t390 130z
M680 1391q-192 0 -301 -98.5t-109 -272.5q0 -173 109 -272t301 -99t300.5 99t108.5 272t-108.5 272t-300.5 99z" />
    <glyph glyph-name="colon" unicode=":" horiz-adv-x="582" 
d="M374 957h-149v149h149v-149zM374 0h-149v148h149v-148z" />
    <glyph glyph-name="semicolon" unicode=";" horiz-adv-x="599" 
d="M374 957h-149v149h149v-149zM225 -198l8 64h9q37 0 50.5 24.5t13.5 72.5v12q0 17 -1 25h-80v200h149v-251q0 -51 -18.5 -88t-46.5 -50q-29 -13 -51 -13q-18 0 -33 4z" />
    <glyph glyph-name="less" unicode="&#x3c;" horiz-adv-x="1242" 
d="M840 243l-76 -75l-477 477l477 477l76 -74l-404 -403z" />
    <glyph glyph-name="equal" unicode="=" horiz-adv-x="1536" 
d="M1290 852h-1044v107h1044v-107zM1290 515h-1044v108h1044v-108z" />
    <glyph glyph-name="greater" unicode="&#x3e;" horiz-adv-x="1242" 
d="M478 168l-76 75l404 402l-404 403l76 74l477 -477z" />
    <glyph glyph-name="question" unicode="?" horiz-adv-x="1254" 
d="M1152 1040q0 -197 -117 -308t-332 -124v-240h-114v355h56q385 0 385 319q0 152 -106.5 250.5t-277.5 98.5q-179 0 -278 -76t-149 -242l-117 21q49 204 186 307.5t357 103.5q225 0 366 -130t141 -335zM703 0h-114v151h114v-151z" />
    <glyph glyph-name="at" unicode="@" horiz-adv-x="1615" 
d="M1346 200q-63 -113 -172 -172t-255 -59q-182 0 -283.5 84.5t-101.5 232.5q0 72 23.5 128t62.5 93t99 63.5t123.5 41.5t146.5 25l346 43q-4 165 -122.5 254.5t-328.5 89.5q-174 0 -311.5 -83t-214 -233t-76.5 -340q0 -310 163 -484.5t454 -174.5q111 0 210 33t166 93
l65 -97q-185 -145 -438 -145q-342 0 -540 208.5t-198 566.5q0 223 92 398.5t256.5 273t374.5 97.5q265 0 415.5 -126t150.5 -348v-663h-107v200zM1335 574l-339 -42q-186 -23 -265 -79t-79 -163q0 -103 72 -157t211 -54q157 0 260 86.5t129 238.5q11 59 11 170z" />
    <glyph glyph-name="A" unicode="A" horiz-adv-x="1272" 
d="M707 1475l526 -1475h-126l-132 371h-678l-131 -371h-126l526 1475h141zM337 482h598l-299 840z" />
    <glyph glyph-name="B" unicode="B" horiz-adv-x="1215" 
d="M642 0h-499v1475h484q225 0 354 -94t129 -283q0 -130 -66.5 -216t-172.5 -122q53 -11 103 -39.5t91 -72t66 -107t25 -137.5q0 -106 -37.5 -184.5t-107 -126t-161.5 -70.5t-208 -23zM628 1360h-366v-544h418q137 0 221.5 72t84.5 208t-94.5 200t-263.5 64zM262 115h380
q186 0 288.5 69t102.5 228q0 97 -49.5 164.5t-127 97t-175.5 29.5h-419v-588z" />
    <glyph glyph-name="C" unicode="C" horiz-adv-x="1448" 
d="M732 -31q-162 0 -290 56.5t-211 158.5t-126.5 242.5t-43.5 310.5t43.5 310.5t126.5 242.5t211 158.5t290 56.5q251 0 413.5 -130t221.5 -359l-122 -30q-49 190 -179 297t-334 107q-176 0 -300.5 -84t-184.5 -229t-60 -340q0 -297 140.5 -474.5t404.5 -177.5
q204 0 334 106.5t179 296.5l122 -29q-59 -229 -221.5 -359.5t-413.5 -130.5z" />
    <glyph glyph-name="D" unicode="D" horiz-adv-x="1355" 
d="M558 0h-415v1475h415q352 0 532 -187t180 -551t-180 -550.5t-532 -186.5zM267 1360v-1245h278q307 0 453.5 152t146.5 470q0 317 -147 470t-453 153h-278z" />
    <glyph glyph-name="E" unicode="E" horiz-adv-x="1157" 
d="M1055 0h-912v1475h912v-115h-793v-560h670v-115h-670v-570h793v-115z" />
    <glyph glyph-name="F" unicode="F" horiz-adv-x="1094" 
d="M262 0h-119v1475h911v-115h-792v-598h660v-115h-660v-647z" />
    <glyph glyph-name="G" unicode="G" horiz-adv-x="1435" 
d="M1236 0v266q-59 -141 -193.5 -219t-320.5 -78q-309 0 -485 204t-176 564q0 356 179 561t490 205q204 0 353 -96t217 -283l-117 -35q-54 146 -173 223t-279 77q-261 0 -402.5 -172t-141.5 -490q0 -303 142 -472.5t398 -169.5q252 0 375 146t125 406h-576v115h703v-752
h-118z" />
    <glyph glyph-name="H" unicode="H" horiz-adv-x="1377" 
d="M262 0h-119v1475h119v-680h853v680h119v-1475h-119v680h-853v-680z" />
    <glyph glyph-name="I" unicode="I" horiz-adv-x="446" 
d="M282 0h-118v1475h118v-1475z" />
    <glyph glyph-name="J" unicode="J" horiz-adv-x="923" 
d="M381 -29q-140 0 -243.5 79.5t-137.5 213.5l119 28q21 -90 93.5 -148t169.5 -58q68 0 129 31t95 95q16 29 24 68t9 69t1 94v1032h119v-1032q0 -74 -1.5 -110.5t-12.5 -87.5t-34 -93q-48 -89 -134 -135t-196 -46z" />
    <glyph glyph-name="K" unicode="K" horiz-adv-x="1179" 
d="M143 0v1475h118v-703l702 703h155l-705 -709l767 -766h-158l-761 755v-755h-118z" />
    <glyph glyph-name="L" unicode="L" horiz-adv-x="1030" 
d="M999 0h-835v1475h119v-1360h716v-115z" />
    <glyph glyph-name="M" unicode="M" horiz-adv-x="1626" 
d="M261 0h-118v1475h115l556 -1188l550 1188h119v-1473h-119v1208l-492 -1063h-118l-493 1063v-1210z" />
    <glyph glyph-name="N" unicode="N" horiz-adv-x="1378" 
d="M262 0h-119v1475h119l855 -1268v1268h118v-1475h-118l-855 1268v-1268z" />
    <glyph glyph-name="O" unicode="O" horiz-adv-x="1463" 
d="M732 -31q-162 0 -290 56.5t-211 158.5t-126.5 242.5t-43.5 310.5t43.5 310.5t126.5 242.5t211 158.5t290 56.5q215 0 368 -98.5t227.5 -270t74.5 -399.5t-74.5 -399.5t-227.5 -270t-368 -98.5zM732 85q177 0 301 83.5t183.5 228.5t59.5 340t-59.5 340t-183.5 229t-301 84
t-300.5 -84t-183 -229t-61.5 -340q-1 -145 33.5 -264t101.5 -206t172 -134.5t238 -47.5z" />
    <glyph glyph-name="P" unicode="P" horiz-adv-x="1213" 
d="M261 0h-118v1475h534q220 0 347.5 -122t127.5 -328t-127.5 -328.5t-347.5 -122.5h-416v-574zM261 1360v-670h416q164 0 257.5 89t93.5 246q0 156 -93.5 245.5t-257.5 89.5h-416z" />
    <glyph glyph-name="Q" unicode="Q" horiz-adv-x="1463" 
d="M1304 -29l-143 142q-169 -144 -429 -144q-162 0 -290 56.5t-211 158.5t-126.5 242.5t-43.5 310.5t43.5 310.5t126.5 242.5t211 158.5t290 56.5q215 0 368 -98.5t227.5 -270t74.5 -399.5q0 -334 -158 -538l142 -143zM732 85q208 0 342 114l-240 239l85 85l236 -236
q121 170 121 450q0 195 -59.5 340t-183.5 229t-301 84t-300.5 -84t-183 -229t-61.5 -340q-1 -145 33.5 -264t101.5 -206t172 -134.5t238 -47.5z" />
    <glyph glyph-name="R" unicode="R" horiz-adv-x="1271" 
d="M1050 0l-382 574h-407v-574h-118v1475h534q220 0 347.5 -122t127.5 -328q0 -174 -93 -290t-258 -148l389 -587h-140zM261 1360v-670h416q164 0 257.5 89t93.5 246q0 156 -93.5 245.5t-257.5 89.5h-416z" />
    <glyph glyph-name="S" unicode="S" horiz-adv-x="1233" 
d="M644 -31q-228 0 -384 111t-195 301l120 20q38 -149 160.5 -233t301.5 -84q182 0 293 84.5t111 222.5q0 188 -248 261l-371 111q-310 92 -310 347q0 174 137 284.5t354 110.5q220 0 368.5 -117t180.5 -314l-122 -21q-23 152 -139.5 244.5t-287.5 92.5q-162 0 -263.5 -79
t-101.5 -198q0 -94 62.5 -150t216.5 -102l296 -88q170 -50 258 -146.5t88 -232.5q0 -193 -143 -309t-382 -116z" />
    <glyph glyph-name="T" unicode="T" horiz-adv-x="1077" 
d="M602 0h-119v1360h-463v115h1036v-115h-454v-1360z" />
    <glyph glyph-name="U" unicode="U" horiz-adv-x="1425" 
d="M713 -31q-262 0 -416 160t-154 439v907h119v-907q0 -230 118.5 -358.5t332.5 -128.5t332 128t118 359v907h119v-907q0 -279 -153 -439t-416 -160z" />
    <glyph glyph-name="V" unicode="V" horiz-adv-x="1213" 
d="M677 0h-140l-527 1475h126l470 -1322l471 1322h126z" />
    <glyph glyph-name="W" unicode="W" horiz-adv-x="1889" 
d="M584 0h-124l-422 1475h122l361 -1272l361 1272h124l361 -1272l360 1272h124l-421 -1475h-124l-362 1267z" />
    <glyph glyph-name="X" unicode="X" horiz-adv-x="1207" 
d="M163 0h-143l515 748l-502 727h142l428 -630l429 630h143l-502 -727l514 -748h-143l-441 648z" />
    <glyph glyph-name="Y" unicode="Y" horiz-adv-x="1100" 
d="M610 0h-117v623l-493 852h136l415 -717l414 717h136l-491 -852v-623z" />
    <glyph glyph-name="Z" unicode="Z" horiz-adv-x="1266" 
d="M1164 0h-1062v115l915 1245h-915v115h1062v-115l-914 -1245h914v-115z" />
    <glyph glyph-name="bracketleft" unicode="[" horiz-adv-x="822" 
d="M648 -451h-361v2263h361v-112h-249v-2038h249v-113z" />
    <glyph glyph-name="backslash" unicode="\" horiz-adv-x="761" 
d="M123 1475h123l393 -1475h-123z" />
    <glyph glyph-name="bracketright" unicode="]" horiz-adv-x="822" 
d="M536 -451h-362v113h249v2038h-249v112h362v-2263z" />
    <glyph glyph-name="asciicircum" unicode="^" horiz-adv-x="1362" 
d="M291 954l-75 77l476 477l477 -477l-74 -76l-403 404z" />
    <glyph glyph-name="underscore" unicode="_" horiz-adv-x="1351" 
d="M1352 -207h-1352v108h1352v-108z" />
    <glyph glyph-name="grave" unicode="`" horiz-adv-x="969" 
d="M578 1654h-110l-111 297h110z" />
    <glyph glyph-name="a" unicode="a" horiz-adv-x="1124" 
d="M570 1137q431 0 431 -453v-684h-118v200q-61 -113 -167.5 -172t-248.5 -59q-181 0 -283 84t-102 233q0 87 32.5 150t96.5 103t142 62.5t185 35.5l345 43v6q0 178 -75.5 258t-241.5 80q-267 0 -326 -225l-116 25q38 152 152.5 232.5t293.5 80.5zM883 574l-339 -42
q-185 -23 -264 -79t-79 -163q0 -104 71.5 -157.5t210.5 -53.5q157 0 260 86.5t128 238.5q12 59 12 170z" />
    <glyph glyph-name="b" unicode="b" horiz-adv-x="1247" 
d="M143 0v1475h118v-567q119 229 399 229q235 0 370 -160.5t135 -425.5q0 -262 -134 -422t-371 -160q-279 0 -399 228v-197h-118zM650 1022q-188 0 -288.5 -126.5t-100.5 -344.5q0 -214 98.5 -340.5t290.5 -126.5q190 0 289.5 124.5t99.5 342.5q0 217 -99.5 344t-289.5 127z
" />
    <glyph glyph-name="c" unicode="c" horiz-adv-x="1119" 
d="M595 -31q-238 0 -375.5 157.5t-137.5 426.5q0 272 136.5 428t377.5 156q161 0 282.5 -78t170.5 -212l-115 -42q-42 102 -131.5 159.5t-207.5 57.5q-185 0 -286 -123.5t-101 -345.5q0 -217 100 -343t287 -126q119 0 205 54.5t132 157.5l117 -40q-65 -141 -180.5 -214
t-273.5 -73z" />
    <glyph glyph-name="d" unicode="d" horiz-adv-x="1247" 
d="M985 1475h119v-1475h-119v197q-120 -228 -398 -228q-158 0 -273.5 74.5t-173.5 205t-58 302.5q0 265 135 425.5t370 160.5q279 0 398 -229v567zM597 1022q-191 0 -290 -127t-99 -344q0 -218 99 -342.5t290 -124.5q129 0 217.5 60.5t129.5 163.5t41 243q0 219 -100 345
t-288 126z" />
    <glyph glyph-name="e" unicode="e" horiz-adv-x="1185" 
d="M603 84q253 0 368 231l108 -47q-67 -145 -190 -222t-286 -77q-238 0 -379.5 158t-141.5 426q0 270 139 427t376 157q243 0 376.5 -163.5t129.5 -454.5h-894q8 -205 113 -320t281 -115zM211 626h765q-17 193 -114.5 295.5t-264.5 102.5q-168 0 -268.5 -104.5
t-117.5 -293.5z" />
    <glyph glyph-name="f" unicode="f" horiz-adv-x="710" 
d="M258 991h-197v115h197v116q0 138 72.5 210.5t210.5 72.5h149v-102h-132q-99 0 -140.5 -44t-41.5 -149v-104h314v-115h-314v-991h-118v991z" />
    <glyph glyph-name="g" unicode="g" horiz-adv-x="1247" 
d="M587 1137q277 0 399 -225v194h118v-1046q0 -265 -132 -423.5t-376 -158.5q-158 0 -275.5 73t-182.5 213l118 40q45 -103 133.5 -157.5t206.5 -54.5q188 0 289 126t101 343v172q-59 -108 -160 -165.5t-239 -57.5q-229 0 -367 152.5t-138 408.5q0 260 138.5 413t366.5 153z
M597 125q183 0 286 120t103 326q0 211 -104.5 331t-284.5 120q-182 0 -285.5 -121t-103.5 -330q0 -210 103.5 -328t285.5 -118z" />
    <glyph glyph-name="h" unicode="h" 
d="M953 0v607q0 217 -91 316t-251 99q-159 0 -254.5 -100t-95.5 -315v-607h-118v1475h118v-537q105 199 364 199q208 0 327 -130t119 -390v-617h-118z" />
    <glyph glyph-name="i" unicode="i" horiz-adv-x="445" 
d="M282 1329h-118v151h118v-151zM282 0h-118v1106h118v-1106z" />
    <glyph glyph-name="j" unicode="j" horiz-adv-x="486" 
d="M327 1329h-119v151h119v-151zM67 -489h-87v114h46q102 0 142 40t40 142v1299h119v-1336q0 -121 -69 -190t-191 -69z" />
    <glyph glyph-name="k" unicode="k" horiz-adv-x="986" 
d="M143 0v1475h118v-902l523 533h165l-548 -553l626 -553h-183l-583 532v-532h-118z" />
    <glyph glyph-name="l" unicode="l" horiz-adv-x="445" 
d="M282 0h-118v1505h118v-1505z" />
    <glyph glyph-name="m" unicode="m" horiz-adv-x="1701" 
d="M802 0v658q0 107 -21 181t-60.5 112.5t-84.5 54.5t-104 16q-58 0 -103.5 -16t-85 -54.5t-61 -113t-21.5 -180.5v-658h-118v1106h118v-134q95 165 284 165q254 0 336 -215q89 215 319 215q379 0 379 -468v-669h-118v658q0 107 -21 181t-60 112.5t-84.5 54.5t-104.5 16
q-58 0 -103 -16t-84.5 -54.5t-61 -113t-21.5 -180.5v-658h-119z" />
    <glyph glyph-name="n" unicode="n" 
d="M953 0v607q0 217 -91 316t-251 99q-159 0 -254.5 -100t-95.5 -315v-607h-118v1106h118v-168q107 199 364 199q208 0 327 -130t119 -390v-617h-118z" />
    <glyph glyph-name="o" unicode="o" 
d="M597 -31q-242 0 -378.5 161t-136.5 425t137.5 423t377.5 159q243 0 379 -160t136 -422q0 -266 -136.5 -426t-378.5 -160zM597 84q190 0 289.5 126.5t99.5 344.5t-99.5 342.5t-289.5 124.5q-191 0 -290 -126.5t-99 -340.5q0 -219 100.5 -345t288.5 -126z" />
    <glyph glyph-name="p" unicode="p" horiz-adv-x="1247" 
d="M261 -492h-118v1598h118v-197q120 228 399 228q237 0 371 -160t134 -422q0 -265 -135 -425.5t-370 -160.5q-280 0 -399 229v-690zM650 84q190 0 289.5 127t99.5 344q0 218 -99.5 342.5t-289.5 124.5q-192 0 -290.5 -126.5t-98.5 -340.5q0 -218 100.5 -344.5t288.5 -126.5
z" />
    <glyph glyph-name="q" unicode="q" horiz-adv-x="1247" 
d="M1104 1106v-1598h-118v690q-121 -229 -399 -229q-235 0 -370 160.5t-135 425.5q0 262 134 422t371 160q279 0 399 -228v197h118zM597 84q188 0 288.5 126.5t100.5 344.5q0 214 -98.5 340.5t-290.5 126.5q-191 0 -290 -124.5t-99 -342.5q0 -217 99 -344t290 -127z" />
    <glyph glyph-name="r" unicode="r" horiz-adv-x="711" 
d="M660 1136v-117q-22 3 -49 3q-159 0 -254.5 -100t-95.5 -315v-607h-118v1106h118v-168q105 199 364 199q23 0 35 -1z" />
    <glyph glyph-name="s" unicode="s" horiz-adv-x="1063" 
d="M552 -29q-385 0 -470 307l123 23q65 -218 348 -218q144 0 224.5 56t80.5 158q0 55 -28.5 93.5t-99.5 68.5q-68 26 -200 62q-179 48 -253 85q-161 82 -161 232q0 130 118.5 214.5t302.5 84.5q180 0 300.5 -88t142.5 -233l-121 -22q-16 108 -104.5 169.5t-225.5 61.5
q-124 0 -208 -53t-84 -135q0 -44 23.5 -77t77.5 -57.5t84 -34.5t100 -28q20 -6 29 -8q139 -36 228 -73q105 -42 153 -105t48 -156q0 -152 -114.5 -239.5t-313.5 -87.5z" />
    <glyph glyph-name="t" unicode="t" horiz-adv-x="798" 
d="M20 991v115h248v370h119v-370h343v-115h-343v-692q0 -103 40.5 -144.5t141.5 -41.5h161v-113h-196q-123 0 -194.5 69.5t-71.5 190.5v731h-248z" />
    <glyph glyph-name="u" unicode="u" 
d="M242 1106v-606q0 -217 90.5 -316.5t250.5 -99.5t255 100t95 316v606h119v-1106h-119v167q-105 -198 -363 -198q-208 0 -327.5 130t-119.5 389v618h119z" />
    <glyph glyph-name="v" unicode="v" horiz-adv-x="1009" 
d="M567 0h-125l-401 1106h123l341 -948l342 948h122z" />
    <glyph glyph-name="w" unicode="w" horiz-adv-x="1552" 
d="M1048 0l-272 909l-272 -909h-125l-338 1106h122l278 -926l278 926h114l277 -926l280 926h121l-339 -1106h-124z" />
    <glyph glyph-name="x" unicode="x" horiz-adv-x="1060" 
d="M166 0h-146l442 559l-431 547h143l357 -458l356 458h143l-431 -547l441 -559h-145l-364 470z" />
    <glyph glyph-name="y" unicode="y" horiz-adv-x="1057" 
d="M428 -492h-123l182 492l-449 1106h126l382 -948l346 948h124z" />
    <glyph glyph-name="z" unicode="z" horiz-adv-x="1061" 
d="M980 0h-939v115l784 876h-784v115h939v-115l-784 -876h784v-115z" />
    <glyph glyph-name="braceleft" unicode="{" horiz-adv-x="838" 
d="M749 -451h-117q-97 0 -163.5 65.5t-66.5 162.5v685q0 33 -20 67l-85 119q-22 34 0 66l85 119q20 34 20 67v683q0 98 66 163.5t164 65.5h117v-115h-114q-49 0 -83 -34t-34 -83v-680q0 -74 -43 -133l-60 -86l60 -86q43 -58 43 -133v-681q0 -48 34.5 -82.5t82.5 -34.5h114
v-115z" />
    <glyph glyph-name="bar" unicode="|" horiz-adv-x="486" 
d="M302 0h-118v1475h118v-1475z" />
    <glyph glyph-name="braceright" unicode="}" horiz-adv-x="838" 
d="M207 -451h-116v115h113q49 0 83.5 34t34.5 83v681q0 74 42 133l61 86l-61 86q-42 60 -42 133v680q0 49 -34.5 83t-83.5 34h-113v115h116q98 0 163.5 -65.5t65.5 -163.5v-683q0 -31 21 -67l86 -119q20 -32 0 -66l-86 -119q-21 -36 -21 -67v-685q0 -97 -66 -162.5
t-163 -65.5z" />
    <glyph glyph-name="asciitilde" unicode="~" horiz-adv-x="1318" 
d="M868 497q-70 0 -154 41q-14 6 -85 43q-66 36 -104 51t-73 15q-34 0 -55.5 -18.5t-24.5 -39.5q-2 -26 -2 -27q0 -22 8 -46h-127q-9 39 -9 73q0 32 14 82q13 44 67 83q50 37 126 37q75 0 155 -40q11 -5 24 -12t31.5 -16.5t31.5 -16.5q70 -38 106 -52.5t70 -14.5
q32 0 53.5 17.5t25.5 41.5q3 19 3 31q0 21 -8 47h127q10 -37 10 -74q0 -31 -14 -81q-13 -46 -67 -86q-53 -38 -129 -38z" />
    <glyph glyph-name="uni00A0" unicode="&#xa0;" horiz-adv-x="409" 
 />
    <glyph glyph-name="exclamdown" unicode="&#xa1;" horiz-adv-x="609" 
d="M246 1106h114v-151h-114v151zM246 737h114v-1106h-114v1106z" />
    <glyph glyph-name="cent" unicode="&#xa2;" horiz-adv-x="1119" 
d="M545 -61v187q-218 17 -338 173t-125 408q5 255 125 409t338 171v188h107v-188q140 -13 247 -89q104 -73 150 -198l-115 -42q-42 102 -132 160t-207 58q-189 0 -287 -126q-97 -127 -100 -343q3 -219 102.5 -344t284.5 -125q118 0 204.5 54.5t132.5 157.5l117 -40
q-125 -260 -397 -284v-187h-107z" />
    <glyph glyph-name="sterling" unicode="&#xa3;" horiz-adv-x="1255" 
d="M65 0v115h120q103 61 120.5 177.5t-45.5 320.5l-17 58h-166v114h129q-17 50 -25.5 78.5t-19 89t-10.5 121.5q0 203 135 317t364 114q213 0 364 -120t177 -311l-122 -21q-24 157 -142.5 247t-287.5 90q-159 0 -261 -82t-102 -231q0 -49 5.5 -92t10.5 -63t20.5 -67
t20.5 -65l1 -5h600v-114h-565l19 -65q50 -168 42 -294t-73 -197h809v-115h-1101z" />
    <glyph glyph-name="currency" unicode="&#xa4;" horiz-adv-x="1293" 
d="M647 201q-145 0 -268 72q-25 14 -69 48l-167 -167l-82 82l168 167q-27 31 -46 67q-72 123 -72 269t72 269q15 27 45 65l-167 167l82 81l166 -166q41 32 70 48q125 73 268 73q144 0 269 -73q30 -17 69 -47l165 165l82 -81l-166 -166q27 -32 47 -66q73 -125 73 -269
t-73 -269q-17 -30 -47 -69l166 -165l-82 -82l-166 165q-44 -32 -68 -46q-123 -72 -269 -72zM647 311q114 0 214 59t156 156q57 98 57 211q0 116 -58 214q-58 99 -157 157q-101 57 -212 57q-115 0 -213 -57.5t-155 -155.5q-58 -101 -58 -215q0 -112 58 -211q57 -99 154 -156
q98 -59 214 -59z" />
    <glyph glyph-name="yen" unicode="&#xa5;" horiz-adv-x="1100" 
d="M492 526h-320v108h313l-485 841h136l415 -717l414 717h136l-484 -841h313v-108h-320v-178h320v-107h-320v-241h-118v241h-320v107h320v178z" />
    <glyph glyph-name="brokenbar" unicode="&#xa6;" horiz-adv-x="486" 
d="M302 744h-118v731h118v-731zM302 -287h-118v730h118v-730z" />
    <glyph glyph-name="section" unicode="&#xa7;" horiz-adv-x="1063" 
d="M558 -326q-78 0 -148 18.5t-130 55t-102 96.5t-58 137l121 20q28 -106 120 -160.5t202 -54.5q115 0 194 58.5t79 159.5q0 61 -33 98t-98 63q-67 24 -194 59l-18 5q-147 40 -222 72q-81 34 -128 88q-48 54 -48 140q0 93 55 160t148 96q18 6 36 11q-5 2 -14.5 5.5
t-11.5 4.5q-176 73 -176 231q0 95 55 166t147 107q86 35 186 35q106 0 197 -40t150 -113q59 -76 69 -168l-121 -23q-15 79 -64 133.5t-110 77t-130 22.5q-107 0 -182 -54t-75 -136q0 -92 106 -140q55 -25 127 -43q19 -5 43.5 -11t36.5 -9.5t18 -4.5q158 -42 230 -72
q82 -35 132 -94t50 -160q0 -104 -50 -172q-51 -71 -135 -95q58 -30 97 -78q50 -60 50 -162q0 -154 -112.5 -241.5t-288.5 -87.5zM457 354l90 -23q48 -12 138 -39q33 8 60 21q58 28 93 79t35 117q0 61 -33 99t-98 63q-60 22 -194 58l-18 5q-16 4 -44 12.5t-40 11.5
q-94 -28 -156 -78q-74 -60 -74 -140q0 -93 110 -142q55 -24 131 -44z" />
    <glyph glyph-name="dieresis" unicode="&#xa8;" horiz-adv-x="1014" 
d="M769 1705h-143v143h143v-143zM389 1705h-143v143h143v-143z" />
    <glyph glyph-name="copyright" unicode="&#xa9;" horiz-adv-x="1588" 
d="M795 -33q-201 0 -368 100q-168 99 -266 267q-100 167 -100 366q0 201 100 368q98 167 266 267q168 99 368 99q197 0 367 -99q168 -100 266 -267q99 -168 99 -368q0 -198 -99 -366q-98 -168 -266 -267q-169 -100 -367 -100zM795 86q165 0 307 83q141 82 223 224
q82 143 82 309q0 165 -82 308q-83 140 -223 223q-143 82 -307 82q-167 0 -310 -82q-142 -82 -224 -223q-83 -142 -83 -308q0 -167 83 -309q81 -143 224 -224q142 -83 310 -83zM801 270q-189 0 -293 132q-90 116 -90 301q5 187 90 298q109 133 298 133q114 0 200 -53
q104 -63 137 -173l-105 -32q-30 70 -94 114q-57 41 -142 41q-128 0 -205 -97q-63 -80 -63 -228q0 -147 63 -236q71 -96 204 -96q82 0 146 40q57 39 89 111l107 -32q-44 -106 -128 -162q-91 -61 -214 -61z" />
    <glyph glyph-name="ordfeminine" unicode="&#xaa;" horiz-adv-x="641" 
d="M540 1029q19 -42 19 -120v-341h-88v84q-67 -99 -201 -99q-87 0 -137.5 44t-50.5 119q0 153 218 180l161 20q-1 132 -130 132q-109 0 -136 -93l-94 26q22 74 80 115t151 41q159 0 208 -108zM461 841l-146 -18q-71 -9 -103.5 -33t-32.5 -67q0 -86 112 -86q61 0 104 32
t56 85q10 30 10 84v3z" />
    <glyph glyph-name="guillemotleft" unicode="&#xab;" horiz-adv-x="1062" 
d="M923 172l-77 -60l-352 443l352 441l77 -60l-306 -381zM593 172l-77 -60l-352 443l352 441l77 -60l-304 -381z" />
    <glyph glyph-name="logicalnot" unicode="&#xac;" horiz-adv-x="1228" 
d="M1106 406h-108v258h-875v107h983v-365z" />
    <glyph glyph-name="uni00AD" unicode="&#xad;" horiz-adv-x="860" 
d="M737 592h-614v107h614v-107z" />
    <glyph glyph-name="registered" unicode="&#xae;" horiz-adv-x="1259" 
d="M631 598q-132 0 -245 66q-111 65 -177 178q-66 112 -66 243t66 244q65 112 177 177q113 65 245 65q130 0 243 -65q112 -67 177 -177q65 -111 65 -244q0 -132 -65 -243q-66 -112 -177 -178q-112 -66 -243 -66zM631 700q103 0 191.5 51.5t141.5 141.5q51 87 51 192
q0 104 -51.5 192.5t-140.5 140.5q-87 51 -192 51q-104 0 -193 -50.5t-141 -139.5q-52 -88 -52 -194q0 -104 51 -192t141 -140q89 -53 194 -53zM544 852h-80v474h208q63 0 108.5 -45.5t47.5 -108.5q0 -41 -24.5 -80t-64.5 -58l90 -182h-91l-82 168h-112v-168zM544 1094h124
q32 0 54.5 22.5t22.5 55.5q0 35 -23 57t-54 22h-124v-157z" />
    <glyph glyph-name="macron" unicode="&#xaf;" horiz-adv-x="994" 
d="M749 1720h-503v108h503v-108z" />
    <glyph glyph-name="degree" unicode="&#xb0;" horiz-adv-x="921" 
d="M430 768q-100 0 -184 48.5t-134 134.5q-51 84 -51 186q0 98 50.5 182.5t136.5 135.5q82 50 182 50t185 -48.5t135 -134.5q49 -83 49 -185q0 -100 -49.5 -185t-134.5 -135q-83 -49 -185 -49zM430 879q68 0 128 35t95 95q35 58 35 128q0 68 -35 128t-95 95q-58 35 -128 35
q-68 0 -127 -35t-95 -95t-36 -128t35 -128t95 -95q58 -35 128 -35z" />
    <glyph glyph-name="plusminus" unicode="&#xb1;" horiz-adv-x="1228" 
d="M669 451h-108v274h-438v108h438v273h108v-273h437v-108h-437v-274zM1106 171h-983v108h983v-108z" />
    <glyph glyph-name="twosuperior" unicode="&#xb2;" horiz-adv-x="839" 
d="M121 553v95l391 372q122 115 122 217q0 75 -56 119.5t-144 44.5q-92 0 -153.5 -53t-75.5 -142l-103 20q23 125 112 197t220 72q134 0 219 -69.5t83 -190.5q-1 -133 -141 -268l-337 -319h478v-95h-615z" />
    <glyph glyph-name="threesuperior" unicode="&#xb3;" horiz-adv-x="877" 
d="M755 827q0 -133 -91 -214t-235 -81q-137 0 -227 67t-120 201l99 16q27 -97 86 -143t164 -46q98 0 159.5 56t61.5 142q0 91 -57 138t-166 47h-89v85l257 285h-463v95h586v-95l-260 -286q143 -6 219 -73.5t76 -193.5z" />
    <glyph glyph-name="acute" unicode="&#xb4;" horiz-adv-x="969" 
d="M612 1951l-110 -297h-110l111 297h109z" />
    <glyph glyph-name="uni00B5" unicode="&#xb5;" horiz-adv-x="1215" 
d="M953 1106h119v-1106h-119v168q-105 -199 -363 -199q-213 0 -329 131l1 -592h-119v1598h119v-626q4 -207 94.5 -301.5t246.5 -94.5q160 0 255 100t95 316v606z" />
    <glyph glyph-name="paragraph" unicode="&#xb6;" horiz-adv-x="1245" 
d="M827 -289h-117v863h-90q-38 0 -99 9q-162 28 -258 148.5t-96 293.5q0 171 96.5 293t257.5 148q61 9 99 9h207v-1764zM1077 -289h-118v1764h118v-1764z" />
    <glyph glyph-name="periodcentered" unicode="&#xb7;" horiz-adv-x="437" 
d="M221 550q-41 0 -69.5 27t-28.5 68t28.5 68t69.5 27q38 0 65.5 -27.5t27.5 -67.5t-27.5 -67.5t-65.5 -27.5z" />
    <glyph glyph-name="cedilla" unicode="&#xb8;" horiz-adv-x="801" 
d="M373 -490q-61 0 -127 30l34 89q50 -18 84 -18q40 0 64.5 25.5t24.5 62.5q0 53 -59 80q-34 14 -70 26q-2 0 -8 2l77 210l99 1l-56 -151q123 -54 123 -173q0 -76 -55 -130t-131 -54z" />
    <glyph glyph-name="onesuperior" unicode="&#xb9;" horiz-adv-x="690" 
d="M444 553h-99v808l-173 -106l-49 86l222 134h99v-922z" />
    <glyph glyph-name="ordmasculine" unicode="&#xba;" horiz-adv-x="701" 
d="M350 553q-121 0 -194.5 81t-73.5 212q0 130 74 210.5t194 80.5q123 0 196.5 -81t73.5 -210q0 -131 -74 -212t-196 -81zM350 647q80 0 122 53t42 146t-42.5 145t-121.5 52q-80 0 -121.5 -52t-41.5 -145q0 -94 42.5 -146.5t120.5 -52.5z" />
    <glyph glyph-name="guillemotright" unicode="&#xbb;" horiz-adv-x="1062" 
d="M217 112l-77 60l305 383l-305 381l77 60l352 -441zM547 112l-77 60l304 383l-304 381l77 60l352 -441z" />
    <glyph glyph-name="onequarter" unicode="&#xbc;" horiz-adv-x="1950" 
d="M1438 1408l-1096 -1408l-90 71l1099 1406zM396 553h-99v808l-173 -106l-49 86l222 134h99v-922zM1607 0h-100v181h-478v94l311 647h109l-311 -647h369v320h100v-320h90v-94h-90v-181z" />
    <glyph glyph-name="onehalf" unicode="&#xbd;" horiz-adv-x="1858" 
d="M1438 1408l-1096 -1408l-90 71l1099 1406zM396 553h-99v808l-173 -106l-49 86l222 134h99v-922zM1756 0h-615v95l391 372q122 115 122 217q0 75 -56 119.5t-144 44.5q-92 0 -153.5 -53t-75.5 -142l-103 20q23 125 112 197t220 72q134 0 219 -69.5t83 -190.5
q-1 -133 -141 -268l-337 -319h478v-95z" />
    <glyph glyph-name="threequarters" unicode="&#xbe;" horiz-adv-x="1972" 
d="M1584 1408l-1097 -1408l-89 71l1098 1406zM744 827q0 -133 -90.5 -214t-234.5 -81q-137 0 -227 67t-120 201l99 16q27 -97 86 -143t164 -46q98 0 159.5 56t61.5 142q0 91 -57 138t-166 47h-89v85l257 285h-463v95h586v-95l-260 -286q143 -6 218.5 -73.5t75.5 -193.5z
M1752 0h-99v181h-478v94l311 647h109l-312 -647h370v320h99v-320h90v-94h-90v-181z" />
    <glyph glyph-name="questiondown" unicode="&#xbf;" horiz-adv-x="1254" 
d="M551 1106h115v-151h-115v151zM102 67q0 196 117 307t332 124v240h115v-354h-57q-191 0 -288 -81t-97 -240q0 -152 106.5 -250t277.5 -98q179 0 278 76t149 242l117 -21q-49 -204 -186 -307.5t-357 -103.5q-224 0 -365.5 130t-141.5 336z" />
    <glyph glyph-name="Agrave" unicode="&#xc0;" horiz-adv-x="1272" 
d="M681 1654h-110l-110 297h109zM40 0l527 1475h140l526 -1475h-126l-131 371h-678l-132 -371h-126zM637 1322l-299 -840h598z" />
    <glyph glyph-name="Aacute" unicode="&#xc1;" horiz-adv-x="1272" 
d="M701 1654h-109l110 297h110zM707 1475l526 -1475h-126l-132 371h-678l-131 -371h-126l526 1475h141zM337 482h598l-299 840z" />
    <glyph glyph-name="Acircumflex" unicode="&#xc2;" horiz-adv-x="1272" 
d="M358 1654l221 261h116l219 -261h-128l-149 176l-151 -176h-128zM707 1475l526 -1475h-126l-132 371h-678l-131 -371h-126l526 1475h141zM337 482h598l-299 840z" />
    <glyph glyph-name="Atilde" unicode="&#xc3;" horiz-adv-x="1272" 
d="M784 1706q-64 0 -170 60q-87 48 -125 48q-14 0 -25 -4t-17 -11t-9.5 -13t-5 -14.5t-1.5 -11v-6.5q0 -17 5 -35h-90q-6 26 -6 51q0 78 57 119q38 26 89 26q38 0 75.5 -14t97.5 -47q83 -47 124 -47q32 0 45.5 19.5t13.5 44.5q0 14 -5 34h90q7 -24 7 -52q0 -77 -57 -119
q-40 -28 -93 -28zM707 1475l526 -1475h-126l-132 371h-678l-131 -371h-126l526 1475h141zM337 482h598l-299 840z" />
    <glyph glyph-name="Adieresis" unicode="&#xc4;" horiz-adv-x="1272" 
d="M756 1705v143h143v-143h-143zM376 1705v143h143v-143h-143zM707 1475l526 -1475h-126l-132 371h-678l-131 -371h-126l526 1475h141zM337 482h598l-299 840z" />
    <glyph glyph-name="Aring" unicode="&#xc5;" horiz-adv-x="1272" 
d="M637 1595q-86 0 -148.5 62.5t-62.5 149.5q0 86 63 149t148 63q88 0 150 -63t62 -149q0 -87 -62 -149.5t-150 -62.5zM637 1695q46 0 79.5 33t33.5 79q0 47 -33 80t-80 33q-46 0 -79.5 -33.5t-33.5 -79.5t33.5 -79t79.5 -33zM707 1475l526 -1475h-126l-132 371h-678
l-131 -371h-126l526 1475h141zM337 482h598l-299 840z" />
    <glyph glyph-name="AE" unicode="&#xc6;" horiz-adv-x="1867" 
d="M853 0v371h-556l-131 -371h-126l526 1475h1199v-115h-793v-560h670v-115h-670v-570h793v-115h-912zM337 482h516v878h-204z" />
    <glyph glyph-name="Ccedilla" unicode="&#xc7;" horiz-adv-x="1448" 
d="M678 -490q-60 0 -126 30l34 89q50 -18 83 -18q40 0 65 25.5t25 62.5q0 53 -60 80q-38 16 -69 26q-1 0 -7 2l59 163q-200 12 -341.5 113t-210.5 268t-69 386q0 170 43.5 310.5t126.5 242.5t211 158.5t290 56.5q251 0 413.5 -130t221.5 -359l-122 -30q-49 190 -179 297
t-334 107q-176 0 -300.5 -84t-184.5 -229t-60 -340q0 -297 140.5 -474.5t404.5 -177.5q204 0 334 106.5t179 296.5l122 -29q-56 -218 -206 -347.5t-381 -141.5l-38 -103q123 -56 123 -173q0 -76 -55.5 -130t-131.5 -54z" />
    <glyph glyph-name="Egrave" unicode="&#xc8;" horiz-adv-x="1157" 
d="M689 1654h-109l-111 297h110zM1055 0h-912v1475h912v-115h-794v-560h671v-115h-671v-570h794v-115z" />
    <glyph glyph-name="Eacute" unicode="&#xc9;" horiz-adv-x="1157" 
d="M788 1951l-110 -297h-110l111 297h109zM1055 0h-912v1475h912v-115h-793v-560h670v-115h-670v-570h793v-115z" />
    <glyph glyph-name="Ecircumflex" unicode="&#xca;" horiz-adv-x="1157" 
d="M438 1654h-128l220 261h117l219 -261h-128l-149 176zM1055 0h-912v1475h912v-115h-793v-560h670v-115h-670v-570h793v-115z" />
    <glyph glyph-name="Edieresis" unicode="&#xcb;" horiz-adv-x="1157" 
d="M835 1705h-144v143h144v-143zM455 1705h-144v143h144v-143zM1055 0h-912v1475h912v-115h-794v-560h671v-115h-671v-570h794v-115z" />
    <glyph glyph-name="Igrave" unicode="&#xcc;" horiz-adv-x="446" 
d="M275 1654h-109l-111 297h110zM283 0h-119v1475h119v-1475z" />
    <glyph glyph-name="Iacute" unicode="&#xcd;" horiz-adv-x="446" 
d="M390 1951l-109 -297h-110l110 297h109zM283 0h-119v1475h119v-1475z" />
    <glyph glyph-name="Icircumflex" unicode="&#xce;" horiz-adv-x="445" 
d="M72 1654h-128l220 261h117l220 -261h-128l-151 176zM283 0h-119v1475h119v-1475z" />
    <glyph glyph-name="Idieresis" unicode="&#xcf;" horiz-adv-x="445" 
d="M484 1705h-143v143h143v-143zM104 1705h-143v143h143v-143zM283 0h-119v1475h119v-1475z" />
    <glyph glyph-name="Eth" unicode="&#xd0;" horiz-adv-x="1356" 
d="M20 684v108h123v683h414q352 0 532.5 -187t180.5 -551t-180.5 -550.5t-532.5 -186.5h-414v684h-123zM266 1359v-567h384v-108h-384v-568h278q307 0 453.5 151.5t146.5 469.5q0 317 -147 469.5t-453 152.5h-278z" />
    <glyph glyph-name="Ntilde" unicode="&#xd1;" horiz-adv-x="1378" 
d="M865 1655q-64 0 -169 60q-88 47 -126 47q-26 0 -40 -15t-16 -25.5t-2 -19.5q0 -17 6 -34h-90q-7 25 -7 53q0 76 58 117q38 26 89 26q37 0 74.5 -14t97.5 -47q85 -47 124 -47q32 0 45.5 19.5t13.5 44.5q0 13 -5 33h90q7 -24 7 -52q0 -76 -58 -119q-39 -27 -92 -27zM262 0
h-119v1475h119l855 -1267v1267h118v-1475h-118l-855 1267v-1267z" />
    <glyph glyph-name="Ograve" unicode="&#xd2;" horiz-adv-x="1463" 
d="M679 1654l-110 297h110l109 -297h-109zM732 -31q-162 0 -290 56.5t-211 158.5t-126.5 242.5t-43.5 310.5t43.5 310.5t126.5 242.5t211 158.5t290 56.5q215 0 368 -98.5t227.5 -270t74.5 -399.5t-74.5 -399.5t-227.5 -270t-368 -98.5zM732 85q177 0 301 83.5t183.5 228.5
t59.5 340t-59.5 340t-183.5 229t-301 84t-300.5 -84t-183 -229t-61.5 -340q-1 -145 33.5 -264t101.5 -206t172 -134.5t238 -47.5z" />
    <glyph glyph-name="Oacute" unicode="&#xd3;" horiz-adv-x="1463" 
d="M807 1654h-110l111 297h110zM732 -31q-162 0 -290 56.5t-211 158.5t-126.5 242.5t-43.5 310.5t43.5 310.5t126.5 242.5t211 158.5t290 56.5q215 0 368 -98.5t227.5 -270t74.5 -399.5t-74.5 -399.5t-227.5 -270t-368 -98.5zM732 85q177 0 301 83.5t183.5 228.5t59.5 340
t-59.5 340t-183.5 229t-301 84t-300.5 -84t-183 -229t-61.5 -340q-1 -145 33.5 -264t101.5 -206t172 -134.5t238 -47.5z" />
    <glyph glyph-name="Ocircumflex" unicode="&#xd4;" horiz-adv-x="1463" 
d="M453 1654l220 261h117l220 -261h-128l-151 176l-150 -176h-128zM732 -31q-162 0 -290 56.5t-211 158.5t-126.5 242.5t-43.5 310.5t43.5 310.5t126.5 242.5t211 158.5t290 56.5q215 0 368 -98.5t227.5 -270t74.5 -399.5t-74.5 -399.5t-227.5 -270t-368 -98.5zM732 85
q177 0 301 83.5t183.5 228.5t59.5 340t-59.5 340t-183.5 229t-301 84t-300.5 -84t-183 -229t-61.5 -340q-1 -145 33.5 -264t101.5 -206t172 -134.5t238 -47.5z" />
    <glyph glyph-name="Otilde" unicode="&#xd5;" horiz-adv-x="1463" 
d="M896 1655q-64 0 -170 60q-85 47 -125 47q-17 0 -29 -6t-17.5 -13t-8.5 -17.5t-3 -14v-8.5q0 -17 5 -35h-90q-6 26 -6 51q0 78 57 119q38 26 89 26q38 0 75.5 -14t97.5 -47q83 -47 124 -47q32 0 45 19.5t13 44.5q0 13 -5 33h90q8 -27 8 -51q0 -77 -58 -120
q-39 -27 -92 -27zM732 -31q-162 0 -290 56.5t-211 158.5t-126.5 242.5t-43.5 310.5t43.5 310.5t126.5 242.5t211 158.5t290 56.5q215 0 368 -98.5t227.5 -270t74.5 -399.5t-74.5 -399.5t-227.5 -270t-368 -98.5zM732 85q177 0 301 83.5t183.5 228.5t59.5 340t-59.5 340
t-183.5 229t-301 84t-300.5 -84t-183 -229t-61.5 -340q-1 -145 33.5 -264t101.5 -206t172 -134.5t238 -47.5z" />
    <glyph glyph-name="Odieresis" unicode="&#xd6;" horiz-adv-x="1463" 
d="M850 1705v143h143v-143h-143zM470 1705v143h143v-143h-143zM732 -31q-162 0 -290 56.5t-211 158.5t-126.5 242.5t-43.5 310.5t43.5 310.5t126.5 242.5t211 158.5t290 56.5q215 0 368 -98.5t227.5 -270t74.5 -399.5t-74.5 -399.5t-227.5 -270t-368 -98.5zM732 85
q177 0 301 83.5t183.5 228.5t59.5 340t-59.5 340t-183.5 229t-301 84t-300.5 -84t-183 -229t-61.5 -340q-1 -145 33.5 -264t101.5 -206t172 -134.5t238 -47.5z" />
    <glyph glyph-name="multiply" unicode="&#xd7;" horiz-adv-x="986" 
d="M863 442l-76 -75l-293 293l-294 -293l-76 75l294 294l-294 294l76 76l294 -293l293 293l76 -76l-294 -294z" />
    <glyph glyph-name="Oslash" unicode="&#xd8;" horiz-adv-x="1463" 
d="M111 -27l-86 79l169 182q-133 200 -133 503q0 170 43.5 310.5t126.5 242.5t211 158.5t290 56.5q297 0 472 -183l160 173l85 -76l-172 -189q125 -194 125 -493q0 -228 -74.5 -399.5t-227.5 -270t-368 -98.5q-288 0 -464 174zM281 328l839 903q-142 159 -388 159
q-177 0 -300.5 -84t-183 -229t-61.5 -340q-2 -244 94 -409zM732 85q177 0 301 83.5t183.5 228.5t59.5 340q0 237 -89 400l-836 -904q142 -148 381 -148z" />
    <glyph glyph-name="Ugrave" unicode="&#xd9;" horiz-adv-x="1425" 
d="M681 1654l-111 297h110l111 -297h-110zM713 -31q-262 0 -416 160t-154 439v907h119v-907q0 -230 118.5 -358.5t332.5 -128.5t332 128t118 359v907h119v-907q0 -279 -153 -439t-416 -160z" />
    <glyph glyph-name="Uacute" unicode="&#xda;" horiz-adv-x="1425" 
d="M748 1654h-110l111 297h109zM713 -31q-262 0 -416 160t-154 439v907h119v-907q0 -230 118.5 -358.5t332.5 -128.5t332 128t118 359v907h119v-907q0 -279 -153 -439t-416 -160z" />
    <glyph glyph-name="Ucircumflex" unicode="&#xdb;" horiz-adv-x="1425" 
d="M434 1654l219 261h117l220 -261h-128l-150 176l-150 -176h-128zM713 -31q-262 0 -416 160t-154 439v907h119v-907q0 -230 118.5 -358.5t332.5 -128.5t332 128t118 359v907h119v-907q0 -279 -153 -439t-416 -160z" />
    <glyph glyph-name="Udieresis" unicode="&#xdc;" horiz-adv-x="1425" 
d="M830 1705v143h144v-143h-144zM452 1705v143h143v-143h-143zM713 -31q-262 0 -416 160t-154 439v907h119v-907q0 -230 118.5 -358.5t332.5 -128.5t332 128t118 359v907h119v-907q0 -279 -153 -439t-416 -160z" />
    <glyph glyph-name="Yacute" unicode="&#xdd;" horiz-adv-x="1100" 
d="M691 1951l-109 -297h-110l110 297h109zM610 0h-117v623l-493 852h136l415 -717l414 717h136l-491 -852v-623z" />
    <glyph glyph-name="Thorn" unicode="&#xde;" horiz-adv-x="1213" 
d="M262 0h-119v1475h119v-288h416q220 0 347 -122t127 -328t-127.5 -327.5t-346.5 -121.5h-416v-288zM262 1072v-670h415q164 0 258 89.5t94 245.5t-94 245.5t-258 89.5h-415z" />
    <glyph glyph-name="germandbls" unicode="&#xdf;" horiz-adv-x="1202" 
d="M617 -29q-116 0 -186 29v117q78 -27 180 -27q156 0 250 87t94 240q0 140 -112 225.5t-297 88.5v112q120 13 199 83q78 69 78 192q0 128 -74 200.5t-202 72.5q-93 0 -161.5 -42.5t-95.5 -120.5q-22 -67 -22 -170v-1058h-125v1089q0 110 28 186q91 230 375 230
q183 0 292 -102.5t109 -285.5q0 -115 -51.5 -198.5t-143.5 -113.5q69 -8 145 -55q74 -46 130 -134q52 -85 52 -200q0 -206 -121 -325.5t-341 -119.5z" />
    <glyph glyph-name="agrave" unicode="&#xe0;" horiz-adv-x="1124" 
d="M524 1285l-109 297h109l110 -297h-110zM570 1137q431 0 431 -453v-684h-118v200q-61 -113 -167.5 -172t-248.5 -59q-181 0 -283 84t-102 233q0 87 32.5 150t96.5 103t142 62.5t185 35.5l345 43v6q0 178 -75.5 258t-241.5 80q-267 0 -326 -225l-116 25q38 152 152.5 232.5
t293.5 80.5zM883 574l-339 -42q-185 -23 -264 -79t-79 -163q0 -104 71.5 -157.5t210.5 -53.5q157 0 260 86.5t128 238.5q12 59 12 170z" />
    <glyph glyph-name="aacute" unicode="&#xe1;" horiz-adv-x="1124" 
d="M627 1285h-110l110 297h109zM570 1137q431 0 431 -453v-684h-118v200q-61 -113 -167.5 -172t-248.5 -59q-181 0 -283 84t-102 233q0 87 32.5 150t96.5 103t142 62.5t185 35.5l345 43v6q0 178 -75.5 258t-241.5 80q-267 0 -326 -225l-116 25q38 152 152.5 232.5
t293.5 80.5zM883 574l-339 -42q-185 -23 -264 -79t-79 -163q0 -104 71.5 -157.5t210.5 -53.5q157 0 260 86.5t128 238.5q12 59 12 170z" />
    <glyph glyph-name="acircumflex" unicode="&#xe2;" horiz-adv-x="1124" 
d="M300 1285l219 261h117l220 -261h-128l-150 176l-150 -176h-128zM570 1137q431 0 431 -453v-684h-118v200q-61 -113 -167.5 -172t-248.5 -59q-181 0 -283 84t-102 233q0 87 32.5 150t96.5 103t142 62.5t185 35.5l345 43v6q0 178 -75.5 258t-241.5 80q-267 0 -326 -225
l-116 25q38 152 152.5 232.5t293.5 80.5zM883 574l-339 -42q-185 -23 -264 -79t-79 -163q0 -104 71.5 -157.5t210.5 -53.5q157 0 260 86.5t128 238.5q12 59 12 170z" />
    <glyph glyph-name="atilde" unicode="&#xe3;" horiz-adv-x="1124" 
d="M734 1286q-63 0 -170 61q-88 47 -125 47q-14 0 -25 -4t-17 -11t-9.5 -13t-5 -14.5t-1.5 -11v-6.5q0 -17 5 -35h-90q-6 27 -6 53q0 77 57 117q38 26 89 26q38 0 75 -13.5t97 -46.5q85 -47 125 -47q37 0 47 22q12 24 12 40q0 14 -7 35h91q7 -24 7 -52q0 -76 -58 -119
q-39 -28 -91 -28zM570 1137q431 0 431 -453v-684h-118v200q-61 -113 -167.5 -172t-248.5 -59q-181 0 -283 84t-102 233q0 87 32.5 150t96.5 103t142 62.5t185 35.5l345 43v6q0 178 -75.5 258t-241.5 80q-267 0 -326 -225l-116 25q38 152 152.5 232.5t293.5 80.5zM883 574
l-339 -42q-185 -23 -264 -79t-79 -163q0 -104 71.5 -157.5t210.5 -53.5q157 0 260 86.5t128 238.5q12 59 12 170z" />
    <glyph glyph-name="adieresis" unicode="&#xe4;" horiz-adv-x="1124" 
d="M706 1336v144h143v-144h-143zM326 1336v144h143v-144h-143zM570 1137q431 0 431 -453v-684h-118v200q-61 -113 -167.5 -172t-248.5 -59q-181 0 -283 84t-102 233q0 87 32.5 150t96.5 103t142 62.5t185 35.5l345 43v6q0 178 -75.5 258t-241.5 80q-267 0 -326 -225l-116 25
q38 152 152.5 232.5t293.5 80.5zM883 574l-339 -42q-185 -23 -264 -79t-79 -163q0 -104 71.5 -157.5t210.5 -53.5q157 0 260 86.5t128 238.5q12 59 12 170z" />
    <glyph glyph-name="aring" unicode="&#xe5;" horiz-adv-x="1124" 
d="M578 1227q-87 0 -149.5 62.5t-62.5 149.5q0 86 62.5 149t149.5 63q86 0 148 -63t62 -149q0 -87 -61.5 -149.5t-148.5 -62.5zM578 1326q46 0 79 33.5t33 79.5q0 47 -33 79.5t-79 32.5t-79.5 -33t-33.5 -79t33.5 -79.5t79.5 -33.5zM570 1137q431 0 431 -453v-684h-118v200
q-61 -113 -167.5 -172t-248.5 -59q-181 0 -283 84t-102 233q0 87 32.5 150t96.5 103t142 62.5t185 35.5l345 43v6q0 178 -75.5 258t-241.5 80q-267 0 -326 -225l-116 25q38 152 152.5 232.5t293.5 80.5zM883 574l-339 -42q-185 -23 -264 -79t-79 -163q0 -104 71.5 -157.5
t210.5 -53.5q157 0 260 86.5t128 238.5q12 59 12 170z" />
    <glyph glyph-name="ae" unicode="&#xe6;" horiz-adv-x="1989" 
d="M570 1137q312 0 398 -236q65 114 175.5 175t257.5 61q243 0 376.5 -163.5t129.5 -454.5h-894q8 -205 113 -320t281 -115q253 0 368 231l108 -47q-67 -145 -190 -222t-286 -77q-165 0 -287 79t-182 223q-126 -302 -469 -302q-181 0 -284 84t-103 233q0 87 32.5 150
t96.5 103t142 62.5t185 35.5l345 43v6q0 178 -75.5 258t-241.5 80q-267 0 -326 -225l-116 25q38 152 152.5 232.5t293.5 80.5zM1015 626h765q-17 193 -114.5 295.5t-264.5 102.5q-168 0 -268.5 -104.5t-117.5 -293.5zM883 574l-339 -42q-185 -23 -264 -79t-79 -163
q0 -104 71.5 -157.5t210.5 -53.5q157 0 260 86.5t128 238.5q12 59 12 170z" />
    <glyph glyph-name="ccedilla" unicode="&#xe7;" horiz-adv-x="1119" 
d="M541 -490q-61 0 -127 30l33 89q50 -18 84 -18q40 0 65 25.5t25 62.5q0 53 -59 80q-34 14 -70 26q-2 0 -8 2l60 164q-216 17 -339 172t-123 410q0 272 136.5 428t377.5 156q161 0 282.5 -78t170.5 -212l-115 -42q-42 102 -131.5 159.5t-207.5 57.5q-185 0 -286 -123.5
t-101 -345.5q0 -221 101.5 -345t285.5 -124q119 0 205 54.5t132 157.5l117 -40q-60 -130 -163.5 -202.5t-243.5 -82.5l-38 -104q123 -54 123 -173q0 -76 -55 -130t-131 -54z" />
    <glyph glyph-name="egrave" unicode="&#xe8;" horiz-adv-x="1185" 
d="M560 1285l-109 297h109l110 -297h-110zM603 84q253 0 368 231l108 -47q-67 -145 -190 -222t-286 -77q-238 0 -379.5 158t-141.5 426q0 270 139 427t376 157q243 0 376.5 -163.5t129.5 -454.5h-894q8 -205 113 -320t281 -115zM211 626h765q-17 193 -114.5 295.5
t-264.5 102.5q-168 0 -268.5 -104.5t-117.5 -293.5z" />
    <glyph glyph-name="eacute" unicode="&#xe9;" horiz-adv-x="1185" 
d="M673 1285h-110l111 297h109zM603 84q253 0 368 231l108 -47q-67 -145 -190 -222t-286 -77q-238 0 -379.5 158t-141.5 426q0 270 139 427t376 157q243 0 376.5 -163.5t129.5 -454.5h-894q8 -205 113 -320t281 -115zM211 626h765q-17 193 -114.5 295.5t-264.5 102.5
q-168 0 -268.5 -104.5t-117.5 -293.5z" />
    <glyph glyph-name="ecircumflex" unicode="&#xea;" horiz-adv-x="1185" 
d="M317 1285l221 261h116l220 -261h-128l-150 176l-151 -176h-128zM603 84q253 0 368 231l108 -47q-67 -145 -190 -222t-286 -77q-238 0 -379.5 158t-141.5 426q0 270 139 427t376 157q243 0 376.5 -163.5t129.5 -454.5h-894q8 -205 113 -320t281 -115zM211 626h765
q-17 193 -114.5 295.5t-264.5 102.5q-168 0 -268.5 -104.5t-117.5 -293.5z" />
    <glyph glyph-name="edieresis" unicode="&#xeb;" horiz-adv-x="1185" 
d="M715 1336v144h143v-144h-143zM335 1336v144h143v-144h-143zM603 84q253 0 368 231l108 -47q-67 -145 -190 -222t-286 -77q-238 0 -379.5 158t-141.5 426q0 270 139 427t376 157q243 0 376.5 -163.5t129.5 -454.5h-894q8 -205 113 -320t281 -115zM211 626h765
q-17 193 -114.5 295.5t-264.5 102.5q-168 0 -268.5 -104.5t-117.5 -293.5z" />
    <glyph glyph-name="igrave" unicode="&#xec;" horiz-adv-x="445" 
d="M275 1285h-109l-111 297h110zM282 0h-118v1106h118v-1106z" />
    <glyph glyph-name="iacute" unicode="&#xed;" horiz-adv-x="445" 
d="M390 1582l-109 -297h-110l110 297h109zM282 0h-118v1106h118v-1106z" />
    <glyph glyph-name="icircumflex" unicode="&#xee;" horiz-adv-x="445" 
d="M76 1285h-128l219 261h117l220 -261h-128l-151 176zM282 0h-118v1106h118v-1106z" />
    <glyph glyph-name="idieresis" unicode="&#xef;" horiz-adv-x="445" 
d="M484 1336h-143v144h143v-144zM104 1336h-143v144h143v-144zM282 0h-118v1106h118v-1106z" />
    <glyph glyph-name="eth" unicode="&#xf0;" horiz-adv-x="1182" 
d="M593 -31h-9q-151 0 -264.5 67t-174.5 191q-62 125 -63 289q2 166 64 290.5t176 190.5t266 66h5h5q114 0 214 -44.5t164 -128.5q-16 148 -84 264q-57 96 -150 160l-115 -146l-82 68l102 128q-81 33 -186 41l16 105q136 -8 243 -56l119 148l81 -67l-107 -133
q109 -76 177 -203q86 -150 103 -375q8 -126 8 -305q0 -166 -61.5 -291t-175.5 -192q-116 -67 -262 -67h-9zM593 82q185 0 285 116t100 320q0 202 -101 317t-279 115h-5h-5q-181 0 -282 -115.5t-101 -318.5q0 -205 101 -319.5t287 -114.5z" />
    <glyph glyph-name="ntilde" unicode="&#xf1;" 
d="M745 1286q-37 0 -74.5 14t-95.5 47q-85 47 -124 47q-17 0 -29 -6t-17.5 -13.5t-8.5 -18t-3.5 -14.5t-0.5 -8q0 -17 5 -35h-90q-6 25 -6 52q0 77 57 118q38 26 89 26q65 0 174 -60q83 -47 123 -47q32 0 45.5 19t13.5 44q0 14 -5 34h90q7 -24 7 -51q0 -78 -57 -120
q-40 -28 -93 -28zM953 0v607q0 217 -91 316t-251 99q-159 0 -254.5 -100t-95.5 -315v-607h-118v1106h118v-168q105 199 364 199q208 0 327 -130t119 -390v-617h-118z" />
    <glyph glyph-name="ograve" unicode="&#xf2;" 
d="M534 1285l-110 297h110l109 -297h-109zM597 -31q-242 0 -378.5 161t-136.5 425t137.5 423t377.5 159q243 0 379 -160t136 -422q0 -266 -136.5 -426t-378.5 -160zM597 84q190 0 289.5 126.5t99.5 344.5t-99.5 342.5t-289.5 124.5q-191 0 -290 -126.5t-99 -340.5
q0 -219 100.5 -345t288.5 -126z" />
    <glyph glyph-name="oacute" unicode="&#xf3;" 
d="M649 1285h-109l110 297h110zM597 -31q-242 0 -378.5 161t-136.5 425t137.5 423t377.5 159q243 0 379 -160t136 -422q0 -266 -136.5 -426t-378.5 -160zM597 84q190 0 289.5 126.5t99.5 344.5t-99.5 342.5t-289.5 124.5q-191 0 -290 -126.5t-99 -340.5q0 -219 100.5 -345
t288.5 -126z" />
    <glyph glyph-name="ocircumflex" unicode="&#xf4;" 
d="M318 1285l220 261h116l220 -261h-128l-150 176l-150 -176h-128zM597 -31q-242 0 -378.5 161t-136.5 425t137.5 423t377.5 159q243 0 379 -160t136 -422q0 -266 -136.5 -426t-378.5 -160zM597 84q190 0 289.5 126.5t99.5 344.5t-99.5 342.5t-289.5 124.5
q-191 0 -290 -126.5t-99 -340.5q0 -219 100.5 -345t288.5 -126z" />
    <glyph glyph-name="otilde" unicode="&#xf5;" 
d="M745 1286q-37 0 -74 14t-94 47q-88 47 -126 47q-26 0 -40.5 -15.5t-16.5 -26t-2 -19.5q0 -17 6 -34h-90q-7 25 -7 54q0 75 58 116q38 26 90 26q63 0 172 -60q85 -47 123 -47q32 0 45.5 19t13.5 44q0 14 -5 34h90q7 -24 7 -52q0 -77 -57 -119q-40 -28 -93 -28zM597 -31
q-242 0 -378.5 161t-136.5 425t137.5 423t377.5 159q243 0 379 -160t136 -422q0 -266 -136.5 -426t-378.5 -160zM597 84q190 0 289.5 126.5t99.5 344.5t-99.5 342.5t-289.5 124.5q-191 0 -290 -126.5t-99 -340.5q0 -219 100.5 -345t288.5 -126z" />
    <glyph glyph-name="odieresis" unicode="&#xf6;" 
d="M715 1336v144h143v-144h-143zM336 1336v144h143v-144h-143zM597 -31q-242 0 -378.5 161t-136.5 425t137.5 423t377.5 159q243 0 379 -160t136 -422q0 -266 -136.5 -426t-378.5 -160zM597 84q190 0 289.5 126.5t99.5 344.5t-99.5 342.5t-289.5 124.5q-191 0 -290 -126.5
t-99 -340.5q0 -219 100.5 -345t288.5 -126z" />
    <glyph glyph-name="divide" unicode="&#xf7;" horiz-adv-x="1105" 
d="M632 928h-149v148h149v-148zM983 684h-860v108h860v-108zM632 402h-149v149h149v-149z" />
    <glyph glyph-name="oslash" unicode="&#xf8;" 
d="M119 -5q-14 -3 -28 11t-30 38.5t-24 32.5l129 129q-84 144 -84 349q0 264 137.5 423t377.5 159q224 0 361 -142l117 116l82 -81l-129 -127q84 -144 84 -348q0 -266 -136.5 -426t-378.5 -160q-220 0 -358 140q-26 -33 -36.5 -45.5t-34.5 -34t-49 -34.5zM258 291l620 617
q-103 114 -281 114q-191 0 -290 -126.5t-99 -340.5q0 -153 50 -264zM597 84q190 0 289.5 126.5t99.5 344.5q0 154 -50 263l-619 -618q102 -116 280 -116z" />
    <glyph glyph-name="ugrave" unicode="&#xf9;" 
d="M666 1285h-110l-111 297h110zM241 1106v-606q0 -217 91 -316.5t251 -99.5t255 100t95 316v606h118v-1106h-118v168q-105 -199 -364 -199q-208 0 -327 130t-119 389v618h118z" />
    <glyph glyph-name="uacute" unicode="&#xfa;" 
d="M748 1582l-111 -297h-110l111 297h110zM241 1106v-606q0 -217 91 -316.5t251 -99.5q156 0 250.5 94.5t99.5 298.5v629h118v-1106h-118v167q-108 -198 -364 -198q-208 0 -327 130t-119 389v618h118z" />
    <glyph glyph-name="ucircumflex" unicode="&#xfb;" 
d="M435 1285h-128l220 261h117l219 -261h-128l-149 176zM241 1106v-606q0 -217 91 -316.5t251 -99.5t255 100t95 316v606h118v-1106h-118v168q-105 -199 -364 -199q-208 0 -327 130t-119 389v618h118z" />
    <glyph glyph-name="udieresis" unicode="&#xfc;" 
d="M848 1336h-143v144h143v-144zM468 1336h-143v144h143v-144zM241 1106v-606q0 -217 91 -316.5t251 -99.5t255 100t95 316v606h118v-1106h-118v168q-105 -199 -364 -199q-208 0 -327 130t-119 389v618h118z" />
    <glyph glyph-name="yacute" unicode="&#xfd;" horiz-adv-x="1057" 
d="M689 1582l-109 -297h-110l110 297h109zM428 -492h-123l182 492l-449 1106h126l382 -948l346 948h124z" />
    <glyph glyph-name="thorn" unicode="&#xfe;" horiz-adv-x="1247" 
d="M261 -492h-118v1969h118v-568q120 228 399 228q237 0 371 -160t134 -422q0 -265 -135 -425.5t-370 -160.5q-280 0 -399 229v-690zM650 84q190 0 289.5 127t99.5 344q0 218 -99.5 342.5t-289.5 124.5q-192 0 -290.5 -126.5t-98.5 -340.5q0 -218 100.5 -344.5t288.5 -126.5
z" />
    <glyph glyph-name="ydieresis" unicode="&#xff;" horiz-adv-x="1057" 
d="M800 1336h-144v144h144v-144zM420 1336h-144v144h144v-144zM428 -492h-123l182 492l-449 1106h126l382 -948l346 948h124z" />
    <glyph glyph-name="Amacron" unicode="&#x100;" horiz-adv-x="1272" 
d="M386 1720v108h503v-108h-503zM707 1475l526 -1475h-126l-132 371h-678l-131 -371h-126l526 1475h141zM337 482h598l-299 840z" />
    <glyph glyph-name="amacron" unicode="&#x101;" horiz-adv-x="1124" 
d="M356 1352v107h503v-107h-503zM570 1137q431 0 431 -453v-684h-118v200q-61 -113 -167.5 -172t-248.5 -59q-181 0 -283 84t-102 233q0 87 32.5 150t96.5 103t142 62.5t185 35.5l345 43v6q0 178 -75.5 258t-241.5 80q-267 0 -326 -225l-116 25q38 152 152.5 232.5
t293.5 80.5zM883 574l-339 -42q-185 -23 -264 -79t-79 -163q0 -104 71.5 -157.5t210.5 -53.5q157 0 260 86.5t128 238.5q12 59 12 170z" />
    <glyph glyph-name="Abreve" unicode="&#x102;" horiz-adv-x="1272" 
d="M637 1608q-67 0 -124.5 33t-90.5 91q-34 56 -34 125h102q0 -59 44 -103t103 -44q61 0 103.5 43.5t42.5 103.5h103q0 -67 -33 -125t-90 -91q-55 -33 -126 -33zM707 1475l526 -1475h-126l-132 371h-678l-131 -371h-126l526 1475h141zM337 482h598l-299 840z" />
    <glyph glyph-name="abreve" unicode="&#x103;" horiz-adv-x="1124" 
d="M579 1239q-67 0 -124.5 33t-90.5 91q-34 56 -34 125h102q0 -59 44 -103t103 -44q61 0 103.5 43.5t42.5 103.5h102q0 -67 -32.5 -124.5t-89.5 -90.5q-56 -34 -126 -34zM570 1137q431 0 431 -453v-684h-118v200q-61 -113 -167.5 -172t-248.5 -59q-181 0 -283 84t-102 233
q0 87 32.5 150t96.5 103t142 62.5t185 35.5l345 43v6q0 178 -75.5 258t-241.5 80q-267 0 -326 -225l-116 25q38 152 152.5 232.5t293.5 80.5zM883 574l-339 -42q-185 -23 -264 -79t-79 -163q0 -104 71.5 -157.5t210.5 -53.5q157 0 260 86.5t128 238.5q12 59 12 170z" />
    <glyph glyph-name="Aogonek" unicode="&#x104;" horiz-adv-x="1272" 
d="M1075 -495q-75 0 -131.5 58.5t-56.5 134.5q0 120 134 261q37 39 76 72l-122 340h-678l-131 -371h-126l526 1475h141l526 -1475h-1q-97 -61 -166 -146.5t-69 -152.5q0 -40 25 -66.5t59 -26.5q53 0 101 54l59 -69q-68 -88 -166 -88zM337 482h598l-299 840z" />
    <glyph glyph-name="aogonek" unicode="&#x105;" horiz-adv-x="1124" 
d="M845 -495q-75 0 -132 58.5t-57 134.5q0 119 135 261q43 46 92 85v156q-61 -113 -167.5 -172t-248.5 -59q-181 0 -283 84t-102 233q0 87 32.5 150t96.5 103t142 62.5t185 35.5l345 43v6q0 178 -75.5 258t-241.5 80q-267 0 -326 -225l-116 25q38 152 152.5 232.5
t293.5 80.5q431 0 431 -453v-684q-97 -61 -165.5 -146.5t-68.5 -152.5q0 -40 25 -66.5t59 -26.5q52 0 100 54l60 -69q-68 -88 -166 -88zM883 574l-339 -42q-185 -23 -264 -79t-79 -163q0 -104 71.5 -157.5t210.5 -53.5q157 0 260 86.5t128 238.5q12 59 12 170z" />
    <glyph glyph-name="Cacute" unicode="&#x106;" horiz-adv-x="1448" 
d="M797 1654h-110l111 297h109zM732 -31q-162 0 -290 56.5t-211 158.5t-126.5 242.5t-43.5 310.5t43.5 310.5t126.5 242.5t211 158.5t290 56.5q251 0 413.5 -130t221.5 -359l-122 -30q-49 190 -179 297t-334 107q-176 0 -300.5 -84t-184.5 -229t-60 -340
q0 -297 140.5 -474.5t404.5 -177.5q204 0 334 106.5t179 296.5l122 -29q-59 -229 -221.5 -359.5t-413.5 -130.5z" />
    <glyph glyph-name="cacute" unicode="&#x107;" horiz-adv-x="1119" 
d="M669 1285h-110l111 297h109zM595 -31q-238 0 -375.5 157.5t-137.5 426.5q0 272 136.5 428t377.5 156q161 0 282.5 -78t170.5 -212l-115 -42q-42 102 -131.5 159.5t-207.5 57.5q-185 0 -286 -123.5t-101 -345.5q0 -221 101.5 -345t285.5 -124q119 0 205 54.5t132 157.5
l117 -40q-65 -141 -180.5 -214t-273.5 -73z" />
    <glyph glyph-name="Ccircumflex" unicode="&#x108;" horiz-adv-x="1448" 
d="M454 1654l220 261h117l220 -261h-128l-151 176l-150 -176h-128zM732 -31q-162 0 -290 56.5t-211 158.5t-126.5 242.5t-43.5 310.5t43.5 310.5t126.5 242.5t211 158.5t290 56.5q251 0 413.5 -130t221.5 -359l-122 -30q-49 190 -179 297t-334 107q-176 0 -300.5 -84
t-184.5 -229t-60 -340q0 -297 140.5 -474.5t404.5 -177.5q204 0 334 106.5t179 296.5l122 -29q-59 -229 -221.5 -359.5t-413.5 -130.5z" />
    <glyph glyph-name="ccircumflex" unicode="&#x109;" horiz-adv-x="1119" 
d="M318 1285l220 261h116l220 -261h-128l-150 176l-150 -176h-128zM595 -31q-238 0 -375.5 157.5t-137.5 426.5q0 272 136.5 428t377.5 156q161 0 282.5 -78t170.5 -212l-115 -42q-42 102 -132 159.5t-207 57.5q-185 0 -286 -123.5t-101 -345.5q0 -221 101.5 -345
t285.5 -124q119 0 205 54.5t132 157.5l117 -40q-65 -141 -180.5 -214t-273.5 -73z" />
    <glyph glyph-name="Cdotaccent" unicode="&#x10a;" horiz-adv-x="1448" 
d="M676 1715v149h148v-149h-148zM732 -31q-162 0 -290 56.5t-211 158.5t-126.5 242.5t-43.5 310.5t43.5 310.5t126.5 242.5t211 158.5t290 56.5q251 0 413.5 -130t221.5 -359l-122 -30q-49 190 -179 297t-334 107q-176 0 -300.5 -84t-184.5 -229t-60 -340
q0 -297 140.5 -474.5t404.5 -177.5q204 0 334 106.5t179 296.5l122 -29q-59 -229 -221.5 -359.5t-413.5 -130.5z" />
    <glyph glyph-name="cdotaccent" unicode="&#x10b;" horiz-adv-x="1119" 
d="M511 1347v148h149v-148h-149zM595 -31q-238 0 -375.5 157.5t-137.5 426.5q0 272 136.5 428t377.5 156q161 0 282.5 -78t170.5 -212l-115 -42q-42 102 -131.5 159.5t-207.5 57.5q-185 0 -286 -123.5t-101 -345.5q0 -221 101.5 -345t285.5 -124q119 0 205 54.5t132 157.5
l117 -40q-65 -141 -180.5 -214t-273.5 -73z" />
    <glyph glyph-name="Ccaron" unicode="&#x10c;" horiz-adv-x="1448" 
d="M505 1915h128l149 -176l151 176h128l-220 -261h-117zM732 -31q-162 0 -290 56.5t-211 158.5t-126.5 242.5t-43.5 310.5t43.5 310.5t126.5 242.5t211 158.5t290 56.5q251 0 413.5 -130t221.5 -359l-122 -30q-49 190 -179 297t-334 107q-176 0 -300.5 -84t-184.5 -229
t-60 -340q0 -297 140.5 -474.5t404.5 -177.5q204 0 334 106.5t179 296.5l122 -29q-59 -229 -221.5 -359.5t-413.5 -130.5z" />
    <glyph glyph-name="ccaron" unicode="&#x10d;" horiz-adv-x="1119" 
d="M316 1546h128l151 -176l150 176h128l-220 -261h-116zM595 -31q-238 0 -375.5 157.5t-137.5 426.5q0 272 136.5 428t377.5 156q161 0 282.5 -78t170.5 -212l-115 -42q-42 102 -131.5 159.5t-207.5 57.5q-185 0 -286 -123.5t-101 -345.5q0 -221 101.5 -345t285.5 -124
q119 0 205 54.5t132 157.5l117 -40q-65 -141 -180.5 -214t-273.5 -73z" />
    <glyph glyph-name="Dcaron" unicode="&#x10e;" horiz-adv-x="1355" 
d="M314 1915h128l151 -176l150 176h128l-220 -261h-116zM558 0h-415v1475h415q352 0 532 -187t180 -551t-180 -550.5t-532 -186.5zM267 1359v-1243h277q307 0 453.5 151.5t146.5 469.5q0 317 -147 469.5t-453 152.5h-277z" />
    <glyph glyph-name="dcaron" unicode="&#x10f;" horiz-adv-x="1424" 
d="M1273 1094l8 63h8q37 0 51 25t14 73v13q0 16 -1 23h-80v200h148v-251q0 -52 -18 -88.5t-46 -48.5q-27 -12 -52 -12q-15 0 -32 3zM1047 1475h118v-1475h-118v197q-58 -109 -158.5 -168.5t-240.5 -59.5q-158 0 -273.5 74.5t-173.5 205t-58 302.5q0 265 135 425.5t370 160.5
q280 0 399 -229v567zM658 1022q-191 0 -290 -127t-99 -344q0 -218 99 -342.5t290 -124.5q192 0 290.5 126.5t98.5 340.5q0 218 -100.5 344.5t-288.5 126.5z" />
    <glyph glyph-name="Dcroat" unicode="&#x110;" horiz-adv-x="1337" 
d="M20 684v108h123v683h414q352 0 532.5 -187t180.5 -551t-180.5 -550.5t-532.5 -186.5h-414v684h-123zM266 1359v-567h384v-108h-384v-568h278q307 0 453.5 151.5t146.5 469.5q0 317 -147 469.5t-453 152.5h-278z" />
    <glyph glyph-name="dcroat" unicode="&#x111;" horiz-adv-x="1247" 
d="M986 1222h-237v107h237v146h118v-146h147v-107h-147v-1222h-118v197q-120 -228 -399 -228q-237 0 -371 160t-134 422q0 265 135 425.5t370 160.5q278 0 399 -229v314zM597 1022q-191 0 -290 -127t-99 -344q0 -218 99 -342.5t290 -124.5q192 0 290.5 126.5t98.5 340.5
q0 218 -100.5 344.5t-288.5 126.5z" />
    <glyph glyph-name="Emacron" unicode="&#x112;" horiz-adv-x="1157" 
d="M852 1720h-502v108h502v-108zM1055 0h-912v1475h912v-115h-793v-560h670v-115h-670v-570h793v-115z" />
    <glyph glyph-name="emacron" unicode="&#x113;" horiz-adv-x="1185" 
d="M366 1352v107h502v-107h-502zM603 84q253 0 368 231l108 -47q-67 -145 -190 -222t-286 -77q-238 0 -379.5 158t-141.5 426q0 270 139 427t376 157q243 0 376.5 -163.5t129.5 -454.5h-894q8 -205 113 -320t281 -115zM211 626h765q-17 193 -114.5 295.5t-264.5 102.5
q-168 0 -268.5 -104.5t-117.5 -293.5z" />
    <glyph glyph-name="Edotaccent" unicode="&#x116;" horiz-adv-x="1157" 
d="M682 1715h-148v149h148v-149zM1055 0h-912v1475h912v-115h-793v-560h670v-115h-670v-570h793v-115z" />
    <glyph glyph-name="edotaccent" unicode="&#x117;" horiz-adv-x="1185" 
d="M522 1347v148h150v-148h-150zM603 84q253 0 368 231l108 -47q-67 -145 -190 -222t-286 -77q-238 0 -379.5 158t-141.5 426q0 270 139 427t376 157q243 0 376.5 -163.5t129.5 -454.5h-894q8 -205 113 -320t281 -115zM211 626h765q-17 193 -114.5 295.5t-264.5 102.5
q-168 0 -268.5 -104.5t-117.5 -293.5z" />
    <glyph glyph-name="Eogonek" unicode="&#x118;" horiz-adv-x="1157" 
d="M899 -495q-75 0 -131.5 58.5t-56.5 134.5q0 122 133 261q13 15 42 41h-743v1475h912v-115h-793v-560h670v-115h-670v-570h793v-115q-98 -62 -166 -147t-68 -152q0 -40 24.5 -66.5t59.5 -26.5q53 0 101 54l58 -69q-67 -88 -165 -88z" />
    <glyph glyph-name="eogonek" unicode="&#x119;" horiz-adv-x="1185" 
d="M894 -474q-58 -24 -115 -12t-95 53q-49 50 -49 128q0 33 11 74q19 68 76 148q2 4 7.5 11.5t8.5 11.5q6 8 22 26q22 28 27 33q-88 -30 -184 -30q-238 0 -379.5 158t-141.5 426q0 270 139 427t376 157q243 0 376.5 -163.5t129.5 -454.5h-894q8 -205 113 -320t281 -115
q253 0 368 231l108 -47l-19 -38q-26 -51 -74 -119q-55 -79 -116 -156l-42 -56q-65 -98 -82 -161q-6 -23 -6 -43q0 -33 22 -55q27 -27 57 -27q52 0 108 51l60 -71q-38 -44 -93 -67zM211 626h765q-17 193 -114.5 295.5t-264.5 102.5q-168 0 -268.5 -104.5t-117.5 -293.5z" />
    <glyph glyph-name="Ecaron" unicode="&#x11a;" horiz-adv-x="1157" 
d="M547 1654l-219 261h128l149 -176l151 176h128l-220 -261h-117zM1055 0h-912v1475h912v-115h-793v-560h670v-115h-670v-570h793v-115z" />
    <glyph glyph-name="ecaron" unicode="&#x11b;" horiz-adv-x="1185" 
d="M317 1546h128l151 -176l150 176h128l-220 -261h-116zM603 84q253 0 368 231l108 -47q-67 -145 -190 -222t-286 -77q-238 0 -379.5 158t-141.5 426q0 270 139 427t376 157q243 0 376.5 -163.5t129.5 -454.5h-894q8 -205 113 -320t281 -115zM211 626h765
q-17 193 -114.5 295.5t-264.5 102.5q-168 0 -268.5 -104.5t-117.5 -293.5z" />
    <glyph glyph-name="Gcircumflex" unicode="&#x11c;" horiz-adv-x="1435" 
d="M442 1654l221 261h116l220 -261h-128l-150 176l-151 -176h-128zM1236 0v266q-59 -141 -193.5 -219t-320.5 -78q-309 0 -485 204t-176 564q0 356 179 561t490 205q204 0 353 -96t217 -283l-117 -35q-54 146 -173 223t-279 77q-261 0 -402.5 -172t-141.5 -490
q0 -303 142 -472.5t398 -169.5q252 0 375 146t125 406h-576v115h703v-752h-118z" />
    <glyph glyph-name="gcircumflex" unicode="&#x11d;" horiz-adv-x="1247" 
d="M459 1285h-128l219 261h117l220 -261h-128l-151 176zM587 1137q138 0 239 -58.5t160 -166.5v194h118v-1046q0 -264 -132.5 -423t-376.5 -159q-158 0 -275 73t-182 213l117 40q46 -103 134 -157.5t206 -54.5q189 0 290 126t101 343v172q-59 -108 -160.5 -165.5
t-238.5 -57.5q-229 0 -367 152.5t-138 408.5q0 260 138.5 413t366.5 153zM597 125q183 0 286 120t103 326q0 211 -104.5 331t-284.5 120q-182 0 -285.5 -121t-103.5 -330q0 -210 103.5 -328t285.5 -118z" />
    <glyph glyph-name="Gbreve" unicode="&#x11e;" horiz-adv-x="1435" 
d="M734 1608q-67 0 -124.5 33t-90.5 91q-34 56 -34 125h103q0 -59 43.5 -103t102.5 -44q60 0 103.5 43.5t43.5 103.5h102q0 -68 -33 -125.5t-91 -90.5q-55 -33 -125 -33zM1236 0v266q-59 -141 -193.5 -219t-320.5 -78q-309 0 -485 204t-176 564q0 356 179 561t490 205
q204 0 353 -96t217 -283l-117 -35q-54 146 -173 223t-279 77q-261 0 -402.5 -172t-141.5 -490q0 -303 142 -472.5t398 -169.5q252 0 375 146t125 406h-576v115h703v-752h-118z" />
    <glyph glyph-name="gbreve" unicode="&#x11f;" horiz-adv-x="1247" 
d="M607 1239q-67 0 -124.5 33t-90.5 91q-34 56 -34 125h103q0 -59 43.5 -103t102.5 -44q61 0 104 43.5t43 103.5h102q0 -67 -33 -124.5t-90 -90.5q-56 -34 -126 -34zM587 1137q138 0 239 -58.5t160 -166.5v194h118v-1046q0 -264 -132.5 -423t-376.5 -159q-158 0 -275 73
t-182 213l117 40q46 -103 134 -157.5t206 -54.5q189 0 290 126t101 343v172q-59 -108 -160.5 -165.5t-238.5 -57.5q-229 0 -367 152.5t-138 408.5q0 260 138.5 413t366.5 153zM597 125q183 0 286 120t103 326q0 211 -104.5 331t-284.5 120q-182 0 -285.5 -121t-103.5 -330
q0 -210 103.5 -328t285.5 -118z" />
    <glyph glyph-name="Gdotaccent" unicode="&#x120;" horiz-adv-x="1435" 
d="M650 1715v149h150v-149h-150zM1236 0v266q-59 -141 -193.5 -219t-320.5 -78q-309 0 -485 204t-176 564q0 356 179 561t490 205q204 0 353 -96t217 -283l-117 -35q-54 146 -173 223t-279 77q-261 0 -402.5 -172t-141.5 -490q0 -303 142 -472.5t398 -169.5q252 0 375 146
t125 406h-576v115h703v-752h-118z" />
    <glyph glyph-name="gdotaccent" unicode="&#x121;" horiz-adv-x="1203" 
d="M707 1347h-150v148h150v-148zM587 1137q138 0 239 -58.5t160 -166.5v194h118v-1046q0 -264 -132.5 -423t-376.5 -159q-158 0 -275 73t-182 213l117 40q46 -103 134 -157.5t206 -54.5q189 0 290 126t101 343v172q-59 -108 -160.5 -165.5t-238.5 -57.5q-229 0 -367 152.5
t-138 408.5q0 260 138.5 413t366.5 153zM597 125q183 0 286 120t103 326q0 211 -104.5 331t-284.5 120q-182 0 -285.5 -121t-103.5 -330q0 -210 103.5 -328t285.5 -118z" />
    <glyph glyph-name="uni0122" unicode="&#x122;" horiz-adv-x="1435" 
d="M1236 0v266q-59 -141 -193.5 -219t-320.5 -78q-309 0 -485 204t-176 564q0 356 179 561t490 205q204 0 353 -96t217 -283l-117 -35q-54 146 -173 223t-279 77q-261 0 -402.5 -172t-141.5 -490q0 -303 142 -472.5t398 -169.5q252 0 375 146t125 406h-576v115h703v-752
h-118zM673 -472q27 0 52.5 20.5t25.5 53.5q0 7 -1 11h-77v146h146v-146q0 -74 -44 -115t-102 -41v71z" />
    <glyph glyph-name="uni0123" unicode="&#x123;" horiz-adv-x="1247" 
d="M683 1649v-71q-27 0 -52 -21t-25 -57v-8h77v-145h-145v145q0 74 43.5 115.5t101.5 41.5zM587 1137q138 0 239 -58.5t160 -166.5v194h118v-1046q0 -264 -132.5 -423t-376.5 -159q-158 0 -275 73t-182 213l117 40q46 -103 134 -157.5t206 -54.5q189 0 290 126t101 343v172
q-59 -108 -160.5 -165.5t-238.5 -57.5q-229 0 -367 152.5t-138 408.5q0 260 138.5 413t366.5 153zM597 125q183 0 286 120t103 326q0 211 -104.5 331t-284.5 120q-182 0 -285.5 -121t-103.5 -330q0 -210 103.5 -328t285.5 -118z" />
    <glyph glyph-name="Hcircumflex" unicode="&#x124;" horiz-adv-x="1377" 
d="M538 1654h-128l220 261h116l220 -261h-128l-150 176zM262 0h-119v1475h119v-680h853v680h119v-1475h-119v680h-853v-680z" />
    <glyph glyph-name="hcircumflex" unicode="&#x125;" 
d="M502 1654h-128l220 261h117l219 -261h-128l-150 176zM953 0v607q0 217 -91 316t-251 99q-159 0 -254.5 -100t-95.5 -315v-607h-118v1475h118v-537q105 199 364 199q208 0 327 -130t119 -390v-617h-118z" />
    <glyph glyph-name="Hbar" unicode="&#x126;" horiz-adv-x="1418" 
d="M283 0h-119v1019h-144v115h144v341h119v-341h853v341h118v-341h144v-115h-144v-1019h-118v680h-853v-680zM283 1019v-224h853v224h-853z" />
    <glyph glyph-name="hbar" unicode="&#x127;" 
d="M143 1222h-137v107h137v146h118v-146h248v-107h-248v-284q105 199 364 199q208 0 327 -130t119 -390v-617h-118v607q0 217 -91 316t-251 99q-159 0 -254.5 -100t-95.5 -315v-607h-118v1222z" />
    <glyph glyph-name="Itilde" unicode="&#x128;" horiz-adv-x="445" 
d="M371 1655q-64 0 -169 60q-88 47 -126 47q-17 0 -29 -6t-17.5 -13t-8.5 -17t-3.5 -14t-0.5 -8q0 -15 7 -36h-92q-6 26 -6 51q0 78 58 119q38 26 90 26q37 0 74.5 -14t97.5 -47q85 -47 124 -47q32 0 45 19.5t13 44.5q0 13 -5 33h90q7 -24 7 -51q0 -78 -57 -120
q-39 -27 -92 -27zM283 0h-119v1475h119v-1475z" />
    <glyph glyph-name="itilde" unicode="&#x129;" horiz-adv-x="445" 
d="M371 1286q-37 0 -74.5 14t-94.5 47q-88 47 -126 47q-17 0 -29 -6t-17.5 -13.5t-8.5 -17.5t-3.5 -14t-0.5 -8q0 -15 7 -36h-92q-6 25 -6 52q0 77 58 118q38 26 90 26q63 0 172 -60q85 -47 124 -47q58 0 58 63q0 14 -5 34h90q7 -24 7 -51q0 -78 -57 -120q-40 -28 -92 -28z
M282 0h-118v1106h118v-1106z" />
    <glyph glyph-name="Imacron" unicode="&#x12a;" horiz-adv-x="445" 
d="M474 1720h-503v108h503v-108zM282 0h-118v1475h118v-1475z" />
    <glyph glyph-name="imacron" unicode="&#x12b;" horiz-adv-x="445" 
d="M474 1352h-503v107h503v-107zM282 0h-118v1106h118v-1106z" />
    <glyph glyph-name="Iogonek" unicode="&#x12e;" horiz-adv-x="446" 
d="M126 -495q-75 0 -131.5 58.5t-56.5 134.5q0 120 133 261q46 48 93 85v1431h119v-1475q-97 -61 -166 -146.5t-69 -152.5q0 -40 25 -66.5t59 -26.5q52 0 100 54l60 -69q-68 -88 -166 -88z" />
    <glyph glyph-name="iogonek" unicode="&#x12f;" horiz-adv-x="445" 
d="M282 1329h-118v151h118v-151zM126 -495q-75 0 -131.5 58.5t-56.5 134.5q0 122 133 261q46 48 93 85v1062h118v-1106q-98 -62 -166 -147t-68 -152q0 -40 24.5 -66.5t59.5 -26.5q52 0 100 54l59 -69q-67 -88 -165 -88z" />
    <glyph glyph-name="Idotaccent" unicode="&#x130;" horiz-adv-x="446" 
d="M298 1715h-150v149h150v-149zM283 0h-119v1475h119v-1475z" />
    <glyph glyph-name="dotlessi" unicode="&#x131;" horiz-adv-x="445" 
d="M282 0h-118v1106h118v-1106z" />
    <glyph glyph-name="Jcircumflex" unicode="&#x134;" horiz-adv-x="924" 
d="M421 1654l219 261h117l220 -261h-128l-151 176l-149 -176h-128zM381 -29q-140 0 -243.5 79.5t-137.5 213.5l119 28q21 -90 93.5 -148t169.5 -58q68 0 129 31t95 95q16 29 24 68t9 69t1 94v1032h119v-1032q0 -74 -1.5 -110.5t-12.5 -87.5t-34 -93q-48 -89 -134 -135
t-196 -46z" />
    <glyph glyph-name="jcircumflex" unicode="&#x135;" horiz-adv-x="486" 
d="M117 1285h-129l220 261h117l220 -261h-128l-151 176zM67 -489h-87v114h46q102 0 142 40t40 142v1299h119v-1336q0 -121 -69 -190t-191 -69z" />
    <glyph glyph-name="uni0136" unicode="&#x136;" horiz-adv-x="1179" 
d="M143 0v1475h119v-703l701 703h155l-704 -709l766 -766h-158l-760 755v-755h-119zM548 -472q27 0 52.5 20.5t25.5 53.5q0 8 -1 11h-77v146h145v-146q0 -74 -43.5 -115t-101.5 -41v71z" />
    <glyph glyph-name="uni0137" unicode="&#x137;" horiz-adv-x="986" 
d="M143 0v1475h118v-902l523 533h165l-548 -553l626 -553h-183l-583 532v-532h-118zM482 -472q28 0 53 21t25 56v8h-78v146h147v-146q0 -74 -44 -115t-103 -41v71z" />
    <glyph glyph-name="Lacute" unicode="&#x139;" horiz-adv-x="1030" 
d="M391 1951l-110 -297h-110l111 297h109zM999 0h-835v1475h119v-1360h716v-115z" />
    <glyph glyph-name="lacute" unicode="&#x13a;" horiz-adv-x="445" 
d="M390 1951l-109 -297h-110l110 297h109zM282 0h-118v1505h118v-1505z" />
    <glyph glyph-name="uni013B" unicode="&#x13b;" horiz-adv-x="1030" 
d="M999 0h-835v1475h119v-1360h716v-115zM509 -543v71q27 0 52.5 20.5t25.5 53.5q0 8 -1 11h-77v146h145v-146q0 -74 -43.5 -115t-101.5 -41z" />
    <glyph glyph-name="uni013C" unicode="&#x13c;" horiz-adv-x="445" 
d="M282 0h-118v1505h118v-1505zM150 -543v71q28 0 52.5 21t24.5 56v8h-77v146h146v-146q0 -74 -43.5 -115t-102.5 -41z" />
    <glyph glyph-name="Lcaron" unicode="&#x13d;" horiz-adv-x="1029" 
d="M653 1094l9 63h8q37 0 50.5 25t13.5 73v13q0 16 -1 23h-80v200h149v-251q0 -52 -18.5 -88.5t-46.5 -48.5q-27 -12 -52 -12q-15 0 -32 3zM1002 0h-835v1475h119v-1360h716v-115z" />
    <glyph glyph-name="lcaron" unicode="&#x13e;" horiz-adv-x="605" 
d="M282 0h-118v1505h118v-1505zM455 1094l8 63h8q37 0 51 25t14 73v13q0 16 -1 23h-80v200h148v-251q0 -52 -18 -88.5t-46 -48.5q-27 -12 -53 -12q-14 0 -31 3z" />
    <glyph glyph-name="Lslash" unicode="&#x141;" horiz-adv-x="1036" 
d="M170 483l-77 -44v135l77 44v857h119v-789l376 216v-133l-376 -217v-437h717v-115h-836v483z" />
    <glyph glyph-name="lslash" unicode="&#x142;" horiz-adv-x="754" 
d="M319 652l-228 -131v135l228 130v719h118v-650l227 129v-133l-227 -131v-720h-118v652z" />
    <glyph glyph-name="Nacute" unicode="&#x143;" horiz-adv-x="1378" 
d="M876 1951l-111 -297h-110l111 297h110zM262 0h-119v1475h119l855 -1267v1267h118v-1475h-118l-855 1267v-1267z" />
    <glyph glyph-name="nacute" unicode="&#x144;" 
d="M792 1582l-111 -297h-110l111 297h110zM953 0v607q0 217 -91 316t-251 99q-159 0 -254.5 -100t-95.5 -315v-607h-118v1106h118v-168q107 199 364 199q208 0 327 -130t119 -390v-617h-118z" />
    <glyph glyph-name="uni0145" unicode="&#x145;" horiz-adv-x="1378" 
d="M262 0h-119v1475h119l855 -1267v1267h118v-1475h-118l-855 1267v-1267zM637 -543v71q27 0 52.5 20.5t25.5 53.5q0 7 -1 11h-77v146h146v-146q0 -74 -44 -115t-102 -41z" />
    <glyph glyph-name="uni0146" unicode="&#x146;" 
d="M953 0v607q0 217 -91 316t-251 99q-159 0 -254.5 -100t-95.5 -315v-607h-118v1106h118v-168q105 199 364 199q208 0 327 -130t119 -390v-617h-118zM537 -543v71q27 0 52 20.5t25 53.5q0 8 -1 11h-76v146h145v-146q0 -74 -43.5 -115t-101.5 -41z" />
    <glyph glyph-name="Ncaron" unicode="&#x147;" horiz-adv-x="1378" 
d="M657 1654l-219 261h128l150 -176l150 176h128l-220 -261h-117zM262 0h-119v1475h119l855 -1267v1267h118v-1475h-118l-855 1267v-1267z" />
    <glyph glyph-name="ncaron" unicode="&#x148;" 
d="M544 1285l-219 261h128l149 -176l151 176h128l-221 -261h-116zM953 0v607q0 217 -91 316t-251 99q-159 0 -254.5 -100t-95.5 -315v-607h-118v1106h118v-168q105 199 364 199q208 0 327 -130t119 -390v-617h-118z" />
    <glyph glyph-name="Eng" unicode="&#x14a;" horiz-adv-x="1378" 
d="M1117 208v1267h118v-1668q0 -100 -43.5 -147t-136.5 -47q-50 0 -98 12v104l24 -3q30 -4 40 -4q59 0 81.5 33.5t22.5 123.5q0 108 -56 192l-807 1196v-1267h-119v1475h119z" />
    <glyph glyph-name="eng" unicode="&#x14b;" 
d="M953 -193v800q0 217 -91 316t-251 99q-159 0 -254.5 -100t-95.5 -315v-607h-118v1106h118v-168q105 199 364 199q208 0 327 -130t119 -390v-847q0 -121 -69 -190t-191 -69h-87v114h46q102 0 142.5 40t40.5 142z" />
    <glyph glyph-name="Omacron" unicode="&#x14c;" horiz-adv-x="1463" 
d="M480 1720v108h503v-108h-503zM732 -31q-162 0 -290 56.5t-211 158.5t-126.5 242.5t-43.5 310.5t43.5 310.5t126.5 242.5t211 158.5t290 56.5q215 0 368 -98.5t227.5 -270t74.5 -399.5t-74.5 -399.5t-227.5 -270t-368 -98.5zM732 85q177 0 301 83.5t183.5 228.5t59.5 340
t-59.5 340t-183.5 229t-301 84t-300.5 -84t-183 -229t-61.5 -340q-1 -145 33.5 -264t101.5 -206t172 -134.5t238 -47.5z" />
    <glyph glyph-name="omacron" unicode="&#x14d;" 
d="M346 1352v107h502v-107h-502zM597 -31q-242 0 -378.5 161t-136.5 425t137.5 423t377.5 159q243 0 379 -160t136 -422q0 -266 -136.5 -426t-378.5 -160zM597 84q190 0 289.5 126.5t99.5 344.5t-99.5 342.5t-289.5 124.5q-191 0 -290 -126.5t-99 -340.5q0 -219 100.5 -345
t288.5 -126z" />
    <glyph glyph-name="Ohungarumlaut" unicode="&#x150;" horiz-adv-x="1463" 
d="M971 1654h-110l111 297h109zM600 1654h-110l110 297h110zM732 -31q-162 0 -290 56.5t-211 158.5t-126.5 242.5t-43.5 310.5t43.5 310.5t126.5 242.5t211 158.5t290 56.5q215 0 368 -98.5t227.5 -270t74.5 -399.5t-74.5 -399.5t-227.5 -270t-368 -98.5zM732 85
q177 0 301 83.5t183.5 228.5t59.5 340t-59.5 340t-183.5 229t-301 84t-300.5 -84t-183 -229t-61.5 -340q-1 -145 33.5 -264t101.5 -206t172 -134.5t238 -47.5z" />
    <glyph glyph-name="ohungarumlaut" unicode="&#x151;" 
d="M839 1285h-110l110 297h109zM467 1285h-110l111 297h110zM597 -31q-242 0 -378.5 161t-136.5 425t137.5 423t377.5 159q243 0 379 -160t136 -422q0 -266 -136.5 -426t-378.5 -160zM597 84q190 0 289.5 126.5t99.5 344.5t-99.5 342.5t-289.5 124.5q-191 0 -290 -126.5
t-99 -340.5q0 -219 100.5 -345t288.5 -126z" />
    <glyph glyph-name="OE" unicode="&#x152;" horiz-adv-x="2297" 
d="M732 -31q-162 0 -290 56.5t-211 158.5t-126.5 242.5t-43.5 310.5t43.5 310.5t126.5 242.5t211 158.5t290 56.5q188 0 327.5 -74t223.5 -211v255h912v-115h-793v-560h671v-115h-671v-570h793v-115h-912v255q-85 -137 -224 -211.5t-327 -74.5zM732 85q177 0 301 83.5
t183.5 228.5t59.5 340t-59.5 340t-183.5 229t-301 84t-300.5 -84t-183 -229t-61.5 -340q-1 -145 33.5 -264t101.5 -206t172 -134.5t238 -47.5z" />
    <glyph glyph-name="oe" unicode="&#x153;" horiz-adv-x="2091" 
d="M597 -31q-242 0 -378.5 161t-136.5 425t137.5 423t377.5 159q158 0 273.5 -71t176.5 -199q63 130 178.5 200t271.5 70q244 0 377.5 -163.5t128.5 -454.5h-892q0 -12 -1 -19q13 -197 117.5 -306.5t276.5 -109.5q252 0 367 231l108 -47q-67 -145 -190 -222t-285 -77
q-157 0 -274.5 71t-181.5 202q-62 -130 -177.5 -201.5t-273.5 -71.5zM1111 626h765q-15 192 -113 295t-266 103t-268.5 -104.5t-117.5 -293.5zM597 84q177 0 276 111t111 304q-2 34 -2 54q0 21 2 57q-12 194 -111 303t-276 109q-191 0 -290 -126.5t-99 -340.5
q0 -219 100.5 -345t288.5 -126z" />
    <glyph glyph-name="Racute" unicode="&#x154;" horiz-adv-x="1271" 
d="M633 1654h-110l111 297h109zM1050 0l-381 574h-407v-574h-119v1475h535q220 0 347 -122t127 -328q0 -174 -93 -290t-258 -148l389 -587h-140zM262 1360v-670h415q164 0 258 89t94 246q0 156 -94 245.5t-258 89.5h-415z" />
    <glyph glyph-name="racute" unicode="&#x155;" horiz-adv-x="711" 
d="M493 1582l-111 -297h-110l111 297h110zM660 1136v-117q-22 3 -49 3q-159 0 -254.5 -100t-95.5 -315v-607h-118v1106h118v-168q105 199 364 199q23 0 35 -1z" />
    <glyph glyph-name="uni0156" unicode="&#x156;" horiz-adv-x="1271" 
d="M1050 0l-381 574h-407v-574h-119v1475h535q220 0 347 -122t127 -328q0 -174 -93 -290t-258 -148l389 -587h-140zM262 1360v-670h415q164 0 258 89t94 246q0 156 -94 245.5t-258 89.5h-415zM545 -472q28 0 53 21t25 56v8h-78v146h146v-146q0 -74 -43.5 -115t-102.5 -41v71
z" />
    <glyph glyph-name="uni0157" unicode="&#x157;" horiz-adv-x="712" 
d="M662 1136v-117q-23 3 -51 3q-159 0 -254.5 -100t-95.5 -315v-607h-118v1106h118v-168q107 199 364 199q25 0 37 -1zM130 -543v71q27 0 52.5 20.5t25.5 53.5q0 8 -1 11h-77v146h145v-146q0 -74 -43.5 -115t-101.5 -41z" />
    <glyph glyph-name="Rcaron" unicode="&#x158;" horiz-adv-x="1271" 
d="M299 1915h128l151 -176l150 176h128l-220 -261h-117zM1050 0l-381 574h-407v-574h-119v1475h535q220 0 347 -122t127 -328q0 -174 -93 -290t-258 -148l389 -587h-140zM262 1360v-670h415q164 0 258 89t94 246q0 156 -94 245.5t-258 89.5h-415z" />
    <glyph glyph-name="rcaron" unicode="&#x159;" horiz-adv-x="712" 
d="M343 1285l-219 261h128l149 -176l151 176h128l-220 -261h-117zM662 1136v-117q-23 3 -51 3q-159 0 -254.5 -100t-95.5 -315v-607h-118v1106h118v-168q107 199 364 199q25 0 37 -1z" />
    <glyph glyph-name="Sacute" unicode="&#x15a;" horiz-adv-x="1233" 
d="M680 1654h-110l111 297h110zM644 -31q-228 0 -384 111t-195 301l120 20q38 -149 160.5 -233t301.5 -84q182 0 293 84.5t111 222.5q0 188 -248 261l-371 111q-310 92 -310 347q0 174 137 284.5t354 110.5q220 0 368.5 -117t180.5 -314l-122 -21q-23 152 -139.5 244.5
t-287.5 92.5q-162 0 -263.5 -79t-101.5 -198q0 -94 62.5 -150t216.5 -102l296 -88q170 -50 258 -146.5t88 -232.5q0 -193 -143 -309t-382 -116z" />
    <glyph glyph-name="sacute" unicode="&#x15b;" horiz-adv-x="1063" 
d="M593 1285h-110l110 297h109zM552 -29q-385 0 -470 307l123 23q65 -218 348 -218q144 0 224.5 56t80.5 158q0 55 -28.5 93.5t-99.5 68.5q-68 26 -200 62q-179 48 -253 85q-161 82 -161 232q0 130 118.5 214.5t302.5 84.5q180 0 300.5 -88t142.5 -233l-121 -22
q-16 108 -104.5 169.5t-225.5 61.5q-124 0 -208 -53t-84 -135q0 -44 23.5 -77t77.5 -57.5t84 -34.5t100 -28q20 -6 29 -8q139 -36 228 -73q105 -42 153 -105t48 -156q0 -152 -114.5 -239.5t-313.5 -87.5z" />
    <glyph glyph-name="Scircumflex" unicode="&#x15c;" horiz-adv-x="1233" 
d="M354 1654l220 261h117l220 -261h-128l-150 176l-151 -176h-128zM644 -31q-228 0 -384 111t-195 301l120 20q38 -149 160.5 -233t301.5 -84q182 0 293 84.5t111 222.5q0 188 -248 261l-371 111q-310 92 -310 347q0 174 137 284.5t354 110.5q220 0 368.5 -117t180.5 -314
l-122 -21q-23 152 -139.5 244.5t-287.5 92.5q-162 0 -263.5 -79t-101.5 -198q0 -94 62.5 -150t216.5 -102l296 -88q170 -50 258 -146.5t88 -232.5q0 -193 -143 -309t-382 -116z" />
    <glyph glyph-name="scircumflex" unicode="&#x15d;" horiz-adv-x="1063" 
d="M273 1285l221 261h116l220 -261h-128l-150 176l-151 -176h-128zM552 -29q-385 0 -470 307l123 23q65 -218 348 -218q144 0 224.5 56t80.5 158q0 55 -28.5 93.5t-99.5 68.5q-68 26 -200 62q-179 48 -253 85q-161 82 -161 232q0 130 118.5 214.5t302.5 84.5
q180 0 300.5 -88t142.5 -233l-121 -22q-16 108 -104.5 169.5t-225.5 61.5q-124 0 -208 -53t-84 -135q0 -44 23.5 -77t77.5 -57.5t84 -34.5t100 -28q20 -6 29 -8q139 -36 228 -73q105 -42 153 -105t48 -156q0 -152 -114.5 -239.5t-313.5 -87.5z" />
    <glyph glyph-name="Scedilla" unicode="&#x15e;" horiz-adv-x="1233" 
d="M595 -490q-61 0 -127 30l34 89q50 -18 84 -18q40 0 64.5 25.5t24.5 62.5q0 53 -59 80q-34 14 -70 26q-1 0 -7 2l59 163q-211 11 -353.5 121t-179.5 290l120 20q38 -149 160.5 -233t301.5 -84q182 0 293 84.5t111 222.5q0 188 -248 261l-371 111q-310 92 -310 347
q0 174 137 284.5t354 110.5q220 0 368.5 -117t180.5 -314l-122 -21q-23 152 -139.5 244.5t-287.5 92.5q-162 0 -263.5 -79t-101.5 -198q0 -94 62.5 -150t216.5 -102l296 -88q170 -50 258 -146.5t88 -232.5q0 -183 -128 -296.5t-345 -126.5l-38 -104q123 -54 123 -173
q0 -76 -55 -130t-131 -54z" />
    <glyph glyph-name="scedilla" unicode="&#x15f;" horiz-adv-x="1063" 
d="M497 -490q-60 0 -126 30l33 89q50 -18 83 -18q40 0 65.5 25.5t25.5 62.5q0 53 -60 80q-38 16 -69 26q-2 0 -8 2l61 165q-341 20 -420 306l123 23q65 -218 348 -218q144 0 224.5 56t80.5 158q0 55 -28.5 93.5t-99.5 68.5q-68 26 -200 62q-179 48 -253 85q-161 82 -161 232
q0 130 118.5 214.5t302.5 84.5q180 0 300.5 -88t142.5 -233l-121 -22q-16 108 -104.5 169.5t-225.5 61.5q-124 0 -208 -53t-84 -135q0 -44 23.5 -77t77.5 -57.5t84 -34.5t100 -28q20 -6 29 -8q139 -36 228 -73q105 -42 153 -105t48 -156q0 -142 -101 -228.5t-279 -97.5
l-39 -105q123 -56 123 -173q0 -76 -55.5 -130t-131.5 -54z" />
    <glyph glyph-name="Scaron" unicode="&#x160;" horiz-adv-x="1233" 
d="M366 1915h128l150 -176l151 176h128l-221 -261h-116zM644 -31q-228 0 -384 111t-195 301l120 20q38 -149 160.5 -233t301.5 -84q182 0 293 84.5t111 222.5q0 188 -248 261l-371 111q-310 92 -310 347q0 174 137 284.5t354 110.5q220 0 368.5 -117t180.5 -314l-122 -21
q-23 152 -139.5 244.5t-287.5 92.5q-162 0 -263.5 -79t-101.5 -198q0 -94 62.5 -150t216.5 -102l296 -88q170 -50 258 -146.5t88 -232.5q0 -193 -143 -309t-382 -116z" />
    <glyph glyph-name="scaron" unicode="&#x161;" horiz-adv-x="1063" 
d="M278 1546h128l150 -176l151 176h128l-221 -261h-116zM552 -29q-385 0 -470 307l123 23q65 -218 348 -218q144 0 224.5 56t80.5 158q0 55 -28.5 93.5t-99.5 68.5q-68 26 -200 62q-179 48 -253 85q-161 82 -161 232q0 130 118.5 214.5t302.5 84.5q180 0 300.5 -88
t142.5 -233l-121 -22q-16 108 -104.5 169.5t-225.5 61.5q-124 0 -208 -53t-84 -135q0 -44 23.5 -77t77.5 -57.5t84 -34.5t100 -28q20 -6 29 -8q139 -36 228 -73q105 -42 153 -105t48 -156q0 -152 -114.5 -239.5t-313.5 -87.5z" />
    <glyph glyph-name="uni0162" unicode="&#x162;" horiz-adv-x="1215" 
d="M557 0h-32v1360h-463v115h1036v-115h-454v-1354h13l-55 -151q123 -54 123 -173q0 -76 -55 -130.5t-131 -54.5q-59 0 -127 31l33 89q49 -18 84 -18q40 0 64.5 25.5t24.5 62.5q0 54 -58 80q-30 12 -71 26q-1 0 -7 2z" />
    <glyph glyph-name="uni0163" unicode="&#x163;" horiz-adv-x="798" 
d="M427 -490q-61 0 -127 30l34 89q51 -18 84 -18q40 0 65 25.5t25 62.5q0 53 -59 80q-34 14 -70 26q-2 0 -8 2l74 204q-84 23 -130.5 88t-46.5 161v731h-248v115h248v307h119v-307h343v-115h-343v-692q0 -103 40.5 -144.5t141.5 -41.5h161v-113h-190l-50 -133
q124 -55 124 -173q0 -76 -55.5 -130t-131.5 -54z" />
    <glyph glyph-name="Tcaron" unicode="&#x164;" horiz-adv-x="1215" 
d="M549 1654l-220 261h128l150 -176l150 176h128l-219 -261h-117zM667 0h-118v1360h-529v115h1175v-115h-528v-1360z" />
    <glyph glyph-name="tcaron" unicode="&#x165;" horiz-adv-x="798" 
d="M612 1265l9 63h8q37 0 50.5 25t13.5 73v13q0 16 -1 23h-80v200h149v-251q0 -51 -18.5 -88t-46.5 -49q-27 -12 -52 -12q-16 0 -32 3zM20 991v115h248v370h119v-370h343v-115h-343v-692q0 -103 40.5 -144.5t141.5 -41.5h161v-113h-196q-123 0 -194.5 69.5t-71.5 190.5v731
h-248z" />
    <glyph glyph-name="Tbar" unicode="&#x166;" horiz-adv-x="1215" 
d="M549 678h-382v119h382v563h-529v115h1175v-115h-528v-563h381v-119h-381v-678h-118v678z" />
    <glyph glyph-name="tbar" unicode="&#x167;" horiz-adv-x="839" 
d="M268 496h-248v114h248v381h-248v115h248v307h119v-307h343v-115h-343v-381h350v-114h-350v-197q0 -103 40.5 -144.5t141.5 -41.5h161v-113h-196q-123 0 -194.5 69.5t-71.5 190.5v236z" />
    <glyph glyph-name="Utilde" unicode="&#x168;" horiz-adv-x="1425" 
d="M868 1655q-64 0 -170 60q-85 47 -125 47q-17 0 -29 -6t-17.5 -13t-8.5 -17.5t-3 -14v-8.5q0 -17 5 -35h-90q-6 26 -6 51q0 78 57 119q38 26 89 26q38 0 75.5 -14t97.5 -47q83 -47 124 -47q32 0 45.5 19.5t13.5 44.5q0 13 -5 33h90q7 -24 7 -51q0 -78 -57 -120
q-39 -27 -93 -27zM713 -31q-262 0 -416 160t-154 439v907h119v-907q0 -230 118.5 -358.5t332.5 -128.5t332 128t118 359v907h119v-907q0 -279 -153 -439t-416 -160z" />
    <glyph glyph-name="utilde" unicode="&#x169;" 
d="M759 1286q-37 0 -74.5 14t-95.5 47q-85 47 -125 47q-14 0 -25 -4t-17 -11t-9.5 -13t-5 -14.5t-1.5 -11v-6.5q0 -17 5 -35h-90q-7 30 -7 52q0 77 58 118q38 26 89 26q38 0 76 -14t97 -46q83 -47 124 -47q58 0 58 63q0 14 -5 34h90q7 -24 7 -51q0 -78 -57 -120
q-40 -28 -92 -28zM242 1106v-606q0 -217 90.5 -316.5t250.5 -99.5t255 100t95 316v606h119v-1106h-119v167q-105 -198 -363 -198q-208 0 -327.5 130t-119.5 389v618h119z" />
    <glyph glyph-name="Umacron" unicode="&#x16a;" horiz-adv-x="1425" 
d="M462 1720v108h502v-108h-502zM713 -31q-262 0 -416 160t-154 439v907h119v-907q0 -230 118.5 -358.5t332.5 -128.5t332 128t118 359v907h119v-907q0 -279 -153 -439t-416 -160z" />
    <glyph glyph-name="umacron" unicode="&#x16b;" 
d="M838 1352h-503v107h503v-107zM241 1106v-606q0 -217 91 -316.5t251 -99.5t255 100t95 316v606h118v-1106h-118v168q-105 -199 -364 -199q-208 0 -327 130t-119 389v618h118z" />
    <glyph glyph-name="Ubreve" unicode="&#x16c;" horiz-adv-x="1425" 
d="M713 1608q-67 0 -124.5 33t-90.5 91q-34 56 -34 125h102q0 -59 44 -103t103 -44q60 0 103 43.5t43 103.5h103q0 -68 -33 -125.5t-91 -90.5q-55 -33 -125 -33zM713 -31q-262 0 -416 160t-154 439v907h119v-907q0 -230 118.5 -358.5t332.5 -128.5t332 128t118 359v907h119
v-907q0 -279 -153 -439t-416 -160z" />
    <glyph glyph-name="ubreve" unicode="&#x16d;" 
d="M587 1239q-67 0 -124.5 33t-90.5 91q-34 56 -34 125h102q0 -59 44 -103t103 -44q60 0 103 43.5t43 103.5h103q0 -67 -33 -124.5t-91 -90.5q-56 -34 -125 -34zM241 1106v-606q0 -217 91 -316.5t251 -99.5t255 100t95 316v606h118v-1106h-118v168q-105 -199 -364 -199
q-208 0 -327 130t-119 389v618h118z" />
    <glyph glyph-name="Uring" unicode="&#x16e;" horiz-adv-x="1425" 
d="M714 1595q-86 0 -148.5 62.5t-62.5 149.5q0 86 63 149t148 63q88 0 150 -63t62 -149q0 -87 -62 -149.5t-150 -62.5zM714 1695q46 0 79 33t33 79q0 47 -33 80t-79 33t-79.5 -33.5t-33.5 -79.5t33.5 -79t79.5 -33zM713 -31q-262 0 -416 160t-154 439v907h119v-907
q0 -230 118.5 -358.5t332.5 -128.5t332 128t118 359v907h119v-907q0 -279 -153 -439t-416 -160z" />
    <glyph glyph-name="uring" unicode="&#x16f;" 
d="M588 1227q-86 0 -149 62.5t-63 149.5q0 85 63 148.5t149 63.5q87 0 149.5 -63t62.5 -149q0 -87 -62.5 -149.5t-149.5 -62.5zM588 1326q46 0 79 33.5t33 79.5q0 47 -33 79.5t-79 32.5t-79.5 -33t-33.5 -79t33.5 -79.5t79.5 -33.5zM241 1106v-606q0 -217 91 -316.5
t251 -99.5t255 100t95 316v606h118v-1106h-118v168q-105 -199 -364 -199q-208 0 -327 130t-119 389v618h118z" />
    <glyph glyph-name="Uhungarumlaut" unicode="&#x170;" horiz-adv-x="1425" 
d="M938 1654h-110l111 297h110zM567 1654h-109l109 297h110zM713 -31q-262 0 -416 160t-154 439v907h119v-907q0 -230 118.5 -358.5t332.5 -128.5t332 128t118 359v907h119v-907q0 -279 -153 -439t-416 -160z" />
    <glyph glyph-name="uhungarumlaut" unicode="&#x171;" 
d="M929 1582l-110 -297h-109l109 297h110zM558 1582l-111 -297h-109l111 297h109zM241 1106v-606q0 -217 91 -316.5t251 -99.5t255 100t95 316v606h118v-1106h-118v168q-105 -199 -364 -199q-208 0 -327 130t-119 389v618h118z" />
    <glyph glyph-name="Uogonek" unicode="&#x172;" horiz-adv-x="1425" 
d="M713 -31q-262 0 -416 160t-154 439v907h119v-907q0 -230 118.5 -358.5t332.5 -128.5t332 128t118 359v907h119v-907q0 -173 -61 -303t-173 -204q-52 -40 -90 -77q-116 -114 -116 -207q0 -40 24.5 -66.5t59.5 -26.5q49 0 100 54l58 -69q-68 -88 -165 -88
q-75 0 -131.5 58.5t-56.5 134.5q0 62 36 129q14 27 46 73q-45 -7 -100 -7z" />
    <glyph glyph-name="uogonek" unicode="&#x173;" 
d="M895 -495q-75 0 -131.5 58.5t-56.5 134.5q0 122 133 261q46 48 93 85v124q-105 -199 -364 -199q-208 0 -327 130t-119 389v618h118v-606q0 -217 91 -316.5t251 -99.5t255 100t95 316v606h118v-1106q-98 -62 -166 -147t-68 -152q0 -40 24.5 -66.5t59.5 -26.5q52 0 100 54
l59 -69q-67 -88 -165 -88z" />
    <glyph glyph-name="Wcircumflex" unicode="&#x174;" horiz-adv-x="1889" 
d="M795 1654h-128l220 261h117l219 -261h-128l-150 176zM584 0h-124l-422 1475h122l361 -1272l361 1272h124l361 -1272l360 1272h124l-421 -1475h-124l-362 1267z" />
    <glyph glyph-name="wcircumflex" unicode="&#x175;" horiz-adv-x="1552" 
d="M623 1285h-128l220 261h116l221 -261h-128l-151 176zM1048 0l-272 909l-272 -909h-125l-338 1106h122l278 -926l278 926h114l277 -926l280 926h121l-339 -1106h-124z" />
    <glyph glyph-name="Ycircumflex" unicode="&#x176;" horiz-adv-x="1100" 
d="M400 1654h-128l221 261h116l219 -261h-128l-149 176zM610 0h-117v623l-493 852h136l415 -717l414 717h136l-491 -852v-623z" />
    <glyph glyph-name="ycircumflex" unicode="&#x177;" horiz-adv-x="1057" 
d="M394 1285h-128l220 261h117l220 -261h-128l-150 176zM428 -492h-123l182 492l-449 1106h126l382 -948l346 948h124z" />
    <glyph glyph-name="Ydieresis" unicode="&#x178;" horiz-adv-x="1100" 
d="M813 1705h-143v143h143v-143zM433 1705h-143v143h143v-143zM610 0h-117v623l-493 852h136l415 -717l414 717h136l-491 -852v-623z" />
    <glyph glyph-name="Zacute" unicode="&#x179;" horiz-adv-x="1266" 
d="M811 1951l-111 -297h-109l110 297h110zM1164 0h-1062v115l915 1245h-915v115h1062v-115l-914 -1245h914v-115z" />
    <glyph glyph-name="zacute" unicode="&#x17a;" horiz-adv-x="1061" 
d="M676 1582l-111 -297h-112l109 297h114zM980 0h-939v115l784 876h-784v115h939v-115l-784 -876h784v-115z" />
    <glyph glyph-name="Zdotaccent" unicode="&#x17b;" horiz-adv-x="1266" 
d="M712 1715h-149v149h149v-149zM1164 0h-1062v115l915 1245h-915v115h1062v-115l-914 -1245h914v-115z" />
    <glyph glyph-name="zdotaccent" unicode="&#x17c;" horiz-adv-x="1061" 
d="M585 1347h-149v148h149v-148zM980 0h-939v115l784 876h-784v115h939v-115l-784 -876h784v-115z" />
    <glyph glyph-name="Zcaron" unicode="&#x17d;" horiz-adv-x="1266" 
d="M580 1654l-221 261h128l151 -176l149 176h128l-219 -261h-116zM1164 0h-1062v115l915 1245h-915v115h1062v-115l-914 -1245h914v-115z" />
    <glyph glyph-name="zcaron" unicode="&#x17e;" horiz-adv-x="1061" 
d="M452 1285l-220 261h128l150 -176l150 176h128l-220 -261h-116zM980 0h-939v115l784 876h-784v115h939v-115l-784 -876h784v-115z" />
    <glyph glyph-name="uni018F" unicode="&#x18f;" horiz-adv-x="1425" 
d="M695 -31q-295 0 -464.5 190t-169.5 520q0 48 6 95h1170q-11 294 -158 454.5t-401 160.5q-162 0 -282 -79t-171 -221l-116 35q66 182 215 280.5t356 98.5q314 0 499 -205.5t185 -560.5q0 -356 -179.5 -562t-489.5 -206zM1236 658h-1048q1 -273 133.5 -423t371.5 -150
t382.5 151.5t160.5 421.5z" />
    <glyph glyph-name="florin" unicode="&#x192;" horiz-adv-x="1476" 
d="M319 -31q-74 0 -148 22q-60 18 -106 39l50 103q6 -2 11 -5q108 -43 191 -43q99 0 178 69q80 69 108 243l46 287h-383v108h401l55 337q22 142 94 226q68 78 159 116q86 34 178 34q111 0 214 -39q41 -17 45 -23l-57 -100q-35 19 -91.5 33t-110.5 14q-99 0 -192 -55
q-92 -54 -118 -207l-56 -336h479v-108h-496l-50 -305q-40 -236 -153 -321q-116 -89 -248 -89z" />
    <glyph glyph-name="Ohorn" unicode="&#x1a0;" horiz-adv-x="1463" 
d="M1253 1664q5 -43 5 -71q0 -37 -11 -87q-10 -47 -64 -84q-24 -17 -62 -28q137 -97 209 -267t72 -390q0 -228 -74.5 -399.5t-227.5 -270t-368 -98.5q-162 0 -290 56.5t-211 158.5t-126.5 242.5t-43.5 310.5t43.5 310.5t126.5 242.5t211 158.5t290 56.5q105 0 190 -22
q7 -1 21 -5q41 -11 67 -11q31 0 66 16q25 13 41.5 30.5t22.5 38t7.5 34t1.5 32.5q0 24 -1 36l-1 9zM732 85q177 0 301 83.5t183.5 228.5t59.5 340t-59.5 340t-183.5 229t-301 84t-300.5 -84t-183 -229t-61.5 -340q-1 -145 33.5 -264t101.5 -206t172 -134.5t238 -47.5z" />
    <glyph glyph-name="ohorn" unicode="&#x1a1;" 
d="M1105 1290q6 -39 6 -71q0 -36 -11 -85q-11 -46 -66 -85q-35 -23 -75 -32q-3 -1 -9 -2t-9 -2q171 -157 171 -458q0 -266 -136.5 -426t-378.5 -160t-378.5 161t-136.5 425t137.5 423t377.5 159q93 0 182 -29q49 -13 83 -13q36 0 66 15q26 12 42 29.5t22 38.5t7.5 33.5
t1.5 31.5q0 12 -2 38l-1 9h107zM597 84q190 0 289.5 126.5t99.5 344.5t-99.5 342.5t-289.5 124.5q-191 0 -290 -126.5t-99 -340.5q0 -219 100.5 -345t288.5 -126z" />
    <glyph glyph-name="Uhorn" unicode="&#x1af;" horiz-adv-x="1425" 
d="M1467 1659q6 -52 6 -71q0 -33 -12 -86q-10 -46 -63 -85q-43 -29 -91 -33q-8 -1 -25 -1v-815q0 -279 -153 -439t-416 -160q-262 0 -416 160t-154 439v907h119v-907q0 -230 118.5 -358.5t332.5 -128.5t332 128t118 359v907h44q54 2 75 7q82 16 82 120q0 24 -3 57h106z" />
    <glyph glyph-name="uhorn" unicode="&#x1b0;" horiz-adv-x="1195" 
d="M1120 1290h106q6 -39 6 -73q0 -35 -11 -84q-10 -44 -65 -84q-43 -29 -90 -33q-10 0 -15 -1v-1015h-118v168q-105 -199 -364 -199q-208 0 -327 130t-119 389v618h118v-606q0 -217 91 -316.5t251 -99.5t255 100t95 316v606h34q54 2 73 7q84 16 83 120v3q0 26 -3 54z" />
    <glyph glyph-name="uni0218" unicode="&#x218;" horiz-adv-x="1233" 
d="M644 -31q-228 0 -384 111t-195 301l120 20q38 -149 160.5 -233t301.5 -84q182 0 293 84.5t111 222.5q0 188 -248 261l-371 111q-310 92 -310 347q0 174 137 284.5t354 110.5q220 0 368.5 -117t180.5 -314l-122 -21q-23 152 -139.5 244.5t-287.5 92.5q-162 0 -263.5 -79
t-101.5 -198q0 -94 62.5 -150t216.5 -102l296 -88q170 -50 258 -146.5t88 -232.5q0 -193 -143 -309t-382 -116zM597 -472q27 0 52.5 20.5t25.5 53.5q0 8 -1 11h-77v146h145v-146q0 -74 -43.5 -115t-101.5 -41v71z" />
    <glyph glyph-name="uni0219" unicode="&#x219;" horiz-adv-x="1063" 
d="M552 -29q-385 0 -470 307l123 23q65 -218 348 -218q144 0 224.5 56t80.5 158q0 55 -28.5 93.5t-99.5 68.5q-68 26 -200 62q-179 48 -253 85q-161 82 -161 232q0 130 118.5 214.5t302.5 84.5q180 0 300.5 -88t142.5 -233l-121 -22q-16 108 -104.5 169.5t-225.5 61.5
q-124 0 -208 -53t-84 -135q0 -44 23.5 -77t77.5 -57.5t84 -34.5t100 -28q20 -6 29 -8q139 -36 228 -73q105 -42 153 -105t48 -156q0 -152 -114.5 -239.5t-313.5 -87.5zM467 -472q27 0 52.5 20.5t25.5 53.5q0 8 -1 11h-77v146h145v-146q0 -74 -43.5 -115t-101.5 -41v71z" />
    <glyph glyph-name="uni021A" unicode="&#x21a;" horiz-adv-x="1215" 
d="M667 0h-118v1360h-529v115h1175v-115h-528v-1360zM535 -543v71q27 0 52 20.5t25 53.5q0 7 -1 11h-76v146h146v-146q0 -74 -44 -115t-102 -41z" />
    <glyph glyph-name="uni021B" unicode="&#x21b;" horiz-adv-x="798" 
d="M268 991h-248v115h248v307h119v-307h343v-115h-343v-692q0 -103 40.5 -144.5t141.5 -41.5h161v-113h-196q-123 0 -194.5 69.5t-71.5 190.5v731zM333 -543v71q28 0 53 21t25 56v8h-78v146h146v-146q0 -74 -43.5 -115t-102.5 -41z" />
    <glyph glyph-name="uni0259" unicode="&#x259;" horiz-adv-x="1185" 
d="M583 1022q-255 0 -367 -231l-110 47q67 144 191 221.5t286 77.5q238 0 379.5 -158t141.5 -426q0 -270 -138.5 -427t-376.5 -157q-243 0 -376.5 163.5t-129.5 454.5h894q-8 205 -113 320t-281 115zM975 480h-765q17 -193 114.5 -295.5t264.5 -102.5q168 0 268.5 104.5
t117.5 293.5z" />
    <glyph glyph-name="circumflex" unicode="&#x2c6;" horiz-adv-x="1034" 
d="M367 1654h-128l219 261h116l221 -261h-128l-151 176z" />
    <glyph glyph-name="caron" unicode="&#x2c7;" horiz-adv-x="1013" 
d="M458 1654l-219 261h128l149 -176l151 176h128l-221 -261h-116z" />
    <glyph glyph-name="breve" unicode="&#x2d8;" horiz-adv-x="989" 
d="M495 1608q-67 0 -124.5 33t-90.5 91q-34 56 -34 125h102q0 -59 44 -103t103 -44q60 0 103 43.5t43 103.5h102q0 -68 -32.5 -125.5t-90.5 -90.5q-55 -33 -125 -33z" />
    <glyph glyph-name="dotaccent" unicode="&#x2d9;" horiz-adv-x="640" 
d="M394 1715h-148v149h148v-149z" />
    <glyph glyph-name="ring" unicode="&#x2da;" horiz-adv-x="942" 
d="M471 1595q-86 0 -149 62.5t-63 149.5q0 85 63.5 148.5t148.5 63.5q87 0 149.5 -63t62.5 -149q0 -87 -62.5 -149.5t-149.5 -62.5zM471 1695q46 0 79.5 33t33.5 79q0 47 -33 80t-80 33q-46 0 -79.5 -33.5t-33.5 -79.5t33.5 -79t79.5 -33z" />
    <glyph glyph-name="ogonek" unicode="&#x2db;" horiz-adv-x="846" 
d="M433 -495q-75 0 -131 58.5t-56 134.5q0 90 75.5 192.5t195.5 188.5l73 -79q-98 -62 -166 -147t-68 -152q0 -40 24.5 -66.5t59.5 -26.5q53 0 101 54l58 -69q-68 -88 -166 -88z" />
    <glyph glyph-name="tilde" unicode="&#x2dc;" horiz-adv-x="1080" 
d="M688 1655q-64 0 -170 60q-85 47 -125 47q-17 0 -29 -6t-17.5 -13t-8.5 -17.5t-3 -14v-8.5q0 -17 5 -35h-90q-6 26 -6 51q0 78 57 119q38 26 89 26q38 0 75.5 -14t97.5 -47q83 -47 124 -47q32 0 45 19.5t13 44.5q0 13 -5 33h90q8 -27 8 -51q0 -77 -58 -120
q-39 -27 -92 -27z" />
    <glyph glyph-name="hungarumlaut" unicode="&#x2dd;" horiz-adv-x="1052" 
d="M815 1951l-109 -297h-110l110 297h109zM444 1951l-110 -297h-110l111 297h109z" />
    <glyph glyph-name="uni0374" unicode="&#x374;" horiz-adv-x="506" 
d="M343 1475l-111 -297h-109l110 297h110z" />
    <glyph glyph-name="uni0375" unicode="&#x375;" horiz-adv-x="506" 
d="M343 -110l-111 -297h-109l110 297h110z" />
    <glyph glyph-name="uni037E" unicode="&#x37e;" horiz-adv-x="599" 
d="M374 957h-149v149h149v-149zM225 -198l8 64h9q37 0 50.5 24.5t13.5 72.5v12q0 17 -1 25h-80v200h149v-251q0 -51 -18.5 -88t-46.5 -50q-29 -13 -51 -13q-18 0 -33 4z" />
    <glyph glyph-name="tonos" unicode="&#x384;" horiz-adv-x="1228" 
d="M715 1475l-111 -297h-109l110 297h110z" />
    <glyph glyph-name="dieresistonos" unicode="&#x385;" horiz-adv-x="1228" 
d="M735 1582l-110 -297h-110l111 297h109zM929 1336h-138v144h138v-144zM440 1336h-138v144h138v-144z" />
    <glyph glyph-name="Alphatonos" unicode="&#x386;" horiz-adv-x="1278" 
d="M713 1475l526 -1475h-126l-132 371h-678l-131 -371h-126l526 1475h141zM345 1475l-111 -297h-109l111 297h109zM343 482h598l-299 840z" />
    <glyph glyph-name="anoteleia" unicode="&#x387;" horiz-adv-x="1228" 
d="M221 550q-41 0 -69.5 27t-28.5 68t28.5 68t69.5 27q38 0 65.5 -27.5t27.5 -67.5t-27.5 -67.5t-65.5 -27.5z" />
    <glyph glyph-name="Epsilontonos" unicode="&#x388;" horiz-adv-x="1421" 
d="M1319 0h-911v1475h911v-115h-793v-560h670v-115h-670v-570h793v-115zM260 1475l-110 -297h-110l111 297h109z" />
    <glyph glyph-name="Etatonos" unicode="&#x389;" horiz-adv-x="1638" 
d="M523 0h-119v1475h119v-680h853v680h119v-1475h-119v680h-853v-680zM256 1475l-111 -297h-109l110 297h110z" />
    <glyph glyph-name="Iotatonos" unicode="&#x38a;" horiz-adv-x="663" 
d="M519 0h-118v1475h118v-1475zM256 1475l-111 -297h-109l110 297h110z" />
    <glyph glyph-name="Omicrontonos" unicode="&#x38c;" horiz-adv-x="1654" 
d="M923 -31q-162 0 -290 56.5t-211 158.5t-126.5 242.5t-43.5 310.5t43.5 310.5t126.5 242.5t211 158.5t290 56.5q215 0 367.5 -98.5t227 -269.5t74.5 -400t-74.5 -400t-227 -269.5t-367.5 -98.5zM281 1475l-111 -297h-110l111 297h110zM923 85q177 0 300.5 83.5t183 228.5
t59.5 340t-59.5 340t-183 229t-300.5 84t-300.5 -84t-183 -229t-61.5 -340q-1 -145 33.5 -264t101.5 -206t172 -134.5t238 -47.5z" />
    <glyph glyph-name="Upsilontonos" unicode="&#x38e;" horiz-adv-x="1462" 
d="M972 0h-118v623l-493 852h137l414 -717l414 717h136l-490 -852v-623zM294 1475l-111 -297h-109l110 297h110z" />
    <glyph glyph-name="Omegatonos" unicode="&#x38f;" horiz-adv-x="1685" 
d="M727 0h-475v115h300q-145 113 -224 280.5t-79 374.5q0 208 81 376t232 262q152 95 358 95q205 0 357 -95q151 -94 232 -262q80 -169 80 -376t-79 -374.5t-224 -280.5h298v-115h-473l2 115q88 45 165.5 133.5t128.5 210.5q51 123 56 279v26q0 164 -62 304
q-63 142 -189 232q-127 89 -292 89q-166 0 -290 -87q-123 -86 -190 -234q-65 -145 -65 -320q0 -160 54 -288q55 -131 133 -215q77 -83 165 -130v-115zM284 1475l-111 -297h-110l111 297h110z" />
    <glyph glyph-name="iotadieresistonos" unicode="&#x390;" horiz-adv-x="727" 
d="M410 1582l-111 -297h-110l111 297h110zM603 1336h-138v144h138v-144zM115 1336h-139v144h139v-144zM659 113v-113h-196q-123 0 -194 69.5t-71 190.5v846h117v-807q0 -103 41 -144.5t143 -41.5h160z" />
    <glyph glyph-name="Alpha" unicode="&#x391;" horiz-adv-x="1272" 
d="M707 1475l526 -1475h-126l-132 371h-678l-131 -371h-126l526 1475h141zM337 482h598l-299 840z" />
    <glyph glyph-name="Beta" unicode="&#x392;" horiz-adv-x="1243" 
d="M635 0h-499v1475h484q225 0 354 -94t129 -283q0 -130 -66.5 -216t-172.5 -122q53 -11 103 -39.5t91 -72t66 -107t25 -137.5q0 -106 -37.5 -184.5t-107 -126t-161.5 -70.5t-208 -23zM621 1360h-366v-544h418q137 0 221.5 72t84.5 208t-94.5 200t-263.5 64zM255 115h380
q186 0 288.5 69t102.5 228q0 97 -49.5 164.5t-127 97t-175.5 29.5h-419v-588z" />
    <glyph glyph-name="Gamma" unicode="&#x393;" horiz-adv-x="1075" 
d="M261 0h-118v1475h912v-115h-794v-1360z" />
    <glyph glyph-name="uni0394" unicode="&#x394;" horiz-adv-x="1272" 
d="M41 0l522 1475h147l522 -1475h-1191zM635 1327l-429 -1212h860z" />
    <glyph glyph-name="Epsilon" unicode="&#x395;" horiz-adv-x="1157" 
d="M1052 0h-912v1475h912v-115h-793v-560h670v-115h-670v-570h793v-115z" />
    <glyph glyph-name="Zeta" unicode="&#x396;" horiz-adv-x="1223" 
d="M1164 0h-1062v115l915 1245h-915v115h1062v-115l-914 -1245h914v-115z" />
    <glyph glyph-name="Eta" unicode="&#x397;" horiz-adv-x="1377" 
d="M262 0h-119v1475h119v-680h853v680h119v-1475h-119v680h-853v-680z" />
    <glyph glyph-name="Theta" unicode="&#x398;" horiz-adv-x="1463" 
d="M732 -31q-162 0 -290 56.5t-211 158.5t-126.5 242.5t-43.5 310.5t43.5 310.5t126.5 242.5t211 158.5t290 56.5q215 0 368 -98.5t227.5 -270t74.5 -399.5t-74.5 -399.5t-227.5 -270t-368 -98.5zM732 85q177 0 301 83.5t183.5 228.5t59.5 340t-59.5 340t-183.5 229t-301 84
t-300.5 -84t-183 -229t-61.5 -340q-1 -145 33.5 -264t101.5 -206t172 -134.5t238 -47.5zM480 684v107h503v-107h-503z" />
    <glyph glyph-name="Iota" unicode="&#x399;" horiz-adv-x="445" 
d="M282 0h-118v1475h118v-1475z" />
    <glyph glyph-name="Kappa" unicode="&#x39a;" horiz-adv-x="1179" 
d="M143 0v1475h118v-703l702 703h155l-705 -709l767 -766h-158l-761 755v-755h-118z" />
    <glyph glyph-name="Lambda" unicode="&#x39b;" horiz-adv-x="1213" 
d="M562 1475h140l527 -1475h-126l-471 1322l-470 -1322h-126z" />
    <glyph glyph-name="Mu" unicode="&#x39c;" horiz-adv-x="1712" 
d="M304 0h-118v1475h115l556 -1188l550 1188h119v-1473h-119v1208l-492 -1063h-118l-493 1063v-1210z" />
    <glyph glyph-name="Nu" unicode="&#x39d;" horiz-adv-x="1378" 
d="M262 0h-119v1475h119l855 -1268v1268h118v-1475h-118l-855 1268v-1268z" />
    <glyph glyph-name="Xi" unicode="&#x39e;" horiz-adv-x="1393" 
d="M1250 1360h-1107v115h1107v-115zM1148 680h-902v115h902v-115zM1250 0h-1107v115h1107v-115z" />
    <glyph glyph-name="Omicron" unicode="&#x39f;" horiz-adv-x="1463" 
d="M732 -31q-162 0 -290 56.5t-211 158.5t-126.5 242.5t-43.5 310.5t43.5 310.5t126.5 242.5t211 158.5t290 56.5q215 0 368 -98.5t227.5 -270t74.5 -399.5t-74.5 -399.5t-227.5 -270t-368 -98.5zM732 85q177 0 301 83.5t183.5 228.5t59.5 340t-59.5 340t-183.5 229t-301 84
t-300.5 -84t-183 -229t-61.5 -340q-1 -145 33.5 -264t101.5 -206t172 -134.5t238 -47.5z" />
    <glyph glyph-name="Pi" unicode="&#x3a0;" horiz-adv-x="1393" 
d="M296 0h-119v1475h1067v-1475h-119v1360h-829v-1360z" />
    <glyph glyph-name="Rho" unicode="&#x3a1;" horiz-adv-x="1213" 
d="M261 0h-118v1475h534q220 0 347.5 -122t127.5 -328t-127.5 -328.5t-347.5 -122.5h-416v-574zM261 1360v-670h416q164 0 257.5 89t93.5 246q0 156 -93.5 245.5t-257.5 89.5h-416z" />
    <glyph glyph-name="Sigma" unicode="&#x3a3;" horiz-adv-x="1341" 
d="M305 1360l595 -606v-33l-595 -606h860v-115h-1022v112l618 625l-618 626v112h1022v-115h-860z" />
    <glyph glyph-name="Tau" unicode="&#x3a4;" horiz-adv-x="1215" 
d="M644 0h-119v1360h-463v115h1036v-115h-454v-1360z" />
    <glyph glyph-name="Upsilon" unicode="&#x3a5;" horiz-adv-x="1100" 
d="M610 0h-117v623l-493 852h136l415 -717l414 717h136l-491 -852v-623z" />
    <glyph glyph-name="Phi" unicode="&#x3a6;" horiz-adv-x="1511" 
d="M697 0v151q-100 3 -193 28t-173.5 73.5t-140.5 116.5t-94.5 162.5t-34.5 205.5t34.5 205.5t94.5 162.5t140.5 117t173.5 74t193 28v151h118v-151q100 -3 193 -28t173.5 -74t140.5 -117t94.5 -162.5t34.5 -205.5t-34.5 -205.5t-94.5 -162.5t-140.5 -116.5t-173.5 -73.5
t-193 -28v-151h-118zM815 1205v-936q228 6 370 131t142 337t-142 337t-370 131zM697 269v936q-228 -6 -370 -131t-142 -337t142 -337t370 -131z" />
    <glyph glyph-name="Chi" unicode="&#x3a7;" horiz-adv-x="1207" 
d="M163 0h-143l515 748l-502 727h142l428 -630l429 630h143l-502 -727l514 -748h-143l-441 648z" />
    <glyph glyph-name="Psi" unicode="&#x3a8;" horiz-adv-x="1438" 
d="M660 0v371q-177 5 -301.5 93t-180.5 242q-35 92 -35 205v564h115v-470q0 -121 20 -209q34 -143 135 -228t247 -86v993h118v-993q146 0 248.5 87t135.5 229q19 83 19 207v470h114v-564q0 -114 -34 -204q-56 -155 -181.5 -243.5t-301.5 -92.5v-371h-118z" />
    <glyph glyph-name="uni03A9" unicode="&#x3a9;" horiz-adv-x="1463" 
d="M540 0h-475v115h300q-145 113 -224.5 280.5t-79.5 374.5q0 208 81 376q80 167 233 262q152 95 357 95q206 0 358 -95q151 -94 232 -262q80 -169 80 -376t-79 -374.5t-224 -280.5h298v-115h-473l2 115q88 45 165.5 133.5t128.5 210.5q51 123 56 279v26q0 162 -63 304
q-63 143 -188 232q-127 89 -293 89t-290 -87q-121 -85 -189 -234q-66 -147 -66 -320q0 -158 55 -288q55 -131 133 -215q77 -83 165 -130v-115z" />
    <glyph glyph-name="Iotadieresis" unicode="&#x3aa;" horiz-adv-x="445" 
d="M484 1705h-143v143h143v-143zM104 1705h-143v143h143v-143zM282 0h-118v1475h118v-1475z" />
    <glyph glyph-name="Upsilondieresis" unicode="&#x3ab;" horiz-adv-x="1100" 
d="M813 1705h-143v143h143v-143zM433 1705h-143v143h143v-143zM610 0h-118v623l-492 852h136l415 -717l414 717h136l-491 -852v-623z" />
    <glyph glyph-name="alphatonos" unicode="&#x3ac;" horiz-adv-x="1247" 
d="M762 1582l-111 -297h-109l110 297h110zM986 1106h118v-1106h-118v197q-120 -228 -399 -228q-237 0 -371 160t-134 422q0 265 135 425.5t370 160.5q278 0 399 -229v198zM597 1022q-191 0 -290 -127t-99 -344q0 -218 99 -342.5t290 -124.5q192 0 290.5 126.5t98.5 340.5
q0 218 -100.5 344.5t-288.5 126.5z" />
    <glyph glyph-name="epsilontonos" unicode="&#x3ad;" horiz-adv-x="1052" 
d="M673 1582l-110 -297h-109l109 297h110zM527 -31q-210 0 -327.5 92.5t-117.5 246.5q0 97 53.5 168.5t132.5 95.5q-73 28 -115 87.5t-42 146.5q0 154 109 242.5t304 88.5q368 0 453 -328l-117 -22q-31 114 -108 176t-224 62q-296 0 -296 -226q0 -87 62 -133t170 -46h177
v-107h-177q-118 0 -189 -49.5t-71 -157.5q0 -106 84 -165.5t243 -59.5q304 0 348 272l116 -21q-67 -363 -468 -363z" />
    <glyph glyph-name="etatonos" unicode="&#x3ae;" horiz-adv-x="1195" 
d="M792 1582l-111 -297h-110l111 297h110zM953 0v607q0 217 -91 316t-251 99q-159 0 -254.5 -100t-95.5 -315v-607h-118v1106h118v-168q107 199 364 199q208 0 327 -130t119 -390v-617h-118z" />
    <glyph glyph-name="iotatonos" unicode="&#x3af;" horiz-adv-x="693" 
d="M282 1285h-110l111 297h109zM626 113v-113h-197q-123 0 -194 69.5t-71 190.5v846h118v-807q0 -103 40.5 -144.5t142.5 -41.5h161z" />
    <glyph glyph-name="upsilondieresistonos" unicode="&#x3b0;" horiz-adv-x="1166" 
d="M703 1582l-110 -297h-110l111 297h109zM897 1336h-138v144h138v-144zM409 1336h-139v144h139v-144zM123 504v602h119v-576q0 -216 85.5 -329t256.5 -113q170 0 255.5 113t85.5 329v576h118v-602q0 -244 -116 -387t-343 -143q-153 0 -258 68t-154 185.5t-49 276.5z" />
    <glyph glyph-name="alpha" unicode="&#x3b1;" horiz-adv-x="1247" 
d="M986 1106h118v-1106h-118v197q-120 -228 -399 -228q-237 0 -371 160t-134 422q0 265 135 425.5t370 160.5q278 0 399 -229v198zM597 1022q-191 0 -290 -127t-99 -344q0 -218 99 -342.5t290 -124.5q192 0 290.5 126.5t98.5 340.5q0 218 -100.5 344.5t-288.5 126.5z" />
    <glyph glyph-name="beta" unicode="&#x3b2;" horiz-adv-x="1136" 
d="M143 -492v1598q0 93 27 169q39 108 136 169t237 61q183 0 292.5 -102.5t109.5 -281.5q0 -119 -50.5 -202.5t-144.5 -113.5q80 -10 154.5 -60t122.5 -134q50 -85 50 -210q0 -192 -126.5 -312t-345.5 -120q-223 0 -345 132v-593h-117zM611 86q151 0 247 89t96 233
q0 149 -109 233.5t-301 89.5v112q124 16 200 85q77 68 77 194q0 125 -74.5 197t-201.5 72q-94 0 -162 -41.5t-95 -121.5q-22 -68 -22 -170v-633q0 -85 17 -142q26 -89 118.5 -143t209.5 -54z" />
    <glyph glyph-name="gamma" unicode="&#x3b3;" horiz-adv-x="1009" 
d="M567 -369h-125v369l-401 1106h123l341 -945l342 945h122l-402 -1106v-369z" />
    <glyph glyph-name="delta" unicode="&#x3b4;" 
d="M596 -29q-240 0 -377 145.5t-137 389.5q0 163 62.5 285.5t178.5 185.5q62 35 141 47q-3 1 -11 3.5t-12 4.5q-83 33 -142 92q-60 60 -60 154q0 80 48 139t138 77q41 11 120 11h425v-102h-400q-59 0 -102 -10q-113 -26 -113 -117q0 -93 167 -158q85 -32 232 -78q6 -3 18 -7
q50 -15 102 -44q116 -67 177 -189.5t61 -284.5q0 -163 -61.5 -285.5t-177.5 -189.5q-117 -69 -277 -69zM597 86q187 0 286 115t99 317q0 201 -99 312.5t-286 111.5q-188 0 -286.5 -114.5t-98.5 -312.5q0 -201 100 -315t285 -114z" />
    <glyph glyph-name="epsilon" unicode="&#x3b5;" horiz-adv-x="1027" 
d="M505 -31q-209 0 -327 92.5t-118 246.5q0 97 54 168.5t133 95.5q-73 28 -115.5 87.5t-42.5 146.5q0 154 109 242.5t305 88.5q368 0 451 -328l-116 -22q-30 114 -107 176t-224 62q-296 0 -296 -226q0 -87 61.5 -133t169.5 -46h176v-107h-176q-118 0 -189 -49.5t-71 -157.5
q0 -106 84.5 -165.5t243.5 -59.5q303 0 347 272l116 -21q-65 -363 -468 -363z" />
    <glyph glyph-name="zeta" unicode="&#x3b6;" horiz-adv-x="1017" 
d="M981 -246h-110q1 15 1 44q0 81 -24.5 126.5t-85.5 59.5t-193 16h-17q-138 0 -242 24q-98 22 -163 104q-65 78 -65 237q0 78 23 155q21 71 89 174q70 104 189 231q74 74 104 102q12 12 65 67.5t87 91.5q57 60 171 176h-667v113h841v-106l-240 -246q-104 -107 -240 -241
q-221 -227 -273 -367q-25 -68 -25 -141q0 -100 43.5 -157.5t131.5 -81.5q86 -23 223 -23q110 0 178 -14q71 -14 120 -53t68 -96q17 -59 17 -114q0 -36 -6 -81z" />
    <glyph glyph-name="eta" unicode="&#x3b7;" 
d="M953 -388v995q0 217 -91 316t-251 99q-159 0 -254.5 -100t-95.5 -315v-607h-118v1106h118v-168q107 199 364 199q208 0 327 -130t119 -390v-1005h-118z" />
    <glyph glyph-name="theta" unicode="&#x3b8;" horiz-adv-x="1326" 
d="M664 -31q-190 0 -320 106q-133 106 -197 279q-65 171 -65 383t65 383q64 173 197 279q129 104 320 104q190 0 319 -104q131 -106 197 -279q64 -173 64 -383q0 -217 -64 -390q-64 -171 -196 -275q-130 -103 -320 -103zM210 791h908q-6 150 -50 273q-51 149 -155 236
q-107 89 -249 89q-143 0 -246 -85.5t-157 -238.5q-43 -120 -51 -274zM664 85q142 0 247 88q102 86 154 236q44 124 52 275h-908q5 -149 49 -273q53 -151 156 -237q104 -89 250 -89z" />
    <glyph glyph-name="iota" unicode="&#x3b9;" horiz-adv-x="693" 
d="M626 113v-113h-197q-123 0 -194 69.5t-71 190.5v846h118v-807q0 -103 40.5 -144.5t142.5 -41.5h161z" />
    <glyph glyph-name="kappa" unicode="&#x3ba;" horiz-adv-x="987" 
d="M143 0v1106h118v-533l523 533h165l-548 -553l626 -553h-183l-583 532v-532h-118z" />
    <glyph glyph-name="lambda" unicode="&#x3bb;" horiz-adv-x="1050" 
d="M82 0l401 1106q-4 13 -12.5 35t-11.5 33q-34 86 -60 134q-25 45 -66 68q-45 24 -113 24h-52v105h64q66 0 108 -9q117 -26 184 -171q27 -59 67 -169q12 -39 17 -50l402 -1106h-123l-341 945l-342 -945h-122z" />
    <glyph glyph-name="uni03BC" unicode="&#x3bc;" horiz-adv-x="1215" 
d="M953 1106h119v-1106h-119v168q-105 -199 -363 -199q-213 0 -329 131l1 -592h-119v1598h119v-626q4 -207 94.5 -301.5t246.5 -94.5q160 0 255 100t95 316v606z" />
    <glyph glyph-name="nu" unicode="&#x3bd;" horiz-adv-x="1009" 
d="M567 0h-125l-401 1106h123l341 -948l342 948h122z" />
    <glyph glyph-name="xi" unicode="&#x3be;" horiz-adv-x="1103" 
d="M607 0q-248 -4 -391 110t-143 315q0 125 73 217t193 119q-102 40 -161.5 129.5t-59.5 204.5q0 165 116 265h-161v115h874v-115h-417q-136 0 -214 -69t-78 -196q0 -129 79 -203.5t212 -74.5h275v-116h-278q-155 0 -243 -72t-88 -204q0 -153 111.5 -233t309.5 -77
q164 3 254 -8t143 -46q57 -36 75 -107.5t1 -189.5h-112q10 82 -2.5 129t-54.5 71q-71 41 -313 36z" />
    <glyph glyph-name="omicron" unicode="&#x3bf;" 
d="M597 -31q-242 0 -378.5 161t-136.5 425t137.5 423t377.5 159q243 0 379 -160t136 -422q0 -266 -136.5 -426t-378.5 -160zM597 84q190 0 289.5 126.5t99.5 344.5t-99.5 342.5t-289.5 124.5q-191 0 -290 -126.5t-99 -340.5q0 -219 100.5 -345t288.5 -126z" />
    <glyph glyph-name="pi" unicode="&#x3c0;" horiz-adv-x="1325" 
d="M398 0h-118v993h-232v113h1229v-113h-231v-993h-119v993h-529v-993z" />
    <glyph glyph-name="rho" unicode="&#x3c1;" horiz-adv-x="1254" 
d="M261 -492h-118v1047q0 264 137.5 423t376.5 159q243 0 379 -160t136 -422q0 -266 -134.5 -426t-369.5 -160q-290 0 -407 244v-705zM657 84q191 0 290.5 127t99.5 344q0 218 -99.5 342.5t-290.5 124.5q-129 0 -217.5 -60.5t-129.5 -163.5t-41 -243q0 -219 100 -345
t288 -126z" />
    <glyph glyph-name="uni03C2" unicode="&#x3c2;" horiz-adv-x="1119" 
d="M988 -246h-110q2 36 2 51q0 76 -26.5 120t-85.5 56q-59 13 -201 19h-11q-191 7 -298 92q-103 82 -140 196q-36 112 -36 237q0 292 133.5 452t373.5 160q166 0 287 -76.5t173 -213.5l-115 -42q-42 103 -132 160t-212 57q-181 0 -279 -129t-100 -341q0 -100 28 -201
q25 -98 107 -169q80 -70 228 -70h9q136 0 205 -14q111 -22 159 -93q47 -70 47 -167q0 -39 -6 -84z" />
    <glyph glyph-name="sigma" unicode="&#x3c3;" horiz-adv-x="1217" 
d="M597 -31q-153 0 -270.5 72.5t-181.5 203.5q-63 129 -63 294q0 225 114 376.5t307 182.5q55 8 189 8h482v-113h-249q75 -60 123 -157q64 -129 64 -297q0 -166 -63.5 -295t-180.5 -202q-120 -73 -271 -73zM597 84q184 0 286.5 123.5t102.5 331.5q0 205 -102.5 328
t-286.5 124h-4q-122 0 -209.5 -57t-131.5 -161q-44 -101 -44 -234q0 -208 103.5 -331.5t285.5 -123.5z" />
    <glyph glyph-name="tau" unicode="&#x3c4;" horiz-adv-x="1037" 
d="M51 993v113h919v-113h-401v-694q0 -103 41 -144.5t142 -41.5h160v-113h-195q-123 0 -194 69.5t-71 190.5v733h-401z" />
    <glyph glyph-name="upsilon" unicode="&#x3c5;" horiz-adv-x="1166" 
d="M123 504v602h119v-576q0 -216 85.5 -329t256.5 -113q170 0 255.5 113t85.5 329v576h118v-602q0 -244 -116 -387t-343 -143q-153 0 -258 68t-154 185.5t-49 276.5z" />
    <glyph glyph-name="phi" unicode="&#x3c6;" horiz-adv-x="1499" 
d="M690 -461v443q-128 2 -236 37.5t-192.5 103.5t-132 178t-47.5 251q0 188 81 316t223 193l56 -105q-114 -53 -175 -156t-61 -248q0 -214 129.5 -333.5t354.5 -121.5v1027h118q102 -1 192 -23t167 -68t132 -112.5t86.5 -160.5t31.5 -208t-31.5 -208t-86.5 -160t-132 -111.5
t-167 -67.5t-192 -23v-443h-118zM808 1009v-912q225 2 355 121t130 334t-130 335t-355 122z" />
    <glyph glyph-name="chi" unicode="&#x3c7;" horiz-adv-x="1060" 
d="M166 0h-146l442 559l-431 547h143l357 -458l356 458h143l-431 -547l441 -559h-145l-364 470z" />
    <glyph glyph-name="psi" unicode="&#x3c8;" horiz-adv-x="1397" 
d="M641 -461v425q-173 6 -300.5 96t-182.5 240q-35 91 -35 205v601h115v-508q0 -133 19 -209q34 -138 140 -224.5t244 -88.5v1030h116v-1030q138 2 245.5 90t139.5 226q18 77 18 206v508h115v-601q0 -113 -35 -205q-52 -146 -180 -238t-303 -98v-425h-116z" />
    <glyph glyph-name="omega" unicode="&#x3c9;" horiz-adv-x="1574" 
d="M488 -33q-196 0 -301 141.5t-105 380.5q0 226 92.5 386.5t284.5 261.5l69 -104q-168 -91 -244 -221q-76 -129 -76 -314q0 -186 75 -300.5t214 -114.5q171 0 215 169q18 75 18 186v265h115v-257q0 -118 19 -193t69 -121q50 -49 145 -49t161 55.5t97 147.5t31 212
q0 189 -75.5 316t-243.5 219l69 104q194 -102 285 -262t91 -386q0 -239 -105 -380.5t-299 -141.5q-125 0 -210 66q-64 49 -92 129q-29 -82 -91 -129q-84 -66 -208 -66z" />
    <glyph glyph-name="iotadieresis" unicode="&#x3ca;" horiz-adv-x="659" 
d="M341 1336v144h143v-144h-143zM-39 1336v144h143v-144h-143zM626 113v-113h-197q-123 0 -194 69.5t-71 190.5v846h118v-807q0 -103 40.5 -144.5t142.5 -41.5h161z" />
    <glyph glyph-name="upsilondieresis" unicode="&#x3cb;" horiz-adv-x="1166" 
d="M845 1336h-144v144h144v-144zM465 1336h-143v144h143v-144zM123 504v602h119v-576q0 -216 85.5 -329t256.5 -113q170 0 255.5 113t85.5 329v576h118v-602q0 -244 -116 -387t-343 -143q-153 0 -258 68t-154 185.5t-49 276.5z" />
    <glyph glyph-name="omicrontonos" unicode="&#x3cc;" 
d="M649 1285h-109l110 297h110zM597 -31q-242 0 -378.5 161t-136.5 425t137.5 423t377.5 159q243 0 379 -160t136 -422q0 -266 -136.5 -426t-378.5 -160zM597 84q190 0 289.5 126.5t99.5 344.5t-99.5 342.5t-289.5 124.5q-191 0 -290 -126.5t-99 -340.5q0 -219 100.5 -345
t288.5 -126z" />
    <glyph glyph-name="upsilontonos" unicode="&#x3cd;" horiz-adv-x="1166" 
d="M722 1582l-111 -297h-109l110 297h110zM123 504v602h119v-576q0 -216 85.5 -329t256.5 -113q170 0 255.5 113t85.5 329v576h118v-602q0 -244 -116 -387t-343 -143q-153 0 -258 68t-154 185.5t-49 276.5z" />
    <glyph glyph-name="omegatonos" unicode="&#x3ce;" horiz-adv-x="1574" 
d="M933 1582l-111 -297h-109l110 297h110zM488 -33q-196 0 -301 141.5t-105 380.5q0 226 92.5 386.5t284.5 261.5l69 -104q-168 -91 -244 -221q-76 -129 -76 -314q0 -186 75 -300.5t214 -114.5q171 0 215 169q18 75 18 186v265h115v-257q0 -118 19 -193t69 -121
q50 -49 145 -49t161 55.5t97 147.5t31 212q0 189 -75.5 316t-243.5 219l69 104q194 -102 285 -262t91 -386q0 -239 -105 -380.5t-299 -141.5q-125 0 -210 66q-64 49 -92 129q-29 -82 -91 -129q-84 -66 -208 -66z" />
    <glyph glyph-name="uni0400" unicode="&#x400;" horiz-adv-x="1157" 
d="M689 1654h-109l-111 297h110zM1055 0h-912v1475h912v-115h-794v-560h671v-115h-671v-570h794v-115z" />
    <glyph glyph-name="uni0401" unicode="&#x401;" horiz-adv-x="1157" 
d="M835 1705h-144v143h144v-143zM455 1705h-144v143h144v-143zM1055 0h-912v1475h912v-115h-794v-560h671v-115h-671v-570h794v-115z" />
    <glyph glyph-name="uni0402" unicode="&#x402;" horiz-adv-x="1406" 
d="M256 1362h-256v113h684v-113h-309v-535q71 62 182 92.5t220 30.5q270 0 409 -121t139 -357q0 -472 -546 -472h-68v115h64q223 0 324.5 85t101.5 272q0 182 -104.5 270.5t-321.5 88.5q-113 0 -223 -34t-177 -104v-693h-119v1362z" />
    <glyph glyph-name="uni0403" unicode="&#x403;" horiz-adv-x="1075" 
d="M753 1951l-111 -297h-110l111 297h110zM262 0h-119v1475h912v-115h-793v-1360z" />
    <glyph glyph-name="uni0404" unicode="&#x404;" horiz-adv-x="1462" 
d="M763 -31q-213 0 -365 102q-153 102 -227 270q-76 172 -76 375v21q4 234 82 406.5t226 267.5q150 94 360 94q245 0 414 -134t224 -375l-122 -18q-41 190 -177 299t-336 112h-9q-159 0 -277 -73t-183 -208q-66 -135 -75 -313h803v-115h-803q6 -126 35 -223t93 -183
q137 -184 416 -189h10q118 0 219 45t172 133q70 84 107 210l117 -32q-55 -221 -223 -346.5t-405 -125.5z" />
    <glyph glyph-name="uni0405" unicode="&#x405;" horiz-adv-x="1233" 
d="M644 -31q-228 0 -384 111t-195 301l120 20q38 -149 160.5 -233t301.5 -84q182 0 293 84.5t111 222.5q0 188 -248 261l-371 111q-310 92 -310 347q0 174 137 284.5t354 110.5q220 0 368.5 -117t180.5 -314l-122 -21q-23 152 -139.5 244.5t-287.5 92.5q-162 0 -263.5 -79
t-101.5 -198q0 -94 62.5 -150t216.5 -102l296 -88q170 -50 258 -146.5t88 -232.5q0 -193 -143 -309t-382 -116z" />
    <glyph glyph-name="uni0406" unicode="&#x406;" horiz-adv-x="445" 
d="M282 0h-118v1475h118v-1475z" />
    <glyph glyph-name="uni0407" unicode="&#x407;" horiz-adv-x="445" 
d="M484 1705h-143v143h143v-143zM104 1705h-143v143h143v-143zM283 0h-119v1475h119v-1475z" />
    <glyph glyph-name="uni0408" unicode="&#x408;" horiz-adv-x="924" 
d="M381 -29q-140 0 -243.5 79.5t-137.5 213.5l119 28q21 -90 93.5 -148t169.5 -58q68 0 129 31t95 95q16 29 24 68t9 69t1 94v1032h119v-1032q0 -74 -1.5 -110.5t-12.5 -87.5t-34 -93q-48 -89 -134 -135t-196 -46z" />
    <glyph glyph-name="uni0409" unicode="&#x409;" horiz-adv-x="2191" 
d="M1219 1475v-575h415q219 0 347 -122t128 -328t-127.5 -328t-347.5 -122h-534v1360h-706v-665q0 -272 -29.5 -432t-86.5 -226.5t-151 -66.5q-37 0 -86 11v111q27 -7 54 -7q31 0 55.5 11t43 35.5t32.5 57t23.5 85t15.5 108t9.5 136.5t4.5 161.5t1 191.5v604h939zM1219 115
h415q164 0 258 89.5t94 245.5q0 157 -94 245.5t-258 88.5h-415v-669z" />
    <glyph glyph-name="uni040A" unicode="&#x40a;" horiz-adv-x="2205" 
d="M262 0h-119v1475h119v-680h853v680h119v-575h416q219 0 346.5 -122t127.5 -328t-127 -328t-347 -122h-535v680h-853v-680zM1234 115h415q164 0 258 89.5t94 245.5q0 157 -94 245.5t-258 88.5h-415v-669z" />
    <glyph glyph-name="uni040B" unicode="&#x40b;" horiz-adv-x="1460" 
d="M256 1362h-256v113h684v-113h-309v-535q72 62 183 92.5t219 30.5q548 0 548 -541v-409h-119v360q0 247 -102 359t-329 112q-113 0 -222.5 -34t-177.5 -104v-693h-119v1362z" />
    <glyph glyph-name="uni040C" unicode="&#x40c;" horiz-adv-x="1179" 
d="M674 1654h-110l111 297h109zM143 0v1475h119v-703l701 703h155l-704 -709l766 -766h-158l-760 755v-755h-119z" />
    <glyph glyph-name="uni040D" unicode="&#x40d;" horiz-adv-x="1378" 
d="M768 1654h-110l-109 297h109zM1235 0h-119v1268l-855 -1268h-118v1475h118v-1268l855 1268h119v-1475z" />
    <glyph glyph-name="uni040E" unicode="&#x40e;" horiz-adv-x="1177" 
d="M599 1608q-67 0 -124.5 33t-90.5 91q-34 56 -34 125h103q0 -59 43.5 -103t102.5 -44q61 0 103.5 43.5t42.5 103.5h103q0 -67 -33 -125t-90 -91q-55 -33 -126 -33zM1135 1475l-719 -1475h-126l248 512l-500 963h132l429 -836l403 836h133z" />
    <glyph glyph-name="uni040F" unicode="&#x40f;" horiz-adv-x="1353" 
d="M736 -269h-119v269h-474v1475h119v-1360h830v1360h118v-1475h-474v-269z" />
    <glyph glyph-name="uni0410" unicode="&#x410;" horiz-adv-x="1272" 
d="M707 1475l526 -1475h-126l-132 371h-678l-131 -371h-126l526 1475h141zM337 482h598l-299 840z" />
    <glyph glyph-name="uni0411" unicode="&#x411;" horiz-adv-x="1213" 
d="M143 0v1475h886v-115h-767v-498h408q231 0 356.5 -118.5t125.5 -312.5t-125.5 -312.5t-356.5 -118.5h-527zM262 115h397q182 0 276 86.5t94 229.5t-94 230t-276 87h-397v-633z" />
    <glyph glyph-name="uni0412" unicode="&#x412;" horiz-adv-x="1215" 
d="M642 0h-499v1475h484q225 0 354 -94t129 -283q0 -130 -66.5 -216t-172.5 -122q53 -11 103 -39.5t91 -72t66 -107t25 -137.5q0 -106 -37.5 -184.5t-107 -126t-161.5 -70.5t-208 -23zM628 1360h-366v-544h418q137 0 221.5 72t84.5 208t-94.5 200t-263.5 64zM262 115h380
q186 0 288.5 69t102.5 228q0 97 -49.5 164.5t-127 97t-175.5 29.5h-419v-588z" />
    <glyph glyph-name="uni0413" unicode="&#x413;" horiz-adv-x="1075" 
d="M261 0h-118v1475h912v-115h-794v-1360z" />
    <glyph glyph-name="uni0414" unicode="&#x414;" horiz-adv-x="1511" 
d="M202 115q64 84 88 308.5t24 564.5v487h950v-1360h166v-384h-119v269h-1114v-269h-118v384h123zM334 115h811v1245h-716v-487q0 -268 -25 -469.5t-70 -288.5z" />
    <glyph glyph-name="uni0415" unicode="&#x415;" horiz-adv-x="1157" 
d="M1055 0h-912v1475h912v-115h-793v-560h670v-115h-670v-570h793v-115z" />
    <glyph glyph-name="uni0416" unicode="&#x416;" horiz-adv-x="1994" 
d="M939 0v755l-761 -755h-158l767 766l-705 709h156l701 -703v703h118v-703l701 703h156l-706 -709l767 -766h-157l-761 755v-755h-118z" />
    <glyph glyph-name="uni0417" unicode="&#x417;" horiz-adv-x="1233" 
d="M1169 412q0 -142 -70.5 -244t-187 -150.5t-266.5 -48.5q-232 0 -380 104t-199 308l119 20q54 -166 162.5 -241.5t298.5 -75.5q175 0 286.5 84t111.5 242q0 141 -98.5 216t-248.5 75h-264v115h261q137 0 221 77t84 208q0 136 -104.5 212.5t-262.5 76.5q-353 0 -425 -337
l-122 21q45 221 191 326t357 105q140 0 249.5 -45t175 -138.5t65.5 -223.5q0 -118 -63 -208.5t-164 -129.5q111 -25 192 -119t81 -229z" />
    <glyph glyph-name="uni0418" unicode="&#x418;" horiz-adv-x="1378" 
d="M1235 0h-119v1268l-855 -1268h-118v1475h118v-1268l855 1268h119v-1475z" />
    <glyph glyph-name="uni0419" unicode="&#x419;" horiz-adv-x="1378" 
d="M706 1608q-68 0 -125.5 33t-90.5 91q-33 55 -33 125h102q0 -59 44 -103t103 -44q60 0 103 43.5t43 103.5h102q0 -68 -33 -125.5t-91 -90.5q-55 -33 -124 -33zM1235 0h-119v1268l-855 -1268h-118v1475h118v-1268l855 1268h119v-1475z" />
    <glyph glyph-name="uni041A" unicode="&#x41a;" horiz-adv-x="1179" 
d="M143 0v1475h118v-703l702 703h155l-705 -709l767 -766h-158l-761 755v-755h-118z" />
    <glyph glyph-name="uni041B" unicode="&#x41b;" horiz-adv-x="1361" 
d="M41 -19v111q27 -7 54 -7q31 0 55 11t43 35.5t32.5 57t23.5 84.5t16 108t9.5 137t4.5 162t1 191v604h939v-1475h-119v1360h-706v-665q0 -272 -29.5 -432t-86.5 -226.5t-151 -66.5q-37 0 -86 11z" />
    <glyph glyph-name="uni041C" unicode="&#x41c;" horiz-adv-x="1626" 
d="M261 0h-118v1475h115l556 -1188l550 1188h119v-1473h-119v1208l-492 -1063h-118l-493 1063v-1210z" />
    <glyph glyph-name="uni041D" unicode="&#x41d;" horiz-adv-x="1377" 
d="M262 0h-119v1475h119v-680h853v680h119v-1475h-119v680h-853v-680z" />
    <glyph glyph-name="uni041E" unicode="&#x41e;" horiz-adv-x="1463" 
d="M732 -31q-162 0 -290 56.5t-211 158.5t-126.5 242.5t-43.5 310.5t43.5 310.5t126.5 242.5t211 158.5t290 56.5q215 0 368 -98.5t227.5 -270t74.5 -399.5t-74.5 -399.5t-227.5 -270t-368 -98.5zM732 85q177 0 301 83.5t183.5 228.5t59.5 340t-59.5 340t-183.5 229t-301 84
t-300.5 -84t-183 -229t-61.5 -340q-1 -145 33.5 -264t101.5 -206t172 -134.5t238 -47.5z" />
    <glyph glyph-name="uni041F" unicode="&#x41f;" horiz-adv-x="1353" 
d="M262 0h-119v1475h1067v-1475h-118v1360h-830v-1360z" />
    <glyph glyph-name="uni0420" unicode="&#x420;" horiz-adv-x="1213" 
d="M261 0h-118v1475h534q220 0 347.5 -122t127.5 -328t-127.5 -328.5t-347.5 -122.5h-416v-574zM261 1360v-670h416q164 0 257.5 89t93.5 246q0 156 -93.5 245.5t-257.5 89.5h-416z" />
    <glyph glyph-name="uni0421" unicode="&#x421;" horiz-adv-x="1448" 
d="M732 -31q-162 0 -290 56.5t-211 158.5t-126.5 242.5t-43.5 310.5t43.5 310.5t126.5 242.5t211 158.5t290 56.5q251 0 413.5 -130t221.5 -359l-122 -30q-49 190 -179 297t-334 107q-176 0 -300.5 -84t-184.5 -229t-60 -340q0 -297 140.5 -474.5t404.5 -177.5
q204 0 334 106.5t179 296.5l122 -29q-59 -229 -221.5 -359.5t-413.5 -130.5z" />
    <glyph glyph-name="uni0422" unicode="&#x422;" horiz-adv-x="1215" 
d="M644 0h-119v1360h-463v115h1036v-115h-454v-1360z" />
    <glyph glyph-name="uni0423" unicode="&#x423;" horiz-adv-x="1177" 
d="M1135 1475l-719 -1475h-126l248 512l-500 963h132l429 -836l403 836h133z" />
    <glyph glyph-name="uni0424" unicode="&#x424;" horiz-adv-x="1512" 
d="M697 0v151q-100 3 -193 28t-173.5 73.5t-140.5 116.5t-94.5 162.5t-34.5 205.5t34.5 205.5t94.5 162.5t140.5 117t173.5 74t193 28v151h118v-151q100 -3 193 -28t173.5 -74t140.5 -117t94.5 -162.5t34.5 -205.5t-34.5 -205.5t-94.5 -162.5t-140.5 -116.5t-173.5 -73.5
t-193 -28v-151h-118zM815 1205v-936q228 6 370 131t142 337t-142 337t-370 131zM697 269v936q-228 -6 -370 -131t-142 -337t142 -337t370 -131z" />
    <glyph glyph-name="uni0425" unicode="&#x425;" horiz-adv-x="1207" 
d="M163 0h-143l515 748l-502 727h142l428 -630l429 630h143l-502 -727l514 -748h-143l-441 648z" />
    <glyph glyph-name="uni0426" unicode="&#x426;" horiz-adv-x="1440" 
d="M1420 -269h-118v269h-1159v1475h119v-1360h874v1360h118v-1360h166v-384z" />
    <glyph glyph-name="uni0427" unicode="&#x427;" horiz-adv-x="1355" 
d="M1212 0h-118v647q-72 -62 -183.5 -92.5t-219.5 -30.5q-265 0 -406.5 133t-141.5 409v409h119v-361q0 -246 102.5 -358.5t328.5 -112.5q113 0 223 34t178 104v694h118v-1475z" />
    <glyph glyph-name="uni0428" unicode="&#x428;" horiz-adv-x="2035" 
d="M143 0v1475h119v-1360h696v1360h119v-1360h697v1360h118v-1475h-1749z" />
    <glyph glyph-name="uni0429" unicode="&#x429;" horiz-adv-x="2078" 
d="M2058 -269h-119v269h-1796v1475h119v-1360h696v1360h119v-1360h697v1360h118v-1360h166v-384z" />
    <glyph glyph-name="uni042A" unicode="&#x42a;" horiz-adv-x="1306" 
d="M239 1360h-256v115h374v-575h416q219 0 347 -122t128 -328t-127.5 -328t-347.5 -122h-534v1360zM357 115h416q164 0 257.5 89.5t93.5 245.5q0 157 -93.5 245.5t-257.5 88.5h-416v-669z" />
    <glyph glyph-name="uni042B" unicode="&#x42b;" horiz-adv-x="1608" 
d="M262 1475v-575h416q219 0 347 -122t128 -328t-127.5 -328t-347.5 -122h-535v1475h119zM1465 0h-117v1475h117v-1475zM262 115h416q164 0 257.5 89.5t93.5 245.5q0 157 -93.5 245.5t-257.5 88.5h-416v-669z" />
    <glyph glyph-name="uni042C" unicode="&#x42c;" horiz-adv-x="1233" 
d="M261 1475v-575h416q219 0 347 -122t128 -328t-127.5 -328t-347.5 -122h-535v1475h119zM261 115h416q164 0 257.5 89.5t93.5 245.5q0 157 -93.5 245.5t-257.5 88.5h-416v-669z" />
    <glyph glyph-name="uni042D" unicode="&#x42d;" horiz-adv-x="1428" 
d="M699 -31q-236 0 -404 125.5t-223 346.5l116 32q34 -122 106.5 -210t174.5 -133q101 -45 217 -45h10q279 5 416 189q65 87 94.5 184.5t33.5 221.5h-802v115h802q-9 180 -74 314t-182 207q-120 73 -278 73h-10q-200 -3 -336 -112t-177 -299l-122 18q55 241 224 375t414 134
q209 0 358.5 -93.5t227.5 -268.5q77 -173 82 -406v-21q0 -206 -75 -375q-74 -168 -227 -270q-151 -102 -366 -102z" />
    <glyph glyph-name="uni042E" unicode="&#x42e;" horiz-adv-x="2037" 
d="M262 0h-119v1475h119v-678h374q10 212 87.5 370t227 248t355.5 90q215 0 367.5 -98.5t227 -269.5t74.5 -400t-74.5 -400t-227 -269.5t-367.5 -98.5q-155 0 -279.5 51.5t-207 145.5t-129.5 224t-54 288h-374v-678zM1306 85q177 0 300.5 83.5t183 228.5t59.5 340t-59.5 340
t-183 229t-300.5 84t-300.5 -84t-183 -229t-61.5 -340q-1 -145 33.5 -264t101.5 -206t172 -134.5t238 -47.5z" />
    <glyph glyph-name="uni042F" unicode="&#x42f;" horiz-adv-x="1271" 
d="M604 574l-382 -574h-140l389 587q-165 32 -258 148t-93 290q0 206 127.5 328t347.5 122h533v-1475h-117v574h-407zM1011 690v670h-416q-164 0 -257.5 -89.5t-93.5 -245.5q0 -157 93.5 -246t257.5 -89h416z" />
    <glyph glyph-name="uni0430" unicode="&#x430;" horiz-adv-x="1124" 
d="M570 1137q431 0 431 -453v-684h-118v200q-61 -113 -167.5 -172t-248.5 -59q-181 0 -283 84t-102 233q0 87 32.5 150t96.5 103t142 62.5t185 35.5l345 43v6q0 178 -75.5 258t-241.5 80q-267 0 -326 -225l-116 25q38 152 152.5 232.5t293.5 80.5zM883 574l-339 -42
q-185 -23 -264 -79t-79 -163q0 -104 71.5 -157.5t210.5 -53.5q157 0 260 86.5t128 238.5q12 59 12 170z" />
    <glyph glyph-name="uni0431" unicode="&#x431;" horiz-adv-x="1161" 
d="M571 -31q-233 0 -358.5 158t-129.5 451q-4 167 13 303q24 189 76 298t150 170q68 42 151 65.5t155 30t183 21.5t205 39l10 -115q-82 -22 -185 -36t-174.5 -21t-149 -26.5t-131.5 -53.5q-81 -51 -121 -147.5t-57 -288.5q130 212 391 212q215 0 347.5 -145.5t132.5 -385.5
q0 -243 -138 -386.5t-370 -142.5zM573 84q179 0 279.5 110t100.5 302q0 195 -96 306.5t-268 111.5q-179 0 -278.5 -110.5t-99.5 -307.5q0 -188 98 -300t264 -112z" />
    <glyph glyph-name="uni0432" unicode="&#x432;" horiz-adv-x="1043" 
d="M558 0h-415v1106h410q197 0 298 -74.5t101 -222.5q0 -89 -43 -149t-116 -88q80 -24 134.5 -96.5t54.5 -171.5q0 -150 -107.5 -227t-316.5 -77zM551 998h-295v-381h346q106 0 167.5 46t61.5 136q0 107 -63 153t-217 46zM258 108h295q158 0 233.5 47t75.5 150
q0 108 -69.5 157t-184.5 49h-350v-403z" />
    <glyph glyph-name="uni0433" unicode="&#x433;" horiz-adv-x="906" 
d="M262 0h-119v1106h712v-115h-593v-991z" />
    <glyph glyph-name="uni0434" unicode="&#x434;" horiz-adv-x="1245" 
d="M61 -228v343h108q90 111 90 553v438h781v-991h144v-343h-119v228h-886v-228h-118zM301 115h621v876h-549v-396q0 -159 -19.5 -288.5t-52.5 -191.5z" />
    <glyph glyph-name="uni0435" unicode="&#x435;" horiz-adv-x="1185" 
d="M603 84q253 0 368 231l108 -47q-67 -145 -190 -222t-286 -77q-238 0 -379.5 158t-141.5 426q0 270 139 427t376 157q243 0 376.5 -163.5t129.5 -454.5h-894q8 -205 113 -320t281 -115zM211 626h765q-17 193 -114.5 295.5t-264.5 102.5q-168 0 -268.5 -104.5
t-117.5 -293.5z" />
    <glyph glyph-name="uni0436" unicode="&#x436;" horiz-adv-x="1690" 
d="M786 0v532l-582 -532h-184l626 553l-548 553h165l523 -533v533h118v-533l523 533h165l-548 -553l626 -553h-183l-583 532v-532h-118z" />
    <glyph glyph-name="uni0437" unicode="&#x437;" horiz-adv-x="1052" 
d="M526 -31q-191 0 -312.5 87.5t-155.5 275.5l117 21q42 -272 346 -272q159 0 243.5 59.5t84.5 165.5q0 108 -71 157.5t-189 49.5h-176v107h176q108 0 169.5 46t61.5 133q0 226 -296 226q-147 0 -223.5 -61.5t-106.5 -176.5l-117 22q85 328 451 328q196 0 305 -88.5
t109 -242.5q0 -87 -42.5 -146.5t-115.5 -87.5q79 -24 133 -95.5t54 -168.5q0 -154 -118 -246.5t-327 -92.5z" />
    <glyph glyph-name="uni0438" unicode="&#x438;" horiz-adv-x="1138" 
d="M878 1106h117v-1106h-117v913l-617 -913h-118v1106h118v-913z" />
    <glyph glyph-name="uni0439" unicode="&#x439;" horiz-adv-x="1138" 
d="M585 1239q-67 0 -124.5 33t-90.5 91q-34 56 -34 125h102q0 -59 44 -103t103 -44q60 0 103 43.5t43 103.5h103q0 -67 -33 -124.5t-91 -90.5q-56 -34 -125 -34zM878 1106h117v-1106h-117v913l-617 -913h-118v1106h118v-913z" />
    <glyph glyph-name="uni043A" unicode="&#x43a;" horiz-adv-x="986" 
d="M143 0v1106h118v-533l523 533h165l-548 -553l626 -553h-183l-583 532v-532h-118z" />
    <glyph glyph-name="uni043B" unicode="&#x43b;" horiz-adv-x="1156" 
d="M41 -17v107q26 -8 45 -8q85 0 120.5 128t35.5 374v522h771v-1106h-118v991h-539v-425q0 -308 -56.5 -452.5t-176.5 -144.5q-35 0 -82 14z" />
    <glyph glyph-name="uni043C" unicode="&#x43c;" horiz-adv-x="1353" 
d="M261 0h-118v1106h118l416 -826l415 826h118v-1106h-118v861l-359 -716h-113l-359 716v-861z" />
    <glyph glyph-name="uni043D" unicode="&#x43d;" horiz-adv-x="1188" 
d="M261 0h-118v1106h118v-496h667v496h118v-1106h-118v496h-667v-496z" />
    <glyph glyph-name="uni043E" unicode="&#x43e;" 
d="M597 -31q-242 0 -378.5 161t-136.5 425t137.5 423t377.5 159q243 0 379 -160t136 -422q0 -266 -136.5 -426t-378.5 -160zM597 84q190 0 289.5 126.5t99.5 344.5t-99.5 342.5t-289.5 124.5q-191 0 -290 -126.5t-99 -340.5q0 -219 100.5 -345t288.5 -126z" />
    <glyph glyph-name="uni043F" unicode="&#x43f;" horiz-adv-x="1128" 
d="M261 0h-118v1106h842v-1106h-118v991h-606v-991z" />
    <glyph glyph-name="uni0440" unicode="&#x440;" horiz-adv-x="1247" 
d="M261 -492h-118v1598h118v-197q120 228 399 228q237 0 371 -160t134 -422q0 -265 -135 -425.5t-370 -160.5q-280 0 -399 229v-690zM650 84q190 0 289.5 127t99.5 344q0 218 -99.5 342.5t-289.5 124.5q-192 0 -290.5 -126.5t-98.5 -340.5q0 -218 100.5 -344.5t288.5 -126.5
z" />
    <glyph glyph-name="uni0441" unicode="&#x441;" horiz-adv-x="1119" 
d="M595 -31q-238 0 -375.5 157.5t-137.5 426.5q0 272 136.5 428t377.5 156q161 0 282.5 -78t170.5 -212l-115 -42q-42 102 -131.5 159.5t-207.5 57.5q-185 0 -286 -123.5t-101 -345.5q0 -217 100 -343t287 -126q119 0 205 54.5t132 157.5l117 -40q-65 -141 -180.5 -214
t-273.5 -73z" />
    <glyph glyph-name="uni0442" unicode="&#x442;" horiz-adv-x="1016" 
d="M567 0h-117v991h-399v115h915v-115h-399v-991z" />
    <glyph glyph-name="uni0443" unicode="&#x443;" horiz-adv-x="1057" 
d="M428 -492h-123l182 492l-449 1106h126l382 -948l346 948h124z" />
    <glyph glyph-name="uni0444" unicode="&#x444;" horiz-adv-x="1499" 
d="M690 -461v443q-128 2 -236 37.5t-192.5 103.5t-132 178t-47.5 251q0 114 31.5 208t86.5 160t132 112t167 68t191 24v330h118v-330q102 -1 192 -23t167 -68t132 -112.5t86.5 -160.5t31.5 -208t-31.5 -208t-86.5 -160t-132 -111.5t-167 -67.5t-192 -23v-443h-118zM808 1009
v-912q225 2 355 121t130 334t-130 335t-355 122zM690 97v912q-224 -2 -354 -122.5t-130 -334.5t129.5 -333.5t354.5 -121.5z" />
    <glyph glyph-name="uni0445" unicode="&#x445;" horiz-adv-x="1060" 
d="M166 0h-146l442 559l-431 547h143l357 -458l356 458h143l-431 -547l441 -559h-145l-364 470z" />
    <glyph glyph-name="uni0446" unicode="&#x446;" horiz-adv-x="1159" 
d="M1139 -228h-118v228h-878v1106h118v-991h617v991h117v-991h144v-343z" />
    <glyph glyph-name="uni0447" unicode="&#x447;" horiz-adv-x="1027" 
d="M884 0h-119v456q-127 -72 -308 -72q-196 0 -285.5 102.5t-89.5 327.5v292h118v-277q0 -185 58.5 -263t211.5 -78q174 0 295 81v537h119v-1106z" />
    <glyph glyph-name="uni0448" unicode="&#x448;" horiz-adv-x="1678" 
d="M143 0v1106h118v-991h519v991h118v-991h519v991h118v-1106h-1392z" />
    <glyph glyph-name="uni0449" unicode="&#x449;" horiz-adv-x="1698" 
d="M1678 -228h-117v228h-1418v1106h118v-991h519v991h118v-991h519v991h118v-991h143v-343z" />
    <glyph glyph-name="uni044A" unicode="&#x44a;" horiz-adv-x="1234" 
d="M297 0v991h-256v115h374v-434h367q177 0 274 -91.5t97 -244.5t-97 -244.5t-274 -91.5h-485zM415 109h357q128 0 195 62t67 165t-67 165t-195 62h-357v-454z" />
    <glyph glyph-name="uni044B" unicode="&#x44b;" horiz-adv-x="1398" 
d="M1255 0h-118v1106h118v-1106zM629 0h-486v1106h118v-434h368q177 0 273.5 -91.5t96.5 -244.5t-96.5 -244.5t-273.5 -91.5zM261 109h357q128 0 195.5 62t67.5 165t-67.5 165t-195.5 62h-357v-454z" />
    <glyph glyph-name="uni044C" unicode="&#x44c;" horiz-adv-x="1079" 
d="M627 0h-486v1106h118v-434h368q177 0 273.5 -91.5t96.5 -244.5t-96.5 -244.5t-273.5 -91.5zM259 109h357q128 0 195.5 62t67.5 165t-67.5 165t-195.5 62h-357v-454z" />
    <glyph glyph-name="uni044D" unicode="&#x44d;" horiz-adv-x="1119" 
d="M526 -31q-159 0 -274.5 73t-180.5 214l116 40q46 -103 132.5 -157.5t204.5 -54.5q172 0 271 109.5t113 306.5h-542v107h542q-14 193 -109 303q-97 112 -274 112q-118 0 -208 -57t-132 -160l-114 42q47 134 170.5 212t288.5 78q158 0 272.5 -72t175.5 -205
q59 -130 59 -307q0 -176 -60.5 -307.5t-175.5 -203.5q-115 -73 -275 -73z" />
    <glyph glyph-name="uni044E" unicode="&#x44e;" horiz-adv-x="1586" 
d="M989 -31q-227 0 -362.5 143.5t-150.5 381.5h-215v-494h-118v1106h118v-494h215q14 239 150.5 382t362.5 143q243 0 379 -160t136 -422q0 -266 -136.5 -426t-378.5 -160zM989 84q190 0 289.5 127t99.5 344q0 218 -99.5 342.5t-289.5 124.5q-192 0 -290.5 -126.5
t-98.5 -340.5q0 -218 100.5 -344.5t288.5 -126.5z" />
    <glyph glyph-name="uni044F" unicode="&#x44f;" horiz-adv-x="1084" 
d="M222 0h-126l211 456q-108 33 -165 115t-57 199q0 153 97 244.5t274 91.5h485v-1106h-118v434h-367q-5 0 -15.5 0.5t-14.5 0.5zM823 997h-357q-128 0 -195 -62t-67 -165t67 -164.5t195 -61.5h357v453z" />
    <glyph glyph-name="uni0450" unicode="&#x450;" horiz-adv-x="1185" 
d="M560 1285l-109 297h109l110 -297h-110zM603 84q253 0 368 231l108 -47q-67 -145 -190 -222t-286 -77q-238 0 -379.5 158t-141.5 426q0 270 139 427t376 157q243 0 376.5 -163.5t129.5 -454.5h-894q8 -205 113 -320t281 -115zM211 626h765q-17 193 -114.5 295.5
t-264.5 102.5q-168 0 -268.5 -104.5t-117.5 -293.5z" />
    <glyph glyph-name="uni0451" unicode="&#x451;" horiz-adv-x="1185" 
d="M715 1336v144h143v-144h-143zM335 1336v144h143v-144h-143zM603 84q253 0 368 231l108 -47q-67 -145 -190 -222t-286 -77q-238 0 -379.5 158t-141.5 426q0 270 139 427t376 157q243 0 376.5 -163.5t129.5 -454.5h-894q8 -205 113 -320t281 -115zM211 626h765
q-17 193 -114.5 295.5t-264.5 102.5q-168 0 -268.5 -104.5t-117.5 -293.5z" />
    <glyph glyph-name="uni0452" unicode="&#x452;" horiz-adv-x="1195" 
d="M143 1222h-136v107h136v146h119v-146h247v-107h-247v-283q105 198 363 198q208 0 327.5 -130t119.5 -390v-847q0 -121 -69 -190t-191 -69h-87v114h46q102 0 142 40t40 142v800q0 217 -90.5 316t-250.5 99t-255 -100t-95 -315v-607h-119v1222z" />
    <glyph glyph-name="uni0453" unicode="&#x453;" horiz-adv-x="906" 
d="M605 1582l-110 -297h-110l111 297h109zM262 0h-119v1106h712v-115h-593v-991z" />
    <glyph glyph-name="uni0454" unicode="&#x454;" horiz-adv-x="1119" 
d="M593 -31q-157 0 -273 72t-177 205q-61 129 -61 307q0 176 60 308t174 204q116 72 273 72q165 0 289 -78t171 -212l-115 -42q-42 103 -132 160t-208 57q-175 0 -272 -112q-98 -113 -111 -303h543v-107h-543q14 -197 113 -306.5t271 -109.5q118 0 204.5 54.5t132.5 157.5
l117 -40q-65 -141 -181 -214t-275 -73z" />
    <glyph glyph-name="uni0455" unicode="&#x455;" horiz-adv-x="1063" 
d="M552 -29q-385 0 -470 307l123 23q65 -218 348 -218q144 0 224.5 56t80.5 158q0 55 -28.5 93.5t-99.5 68.5q-68 26 -200 62q-179 48 -253 85q-161 82 -161 232q0 130 118.5 214.5t302.5 84.5q180 0 300.5 -88t142.5 -233l-121 -22q-16 108 -104.5 169.5t-225.5 61.5
q-124 0 -208 -53t-84 -135q0 -44 23.5 -77t77.5 -57.5t84 -34.5t100 -28q20 -6 29 -8q139 -36 228 -73q105 -42 153 -105t48 -156q0 -152 -114.5 -239.5t-313.5 -87.5z" />
    <glyph glyph-name="uni0456" unicode="&#x456;" horiz-adv-x="445" 
d="M282 1329h-118v151h118v-151zM282 0h-118v1106h118v-1106z" />
    <glyph glyph-name="uni0457" unicode="&#x457;" horiz-adv-x="445" 
d="M484 1336h-143v144h143v-144zM104 1336h-143v144h143v-144zM282 0h-118v1106h118v-1106z" />
    <glyph glyph-name="uni0458" unicode="&#x458;" horiz-adv-x="486" 
d="M325 1329h-119v151h119v-151zM65 -489h-88v114h47q102 0 142 40t40 142v1299h119v-1336q0 -121 -69 -190t-191 -69z" />
    <glyph glyph-name="uni0459" unicode="&#x459;" horiz-adv-x="1832" 
d="M41 -16v107q24 -8 43 -8q86 0 122 133.5t36 382.5v507h772v-434h366q177 0 274 -91.5t97 -244.5t-97 -244.5t-274 -91.5h-485v991h-539v-447q0 -177 -25 -304t-79.5 -199t-134.5 -72q-31 0 -76 15zM1014 109h357q127 0 194.5 62t67.5 165t-67.5 165t-194.5 62h-357v-454z
" />
    <glyph glyph-name="uni045A" unicode="&#x45a;" horiz-adv-x="1865" 
d="M261 0h-118v1106h118v-496h667v496h118v-434h367q177 0 274 -91.5t97 -244.5t-97 -244.5t-274 -91.5h-485v496h-667v-496zM1046 109h357q128 0 195 62t67 165t-67 165t-195 62h-357v-454z" />
    <glyph glyph-name="uni045B" unicode="&#x45b;" horiz-adv-x="1195" 
d="M144 1222h-137v107h137v146h118v-146h248v-107h-248v-284q105 199 364 199q208 0 327 -130t119 -390v-617h-118v607q0 217 -91 316t-251 99q-159 0 -254.5 -100t-95.5 -315v-607h-118v1222z" />
    <glyph glyph-name="uni045C" unicode="&#x45c;" horiz-adv-x="986" 
d="M524 1285h-109l109 297h110zM143 0v1106h118v-533l523 533h165l-548 -553l626 -553h-183l-583 532v-532h-118z" />
    <glyph glyph-name="uni045D" unicode="&#x45d;" horiz-adv-x="1138" 
d="M699 1285h-109l-111 297h110zM878 1106h117v-1106h-117v913l-617 -913h-118v1106h118v-913z" />
    <glyph glyph-name="uni045E" unicode="&#x45e;" horiz-adv-x="1057" 
d="M578 1239q-68 0 -125.5 33t-90.5 91q-33 55 -33 125h102q0 -59 44 -103t103 -44q61 0 103.5 43.5t42.5 103.5h102q0 -67 -33 -124.5t-90 -90.5q-56 -34 -125 -34zM428 -492h-123l182 492l-449 1106h126l382 -948l346 948h124z" />
    <glyph glyph-name="uni045F" unicode="&#x45f;" horiz-adv-x="1128" 
d="M624 -228h-119v228h-362v1106h118v-991h606v991h118v-1106h-361v-228z" />
    <glyph glyph-name="uni0490" unicode="&#x490;" horiz-adv-x="1095" 
d="M262 0h-119v1475h814v269h118v-384h-813v-1360z" />
    <glyph glyph-name="uni0491" unicode="&#x491;" horiz-adv-x="906" 
d="M261 0h-118v1106h593v228h119v-343h-594v-991z" />
    <glyph glyph-name="uni04AE" unicode="&#x4ae;" horiz-adv-x="1100" 
d="M610 0h-117v623l-493 852h136l415 -717l414 717h136l-491 -852v-623z" />
    <glyph glyph-name="uni04AF" unicode="&#x4af;" horiz-adv-x="1009" 
d="M567 -369h-125v369l-401 1106h123l341 -945l342 945h122l-402 -1106v-369z" />
    <glyph glyph-name="uni04BA" unicode="&#x4ba;" horiz-adv-x="1304" 
d="M41 1475h119v-648q72 62 183 92.5t219 30.5q548 0 548 -541v-409h-119v360q0 247 -102 359t-329 112q-113 0 -222.5 -34t-177.5 -104v-693h-119v1475z" />
    <glyph glyph-name="uni04BB" unicode="&#x4bb;" horiz-adv-x="1126" 
d="M427 0h-119v1106h119v-456q127 72 308 72q196 0 285.5 -102.5t89.5 -327.5v-292h-118v276q0 185 -58.5 263t-211.5 78q-175 0 -295 -80v-537z" />
    <glyph glyph-name="uni04E8" unicode="&#x4e8;" horiz-adv-x="1504" 
d="M732 -31q-213 0 -364.5 96t-229.5 271q-77 175 -77 401q0 230 77.5 403t227.5 269q148 96 366 96q212 0 364 -95.5t230 -270.5q76 -176 76 -402q0 -230 -77 -402t-226 -268q-152 -98 -367 -98zM189 795h1086q-7 157 -61 284q-63 150 -185 230.5t-297 80.5h-4
q-172 0 -294 -80.5t-184 -230.5q-52 -128 -61 -284zM732 85h4q172 0 294 80.5t184 229.5q54 127 61 285h-1087q6 -160 60 -284q62 -150 185 -230.5t299 -80.5z" />
    <glyph glyph-name="uni04E9" unicode="&#x4e9;" 
d="M597 -31q-160 0 -276 73t-178 208q-61 131 -61 305q0 173 62.5 305.5t178.5 204.5q115 72 274 72q160 0 276.5 -72.5t178.5 -205.5q60 -132 60 -304q0 -176 -61.5 -308t-177.5 -204q-118 -74 -276 -74zM210 607h774q-11 181 -97 290q-101 125 -290 125q-127 0 -214.5 -58
t-131.5 -164q-35 -81 -41 -193zM597 84q127 0 214.5 57.5t130.5 165.5q34 80 42 193h-774q8 -114 42 -194q94 -222 345 -222z" />
    <glyph glyph-name="Wgrave" unicode="&#x1e80;" horiz-adv-x="1889" 
d="M991 1654h-109l-111 297h110zM584 0h-124l-422 1475h122l361 -1272l361 1272h124l361 -1272l360 1272h124l-421 -1475h-124l-362 1267z" />
    <glyph glyph-name="wgrave" unicode="&#x1e81;" horiz-adv-x="1552" 
d="M820 1285h-109l-110 297h110zM1048 0l-272 909l-272 -909h-125l-338 1106h122l278 -926l278 926h114l277 -926l280 926h121l-339 -1106h-124z" />
    <glyph glyph-name="Wacute" unicode="&#x1e82;" horiz-adv-x="1889" 
d="M1118 1951l-110 -297h-110l111 297h109zM584 0h-124l-422 1475h122l361 -1272l361 1272h124l361 -1272l360 1272h124l-421 -1475h-124l-362 1267z" />
    <glyph glyph-name="wacute" unicode="&#x1e83;" horiz-adv-x="1552" 
d="M947 1582l-110 -297h-110l111 297h109zM1048 0l-272 909l-272 -909h-125l-338 1106h122l278 -926l278 926h114l277 -926l280 926h121l-339 -1106h-124z" />
    <glyph glyph-name="Wdieresis" unicode="&#x1e84;" horiz-adv-x="1889" 
d="M1207 1705h-143v143h143v-143zM827 1705h-143v143h143v-143zM584 0h-124l-422 1475h122l361 -1272l361 1272h124l361 -1272l360 1272h124l-421 -1475h-124l-362 1267z" />
    <glyph glyph-name="wdieresis" unicode="&#x1e85;" horiz-adv-x="1552" 
d="M1035 1336h-143v144h143v-144zM655 1336h-143v144h143v-144zM1048 0l-272 909l-272 -909h-125l-338 1106h122l278 -926l278 926h114l277 -926l280 926h121l-339 -1106h-124z" />
    <glyph glyph-name="Germandbls" unicode="&#x1e9e;" horiz-adv-x="1420" 
d="M831 -31q-92 0 -189 31v117q90 -27 185 -27q154 0 252 86.5t98 237.5q0 143 -109 228.5t-303 91.5l-8 95l266 463q-144 94 -317 94q-171 0 -278 -80.5t-137 -216.5q-23 -110 -23 -269v-820h-125v899q0 136 24 235q51 201 199 286q150 85 345 85q174 0 338 -84
q78 -41 129 -79l2 -1q2 -1 2 -2l-283 -504q106 -12 195.5 -63.5t145.5 -140.5q57 -92 57 -218q0 -207 -124.5 -325.5t-341.5 -118.5z" />
    <glyph glyph-name="uni1EA0" unicode="&#x1ea0;" horiz-adv-x="1272" 
d="M707 1475l526 -1475h-126l-132 371h-678l-131 -371h-126l526 1475h141zM337 482h598l-299 840zM562 -391v150h149v-150h-149z" />
    <glyph glyph-name="uni1EA1" unicode="&#x1ea1;" horiz-adv-x="1124" 
d="M570 1137q431 0 431 -453v-684h-118v200q-61 -113 -167.5 -172t-248.5 -59q-181 0 -283 84t-102 233q0 87 32.5 150t96.5 103t142 62.5t185 35.5l345 43v6q0 178 -75.5 258t-241.5 80q-267 0 -326 -225l-116 25q38 152 152.5 232.5t293.5 80.5zM883 574l-339 -42
q-185 -23 -264 -79t-79 -163q0 -104 71.5 -157.5t210.5 -53.5q157 0 260 86.5t128 238.5q12 59 12 170zM473 -391v150h149v-150h-149z" />
    <glyph glyph-name="uni1EA2" unicode="&#x1ea2;" horiz-adv-x="1272" 
d="M483 1932q62 67 143 67q21 0 60 -11q36 -10 71 -62q27 -45 27 -92q0 -7 -3 -40t-40 -79q-38 -47 -91 -69l-51 59q38 20 64 48t29 49q2 24 2 25q0 24 -13 46q-22 37 -60 37q-1 0 -5 -0.5t-10.5 -1t-13.5 -0.5q-25 -3 -65 -40zM707 1475l526 -1475h-126l-132 371h-678
l-131 -371h-126l526 1475h141zM337 482h598l-299 840z" />
    <glyph glyph-name="uni1EA3" unicode="&#x1ea3;" horiz-adv-x="1124" 
d="M423 1565q60 66 142 66q25 0 61 -10q35 -10 70 -62q28 -45 28 -91q0 -9 -3 -42q-4 -33 -40 -77q-38 -48 -91 -71l-52 60q39 20 65 48t29 49q0 4 0.5 10t1 9t0.5 5q0 24 -13 46q-22 37 -61 37q-1 0 -5 -0.5t-10.5 -1t-13.5 -0.5q-24 -3 -64 -40zM570 1137q431 0 431 -453
v-684h-118v200q-61 -113 -167.5 -172t-248.5 -59q-181 0 -283 84t-102 233q0 87 32.5 150t96.5 103t142 62.5t185 35.5l345 43v6q0 178 -75.5 258t-241.5 80q-267 0 -326 -225l-116 25q38 152 152.5 232.5t293.5 80.5zM883 574l-339 -42q-185 -23 -264 -79t-79 -163
q0 -104 71.5 -157.5t210.5 -53.5q157 0 260 86.5t128 238.5q12 59 12 170z" />
    <glyph glyph-name="uni1EA4" unicode="&#x1ea4;" horiz-adv-x="1272" 
d="M993 1869h-109l109 297h110zM357 1654l221 261h116l219 -261h-128l-149 176l-151 -176h-128zM707 1475l526 -1475h-126l-132 371h-678l-131 -371h-126l526 1475h141zM337 482h598l-299 840z" />
    <glyph glyph-name="uni1EA5" unicode="&#x1ea5;" horiz-adv-x="1124" 
d="M943 1500h-109l109 297h110zM307 1285l220 261h117l219 -261h-128l-149 176l-151 -176h-128zM570 1137q431 0 431 -453v-684h-118v200q-61 -113 -167.5 -172t-248.5 -59q-181 0 -283 84t-102 233q0 87 32.5 150t96.5 103t142 62.5t185 35.5l345 43v6q0 178 -75.5 258
t-241.5 80q-267 0 -326 -225l-116 25q38 152 152.5 232.5t293.5 80.5zM883 574l-339 -42q-185 -23 -264 -79t-79 -163q0 -104 71.5 -157.5t210.5 -53.5q157 0 260 86.5t128 238.5q12 59 12 170z" />
    <glyph glyph-name="uni1EA6" unicode="&#x1ea6;" horiz-adv-x="1272" 
d="M874 1869l-110 297h109l111 -297h-110zM357 1654l221 261h116l219 -261h-128l-149 176l-151 -176h-128zM707 1475l526 -1475h-126l-132 371h-678l-131 -371h-126l526 1475h141zM337 482h598l-299 840z" />
    <glyph glyph-name="uni1EA7" unicode="&#x1ea7;" horiz-adv-x="1124" 
d="M834 1500l-111 297h110l110 -297h-109zM316 1285l220 261h116l220 -261h-128l-150 176l-150 -176h-128zM570 1137q431 0 431 -453v-684h-118v200q-61 -113 -167.5 -172t-248.5 -59q-181 0 -283 84t-102 233q0 87 32.5 150t96.5 103t142 62.5t185 35.5l345 43v6
q0 178 -75.5 258t-241.5 80q-267 0 -326 -225l-116 25q38 152 152.5 232.5t293.5 80.5zM883 574l-339 -42q-185 -23 -264 -79t-79 -163q0 -104 71.5 -157.5t210.5 -53.5q157 0 260 86.5t128 238.5q12 59 12 170z" />
    <glyph glyph-name="uni1EA8" unicode="&#x1ea8;" horiz-adv-x="1272" 
d="M879 1932q62 67 142 67q21 0 60 -11q36 -10 71 -62q28 -47 28 -91q0 -8 -3 -41q-5 -34 -41 -79q-38 -47 -90 -69l-53 59q40 20 65.5 48t28.5 49q1 6 2 14.5t1 10.5q0 23 -14 46q-22 37 -60 37q-1 0 -5 -0.5t-11.5 -1t-13.5 -0.5q-24 -3 -64 -40zM358 1654l221 261h116
l219 -261h-128l-149 176l-151 -176h-128zM707 1475l526 -1475h-126l-132 371h-678l-131 -371h-126l526 1475h141zM337 482h598l-299 840z" />
    <glyph glyph-name="uni1EA9" unicode="&#x1ea9;" horiz-adv-x="1124" 
d="M805 1564q62 66 143 66q22 0 61 -11q35 -10 69 -61q29 -46 29 -92q0 -8 -3 -41q-4 -33 -41 -78q-39 -48 -91 -70l-51 59q39 20 65 48.5t29 49.5l2 24q0 24 -13 46q-22 37 -61 37q-1 0 -5 -0.5t-11.5 -1t-13.5 -0.5q-24 -3 -64 -40zM286 1285l219 261h117l220 -261h-128
l-151 176l-149 -176h-128zM570 1137q431 0 431 -453v-684h-118v200q-61 -113 -167.5 -172t-248.5 -59q-181 0 -283 84t-102 233q0 87 32.5 150t96.5 103t142 62.5t185 35.5l345 43v6q0 178 -75.5 258t-241.5 80q-267 0 -326 -225l-116 25q38 152 152.5 232.5t293.5 80.5z
M883 574l-339 -42q-185 -23 -264 -79t-79 -163q0 -104 71.5 -157.5t210.5 -53.5q157 0 260 86.5t128 238.5q12 59 12 170z" />
    <glyph glyph-name="uni1EAA" unicode="&#x1eaa;" horiz-adv-x="1272" 
d="M787 1966q-65 0 -170 60q-37 20 -53 28t-35.5 14t-35.5 6q-17 0 -29 -6t-17.5 -13.5t-8.5 -18t-3.5 -14.5t-0.5 -8q0 -17 5 -35h-90q-6 27 -6 53q0 77 57 117q38 26 89 26q67 0 173 -60q87 -48 124 -48q32 0 45.5 19.5t13.5 44.5q0 14 -5 34h90q6 -25 6 -50
q0 -79 -57 -121q-39 -28 -92 -28zM355 1654l219 261h117l220 -261h-128l-150 176l-150 -176h-128zM707 1475l526 -1475h-126l-132 371h-678l-131 -371h-126l526 1475h141zM337 482h598l-299 840z" />
    <glyph glyph-name="uni1EAB" unicode="&#x1eab;" horiz-adv-x="1124" 
d="M733 1597q-63 0 -170 61q-85 47 -125 47q-17 0 -29 -6t-17.5 -13t-8.5 -17.5t-3 -14v-8.5q0 -17 5 -35h-90q-6 27 -6 52q0 78 57 118q37 25 89 25q38 0 75 -13.5t97 -46.5q85 -47 125 -47q37 0 47 22q12 24 12 40q0 14 -7 35h90q8 -27 8 -52q0 -76 -58 -119
q-39 -28 -91 -28zM300 1285l220 261h117l220 -261h-128l-150 176l-151 -176h-128zM570 1137q431 0 431 -453v-684h-118v200q-61 -113 -167.5 -172t-248.5 -59q-181 0 -283 84t-102 233q0 87 32.5 150t96.5 103t142 62.5t185 35.5l345 43v6q0 178 -75.5 258t-241.5 80
q-267 0 -326 -225l-116 25q38 152 152.5 232.5t293.5 80.5zM883 574l-339 -42q-185 -23 -264 -79t-79 -163q0 -104 71.5 -157.5t210.5 -53.5q157 0 260 86.5t128 238.5q12 59 12 170z" />
    <glyph glyph-name="uni1EAC" unicode="&#x1eac;" horiz-adv-x="1272" 
d="M358 1654l221 261h116l219 -261h-128l-149 176l-151 -176h-128zM707 1475l526 -1475h-126l-132 371h-678l-131 -371h-126l526 1475h141zM337 482h598l-299 840zM562 -391v150h149v-150h-149z" />
    <glyph glyph-name="uni1EAD" unicode="&#x1ead;" horiz-adv-x="1124" 
d="M300 1285l219 261h117l220 -261h-128l-150 176l-150 -176h-128zM570 1137q431 0 431 -453v-684h-118v200q-61 -113 -167.5 -172t-248.5 -59q-181 0 -283 84t-102 233q0 87 32.5 150t96.5 103t142 62.5t185 35.5l345 43v6q0 178 -75.5 258t-241.5 80q-267 0 -326 -225
l-116 25q38 152 152.5 232.5t293.5 80.5zM883 574l-339 -42q-185 -23 -264 -79t-79 -163q0 -104 71.5 -157.5t210.5 -53.5q157 0 260 86.5t128 238.5q12 59 12 170zM473 -391v150h149v-150h-149z" />
    <glyph glyph-name="uni1EAE" unicode="&#x1eae;" horiz-adv-x="1272" 
d="M687 1900h-109l110 296h110zM636 1608q-67 0 -124.5 33t-90.5 91q-34 56 -34 125h102q0 -59 44 -103t103 -44q61 0 103.5 43.5t42.5 103.5h103q0 -67 -33 -125t-90 -91q-55 -33 -126 -33zM707 1475l526 -1475h-126l-132 371h-678l-131 -371h-126l526 1475h141zM337 482
h598l-299 840z" />
    <glyph glyph-name="uni1EAF" unicode="&#x1eaf;" horiz-adv-x="1124" 
d="M629 1531h-110l110 297h109zM578 1239q-68 0 -125.5 33t-90.5 91q-33 55 -33 125h102q0 -59 44 -103t103 -44q60 0 103 43.5t43 103.5h102q0 -67 -33 -124.5t-91 -90.5q-56 -34 -124 -34zM570 1137q431 0 431 -453v-684h-118v200q-61 -113 -167.5 -172t-248.5 -59
q-181 0 -283 84t-102 233q0 87 32.5 150t96.5 103t142 62.5t185 35.5l345 43v6q0 178 -75.5 258t-241.5 80q-267 0 -326 -225l-116 25q38 152 152.5 232.5t293.5 80.5zM883 574l-339 -42q-185 -23 -264 -79t-79 -163q0 -104 71.5 -157.5t210.5 -53.5q157 0 260 86.5
t128 238.5q12 59 12 170z" />
    <glyph glyph-name="uni1EB0" unicode="&#x1eb0;" horiz-adv-x="1272" 
d="M586 1900l-111 296h110l110 -296h-109zM636 1608q-67 0 -124.5 33t-90.5 91q-34 56 -34 125h102q0 -59 43.5 -103t103.5 -44t103 43.5t43 103.5h103q0 -67 -33 -125t-90 -91q-55 -33 -126 -33zM707 1475l526 -1475h-126l-132 371h-678l-131 -371h-126l526 1475h141z
M337 482h598l-299 840z" />
    <glyph glyph-name="uni1EB1" unicode="&#x1eb1;" horiz-adv-x="1124" 
d="M535 1531l-111 297h110l110 -297h-109zM585 1239q-67 0 -124.5 33t-90.5 91q-34 56 -34 125h102q0 -59 43.5 -103t103.5 -44t103 43.5t43 103.5h103q0 -67 -33 -124.5t-90 -90.5q-56 -34 -126 -34zM570 1137q431 0 431 -453v-684h-118v200q-61 -113 -167.5 -172
t-248.5 -59q-181 0 -283 84t-102 233q0 87 32.5 150t96.5 103t142 62.5t185 35.5l345 43v6q0 178 -75.5 258t-241.5 80q-267 0 -326 -225l-116 25q38 152 152.5 232.5t293.5 80.5zM883 574l-339 -42q-185 -23 -264 -79t-79 -163q0 -104 71.5 -157.5t210.5 -53.5
q157 0 260 86.5t128 238.5q12 59 12 170z" />
    <glyph glyph-name="uni1EB2" unicode="&#x1eb2;" horiz-adv-x="1272" 
d="M457 2165q60 66 142 66q24 0 60 -10t71 -62q28 -47 28 -92q0 -8 -3 -41t-40 -77q-39 -48 -91 -70l-52 59q38 20 64.5 48.5t29.5 48.5l2 24q0 23 -14 46q-22 37 -60 37q-1 0 -5 -0.5t-10.5 -1t-13.5 -0.5q-24 -3 -64 -40zM636 1608q-67 0 -124.5 33t-90.5 91
q-34 56 -34 125h102q0 -59 44 -103t103 -44q61 0 103.5 43.5t42.5 103.5h103q0 -67 -33 -125t-90 -91q-55 -33 -126 -33zM707 1475l526 -1475h-126l-132 371h-678l-131 -371h-126l526 1475h141zM337 482h598l-299 840z" />
    <glyph glyph-name="uni1EB3" unicode="&#x1eb3;" horiz-adv-x="1124" 
d="M416 1796q61 67 142 67q21 0 60 -11q36 -10 71 -62q28 -47 28 -91q0 -8 -3 -41q-3 -34 -40 -78q-39 -48 -91 -70l-52 60q38 20 64.5 48t29.5 48q2 24 2 25q0 23 -14 46q-22 37 -60 37q-1 0 -5 -0.5t-10.5 -1t-13.5 -0.5q-24 -3 -64 -40zM595 1239q-67 0 -124.5 33
t-90.5 91q-34 56 -34 125h103q0 -59 43.5 -103t102.5 -44q61 0 103.5 43.5t42.5 103.5h103q0 -67 -33 -124.5t-90 -90.5q-56 -34 -126 -34zM570 1137q431 0 431 -453v-684h-118v200q-61 -113 -167.5 -172t-248.5 -59q-181 0 -283 84t-102 233q0 87 32.5 150t96.5 103
t142 62.5t185 35.5l345 43v6q0 178 -75.5 258t-241.5 80q-267 0 -326 -225l-116 25q38 152 152.5 232.5t293.5 80.5zM883 574l-339 -42q-185 -23 -264 -79t-79 -163q0 -104 71.5 -157.5t210.5 -53.5q157 0 260 86.5t128 238.5q12 59 12 170z" />
    <glyph glyph-name="uni1EB4" unicode="&#x1eb4;" horiz-adv-x="1272" 
d="M771 1912q-64 0 -169 60q-86 46 -126 46q-26 0 -40 -15t-16 -25.5t-2 -19.5q0 -16 6 -33h-90q-7 24 -7 52q0 76 58 117q38 26 89 26q37 0 73 -13.5t99 -46.5q85 -47 124 -47q32 0 45 19.5t13 44.5q0 14 -5 32h90q8 -27 8 -51q0 -76 -58 -119q-39 -27 -92 -27zM622 1608
q-68 0 -125 33t-90 91q-34 56 -34 125h102q0 -59 43.5 -103t103.5 -44t103 43.5t43 103.5h102q0 -68 -33 -125.5t-91 -90.5q-55 -33 -124 -33zM707 1475l526 -1475h-126l-132 371h-678l-131 -371h-126l526 1475h141zM337 482h598l-299 840z" />
    <glyph glyph-name="uni1EB5" unicode="&#x1eb5;" horiz-adv-x="1124" 
d="M700 1543q-63 0 -170 61q-86 46 -124 46q-59 0 -59 -60q0 -16 5 -34h-90q-6 26 -6 52q0 77 57 117q38 26 89 26q62 0 172 -59q85 -47 125 -47q32 0 45.5 19t13.5 44q0 15 -5 33h90q6 -26 6 -49q0 -79 -57 -121q-39 -28 -92 -28zM550 1239q-67 0 -124.5 33t-90.5 91
q-34 56 -34 125h102q0 -59 44 -103t103 -44q60 0 103 43.5t43 103.5h103q0 -67 -33 -124.5t-91 -90.5q-56 -34 -125 -34zM570 1137q431 0 431 -453v-684h-118v200q-61 -113 -167.5 -172t-248.5 -59q-181 0 -283 84t-102 233q0 87 32.5 150t96.5 103t142 62.5t185 35.5
l345 43v6q0 178 -75.5 258t-241.5 80q-267 0 -326 -225l-116 25q38 152 152.5 232.5t293.5 80.5zM883 574l-339 -42q-185 -23 -264 -79t-79 -163q0 -104 71.5 -157.5t210.5 -53.5q157 0 260 86.5t128 238.5q12 59 12 170z" />
    <glyph glyph-name="uni1EB6" unicode="&#x1eb6;" horiz-adv-x="1272" 
d="M637 1608q-67 0 -124.5 33t-90.5 91q-34 56 -34 125h102q0 -59 44 -103t103 -44q61 0 103.5 43.5t42.5 103.5h103q0 -67 -33 -125t-90 -91q-55 -33 -126 -33zM707 1475l526 -1475h-126l-132 371h-678l-131 -371h-126l526 1475h141zM337 482h598l-299 840zM562 -391v150
h149v-150h-149z" />
    <glyph glyph-name="uni1EB7" unicode="&#x1eb7;" horiz-adv-x="1124" 
d="M579 1239q-67 0 -124.5 33t-90.5 91q-34 56 -34 125h102q0 -59 44 -103t103 -44q61 0 103.5 43.5t42.5 103.5h102q0 -67 -32.5 -124.5t-89.5 -90.5q-56 -34 -126 -34zM570 1137q431 0 431 -453v-684h-118v200q-61 -113 -167.5 -172t-248.5 -59q-181 0 -283 84t-102 233
q0 87 32.5 150t96.5 103t142 62.5t185 35.5l345 43v6q0 178 -75.5 258t-241.5 80q-267 0 -326 -225l-116 25q38 152 152.5 232.5t293.5 80.5zM883 574l-339 -42q-185 -23 -264 -79t-79 -163q0 -104 71.5 -157.5t210.5 -53.5q157 0 260 86.5t128 238.5q12 59 12 170z
M473 -391v150h149v-150h-149z" />
    <glyph glyph-name="uni1EB8" unicode="&#x1eb8;" horiz-adv-x="1228" 
d="M1055 0h-912v1475h912v-115h-793v-560h670v-115h-670v-570h793v-115zM674 -391h-149v150h149v-150z" />
    <glyph glyph-name="uni1EB9" unicode="&#x1eb9;" horiz-adv-x="1185" 
d="M603 84q253 0 368 231l108 -47q-67 -145 -190 -222t-286 -77q-238 0 -379.5 158t-141.5 426q0 270 139 427t376 157q243 0 376.5 -163.5t129.5 -454.5h-894q8 -205 113 -320t281 -115zM211 626h765q-17 193 -114.5 295.5t-264.5 102.5q-168 0 -268.5 -104.5
t-117.5 -293.5zM525 -391v150h149v-150h-149z" />
    <glyph glyph-name="uni1EBA" unicode="&#x1eba;" horiz-adv-x="1157" 
d="M496 1868l-44 64q63 67 143 67q21 0 60 -11q36 -10 70 -62q29 -46 29 -91q0 -8 -3 -41q-5 -34 -41 -79q-37 -46 -92 -69l-51 59q40 20 66 48t29 49q2 24 2 25q0 23 -14 46q-22 37 -60 37q-1 0 -5 -0.5t-11.5 -1t-13.5 -0.5q-24 -3 -64 -40zM1055 0h-912v1475h912v-115
h-793v-560h670v-115h-670v-570h793v-115z" />
    <glyph glyph-name="uni1EBB" unicode="&#x1ebb;" horiz-adv-x="1228" 
d="M454 1565q60 66 142 66q24 0 60 -10t71 -62q28 -45 28 -91q0 -9 -3 -42q-4 -33 -40 -77q-38 -48 -91 -71l-53 60q39 20 65.5 48t29.5 49q0 4 0.5 10t1 9t0.5 5q0 23 -14 46q-22 37 -60 37q-1 0 -5 -0.5t-10.5 -1t-13.5 -0.5q-24 -3 -64 -40zM603 84q253 0 368 231
l108 -47q-67 -145 -190 -222t-286 -77q-238 0 -379.5 158t-141.5 426q0 270 139 427t376 157q243 0 376.5 -163.5t129.5 -454.5h-894q8 -205 113 -320t281 -115zM211 626h765q-17 193 -114.5 295.5t-264.5 102.5q-168 0 -268.5 -104.5t-117.5 -293.5z" />
    <glyph glyph-name="uni1EBC" unicode="&#x1ebc;" horiz-adv-x="1157" 
d="M744 1655q-65 0 -170 60q-85 47 -124 47q-17 0 -29 -6t-17.5 -13.5t-8.5 -17.5t-3.5 -14t-0.5 -8q0 -17 5 -35h-90q-7 25 -7 53q0 76 58 117q38 26 89 26q38 0 74.5 -14t97.5 -47q85 -47 125 -47q37 0 48 23q11 22 11 40q0 16 -6 34h90q7 -24 7 -52q0 -77 -57 -119
q-39 -27 -92 -27zM1055 0h-912v1475h912v-115h-793v-560h670v-115h-670v-570h793v-115z" />
    <glyph glyph-name="uni1EBD" unicode="&#x1ebd;" horiz-adv-x="1185" 
d="M748 1286q-37 0 -74.5 14t-95.5 47q-85 47 -125 47q-17 0 -29 -6t-17.5 -13.5t-8.5 -18t-3.5 -14.5t-0.5 -8q0 -17 5 -35h-90q-6 25 -6 52q0 77 57 118q38 26 90 26q64 0 173 -60q83 -47 123 -47q32 0 45.5 19t13.5 44q0 14 -5 34h90q7 -24 7 -51q0 -78 -57 -120
q-40 -28 -92 -28zM603 84q253 0 368 231l108 -47q-67 -145 -190 -222t-286 -77q-238 0 -379.5 158t-141.5 426q0 270 139 427t376 157q243 0 376.5 -163.5t129.5 -454.5h-894q8 -205 113 -320t281 -115zM211 626h765q-17 193 -114.5 295.5t-264.5 102.5
q-168 0 -268.5 -104.5t-117.5 -293.5z" />
    <glyph glyph-name="uni1EBE" unicode="&#x1ebe;" horiz-adv-x="1157" 
d="M1055 2166l-110 -297h-109l109 297h110zM437 1654h-128l220 261h117l219 -261h-128l-149 176zM1055 0h-912v1475h912v-115h-793v-560h670v-115h-670v-570h793v-115z" />
    <glyph glyph-name="uni1EBF" unicode="&#x1ebf;" horiz-adv-x="1185" 
d="M975 1500h-110l111 297h109zM339 1285l220 261h117l220 -261h-128l-151 176l-150 -176h-128zM603 84q253 0 368 231l108 -47q-67 -145 -190 -222t-286 -77q-238 0 -379.5 158t-141.5 426q0 270 139 427t376 157q243 0 376.5 -163.5t129.5 -454.5h-894q8 -205 113 -320
t281 -115zM211 626h765q-17 193 -114.5 295.5t-264.5 102.5q-168 0 -268.5 -104.5t-117.5 -293.5z" />
    <glyph glyph-name="uni1EC0" unicode="&#x1ec0;" horiz-adv-x="1157" 
d="M983 1869h-110l-109 297h109zM484 1654h-128l221 261h116l220 -261h-128l-150 176zM1055 0h-912v1475h912v-115h-793v-560h670v-115h-670v-570h793v-115z" />
    <glyph glyph-name="uni1EC1" unicode="&#x1ec1;" horiz-adv-x="1185" 
d="M835 1500l-111 297h110l110 -297h-109zM317 1285l220 261h116l220 -261h-128l-150 176l-150 -176h-128zM603 84q253 0 368 231l108 -47q-67 -145 -190 -222t-286 -77q-238 0 -379.5 158t-141.5 426q0 270 139 427t376 157q243 0 376.5 -163.5t129.5 -454.5h-894
q8 -205 113 -320t281 -115zM211 626h765q-17 193 -114.5 295.5t-264.5 102.5q-168 0 -268.5 -104.5t-117.5 -293.5z" />
    <glyph glyph-name="uni1EC2" unicode="&#x1ec2;" horiz-adv-x="1228" 
d="M892 1868l-44 64q63 67 143 67q22 0 61 -11q34 -10 69 -62q29 -46 29 -91q0 -8 -3 -41q-5 -34 -41 -79q-38 -47 -91 -69l-51 59q40 20 65.5 48t28.5 49q2 24 2 25q0 24 -13 46q-22 37 -61 37q-1 0 -5 -0.5t-11.5 -1t-13.5 -0.5q-24 -3 -64 -40zM457 1654h-128l219 261
h117l220 -261h-128l-151 176zM1055 0h-912v1475h912v-115h-793v-560h670v-115h-670v-570h793v-115z" />
    <glyph glyph-name="uni1EC3" unicode="&#x1ec3;" horiz-adv-x="1185" 
d="M850 1564q61 66 142 66q22 0 61 -11q35 -10 70 -61q28 -47 28 -92q0 -8 -3 -41q-4 -32 -40 -78q-39 -48 -91 -70l-52 59q39 20 65 48.5t29 49.5l2 24q0 24 -13 46q-22 37 -61 37q-1 0 -5 -0.5t-10.5 -1t-13.5 -0.5q-24 -3 -64 -40zM330 1285l220 261h117l220 -261h-128
l-151 176l-150 -176h-128zM603 84q253 0 368 231l108 -47q-67 -145 -190 -222t-286 -77q-238 0 -379.5 158t-141.5 426q0 270 139 427t376 157q243 0 376.5 -163.5t129.5 -454.5h-894q8 -205 113 -320t281 -115zM211 626h765q-17 193 -114.5 295.5t-264.5 102.5
q-168 0 -268.5 -104.5t-117.5 -293.5z" />
    <glyph glyph-name="uni1EC4" unicode="&#x1ec4;" horiz-adv-x="1157" 
d="M749 1966q-64 0 -169 60q-90 48 -126 48q-17 0 -29 -6t-17.5 -13.5t-8.5 -17.5t-3.5 -14t-0.5 -8q0 -18 6 -36h-90q-7 25 -7 54q0 75 57 116q38 26 91 26q38 0 75.5 -14t96.5 -46q87 -48 124 -48q32 0 45 19.5t13 44.5q0 14 -5 34h90q7 -24 7 -51q0 -78 -57 -120
q-40 -28 -92 -28zM444 1654h-128l221 261h116l219 -261h-128l-149 176zM1055 0h-912v1475h912v-115h-793v-560h670v-115h-670v-570h793v-115z" />
    <glyph glyph-name="uni1EC5" unicode="&#x1ec5;" horiz-adv-x="1185" 
d="M758 1597q-37 0 -74.5 14t-94.5 47q-88 47 -126 47q-17 0 -29 -6t-17.5 -13t-8.5 -17t-3.5 -14t-0.5 -8q0 -15 7 -36h-90q-8 29 -8 53q0 76 58 117q37 25 90 25q63 0 172 -60q85 -47 124 -47q58 0 58 63q0 14 -5 34h90q7 -24 7 -51q0 -78 -57 -120q-40 -28 -92 -28z
M326 1285l220 261h117l219 -261h-128l-150 176l-150 -176h-128zM603 84q253 0 368 231l108 -47q-67 -145 -190 -222t-286 -77q-238 0 -379.5 158t-141.5 426q0 270 139 427t376 157q243 0 376.5 -163.5t129.5 -454.5h-894q8 -205 113 -320t281 -115zM211 626h765
q-17 193 -114.5 295.5t-264.5 102.5q-168 0 -268.5 -104.5t-117.5 -293.5z" />
    <glyph glyph-name="uni1EC6" unicode="&#x1ec6;" horiz-adv-x="1157" 
d="M438 1654h-128l220 261h117l219 -261h-128l-149 176zM1055 0h-912v1475h912v-115h-793v-560h670v-115h-670v-570h793v-115zM674 -391h-149v150h149v-150z" />
    <glyph glyph-name="uni1EC7" unicode="&#x1ec7;" horiz-adv-x="1185" 
d="M317 1285l221 261h116l220 -261h-128l-150 176l-151 -176h-128zM603 84q253 0 368 231l108 -47q-67 -145 -190 -222t-286 -77q-238 0 -379.5 158t-141.5 426q0 270 139 427t376 157q243 0 376.5 -163.5t129.5 -454.5h-894q8 -205 113 -320t281 -115zM211 626h765
q-17 193 -114.5 295.5t-264.5 102.5q-168 0 -268.5 -104.5t-117.5 -293.5zM518 -391v150h149v-150h-149z" />
    <glyph glyph-name="uni1EC8" unicode="&#x1ec8;" horiz-adv-x="445" 
d="M103 1868l-43 64q62 67 143 67q21 0 60 -11q36 -10 71 -62q27 -45 27 -91q0 -8 -3 -41q-5 -34 -41 -79q-38 -47 -90 -69l-52 59q40 20 65.5 48t28.5 49q2 24 2 25q0 24 -13 46q-22 37 -60 37q-1 0 -5 -0.5t-11.5 -1t-13.5 -0.5q-25 -3 -65 -40zM283 0h-119v1475h119
v-1475z" />
    <glyph glyph-name="uni1EC9" unicode="&#x1ec9;" horiz-adv-x="445" 
d="M97 1500l-44 65q61 66 144 66q24 0 60 -10q35 -10 70 -62q28 -43 28 -92q0 -8 -3 -41q-5 -33 -41 -77q-38 -48 -91 -71l-51 60q39 20 65 48t29 49l2 24q0 24 -13 46q-22 37 -61 37q-1 0 -5 -0.5t-10.5 -1t-13.5 -0.5q-25 -3 -65 -40zM282 0h-118v1106h118v-1106z" />
    <glyph glyph-name="uni1ECA" unicode="&#x1eca;" horiz-adv-x="446" 
d="M283 0h-119v1475h119v-1475zM298 -391h-150v150h150v-150z" />
    <glyph glyph-name="uni1ECB" unicode="&#x1ecb;" horiz-adv-x="445" 
d="M282 1329h-118v151h118v-151zM282 0h-118v1106h118v-1106zM297 -391h-149v150h149v-150z" />
    <glyph glyph-name="uni1ECC" unicode="&#x1ecc;" horiz-adv-x="1463" 
d="M732 -31q-162 0 -290 56.5t-211 158.5t-126.5 242.5t-43.5 310.5t43.5 310.5t126.5 242.5t211 158.5t290 56.5q215 0 368 -98.5t227.5 -270t74.5 -399.5t-74.5 -399.5t-227.5 -270t-368 -98.5zM732 85q177 0 301 83.5t183.5 228.5t59.5 340t-59.5 340t-183.5 229t-301 84
t-300.5 -84t-183 -229t-61.5 -340q-1 -145 33.5 -264t101.5 -206t172 -134.5t238 -47.5zM637 -391v150h148v-150h-148z" />
    <glyph glyph-name="uni1ECD" unicode="&#x1ecd;" 
d="M597 -31q-242 0 -378.5 161t-136.5 425t137.5 423t377.5 159q243 0 379 -160t136 -422q0 -266 -136.5 -426t-378.5 -160zM597 84q190 0 289.5 126.5t99.5 344.5t-99.5 342.5t-289.5 124.5q-191 0 -290 -126.5t-99 -340.5q0 -219 100.5 -345t288.5 -126zM522 -391v150h150
v-150h-150z" />
    <glyph glyph-name="uni1ECE" unicode="&#x1ece;" horiz-adv-x="1463" 
d="M608 1932q62 67 143 67q21 0 60 -11q36 -10 71 -62q27 -45 27 -92q0 -7 -3 -40t-40 -79q-38 -47 -91 -69l-51 59q38 20 64 48t29 49q2 24 2 25q0 24 -13 46q-22 37 -61 37q-1 0 -4.5 -0.5t-10 -1t-13.5 -0.5q-25 -3 -65 -40zM732 -31q-162 0 -290 56.5t-211 158.5
t-126.5 242.5t-43.5 310.5t43.5 310.5t126.5 242.5t211 158.5t290 56.5q215 0 368 -98.5t227.5 -270t74.5 -399.5t-74.5 -399.5t-227.5 -270t-368 -98.5zM732 85q177 0 301 83.5t183.5 228.5t59.5 340t-59.5 340t-183.5 229t-301 84t-300.5 -84t-183 -229t-61.5 -340
q-1 -145 33.5 -264t101.5 -206t172 -134.5t238 -47.5z" />
    <glyph glyph-name="uni1ECF" unicode="&#x1ecf;" 
d="M454 1565q60 66 142 66q24 0 60 -10t71 -62q28 -45 28 -91q0 -9 -3 -42q-4 -33 -40 -77q-38 -48 -91 -71l-53 60q39 20 65.5 48t29.5 49q0 4 0.5 10t1 9t0.5 5q0 23 -14 46q-22 37 -60 37q-1 0 -5 -0.5t-10.5 -1t-13.5 -0.5q-24 -3 -64 -40zM597 -31q-242 0 -378.5 161
t-136.5 425t137.5 423t377.5 159q243 0 379 -160t136 -422q0 -266 -136.5 -426t-378.5 -160zM597 84q190 0 289.5 126.5t99.5 344.5t-99.5 342.5t-289.5 124.5q-191 0 -290 -126.5t-99 -340.5q0 -219 100.5 -345t288.5 -126z" />
    <glyph glyph-name="uni1ED0" unicode="&#x1ed0;" horiz-adv-x="1463" 
d="M1100 1869h-110l111 297h109zM464 1654l220 261h117l220 -261h-128l-151 176l-150 -176h-128zM732 -31q-162 0 -290 56.5t-211 158.5t-126.5 242.5t-43.5 310.5t43.5 310.5t126.5 242.5t211 158.5t290 56.5q215 0 368 -98.5t227.5 -270t74.5 -399.5t-74.5 -399.5
t-227.5 -270t-368 -98.5zM732 85q177 0 301 83.5t183.5 228.5t59.5 340t-59.5 340t-183.5 229t-301 84t-300.5 -84t-183 -229t-61.5 -340q-1 -145 33.5 -264t101.5 -206t172 -134.5t238 -47.5z" />
    <glyph glyph-name="uni1ED1" unicode="&#x1ed1;" 
d="M965 1500h-110l111 297h109zM329 1285l220 261h117l220 -261h-128l-151 176l-150 -176h-128zM597 -31q-242 0 -378.5 161t-136.5 425t137.5 423t377.5 159q243 0 379 -160t136 -422q0 -266 -136.5 -426t-378.5 -160zM597 84q190 0 289.5 126.5t99.5 344.5t-99.5 342.5
t-289.5 124.5q-191 0 -290 -126.5t-99 -340.5q0 -219 100.5 -345t288.5 -126z" />
    <glyph glyph-name="uni1ED2" unicode="&#x1ed2;" horiz-adv-x="1463" 
d="M971 1869l-110 297h110l109 -297h-109zM454 1654l220 261h117l220 -261h-128l-151 176l-150 -176h-128zM732 -31q-162 0 -290 56.5t-211 158.5t-126.5 242.5t-43.5 310.5t43.5 310.5t126.5 242.5t211 158.5t290 56.5q215 0 368 -98.5t227.5 -270t74.5 -399.5
t-74.5 -399.5t-227.5 -270t-368 -98.5zM732 85q177 0 301 83.5t183.5 228.5t59.5 340t-59.5 340t-183.5 229t-301 84t-300.5 -84t-183 -229t-61.5 -340q-1 -145 33.5 -264t101.5 -206t172 -134.5t238 -47.5z" />
    <glyph glyph-name="uni1ED3" unicode="&#x1ed3;" 
d="M859 1500l-110 297h109l111 -297h-110zM342 1285l220 261h117l219 -261h-128l-149 176l-151 -176h-128zM597 -31q-242 0 -378.5 161t-136.5 425t137.5 423t377.5 159q243 0 379 -160t136 -422q0 -266 -136.5 -426t-378.5 -160zM597 84q190 0 289.5 126.5t99.5 344.5
t-99.5 342.5t-289.5 124.5q-191 0 -290 -126.5t-99 -340.5q0 -219 100.5 -345t288.5 -126z" />
    <glyph glyph-name="uni1ED4" unicode="&#x1ed4;" horiz-adv-x="1463" 
d="M1005 1932q62 67 142 67q21 0 60 -11q36 -10 71 -62q28 -47 28 -91q0 -8 -3 -41q-5 -34 -41 -79q-38 -47 -91 -69l-52 59q40 20 65.5 48t28.5 49q2 24 2 25q0 24 -13 46q-22 37 -60 37q-1 0 -5 -0.5t-11.5 -1t-13.5 -0.5q-24 -3 -64 -40zM484 1654l221 261h116l219 -261
h-128l-149 176l-151 -176h-128zM732 -31q-162 0 -290 56.5t-211 158.5t-126.5 242.5t-43.5 310.5t43.5 310.5t126.5 242.5t211 158.5t290 56.5q215 0 368 -98.5t227.5 -270t74.5 -399.5t-74.5 -399.5t-227.5 -270t-368 -98.5zM732 85q177 0 301 83.5t183.5 228.5t59.5 340
t-59.5 340t-183.5 229t-301 84t-300.5 -84t-183 -229t-61.5 -340q-1 -145 33.5 -264t101.5 -206t172 -134.5t238 -47.5z" />
    <glyph glyph-name="uni1ED5" unicode="&#x1ed5;" 
d="M837 1564q62 66 143 66q21 0 60 -11q36 -10 70 -61q29 -46 29 -92q0 -8 -3 -41q-4 -33 -41 -78q-39 -48 -91 -70l-52 59q40 20 66 48.5t29 49.5l2 24q0 23 -14 46q-22 37 -60 37q-1 0 -5 -0.5t-11.5 -1t-13.5 -0.5q-24 -3 -64 -40zM317 1285l220 261h116l220 -261h-128
l-150 176l-150 -176h-128zM597 -31q-242 0 -378.5 161t-136.5 425t137.5 423t377.5 159q243 0 379 -160t136 -422q0 -266 -136.5 -426t-378.5 -160zM597 84q190 0 289.5 126.5t99.5 344.5t-99.5 342.5t-289.5 124.5q-191 0 -290 -126.5t-99 -340.5q0 -219 100.5 -345
t288.5 -126z" />
    <glyph glyph-name="uni1ED6" unicode="&#x1ed6;" horiz-adv-x="1463" 
d="M880 1966q-64 0 -169 60q-87 48 -126 48q-17 0 -29 -6t-17.5 -13.5t-8.5 -17.5t-3.5 -14t-0.5 -8q0 -18 6 -36h-90q-7 25 -7 54q0 75 58 116q38 26 90 26q63 0 172 -60q87 -48 124 -48q32 0 45 19.5t13 44.5q0 14 -5 34h90q7 -24 7 -51q0 -78 -57 -120q-40 -28 -92 -28z
M447 1654l221 261h116l220 -261h-128l-150 176l-151 -176h-128zM732 -31q-162 0 -290 56.5t-211 158.5t-126.5 242.5t-43.5 310.5t43.5 310.5t126.5 242.5t211 158.5t290 56.5q215 0 368 -98.5t227.5 -270t74.5 -399.5t-74.5 -399.5t-227.5 -270t-368 -98.5zM732 85
q177 0 301 83.5t183.5 228.5t59.5 340t-59.5 340t-183.5 229t-301 84t-300.5 -84t-183 -229t-61.5 -340q-1 -145 33.5 -264t101.5 -206t172 -134.5t238 -47.5z" />
    <glyph glyph-name="uni1ED7" unicode="&#x1ed7;" 
d="M758 1597q-37 0 -74.5 14t-95.5 47q-85 47 -125 47q-17 0 -29 -6t-17.5 -13.5t-8.5 -17.5t-3.5 -14t-0.5 -8q0 -13 6 -35h-91q-6 25 -6 51q0 78 58 119q37 25 89 25q64 0 173 -60q83 -47 124 -47q58 0 58 63q0 14 -5 34h90q7 -24 7 -51q0 -78 -57 -120q-40 -28 -92 -28z
M326 1285l219 261h117l220 -261h-128l-151 176l-149 -176h-128zM597 -31q-242 0 -378.5 161t-136.5 425t137.5 423t377.5 159q243 0 379 -160t136 -422q0 -266 -136.5 -426t-378.5 -160zM597 84q190 0 289.5 126.5t99.5 344.5t-99.5 342.5t-289.5 124.5q-191 0 -290 -126.5
t-99 -340.5q0 -219 100.5 -345t288.5 -126z" />
    <glyph glyph-name="uni1ED8" unicode="&#x1ed8;" horiz-adv-x="1463" 
d="M453 1654l220 261h117l220 -261h-128l-151 176l-150 -176h-128zM732 -31q-162 0 -290 56.5t-211 158.5t-126.5 242.5t-43.5 310.5t43.5 310.5t126.5 242.5t211 158.5t290 56.5q215 0 368 -98.5t227.5 -270t74.5 -399.5t-74.5 -399.5t-227.5 -270t-368 -98.5zM732 85
q177 0 301 83.5t183.5 228.5t59.5 340t-59.5 340t-183.5 229t-301 84t-300.5 -84t-183 -229t-61.5 -340q-1 -145 33.5 -264t101.5 -206t172 -134.5t238 -47.5zM657 -391v150h149v-150h-149z" />
    <glyph glyph-name="uni1ED9" unicode="&#x1ed9;" 
d="M318 1285l220 261h116l220 -261h-128l-150 176l-150 -176h-128zM597 -31q-242 0 -378.5 161t-136.5 425t137.5 423t377.5 159q243 0 379 -160t136 -422q0 -266 -136.5 -426t-378.5 -160zM597 84q190 0 289.5 126.5t99.5 344.5t-99.5 342.5t-289.5 124.5
q-191 0 -290 -126.5t-99 -340.5q0 -219 100.5 -345t288.5 -126zM526 -391v150h149v-150h-149z" />
    <glyph glyph-name="uni1EDA" unicode="&#x1eda;" horiz-adv-x="1463" 
d="M807 1654h-110l111 297h110zM1253 1664q5 -43 5 -71q0 -37 -11 -87q-10 -47 -64 -84q-24 -17 -62 -28q137 -97 209 -267t72 -390q0 -228 -74.5 -399.5t-227.5 -270t-368 -98.5q-162 0 -290 56.5t-211 158.5t-126.5 242.5t-43.5 310.5t43.5 310.5t126.5 242.5t211 158.5
t290 56.5q105 0 190 -22q7 -1 21 -5q41 -11 67 -11q31 0 66 16q25 13 41.5 30.5t22.5 38t7.5 34t1.5 32.5q0 24 -1 36l-1 9zM732 85q177 0 301 83.5t183.5 228.5t59.5 340t-59.5 340t-183.5 229t-301 84t-300.5 -84t-183 -229t-61.5 -340q-1 -145 33.5 -264t101.5 -206
t172 -134.5t238 -47.5z" />
    <glyph glyph-name="uni1EDB" unicode="&#x1edb;" horiz-adv-x="1238" 
d="M649 1285h-109l110 297h110zM1105 1290q6 -39 6 -71q0 -36 -11 -85q-11 -46 -66 -85q-35 -23 -75 -32q-3 -1 -9 -2t-9 -2q171 -157 171 -458q0 -266 -136.5 -426t-378.5 -160t-378.5 161t-136.5 425t137.5 423t377.5 159q93 0 182 -29q49 -13 83 -13q36 0 66 15
q26 12 42 29.5t22 38.5t7.5 33.5t1.5 31.5q0 12 -2 38l-1 9h107zM597 84q190 0 289.5 126.5t99.5 344.5t-99.5 342.5t-289.5 124.5q-191 0 -290 -126.5t-99 -340.5q0 -219 100.5 -345t288.5 -126z" />
    <glyph glyph-name="uni1EDC" unicode="&#x1edc;" horiz-adv-x="1463" 
d="M679 1654l-110 297h110l109 -297h-109zM1253 1664q5 -43 5 -71q0 -37 -11 -87q-10 -47 -64 -84q-24 -17 -62 -28q137 -97 209 -267t72 -390q0 -228 -74.5 -399.5t-227.5 -270t-368 -98.5q-162 0 -290 56.5t-211 158.5t-126.5 242.5t-43.5 310.5t43.5 310.5t126.5 242.5
t211 158.5t290 56.5q105 0 190 -22q7 -1 21 -5q41 -11 67 -11q31 0 66 16q25 13 41.5 30.5t22.5 38t7.5 34t1.5 32.5q0 24 -1 36l-1 9zM732 85q177 0 301 83.5t183.5 228.5t59.5 340t-59.5 340t-183.5 229t-301 84t-300.5 -84t-183 -229t-61.5 -340q-1 -145 33.5 -264
t101.5 -206t172 -134.5t238 -47.5z" />
    <glyph glyph-name="uni1EDD" unicode="&#x1edd;" horiz-adv-x="1238" 
d="M534 1285l-110 297h110l109 -297h-109zM1105 1290q6 -39 6 -71q0 -36 -11 -85q-11 -46 -66 -85q-35 -23 -75 -32q-3 -1 -9 -2t-9 -2q171 -157 171 -458q0 -266 -136.5 -426t-378.5 -160t-378.5 161t-136.5 425t137.5 423t377.5 159q93 0 182 -29q49 -13 83 -13
q36 0 66 15q26 12 42 29.5t22 38.5t7.5 33.5t1.5 31.5q0 12 -2 38l-1 9h107zM597 84q190 0 289.5 126.5t99.5 344.5t-99.5 342.5t-289.5 124.5q-191 0 -290 -126.5t-99 -340.5q0 -219 100.5 -345t288.5 -126z" />
    <glyph glyph-name="uni1EDE" unicode="&#x1ede;" horiz-adv-x="1463" 
d="M608 1932q62 67 143 67q21 0 60 -11q36 -10 71 -62q27 -45 27 -92q0 -7 -3 -40t-40 -79q-38 -47 -91 -69l-51 59q38 20 64 48t29 49q2 24 2 25q0 24 -13 46q-22 37 -61 37q-1 0 -4.5 -0.5t-10 -1t-13.5 -0.5q-25 -3 -65 -40zM1253 1664q5 -43 5 -71q0 -37 -11 -87
q-10 -47 -64 -84q-24 -17 -62 -28q137 -97 209 -267t72 -390q0 -228 -74.5 -399.5t-227.5 -270t-368 -98.5q-162 0 -290 56.5t-211 158.5t-126.5 242.5t-43.5 310.5t43.5 310.5t126.5 242.5t211 158.5t290 56.5q105 0 190 -22q7 -1 21 -5q41 -11 67 -11q31 0 66 16
q25 13 41.5 30.5t22.5 38t7.5 34t1.5 32.5q0 24 -1 36l-1 9zM732 85q177 0 301 83.5t183.5 228.5t59.5 340t-59.5 340t-183.5 229t-301 84t-300.5 -84t-183 -229t-61.5 -340q-1 -145 33.5 -264t101.5 -206t172 -134.5t238 -47.5z" />
    <glyph glyph-name="uni1EDF" unicode="&#x1edf;" 
d="M454 1565q60 66 142 66q24 0 60 -10t71 -62q28 -45 28 -91q0 -9 -3 -42q-4 -33 -40 -77q-38 -48 -91 -71l-53 60q39 20 65.5 48t29.5 49q0 4 0.5 10t1 9t0.5 5q0 23 -14 46q-22 37 -60 37q-1 0 -5 -0.5t-10.5 -1t-13.5 -0.5q-24 -3 -64 -40zM1105 1290q6 -39 6 -71
q0 -36 -11 -85q-11 -46 -66 -85q-35 -23 -75 -32q-3 -1 -9 -2t-9 -2q171 -157 171 -458q0 -266 -136.5 -426t-378.5 -160t-378.5 161t-136.5 425t137.5 423t377.5 159q93 0 182 -29q49 -13 83 -13q36 0 66 15q26 12 42 29.5t22 38.5t7.5 33.5t1.5 31.5q0 12 -2 38l-1 9h107z
M597 84q190 0 289.5 126.5t99.5 344.5t-99.5 342.5t-289.5 124.5q-191 0 -290 -126.5t-99 -340.5q0 -219 100.5 -345t288.5 -126z" />
    <glyph glyph-name="uni1EE0" unicode="&#x1ee0;" horiz-adv-x="1463" 
d="M880 1655q-65 0 -170 60q-88 47 -125 47q-17 0 -29 -6t-17.5 -13.5t-8.5 -17.5t-3.5 -14t-0.5 -8q0 -17 5 -35h-90q-6 27 -6 52q0 77 58 118q38 26 89 26q64 0 172 -61q85 -47 125 -47q32 0 45 19.5t13 44.5q0 13 -5 33h90q6 -25 6 -50q0 -79 -57 -121q-37 -27 -91 -27z
M1253 1664q5 -43 5 -71q0 -37 -11 -87q-10 -47 -64 -84q-24 -17 -62 -28q137 -97 209 -267t72 -390q0 -228 -74.5 -399.5t-227.5 -270t-368 -98.5q-162 0 -290 56.5t-211 158.5t-126.5 242.5t-43.5 310.5t43.5 310.5t126.5 242.5t211 158.5t290 56.5q105 0 190 -22
q7 -1 21 -5q41 -11 67 -11q31 0 66 16q25 13 41.5 30.5t22.5 38t7.5 34t1.5 32.5q0 24 -1 36l-1 9zM732 85q177 0 301 83.5t183.5 228.5t59.5 340t-59.5 340t-183.5 229t-301 84t-300.5 -84t-183 -229t-61.5 -340q-1 -145 33.5 -264t101.5 -206t172 -134.5t238 -47.5z" />
    <glyph glyph-name="uni1EE1" unicode="&#x1ee1;" 
d="M748 1286q-37 0 -74.5 14t-95.5 47q-85 47 -125 47q-17 0 -29 -6t-17.5 -13.5t-8.5 -18t-3.5 -14.5t-0.5 -8q0 -17 5 -35h-90q-6 25 -6 52q0 77 57 118q38 26 90 26q64 0 173 -60q83 -47 123 -47q32 0 45.5 19t13.5 44q0 14 -5 34h90q7 -24 7 -51q0 -78 -57 -120
q-40 -28 -92 -28zM1105 1290q6 -39 6 -71q0 -36 -11 -85q-11 -46 -66 -85q-35 -23 -75 -32q-3 -1 -9 -2t-9 -2q171 -157 171 -458q0 -266 -136.5 -426t-378.5 -160t-378.5 161t-136.5 425t137.5 423t377.5 159q93 0 182 -29q49 -13 83 -13q36 0 66 15q26 12 42 29.5t22 38.5
t7.5 33.5t1.5 31.5q0 12 -2 38l-1 9h107zM597 84q190 0 289.5 126.5t99.5 344.5t-99.5 342.5t-289.5 124.5q-191 0 -290 -126.5t-99 -340.5q0 -219 100.5 -345t288.5 -126z" />
    <glyph glyph-name="uni1EE2" unicode="&#x1ee2;" horiz-adv-x="1463" 
d="M1253 1664q5 -43 5 -71q0 -37 -11 -87q-10 -47 -64 -84q-24 -17 -62 -28q137 -97 209 -267t72 -390q0 -228 -74.5 -399.5t-227.5 -270t-368 -98.5q-162 0 -290 56.5t-211 158.5t-126.5 242.5t-43.5 310.5t43.5 310.5t126.5 242.5t211 158.5t290 56.5q105 0 190 -22
q7 -1 21 -5q41 -11 67 -11q31 0 66 16q25 13 41.5 30.5t22.5 38t7.5 34t1.5 32.5q0 24 -1 36l-1 9zM732 85q177 0 301 83.5t183.5 228.5t59.5 340t-59.5 340t-183.5 229t-301 84t-300.5 -84t-183 -229t-61.5 -340q-1 -145 33.5 -264t101.5 -206t172 -134.5t238 -47.5z
M662 -391v150h148v-150h-148z" />
    <glyph glyph-name="uni1EE3" unicode="&#x1ee3;" 
d="M1105 1290q6 -39 6 -71q0 -36 -11 -85q-11 -46 -66 -85q-35 -23 -75 -32q-3 -1 -9 -2t-9 -2q171 -157 171 -458q0 -266 -136.5 -426t-378.5 -160t-378.5 161t-136.5 425t137.5 423t377.5 159q93 0 182 -29q49 -13 83 -13q36 0 66 15q26 12 42 29.5t22 38.5t7.5 33.5
t1.5 31.5q0 12 -2 38l-1 9h107zM597 84q190 0 289.5 126.5t99.5 344.5t-99.5 342.5t-289.5 124.5q-191 0 -290 -126.5t-99 -340.5q0 -219 100.5 -345t288.5 -126zM525 -391v150h149v-150h-149z" />
    <glyph glyph-name="uni1EE4" unicode="&#x1ee4;" horiz-adv-x="1425" 
d="M713 -31q-262 0 -416 160t-154 439v907h119v-907q0 -230 118.5 -358.5t332.5 -128.5t332 128t118 359v907h119v-907q0 -279 -153 -439t-416 -160zM645 -391v150h149v-150h-149z" />
    <glyph glyph-name="uni1EE5" unicode="&#x1ee5;" 
d="M241 1106v-606q0 -217 91 -316.5t251 -99.5t255 100t95 316v606h118v-1106h-118v168q-105 -199 -364 -199q-208 0 -327 130t-119 389v618h118zM664 -391h-149v150h149v-150z" />
    <glyph glyph-name="uni1EE6" unicode="&#x1ee6;" horiz-adv-x="1425" 
d="M572 1932q63 67 144 67q21 0 60 -11q36 -10 70 -62q28 -44 28 -91q0 -8 -3 -41q-5 -34 -41 -79q-38 -47 -91 -69l-51 59q40 20 65.5 48t28.5 49q2 24 2 25q0 24 -13 46q-22 37 -60 37q-1 0 -5 -0.5t-11.5 -1t-13.5 -0.5q-25 -3 -65 -40zM713 -31q-262 0 -416 160
t-154 439v907h119v-907q0 -230 118.5 -358.5t332.5 -128.5t332 128t118 359v907h119v-907q0 -279 -153 -439t-416 -160z" />
    <glyph glyph-name="uni1EE7" unicode="&#x1ee7;" 
d="M497 1500l-44 65q61 66 143 66q24 0 60 -10t70 -62q29 -44 29 -92q0 -8 -3 -41q-5 -33 -41 -77q-38 -48 -91 -71l-52 60q39 20 65.5 48t29.5 49q0 4 0.5 10t1 9t0.5 5q0 23 -14 46q-22 37 -60 37q-1 0 -5 -0.5t-11.5 -1t-13.5 -0.5q-24 -3 -64 -40zM241 1106v-606
q0 -217 91 -316.5t251 -99.5t255 100t95 316v606h118v-1106h-118v168q-105 -199 -364 -199q-208 0 -327 130t-119 389v618h118z" />
    <glyph glyph-name="uni1EE8" unicode="&#x1ee8;" horiz-adv-x="1425" 
d="M748 1654h-110l111 297h109zM1467 1659q6 -52 6 -71q0 -33 -12 -86q-10 -46 -63 -85q-43 -29 -91 -33q-8 -1 -25 -1v-815q0 -279 -153 -439t-416 -160q-262 0 -416 160t-154 439v907h119v-907q0 -230 118.5 -358.5t332.5 -128.5t332 128t118 359v907h44q54 2 75 7
q82 16 82 120q0 24 -3 57h106z" />
    <glyph glyph-name="uni1EE9" unicode="&#x1ee9;" horiz-adv-x="1195" 
d="M748 1582l-111 -297h-110l111 297h110zM1120 1290h106q6 -39 6 -73q0 -35 -11 -84q-10 -44 -65 -84q-43 -29 -90 -33q-10 0 -15 -1v-1015h-118v168q-105 -199 -364 -199q-208 0 -327 130t-119 389v618h118v-606q0 -217 91 -316.5t251 -99.5t255 100t95 316v606h34
q54 2 73 7q84 16 83 120v3q0 26 -3 54z" />
    <glyph glyph-name="uni1EEA" unicode="&#x1eea;" horiz-adv-x="1425" 
d="M681 1654l-111 297h110l111 -297h-110zM1467 1659q6 -52 6 -71q0 -33 -12 -86q-10 -46 -63 -85q-43 -29 -91 -33q-8 -1 -25 -1v-815q0 -279 -153 -439t-416 -160q-262 0 -416 160t-154 439v907h119v-907q0 -230 118.5 -358.5t332.5 -128.5t332 128t118 359v907h44
q54 2 75 7q82 16 82 120q0 24 -3 57h106z" />
    <glyph glyph-name="uni1EEB" unicode="&#x1eeb;" horiz-adv-x="1195" 
d="M666 1285h-110l-111 297h110zM1120 1290h106q6 -39 6 -73q0 -35 -11 -84q-10 -44 -65 -84q-41 -29 -90 -33q-5 -1 -15 -1v-1015h-118v168q-105 -199 -364 -199q-208 0 -327 130t-119 389v618h118v-606q0 -217 91 -316.5t251 -99.5t255 100t95 316v606h40q5 1 16 1.5
t16 0.5q24 2 35 4q38 8 58 33t23 53q2 30 2 38q0 26 -3 54z" />
    <glyph glyph-name="uni1EEC" unicode="&#x1eec;" horiz-adv-x="1425" 
d="M572 1932q63 67 144 67q21 0 60 -11q36 -10 70 -62q28 -44 28 -91q0 -8 -3 -41q-5 -34 -41 -79q-38 -47 -91 -69l-51 59q40 20 65.5 48t28.5 49q2 24 2 25q0 24 -13 46q-22 37 -60 37q-1 0 -5 -0.5t-11.5 -1t-13.5 -0.5q-25 -3 -65 -40zM1467 1659q17 -37 17 -73
q0 -27 -17 -80q-16 -50 -69 -89q-43 -29 -91 -33q-8 -1 -25 -1v-815q0 -279 -153 -439t-416 -160q-262 0 -416 160t-154 439v907h119v-907q0 -230 118.5 -358.5t332.5 -128.5t332 128t118 359v907h44q54 2 75 7q82 16 82 120q0 24 -3 57h106z" />
    <glyph glyph-name="uni1EED" unicode="&#x1eed;" horiz-adv-x="1195" 
d="M497 1500l-44 65q61 66 143 66q24 0 60 -10t70 -62q29 -44 29 -92q0 -8 -3 -41q-5 -33 -41 -77q-38 -48 -91 -71l-52 60q39 20 65.5 48t29.5 49q0 4 0.5 10t1 9t0.5 5q0 23 -14 46q-22 37 -60 37q-1 0 -5 -0.5t-11.5 -1t-13.5 -0.5q-24 -3 -64 -40zM1120 1290h106
q6 -39 6 -73q0 -35 -11 -84q-10 -44 -65 -84q-43 -29 -90 -33q-10 0 -15 -1v-1015h-118v168q-105 -199 -364 -199q-208 0 -327 130t-119 389v618h118v-606q0 -217 91 -316.5t251 -99.5t255 100t95 316v606h34q54 2 73 7q84 16 83 120v3q0 26 -3 54z" />
    <glyph glyph-name="uni1EEE" unicode="&#x1eee;" horiz-adv-x="1425" 
d="M866 1655q-65 0 -170 60q-85 47 -125 47q-17 0 -29 -6t-17.5 -13t-8.5 -17.5t-3 -14v-8.5q0 -17 5 -35h-90q-7 25 -7 53q0 76 58 117q38 26 89 26q38 0 74.5 -14t97.5 -47q85 -47 125 -47q36 0 47 23q12 24 12 40t-6 34h90q7 -24 7 -52q0 -76 -58 -119q-39 -27 -91 -27z
M1467 1659q6 -52 6 -71q0 -33 -12 -86q-10 -46 -63 -85q-43 -29 -91 -33q-8 -1 -25 -1v-815q0 -279 -153 -439t-416 -160q-262 0 -416 160t-154 439v907h119v-907q0 -230 118.5 -358.5t332.5 -128.5t332 128t118 359v907h44q54 2 75 7q82 16 82 120q0 24 -3 57h106z" />
    <glyph glyph-name="uni1EEF" unicode="&#x1eef;" horiz-adv-x="1195" 
d="M748 1286q-63 0 -170 61q-85 47 -125 47q-17 0 -29 -6t-17.5 -13.5t-8.5 -18t-3.5 -14.5t-0.5 -8q0 -17 5 -35h-90q-6 27 -6 53q0 77 57 117q38 26 90 26q38 0 75 -13.5t97 -46.5q85 -47 124 -47q38 0 48 22q11 22 11 40q0 17 -6 35h90q7 -24 7 -52q0 -77 -57 -119
q-39 -28 -91 -28zM1120 1290h106q6 -39 6 -73q0 -35 -11 -84q-10 -44 -65 -84q-43 -29 -90 -33q-10 0 -15 -1v-1015h-118v168q-105 -199 -364 -199q-208 0 -327 130t-119 389v618h118v-606q0 -217 91 -316.5t251 -99.5t255 100t95 316v606h34q54 2 73 7q84 16 83 120v3
q0 26 -3 54z" />
    <glyph glyph-name="uni1EF0" unicode="&#x1ef0;" horiz-adv-x="1425" 
d="M1467 1659q6 -52 6 -71q0 -33 -12 -86q-10 -46 -63 -85q-43 -29 -91 -33q-8 -1 -25 -1v-815q0 -279 -153 -439t-416 -160q-262 0 -416 160t-154 439v907h119v-907q0 -230 118.5 -358.5t332.5 -128.5t332 128t118 359v907h44q54 2 75 7q82 16 82 120q0 24 -3 57h106z
M652 -391v150h149v-150h-149z" />
    <glyph glyph-name="uni1EF1" unicode="&#x1ef1;" horiz-adv-x="1195" 
d="M1121 1290h107q6 -39 6 -71q0 -36 -11 -85q-10 -45 -65 -85q-43 -29 -91 -33q-5 -1 -16 -1v-1015h-118v168q-105 -199 -364 -199q-208 0 -327 130t-119 389v618h118v-606q0 -217 91 -316.5t251 -99.5t255 100t95 316v606h36q52 2 73 7q82 16 82 120q0 24 -3 57zM674 -391
h-149v150h149v-150z" />
    <glyph glyph-name="Ygrave" unicode="&#x1ef2;" horiz-adv-x="1100" 
d="M612 1654h-109l-111 297h110zM610 0h-117v623l-493 852h136l415 -717l414 717h136l-491 -852v-623z" />
    <glyph glyph-name="ygrave" unicode="&#x1ef3;" horiz-adv-x="1057" 
d="M602 1285h-109l-111 297h110zM428 -492h-123l182 492l-449 1106h126l382 -948l346 948h124z" />
    <glyph glyph-name="uni1EF4" unicode="&#x1ef4;" horiz-adv-x="1100" 
d="M610 0h-117v623l-493 852h136l415 -717l414 717h136l-491 -852v-623zM625 -391h-149v150h149v-150z" />
    <glyph glyph-name="uni1EF5" unicode="&#x1ef5;" horiz-adv-x="1057" 
d="M428 -492h-123l182 492l-449 1106h126l382 -948l346 948h124zM853 -391h-143v143h143v-143z" />
    <glyph glyph-name="uni1EF6" unicode="&#x1ef6;" horiz-adv-x="1100" 
d="M443 1868l-44 64q63 67 144 67q21 0 60 -11q35 -10 70 -62q28 -44 28 -91q0 -8 -3 -41q-5 -34 -41 -79q-38 -47 -91 -69l-51 59q40 20 65.5 48t28.5 49q2 24 2 25q0 24 -13 46q-22 37 -60 37q-1 0 -5 -0.5t-11.5 -1t-13.5 -0.5q-25 -3 -65 -40zM610 0h-117v623l-493 852
h136l415 -717l414 717h136l-491 -852v-623z" />
    <glyph glyph-name="uni1EF7" unicode="&#x1ef7;" horiz-adv-x="1057" 
d="M436 1500l-44 65q60 66 143 66q24 0 60 -10t71 -62q27 -44 27 -91q0 -9 -3 -42q-4 -33 -40 -77q-38 -48 -91 -71l-52 60q39 20 65 48t29 49l2 24q0 24 -13 46q-22 37 -61 37q-1 0 -4.5 -0.5t-10 -1t-13.5 -0.5q-25 -3 -65 -40zM428 -492h-123l182 492l-449 1106h126
l382 -948l346 948h124z" />
    <glyph glyph-name="uni1EF8" unicode="&#x1ef8;" horiz-adv-x="1100" 
d="M713 1655q-64 0 -169 60q-88 47 -126 47q-17 0 -29 -6t-17.5 -13t-8.5 -17t-3.5 -14t-0.5 -8q0 -15 7 -36h-91q-7 25 -7 53q0 76 58 117q38 26 90 26q37 0 74.5 -14t97.5 -47q85 -47 124 -47q32 0 45 19.5t13 44.5q0 13 -5 33h90q7 -24 7 -51q0 -78 -57 -120
q-39 -27 -92 -27zM610 0h-117v623l-493 852h136l415 -717l414 717h136l-491 -852v-623z" />
    <glyph glyph-name="uni1EF9" unicode="&#x1ef9;" horiz-adv-x="1057" 
d="M691 1286q-37 0 -74.5 14t-95.5 47q-85 47 -125 47q-14 0 -25 -4t-17 -11t-9.5 -13t-5 -14.5t-1.5 -11v-6.5q0 -17 5 -35h-90q-6 25 -6 52q0 77 57 118q38 26 89 26q38 0 76 -14t97 -46q83 -47 124 -47q32 0 45.5 19t13.5 44q0 10 -6 34h91q7 -24 7 -51q0 -77 -58 -120
q-40 -28 -92 -28zM428 -492h-123l182 492l-449 1106h126l382 -948l346 948h124z" />
    <glyph glyph-name="uni2011" unicode="&#x2011;" horiz-adv-x="860" 
d="M737 592h-614v107h614v-107z" />
    <glyph glyph-name="endash" unicode="&#x2013;" horiz-adv-x="1105" 
d="M983 592h-860v107h860v-107z" />
    <glyph glyph-name="emdash" unicode="&#x2014;" horiz-adv-x="1597" 
d="M1475 592h-1352v107h1352v-107z" />
    <glyph glyph-name="quoteleft" unicode="&#x2018;" horiz-adv-x="411" 
d="M270 1141l9 -64q-16 -3 -32 -3q-66 0 -97 61q-20 37 -20 89v251h149v-200h-80q0 -3 -0.5 -11.5t-0.5 -12.5v-12q0 -48 13.5 -73t50.5 -25h8z" />
    <glyph glyph-name="quoteright" unicode="&#x2019;" horiz-adv-x="411" 
d="M133 1077l8 64h9q37 0 50.5 25t13.5 73v12q0 17 -1 24h-80v200h149v-251q0 -52 -18.5 -89t-46.5 -49q-27 -12 -52 -12q-15 0 -32 3z" />
    <glyph glyph-name="quotesinglbase" unicode="&#x201a;" horiz-adv-x="517" 
d="M123 -198l8 64h8q37 0 51 25t14 72v12q0 17 -1 25h-80v200h148v-251q0 -52 -18 -89t-46 -49q-29 -13 -51 -13q-18 0 -33 4z" />
    <glyph glyph-name="quotedblleft" unicode="&#x201c;" horiz-adv-x="708" 
d="M545 1488l-8 -64h-9q-37 0 -50.5 -24.5t-13.5 -72.5v-12q0 -5 0.5 -13t0.5 -12h80v-199h-149v250q0 52 18.5 89.5t47.5 49.5q26 12 50 12q18 0 33 -4zM312 1488l-8 -64h-8q-37 0 -51 -25t-14 -72v-12q0 -5 0.5 -13t0.5 -12h80v-199h-148v250q0 52 18 89.5t47 49.5
q25 12 51 12q17 0 32 -4z" />
    <glyph glyph-name="quotedblright" unicode="&#x201d;" horiz-adv-x="708" 
d="M164 1094l8 63h8q37 0 51 25t14 73v13q0 16 -1 23h-80v200h148v-251q0 -52 -18 -88.5t-46 -48.5q-27 -12 -52 -12q-16 0 -32 3zM396 1094l8 63h9q37 0 50.5 25t13.5 73v13q0 16 -1 23h-80v200h149v-251q0 -52 -18.5 -88.5t-46.5 -48.5q-27 -12 -52 -12q-16 0 -32 3z" />
    <glyph glyph-name="quotedblbase" unicode="&#x201e;" horiz-adv-x="708" 
d="M164 -198l8 64h8q37 0 51 25t14 72v12q0 17 -1 25h-80v200h148v-251q0 -52 -18 -89t-46 -49q-29 -13 -51 -13q-18 0 -33 4zM396 -198l8 64h9q37 0 50.5 24.5t13.5 72.5v12q0 17 -1 25h-80v200h149v-251q0 -51 -18.5 -88t-46.5 -50q-29 -13 -51 -13q-18 0 -33 4z" />
    <glyph glyph-name="uni201F" unicode="&#x201f;" horiz-adv-x="708" 
d="M537 1157l8 -63q-16 -3 -32 -3q-66 0 -97 60q-20 37 -20 89v251h149v-200h-80q0 -3 -0.5 -11t-0.5 -12v-13q0 -48 13.5 -73t50.5 -25h9zM304 1157l8 -63q-16 -3 -31 -3q-67 0 -98 60q-19 35 -19 89v251h148v-200h-80q0 -3 -0.5 -11t-0.5 -12v-13q0 -48 14 -73t51 -25h8z
" />
    <glyph glyph-name="dagger" unicode="&#x2020;" horiz-adv-x="1105" 
d="M611 0h-117v998h-371v108h371v369h117v-369h372v-108h-372v-998z" />
    <glyph glyph-name="daggerdbl" unicode="&#x2021;" horiz-adv-x="801" 
d="M460 0h-118v493h-219v107h219v314h-219v108h219v453h118v-453h219v-108h-219v-314h219v-107h-219v-493z" />
    <glyph glyph-name="bullet" unicode="&#x2022;" horiz-adv-x="1303" 
d="M656 423q-95 0 -160.5 64t-65.5 158t65.5 158t160.5 64q90 0 153.5 -64.5t63.5 -157.5q0 -92 -64 -157t-153 -65z" />
    <glyph glyph-name="ellipsis" unicode="&#x2026;" horiz-adv-x="1241" 
d="M312 0h-148v148h148v-148zM694 0h-148v148h148v-148zM1077 0h-148v148h148v-148z" />
    <glyph glyph-name="perthousand" unicode="&#x2030;" horiz-adv-x="2703" 
d="M492 768q-100 0 -184.5 48.5t-134.5 134.5q-50 82 -50 186q0 98 50 182.5t136 135.5q82 50 183 50q100 0 184.5 -48.5t134.5 -134.5q49 -83 49 -185q0 -100 -49 -185t-134 -135q-83 -49 -185 -49zM1662 1394l-1396 -1394l-82 82l1396 1393zM492 879q68 0 128 35t95 95
q35 58 35 128q0 68 -35 128t-95 95q-58 35 -128 35q-68 0 -128 -35t-95 -95q-36 -60 -36 -128t35.5 -127.5t95.5 -95.5q58 -35 128 -35zM1355 -31q-100 0 -184.5 49t-134.5 135q-50 82 -50 185q0 98 50 182.5t136 135.5q84 51 183 51q100 0 184 -49t135 -135q49 -83 49 -185
q0 -100 -49 -185t-134 -135q-83 -49 -185 -49zM2212 -31q-100 0 -184.5 49t-134.5 135q-50 82 -50 185q0 98 50.5 182.5t136.5 135.5q84 51 182 51q100 0 184 -49t135 -135q49 -83 49 -185q0 -100 -49 -185t-134 -135q-83 -49 -185 -49zM1355 80q69 0 128.5 35t94.5 95
q35 58 35 128q0 68 -35 128t-94 95q-58 35 -129 35q-68 0 -127.5 -35t-94.5 -95q-35 -58 -35 -128q0 -68 34.5 -127.5t94.5 -94.5q60 -36 128 -36zM2212 80q68 0 128 35t95 95q35 58 35 128q0 68 -35 128t-95 95q-58 35 -128 35q-68 0 -127 -35t-95 -95t-36 -128t35 -127
t95 -95t128 -36z" />
    <glyph glyph-name="guilsinglleft" unicode="&#x2039;" horiz-adv-x="1242" 
d="M840 243l-76 -75l-477 477l477 477l76 -74l-404 -403z" />
    <glyph glyph-name="guilsinglright" unicode="&#x203a;" horiz-adv-x="1242" 
d="M478 168l-76 75l404 402l-404 403l76 74l477 -477z" />
    <glyph glyph-name="fraction" unicode="&#x2044;" horiz-adv-x="405" 
d="M796 1408l-1097 -1408l-89 71l1098 1406z" />
    <glyph glyph-name="uni2060" unicode="&#x2060;" horiz-adv-x="0" 
 />
    <glyph glyph-name="uni2070" unicode="&#x2070;" horiz-adv-x="1010" 
d="M506 528q-174 0 -268.5 127.5t-94.5 356.5t94.5 356t268.5 127q172 0 266.5 -127.5t94.5 -355.5t-94.5 -356t-266.5 -128zM506 624q121 0 188.5 100.5t67.5 287.5t-67.5 287.5t-188.5 100.5q-122 0 -190 -100t-68 -288q0 -187 67.5 -287.5t190.5 -100.5z" />
    <glyph glyph-name="uni2074" unicode="&#x2074;" horiz-adv-x="872" 
d="M680 553h-99v181h-479v94l312 647h108l-311 -647h370v320h99v-320h90v-94h-90v-181z" />
    <glyph glyph-name="uni2075" unicode="&#x2075;" horiz-adv-x="876" 
d="M775 828q0 -132 -90.5 -214t-233.5 -82q-138 0 -228.5 68t-120.5 201l101 16q26 -97 85 -143.5t164 -46.5q99 0 160 56t61 142q0 91 -57 138t-165 47h-282l30 465h516v-95h-423l-18 -275h178q155 0 239 -72.5t84 -204.5z" />
    <glyph glyph-name="uni2076" unicode="&#x2076;" horiz-adv-x="974" 
d="M496 526q-181 0 -265.5 106t-86.5 321q-3 281 81.5 410.5t269.5 129.5q136 0 220.5 -66t112.5 -194l-99 -18q-23 95 -79.5 139.5t-156.5 44.5q-123 0 -183.5 -88.5t-65.5 -273.5l-1 -29q32 63 104 97t164 34q150 0 238.5 -81t88.5 -224t-93.5 -225.5t-248.5 -82.5z
M496 622q112 0 174 55t62 154q0 98 -62 154t-174 56q-110 0 -173 -56t-63 -154t62.5 -153.5t173.5 -55.5z" />
    <glyph glyph-name="uni2077" unicode="&#x2077;" horiz-adv-x="753" 
d="M266 553h-107l385 827h-462v95h569v-95z" />
    <glyph glyph-name="uni2078" unicode="&#x2078;" horiz-adv-x="911" 
d="M456 1493q137 0 221 -70t84 -193q0 -70 -35.5 -126t-96.5 -80q69 -17 114 -78t45 -136q0 -131 -91.5 -207.5t-240.5 -76.5q-148 0 -240 76.5t-92 207.5q0 75 45.5 136t114.5 78q-61 24 -96.5 80t-35.5 126q0 123 83.5 193t220.5 70zM456 1069q96 0 149.5 45.5t53.5 117.5
q0 77 -55.5 122t-147.5 45t-147.5 -45t-55.5 -122q0 -71 54 -117t149 -46zM456 974q-108 0 -169 -45t-61 -123q0 -84 62 -134t168 -50t168 50t62 134q0 78 -61 123t-169 45z" />
    <glyph glyph-name="uni2079" unicode="&#x2079;" horiz-adv-x="974" 
d="M479 1493q181 0 265 -106t86 -321q3 -281 -81 -410.5t-269 -129.5q-136 0 -221 66t-113 194l100 18q23 -95 79.5 -138.5t156.5 -43.5q123 0 183.5 87.5t65.5 272.5l1 30q-32 -63 -104 -97t-164 -34q-150 0 -238.5 81t-88.5 225q0 143 93 224.5t249 81.5zM479 1399
q-112 0 -174 -56t-62 -155q0 -98 62 -154t174 -56q110 0 173 56t63 154t-62.5 154.5t-173.5 56.5z" />
    <glyph glyph-name="uni2080" unicode="&#x2080;" horiz-adv-x="1010" 
d="M506 -25q-174 0 -268.5 127.5t-94.5 356.5t94.5 356t268.5 127q172 0 266.5 -127.5t94.5 -355.5t-94.5 -356t-266.5 -128zM506 71q121 0 188.5 100.5t67.5 287.5t-67.5 287.5t-188.5 100.5q-122 0 -190 -100t-68 -288q0 -187 67.5 -287.5t190.5 -100.5z" />
    <glyph glyph-name="uni2081" unicode="&#x2081;" horiz-adv-x="690" 
d="M444 0h-99v808l-173 -106l-49 86l222 134h99v-922z" />
    <glyph glyph-name="uni2082" unicode="&#x2082;" horiz-adv-x="839" 
d="M121 0v95l391 372q122 115 122 217q0 75 -56 119.5t-144 44.5q-92 0 -153.5 -53t-75.5 -142l-103 20q23 125 112 197t220 72q134 0 219 -69.5t83 -190.5q-1 -133 -141 -268l-337 -319h478v-95h-615z" />
    <glyph glyph-name="uni2083" unicode="&#x2083;" horiz-adv-x="877" 
d="M755 274q0 -132 -91 -213t-235 -81q-137 0 -227 66.5t-120 200.5l99 16q27 -97 86 -143t164 -46q98 0 159.5 56t61.5 142q0 91 -57 138t-166 47h-89v85l257 285h-463v95h586v-95l-260 -286q143 -6 219 -73.5t76 -193.5z" />
    <glyph glyph-name="uni2084" unicode="&#x2084;" horiz-adv-x="872" 
d="M680 0h-99v181h-479v94l312 647h108l-311 -647h370v320h99v-320h90v-94h-90v-181z" />
    <glyph glyph-name="uni2085" unicode="&#x2085;" horiz-adv-x="876" 
d="M775 275q0 -132 -90.5 -213.5t-233.5 -81.5q-138 0 -228.5 67.5t-120.5 200.5l101 16q26 -97 85 -143.5t164 -46.5q99 0 160 56t61 142q0 91 -57 138t-165 47h-282l30 465h516v-95h-423l-18 -275h178q155 0 239 -72.5t84 -204.5z" />
    <glyph glyph-name="uni2086" unicode="&#x2086;" horiz-adv-x="974" 
d="M496 -27q-181 0 -265.5 106t-86.5 321q-3 281 81.5 410.5t269.5 129.5q136 0 220.5 -66t112.5 -194l-99 -17q-23 95 -79.5 139t-156.5 44q-123 0 -183.5 -88.5t-65.5 -273.5l-1 -29q32 63 104 97t164 34q150 0 238.5 -81t88.5 -224t-93.5 -225.5t-248.5 -82.5zM496 69
q112 0 174 55.5t62 154.5q0 98 -62 153.5t-174 55.5q-110 0 -173 -55.5t-63 -153.5t62.5 -154t173.5 -56z" />
    <glyph glyph-name="uni2087" unicode="&#x2087;" horiz-adv-x="753" 
d="M266 0h-107l385 827h-462v95h569v-95z" />
    <glyph glyph-name="uni2088" unicode="&#x2088;" horiz-adv-x="911" 
d="M456 940q137 0 221 -70t84 -193q0 -70 -35.5 -126t-96.5 -80q69 -17 114 -78t45 -136q0 -131 -91.5 -207.5t-240.5 -76.5q-148 0 -240 76.5t-92 207.5q0 75 45.5 136t114.5 78q-61 24 -96.5 80t-35.5 126q0 123 83.5 193t220.5 70zM456 516q96 0 149.5 45.5t53.5 117.5
q0 77 -55.5 122t-147.5 45t-147.5 -45t-55.5 -122q0 -71 54 -117t149 -46zM456 421q-108 0 -169 -45t-61 -123q0 -84 62 -134t168 -50t168 50t62 134q0 78 -61 123t-169 45z" />
    <glyph glyph-name="uni2089" unicode="&#x2089;" horiz-adv-x="974" 
d="M479 940q181 0 265 -106t86 -321q3 -281 -81 -410.5t-269 -129.5q-136 0 -221 66t-113 194l100 18q23 -95 79.5 -138.5t156.5 -43.5q123 0 183.5 87.5t65.5 272.5l1 30q-32 -63 -104 -97t-164 -34q-150 0 -238.5 81t-88.5 225q0 143 93 224.5t249 81.5zM479 846
q-112 0 -174 -56t-62 -155q0 -98 62 -154t174 -56q110 0 173 56t63 154t-62.5 154.5t-173.5 56.5z" />
    <glyph glyph-name="franc" unicode="&#x20a3;" horiz-adv-x="1093" 
d="M220 287h-159v107h159v1081h833v-115h-715v-573h592v-114h-592v-279h305v-107h-305v-287h-118v287z" />
    <glyph glyph-name="uni20A9" unicode="&#x20a9;" horiz-adv-x="1936" 
d="M289 684h-228v108l197 -1l-197 684h122l196 -683h333l193 683h124l196 -683l333 -1l193 684h124l-196 -683h196v-108l-227 -1l-196 -683h-121l-196 684l-333 -1l-196 -683h-121zM968 1264l-135 -472l270 -1zM410 684l136 -477l135 476zM1255 684l137 -477l135 476z" />
    <glyph glyph-name="uni20AA" unicode="&#x20aa;" horiz-adv-x="1592" 
d="M241 0h-118v1475h487q41 0 100 -9q161 -26 257 -148t96 -293v-623h-123v623q0 120 -64.5 212.5t-176.5 113.5q-44 9 -91 9h-367v-1360zM1351 1475h118v-1475h-488q-45 0 -98 8q-162 28 -258.5 149.5t-96.5 292.5v622h124v-622q0 -78 27 -145.5t82.5 -116.5t131.5 -64
q42 -9 90 -9h368v1360z" />
    <glyph glyph-name="dong" unicode="&#x20ab;" horiz-adv-x="1196" 
d="M568 227q-221 0 -353.5 121.5t-132.5 334.5q0 140 60 243t168 157q107 54 247 54q240 0 355 -118q1 -1 10 -11t13 -15v292h-237v108h237v119h118v-119h147v-108h-147v-1029h-108v131q-12 -17 -32 -39q-115 -121 -345 -121zM573 338q178 0 275 91.5t97 253.5t-97 251.5
t-275 89.5q-174 0 -269.5 -88t-95.5 -253q0 -162 98.5 -253.5t266.5 -91.5zM1097 0h-946v106h946v-106z" />
    <glyph glyph-name="Euro" unicode="&#x20ac;" horiz-adv-x="1471" 
d="M229 515h-168v111h154q-4 48 -4 111q0 61 4 108h-154v111h167q45 256 195 402.5t392 146.5q228 0 374.5 -129.5t199.5 -359.5l-122 -30q-43 192 -156 298t-296 106q-188 0 -304.5 -115t-155.5 -319h592v-111h-607q-4 -70 -4 -108q0 -51 5 -111h606v-111h-591
q39 -203 155.5 -316.5t303.5 -113.5q183 0 296 106t156 297l122 -29q-53 -230 -199.5 -360t-374.5 -130q-240 0 -390.5 146t-195.5 400z" />
    <glyph glyph-name="uni20AE" unicode="&#x20ae;" horiz-adv-x="1215" 
d="M549 402l-279 -128v129l279 127v232l-279 -128v129l279 126v471h-529v115h1175v-115h-528v-417l278 127v-127l-278 -128v-231l278 127v-127l-278 -127v-457h-118v402z" />
    <glyph glyph-name="uni20B1" unicode="&#x20b1;" horiz-adv-x="1179" 
d="M174 1098h-123v96h123v281h426q41 0 102 -9q109 -18 188.5 -79.5t120.5 -157.5q6 -14 12 -35h125v-96h-102q6 -40 6 -83q0 -42 -6 -83h102v-96h-125l-12 -31q-40 -96 -119.5 -157.5t-189.5 -80.5q-54 -8 -102 -8h-308v-559h-118v836h-123v96h123v166zM292 1360v-166h598
q-23 48 -67 91q-54 51 -131 66q-40 9 -94 9h-306zM292 1098v-166h630q8 43 8 83t-8 83h-630zM292 836v-166h306q52 0 94 9q79 15 130 65q42 39 68 92h-598z" />
    </font>
</defs>
</svg>
