<?xml version="1.0" standalone="no"?>
<!DOCTYPE svg PUBLIC "-//W3C//DTD SVG 1.1//EN" "http://www.w3.org/Graphics/SVG/1.1/DTD/svg11.dtd" >
<svg xmlns="http://www.w3.org/2000/svg" xmlns:xlink="http://www.w3.org/1999/xlink" version="1.1">
<metadata>
Created by FontForge 20201107 at Tue Apr  2 15:09:30 2024
 By 
Copyright 2019 The Manrope Project Authors (https://github.com/sharanda/manrope)
Copyright 2021 The Vela Sans Project - Ravid Balaliev
</metadata>
<defs>
<font id="VelaSans-Medium" horiz-adv-x="1280" >
  <font-face 
    font-family="Vela Sans Med"
    font-weight="500"
    font-stretch="normal"
    units-per-em="2048"
    panose-1="0 0 0 0 0 0 0 0 0 0"
    ascent="1638"
    descent="-410"
    x-height="1106"
    cap-height="1475"
    bbox="-351 -584 2572 2342"
    underline-thickness="51"
    underline-position="-101"
    unicode-range="U+000A-FB02"
  />
<missing-glyph horiz-adv-x="1515" 
d="M1311 1448h-1106v27h1106v-27zM1311 1329h-1106v33h1106v-33zM1311 1212h-1106v37h1106v-37zM1311 1092h-1106v43h1106v-43zM1311 975h-1106v45h1106v-45zM1311 858h-1106v49h1106v-49zM1311 737h-1106v58h1106v-58zM1311 621h-1106v61h1106v-61zM1311 502h-1106v67h1106
v-67zM1311 383h-1106v72h1106v-72zM1311 266h-1106v76h1106v-76zM1311 147h-1106v82h1106v-82zM1311 0h-1106v117h1106v-117z" />
    <glyph glyph-name="uniE001" unicode="&#x28;c&#x29;" horiz-adv-x="1906" 
d="M953 -77q-213 0 -395 107t-288 287q-106 181 -106 396t106 396t288 288q179 105 395 105q218 0 397 -105q180 -106 287 -288q106 -181 106 -396t-106 -396t-287 -287q-182 -107 -397 -107zM953 98q167 0 309 83q140 81 223 225q82 143 82 308t-82 308q-83 140 -223 223
q-143 82 -309 82q-165 0 -308 -82q-142 -82 -224 -223q-83 -142 -83 -308t83 -308q82 -144 224 -225q142 -83 308 -83zM965 280q-193 0 -300 134q-96 120 -96 301q2 182 96 298q111 135 307 135q117 0 203 -53q111 -66 145 -193l-146 -42q-23 65 -81 109q-53 40 -128 40
q-113 0 -181 -86q-57 -72 -57 -207q0 -130 57 -210q63 -86 182 -86q79 0 130 38q51 42 74 102l150 -37q-42 -115 -131 -179q-90 -64 -224 -64z" />
    <glyph glyph-name="uniE002" unicode="&#x20;&#x3c;&#x33;&#x20;" horiz-adv-x="2385" 
d="M1193 -31q-67 0 -110 47l-398 420q-112 121 -112 280q0 2 0.5 12.5t1.5 33.5t2 48q2 88 110 207q109 120 271 120q118 0 235 -82q111 82 233 82q165 0 274 -121q108 -120 110 -207q0 -25 0.5 -47.5t1 -33.5t0.5 -12q0 -161 -112 -280l-397 -420q-45 -47 -110 -47z
M1193 121l398 419q72 75 72 178q0 21 -1 58q-1 52 -69 132q-67 78 -167 78q-118 0 -233 -127q-121 127 -235 127q-99 0 -165 -78q-65 -77 -67 -133q-1 -37 -1 -58q0 -103 71 -177z" />
    <glyph glyph-name="uniE003" unicode="&#x28;&#x3e;&#x29;" horiz-adv-x="2355" 
d="M1178 -276q-276 0 -508 136q-234 137 -369 369q-137 233 -137 508q0 276 137 509q137 232 369 369q232 136 508 136q277 0 509 -136q231 -136 368 -369q136 -232 136 -509q0 -276 -136 -508q-136 -233 -368 -369t-509 -136zM1180 -101q230 0 421 112t304 306
q111 189 111 422q0 232 -111 421q-112 192 -304 304q-191 112 -421 112q-231 0 -422 -112q-194 -113 -306 -304q-113 -193 -113 -421q0 -229 113 -422q112 -193 306 -306q191 -112 422 -112zM1041 1075l406 -338l-406 -338v676z" />
    <glyph glyph-name="uniE007" unicode="ff" horiz-adv-x="1392" 
d="M249 934h-188v172h188v86q0 160 76.5 236.5t236.5 76.5h160v-151h-128q-89 0 -126 -38t-37 -131v-79h468v86q0 160 76.5 236.5t236.5 76.5h160v-151h-128q-89 0 -126 -38t-37 -131v-79h291v-172h-291v-934h-182v934h-468v-934h-182v934z" />
    <glyph glyph-name="uniE008" unicode="ffl" horiz-adv-x="1973" 
d="M1809 0h-182v934h-546v-934h-182v934h-468v-934h-182v934h-188v172h188v86q0 160 76.5 236.5t236.5 76.5h160v-151h-128q-89 0 -126 -38t-37 -131v-79h468v77q0 170 76.5 246t246.5 76h150v-151h-128q-89 0 -126 -38t-37 -131v-79h546v399h182v-1505z" />
    <glyph glyph-name="uniE009" unicode="tt" horiz-adv-x="1562" 
d="M20 934v172h225v370h182v-370h538v370h182v-370h334v-172h-334v-603q0 -89 37.5 -127t125.5 -38h171v-166h-214q-141 0 -221.5 76.5t-80.5 210.5v647h-538v-603q0 -89 37.5 -127t125.5 -38h171v-166h-214q-141 0 -221.5 76.5t-80.5 210.5v647h-225z" />
    <glyph glyph-name="fi" unicode="fi" horiz-adv-x="1283" 
d="M249 934h-188v172h188v86q0 160 76.5 236.5t236.5 76.5h160v-151h-128q-89 0 -126 -38t-37 -131v-79h291v-172h-291v-934h-182v934zM1119 1302h-182v188h182v-188zM1119 0h-182v1106h182v-1106z" />
    <glyph glyph-name="fl" unicode="fl" horiz-adv-x="1323" 
d="M249 934h-188v172h188v77q0 170 76 246t246 76h151v-151h-128q-89 0 -126 -38t-37 -131v-79h546v399h182v-1505h-182v934h-546v-934h-182v934z" />
    <glyph glyph-name="hyphen_hyphen.liga" unicode="&#x2d;&#x2d;" horiz-adv-x="1105" 
d="M983 570h-860v151h860v-151z" />
    <glyph glyph-name="hyphen_greater.liga" unicode="&#x2d;&#x3e;" horiz-adv-x="2057" 
d="M287 570v151h1184l-300 295l115 113l484 -484l-484 -484l-115 113l302 296h-1186z" />
    <glyph glyph-name="less_hyphen.liga" unicode="&#x3c;&#x2d;" horiz-adv-x="2057" 
d="M586 721h1184v-151h-1185l301 -296l-115 -113l-484 484l484 484l115 -113z" />
    <glyph glyph-name=".notdef" horiz-adv-x="1515" 
d="M1311 1448h-1106v27h1106v-27zM1311 1329h-1106v33h1106v-33zM1311 1212h-1106v37h1106v-37zM1311 1092h-1106v43h1106v-43zM1311 975h-1106v45h1106v-45zM1311 858h-1106v49h1106v-49zM1311 737h-1106v58h1106v-58zM1311 621h-1106v61h1106v-61zM1311 502h-1106v67h1106
v-67zM1311 383h-1106v72h1106v-72zM1311 266h-1106v76h1106v-76zM1311 147h-1106v82h1106v-82zM1311 0h-1106v117h1106v-117z" />
    <glyph glyph-name=".null" horiz-adv-x="0" 
 />
    <glyph glyph-name="uni000D" unicode="&#xd;" horiz-adv-x="1228" 
 />
    <glyph glyph-name="uni000A" unicode="&#xa;" horiz-adv-x="342" 
 />
    <glyph glyph-name="space" unicode=" " horiz-adv-x="409" 
 />
    <glyph glyph-name="exclam" unicode="!" horiz-adv-x="663" 
d="M418 369h-172v1106h172v-1106zM418 0h-172v188h172v-188z" />
    <glyph glyph-name="quotedbl" unicode="&#x22;" horiz-adv-x="854" 
d="M305 1106h-182v369h182v-369zM649 1106h-182v369h182v-369z" />
    <glyph glyph-name="numbersign" unicode="#" horiz-adv-x="1892" 
d="M589 1h-179l114 429h-401l46 174h402l79 299h-401l47 173h401l107 399h180l-107 -399h312l106 399h181l-108 -399h401l-46 -173h-401l-81 -299h401l-46 -174h-401l-115 -429h-179l114 429h-312zM830 903l-79 -299h311l80 299h-312z" />
    <glyph glyph-name="dollar" unicode="$" horiz-adv-x="1290" 
d="M575 -205v179q-202 23 -336 138t-167 297l188 29q35 -137 147 -216.5t269 -79.5t255.5 72t98.5 187q0 155 -206 216l-375 112q-158 47 -239 138.5t-81 223.5q0 166 115 276t310 132v180h182v-181q188 -23 312.5 -134.5t160.5 -290.5l-193 -34q-22 130 -124.5 210.5
t-248.5 81.5q-139 1 -230 -65.5t-91 -166.5q0 -78 56.5 -127t188.5 -87l281 -81q371 -105 371 -392q0 -180 -125 -298t-336 -140v-179h-183z" />
    <glyph glyph-name="percent" unicode="%" horiz-adv-x="1845" 
d="M492 768q-100 0 -184.5 48.5t-134.5 134.5q-50 82 -50 186q0 98 50 182.5t136 135.5q82 50 183 50q100 0 184.5 -48.5t134.5 -134.5q49 -83 49 -185q0 -100 -49 -185t-134 -135q-83 -49 -185 -49zM1661 1352l-1354 -1352l-123 123l1354 1352zM492 929q84 0 145.5 62
t61.5 146q0 85 -61 146.5t-146 61.5q-84 0 -146 -62t-62 -146q0 -83 62.5 -145.5t145.5 -62.5zM1354 -31q-100 0 -184.5 49t-134.5 135q-50 82 -50 185q0 98 50 182.5t136 135.5q84 51 183 51q100 0 184 -49t135 -135q49 -83 49 -185q0 -100 -49 -185t-134 -135
q-83 -49 -185 -49zM1354 130q84 0 146 62t62 146q0 85 -61.5 146.5t-146.5 61.5q-84 0 -146 -62t-62 -146q0 -83 62.5 -145.5t145.5 -62.5z" />
    <glyph glyph-name="ampersand" unicode="&#x26;" horiz-adv-x="1345" 
d="M1187 0l-130 120q-140 -151 -419 -151q-242 0 -387 121t-149 321q-2 128 56 226t173 159q-81 79 -115 149.5t-34 159.5q0 180 122.5 289t323.5 109q158 0 269.5 -70.5t152.5 -197.5l-179 -46q-25 67 -88 104t-155 37q-121 0 -190.5 -60.5t-69.5 -164.5q0 -68 38.5 -123.5
t141.5 -151.5l430 -399v8v295h186v-313q0 -81 -20 -145l161 -148zM638 144q199 0 282 104l-455 423q-88 -29 -133 -93.5t-43 -157.5q2 -124 100.5 -200t248.5 -76z" />
    <glyph glyph-name="quotesingle" unicode="'" horiz-adv-x="468" 
d="M305 1106h-182v369h182v-369z" />
    <glyph glyph-name="parenleft" unicode="(" horiz-adv-x="890" 
d="M804 -271l-135 -104q-119 137 -206 310t-131 359q-45 186 -45 365v17v16q0 376 176 725q86 171 206 309l135 -102q-348 -415 -350 -948q2 -261 89 -502t261 -445z" />
    <glyph glyph-name="parenright" unicode=")" horiz-adv-x="890" 
d="M222 -375l-135 104q175 206 262.5 447t87.5 500q-2 535 -350 948l135 102q246 -282 338 -667q44 -182 44 -367v-16v-17q0 -374 -175 -724q-86 -173 -207 -310z" />
    <glyph glyph-name="asterisk" unicode="*" horiz-adv-x="913" 
d="M426 991l-143 -211l-135 98l159 199l-246 72l52 158l239 -89l-9 257h166l-9 -257l239 89l52 -158l-246 -72l157 -199l-134 -98z" />
    <glyph glyph-name="plus" unicode="+" horiz-adv-x="1177" 
d="M665 271h-151v392h-391v150h391v390h151v-390h390v-150h-390v-392z" />
    <glyph glyph-name="comma" unicode="," horiz-adv-x="569" 
d="M123 -229l11 85q4 -1 12 -1q84 0 84 110v7q0 4 -1 13.5t-1 14.5h-105v231h201v-262q0 -70 -23 -119t-61 -67q-38 -16 -73 -16q-24 0 -44 4z" />
    <glyph glyph-name="hyphen" unicode="-" horiz-adv-x="860" 
d="M737 570h-614v151h614v-151z" />
    <glyph glyph-name="period" unicode="." horiz-adv-x="552" 
d="M377 0h-201v201h201v-201z" />
    <glyph glyph-name="slash" unicode="/" horiz-adv-x="824" 
d="M516 1475h185l-393 -1475h-185z" />
    <glyph glyph-name="zero" unicode="0" horiz-adv-x="1448" 
d="M725 -31q-277 0 -429.5 202t-152.5 566t152.5 566t429.5 202t429 -202t152 -566t-152 -566t-429 -202zM725 143q185 0 286 154.5t101 439.5t-101 439.5t-286 154.5t-286.5 -154t-101.5 -440q0 -284 101 -439t287 -155z" />
    <glyph glyph-name="one" unicode="1" horiz-adv-x="919" 
d="M674 0h-184v1263l-276 -166l-90 157l366 221h184v-1475z" />
    <glyph glyph-name="two" unicode="2" horiz-adv-x="1231" 
d="M130 0v174l625 582q98 92 141.5 168t43.5 159q0 117 -83.5 182.5t-215.5 65.5q-139 0 -231 -78.5t-115 -213.5l-192 34q38 201 181 316t355 115q142 0 251.5 -47t174.5 -144.5t64 -232.5q-1 -120 -60.5 -229.5t-153.5 -197.5l-515 -479h730v-174h-1000z" />
    <glyph glyph-name="three" unicode="3" horiz-adv-x="1294" 
d="M1171 446q0 -217 -146 -347t-380 -130q-221 0 -369 110t-194 330l186 29q38 -150 128 -223t252 -73q148 0 240.5 85t92.5 213q0 137 -86.5 208t-249.5 71h-150v153l393 430h-723v173h950v-173l-403 -432q224 -13 341.5 -120t117.5 -304z" />
    <glyph glyph-name="four" unicode="4" horiz-adv-x="1289" 
d="M1042 0h-183v282h-756v173l496 1020h201l-496 -1020h555v497h183v-497h145v-173h-145v-282z" />
    <glyph glyph-name="five" unicode="5" horiz-adv-x="1294" 
d="M1192 446q0 -217 -146 -347t-380 -130q-221 0 -369 110t-195 330l187 29q39 -150 128.5 -223t251.5 -73q148 0 240.5 85t92.5 213q0 137 -86.5 208t-249.5 71h-458l47 756h840v-173h-668l-26 -409h268q252 0 387.5 -117t135.5 -330z" />
    <glyph glyph-name="six" unicode="6" horiz-adv-x="1379" 
d="M686 -31q-285 0 -421 169t-141 525q-5 429 132 635.5t430 206.5q219 0 355.5 -104.5t181.5 -306.5l-185 -31q-35 140 -119.5 204.5t-233.5 64.5q-187 0 -280.5 -131t-99.5 -404l-1 -49q53 94 163 144t250 50q232 0 374.5 -125.5t142.5 -357.5q0 -155 -73 -267.5
t-195.5 -167.5t-279.5 -55zM686 142q167 0 260.5 83.5t93.5 228.5q0 144 -94 227t-260 83t-260 -83t-94 -227q0 -146 93.5 -229t260.5 -83z" />
    <glyph glyph-name="seven" unicode="7" horiz-adv-x="1111" 
d="M403 0h-199l606 1300h-728v175h927v-175z" />
    <glyph glyph-name="eight" unicode="8" horiz-adv-x="1313" 
d="M657 1504q220 0 355 -112.5t135 -311.5q0 -108 -53.5 -195t-146.5 -125q106 -30 175 -125.5t69 -211.5q0 -212 -147.5 -333t-386.5 -121t-386.5 121t-147.5 333q0 116 69 211.5t175 124.5q-93 38 -146 125.5t-53 195.5q0 199 134 311.5t355 112.5zM657 842
q145 0 224.5 68t79.5 173q0 115 -83.5 181.5t-220.5 66.5t-219.5 -66t-82.5 -182q0 -105 78.5 -173t223.5 -68zM657 668q-164 0 -254 -66t-90 -185q0 -126 92 -200.5t252 -74.5q159 0 251 74.5t92 200.5q0 119 -89.5 185t-253.5 66z" />
    <glyph glyph-name="nine" unicode="9" horiz-adv-x="1379" 
d="M694 1504q284 0 420 -168.5t141 -524.5q6 -428 -131.5 -635.5t-430.5 -207.5q-218 0 -354 105t-182 308l184 31q35 -141 119.5 -206t233.5 -65q187 0 280.5 132t99.5 405l1 49q-53 -95 -162.5 -145.5t-248.5 -50.5q-113 0 -207 31t-164 90.5t-108.5 152.5t-38.5 211
q0 117 42 210t115.5 153.5t173.5 92.5t217 32zM694 1331q-167 0 -260.5 -83t-93.5 -227t94 -227.5t260 -83.5t260 83.5t94 227.5t-94 227t-260 83z" />
    <glyph glyph-name="colon" unicode=":" horiz-adv-x="642" 
d="M427 905h-201v201h201v-201zM426 0h-201v201h201v-201z" />
    <glyph glyph-name="semicolon" unicode=";" horiz-adv-x="651" 
d="M426 905h-201v201h201v-201zM225 -229l12 85q4 -1 12 -1q84 0 84 110v7q-1 5 -1 14t-1 14h-106v231h201v-262q0 -70 -23 -119t-61 -67q-38 -16 -73 -16q-24 0 -44 4z" />
    <glyph glyph-name="less" unicode="&#x3c;" horiz-adv-x="1273" 
d="M886 274l-115 -113l-484 484l484 484l115 -113l-377 -371z" />
    <glyph glyph-name="equal" unicode="=" horiz-adv-x="1536" 
d="M1290 843h-1044v150h1044v-150zM1290 481h-1044v151h1044v-151z" />
    <glyph glyph-name="greater" unicode="&#x3e;" horiz-adv-x="1273" 
d="M503 161l-115 113l377 371l-377 371l115 113l484 -484z" />
    <glyph glyph-name="question" unicode="?" horiz-adv-x="1294" 
d="M1192 1029q0 -195 -113.5 -309t-323.5 -134v-220h-172v391h83q164 0 250 70.5t86 207.5q0 127 -92.5 212t-240.5 85q-162 0 -251.5 -73t-128.5 -223l-187 30q47 221 195 330t369 109q234 0 380 -130t146 -346zM755 0h-172v188h172v-188z" />
    <glyph glyph-name="at" unicode="@" horiz-adv-x="1659" 
d="M1334 174q-136 -205 -407 -205q-177 0 -277.5 89.5t-100.5 235.5q0 74 24 131.5t63 95.5t98.5 65.5t121 42.5t139.5 25l317 39q-18 135 -123 207t-283 72q-253 0 -409.5 -167.5t-156.5 -437.5q0 -288 151.5 -451t419.5 -163q106 0 201.5 31.5t160.5 89.5l95 -147
q-190 -147 -455 -147q-343 0 -546 214t-203 573q0 345 205.5 557.5t538.5 212.5q279 0 433.5 -135t154.5 -379v-623h-162v174zM1315 551l-299 -37q-152 -19 -219.5 -68.5t-67.5 -139.5q0 -179 236 -179q128 0 216 67.5t115 182.5q17 57 19 171v3z" />
    <glyph glyph-name="A" unicode="A" horiz-adv-x="1324" 
d="M779 1475l507 -1475h-192l-119 345h-627l-118 -345h-192l507 1475h234zM407 516h509l-254 748z" />
    <glyph glyph-name="B" unicode="B" horiz-adv-x="1255" 
d="M677 0h-534v1475h519q220 0 353 -97t133 -285q0 -131 -65 -215t-160 -115q49 -9 96 -36.5t87 -70.5t64.5 -107.5t24.5 -140.5q0 -105 -39 -184.5t-110 -128t-163.5 -72t-205.5 -23.5zM665 1302h-338v-457h369q120 0 193 58t73 175q0 224 -297 224zM327 173h350
q74 0 131.5 12t104.5 39.5t72 78.5t25 123q0 67 -25 116.5t-69.5 77.5t-98 41.5t-117.5 13.5h-373v-502z" />
    <glyph glyph-name="C" unicode="C" horiz-adv-x="1480" 
d="M750 -31q-216 0 -373 97.5t-236.5 270t-79.5 400.5t79.5 400.5t236.5 270t373 97.5q251 0 418 -127.5t231 -352.5l-186 -49q-46 169 -163 262t-300 93q-238 0 -367 -161.5t-129 -432.5q0 -273 127.5 -433.5t368.5 -160.5q182 0 299.5 93.5t163.5 262.5l186 -49
q-65 -225 -232 -353t-417 -128z" />
    <glyph glyph-name="D" unicode="D" horiz-adv-x="1395" 
d="M584 0h-441v1475h441q351 0 535.5 -189.5t184.5 -548.5t-184.5 -548t-535.5 -189zM330 1302v-1129h234q277 0 412 139.5t135 424.5q0 286 -135 425.5t-412 139.5h-234z" />
    <glyph glyph-name="E" unicode="E" horiz-adv-x="1178" 
d="M1076 0h-933v1475h933v-173h-749v-462h626v-173h-626v-494h749v-173z" />
    <glyph glyph-name="F" unicode="F" horiz-adv-x="1091" 
d="M327 0h-184v1475h908v-173h-724v-515h596v-173h-596v-614z" />
    <glyph glyph-name="G" unicode="G" horiz-adv-x="1473" 
d="M1208 0v230q-55 -123 -181.5 -192t-296.5 -69q-309 0 -489 204.5t-180 563.5q0 351 185.5 559t496.5 208q228 0 384.5 -108t225.5 -322l-185 -38q-45 141 -155.5 217.5t-264.5 76.5q-234 0 -363.5 -156.5t-129.5 -442.5q0 -279 127.5 -433.5t361.5 -154.5
q213 0 329 122.5t121 342.5h-530v173h728v-781h-184z" />
    <glyph glyph-name="H" unicode="H" horiz-adv-x="1428" 
d="M327 0h-184v1475h184v-651h775v651h183v-1475h-183v651h-775v-651z" />
    <glyph glyph-name="I" unicode="I" horiz-adv-x="510" 
d="M347 0h-183v1475h183v-1475z" />
    <glyph glyph-name="J" unicode="J" horiz-adv-x="973" 
d="M410 -30q-153 0 -261.5 83.5t-148.5 226.5l181 43q17 -76 80.5 -128t144.5 -52q58 0 111.5 28t81.5 84q13 25 19 60t7 62.5t1 85.5v1012h183v-1012q0 -102 -9.5 -170.5t-38.5 -127.5q-97 -195 -351 -195z" />
    <glyph glyph-name="K" unicode="K" horiz-adv-x="1253" 
d="M143 0v1475h184v-696l645 696h229l-670 -716l722 -759h-235l-691 723v-723h-184z" />
    <glyph glyph-name="L" unicode="L" horiz-adv-x="1061" 
d="M1031 0h-867v1475h183v-1302h684v-173z" />
    <glyph glyph-name="M" unicode="M" horiz-adv-x="1680" 
d="M327 0h-184v1475h182l516 -1090l513 1090h183v-1474h-183v1094l-431 -920h-164l-432 920v-1095z" />
    <glyph glyph-name="N" unicode="N" horiz-adv-x="1424" 
d="M327 0h-184v1475h184l771 -1159v1159h183v-1475h-183l-771 1158v-1158z" />
    <glyph glyph-name="O" unicode="O" horiz-adv-x="1499" 
d="M750 -31q-216 0 -373 97.5t-236.5 270t-79.5 400.5t79.5 400.5t236.5 270t373 97.5t373 -97.5t236 -269.5t79 -401t-79 -401t-236 -269.5t-373 -97.5zM750 143q241 0 367.5 160.5t126.5 433.5t-126.5 433.5t-367.5 160.5t-367 -160.5t-128 -433.5q-2 -272 126 -433
t369 -161z" />
    <glyph glyph-name="P" unicode="P" horiz-adv-x="1261" 
d="M327 0h-184v1475h558q239 0 369 -123.5t130 -341.5q0 -217 -130.5 -341t-368.5 -124h-374v-545zM327 1302v-584h373q149 0 231.5 77t82.5 215t-82.5 215t-231.5 77h-373z" />
    <glyph glyph-name="Q" unicode="Q" horiz-adv-x="1499" 
d="M1300 -30l-130 129q-172 -130 -420 -130q-216 0 -373 97.5t-236.5 270t-79.5 400.5t79.5 400.5t236.5 270t373 97.5t373 -97.5t236 -269.5t79 -401q0 -315 -150 -517l130 -130zM750 143q171 0 290 86l-234 234l120 120l227 -228q91 150 91 382q0 273 -126.5 433.5
t-367.5 160.5t-367 -160.5t-128 -433.5q-2 -272 126 -433t369 -161z" />
    <glyph glyph-name="R" unicode="R" horiz-adv-x="1312" 
d="M1018 0l-358 545h-333v-545h-184v1475h558q239 0 369 -123.5t130 -341.5q0 -176 -87.5 -293t-250.5 -155l369 -562h-213zM327 1302v-584h373q149 0 231.5 77t82.5 215t-82.5 215t-231.5 77h-373z" />
    <glyph glyph-name="S" unicode="S" horiz-adv-x="1290" 
d="M667 -31q-236 0 -397 119t-198 321l188 29q36 -142 144.5 -219t271.5 -77q158 0 256 72.5t98 188.5q0 153 -206 214l-375 112q-320 95 -320 364q0 183 143 297t369 114t376.5 -114.5t191.5 -316.5l-193 -34q-23 135 -124.5 213.5t-252.5 78.5q-142 0 -229.5 -65.5
t-87.5 -165.5q0 -78 56.5 -127.5t190.5 -87.5l279 -81q371 -105 371 -392q0 -199 -151.5 -321t-400.5 -122z" />
    <glyph glyph-name="T" unicode="T" horiz-adv-x="1121" 
d="M655 0h-183v1302h-452v173h1081v-173h-446v-1302z" />
    <glyph glyph-name="U" unicode="U" horiz-adv-x="1449" 
d="M725 -31q-267 0 -424.5 160.5t-157.5 449.5v896h184v-891q0 -215 102 -329t296 -114q195 0 296.5 113.5t101.5 329.5v891h184v-896q0 -289 -157 -449.5t-425 -160.5z" />
    <glyph glyph-name="V" unicode="V" horiz-adv-x="1269" 
d="M752 0h-235l-507 1475h193l431 -1264l432 1264h192z" />
    <glyph glyph-name="W" unicode="W" horiz-adv-x="1943" 
d="M645 0h-192l-422 1475h191l327 -1177l327 1177h191l328 -1177l326 1177h192l-422 -1475h-193l-326 1166z" />
    <glyph glyph-name="X" unicode="X" horiz-adv-x="1274" 
d="M244 0h-224l507 746l-493 729h222l382 -575l381 575h223l-493 -729l505 -746h-222l-394 592z" />
    <glyph glyph-name="Y" unicode="Y" horiz-adv-x="1176" 
d="M681 0h-183v613l-498 862h212l377 -653l376 653h212l-496 -862v-613z" />
    <glyph glyph-name="Z" unicode="Z" horiz-adv-x="1316" 
d="M1214 0h-1112v173l881 1129h-881v173h1112v-173l-880 -1129h880v-173z" />
    <glyph glyph-name="bracketleft" unicode="[" horiz-adv-x="844" 
d="M691 -442h-404v2267h404v-166h-238v-1935h238v-166z" />
    <glyph glyph-name="backslash" unicode="\" horiz-adv-x="824" 
d="M123 1475h185l393 -1475h-185z" />
    <glyph glyph-name="bracketright" unicode="]" horiz-adv-x="844" 
d="M558 -442h-404v166h238v1935h-238v166h404v-2267z" />
    <glyph glyph-name="asciicircum" unicode="^" horiz-adv-x="1378" 
d="M330 907l-114 115l483 485l486 -484l-114 -115l-372 377z" />
    <glyph glyph-name="underscore" unicode="_" horiz-adv-x="1351" 
d="M1352 -228h-1352v150h1352v-150z" />
    <glyph glyph-name="grave" unicode="`" horiz-adv-x="1036" 
d="M629 1644h-149l-134 337h149z" />
    <glyph glyph-name="a" unicode="a" horiz-adv-x="1152" 
d="M580 1137q226 0 337.5 -116t111.5 -352v-669h-182v174q-118 -205 -386 -205q-174 0 -276.5 87.5t-102.5 237.5q0 163 114 247.5t332 112.5l319 39q-1 145 -66.5 212t-202.5 67q-231 0 -285 -190l-170 43q40 151 158 231.5t299 80.5zM847 551l-298 -37
q-152 -20 -219.5 -68.5t-67.5 -139.5q0 -179 237 -179q128 0 215.5 67.5t114.5 182.5q18 58 18 171v3z" />
    <glyph glyph-name="b" unicode="b" horiz-adv-x="1278" 
d="M142 0v1475h183v-542q114 204 369 204q227 0 365 -162t138 -423q0 -170 -61.5 -302t-176 -206.5t-265.5 -74.5q-256 0 -369 204v-173h-183zM664 964q-164 0 -251.5 -110.5t-87.5 -301.5q0 -189 85.5 -299.5t253.5 -110.5q166 0 253 109.5t87 300.5q0 189 -87 300.5
t-253 111.5z" />
    <glyph glyph-name="c" unicode="c" horiz-adv-x="1148" 
d="M609 -31q-244 0 -385.5 160.5t-141.5 423.5q0 265 142.5 424.5t386.5 159.5q175 0 301.5 -86.5t169.5 -235.5l-180 -54q-35 96 -113 149.5t-180 53.5q-161 0 -247.5 -110t-86.5 -301q0 -190 86 -300.5t248 -110.5q212 0 289 194l184 -48q-58 -155 -180 -237t-293 -82z
" />
    <glyph glyph-name="d" unicode="d" 
d="M954 1475h183v-1475h-183v173q-113 -204 -369 -204q-151 0 -265.5 74.5t-176 206.5t-61.5 302q0 261 138 423t365 162q255 0 369 -204v542zM615 964q-166 0 -253 -111.5t-87 -300.5q0 -191 87 -300.5t253 -109.5q168 0 253.5 110.5t85.5 299.5q0 191 -87.5 301.5
t-251.5 110.5z" />
    <glyph glyph-name="e" unicode="e" horiz-adv-x="1209" 
d="M618 140q219 0 313 195l176 -59q-65 -147 -192.5 -227t-296.5 -80q-243 0 -389.5 160t-146.5 424q0 266 145.5 425t386.5 159q253 0 388 -169.5t123 -465.5h-847q12 -171 101.5 -266.5t238.5 -95.5zM282 648h654q-12 155 -96 239t-226 84q-140 0 -226 -84.5t-106 -238.5z
" />
    <glyph glyph-name="f" unicode="f" horiz-adv-x="742" 
d="M249 934h-188v172h188v86q0 160 76.5 236.5t236.5 76.5h160v-151h-128q-89 0 -126 -38t-37 -131v-79h291v-172h-291v-934h-182v934z" />
    <glyph glyph-name="g" unicode="g" 
d="M585 1137q255 0 369 -198v167h183v-1047q0 -261 -138.5 -421t-388.5 -160q-173 0 -299 82t-184 236l184 48q37 -94 114 -143.5t185 -49.5q166 0 255 110.5t89 299.5v147q-113 -198 -369 -198q-224 0 -363.5 153.5t-139.5 408.5q0 257 140 411t363 154zM615 183
q160 0 249.5 104.5t89.5 284.5q0 183 -91 287.5t-248 104.5q-159 0 -249.5 -106t-90.5 -286q0 -183 90.5 -286t249.5 -103z" />
    <glyph glyph-name="h" unicode="h" horiz-adv-x="1234" 
d="M930 0v608q0 179 -79 267.5t-221 88.5t-223.5 -88.5t-81.5 -267.5v-608h-183v1475h183v-529q98 191 344 191q207 0 325 -124.5t118 -373.5v-639h-182z" />
    <glyph glyph-name="i" unicode="i" horiz-adv-x="509" 
d="M346 1302h-182v188h182v-188zM346 0h-182v1106h182v-1106z" />
    <glyph glyph-name="j" unicode="j" horiz-adv-x="538" 
d="M385 1302h-182v188h182v-188zM99 -490h-119v172h60q89 0 126 37t37 125v1262h182v-1311q0 -135 -73.5 -210t-212.5 -75z" />
    <glyph glyph-name="k" unicode="k" horiz-adv-x="1041" 
d="M142 0v1475h183v-902l463 533h237l-488 -553l545 -553h-255l-502 532v-532h-183z" />
    <glyph glyph-name="l" unicode="l" horiz-adv-x="509" 
d="M346 0h-182v1505h182v-1505z" />
    <glyph glyph-name="m" unicode="m" horiz-adv-x="1771" 
d="M804 0v659q0 305 -239 305q-240 0 -240 -305v-659h-183v1106h183v-134q89 165 278 165q251 0 337 -194q46 92 126.5 143t188.5 51q191 0 292.5 -111t101.5 -336v-690h-183v659q0 305 -238 305q-241 0 -241 -305h-1v-659h-182z" />
    <glyph glyph-name="n" unicode="n" horiz-adv-x="1234" 
d="M930 0v608q0 179 -79 267.5t-221 88.5t-223.5 -88.5t-81.5 -267.5v-608h-183v1106h183v-160q98 191 344 191q207 0 325 -124.5t118 -373.5v-639h-182z" />
    <glyph glyph-name="o" unicode="o" horiz-adv-x="1229" 
d="M614 -31q-244 0 -388 162t-144 423q0 262 144.5 422.5t387.5 160.5q245 0 389.5 -161t144.5 -422q0 -263 -144.5 -424t-389.5 -161zM614 142q164 0 252 110.5t88 301.5q0 193 -87.5 301.5t-252.5 108.5t-252 -109t-87 -301t88 -302t251 -110z" />
    <glyph glyph-name="p" unicode="p" 
d="M326 -492h-183v1598h183v-173q113 204 369 204q151 0 265.5 -74.5t176 -206.5t61.5 -302q0 -261 -138 -423t-365 -162q-255 0 -369 204v-665zM665 142q166 0 253 111.5t87 300.5q0 191 -87 300.5t-253 109.5q-168 0 -253.5 -110.5t-85.5 -299.5q0 -191 87.5 -301.5
t251.5 -110.5z" />
    <glyph glyph-name="q" unicode="q" 
d="M1137 1106v-1598h-183v665q-114 -204 -369 -204q-227 0 -365 162t-138 423q0 170 61.5 302t176 206.5t265.5 74.5q256 0 369 -204v173h183zM615 142q164 0 251.5 110.5t87.5 301.5q0 189 -85.5 299.5t-253.5 110.5q-166 0 -253 -109.5t-87 -300.5q0 -189 87 -300.5
t253 -111.5z" />
    <glyph glyph-name="r" unicode="r" horiz-adv-x="763" 
d="M713 1136v-178q-36 6 -83 6q-142 0 -223.5 -88.5t-81.5 -267.5v-608h-183v1106h183v-160q98 191 344 191q30 0 44 -1z" />
    <glyph glyph-name="s" unicode="s" horiz-adv-x="1086" 
d="M563 -30q-198 0 -321 84t-160 245l188 32q54 -198 296 -198q117 0 183.5 45.5t66.5 127.5q0 47 -23.5 78t-86.5 55q-65 24 -193 59q-96 25 -158.5 48.5t-121.5 60t-87.5 89t-28.5 122.5q0 141 119.5 230t309.5 89q185 0 308 -88t145 -236l-186 -34q-13 91 -86 143.5
t-188 52.5q-102 0 -170.5 -43t-68.5 -109q0 -42 37 -74t69 -44t104 -33q13 -4 19 -6q82 -22 214 -66q139 -45 200 -113t61 -175q0 -159 -118 -250.5t-323 -91.5z" />
    <glyph glyph-name="t" unicode="t" horiz-adv-x="842" 
d="M20 934v172h225v370h182v-370h334v-172h-334v-603q0 -89 37.5 -127t125.5 -38h171v-166h-214q-141 0 -221.5 76.5t-80.5 210.5v647h-225z" />
    <glyph glyph-name="u" unicode="u" horiz-adv-x="1235" 
d="M305 1106v-607q0 -179 79 -268t221 -89t223.5 89t81.5 268v607h183v-1106h-183v160q-98 -191 -344 -191q-206 0 -324.5 124.5t-118.5 373.5v639h182z" />
    <glyph glyph-name="v" unicode="v" horiz-adv-x="1071" 
d="M629 0h-187l-401 1106h185l310 -876l310 876h184z" />
    <glyph glyph-name="w" unicode="w" horiz-adv-x="1600" 
d="M1034 0l-233 813l-235 -813h-186l-339 1106h184l248 -844l247 844h161l246 -844l248 844h185l-339 -1106h-187z" />
    <glyph glyph-name="x" unicode="x" horiz-adv-x="1097" 
d="M239 0h-219l423 559l-413 547h217l303 -406l300 406h217l-414 -547l424 -559h-218l-309 418z" />
    <glyph glyph-name="y" unicode="y" horiz-adv-x="1101" 
d="M474 -492h-177l182 496l-448 1102h191l345 -870l324 870h185z" />
    <glyph glyph-name="z" unicode="z" horiz-adv-x="1067" 
d="M985 0h-944v172l711 762h-711v172h944v-172l-710 -762h710v-172z" />
    <glyph glyph-name="braceleft" unicode="{" horiz-adv-x="879" 
d="M793 -442h-128q-115 0 -186.5 71t-71.5 186v650q0 28 -17 53l-88 124q-15 22 -15 49t15 49l88 124q17 26 17 54v649q0 115 71.5 186.5t186.5 71.5h128v-174h-118q-39 0 -66.5 -27.5t-27.5 -67.5v-638q0 -84 -50 -154l-52 -73l52 -73q50 -70 50 -153v-640q0 -39 28 -66.5
t66 -27.5h118v-173z" />
    <glyph glyph-name="bar" unicode="|" horiz-adv-x="550" 
d="M367 0h-183v1475h183v-1475z" />
    <glyph glyph-name="braceright" unicode="}" horiz-adv-x="879" 
d="M216 -442h-128v173h118q38 0 66 27.5t28 66.5v640q0 85 49 153l52 73l-52 73q-49 68 -49 154v638q0 40 -27.5 67.5t-66.5 27.5h-118v174h128q116 0 187 -71.5t71 -186.5v-649q0 -29 16 -54l89 -124q14 -22 14 -49t-14 -49l-89 -124q-16 -23 -16 -53v-650
q0 -114 -72 -185.5t-186 -71.5z" />
    <glyph glyph-name="asciitilde" unicode="~" horiz-adv-x="1392" 
d="M921 458q-78 0 -167 49q-33 16 -91 52q-67 41 -105 58t-71 17q-31 0 -50.5 -19.5t-22.5 -43.5q-2 -28 -2 -29q0 -26 8 -56h-173q-14 56 -14 102q0 33 15 96q13 56 73 102q58 45 149 45q81 0 170 -48q29 -15 91 -53q69 -42 105 -58.5t69 -16.5q30 0 50.5 19.5t23.5 43.5
q3 21 3 32q0 28 -9 56h173q14 -56 14 -104q0 -39 -13 -94q-13 -56 -74 -103q-59 -47 -152 -47z" />
    <glyph glyph-name="uni00A0" unicode="&#xa0;" horiz-adv-x="409" 
 />
    <glyph glyph-name="exclamdown" unicode="&#xa1;" horiz-adv-x="673" 
d="M246 1106h172v-188h-172v188zM246 737h172v-1106h-172v1106z" />
    <glyph glyph-name="cent" unicode="&#xa2;" horiz-adv-x="1148" 
d="M542 -60v187q-215 23 -336 180.5t-124 399.5q3 245 124 400t336 178v190h150v-191q146 -20 248.5 -102t141.5 -213l-180 -55q-34 95 -112.5 149t-180.5 54q-165 0 -248 -110q-85 -113 -86 -300q2 -191 88 -301t246 -110q213 0 289 193l184 -48q-52 -134 -151.5 -213.5
t-238.5 -98.5v-189h-150z" />
    <glyph glyph-name="sterling" unicode="&#xa3;" horiz-adv-x="1296" 
d="M72 0v173h110q88 58 103.5 160.5t-37.5 273.5l-10 33h-159v173h104q-39 127 -39 241q0 213 138 331.5t387 118.5q219 0 369 -116.5t187 -314.5l-194 -34q-24 136 -126.5 214t-244.5 78q-140 0 -231.5 -69t-91.5 -205q0 -52 6 -96t13.5 -70t23.5 -78h578v-173h-527l7 -23
q88 -300 -15 -444h764v-173h-1115z" />
    <glyph glyph-name="currency" unicode="&#xa4;" horiz-adv-x="1333" 
d="M667 201q-146 0 -269 72q-21 13 -44 29l-170 -169l-123 123l170 170q-7 9 -28 44q-73 125 -73 269t73 269q3 5 8.5 13.5t10 15.5t8.5 13l-169 169l123 122l168 -167q21 14 46 29q125 73 269 73t270 -73q30 -18 44 -29l168 167l123 -122l-168 -168q15 -19 29 -43
q72 -123 72 -269t-72 -269q-17 -29 -30 -45l169 -169l-123 -123l-169 169q-19 -15 -43 -29q-125 -72 -270 -72zM667 360q101 0 188 51.5t139 139.5q50 84 50 186q0 101 -51 189t-139 139q-85 50 -187 50q-101 0 -188 -50t-138 -137t-51 -191q0 -100 50.5 -186t137.5 -138
q86 -53 189 -53z" />
    <glyph glyph-name="yen" unicode="&#xa5;" horiz-adv-x="1176" 
d="M497 531h-308v151h268l-457 793h212l377 -653l376 653h212l-456 -793h267v-151h-307v-159h307v-151h-307v-221h-184v221h-308v151h308v159z" />
    <glyph glyph-name="brokenbar" unicode="&#xa6;" horiz-adv-x="550" 
d="M367 692h-183v783h183v-783zM367 -352h-183v782h183v-782z" />
    <glyph glyph-name="section" unicode="&#xa7;" horiz-adv-x="1086" 
d="M564 -306q-174 0 -297 83.5t-154 245.5l186 29q23 -94 101.5 -144.5t173.5 -50.5q94 0 157.5 46.5t63.5 128.5q0 51 -28.5 82t-87.5 53q-67 23 -179 53l-18 4q-139 38 -216 73q-82 37 -125 92q-45 55 -45 137q0 93 55.5 159.5t149.5 97.5q3 0 4 1q-1 0 -4 2t-5 2
q-169 77 -169 240q0 101 55.5 176t150.5 112q90 36 192 36q107 0 199.5 -39.5t152.5 -112.5q59 -72 71 -172l-186 -34q-18 98 -85.5 147t-160.5 49q-88 0 -147 -41.5t-59 -108.5q0 -78 100 -119q52 -22 122 -40q60 -15 95 -25q142 -39 218 -73q81 -37 124 -95
q45 -60 45 -153q0 -103 -50 -171q-45 -62 -116 -90q57 -34 90 -78q45 -60 45 -157q0 -162 -116.5 -253.5t-302.5 -91.5zM507 388q1 0 10 -2.5t32 -8.5t47 -12q6 -2 85 -25q23 9 40 18q48 26 76 68.5t28 96.5q0 51 -28 82t-87 53q-77 26 -180 54l-17 4q-5 1 -14.5 3.5
t-17 4.5t-13.5 4q-79 -25 -130 -65q-58 -48 -58 -114q0 -79 100 -120q50 -21 127 -41z" />
    <glyph glyph-name="dieresis" unicode="&#xa8;" horiz-adv-x="1077" 
d="M831 1675h-184v185h184v-185zM430 1675h-184v185h184v-185z" />
    <glyph glyph-name="copyright" unicode="&#xa9;" horiz-adv-x="1701" 
d="M851 -77q-213 0 -395 107t-288 287q-107 182 -107 396t107 396q106 181 288 288q179 105 395 105q217 0 396 -105q181 -107 288 -288q105 -179 105 -396t-105 -396q-106 -180 -288 -287t-396 -107zM851 98q166 0 308 83q140 81 223 225q82 143 82 308t-82 308
q-83 140 -223 223q-143 82 -308 82t-308 -82q-144 -83 -225 -223q-82 -140 -82 -308t82 -308q82 -143 225 -225q142 -83 308 -83zM862 280q-193 0 -300 134q-95 118 -95 301q2 183 95 298q111 135 307 135q117 0 203 -53q112 -67 146 -193l-147 -42q-23 65 -81 109
q-53 40 -128 40q-112 0 -180 -86q-57 -72 -57 -207q0 -130 57 -210q63 -86 181 -86q79 0 130 38q53 44 75 102l150 -37q-41 -114 -132 -179q-90 -64 -224 -64z" />
    <glyph glyph-name="ordfeminine" unicode="&#xaa;" horiz-adv-x="648" 
d="M544 1031q20 -41 20 -123v-340h-100v78q-69 -93 -197 -93q-85 0 -135.5 45t-50.5 120q0 157 217 182l153 19q-1 115 -118 115q-101 0 -126 -83l-107 30q22 72 80.5 113.5t152.5 41.5q161 0 211 -105zM451 835l-136 -17q-121 -14 -121 -91q0 -78 100 -78q54 0 92.5 26.5
t52.5 70.5q12 32 12 83v6z" />
    <glyph glyph-name="guillemotleft" unicode="&#xab;" horiz-adv-x="1131" 
d="M998 187l-104 -82l-356 449l356 447l104 -81l-291 -366zM625 187l-105 -82l-356 449l356 447l105 -81l-292 -366z" />
    <glyph glyph-name="logicalnot" unicode="&#xac;" horiz-adv-x="1228" 
d="M1106 393h-151v249h-832v151h983v-400z" />
    <glyph glyph-name="uni00AD" unicode="&#xad;" horiz-adv-x="860" 
d="M737 570h-614v151h614v-151z" />
    <glyph glyph-name="registered" unicode="&#xae;" horiz-adv-x="1300" 
d="M650 579q-139 0 -253 68q-115 68 -185 186q-69 115 -69 253q0 137 69 254q70 117 185 185q115 67 253 67q139 0 255 -67q116 -69 185 -185q67 -116 67 -254t-67 -253q-69 -117 -185 -186q-115 -68 -255 -68zM651 712q100 0 186.5 50.5t137.5 137.5q50 84 50 186
q0 101 -49.5 187.5t-136.5 136.5q-84 50 -188 50q-101 0 -187.5 -49.5t-136.5 -136.5q-51 -86 -51 -188q0 -101 50 -186.5t138 -136.5q85 -51 187 -51zM575 849h-93v479h207q69 0 114 -44.5t47 -112.5q0 -44 -23 -81.5t-64 -58.5l90 -182h-104l-81 167h-93v-167zM575 1099
h105q32 0 53.5 20t21.5 52q0 35 -21 54t-54 19h-105v-145z" />
    <glyph glyph-name="macron" unicode="&#xaf;" horiz-adv-x="1015" 
d="M770 1720h-524v150h524v-150z" />
    <glyph glyph-name="degree" unicode="&#xb0;" horiz-adv-x="921" 
d="M430 768q-100 0 -184 48.5t-134 134.5q-51 84 -51 186q0 98 50.5 182.5t136.5 135.5q82 50 182 50t185 -48.5t135 -134.5q49 -83 49 -185q0 -100 -49.5 -185t-134.5 -135q-83 -49 -185 -49zM430 929q84 0 146 62t62 146q0 85 -61.5 146.5t-146.5 61.5q-84 0 -146 -62
t-62 -146q0 -83 62.5 -145.5t145.5 -62.5z" />
    <glyph glyph-name="plusminus" unicode="&#xb1;" horiz-adv-x="1228" 
d="M690 451h-150v252h-417v151h417v252h150v-252h416v-151h-416v-252zM1106 152h-983v150h983v-150z" />
    <glyph glyph-name="twosuperior" unicode="&#xb2;" horiz-adv-x="858" 
d="M119 553v123l390 357q59 54 85 99t26 94q0 71 -50 109t-128 38q-82 0 -135.5 -46t-67.5 -126l-137 25q26 127 116 198t223 71q139 0 227.5 -70t86.5 -201q-3 -139 -140 -267l-309 -281h449v-123h-636z" />
    <glyph glyph-name="threesuperior" unicode="&#xb3;" horiz-adv-x="897" 
d="M774 833q0 -138 -93 -220t-242 -82q-138 0 -233 70t-124 212l133 21q22 -90 75.5 -135.5t151.5 -45.5q87 0 142 50.5t55 124.5q0 81 -51.5 123t-148.5 42h-98v107l238 253h-445v122h604v-122l-244 -255q137 -11 208.5 -77.5t71.5 -187.5z" />
    <glyph glyph-name="acute" unicode="&#xb4;" horiz-adv-x="1036" 
d="M691 1981l-134 -337h-148l134 337h148z" />
    <glyph glyph-name="uni00B5" unicode="&#xb5;" horiz-adv-x="1257" 
d="M931 1106h183v-1106h-183v160q-98 -191 -344 -191q-154 0 -261 70l1 -531h-185v1598h185v-635q6 -165 84.5 -247t214.5 -82q142 0 223.5 89t81.5 268v607z" />
    <glyph glyph-name="paragraph" unicode="&#xb6;" horiz-adv-x="1354" 
d="M882 -289h-183v834h-93q-50 0 -108 8q-171 27 -268 151.5t-97 305.5t96.5 305.5t268.5 150.5q65 9 108 9h276v-1764zM1222 -289h-183v1764h183v-1764z" />
    <glyph glyph-name="periodcentered" unicode="&#xb7;" horiz-adv-x="491" 
d="M249 522q-53 0 -89.5 35.5t-36.5 87.5q0 53 36.5 88t89.5 35q50 0 85 -35t35 -88q0 -51 -35 -87t-85 -36z" />
    <glyph glyph-name="cedilla" unicode="&#xb8;" horiz-adv-x="824" 
d="M380 -493q-67 0 -134 34l44 118q45 -16 75 -16q34 0 55 21t21 50q0 48 -58 73q-45 19 -69 26q-2 0 -8 2l75 210l124 1l-48 -136q124 -59 124 -181q0 -86 -59 -144t-142 -58z" />
    <glyph glyph-name="onesuperior" unicode="&#xb9;" horiz-adv-x="735" 
d="M489 553h-130v773l-172 -104l-64 111l236 142h130v-922z" />
    <glyph glyph-name="ordmasculine" unicode="&#xba;" horiz-adv-x="710" 
d="M355 553q-123 0 -198 81.5t-75 211.5q0 129 75.5 210t197.5 81q123 0 198.5 -81t75.5 -210q0 -130 -75.5 -211.5t-198.5 -81.5zM355 662q73 0 112.5 49.5t39.5 134.5q0 86 -39.5 134.5t-112.5 48.5q-74 0 -112 -48.5t-38 -134.5q0 -87 38.5 -135.5t111.5 -48.5z" />
    <glyph glyph-name="guillemotright" unicode="&#xbb;" horiz-adv-x="1131" 
d="M238 105l-105 82l292 367l-292 366l105 81l356 -447zM611 105l-104 82l292 367l-292 366l104 81l357 -447z" />
    <glyph glyph-name="onequarter" unicode="&#xbc;" horiz-adv-x="2035" 
d="M1492 1393l-1053 -1393l-116 89l1053 1393zM426 553h-129v773l-173 -104l-64 111l237 142h129v-922zM1698 0h-129v172h-463v121l303 629h142l-303 -629h321v302h129v-302h90v-121h-90v-172z" />
    <glyph glyph-name="onehalf" unicode="&#xbd;" horiz-adv-x="1968" 
d="M1492 1393l-1053 -1393l-116 89l1053 1393zM426 553h-129v773l-173 -104l-64 111l237 142h129v-922zM1866 0h-636v123l390 357q59 54 85 99t26 94q0 71 -49.5 109t-128.5 38q-82 0 -135.5 -46t-67.5 -126l-137 25q26 127 116 198t223 71q139 0 227.5 -70t86.5 -201
q-3 -139 -140 -267l-309 -281h449v-123z" />
    <glyph glyph-name="threequarters" unicode="&#xbe;" horiz-adv-x="2038" 
d="M1626 1393l-1053 -1393l-116 89l1053 1393zM764 833q0 -138 -93 -220t-242 -82q-138 0 -233 70t-124 212l133 21q22 -90 75.5 -135.5t151.5 -45.5q87 0 142 50.5t55 124.5q0 81 -51.5 123t-148.5 42h-98v107l237 253h-444v122h604v-122l-245 -255q137 -11 209 -77.5
t72 -187.5zM1827 0h-130v172h-462v121l303 629h142l-304 -629h321v302h130v-302h90v-121h-90v-172z" />
    <glyph glyph-name="questiondown" unicode="&#xbf;" horiz-adv-x="1294" 
d="M540 1106h172v-188h-172v188zM102 78q0 194 114 308t324 134v221h172v-391h-83q-164 0 -250 -70.5t-86 -207.5q0 -128 92.5 -213t240.5 -85q163 0 252.5 73t127.5 223l186 -30q-46 -220 -194 -329.5t-369 -109.5q-234 0 -380.5 130t-146.5 347z" />
    <glyph glyph-name="Agrave" unicode="&#xc0;" horiz-adv-x="1324" 
d="M719 1644h-149l-134 337h149zM38 0l508 1475h233l508 -1475h-193l-118 345h-627l-118 -345h-193zM663 1264l-255 -748h510z" />
    <glyph glyph-name="Aacute" unicode="&#xc1;" horiz-adv-x="1324" 
d="M754 1644h-149l134 337h149zM779 1475l507 -1475h-192l-119 345h-627l-118 -345h-192l507 1475h234zM407 516h509l-254 748z" />
    <glyph glyph-name="Acircumflex" unicode="&#xc2;" horiz-adv-x="1324" 
d="M330 1644l250 291h161l250 -291h-179l-152 179l-151 -179h-179zM779 1475l507 -1475h-192l-119 345h-627l-118 -345h-192l507 1475h234zM407 516h509l-254 748z" />
    <glyph glyph-name="Atilde" unicode="&#xc3;" horiz-adv-x="1323" 
d="M821 1698q-41 0 -81 16.5t-102 55.5q-85 53 -124 53q-18 0 -30.5 -8.5t-17 -22t-5.5 -21t-1 -14.5q0 -19 6 -39h-123q-9 39 -9 72q0 29 10 69q9 39 51 72q41 32 107 32q40 0 79 -16.5t106 -55.5q83 -53 123 -53q33 0 44 24q10 21 10 43q0 19 -6 40h123q10 -37 10 -73
q0 -26 -9 -67q-10 -40 -52 -73q-41 -34 -109 -34zM779 1475l507 -1475h-192l-119 345h-627l-118 -345h-192l507 1475h234zM407 516h509l-254 748z" />
    <glyph glyph-name="Adieresis" unicode="&#xc4;" horiz-adv-x="1324" 
d="M771 1675v185h184v-185h-184zM370 1675v185h184v-185h-184zM779 1475l507 -1475h-192l-119 345h-627l-118 -345h-192l507 1475h234zM407 516h509l-254 748z" />
    <glyph glyph-name="Aring" unicode="&#xc5;" horiz-adv-x="1323" 
d="M663 1592q-95 0 -166.5 71t-71.5 167t71.5 166.5t166.5 70.5q96 0 166.5 -70.5t70.5 -166.5t-70.5 -167t-166.5 -71zM663 1717q46 0 79 33.5t33 79.5q0 47 -33 80t-79 33t-79.5 -33.5t-33.5 -79.5t33.5 -79.5t79.5 -33.5zM779 1475l507 -1475h-192l-119 345h-627
l-118 -345h-192l507 1475h234zM407 516h509l-254 748z" />
    <glyph glyph-name="AE" unicode="&#xc6;" horiz-adv-x="1895" 
d="M860 0v345h-512l-118 -345h-192l507 1475h1248v-173h-750v-462h627v-173h-627v-494h750v-173h-933zM407 516h453v786h-186z" />
    <glyph glyph-name="Ccedilla" unicode="&#xc7;" horiz-adv-x="1480" 
d="M708 -493q-68 0 -135 34l44 118q45 -16 75 -16q34 0 55.5 21t21.5 50q0 48 -58 73q-45 19 -69 26q-2 0 -8 2l55 156q-298 21 -463 228.5t-165 537.5q0 228 79.5 400.5t236.5 270t373 97.5q251 0 418 -127.5t231 -352.5l-186 -49q-46 169 -163 262t-300 93
q-238 0 -367 -161.5t-129 -432.5q0 -273 127.5 -433.5t368.5 -160.5q182 0 299.5 93.5t163.5 262.5l186 -49q-60 -210 -210.5 -336t-375.5 -143l-29 -81q124 -59 124 -181q0 -86 -58.5 -144t-141.5 -58z" />
    <glyph glyph-name="Egrave" unicode="&#xc8;" horiz-adv-x="1178" 
d="M713 1644h-149l-134 337h149zM1076 0h-933v1475h933v-173h-749v-462h626v-173h-626v-494h749v-173z" />
    <glyph glyph-name="Eacute" unicode="&#xc9;" horiz-adv-x="1178" 
d="M845 1981l-134 -337h-149l134 337h149zM1076 0h-933v1475h933v-173h-749v-462h626v-173h-626v-494h749v-173z" />
    <glyph glyph-name="Ecircumflex" unicode="&#xca;" horiz-adv-x="1178" 
d="M446 1644h-179l250 291h162l250 -291h-179l-152 179zM1076 0h-933v1475h933v-173h-749v-462h626v-173h-626v-494h749v-173z" />
    <glyph glyph-name="Edieresis" unicode="&#xcb;" horiz-adv-x="1178" 
d="M887 1675h-185v185h185v-185zM485 1675h-184v185h184v-185zM1076 0h-933v1475h933v-173h-749v-462h626v-173h-626v-494h749v-173z" />
    <glyph glyph-name="Igrave" unicode="&#xcc;" horiz-adv-x="510" 
d="M327 1644h-149l-134 337h149zM347 0h-183v1475h183v-1475z" />
    <glyph glyph-name="Iacute" unicode="&#xcd;" horiz-adv-x="510" 
d="M467 1981l-134 -337h-149l134 337h149zM347 0h-183v1475h183v-1475z" />
    <glyph glyph-name="Icircumflex" unicode="&#xce;" horiz-adv-x="509" 
d="M101 1644h-179l250 291h162l250 -291h-180l-151 179zM347 0h-183v1475h183v-1475z" />
    <glyph glyph-name="Idieresis" unicode="&#xcf;" horiz-adv-x="509" 
d="M548 1675h-184v185h184v-185zM146 1675h-184v185h184v-185zM347 0h-183v1475h183v-1475z" />
    <glyph glyph-name="Eth" unicode="&#xd0;" horiz-adv-x="1398" 
d="M20 663v150h122v662h441q351 0 535.5 -189.5t184.5 -548.5t-184.5 -548t-535.5 -189h-441v663h-122zM329 1300v-487h352v-150h-352v-489h233q277 0 412 139t135 424q0 286 -135 424.5t-412 138.5h-233z" />
    <glyph glyph-name="Ntilde" unicode="&#xd1;" horiz-adv-x="1424" 
d="M897 1647q-41 0 -81 16.5t-102 55.5q-85 53 -124 53q-18 0 -30.5 -8.5t-17 -22t-5.5 -21t-1 -14.5q0 -20 6 -39h-123q-9 39 -9 72q0 28 10 68q9 40 51 73q41 32 107 32q40 0 79 -16.5t106 -55.5q83 -53 123 -53q33 0 44 23q10 21 10 43q0 19 -6 40h123q10 -37 10 -72
q0 -27 -9 -67q-10 -41 -52 -74q-40 -33 -109 -33zM327 0h-184v1475h184l771 -1153v1153h183v-1475h-183l-771 1153v-1153z" />
    <glyph glyph-name="Ograve" unicode="&#xd2;" horiz-adv-x="1499" 
d="M666 1644l-135 337h149l134 -337h-148zM750 -31q-216 0 -373 97.5t-236.5 270t-79.5 400.5t79.5 400.5t236.5 270t373 97.5t373 -97.5t236 -269.5t79 -401t-79 -401t-236 -269.5t-373 -97.5zM750 143q241 0 367.5 160.5t126.5 433.5t-126.5 433.5t-367.5 160.5
t-367 -160.5t-128 -433.5q-2 -272 126 -433t369 -161z" />
    <glyph glyph-name="Oacute" unicode="&#xd3;" horiz-adv-x="1499" 
d="M840 1644h-149l134 337h149zM750 -31q-216 0 -373 97.5t-236.5 270t-79.5 400.5t79.5 400.5t236.5 270t373 97.5t373 -97.5t236 -269.5t79 -401t-79 -401t-236 -269.5t-373 -97.5zM750 143q241 0 367.5 160.5t126.5 433.5t-126.5 433.5t-367.5 160.5t-367 -160.5
t-128 -433.5q-2 -272 126 -433t369 -161z" />
    <glyph glyph-name="Ocircumflex" unicode="&#xd4;" horiz-adv-x="1499" 
d="M417 1644l250 291h161l250 -291h-179l-151 179l-152 -179h-179zM750 -31q-216 0 -373 97.5t-236.5 270t-79.5 400.5t79.5 400.5t236.5 270t373 97.5t373 -97.5t236 -269.5t79 -401t-79 -401t-236 -269.5t-373 -97.5zM750 143q241 0 367.5 160.5t126.5 433.5t-126.5 433.5
t-367.5 160.5t-367 -160.5t-128 -433.5q-2 -272 126 -433t369 -161z" />
    <glyph glyph-name="Otilde" unicode="&#xd5;" horiz-adv-x="1499" 
d="M924 1647q-41 0 -81.5 16.5t-102.5 55.5q-85 53 -124 53q-18 0 -30.5 -8.5t-17 -22t-5.5 -21t-1 -14.5q0 -20 6 -39h-123q-9 39 -9 72q0 28 10 68q9 39 52 73q41 32 106 32q40 0 80 -16.5t106 -55.5q83 -53 122 -53q33 0 44 23q11 24 11 43t-6 40h122q11 -41 11 -72
q0 -22 -10 -67q-10 -41 -52 -74q-40 -33 -108 -33zM750 -31q-216 0 -373 97.5t-236.5 270t-79.5 400.5t79.5 400.5t236.5 270t373 97.5t373 -97.5t236 -269.5t79 -401t-79 -401t-236 -269.5t-373 -97.5zM750 143q241 0 367.5 160.5t126.5 433.5t-126.5 433.5t-367.5 160.5
t-367 -160.5t-128 -433.5q-2 -272 126 -433t369 -161z" />
    <glyph glyph-name="Odieresis" unicode="&#xd6;" horiz-adv-x="1499" 
d="M858 1675v185h184v-185h-184zM457 1675v185h184v-185h-184zM750 -31q-216 0 -373 97.5t-236.5 270t-79.5 400.5t79.5 400.5t236.5 270t373 97.5t373 -97.5t236 -269.5t79 -401t-79 -401t-236 -269.5t-373 -97.5zM750 143q241 0 367.5 160.5t126.5 433.5t-126.5 433.5
t-367.5 160.5t-367 -160.5t-128 -433.5q-2 -272 126 -433t369 -161z" />
    <glyph glyph-name="multiply" unicode="&#xd7;" horiz-adv-x="1011" 
d="M890 461l-107 -107l-276 278l-278 -278l-106 107l277 276l-276 277l106 106l277 -276l275 276l107 -106l-277 -277z" />
    <glyph glyph-name="Oslash" unicode="&#xd8;" horiz-adv-x="1499" 
d="M183 -27l-130 117l141 154q-133 199 -133 493q0 228 79.5 400.5t236.5 270t373 97.5q274 0 452 -155l134 148l130 -117l-150 -166q122 -195 122 -478q0 -229 -79 -401t-236 -269.5t-373 -97.5q-262 0 -439 145zM327 387l752 824q-125 120 -329 120q-241 0 -367 -160.5
t-128 -433.5q-2 -205 72 -350zM750 143q241 0 367.5 160.5t126.5 433.5q0 197 -64 334l-748 -820q125 -108 318 -108z" />
    <glyph glyph-name="Ugrave" unicode="&#xd9;" horiz-adv-x="1449" 
d="M672 1644l-134 337h148l134 -337h-148zM725 -31q-267 0 -424.5 160.5t-157.5 449.5v896h184v-891q0 -215 102 -329t296 -114q195 0 296.5 113.5t101.5 329.5v891h184v-896q0 -289 -157 -449.5t-425 -160.5z" />
    <glyph glyph-name="Uacute" unicode="&#xda;" horiz-adv-x="1449" 
d="M786 1644h-148l134 337h149zM725 -31q-267 0 -424.5 160.5t-157.5 449.5v896h184v-891q0 -215 102 -329t296 -114q195 0 296.5 113.5t101.5 329.5v891h184v-896q0 -289 -157 -449.5t-425 -160.5z" />
    <glyph glyph-name="Ucircumflex" unicode="&#xdb;" horiz-adv-x="1449" 
d="M392 1644l250 291h162l250 -291h-180l-151 179l-152 -179h-179zM725 -31q-267 0 -424.5 160.5t-157.5 449.5v896h184v-891q0 -215 102 -329t296 -114q195 0 296.5 113.5t101.5 329.5v891h184v-896q0 -289 -157 -449.5t-425 -160.5z" />
    <glyph glyph-name="Udieresis" unicode="&#xdc;" horiz-adv-x="1449" 
d="M834 1675v185h184v-185h-184zM432 1675v185h184v-185h-184zM725 -31q-267 0 -424.5 160.5t-157.5 449.5v896h184v-891q0 -215 102 -329t296 -114q195 0 296.5 113.5t101.5 329.5v891h184v-896q0 -289 -157 -449.5t-425 -160.5z" />
    <glyph glyph-name="Yacute" unicode="&#xdd;" horiz-adv-x="1176" 
d="M782 1981l-134 -337h-148l134 337h148zM681 0h-183v613l-498 862h212l377 -653l376 653h212l-496 -862v-613z" />
    <glyph glyph-name="Thorn" unicode="&#xde;" horiz-adv-x="1261" 
d="M327 0h-184v1475h184v-273h374q239 0 369 -123.5t130 -341.5q0 -217 -130.5 -341t-368.5 -124h-374v-272zM327 1029v-584h373q149 0 231.5 77t82.5 215t-82.5 215t-231.5 77h-373z" />
    <glyph glyph-name="germandbls" unicode="&#xdf;" horiz-adv-x="1250" 
d="M662 -30q-118 0 -189 30v179q78 -28 168 -28q138 0 219.5 73t81.5 203q0 129 -100 201t-270 74v164q112 12 177.5 72.5t65.5 163.5q0 106 -67.5 168t-175.5 62q-78 0 -135.5 -33.5t-83.5 -98.5q-23 -58 -23 -162v-1038h-188v1087q0 94 24 164q44 125 149 189.5t256 64.5
q124 0 222 -49t153 -140q55 -89 55 -212q0 -101 -41 -178t-118 -116q72 -17 137 -69t106 -131q42 -81 42 -185q0 -213 -121.5 -334t-343.5 -121z" />
    <glyph glyph-name="agrave" unicode="&#xe0;" horiz-adv-x="1152" 
d="M517 1275l-134 338h148l135 -338h-149zM580 1137q226 0 337.5 -116t111.5 -352v-669h-182v174q-118 -205 -386 -205q-174 0 -276.5 87.5t-102.5 237.5q0 163 114 247.5t332 112.5l319 39q-1 145 -66.5 212t-202.5 67q-231 0 -285 -190l-170 43q40 151 158 231.5t299 80.5
zM847 551l-298 -37q-152 -20 -219.5 -68.5t-67.5 -139.5q0 -179 237 -179q128 0 215.5 67.5t114.5 182.5q18 58 18 171v3z" />
    <glyph glyph-name="aacute" unicode="&#xe1;" horiz-adv-x="1152" 
d="M665 1275h-149l134 338h149zM580 1137q226 0 337.5 -116t111.5 -352v-669h-182v174q-118 -205 -386 -205q-174 0 -276.5 87.5t-102.5 237.5q0 163 114 247.5t332 112.5l319 39q-1 145 -66.5 212t-202.5 67q-231 0 -285 -190l-170 43q40 151 158 231.5t299 80.5zM847 551
l-298 -37q-152 -20 -219.5 -68.5t-67.5 -139.5q0 -179 237 -179q128 0 215.5 67.5t114.5 182.5q18 58 18 171v3z" />
    <glyph glyph-name="acircumflex" unicode="&#xe2;" horiz-adv-x="1152" 
d="M260 1275l250 292h162l250 -292h-180l-151 179l-152 -179h-179zM580 1137q226 0 337.5 -116t111.5 -352v-669h-182v174q-118 -205 -386 -205q-174 0 -276.5 87.5t-102.5 237.5q0 163 114 247.5t332 112.5l319 39q-1 145 -66.5 212t-202.5 67q-231 0 -285 -190l-170 43
q40 151 158 231.5t299 80.5zM847 551l-298 -37q-152 -20 -219.5 -68.5t-67.5 -139.5q0 -179 237 -179q128 0 215.5 67.5t114.5 182.5q18 58 18 171v3z" />
    <glyph glyph-name="atilde" unicode="&#xe3;" horiz-adv-x="1152" 
d="M764 1278q-40 0 -80 17t-103 56q-84 52 -124 52q-24 0 -37.5 -16t-15.5 -28t-2 -22q0 -16 7 -39h-123q-10 43 -10 72q0 25 11 69q9 39 51 72q41 32 106 32q40 0 80 -16.5t106 -55.5q83 -53 123 -53q33 0 44 24q10 21 10 43q0 19 -6 40h123q10 -37 10 -73q0 -26 -9 -67
q-10 -39 -53 -73q-41 -34 -108 -34zM580 1137q226 0 337.5 -116t111.5 -352v-669h-182v174q-118 -205 -386 -205q-174 0 -276.5 87.5t-102.5 237.5q0 163 114 247.5t332 112.5l319 39q-1 145 -66.5 212t-202.5 67q-231 0 -285 -190l-170 43q40 151 158 231.5t299 80.5z
M847 551l-298 -37q-152 -20 -219.5 -68.5t-67.5 -139.5q0 -179 237 -179q128 0 215.5 67.5t114.5 182.5q18 58 18 171v3z" />
    <glyph glyph-name="adieresis" unicode="&#xe4;" horiz-adv-x="1152" 
d="M707 1307v184h184v-184h-184zM305 1307v184h184v-184h-184zM580 1137q226 0 337.5 -116t111.5 -352v-669h-182v174q-118 -205 -386 -205q-174 0 -276.5 87.5t-102.5 237.5q0 163 114 247.5t332 112.5l319 39q-1 145 -66.5 212t-202.5 67q-231 0 -285 -190l-170 43
q40 151 158 231.5t299 80.5zM847 551l-298 -37q-152 -20 -219.5 -68.5t-67.5 -139.5q0 -179 237 -179q128 0 215.5 67.5t114.5 182.5q18 58 18 171v3z" />
    <glyph glyph-name="aring" unicode="&#xe5;" horiz-adv-x="1152" 
d="M591 1224q-97 0 -167.5 70t-70.5 167t70.5 167.5t167.5 70.5t167 -70.5t70 -167.5t-70 -167t-167 -70zM591 1349q46 0 79 33t33 79q0 47 -33 80t-79 33t-79.5 -33.5t-33.5 -79.5t33.5 -79t79.5 -33zM580 1137q226 0 337.5 -116t111.5 -352v-669h-182v174
q-118 -205 -386 -205q-174 0 -276.5 87.5t-102.5 237.5q0 163 114 247.5t332 112.5l319 39q-1 145 -66.5 212t-202.5 67q-231 0 -285 -190l-170 43q40 151 158 231.5t299 80.5zM847 551l-298 -37q-152 -20 -219.5 -68.5t-67.5 -139.5q0 -179 237 -179q128 0 215.5 67.5
t114.5 182.5q18 58 18 171v3z" />
    <glyph glyph-name="ae" unicode="&#xe6;" horiz-adv-x="1982" 
d="M580 1137q290 0 393 -193q70 93 176.5 143t238.5 50q253 0 387.5 -169.5t122.5 -465.5h-847q12 -171 102 -266.5t239 -95.5q218 0 312 195l176 -59q-65 -148 -192 -227.5t-296 -79.5q-157 0 -277.5 70.5t-187.5 197.5q-122 -268 -460 -268q-175 0 -280 88t-105 237
q0 163 114 247.5t332 112.5l319 39q-1 145 -66.5 212t-202.5 67q-231 0 -285 -190l-170 43q40 151 158 231.5t299 80.5zM1055 648h654q-12 155 -95.5 239t-225.5 84q-140 0 -226.5 -84.5t-106.5 -238.5zM847 548v3l-298 -37q-152 -20 -219.5 -68.5t-67.5 -139.5
q0 -179 237 -179q128 0 215.5 67.5t114.5 182.5q18 58 18 171z" />
    <glyph glyph-name="ccedilla" unicode="&#xe7;" horiz-adv-x="1148" 
d="M564 -493q-67 0 -134 34l44 118q45 -16 75 -16q34 0 55.5 21t21.5 50q0 48 -59 73q-48 20 -68 26q-3 0 -9 2l57 157q-217 22 -341 178.5t-124 402.5q0 265 142.5 424.5t386.5 159.5q175 0 301.5 -86.5t169.5 -235.5l-180 -54q-35 96 -113 149.5t-180 53.5
q-161 0 -247.5 -110t-86.5 -301q0 -192 87.5 -301.5t246.5 -109.5q212 0 289 194l184 -48q-53 -141 -158.5 -222t-253.5 -94l-29 -82q124 -59 124 -181q0 -86 -59 -144t-142 -58z" />
    <glyph glyph-name="egrave" unicode="&#xe8;" horiz-adv-x="1209" 
d="M551 1275l-134 338h148l134 -338h-148zM618 140q219 0 313 195l176 -59q-65 -147 -192.5 -227t-296.5 -80q-243 0 -389.5 160t-146.5 424q0 266 145.5 425t386.5 159q253 0 388 -169.5t123 -465.5h-847q12 -171 101.5 -266.5t238.5 -95.5zM282 648h654q-12 155 -96 239
t-226 84q-140 0 -226 -84.5t-106 -238.5z" />
    <glyph glyph-name="eacute" unicode="&#xe9;" horiz-adv-x="1209" 
d="M711 1275h-149l134 338h149zM618 140q219 0 313 195l176 -59q-65 -147 -192.5 -227t-296.5 -80q-243 0 -389.5 160t-146.5 424q0 266 145.5 425t386.5 159q253 0 388 -169.5t123 -465.5h-847q12 -171 101.5 -266.5t238.5 -95.5zM282 648h654q-12 155 -96 239t-226 84
q-140 0 -226 -84.5t-106 -238.5z" />
    <glyph glyph-name="ecircumflex" unicode="&#xea;" horiz-adv-x="1209" 
d="M282 1275l249 292h162l250 -292h-179l-152 179l-151 -179h-179zM618 140q219 0 313 195l176 -59q-65 -147 -192.5 -227t-296.5 -80q-243 0 -389.5 160t-146.5 424q0 266 145.5 425t386.5 159q253 0 388 -169.5t123 -465.5h-847q12 -171 101.5 -266.5t238.5 -95.5z
M282 648h654q-12 155 -96 239t-226 84q-140 0 -226 -84.5t-106 -238.5z" />
    <glyph glyph-name="edieresis" unicode="&#xeb;" horiz-adv-x="1209" 
d="M723 1307v184h184v-184h-184zM322 1307v184h184v-184h-184zM618 140q219 0 313 195l176 -59q-65 -147 -192.5 -227t-296.5 -80q-243 0 -389.5 160t-146.5 424q0 266 145.5 425t386.5 159q253 0 388 -169.5t123 -465.5h-847q12 -171 101.5 -266.5t238.5 -95.5zM282 648
h654q-12 155 -96 239t-226 84q-140 0 -226 -84.5t-106 -238.5z" />
    <glyph glyph-name="igrave" unicode="&#xec;" horiz-adv-x="509" 
d="M327 1275h-149l-134 338h149zM346 0h-182v1106h182v-1106z" />
    <glyph glyph-name="iacute" unicode="&#xed;" horiz-adv-x="509" 
d="M467 1613l-134 -338h-149l134 338h149zM346 0h-182v1106h182v-1106z" />
    <glyph glyph-name="icircumflex" unicode="&#xee;" horiz-adv-x="509" 
d="M112 1275h-180l250 292h162l250 -292h-179l-152 179zM346 0h-182v1106h182v-1106z" />
    <glyph glyph-name="idieresis" unicode="&#xef;" horiz-adv-x="509" 
d="M548 1307h-184v184h184v-184zM146 1307h-184v184h184v-184zM346 0h-182v1106h182v-1106z" />
    <glyph glyph-name="eth" unicode="&#xf0;" horiz-adv-x="1202" 
d="M602 -31h-4q-153 0 -270 67.5t-181 192.5q-63 123 -65 286q1 163 65.5 287.5t181.5 192.5q117 67 268 67h5h6q193 0 332 -132q-15 123 -84 224q-46 68 -107 114l-111 -133l-110 94l94 111q-81 33 -181 41l27 148q144 -6 260 -60l112 134l109 -95l-97 -116
q65 -55 119 -139q110 -158 136 -409q13 -126 13 -324q0 -166 -62.5 -291t-178.5 -192q-118 -68 -272 -68h-5zM602 135q159 0 246 101.5t87 280.5q0 178 -87.5 278.5t-240.5 100.5h-5h-5q-156 0 -243 -100t-87 -280q0 -181 87.5 -281t247.5 -100z" />
    <glyph glyph-name="ntilde" unicode="&#xf1;" horiz-adv-x="1234" 
d="M778 1278q-40 0 -80 17t-103 56q-84 52 -124 52q-18 0 -30.5 -8.5t-17 -22t-5.5 -21t-1 -14.5q0 -19 6 -39h-123q-9 39 -9 72q0 29 10 69q9 39 51 72q41 32 107 32q40 0 79 -16.5t106 -55.5q83 -53 123 -53q33 0 44 24q10 21 10 43q0 19 -6 40h123q10 -37 10 -73
q0 -26 -9 -67q-10 -40 -52 -73q-41 -34 -109 -34zM930 0v608q0 179 -79 267.5t-221 88.5t-223.5 -88.5t-81.5 -267.5v-608h-183v1106h183v-160q98 191 344 191q207 0 325 -124.5t118 -373.5v-639h-182z" />
    <glyph glyph-name="ograve" unicode="&#xf2;" horiz-adv-x="1229" 
d="M530 1275l-134 338h149l134 -338h-149zM614 -31q-244 0 -388 162t-144 423q0 262 144.5 422.5t387.5 160.5q245 0 389.5 -161t144.5 -422q0 -263 -144.5 -424t-389.5 -161zM614 142q164 0 252 110.5t88 301.5q0 193 -87.5 301.5t-252.5 108.5t-252 -109t-87 -301t88 -302
t251 -110z" />
    <glyph glyph-name="oacute" unicode="&#xf3;" horiz-adv-x="1229" 
d="M689 1275h-148l134 338h148zM614 -31q-244 0 -388 162t-144 423q0 262 144.5 422.5t387.5 160.5q245 0 389.5 -161t144.5 -422q0 -263 -144.5 -424t-389.5 -161zM614 142q164 0 252 110.5t88 301.5q0 193 -87.5 301.5t-252.5 108.5t-252 -109t-87 -301t88 -302t251 -110z
" />
    <glyph glyph-name="ocircumflex" unicode="&#xf4;" horiz-adv-x="1229" 
d="M283 1275l249 292h162l250 -292h-179l-152 179l-151 -179h-179zM614 -31q-244 0 -388 162t-144 423q0 262 144.5 422.5t387.5 160.5q245 0 389.5 -161t144.5 -422q0 -263 -144.5 -424t-389.5 -161zM614 142q164 0 252 110.5t88 301.5q0 193 -87.5 301.5t-252.5 108.5
t-252 -109t-87 -301t88 -302t251 -110z" />
    <glyph glyph-name="otilde" unicode="&#xf5;" horiz-adv-x="1229" 
d="M775 1278q-40 0 -80 17t-103 56q-84 52 -124 52q-18 0 -30.5 -8.5t-17 -22t-5.5 -21t-1 -14.5q0 -19 6 -39h-123q-9 39 -9 72q0 29 10 69q9 39 51 72q41 32 107 32q40 0 79 -16.5t106 -55.5q83 -53 123 -53q33 0 44 24q10 21 10 43q0 19 -6 40h123q10 -37 10 -73
q0 -26 -9 -67q-10 -40 -52 -73q-41 -34 -109 -34zM614 -31q-244 0 -388 162t-144 423q0 262 144.5 422.5t387.5 160.5q245 0 389.5 -161t144.5 -422q0 -263 -144.5 -424t-389.5 -161zM614 142q164 0 252 110.5t88 301.5q0 193 -87.5 301.5t-252.5 108.5t-252 -109t-87 -301
t88 -302t251 -110z" />
    <glyph glyph-name="odieresis" unicode="&#xf6;" horiz-adv-x="1229" 
d="M724 1307v184h184v-184h-184zM323 1307v184h184v-184h-184zM614 -31q-244 0 -388 162t-144 423q0 262 144.5 422.5t387.5 160.5q245 0 389.5 -161t144.5 -422q0 -263 -144.5 -424t-389.5 -161zM614 142q164 0 252 110.5t88 301.5q0 193 -87.5 301.5t-252.5 108.5
t-252 -109t-87 -301t88 -302t251 -110z" />
    <glyph glyph-name="divide" unicode="&#xf7;" horiz-adv-x="1105" 
d="M669 937h-201v201h201v-201zM983 663h-860v150h860v-150zM669 351h-201v201h201v-201z" />
    <glyph glyph-name="oslash" unicode="&#xf8;" horiz-adv-x="1229" 
d="M168 -15q-14 4 -37.5 27.5t-51 56t-34.5 39.5l116 115q-79 141 -79 331q0 262 144.5 422.5t387.5 160.5q205 0 345 -118l103 102l123 -123l-116 -114q79 -141 79 -330q0 -263 -144.5 -424t-389.5 -161q-204 0 -340 116q-69 -77 -106 -100zM308 349l535 533
q-87 82 -229 82q-165 0 -252 -109t-87 -301q0 -118 33 -205zM614 142q164 0 252 110.5t88 301.5q0 121 -32 204l-534 -534q87 -82 226 -82z" />
    <glyph glyph-name="ugrave" unicode="&#xf9;" horiz-adv-x="1235" 
d="M695 1275h-148l-134 338h148zM305 1106v-607q0 -179 79 -268t221 -89t223.5 89t81.5 268v607h183v-1106h-183v160q-98 -191 -344 -191q-206 0 -324.5 124.5t-118.5 373.5v639h182z" />
    <glyph glyph-name="uacute" unicode="&#xfa;" horiz-adv-x="1235" 
d="M809 1613l-134 -338h-149l134 338h149zM305 1106v-607q0 -179 79 -268t221 -89q134 0 214.5 79.5t89.5 239.5v645h184v-1106h-184v158q-98 -189 -343 -189q-206 0 -324.5 124.5t-118.5 373.5v639h182z" />
    <glyph glyph-name="ucircumflex" unicode="&#xfb;" horiz-adv-x="1235" 
d="M454 1275h-180l250 292h162l250 -292h-179l-152 179zM305 1106v-607q0 -179 79 -268t221 -89t223.5 89t81.5 268v607h183v-1106h-183v160q-98 -191 -344 -191q-206 0 -324.5 124.5t-118.5 373.5v639h182z" />
    <glyph glyph-name="udieresis" unicode="&#xfc;" horiz-adv-x="1235" 
d="M900 1307h-184v184h184v-184zM499 1307h-185v184h185v-184zM305 1106v-607q0 -179 79 -268t221 -89t223.5 89t81.5 268v607h183v-1106h-183v160q-98 -191 -344 -191q-206 0 -324.5 124.5t-118.5 373.5v639h182z" />
    <glyph glyph-name="yacute" unicode="&#xfd;" horiz-adv-x="1101" 
d="M764 1613l-134 -338h-149l134 338h149zM474 -492h-177l182 496l-448 1102h191l345 -870l324 870h185z" />
    <glyph glyph-name="thorn" unicode="&#xfe;" horiz-adv-x="1278" 
d="M325 -492h-183v1968h183v-543q113 204 369 204q151 0 265.5 -74.5t176 -206.5t61.5 -302q0 -261 -138 -423t-365 -162q-255 0 -369 204v-665zM664 142q166 0 253 111.5t87 300.5q0 191 -87 300.5t-253 109.5q-168 0 -253.5 -110.5t-85.5 -299.5q0 -191 87.5 -301.5
t251.5 -110.5z" />
    <glyph glyph-name="ydieresis" unicode="&#xff;" horiz-adv-x="1101" 
d="M855 1307h-184v184h184v-184zM454 1307h-185v184h185v-184zM474 -492h-177l182 496l-448 1102h191l345 -870l324 870h185z" />
    <glyph glyph-name="Amacron" unicode="&#x100;" horiz-adv-x="1324" 
d="M400 1720v150h525v-150h-525zM779 1475l507 -1475h-192l-119 345h-627l-118 -345h-192l507 1475h234zM407 516h509l-254 748z" />
    <glyph glyph-name="amacron" unicode="&#x101;" horiz-adv-x="1152" 
d="M357 1352v149h525v-149h-525zM580 1137q226 0 337.5 -116t111.5 -352v-669h-182v174q-118 -205 -386 -205q-174 0 -276.5 87.5t-102.5 237.5q0 163 114 247.5t332 112.5l319 39q-1 145 -66.5 212t-202.5 67q-231 0 -285 -190l-170 43q40 151 158 231.5t299 80.5zM847 551
l-298 -37q-152 -20 -219.5 -68.5t-67.5 -139.5q0 -179 237 -179q128 0 215.5 67.5t114.5 182.5q18 58 18 171v3z" />
    <glyph glyph-name="Abreve" unicode="&#x102;" horiz-adv-x="1324" 
d="M663 1604q-76 0 -140.5 37t-101.5 102q-38 63 -38 140h147q0 -54 39.5 -93t93.5 -39q56 0 94 38.5t38 93.5h147q0 -76 -37 -140.5t-101 -101.5q-61 -37 -141 -37zM779 1475l507 -1475h-192l-119 345h-627l-118 -345h-192l507 1475h234zM407 516h509l-254 748z" />
    <glyph glyph-name="abreve" unicode="&#x103;" horiz-adv-x="1152" 
d="M590 1235q-76 0 -140.5 37t-101.5 102q-38 63 -38 140h148q0 -54 39 -93t93 -39q56 0 94 38.5t38 93.5h147q0 -75 -37 -139.5t-101 -101.5q-63 -38 -141 -38zM580 1137q226 0 337.5 -116t111.5 -352v-669h-182v174q-118 -205 -386 -205q-174 0 -276.5 87.5t-102.5 237.5
q0 163 114 247.5t332 112.5l319 39q-1 145 -66.5 212t-202.5 67q-231 0 -285 -190l-170 43q40 151 158 231.5t299 80.5zM847 551l-298 -37q-152 -20 -219.5 -68.5t-67.5 -139.5q0 -179 237 -179q128 0 215.5 67.5t114.5 182.5q18 58 18 171v3z" />
    <glyph glyph-name="Aogonek" unicode="&#x104;" horiz-adv-x="1324" 
d="M1104 -493q-84 0 -144 62t-60 146q0 66 37.5 137.5t105.5 136.5q22 22 41 37l-109 319h-627l-118 -345h-192l507 1475h234l507 -1475h-4q-95 -56 -162.5 -135t-67.5 -138q0 -33 20.5 -55t50.5 -22q45 0 88 45l74 -92q-72 -96 -181 -96zM407 516h509l-254 748z" />
    <glyph glyph-name="aogonek" unicode="&#x105;" horiz-adv-x="1152" 
d="M851 -493q-84 0 -144 62t-60 146q0 135 144 274q23 23 56 49v136q-118 -205 -386 -205q-174 0 -276.5 87.5t-102.5 237.5q0 163 114 247.5t332 112.5l319 39q-1 145 -66.5 212t-202.5 67q-231 0 -285 -190l-170 43q40 151 158 231.5t299 80.5q226 0 337.5 -116
t111.5 -352v-669q-95 -56 -162.5 -135t-67.5 -138q0 -33 20.5 -55t50.5 -22q45 0 88 45l74 -92q-72 -96 -181 -96zM847 551l-298 -37q-152 -20 -219.5 -68.5t-67.5 -139.5q0 -179 237 -179q128 0 215.5 67.5t114.5 182.5q18 58 18 171v3z" />
    <glyph glyph-name="Cacute" unicode="&#x106;" horiz-adv-x="1480" 
d="M841 1644h-149l134 337h149zM750 -31q-216 0 -373 97.5t-236.5 270t-79.5 400.5t79.5 400.5t236.5 270t373 97.5q251 0 418 -127.5t231 -352.5l-186 -49q-46 169 -163 262t-300 93q-238 0 -367 -161.5t-129 -432.5q0 -273 127.5 -433.5t368.5 -160.5q182 0 299.5 93.5
t163.5 262.5l186 -49q-65 -225 -232 -353t-417 -128z" />
    <glyph glyph-name="cacute" unicode="&#x107;" horiz-adv-x="1148" 
d="M695 1275h-148l134 338h148zM609 -31q-244 0 -385.5 160.5t-141.5 423.5q0 265 142.5 424.5t386.5 159.5q175 0 301.5 -86.5t169.5 -235.5l-180 -54q-35 96 -113 149.5t-180 53.5q-161 0 -247.5 -110t-86.5 -301q0 -192 87.5 -301.5t246.5 -109.5q212 0 289 194l184 -48
q-58 -155 -180 -237t-293 -82z" />
    <glyph glyph-name="Ccircumflex" unicode="&#x108;" horiz-adv-x="1480" 
d="M418 1644l250 291h161l250 -291h-179l-151 179l-152 -179h-179zM750 -31q-216 0 -373 97.5t-236.5 270t-79.5 400.5t79.5 400.5t236.5 270t373 97.5q251 0 418 -127.5t231 -352.5l-186 -49q-46 169 -163 262t-300 93q-238 0 -367 -161.5t-129 -432.5q0 -273 127.5 -433.5
t368.5 -160.5q182 0 299.5 93.5t163.5 262.5l186 -49q-65 -225 -232 -353t-417 -128z" />
    <glyph glyph-name="ccircumflex" unicode="&#x109;" horiz-adv-x="1148" 
d="M283 1275l249 292h162l250 -292h-179l-152 179l-151 -179h-179zM609 -31q-244 0 -385.5 160.5t-141.5 423.5q0 265 142.5 424.5t386.5 159.5q175 0 301.5 -86.5t169.5 -235.5l-180 -54q-35 95 -113.5 149t-179.5 54q-161 0 -247.5 -110t-86.5 -301q0 -192 87.5 -301.5
t246.5 -109.5q212 0 289 194l184 -48q-58 -155 -180 -237t-293 -82z" />
    <glyph glyph-name="Cdotaccent" unicode="&#x10a;" horiz-adv-x="1480" 
d="M664 1704v201h200v-201h-200zM750 -31q-216 0 -373 97.5t-236.5 270t-79.5 400.5t79.5 400.5t236.5 270t373 97.5q251 0 418 -127.5t231 -352.5l-186 -49q-46 169 -163 262t-300 93q-238 0 -367 -161.5t-129 -432.5q0 -273 127.5 -433.5t368.5 -160.5q182 0 299.5 93.5
t163.5 262.5l186 -49q-65 -225 -232 -353t-417 -128z" />
    <glyph glyph-name="cdotaccent" unicode="&#x10b;" horiz-adv-x="1148" 
d="M502 1335v201h200v-201h-200zM609 -31q-244 0 -385.5 160.5t-141.5 423.5q0 265 142.5 424.5t386.5 159.5q175 0 301.5 -86.5t169.5 -235.5l-180 -54q-35 96 -113 149.5t-180 53.5q-161 0 -247.5 -110t-86.5 -301q0 -192 87.5 -301.5t246.5 -109.5q212 0 289 194l184 -48
q-58 -155 -180 -237t-293 -82z" />
    <glyph glyph-name="Ccaron" unicode="&#x10c;" horiz-adv-x="1480" 
d="M444 1935h180l151 -179l152 179h179l-250 -291h-162zM750 -31q-216 0 -373 97.5t-236.5 270t-79.5 400.5t79.5 400.5t236.5 270t373 97.5q251 0 418 -127.5t231 -352.5l-186 -49q-46 169 -163 262t-300 93q-238 0 -367 -161.5t-129 -432.5q0 -273 127.5 -433.5
t368.5 -160.5q182 0 299.5 93.5t163.5 262.5l186 -49q-65 -225 -232 -353t-417 -128z" />
    <glyph glyph-name="ccaron" unicode="&#x10d;" horiz-adv-x="1148" 
d="M279 1567h179l151 -179l152 179h179l-250 -292h-162zM609 -31q-244 0 -385.5 160.5t-141.5 423.5q0 265 142.5 424.5t386.5 159.5q175 0 301.5 -86.5t169.5 -235.5l-180 -54q-35 96 -113 149.5t-180 53.5q-161 0 -247.5 -110t-86.5 -301q0 -192 87.5 -301.5t246.5 -109.5
q212 0 289 194l184 -48q-58 -155 -180 -237t-293 -82z" />
    <glyph glyph-name="Dcaron" unicode="&#x10e;" horiz-adv-x="1395" 
d="M285 1935h179l151 -179l152 179h179l-250 -291h-161zM584 0h-441v1475h441q351 0 535.5 -189.5t184.5 -548.5t-184.5 -548t-535.5 -189zM330 1300v-1126h233q277 0 412 139t135 424q0 286 -135 424.5t-412 138.5h-233z" />
    <glyph glyph-name="dcaron" unicode="&#x10f;" horiz-adv-x="1516" 
d="M1280 1024l11 85h9q88 0 88 110v8q-2 18 -3 26h-105v232h201v-262q0 -70 -23 -119t-61 -67q-40 -17 -75 -17q-22 0 -42 4zM1015 1475h182v-1475h-182v173q-113 -204 -370 -204q-151 0 -265.5 74.5t-176 206.5t-61.5 302q0 261 138 423t365 162q256 0 370 -204v542z
M676 964q-166 0 -253 -111.5t-87 -300.5q0 -191 87 -300.5t253 -109.5q168 0 253.5 110.5t85.5 299.5q0 191 -87.5 301.5t-251.5 110.5z" />
    <glyph glyph-name="Dcroat" unicode="&#x110;" horiz-adv-x="1387" 
d="M20 663v150h122v662h441q351 0 535.5 -189.5t184.5 -548.5t-184.5 -548t-535.5 -189h-441v663h-122zM329 1300v-487h352v-150h-352v-489h233q277 0 412 139t135 424q0 286 -135 424.5t-412 138.5h-233z" />
    <glyph glyph-name="dcroat" unicode="&#x111;" 
d="M954 1208h-202v150h202v117h183v-117h139v-150h-139v-1208h-183v173q-113 -204 -369 -204q-151 0 -265.5 74.5t-176 206.5t-61.5 302q0 261 138 423t365 162q255 0 369 -204v275zM615 964q-166 0 -253 -111.5t-87 -300.5q0 -191 87 -300.5t253 -109.5q168 0 253.5 110.5
t85.5 299.5q0 191 -87.5 301.5t-251.5 110.5z" />
    <glyph glyph-name="Emacron" unicode="&#x112;" horiz-adv-x="1178" 
d="M878 1720h-525v150h525v-150zM1076 0h-933v1475h933v-173h-749v-462h626v-173h-626v-494h749v-173z" />
    <glyph glyph-name="emacron" unicode="&#x113;" horiz-adv-x="1209" 
d="M373 1352v149h524v-149h-524zM618 140q219 0 313 195l176 -59q-65 -147 -192.5 -227t-296.5 -80q-243 0 -389.5 160t-146.5 424q0 266 145.5 425t386.5 159q253 0 388 -169.5t123 -465.5h-847q12 -171 101.5 -266.5t238.5 -95.5zM282 648h654q-12 155 -96 239t-226 84
q-140 0 -226 -84.5t-106 -238.5z" />
    <glyph glyph-name="Edotaccent" unicode="&#x116;" horiz-adv-x="1178" 
d="M715 1704h-201v201h201v-201zM1076 0h-933v1475h933v-173h-749v-462h626v-173h-626v-494h749v-173z" />
    <glyph glyph-name="edotaccent" unicode="&#x117;" horiz-adv-x="1209" 
d="M515 1335v201h201v-201h-201zM618 140q219 0 313 195l176 -59q-65 -147 -192.5 -227t-296.5 -80q-243 0 -389.5 160t-146.5 424q0 266 145.5 425t386.5 159q253 0 388 -169.5t123 -465.5h-847q12 -171 101.5 -266.5t238.5 -95.5zM282 648h654q-12 155 -96 239t-226 84
q-140 0 -226 -84.5t-106 -238.5z" />
    <glyph glyph-name="Eogonek" unicode="&#x118;" horiz-adv-x="1178" 
d="M898 -493q-84 0 -144 62t-60 146q0 135 144 274l11 11h-706v1475h933v-173h-749v-462h626v-173h-626v-494h749v-173q-95 -56 -162.5 -135t-67.5 -138q0 -33 21 -55t51 -22q45 0 88 45l73 -92q-72 -96 -181 -96z" />
    <glyph glyph-name="eogonek" unicode="&#x119;" horiz-adv-x="1209" 
d="M937 -473q-40 -17 -81 -17q-49 0 -89 19q-41 18 -68 51q-38 44 -44 84q-6 42 -6 60q0 39 16 87q22 66 80 150q2 3 8 11t8 12l2 2q-71 -17 -145 -17q-243 0 -389.5 160t-146.5 424q0 266 145.5 425t386.5 159q253 0 388 -169.5t123 -465.5h-847q12 -171 101.5 -266.5
t238.5 -95.5q219 0 313 195l176 -59q-14 -33 -41 -76q-30 -53 -57 -91q-71 -104 -91 -131l-37 -54q-61 -100 -79 -161q-5 -20 -5 -36q0 -32 17 -51q21 -22 49 -22q47 0 94 42l75 -93q-36 -51 -95 -76zM282 648h654q-12 155 -96 239t-226 84q-140 0 -226 -84.5t-106 -238.5z
" />
    <glyph glyph-name="Ecaron" unicode="&#x11a;" horiz-adv-x="1178" 
d="M536 1644l-250 291h179l151 -179l152 179h179l-250 -291h-161zM1076 0h-933v1475h933v-173h-749v-462h626v-173h-626v-494h749v-173z" />
    <glyph glyph-name="ecaron" unicode="&#x11b;" horiz-adv-x="1209" 
d="M282 1567h179l151 -179l152 179h179l-250 -292h-162zM618 140q219 0 313 195l176 -59q-65 -147 -192.5 -227t-296.5 -80q-243 0 -389.5 160t-146.5 424q0 266 145.5 425t386.5 159q253 0 388 -169.5t123 -465.5h-847q12 -171 101.5 -266.5t238.5 -95.5zM282 648h654
q-12 155 -96 239t-226 84q-140 0 -226 -84.5t-106 -238.5z" />
    <glyph glyph-name="Gcircumflex" unicode="&#x11c;" horiz-adv-x="1473" 
d="M404 1644l250 291h162l250 -291h-179l-152 179l-151 -179h-180zM1208 0v230q-55 -123 -181.5 -192t-296.5 -69q-309 0 -489 204.5t-180 563.5q0 351 185.5 559t496.5 208q228 0 384.5 -108t225.5 -322l-185 -38q-45 141 -155.5 217.5t-264.5 76.5q-234 0 -363.5 -156.5
t-129.5 -442.5q0 -279 127.5 -433.5t361.5 -154.5q213 0 329 122.5t121 342.5h-530v173h728v-781h-184z" />
    <glyph glyph-name="gcircumflex" unicode="&#x11d;" 
d="M474 1275h-179l250 292h162l249 -292h-179l-151 179zM585 1137q255 0 369 -198v167h183v-1047q0 -261 -138.5 -421t-388.5 -160q-173 0 -299 82t-184 236l184 48q37 -94 114 -143.5t185 -49.5q166 0 255 110.5t89 299.5v147q-113 -198 -369 -198q-224 0 -363.5 153.5
t-139.5 408.5q0 257 140 411t363 154zM615 183q160 0 249.5 104.5t89.5 284.5q0 183 -91 287.5t-248 104.5q-159 0 -249.5 -106t-90.5 -286q0 -183 90.5 -286t249.5 -103z" />
    <glyph glyph-name="Gbreve" unicode="&#x11e;" horiz-adv-x="1473" 
d="M746 1604q-76 0 -140 37t-101 102q-38 63 -38 140h147q0 -54 39 -93t93 -39t93.5 39t39.5 93h147q0 -76 -37 -140.5t-102 -101.5q-61 -37 -141 -37zM1208 0v230q-55 -123 -181.5 -192t-296.5 -69q-309 0 -489 204.5t-180 563.5q0 351 185.5 559t496.5 208
q228 0 384.5 -108t225.5 -322l-185 -38q-45 141 -155.5 217.5t-264.5 76.5q-234 0 -363.5 -156.5t-129.5 -442.5q0 -279 127.5 -433.5t361.5 -154.5q213 0 329 122.5t121 342.5h-530v173h728v-781h-184z" />
    <glyph glyph-name="gbreve" unicode="&#x11f;" 
d="M627 1235q-76 0 -140.5 37t-101.5 102q-38 63 -38 140h148q0 -54 39 -93t93 -39q56 0 94 38.5t38 93.5h147q0 -75 -37 -139.5t-101 -101.5q-63 -38 -141 -38zM585 1137q255 0 369 -198v167h183v-1047q0 -261 -138.5 -421t-388.5 -160q-173 0 -299 82t-184 236l184 48
q37 -94 114 -143.5t185 -49.5q166 0 255 110.5t89 299.5v147q-113 -198 -369 -198q-224 0 -363.5 153.5t-139.5 408.5q0 257 140 411t363 154zM615 183q160 0 249.5 104.5t89.5 284.5q0 183 -91 287.5t-248 104.5q-159 0 -249.5 -106t-90.5 -286q0 -183 90.5 -286
t249.5 -103z" />
    <glyph glyph-name="Gdotaccent" unicode="&#x120;" horiz-adv-x="1473" 
d="M639 1704v201h201v-201h-201zM1208 0v230q-55 -123 -181.5 -192t-296.5 -69q-309 0 -489 204.5t-180 563.5q0 351 185.5 559t496.5 208q228 0 384.5 -108t225.5 -322l-185 -38q-45 141 -155.5 217.5t-264.5 76.5q-234 0 -363.5 -156.5t-129.5 -442.5q0 -279 127.5 -433.5
t361.5 -154.5q213 0 329 122.5t121 342.5h-530v173h728v-781h-184z" />
    <glyph glyph-name="gdotaccent" unicode="&#x121;" horiz-adv-x="1253" 
d="M755 1335h-201v201h201v-201zM585 1137q255 0 369 -198v167h183v-1047q0 -261 -138.5 -421t-388.5 -160q-173 0 -299 82t-184 236l184 48q37 -94 114 -143.5t185 -49.5q166 0 255 110.5t89 299.5v147q-113 -198 -369 -198q-224 0 -363.5 153.5t-139.5 408.5
q0 257 140 411t363 154zM615 183q160 0 249.5 104.5t89.5 284.5q0 183 -91 287.5t-248 104.5q-159 0 -249.5 -106t-90.5 -286q0 -183 90.5 -286t249.5 -103z" />
    <glyph glyph-name="uni0122" unicode="&#x122;" horiz-adv-x="1473" 
d="M1208 0v230q-55 -123 -181.5 -192t-296.5 -69q-309 0 -489 204.5t-180 563.5q0 351 185.5 559t496.5 208q228 0 384.5 -108t225.5 -322l-185 -38q-45 141 -155.5 217.5t-264.5 76.5q-234 0 -363.5 -156.5t-129.5 -442.5q0 -279 127.5 -433.5t361.5 -154.5
q213 0 329 122.5t121 342.5h-530v173h728v-781h-184zM671 -495q37 0 70.5 22.5t33.5 66.5v8h-104v192h192v-192q0 -86 -55.5 -136t-136.5 -50v89z" />
    <glyph glyph-name="uni0123" unicode="&#x123;" 
d="M727 1713v-89q-36 0 -70 -22.5t-34 -69.5v-4h104v-193h-192v193q0 85 55.5 135t136.5 50zM585 1137q255 0 369 -198v167h183v-1047q0 -261 -138.5 -421t-388.5 -160q-173 0 -299 82t-184 236l184 48q37 -94 114 -143.5t185 -49.5q166 0 255 110.5t89 299.5v147
q-113 -198 -369 -198q-224 0 -363.5 153.5t-139.5 408.5q0 257 140 411t363 154zM615 183q160 0 249.5 104.5t89.5 284.5q0 183 -91 287.5t-248 104.5q-159 0 -249.5 -106t-90.5 -286q0 -183 90.5 -286t249.5 -103z" />
    <glyph glyph-name="Hcircumflex" unicode="&#x124;" horiz-adv-x="1428" 
d="M560 1644h-179l250 291h162l249 -291h-179l-151 179zM327 0h-184v1475h184v-651h775v651h183v-1475h-183v651h-775v-651z" />
    <glyph glyph-name="hcircumflex" unicode="&#x125;" horiz-adv-x="1234" 
d="M496 1644h-180l250 291h162l250 -291h-179l-152 179zM930 0v608q0 179 -79 267.5t-221 88.5t-223.5 -88.5t-81.5 -267.5v-608h-183v1475h183v-529q98 191 344 191q207 0 325 -124.5t118 -373.5v-639h-182z" />
    <glyph glyph-name="Hbar" unicode="&#x126;" horiz-adv-x="1469" 
d="M347 0h-183v1016h-144v173h144v286h183v-286h775v286h184v-286h143v-173h-143v-1016h-184v651h-775v-651zM347 1016v-192h775v192h-775z" />
    <glyph glyph-name="hbar" unicode="&#x127;" horiz-adv-x="1234" 
d="M142 1208h-124v150h124v117h183v-117h218v-150h-218v-262q98 191 344 191q207 0 325 -124.5t118 -373.5v-639h-182v608q0 179 -79 267.5t-221 88.5t-223.5 -88.5t-81.5 -267.5v-608h-183v1208z" />
    <glyph glyph-name="Itilde" unicode="&#x128;" horiz-adv-x="509" 
d="M415 1647q-42 0 -83 17t-101 55q-51 30 -75.5 41.5t-47.5 11.5q-25 0 -38.5 -16t-15 -27t-1.5 -21q0 -20 6 -41h-124q-9 39 -9 72q0 26 9 68q10 39 53 73q41 32 107 32q40 0 80 -16.5t105 -55.5q49 -30 74.5 -41.5t48.5 -11.5q33 0 44 23q11 24 11 44q0 18 -6 39h122
q10 -42 10 -70q0 -22 -10 -69q-10 -41 -52 -74q-40 -33 -107 -33zM347 0h-183v1475h183v-1475z" />
    <glyph glyph-name="itilde" unicode="&#x129;" horiz-adv-x="509" 
d="M415 1278q-41 0 -82.5 17t-101.5 56q-49 30 -74.5 41t-48.5 11q-25 0 -38.5 -16t-15 -27t-1.5 -21q0 -20 6 -41h-124q-9 39 -9 72q0 27 9 69q10 38 53 72q41 32 107 32q40 0 80 -16.5t105 -55.5q49 -30 74.5 -41.5t48.5 -11.5q33 0 44 24t11 44q0 18 -6 39h122
q10 -42 10 -71q0 -22 -10 -69q-10 -40 -52 -73q-41 -34 -107 -34zM346 0h-182v1106h182v-1106z" />
    <glyph glyph-name="Imacron" unicode="&#x12a;" horiz-adv-x="509" 
d="M517 1720h-524v150h524v-150zM346 0h-182v1475h182v-1475z" />
    <glyph glyph-name="imacron" unicode="&#x12b;" horiz-adv-x="509" 
d="M517 1352h-524v149h524v-149zM346 0h-182v1106h182v-1106z" />
    <glyph glyph-name="Iogonek" unicode="&#x12e;" horiz-adv-x="510" 
d="M169 -493q-84 0 -144.5 62.5t-60.5 145.5q0 132 144 274q23 23 56 49v1437h183v-1475q-95 -56 -162.5 -135t-67.5 -138q0 -33 20.5 -55t50.5 -22q43 0 88 45l74 -92q-72 -96 -181 -96z" />
    <glyph glyph-name="iogonek" unicode="&#x12f;" horiz-adv-x="509" 
d="M346 1302h-182v188h182v-188zM168 -493q-84 0 -144 62t-60 146q0 135 144 274q23 23 56 49v1068h182v-1106q-95 -56 -162.5 -135t-67.5 -138q0 -33 20.5 -55t50.5 -22q45 0 88 45l74 -92q-72 -96 -181 -96z" />
    <glyph glyph-name="Idotaccent" unicode="&#x130;" horiz-adv-x="510" 
d="M356 1704h-201v201h201v-201zM347 0h-183v1475h183v-1475z" />
    <glyph glyph-name="dotlessi" unicode="&#x131;" horiz-adv-x="509" 
d="M346 0h-182v1106h182v-1106z" />
    <glyph glyph-name="Jcircumflex" unicode="&#x134;" horiz-adv-x="974" 
d="M385 1644l250 291h162l250 -291h-180l-151 179l-152 -179h-179zM410 -30q-153 0 -261.5 83.5t-148.5 226.5l181 43q17 -76 80.5 -128t144.5 -52q58 0 111.5 28t81.5 84q13 25 19 60t7 62.5t1 85.5v1012h183v-1012q0 -102 -9.5 -170.5t-38.5 -127.5q-97 -195 -351 -195z
" />
    <glyph glyph-name="jcircumflex" unicode="&#x135;" horiz-adv-x="538" 
d="M140 1275h-180l251 292h162l250 -292h-180l-151 179zM99 -490h-119v172h60q89 0 126 37t37 125v1262h182v-1311q0 -135 -73.5 -210t-212.5 -75z" />
    <glyph glyph-name="uni0136" unicode="&#x136;" horiz-adv-x="1253" 
d="M143 0v1475h184v-696l645 696h229l-670 -716l722 -759h-235l-691 723v-723h-184zM569 -495q37 0 71 22.5t34 66.5v8h-105v192h193v-192q0 -85 -56 -135.5t-137 -50.5v89z" />
    <glyph glyph-name="uni0137" unicode="&#x137;" horiz-adv-x="1041" 
d="M142 0v1475h183v-902l463 533h237l-488 -553l545 -553h-255l-502 532v-532h-183zM489 -495q37 0 71 22.5t34 66.5v8h-105v192h193v-192q0 -85 -56 -135.5t-137 -50.5v89z" />
    <glyph glyph-name="Lacute" unicode="&#x139;" horiz-adv-x="1061" 
d="M468 1981l-134 -337h-149l134 337h149zM1031 0h-867v1475h183v-1302h684v-173z" />
    <glyph glyph-name="lacute" unicode="&#x13a;" horiz-adv-x="509" 
d="M467 1981l-134 -337h-149l134 337h149zM346 0h-182v1505h182v-1505z" />
    <glyph glyph-name="uni013B" unicode="&#x13b;" horiz-adv-x="1061" 
d="M1031 0h-867v1475h183v-1302h684v-173zM502 -584v89q37 0 70.5 22.5t33.5 66.5v8h-104v192h192v-192q0 -86 -55.5 -136t-136.5 -50z" />
    <glyph glyph-name="uni013C" unicode="&#x13c;" horiz-adv-x="509" 
d="M346 0h-182v1505h182v-1505zM159 -584v89q37 0 70.5 22.5t33.5 66.5v8h-104v192h192v-192q0 -86 -55.5 -136t-136.5 -50z" />
    <glyph glyph-name="Lcaron" unicode="&#x13d;" horiz-adv-x="1060" 
d="M660 1024l12 85h9q87 0 87 110v8q0 4 -0.5 13t-1.5 13h-106v232h201v-262q0 -70 -23 -119t-61 -67q-40 -17 -75 -17q-22 0 -42 4zM1033 0h-867v1475h183v-1302h684v-173z" />
    <glyph glyph-name="lcaron" unicode="&#x13e;" horiz-adv-x="751" 
d="M346 0h-182v1505h182v-1505zM515 1024l11 85h10q87 0 87 110v8q0 4 -0.5 13t-1.5 13h-106v232h201v-262q0 -70 -23 -119t-61 -67q-40 -17 -75 -17q-22 0 -42 4z" />
    <glyph glyph-name="Lslash" unicode="&#x141;" horiz-adv-x="1081" 
d="M183 456l-104 -61v202l104 59v819h184v-713l350 201v-201l-350 -202v-387h684v-173h-868v456z" />
    <glyph glyph-name="lslash" unicode="&#x142;" horiz-adv-x="785" 
d="M302 600l-228 -131v202l228 130v704h182v-599l228 130v-200l-228 -131v-705h-182v600z" />
    <glyph glyph-name="Nacute" unicode="&#x143;" horiz-adv-x="1424" 
d="M939 1981l-134 -337h-149l135 337h148zM327 0h-184v1475h184l771 -1153v1153h183v-1475h-183l-771 1153v-1153z" />
    <glyph glyph-name="nacute" unicode="&#x144;" horiz-adv-x="1234" 
d="M847 1613l-134 -338h-149l134 338h149zM930 0v608q0 179 -79 267.5t-221 88.5t-223.5 -88.5t-81.5 -267.5v-608h-183v1106h183v-160q98 191 344 191q207 0 325 -124.5t118 -373.5v-639h-182z" />
    <glyph glyph-name="uni0145" unicode="&#x145;" horiz-adv-x="1424" 
d="M327 0h-184v1475h184l771 -1153v1153h183v-1475h-183l-771 1153v-1153zM637 -584v89q37 0 70.5 22.5t33.5 66.5v8h-104v192h192v-192q0 -86 -55.5 -136t-136.5 -50z" />
    <glyph glyph-name="uni0146" unicode="&#x146;" horiz-adv-x="1234" 
d="M930 0v608q0 179 -79 267.5t-221 88.5t-223.5 -88.5t-81.5 -267.5v-608h-183v1106h183v-160q98 191 344 191q207 0 325 -124.5t118 -373.5v-639h-182zM536 -584v89q37 0 70.5 22.5t33.5 66.5v8h-104v192h192v-192q0 -86 -55.5 -136t-136.5 -50z" />
    <glyph glyph-name="Ncaron" unicode="&#x147;" horiz-adv-x="1424" 
d="M654 1644l-250 291h180l151 -179l152 179h179l-250 -291h-162zM327 0h-184v1475h184l771 -1153v1153h183v-1475h-183l-771 1153v-1153z" />
    <glyph glyph-name="ncaron" unicode="&#x148;" horiz-adv-x="1234" 
d="M539 1275l-250 292h179l152 -179l151 179h179l-250 -292h-161zM930 0v608q0 179 -79 267.5t-221 88.5t-223.5 -88.5t-81.5 -267.5v-608h-183v1106h183v-160q98 191 344 191q207 0 325 -124.5t118 -373.5v-639h-182z" />
    <glyph glyph-name="Eng" unicode="&#x14a;" horiz-adv-x="1424" 
d="M1098 322v1153h183v-1662q0 -123 -56.5 -182t-174.5 -59q-66 0 -124 15v145l29 -3q27 -3 43 -3q67 0 96 31t29 106q0 50 -18.5 100.5t-63.5 120.5l-714 1069v-1153h-184v1475h185z" />
    <glyph glyph-name="eng" unicode="&#x14b;" horiz-adv-x="1234" 
d="M930 -156v764q0 179 -79 267.5t-221 88.5t-223.5 -88.5t-81.5 -267.5v-608h-183v1106h183v-160q98 191 344 191q207 0 325 -124.5t118 -373.5v-844q0 -135 -73.5 -210t-212.5 -75h-119v172h60q89 0 126 37t37 125z" />
    <glyph glyph-name="Omacron" unicode="&#x14c;" horiz-adv-x="1499" 
d="M487 1720v150h525v-150h-525zM750 -31q-216 0 -373 97.5t-236.5 270t-79.5 400.5t79.5 400.5t236.5 270t373 97.5t373 -97.5t236 -269.5t79 -401t-79 -401t-236 -269.5t-373 -97.5zM750 143q241 0 367.5 160.5t126.5 433.5t-126.5 433.5t-367.5 160.5t-367 -160.5
t-128 -433.5q-2 -272 126 -433t369 -161z" />
    <glyph glyph-name="omacron" unicode="&#x14d;" horiz-adv-x="1229" 
d="M353 1352v149h525v-149h-525zM614 -31q-244 0 -388 162t-144 423q0 262 144.5 422.5t387.5 160.5q245 0 389.5 -161t144.5 -422q0 -263 -144.5 -424t-389.5 -161zM614 142q164 0 252 110.5t88 301.5q0 193 -87.5 301.5t-252.5 108.5t-252 -109t-87 -301t88 -302t251 -110
z" />
    <glyph glyph-name="Ohungarumlaut" unicode="&#x150;" horiz-adv-x="1499" 
d="M1014 1644h-149l134 337h149zM617 1644h-148l134 337h149zM750 -31q-216 0 -373 97.5t-236.5 270t-79.5 400.5t79.5 400.5t236.5 270t373 97.5t373 -97.5t236 -269.5t79 -401t-79 -401t-236 -269.5t-373 -97.5zM750 143q241 0 367.5 160.5t126.5 433.5t-126.5 433.5
t-367.5 160.5t-367 -160.5t-128 -433.5q-2 -272 126 -433t369 -161z" />
    <glyph glyph-name="ohungarumlaut" unicode="&#x151;" horiz-adv-x="1229" 
d="M879 1275h-149l134 338h149zM482 1275h-148l134 338h148zM614 -31q-244 0 -388 162t-144 423q0 262 144.5 422.5t387.5 160.5q245 0 389.5 -161t144.5 -422q0 -263 -144.5 -424t-389.5 -161zM614 142q164 0 252 110.5t88 301.5q0 193 -87.5 301.5t-252.5 108.5t-252 -109
t-87 -301t88 -302t251 -110z" />
    <glyph glyph-name="OE" unicode="&#x152;" horiz-adv-x="2288" 
d="M750 -31q-216 0 -373 97.5t-236.5 270t-79.5 400.5t79.5 400.5t236.5 270t373 97.5q318 0 503 -207v177h933v-173h-749v-462h626v-173h-626v-494h749v-173h-933v176q-185 -207 -503 -207zM750 143q241 0 367.5 160.5t126.5 433.5t-126.5 433.5t-367.5 160.5t-367 -160.5
t-128 -433.5q-2 -272 126 -433t369 -161z" />
    <glyph glyph-name="oe" unicode="&#x153;" horiz-adv-x="2082" 
d="M614 -31q-244 0 -388 162t-144 423q0 262 144.5 422.5t387.5 160.5q144 0 255.5 -58t180.5 -164q70 106 182 164t253 58q253 0 388 -169.5t123 -465.5h-848q12 -171 102 -266.5t239 -95.5q218 0 312 195l176 -59q-65 -148 -192 -227.5t-296 -79.5q-143 0 -255 58
t-183 164q-69 -106 -181 -164t-256 -58zM1152 648h654q-12 155 -95.5 239t-225.5 84q-140 0 -226.5 -84.5t-106.5 -238.5zM614 142q155 0 242.5 99t96.5 272q-1 13 -1 40q0 28 1 41q-9 175 -96 272.5t-243 97.5q-165 0 -252 -109t-87 -301t88 -302t251 -110z" />
    <glyph glyph-name="Racute" unicode="&#x154;" horiz-adv-x="1312" 
d="M687 1644h-148l134 337h148zM1018 0l-358 545h-333v-545h-184v1475h558q239 0 369 -123.5t130 -341.5q0 -176 -87.5 -293t-250.5 -155l369 -562h-213zM327 1302v-584h373q149 0 231.5 77t82.5 215t-82.5 215t-231.5 77h-373z" />
    <glyph glyph-name="racute" unicode="&#x155;" horiz-adv-x="763" 
d="M568 1613l-134 -338h-148l134 338h148zM713 1136v-178q-36 6 -83 6q-142 0 -223.5 -88.5t-81.5 -267.5v-608h-183v1106h183v-160q98 191 344 191q30 0 44 -1z" />
    <glyph glyph-name="uni0156" unicode="&#x156;" horiz-adv-x="1312" 
d="M1018 0l-358 545h-333v-545h-184v1475h558q239 0 369 -123.5t130 -341.5q0 -176 -87.5 -293t-250.5 -155l369 -562h-213zM327 1302v-584h373q149 0 231.5 77t82.5 215t-82.5 215t-231.5 77h-373zM550 -495q37 0 70.5 22.5t33.5 66.5v8h-104v192h192v-192
q0 -86 -55.5 -136t-136.5 -50v89z" />
    <glyph glyph-name="uni0157" unicode="&#x157;" horiz-adv-x="764" 
d="M714 1136v-178q-36 6 -83 6q-142 0 -223.5 -88.5t-81.5 -267.5v-608h-183v1106h183v-160q98 191 344 191q30 0 44 -1zM139 -584v89q37 0 71 22.5t34 66.5v8h-105v192h193v-192q0 -85 -56 -135.5t-137 -50.5z" />
    <glyph glyph-name="Rcaron" unicode="&#x158;" horiz-adv-x="1312" 
d="M271 1935h180l151 -179l152 179h179l-250 -291h-162zM1018 0l-358 545h-333v-545h-184v1475h558q239 0 369 -123.5t130 -341.5q0 -176 -87.5 -293t-250.5 -155l369 -562h-213zM327 1302v-584h373q149 0 231.5 77t82.5 215t-82.5 215t-231.5 77h-373z" />
    <glyph glyph-name="rcaron" unicode="&#x159;" horiz-adv-x="764" 
d="M346 1275l-250 292h179l152 -179l152 179h179l-250 -292h-162zM714 1136v-178q-36 6 -83 6q-142 0 -223.5 -88.5t-81.5 -267.5v-608h-183v1106h183v-160q98 191 344 191q30 0 44 -1z" />
    <glyph glyph-name="Sacute" unicode="&#x15a;" horiz-adv-x="1290" 
d="M730 1644h-148l134 337h148zM667 -31q-236 0 -397 119t-198 321l188 29q36 -142 144.5 -219t271.5 -77q158 0 256 72.5t98 188.5q0 153 -206 214l-375 112q-320 95 -320 364q0 183 143 297t369 114t376.5 -114.5t191.5 -316.5l-193 -34q-23 135 -124.5 213.5t-252.5 78.5
q-142 0 -229.5 -65.5t-87.5 -165.5q0 -78 56.5 -127.5t190.5 -87.5l279 -81q371 -105 371 -392q0 -199 -151.5 -321t-400.5 -122z" />
    <glyph glyph-name="sacute" unicode="&#x15b;" horiz-adv-x="1086" 
d="M621 1275h-149l134 338h149zM563 -30q-198 0 -321 84t-160 245l188 32q54 -198 296 -198q117 0 183.5 45.5t66.5 127.5q0 47 -23.5 78t-86.5 55q-65 24 -193 59q-96 25 -158.5 48.5t-121.5 60t-87.5 89t-28.5 122.5q0 141 119.5 230t309.5 89q185 0 308 -88t145 -236
l-186 -34q-13 91 -86 143.5t-188 52.5q-102 0 -170.5 -43t-68.5 -109q0 -42 37 -74t69 -44t104 -33q13 -4 19 -6q82 -22 214 -66q139 -45 200 -113t61 -175q0 -159 -118 -250.5t-323 -91.5z" />
    <glyph glyph-name="Scircumflex" unicode="&#x15c;" horiz-adv-x="1290" 
d="M331 1644l250 291h161l250 -291h-179l-151 179l-152 -179h-179zM667 -31q-236 0 -397 119t-198 321l188 29q36 -142 144.5 -219t271.5 -77q158 0 256 72.5t98 188.5q0 153 -206 214l-375 112q-320 95 -320 364q0 183 143 297t369 114t376.5 -114.5t191.5 -316.5l-193 -34
q-23 135 -124.5 213.5t-252.5 78.5q-142 0 -229.5 -65.5t-87.5 -165.5q0 -78 56.5 -127.5t190.5 -87.5l279 -81q371 -105 371 -392q0 -199 -151.5 -321t-400.5 -122z" />
    <glyph glyph-name="scircumflex" unicode="&#x15d;" horiz-adv-x="1086" 
d="M231 1275l250 292h162l250 -292h-179l-152 179l-151 -179h-180zM563 -30q-198 0 -321 84t-160 245l188 32q54 -198 296 -198q117 0 183.5 45.5t66.5 127.5q0 47 -23.5 78t-86.5 55q-65 24 -193 59q-96 25 -158.5 48.5t-121.5 60t-87.5 89t-28.5 122.5q0 141 119.5 230
t309.5 89q185 0 308 -88t145 -236l-186 -34q-13 91 -86 143.5t-188 52.5q-102 0 -170.5 -43t-68.5 -109q0 -42 37 -74t69 -44t104 -33q13 -4 19 -6q82 -22 214 -66q139 -45 200 -113t61 -175q0 -159 -118 -250.5t-323 -91.5z" />
    <glyph glyph-name="Scedilla" unicode="&#x15e;" horiz-adv-x="1290" 
d="M625 -493q-68 0 -135 34l45 118q45 -16 74 -16q34 0 55.5 21t21.5 50q0 48 -58 73q-45 19 -69 26q-2 0 -8 2l56 156q-215 15 -358 132t-177 306l188 29q36 -142 144.5 -219t271.5 -77q158 0 256 72.5t98 188.5q0 153 -206 214l-375 112q-320 95 -320 364q0 183 143 297
t369 114t376.5 -114.5t191.5 -316.5l-193 -34q-23 135 -124.5 213.5t-252.5 78.5q-142 0 -229.5 -65.5t-87.5 -165.5q0 -78 56.5 -127.5t190.5 -87.5l279 -81q371 -105 371 -392q0 -185 -133 -304.5t-356 -136.5l-29 -81q124 -59 124 -181q0 -86 -58.5 -144t-141.5 -58z" />
    <glyph glyph-name="scedilla" unicode="&#x15f;" horiz-adv-x="1086" 
d="M516 -493q-67 0 -134 34l44 118q45 -16 75 -16q34 0 55.5 21t21.5 50q0 48 -59 73q-48 20 -68 26q-3 0 -9 2l57 157q-170 13 -276.5 96t-140.5 231l188 32q54 -198 296 -198q117 0 183.5 45.5t66.5 127.5q0 47 -23.5 78t-86.5 55q-65 24 -193 59q-96 25 -158.5 48.5
t-121.5 60t-87.5 89t-28.5 122.5q0 141 119.5 230t309.5 89q185 0 308 -88t145 -236l-186 -34q-13 91 -86 143.5t-188 52.5q-102 0 -170.5 -43t-68.5 -109q0 -42 37 -74t69 -44t104 -33q13 -4 19 -6q82 -22 214 -66q139 -45 200 -113t61 -175q0 -147 -101 -237t-280 -103
l-30 -82q124 -59 124 -181q0 -86 -59 -144t-142 -58z" />
    <glyph glyph-name="Scaron" unicode="&#x160;" horiz-adv-x="1290" 
d="M340 1935h179l152 -179l151 179h179l-249 -291h-162zM667 -31q-236 0 -397 119t-198 321l188 29q36 -142 144.5 -219t271.5 -77q158 0 256 72.5t98 188.5q0 153 -206 214l-375 112q-320 95 -320 364q0 183 143 297t369 114t376.5 -114.5t191.5 -316.5l-193 -34
q-23 135 -124.5 213.5t-252.5 78.5q-142 0 -229.5 -65.5t-87.5 -165.5q0 -78 56.5 -127.5t190.5 -87.5l279 -81q371 -105 371 -392q0 -199 -151.5 -321t-400.5 -122z" />
    <glyph glyph-name="scaron" unicode="&#x161;" horiz-adv-x="1086" 
d="M231 1567h180l151 -179l152 179h179l-250 -292h-162zM563 -30q-198 0 -321 84t-160 245l188 32q54 -198 296 -198q117 0 183.5 45.5t66.5 127.5q0 47 -23.5 78t-86.5 55q-65 24 -193 59q-96 25 -158.5 48.5t-121.5 60t-87.5 89t-28.5 122.5q0 141 119.5 230t309.5 89
q185 0 308 -88t145 -236l-186 -34q-13 91 -86 143.5t-188 52.5q-102 0 -170.5 -43t-68.5 -109q0 -42 37 -74t69 -44t104 -33q13 -4 19 -6q82 -22 214 -66q139 -45 200 -113t61 -175q0 -159 -118 -250.5t-323 -91.5z" />
    <glyph glyph-name="uni0162" unicode="&#x162;" horiz-adv-x="1228" 
d="M550 0h-47v1302h-452v173h1081v-173h-446v-1302h-12l-42 -117q124 -59 124 -181q0 -86 -59 -144t-142 -58q-67 0 -134 34l44 118q48 -17 75 -17q34 0 55 21.5t21 50.5q0 48 -58 73q-35 15 -69 25q-2 0 -8 2z" />
    <glyph glyph-name="uni0163" unicode="&#x163;" horiz-adv-x="842" 
d="M450 -493q-68 0 -135 34l44 118q45 -16 75 -16q34 0 55.5 21t21.5 50q0 48 -58 73q-45 19 -69 26q-2 0 -8 2l70 196q-96 25 -148.5 96.5t-52.5 179.5v647h-225v172h225v307h182v-307h334v-172h-334v-603q0 -89 37.5 -127t125.5 -38h171v-166h-196l-39 -110
q124 -59 124 -181q0 -86 -58.5 -144t-141.5 -58z" />
    <glyph glyph-name="Tcaron" unicode="&#x164;" horiz-adv-x="1228" 
d="M531 1644l-249 291h179l151 -179l152 179h179l-250 -291h-162zM707 0h-184v1302h-503v173h1188v-173h-501v-1302z" />
    <glyph glyph-name="tcaron" unicode="&#x165;" horiz-adv-x="842" 
d="M654 1250l12 85h9q87 0 87 110v8q0 4 -0.5 13.5t-1.5 13.5h-106v231h201v-262q0 -69 -23 -118t-61 -67q-43 -18 -75 -18q-22 0 -42 4zM20 934v172h225v370h182v-370h334v-172h-334v-603q0 -89 37.5 -127t125.5 -38h171v-166h-214q-141 0 -221.5 76.5t-80.5 210.5v647
h-225z" />
    <glyph glyph-name="Tbar" unicode="&#x166;" horiz-adv-x="1228" 
d="M523 646h-369v182h369v474h-503v173h1188v-173h-501v-474h368v-182h-368v-646h-184v646z" />
    <glyph glyph-name="tbar" unicode="&#x167;" horiz-adv-x="883" 
d="M245 467h-225v172h225v295h-225v172h225v307h182v-307h334v-172h-334v-295h354v-172h-354v-136q0 -89 37.5 -127t125.5 -38h171v-166h-214q-141 0 -221.5 76.5t-80.5 210.5v180z" />
    <glyph glyph-name="Utilde" unicode="&#x168;" horiz-adv-x="1449" 
d="M897 1647q-41 0 -81 16.5t-102 55.5q-85 53 -124 53q-18 0 -30.5 -8.5t-17 -22t-5.5 -21t-1 -14.5q0 -20 6 -39h-123q-9 39 -9 72q0 28 10 68q9 40 51 73q41 32 107 32q40 0 79 -16.5t106 -55.5q83 -53 123 -53q33 0 44 23q10 21 10 43q0 19 -6 40h123q10 -37 10 -72
q0 -27 -9 -67q-10 -41 -52 -74q-40 -33 -109 -33zM725 -31q-267 0 -424.5 160.5t-157.5 449.5v896h184v-891q0 -215 102 -329t296 -114q195 0 296.5 113.5t101.5 329.5v891h184v-896q0 -289 -157 -449.5t-425 -160.5z" />
    <glyph glyph-name="utilde" unicode="&#x169;" horiz-adv-x="1235" 
d="M791 1278q-40 0 -80.5 17t-103.5 56q-84 52 -124 52q-18 0 -30.5 -8.5t-17 -22t-5.5 -21t-1 -14.5q0 -19 6 -39h-123q-9 39 -9 72q0 29 10 69q8 38 52 72q41 32 106 32q40 0 79 -16.5t106 -55.5q83 -53 123 -53q33 0 44 24t11 43q0 15 -7 40h123q11 -41 11 -73
q0 -22 -10 -67q-10 -40 -52 -73q-41 -34 -108 -34zM305 1106v-607q0 -179 79 -268t221 -89t223.5 89t81.5 268v607h183v-1106h-183v160q-98 -191 -344 -191q-206 0 -324.5 124.5t-118.5 373.5v639h182z" />
    <glyph glyph-name="Umacron" unicode="&#x16a;" horiz-adv-x="1449" 
d="M463 1720v150h524v-150h-524zM725 -31q-267 0 -424.5 160.5t-157.5 449.5v896h184v-891q0 -215 102 -329t296 -114q195 0 296.5 113.5t101.5 329.5v891h184v-896q0 -289 -157 -449.5t-425 -160.5z" />
    <glyph glyph-name="umacron" unicode="&#x16b;" horiz-adv-x="1235" 
d="M869 1352h-524v149h524v-149zM305 1106v-607q0 -179 79 -268t221 -89t223.5 89t81.5 268v607h183v-1106h-183v160q-98 -191 -344 -191q-206 0 -324.5 124.5t-118.5 373.5v639h182z" />
    <glyph glyph-name="Ubreve" unicode="&#x16c;" horiz-adv-x="1449" 
d="M725 1604q-76 0 -140.5 37t-101.5 102q-38 63 -38 140h148q0 -54 39 -93t93 -39q56 0 94 38.5t38 93.5h148q0 -75 -37.5 -140t-101.5 -102q-61 -37 -141 -37zM725 -31q-267 0 -424.5 160.5t-157.5 449.5v896h184v-891q0 -215 102 -329t296 -114q195 0 296.5 113.5
t101.5 329.5v891h184v-896q0 -289 -157 -449.5t-425 -160.5z" />
    <glyph glyph-name="ubreve" unicode="&#x16d;" horiz-adv-x="1235" 
d="M608 1235q-76 0 -140 37t-101 102q-38 63 -38 140h147q0 -54 39 -93t93 -39t93 39t39 93h148q0 -76 -37 -140t-102 -101q-63 -38 -141 -38zM305 1106v-607q0 -179 79 -268t221 -89t223.5 89t81.5 268v607h183v-1106h-183v160q-98 -191 -344 -191q-206 0 -324.5 124.5
t-118.5 373.5v639h182z" />
    <glyph glyph-name="Uring" unicode="&#x16e;" horiz-adv-x="1449" 
d="M729 1592q-95 0 -166 71t-71 167t71 166.5t166 70.5q96 0 167 -70.5t71 -166.5t-71 -167t-167 -71zM729 1717q46 0 79.5 33.5t33.5 79.5t-33 79.5t-80 33.5q-46 0 -79.5 -33.5t-33.5 -79.5t33.5 -79.5t79.5 -33.5zM725 -31q-267 0 -424.5 160.5t-157.5 449.5v896h184
v-891q0 -215 102 -329t296 -114q195 0 296.5 113.5t101.5 329.5v891h184v-896q0 -289 -157 -449.5t-425 -160.5z" />
    <glyph glyph-name="uring" unicode="&#x16f;" horiz-adv-x="1235" 
d="M608 1224q-95 0 -166 70.5t-71 166.5t71 167t166 71q96 0 167 -71t71 -167t-71 -166.5t-167 -70.5zM608 1349q46 0 79.5 33t33.5 79q0 47 -33.5 80t-79.5 33t-79 -33.5t-33 -79.5t33 -79t79 -33zM305 1106v-607q0 -179 79 -268t221 -89t223.5 89t81.5 268v607h183v-1106
h-183v160q-98 -191 -344 -191q-206 0 -324.5 124.5t-118.5 373.5v639h182z" />
    <glyph glyph-name="Uhungarumlaut" unicode="&#x170;" horiz-adv-x="1449" 
d="M979 1644h-149l135 337h148zM583 1644h-149l134 337h149zM725 -31q-267 0 -424.5 160.5t-157.5 449.5v896h184v-891q0 -215 102 -329t296 -114q195 0 296.5 113.5t101.5 329.5v891h184v-896q0 -289 -157 -449.5t-425 -160.5z" />
    <glyph glyph-name="uhungarumlaut" unicode="&#x171;" horiz-adv-x="1235" 
d="M1004 1613l-135 -338h-148l134 338h149zM607 1613l-134 -338h-148l134 338h148zM305 1106v-607q0 -179 79 -268t221 -89t223.5 89t81.5 268v607h183v-1106h-183v160q-98 -191 -344 -191q-206 0 -324.5 124.5t-118.5 373.5v639h182z" />
    <glyph glyph-name="Uogonek" unicode="&#x172;" horiz-adv-x="1449" 
d="M725 -31q-267 0 -424.5 160.5t-157.5 449.5v896h184v-891q0 -215 102 -329t296 -114q195 0 296.5 113.5t101.5 329.5v891h184v-896q0 -189 -69.5 -325.5t-196.5 -208.5q-36 -25 -79 -64q-115 -107 -115 -189q0 -33 21 -55t51 -22q43 0 88 45l73 -92q-72 -95 -181 -95
q-84 0 -144 62.5t-60 145.5q0 69 38 138q10 19 32 51q-13 -1 -40 -1z" />
    <glyph glyph-name="uogonek" unicode="&#x173;" horiz-adv-x="1235" 
d="M914 -493q-84 0 -143.5 62t-59.5 146q0 66 37.5 137.5t105.5 136.5q23 23 56 49v122q-98 -191 -344 -191q-206 0 -324.5 124.5t-118.5 373.5v639h182v-607q0 -179 79 -268t221 -89t223.5 89t81.5 268v607h183v-1106q-96 -57 -163.5 -135.5t-67.5 -137.5q0 -33 21 -55
t51 -22q45 0 88 45l74 -92q-34 -46 -82 -71t-100 -25z" />
    <glyph glyph-name="Wcircumflex" unicode="&#x174;" horiz-adv-x="1943" 
d="M819 1644h-179l250 291h162l250 -291h-180l-151 179zM645 0h-192l-422 1475h191l327 -1177l327 1177h191l328 -1177l326 1177h192l-422 -1475h-193l-326 1166z" />
    <glyph glyph-name="wcircumflex" unicode="&#x175;" horiz-adv-x="1600" 
d="M644 1275h-179l250 292h162l249 -292h-179l-151 179zM1034 0l-233 813l-235 -813h-186l-339 1106h184l248 -844l247 844h161l246 -844l248 844h185l-339 -1106h-187z" />
    <glyph glyph-name="Ycircumflex" unicode="&#x176;" horiz-adv-x="1176" 
d="M435 1644h-179l250 291h162l250 -291h-180l-151 179zM681 0h-183v613l-498 862h212l377 -653l376 653h212l-496 -862v-613z" />
    <glyph glyph-name="ycircumflex" unicode="&#x177;" horiz-adv-x="1101" 
d="M414 1275h-180l250 292h162l250 -292h-179l-152 179zM474 -492h-177l182 496l-448 1102h191l345 -870l324 870h185z" />
    <glyph glyph-name="Ydieresis" unicode="&#x178;" horiz-adv-x="1176" 
d="M882 1675h-185v185h185v-185zM480 1675h-184v185h184v-185zM681 0h-183v613l-498 862h212l377 -653l376 653h212l-496 -862v-613z" />
    <glyph glyph-name="Zacute" unicode="&#x179;" horiz-adv-x="1316" 
d="M874 1981l-134 -337h-148l134 337h148zM1214 0h-1112v173l881 1129h-881v173h1112v-173l-880 -1129h880v-173z" />
    <glyph glyph-name="zacute" unicode="&#x17a;" horiz-adv-x="1067" 
d="M722 1613l-134 -338h-159l134 338h159zM985 0h-944v172l711 762h-711v172h944v-172l-710 -762h710v-172z" />
    <glyph glyph-name="Zdotaccent" unicode="&#x17b;" horiz-adv-x="1316" 
d="M762 1704h-201v201h201v-201zM1214 0h-1112v173l881 1129h-881v173h1112v-173l-880 -1129h880v-173z" />
    <glyph glyph-name="zdotaccent" unicode="&#x17c;" horiz-adv-x="1067" 
d="M613 1335h-200v201h200v-201zM985 0h-944v172l711 762h-711v172h944v-172l-710 -762h710v-172z" />
    <glyph glyph-name="Zcaron" unicode="&#x17d;" horiz-adv-x="1316" 
d="M581 1644l-250 291h179l152 -179l151 179h179l-250 -291h-161zM1214 0h-1112v173l881 1129h-881v173h1112v-173l-880 -1129h880v-173z" />
    <glyph glyph-name="zcaron" unicode="&#x17e;" horiz-adv-x="1067" 
d="M432 1275l-250 292h179l152 -179l152 179h179l-250 -292h-162zM985 0h-944v172l711 762h-711v172h944v-172l-710 -762h710v-172z" />
    <glyph glyph-name="uni018F" unicode="&#x18f;" horiz-adv-x="1462" 
d="M717 -31q-300 0 -478 197t-178 530q0 41 7 110h1137q-17 252 -145 388t-353 136q-153 0 -266.5 -78t-156.5 -216l-185 38q68 207 228 318.5t385 111.5q317 0 503 -207.5t186 -559.5q0 -351 -185.5 -559.5t-498.5 -208.5zM1202 633h-944q5 -229 126 -359.5t327 -130.5
q212 0 340 129t151 361z" />
    <glyph glyph-name="florin" unicode="&#x192;" horiz-adv-x="1464" 
d="M337 -31q-126 0 -265 62l76 155l15 -6q92 -37 163 -37q94 0 156.5 69.5t84.5 208.5l39 242h-339v150h364l45 278q43 253 228 361q90 53 217 53q77 0 156.5 -20.5t115.5 -42.5l-85 -152q-18 13 -72 27t-102 14q-91 0 -166 -47q-80 -49 -99 -168l-50 -303h427v-150h-451
l-44 -269q-38 -223 -150 -323q-113 -102 -264 -102z" />
    <glyph glyph-name="Ohorn" unicode="&#x1a0;" horiz-adv-x="1499" 
d="M1299 1661q7 -49 7 -76q0 -47 -17 -103q-16 -51 -77 -88q-24 -13 -41 -19q130 -100 198.5 -264t68.5 -374q0 -229 -79 -401t-236 -269.5t-373 -97.5t-373 97.5t-236.5 270t-79.5 400.5t79.5 400.5t236.5 270t373 97.5q108 0 205 -25q44 -11 68 -11h5q28 0 56 13
q32 16 49 42.5t19.5 46.5t2.5 50q0 20 -1 30l-1 9zM750 143q241 0 367.5 160.5t126.5 433.5t-126.5 433.5t-367.5 160.5t-367 -160.5t-128 -433.5q-2 -272 126 -433t369 -161z" />
    <glyph glyph-name="ohorn" unicode="&#x1a1;" horiz-adv-x="1229" 
d="M1142 1290q6 -40 6 -75q0 -51 -16 -103t-77 -89q-38 -21 -71 -27q164 -161 164 -442q0 -263 -144.5 -424t-389.5 -161q-244 0 -388 162t-144 423q0 262 144.5 422.5t387.5 160.5q90 0 176 -26q46 -11 75 -12h4q33 0 58 13q24 11 39.5 28t21.5 38.5t7.5 35.5t1.5 37
q0 20 -1 30l-1 9h147zM614 142q164 0 252 110.5t88 301.5q0 193 -87.5 301.5t-252.5 108.5t-252 -109t-87 -301t88 -302t251 -110z" />
    <glyph glyph-name="Uhorn" unicode="&#x1af;" horiz-adv-x="1449" 
d="M1524 1659q5 -43 5 -71q0 -49 -17 -103q-16 -52 -74 -91q-50 -30 -109 -34q-3 0 -10.5 -1t-11.5 -1v-779q0 -289 -157 -449.5t-425 -160.5q-267 0 -424.5 160.5t-157.5 449.5v896h184v-891q0 -215 102 -329t296 -114q195 0 296.5 113.5t101.5 329.5v891h89q49 2 69 6
q33 6 54.5 22t29.5 39.5t10.5 41t2.5 41.5q0 22 -1 34h147z" />
    <glyph glyph-name="uhorn" unicode="&#x1b0;" horiz-adv-x="1236" 
d="M1134 1290h146q5 -43 5 -70q0 -53 -16 -104t-75 -91q-47 -30 -101 -34v-991h-183v160q-98 -191 -344 -191q-206 0 -324.5 124.5t-118.5 373.5v639h182v-607q0 -179 79 -268t221 -89t223.5 89t81.5 268v607h59q48 2 68 6q33 6 54.5 22t30 39.5t11 41t2.5 41.5q0 22 -1 34z
" />
    <glyph glyph-name="uni0218" unicode="&#x218;" horiz-adv-x="1290" 
d="M667 -31q-236 0 -397 119t-198 321l188 29q36 -142 144.5 -219t271.5 -77q158 0 256 72.5t98 188.5q0 153 -206 214l-375 112q-320 95 -320 364q0 183 143 297t369 114t376.5 -114.5t191.5 -316.5l-193 -34q-23 135 -124.5 213.5t-252.5 78.5q-142 0 -229.5 -65.5
t-87.5 -165.5q0 -78 56.5 -127.5t190.5 -87.5l279 -81q371 -105 371 -392q0 -199 -151.5 -321t-400.5 -122zM598 -495q37 0 70.5 22.5t33.5 66.5v8h-104v192h193v-192q0 -85 -56 -135.5t-137 -50.5v89z" />
    <glyph glyph-name="uni0219" unicode="&#x219;" horiz-adv-x="1086" 
d="M563 -30q-198 0 -321 84t-160 245l188 32q54 -198 296 -198q117 0 183.5 45.5t66.5 127.5q0 47 -23.5 78t-86.5 55q-65 24 -193 59q-96 25 -158.5 48.5t-121.5 60t-87.5 89t-28.5 122.5q0 141 119.5 230t309.5 89q185 0 308 -88t145 -236l-186 -34q-13 91 -86 143.5
t-188 52.5q-102 0 -170.5 -43t-68.5 -109q0 -42 37 -74t69 -44t104 -33q13 -4 19 -6q82 -22 214 -66q139 -45 200 -113t61 -175q0 -159 -118 -250.5t-323 -91.5zM458 -495q37 0 70.5 22.5t33.5 66.5v8h-104v192h192v-192q0 -86 -55.5 -136t-136.5 -50v89z" />
    <glyph glyph-name="uni021A" unicode="&#x21a;" horiz-adv-x="1228" 
d="M707 0h-184v1302h-503v173h1188v-173h-501v-1302zM518 -584v89q37 0 71 22.5t34 66.5v8h-105v192h193v-192q0 -85 -56 -135.5t-137 -50.5z" />
    <glyph glyph-name="uni021B" unicode="&#x21b;" horiz-adv-x="842" 
d="M245 934h-225v172h225v307h182v-307h334v-172h-334v-603q0 -89 37.5 -127t125.5 -38h171v-166h-214q-141 0 -221.5 76.5t-80.5 210.5v647zM352 -584v89q37 0 71 22.5t34 66.5v8h-105v192h193v-192q0 -85 -56 -135.5t-137 -50.5z" />
    <glyph glyph-name="uni0259" unicode="&#x259;" horiz-adv-x="1209" 
d="M591 966q-220 0 -311 -195l-178 58q66 148 193.5 228t295.5 80q243 0 389.5 -160t146.5 -424q0 -265 -145 -424.5t-387 -159.5q-252 0 -387.5 170t-122.5 465h847q-12 171 -102 266.5t-239 95.5zM928 458h-655q12 -155 96 -239t226 -84q140 0 226.5 84.5t106.5 238.5z
" />
    <glyph glyph-name="circumflex" unicode="&#x2c6;" horiz-adv-x="1112" 
d="M402 1644h-179l250 291h162l250 -291h-179l-152 179z" />
    <glyph glyph-name="caron" unicode="&#x2c7;" horiz-adv-x="1099" 
d="M473 1644l-250 291h179l152 -179l152 179h179l-250 -291h-162z" />
    <glyph glyph-name="breve" unicode="&#x2d8;" horiz-adv-x="1050" 
d="M525 1604q-76 0 -140 37t-101 102q-38 63 -38 140h147q0 -54 39 -93t93 -39q56 0 94 38.5t38 93.5h148q0 -76 -37 -140.5t-101 -101.5q-61 -37 -142 -37z" />
    <glyph glyph-name="dotaccent" unicode="&#x2d9;" horiz-adv-x="692" 
d="M446 1704h-200v201h200v-201z" />
    <glyph glyph-name="ring" unicode="&#x2da;" horiz-adv-x="1032" 
d="M516 1592q-95 0 -166 71t-71 167t71 166.5t166 70.5q96 0 167 -70.5t71 -166.5t-71 -167t-167 -71zM516 1717q46 0 79.5 33.5t33.5 79.5t-33.5 79.5t-79.5 33.5t-79.5 -33.5t-33.5 -79.5t33.5 -79.5t79.5 -33.5z" />
    <glyph glyph-name="ogonek" unicode="&#x2db;" horiz-adv-x="877" 
d="M449 -493q-84 0 -144 62t-60 146q0 98 83 205t209 181l90 -101q-96 -57 -163.5 -135.5t-67.5 -137.5q0 -33 21 -55t51 -22q45 0 88 45l74 -92q-72 -96 -181 -96z" />
    <glyph glyph-name="tilde" unicode="&#x2dc;" horiz-adv-x="1131" 
d="M725 1647q-41 0 -81 16.5t-102 55.5q-85 53 -124 53q-18 0 -30.5 -8.5t-17 -22t-5.5 -21t-1 -14.5q0 -20 6 -39h-123q-9 39 -9 72q0 28 10 68q9 40 51 73q41 32 107 32q40 0 79 -16.5t106 -55.5q83 -53 123 -53q33 0 44 23q10 21 10 43q0 19 -6 40h123q10 -37 10 -72
q0 -27 -9 -67q-10 -41 -52 -74q-40 -33 -109 -33z" />
    <glyph glyph-name="hungarumlaut" unicode="&#x2dd;" horiz-adv-x="1121" 
d="M896 1981l-134 -337h-149l135 337h148zM500 1981l-134 -337h-149l134 337h149z" />
    <glyph glyph-name="uni0374" unicode="&#x374;" horiz-adv-x="569" 
d="M406 1475l-135 -338h-148l134 338h149z" />
    <glyph glyph-name="uni0375" unicode="&#x375;" horiz-adv-x="569" 
d="M406 -120l-135 -338h-148l134 338h149z" />
    <glyph glyph-name="uni037E" unicode="&#x37e;" horiz-adv-x="651" 
d="M426 905h-201v201h201v-201zM225 -229l12 85q4 -1 12 -1q84 0 84 110v7q-1 5 -1 14t-1 14h-106v231h201v-262q0 -70 -23 -119t-61 -67q-38 -16 -73 -16q-24 0 -44 4z" />
    <glyph glyph-name="tonos" unicode="&#x384;" horiz-adv-x="1228" 
d="M745 1475l-134 -338h-148l134 338h148z" />
    <glyph glyph-name="dieresistonos" unicode="&#x385;" horiz-adv-x="1228" 
d="M776 1613l-134 -338h-148l134 338h148zM984 1306h-169v184h169v-184zM415 1306h-169v184h169v-184z" />
    <glyph glyph-name="Alphatonos" unicode="&#x386;" horiz-adv-x="1341" 
d="M797 1475l507 -1475h-193l-119 345h-626l-118 -345h-193l507 1475h235zM374 1475l-134 -338h-149l134 338h149zM424 516h510l-255 748z" />
    <glyph glyph-name="anoteleia" unicode="&#x387;" horiz-adv-x="1228" 
d="M249 522q-53 0 -89.5 35.5t-36.5 87.5q0 53 36.5 88t89.5 35q50 0 85 -35t35 -88q0 -51 -35 -87t-85 -36z" />
    <glyph glyph-name="Epsilontonos" unicode="&#x388;" horiz-adv-x="1478" 
d="M1376 0h-933v1475h933v-173h-749v-462h626v-173h-626v-494h749v-173zM319 1475l-134 -338h-148l134 338h148z" />
    <glyph glyph-name="Etatonos" unicode="&#x389;" horiz-adv-x="1715" 
d="M614 0h-183v1475h183v-651h776v651h183v-1475h-183v651h-776v-651zM308 1475l-134 -338h-148l134 338h148z" />
    <glyph glyph-name="Iotatonos" unicode="&#x38a;" horiz-adv-x="754" 
d="M611 0h-183v1475h183v-1475zM308 1475l-134 -338h-148l134 338h148z" />
    <glyph glyph-name="Omicrontonos" unicode="&#x38c;" horiz-adv-x="1707" 
d="M957 -31q-216 0 -373 97.5t-236 269.5t-79 401t79 401t236 269.5t373 97.5t373 -97.5t236.5 -270t79.5 -400.5t-79.5 -400.5t-236.5 -270t-373 -97.5zM325 1475l-135 -338h-148l134 338h149zM957 143q241 0 368 160.5t127 433.5t-127 433.5t-368 160.5
q-161 0 -273.5 -75.5t-166 -207.5t-54.5 -311q-2 -272 125.5 -433t368.5 -161z" />
    <glyph glyph-name="Upsilontonos" unicode="&#x38e;" horiz-adv-x="1585" 
d="M1090 0h-184v613l-497 862h212l376 -653l376 653h212l-495 -862v-613zM340 1475l-134 -338h-149l134 338h149z" />
    <glyph glyph-name="Omegatonos" unicode="&#x38f;" horiz-adv-x="1734" 
d="M784 0h-497v173h256q-128 106 -197.5 260.5t-69.5 341.5q0 205 85 373q84 166 241 261q155 95 363 95t363 -95q158 -97 241 -261q84 -167 84 -373q0 -187 -69.5 -341.5t-197.5 -260.5h255v-173h-493l1 173q80 41 149 121.5t113 192.5q47 116 48 253v16q0 153 -58 284
q-59 132 -171 211q-115 79 -265 79q-148 0 -261 -77t-174 -213q-60 -134 -60 -294q0 -137 45.5 -254t120.5 -200q73 -79 148 -119v-173zM334 1475l-134 -338h-149l134 338h149z" />
    <glyph glyph-name="iotadieresistonos" unicode="&#x390;" horiz-adv-x="863" 
d="M550 1613l-134 -338h-149l134 338h149zM758 1306h-169v184h169v-184zM188 1306h-169v184h169v-184zM781 166v-166h-215q-141 0 -221 76.5t-80 210.5v818h182v-774q0 -89 37.5 -127t125.5 -38h171z" />
    <glyph glyph-name="Alpha" unicode="&#x391;" horiz-adv-x="1324" 
d="M779 1475l507 -1475h-192l-119 345h-627l-118 -345h-192l507 1475h234zM407 516h509l-254 748z" />
    <glyph glyph-name="Beta" unicode="&#x392;" horiz-adv-x="1267" 
d="M654 0h-533v1475h518q220 0 353 -97t133 -285q0 -131 -65 -215t-160 -115q49 -9 96 -36.5t87 -70.5t64.5 -107.5t24.5 -140.5q0 -105 -39 -184.5t-110 -128t-163.5 -72t-205.5 -23.5zM642 1302h-338v-457h370q120 0 192.5 58t72.5 175q0 224 -297 224zM304 173h350
q74 0 131.5 12t104.5 39.5t72 78.5t25 123q0 67 -25 116.5t-69 77.5t-97.5 41.5t-117.5 13.5h-374v-502z" />
    <glyph glyph-name="Gamma" unicode="&#x393;" horiz-adv-x="1095" 
d="M326 0h-184v1475h933v-173h-749v-1302z" />
    <glyph glyph-name="uni0394" unicode="&#x394;" horiz-adv-x="1323" 
d="M41 0l494 1475h253l494 -1475h-1241zM659 1281l-370 -1108h745z" />
    <glyph glyph-name="Epsilon" unicode="&#x395;" horiz-adv-x="1177" 
d="M1067 0h-933v1475h933v-173h-750v-462h627v-173h-627v-494h750v-173z" />
    <glyph glyph-name="Zeta" unicode="&#x396;" horiz-adv-x="1291" 
d="M1214 0h-1112v173l881 1129h-881v173h1112v-173l-880 -1129h880v-173z" />
    <glyph glyph-name="Eta" unicode="&#x397;" horiz-adv-x="1427" 
d="M327 0h-184v1475h184v-651h775v651h183v-1475h-183v651h-775v-651z" />
    <glyph glyph-name="Theta" unicode="&#x398;" horiz-adv-x="1499" 
d="M750 -31q-216 0 -373 97.5t-236.5 270t-79.5 400.5t79.5 400.5t236.5 270t373 97.5t373 -97.5t236 -269.5t79 -401t-79 -401t-236 -269.5t-373 -97.5zM750 143q241 0 367.5 160.5t126.5 433.5t-126.5 433.5t-367.5 160.5t-367 -160.5t-128 -433.5q-2 -272 126 -433
t369 -161zM487 663v149h525v-149h-525z" />
    <glyph glyph-name="Iota" unicode="&#x399;" horiz-adv-x="509" 
d="M346 0h-183v1475h183v-1475z" />
    <glyph glyph-name="Kappa" unicode="&#x39a;" horiz-adv-x="1252" 
d="M142 0v1475h184v-696l645 696h229l-670 -716l722 -759h-235l-691 723v-723h-184z" />
    <glyph glyph-name="Lambda" unicode="&#x39b;" horiz-adv-x="1269" 
d="M532 1475h235l507 -1475h-193l-432 1264l-431 -1264h-192z" />
    <glyph glyph-name="Mu" unicode="&#x39c;" horiz-adv-x="1731" 
d="M352 0h-183v1475h181l516 -1090l513 1090h184v-1474h-184v1094l-431 -920h-164l-432 920v-1095z" />
    <glyph glyph-name="Nu" unicode="&#x39d;" horiz-adv-x="1424" 
d="M327 0h-184v1475h184l771 -1159v1159h183v-1475h-183l-771 1158v-1158z" />
    <glyph glyph-name="Xi" unicode="&#x39e;" horiz-adv-x="1437" 
d="M1294 1302h-1151v173h1151v-173zM1192 651h-946v173h946v-173zM1294 0h-1151v173h1151v-173z" />
    <glyph glyph-name="Omicron" unicode="&#x39f;" horiz-adv-x="1499" 
d="M750 -31q-216 0 -373 97.5t-236.5 270t-79.5 400.5t79.5 400.5t236.5 270t373 97.5t373 -97.5t236 -269.5t79 -401t-79 -401t-236 -269.5t-373 -97.5zM750 143q241 0 367.5 160.5t126.5 433.5t-126.5 433.5t-367.5 160.5t-367 -160.5t-128 -433.5q-2 -272 126 -433
t369 -161z" />
    <glyph glyph-name="Pi" unicode="&#x3a0;" horiz-adv-x="1437" 
d="M364 0h-184v1475h1111v-1475h-183v1302h-744v-1302z" />
    <glyph glyph-name="Rho" unicode="&#x3a1;" horiz-adv-x="1260" 
d="M326 0h-184v1475h558q239 0 369 -123.5t130 -341.5q0 -217 -130.5 -341t-368.5 -124h-374v-545zM326 1302v-584h373q149 0 231.5 77t82.5 215t-82.5 215t-231.5 77h-373z" />
    <glyph glyph-name="Sigma" unicode="&#x3a3;" horiz-adv-x="1320" 
d="M378 1302l537 -547v-35l-537 -547h780v-173h-1015v171l563 566l-563 567v171h1015v-173h-780z" />
    <glyph glyph-name="Tau" unicode="&#x3a4;" horiz-adv-x="1228" 
d="M686 0h-183v1302h-452v173h1081v-173h-446v-1302z" />
    <glyph glyph-name="Upsilon" unicode="&#x3a5;" horiz-adv-x="1176" 
d="M681 0h-183v613l-498 862h212l377 -653l376 653h212l-496 -862v-613z" />
    <glyph glyph-name="Phi" unicode="&#x3a6;" horiz-adv-x="1561" 
d="M690 0v140q-125 4 -237.5 45t-200.5 114t-139.5 186.5t-51.5 251.5t51.5 251.5t139.5 186.5t200.5 114t237.5 45v141h183v-141q125 -4 237.5 -45t200.5 -114t139.5 -186.5t51.5 -251.5t-51.5 -251.5t-139.5 -186.5t-200.5 -114t-237.5 -45v-140h-183zM873 1163v-852
q194 6 318 121.5t124 304.5t-124 304.5t-318 121.5zM690 311v852q-193 -6 -317 -121t-124 -305t124 -305t317 -121z" />
    <glyph glyph-name="Chi" unicode="&#x3a7;" horiz-adv-x="1274" 
d="M244 0h-224l507 746l-493 729h222l382 -575l381 575h223l-493 -729l505 -746h-222l-394 592z" />
    <glyph glyph-name="Psi" unicode="&#x3a8;" horiz-adv-x="1490" 
d="M654 0v346q-185 6 -310.5 93.5t-173.5 248.5q-27 81 -27 182v605h173v-538q0 -93 17 -169q31 -121 114 -185.5t207 -66.5v959h183v-959q125 2 211 70t112 190q15 70 15 161v538h173v-605q0 -98 -27 -180q-49 -162 -174.5 -249.5t-309.5 -94.5v-346h-183z" />
    <glyph glyph-name="uni03A9" unicode="&#x3a9;" horiz-adv-x="1499" 
d="M569 0h-497v173h256q-128 106 -197.5 260.5t-69.5 341.5q0 205 85 373q84 166 241 261q155 95 363 95t363 -95q158 -97 241 -261q84 -167 84 -373q0 -187 -69.5 -341.5t-197.5 -260.5h255v-173h-493l1 173q80 41 149 121.5t113 192.5q47 116 48 253v16q0 153 -58 284
q-59 132 -171 211q-115 79 -265 79q-148 0 -261 -77t-174 -213q-60 -134 -60 -294q0 -137 45.5 -254t120.5 -200q73 -79 148 -119v-173z" />
    <glyph glyph-name="Iotadieresis" unicode="&#x3aa;" horiz-adv-x="509" 
d="M548 1675h-184v185h184v-185zM146 1675h-184v185h184v-185zM346 0h-182v1475h182v-1475z" />
    <glyph glyph-name="Upsilondieresis" unicode="&#x3ab;" horiz-adv-x="1176" 
d="M882 1675h-185v185h185v-185zM480 1675h-184v185h184v-185zM681 0h-184v613l-497 862h212l377 -653l376 653h212l-496 -862v-613z" />
    <glyph glyph-name="alphatonos" unicode="&#x3ac;" 
d="M824 1613l-134 -338h-148l134 338h148zM954 1106h183v-1106h-183v173q-113 -204 -369 -204q-151 0 -265.5 74.5t-176 206.5t-61.5 302q0 261 138 423t365 162q255 0 369 -204v173zM615 964q-166 0 -253 -111.5t-87 -300.5q0 -191 87 -300.5t253 -109.5q168 0 253.5 110.5
t85.5 299.5q0 191 -87.5 301.5t-251.5 110.5z" />
    <glyph glyph-name="epsilontonos" unicode="&#x3ad;" horiz-adv-x="1061" 
d="M729 1613l-134 -338h-149l135 338h148zM532 -31q-210 0 -330 95.5t-120 252.5q0 93 48.5 162t124.5 93q-143 64 -143 229q0 157 111.5 246.5t310.5 89.5q378 0 458 -328l-174 -32q-49 197 -280 197q-120 0 -183 -47.5t-63 -135.5q0 -71 50.5 -109.5t143.5 -38.5h170v-150
h-170q-102 0 -162.5 -42.5t-60.5 -131.5q0 -88 71.5 -137.5t203.5 -49.5q263 0 299 232l174 -32q-31 -182 -155.5 -272.5t-323.5 -90.5z" />
    <glyph glyph-name="etatonos" unicode="&#x3ae;" horiz-adv-x="1238" 
d="M848 1613l-134 -338h-149l134 338h149zM931 0v608q0 179 -79 267.5t-221 88.5t-223.5 -88.5t-81.5 -267.5v-608h-183v1106h183v-160q98 191 344 191q207 0 325 -124.5t118 -373.5v-639h-182z" />
    <glyph glyph-name="iotatonos" unicode="&#x3af;" horiz-adv-x="761" 
d="M333 1275h-149l134 338h149zM680 166v-166h-215q-141 0 -221 76.5t-80 210.5v818h182v-774q0 -89 37.5 -127t125.5 -38h171z" />
    <glyph glyph-name="upsilondieresistonos" unicode="&#x3b0;" horiz-adv-x="1214" 
d="M768 1613l-134 -338h-149l135 338h148zM976 1306h-169v184h169v-184zM407 1306h-169v184h169v-184zM123 505v601h184v-554q0 -250 122 -351q66 -57 178 -57q107 0 176 53.5t98 146.5q26 89 26 208v554h185v-601q0 -159 -43.5 -271.5t-146.5 -185.5q-109 -77 -295 -77
t-295 77q-105 73 -148 192q-41 113 -41 265z" />
    <glyph glyph-name="alpha" unicode="&#x3b1;" 
d="M954 1106h183v-1106h-183v173q-113 -204 -369 -204q-151 0 -265.5 74.5t-176 206.5t-61.5 302q0 261 138 423t365 162q255 0 369 -204v173zM615 964q-166 0 -253 -111.5t-87 -300.5q0 -191 87 -300.5t253 -109.5q168 0 253.5 110.5t85.5 299.5q0 191 -87.5 301.5
t-251.5 110.5z" />
    <glyph glyph-name="beta" unicode="&#x3b2;" horiz-adv-x="1186" 
d="M142 -492v1598q0 78 23 145q41 122 148 188t253 66q127 0 226 -49.5t154 -140.5q54 -90 54 -211q0 -102 -40.5 -179t-118.5 -115q119 -30 202 -134.5t83 -260.5q0 -202 -135 -324t-366 -122q-185 0 -300 93v-554h-183zM633 142q136 0 222 78t86 203q0 132 -98.5 204
t-271.5 75v164q114 12 178.5 72.5t64.5 163.5q0 106 -68 168t-176 62q-77 0 -135 -33.5t-83 -98.5q-23 -61 -23 -162v-599q0 -83 15 -133q24 -74 106 -119t183 -45z" />
    <glyph glyph-name="gamma" unicode="&#x3b3;" horiz-adv-x="1071" 
d="M629 -369h-187v369l-401 1106h185l310 -874l310 874h184l-401 -1106v-369z" />
    <glyph glyph-name="delta" unicode="&#x3b4;" horiz-adv-x="1229" 
d="M611 -30q-159 0 -279.5 65.5t-185.5 184.5q-64 118 -64 275q0 158 65 276.5t185 177.5q53 25 109 35q-79 38 -133 92q-66 68 -66 173q0 92 54 161t164 87q37 8 125 8h421v-151h-380q-70 0 -107 -9q-96 -25 -96 -103q0 -82 143 -139q57 -23 189 -66q9 -3 28.5 -10.5
t28.5 -10.5q40 -13 86 -38q120 -67 185 -189t65 -280q0 -159 -65 -281t-186 -189q-121 -69 -286 -69zM615 143q158 0 242.5 98t84.5 270t-84.5 267t-242.5 95q-159 0 -242.5 -96.5t-83.5 -267.5q0 -172 84.5 -269t241.5 -97z" />
    <glyph glyph-name="epsilon" unicode="&#x3b5;" horiz-adv-x="1046" 
d="M513 -31q-210 0 -330 95.5t-120 252.5q0 93 49 162t125 93q-144 63 -144 229q0 157 111 246.5t310 89.5q83 0 153.5 -17t132.5 -54t107 -102t66 -155l-174 -32q-49 197 -281 197q-120 0 -183 -47.5t-63 -135.5q0 -71 51 -109.5t144 -38.5h170v-150h-170
q-102 0 -162.5 -42.5t-60.5 -131.5q0 -88 71.5 -137.5t203.5 -49.5q129 0 205 58.5t94 173.5l173 -32q-32 -183 -155.5 -273t-322.5 -90z" />
    <glyph glyph-name="zeta" unicode="&#x3b6;" horiz-adv-x="1047" 
d="M1019 -246h-163q1 10 1 30q0 174 -120 201q-60 13 -176 15h-14q-153 0 -249.5 33.5t-155.5 116.5q-60 84 -60 235q0 89 25.5 167.5t88.5 171.5q64 94 183 219q45 45 82 79q12 12 93 84q65 67 92 96q16 17 34 35.5t38.5 39t31.5 32.5h-607v166h884v-144l-164 -166
q-191 -185 -307 -293q-161 -159 -221.5 -262t-60.5 -209q0 -91 41 -141.5t121 -70.5q77 -18 202 -18q117 0 189 -20q71 -19 120.5 -69t64.5 -114q15 -63 15 -115q0 -43 -8 -99z" />
    <glyph glyph-name="eta" unicode="&#x3b7;" horiz-adv-x="1235" 
d="M931 -388v996q0 179 -79 267.5t-221 88.5t-223.5 -88.5t-81.5 -267.5v-608h-183v1106h183v-160q98 191 344 191q207 0 325 -124.5t118 -373.5v-1027h-182z" />
    <glyph glyph-name="theta" unicode="&#x3b8;" horiz-adv-x="1366" 
d="M683 -31q-187 0 -323.5 98.5t-207.5 275.5q-70 177 -70 394q0 218 70 395q68 172 205 273q133 99 326 99q188 0 325 -97.5t207 -274.5q69 -174 69 -395q0 -226 -69.5 -399t-203.5 -270q-137 -99 -328 -99zM279 812h810q-7 124 -43 228q-46 137 -139.5 213.5t-223.5 76.5
q-129 0 -221 -76t-139 -213q-37 -107 -44 -229zM683 143q130 0 222 76.5t138 213.5q37 107 44 230h-809q8 -126 43 -229q47 -137 140 -214t222 -77z" />
    <glyph glyph-name="iota" unicode="&#x3b9;" horiz-adv-x="761" 
d="M680 166v-166h-215q-141 0 -221 76.5t-80 210.5v818h182v-774q0 -89 37.5 -127t125.5 -38h171z" />
    <glyph glyph-name="kappa" unicode="&#x3ba;" horiz-adv-x="1044" 
d="M143 0v1106h183v-533l464 533h236l-488 -553l545 -553h-255l-502 532v-532h-183z" />
    <glyph glyph-name="lambda" unicode="&#x3bb;" horiz-adv-x="1112" 
d="M82 0l401 1106q-12 33 -21 56q-31 73 -57.5 109t-66.5 55q-44 19 -109 19h-52v160h71q84 0 136 -12q128 -27 200 -173q25 -47 68 -165q2 -7 8.5 -23.5t9.5 -25.5l401 -1106h-185l-309 873l-311 -873h-184z" />
    <glyph glyph-name="uni03BC" unicode="&#x3bc;" horiz-adv-x="1257" 
d="M931 1106h183v-1106h-183v160q-98 -191 -344 -191q-154 0 -261 70l1 -531h-185v1598h185v-635q6 -165 84.5 -247t214.5 -82q142 0 223.5 89t81.5 268v607z" />
    <glyph glyph-name="nu" unicode="&#x3bd;" horiz-adv-x="1071" 
d="M629 0h-187l-401 1106h185l310 -876l310 876h184z" />
    <glyph glyph-name="xi" unicode="&#x3be;" horiz-adv-x="1152" 
d="M633 0q-256 -3 -401.5 112.5t-145.5 319.5q0 118 65.5 208.5t182.5 118.5q-96 41 -149.5 122.5t-53.5 189.5q0 137 91 231h-136v173h883v-173h-392q-123 0 -191.5 -58.5t-68.5 -167.5q0 -110 68 -171.5t188 -61.5h254v-174h-264q-136 0 -211.5 -61t-75.5 -175
q0 -91 50 -150.5t134.5 -85t202.5 -24.5q155 2 243.5 -9t144.5 -49q133 -88 82 -353h-161q10 86 -4 134t-56 72q-65 35 -279 32z" />
    <glyph glyph-name="omicron" unicode="&#x3bf;" horiz-adv-x="1229" 
d="M614 -31q-244 0 -388 162t-144 423q0 262 144.5 422.5t387.5 160.5q245 0 389.5 -161t144.5 -422q0 -263 -144.5 -424t-389.5 -161zM614 142q164 0 252 110.5t88 301.5q0 193 -87.5 301.5t-252.5 108.5t-252 -109t-87 -301t88 -302t251 -110z" />
    <glyph glyph-name="pi" unicode="&#x3c0;" horiz-adv-x="1353" 
d="M449 0h-183v940h-205v166h1231v-166h-205v-940h-182v940h-456v-940z" />
    <glyph glyph-name="rho" unicode="&#x3c1;" horiz-adv-x="1290" 
d="M325 -492h-183v1046q0 262 145.5 422.5t387.5 160.5q246 0 389.5 -161.5t143.5 -421.5q0 -262 -137.5 -423.5t-364.5 -161.5q-270 0 -381 226v-687zM675 142q166 0 253 111.5t87 300.5q0 191 -87 300.5t-253 109.5q-168 0 -253.5 -110.5t-85.5 -299.5q0 -191 87.5 -301.5
t251.5 -110.5z" />
    <glyph glyph-name="uni03C2" unicode="&#x3c2;" horiz-adv-x="1148" 
d="M1039 -246h-162q1 10 1 30q0 173 -121 198q-60 13 -189 18h-11q-163 6 -271.5 77t-156.5 190q-47 112 -47 261q0 285 139.5 447t385.5 162q178 0 304.5 -85.5t170.5 -236.5l-180 -54q-36 96 -114 149.5t-185 53.5q-155 0 -235 -112t-82 -302q0 -226 124 -322
q70 -55 203 -57h9q153 0 225 -20q111 -30 157 -115q44 -82 44 -180q0 -37 -9 -102z" />
    <glyph glyph-name="sigma" unicode="&#x3c3;" horiz-adv-x="1260" 
d="M614 -31q-156 0 -277.5 73.5t-188.5 204.5q-66 130 -66 292q0 216 113 367t303 188q61 12 239 12h472v-166h-205q51 -54 90 -136q54 -120 54 -265q0 -163 -66.5 -293t-187.5 -203q-122 -74 -280 -74zM614 142q161 0 250.5 109t89.5 288q0 177 -89.5 285.5t-250.5 108.5
h-4q-159 0 -247 -109t-88 -285q0 -181 90 -289t249 -108z" />
    <glyph glyph-name="tau" unicode="&#x3c4;" horiz-adv-x="1085" 
d="M51 940v166h953v-166h-386v-609q0 -89 37.5 -127t125.5 -38h171v-166h-214q-141 0 -221.5 76.5t-80.5 210.5v653h-385z" />
    <glyph glyph-name="upsilon" unicode="&#x3c5;" horiz-adv-x="1214" 
d="M123 505v601h184v-554q0 -250 122 -351q66 -57 178 -57q107 0 176 53.5t98 146.5q26 89 26 208v554h185v-601q0 -159 -43.5 -271.5t-146.5 -185.5q-109 -77 -295 -77t-295 77q-105 73 -148 192q-41 113 -41 265z" />
    <glyph glyph-name="phi" unicode="&#x3c6;" horiz-adv-x="1555" 
d="M686 -461v443q-127 3 -235 40t-191 106t-130.5 178t-47.5 246q0 184 81.5 312.5t223.5 195.5l83 -155q-96 -48 -148.5 -138.5t-52.5 -214.5q0 -185 113 -290.5t304 -109.5v972h182q126 -2 234.5 -39.5t192 -106.5t131 -178.5t47.5 -247.5q0 -137 -47.5 -246.5
t-131 -178.5t-192 -106t-234.5 -39v-443h-182zM868 955v-803q191 3 304 109t113 291t-113 292t-304 111z" />
    <glyph glyph-name="chi" unicode="&#x3c7;" horiz-adv-x="1097" 
d="M239 0h-219l423 559l-413 547h217l303 -406l300 406h217l-414 -547l424 -559h-218l-309 418z" />
    <glyph glyph-name="psi" unicode="&#x3c8;" horiz-adv-x="1449" 
d="M637 -461v416q-183 6 -312 94.5t-175 247.5q-27 80 -27 182v627h173v-560q0 -105 16 -169q30 -120 117 -185t208 -67v981h176v-981q121 2 211 71t116 189q14 65 14 161v560h173v-627q0 -99 -27 -180q-47 -159 -175.5 -248.5t-311.5 -95.5v-416h-176z" />
    <glyph glyph-name="omega" unicode="&#x3c9;" horiz-adv-x="1604" 
d="M503 -32q-132 0 -227.5 69t-145.5 193q-48 122 -48 276q0 213 86.5 373.5t256.5 257.5l119 -150q-141 -89 -205 -202t-64 -270q0 -166 65 -269.5t183 -103.5q149 0 180 169q14 78 14 196v195h171v-187q0 -131 14 -205t55 -120q42 -48 124 -48q120 0 184 103.5t64 269.5
q0 163 -62.5 272t-205.5 200l119 150q171 -97 257 -258.5t86 -373.5q0 -158 -48.5 -278.5t-142.5 -188.5q-94 -70 -229 -70q-119 0 -204 61q-64 44 -97 128q-34 -85 -96 -128q-85 -61 -203 -61z" />
    <glyph glyph-name="iotadieresis" unicode="&#x3ca;" horiz-adv-x="741" 
d="M364 1307v184h184v-184h-184zM-38 1307v184h184v-184h-184zM680 166v-166h-215q-141 0 -221 76.5t-80 210.5v818h182v-774q0 -89 37.5 -127t125.5 -38h171z" />
    <glyph glyph-name="upsilondieresis" unicode="&#x3cb;" horiz-adv-x="1214" 
d="M900 1307h-184v184h184v-184zM499 1307h-185v184h185v-184zM123 505v601h184v-554q0 -250 122 -351q66 -57 178 -57q107 0 176 53.5t98 146.5q26 89 26 208v554h185v-601q0 -159 -43.5 -271.5t-146.5 -185.5q-109 -77 -295 -77t-295 77q-105 73 -148 192q-41 113 -41 265
z" />
    <glyph glyph-name="omicrontonos" unicode="&#x3cc;" horiz-adv-x="1229" 
d="M689 1275h-148l134 338h148zM614 -31q-244 0 -388 162t-144 423q0 262 144.5 422.5t387.5 160.5q245 0 389.5 -161t144.5 -422q0 -263 -144.5 -424t-389.5 -161zM614 142q164 0 252 110.5t88 301.5q0 193 -87.5 301.5t-252.5 108.5t-252 -109t-87 -301t88 -302t251 -110z
" />
    <glyph glyph-name="upsilontonos" unicode="&#x3cd;" horiz-adv-x="1214" 
d="M787 1613l-134 -338h-148l134 338h148zM123 505v601h184v-554q0 -250 122 -351q66 -57 178 -57q107 0 176 53.5t98 146.5q26 89 26 208v554h185v-601q0 -159 -43.5 -271.5t-146.5 -185.5q-109 -77 -295 -77t-295 77q-105 73 -148 192q-41 113 -41 265z" />
    <glyph glyph-name="omegatonos" unicode="&#x3ce;" horiz-adv-x="1604" 
d="M974 1613l-134 -338h-149l134 338h149zM503 -32q-132 0 -227.5 69t-145.5 193q-48 122 -48 276q0 213 86.5 373.5t256.5 257.5l119 -150q-141 -89 -205 -202t-64 -270q0 -166 65 -269.5t183 -103.5q149 0 180 169q14 78 14 196v195h171v-187q0 -131 14 -205t55 -120
q42 -48 124 -48q120 0 184 103.5t64 269.5q0 163 -62.5 272t-205.5 200l119 150q171 -97 257 -258.5t86 -373.5q0 -158 -48.5 -278.5t-142.5 -188.5q-94 -70 -229 -70q-119 0 -204 61q-64 44 -97 128q-34 -85 -96 -128q-85 -61 -203 -61z" />
    <glyph glyph-name="uni0400" unicode="&#x400;" horiz-adv-x="1178" 
d="M713 1644h-149l-134 337h149zM1076 0h-933v1475h933v-173h-749v-462h626v-173h-626v-494h749v-173z" />
    <glyph glyph-name="uni0401" unicode="&#x401;" horiz-adv-x="1178" 
d="M887 1675h-185v185h185v-185zM485 1675h-184v185h184v-185zM1076 0h-933v1475h933v-173h-749v-462h626v-173h-626v-494h749v-173z" />
    <glyph glyph-name="uni0402" unicode="&#x402;" horiz-adv-x="1446" 
d="M256 1309h-256v166h755v-166h-316v-452q71 58 176 85.5t211 27.5q256 0 397.5 -128t141.5 -360q0 -237 -138.5 -359.5t-414.5 -122.5h-78v173h65q196 0 288 74.5t92 234.5q0 312 -380 312q-103 0 -201 -28.5t-159 -91.5v-674h-183v1309z" />
    <glyph glyph-name="uni0403" unicode="&#x403;" horiz-adv-x="1096" 
d="M805 1981l-134 -337h-149l134 337h149zM327 0h-184v1475h933v-173h-749v-1302z" />
    <glyph glyph-name="uni0404" unicode="&#x404;" horiz-adv-x="1471" 
d="M761 -31q-213 0 -367 102q-156 102 -233 273q-79 175 -79 382v11q3 232 84 405t232 268q152 95 363 95q252 0 423 -133t226 -375l-184 -26q-40 166 -160 262t-296 97h-9q-138 0 -243 -61.5t-166 -176.5q-59 -114 -73 -268h705v-173h-704q14 -205 112 -335
q125 -168 378 -173h5q161 0 280.5 91.5t165.5 249.5l179 -46q-61 -225 -228 -347t-411 -122z" />
    <glyph glyph-name="uni0405" unicode="&#x405;" horiz-adv-x="1290" 
d="M667 -31q-236 0 -397 119t-198 321l188 29q36 -142 144.5 -219t271.5 -77q158 0 256 72.5t98 188.5q0 153 -206 214l-375 112q-320 95 -320 364q0 183 143 297t369 114t376.5 -114.5t191.5 -316.5l-193 -34q-23 135 -124.5 213.5t-252.5 78.5q-142 0 -229.5 -65.5
t-87.5 -165.5q0 -78 56.5 -127.5t190.5 -87.5l279 -81q371 -105 371 -392q0 -199 -151.5 -321t-400.5 -122z" />
    <glyph glyph-name="uni0406" unicode="&#x406;" horiz-adv-x="509" 
d="M346 0h-183v1475h183v-1475z" />
    <glyph glyph-name="uni0407" unicode="&#x407;" horiz-adv-x="509" 
d="M548 1675h-184v185h184v-185zM146 1675h-184v185h184v-185zM347 0h-183v1475h183v-1475z" />
    <glyph glyph-name="uni0408" unicode="&#x408;" horiz-adv-x="974" 
d="M410 -30q-153 0 -261.5 83.5t-148.5 226.5l181 43q17 -76 80.5 -128t144.5 -52q58 0 111.5 28t81.5 84q13 25 19 60t7 62.5t1 85.5v1012h183v-1012q0 -102 -9.5 -170.5t-38.5 -127.5q-97 -195 -351 -195z" />
    <glyph glyph-name="uni0409" unicode="&#x409;" horiz-adv-x="2223" 
d="M1268 1475v-545h374q239 0 369 -123.5t130 -341.5t-130 -341.5t-369 -123.5h-558v1302h-631v-587q0 -212 -20.5 -359.5t-61 -230.5t-93.5 -119t-125 -36q-46 0 -112 17v161q27 -7 54 -7q33 0 59 12t45.5 41t33 61t22.5 90t14.5 108t8 134.5t3 151.5t0.5 175v561h987z
M1268 173h373q149 0 231.5 77t82.5 215t-82.5 215t-231.5 77h-373v-584z" />
    <glyph glyph-name="uni040A" unicode="&#x40a;" horiz-adv-x="2239" 
d="M327 0h-184v1475h184v-651h774v651h183v-545h375q239 0 369 -123.5t130 -341.5t-130 -341.5t-369 -123.5h-558v651h-774v-651zM1284 173h374q149 0 231 77t82 215t-82 215t-231 77h-374v-584z" />
    <glyph glyph-name="uni040B" unicode="&#x40b;" horiz-adv-x="1483" 
d="M257 1309h-257v166h755v-166h-315v-452q71 58 176 85.5t211 27.5q261 0 400 -136t139 -411v-423h-184v352q0 231 -88 336.5t-294 105.5q-104 0 -201.5 -28.5t-158.5 -91.5v-674h-183v1309z" />
    <glyph glyph-name="uni040C" unicode="&#x40c;" horiz-adv-x="1253" 
d="M721 1644h-149l135 337h148zM143 0v1475h184v-696l645 696h229l-670 -716l722 -759h-235l-691 723v-723h-184z" />
    <glyph glyph-name="uni040D" unicode="&#x40d;" horiz-adv-x="1424" 
d="M810 1644h-148l-135 337h149zM1281 0h-183v1158l-771 -1158h-184v1475h184v-1159l771 1159h183v-1475z" />
    <glyph glyph-name="uni040E" unicode="&#x40e;" horiz-adv-x="1222" 
d="M631 1604q-76 0 -140.5 37t-101.5 102q-38 63 -38 140h148q0 -54 39 -93t93 -39q56 0 94 38.5t38 93.5h147q0 -76 -37 -140.5t-101 -101.5q-61 -37 -141 -37zM1197 1475l-707 -1475h-196l234 493l-497 982h201l391 -786l374 786h200z" />
    <glyph glyph-name="uni040F" unicode="&#x40f;" horiz-adv-x="1397" 
d="M791 -276h-183v276h-465v1475h184v-1302h744v1302h183v-1475h-463v-276z" />
    <glyph glyph-name="uni0410" unicode="&#x410;" horiz-adv-x="1324" 
d="M779 1476l507 -1475h-192l-119 345h-627l-118 -345h-192l507 1475h234zM407 517h509l-254 748z" />
    <glyph glyph-name="uni0411" unicode="&#x411;" horiz-adv-x="1261" 
d="M143 0v1475h937v-173h-753v-403h381q234 0 363 -123t129 -326t-129 -326.5t-363 -123.5h-565zM327 173h360q161 0 244 75.5t83 201.5t-82.5 201t-244.5 75h-360v-553z" />
    <glyph glyph-name="uni0412" unicode="&#x412;" horiz-adv-x="1255" 
d="M677 0h-534v1475h519q220 0 353 -97t133 -285q0 -131 -65 -215t-160 -115q49 -9 96 -36.5t87 -70.5t64.5 -107.5t24.5 -140.5q0 -105 -39 -184.5t-110 -128t-163.5 -72t-205.5 -23.5zM665 1302h-338v-457h369q120 0 193 58t73 175q0 224 -297 224zM327 173h350
q74 0 131.5 12t104.5 39.5t72 78.5t25 123q0 67 -25 116.5t-69.5 77.5t-98 41.5t-117.5 13.5h-373v-502z" />
    <glyph glyph-name="uni0413" unicode="&#x413;" horiz-adv-x="1096" 
d="M327 0h-184v1475h933v-173h-749v-1302z" />
    <glyph glyph-name="uni0414" unicode="&#x414;" horiz-adv-x="1551" 
d="M72 -276v449h123q65 78 88 286.5t23 528.5v487h998v-1302h165v-449h-183v276h-1032v-276h-182zM391 173h729v1129h-641v-432q0 -249 -24 -434t-64 -263z" />
    <glyph glyph-name="uni0415" unicode="&#x415;" horiz-adv-x="1178" 
d="M1076 0h-933v1475h933v-173h-749v-462h626v-173h-626v-494h749v-173z" />
    <glyph glyph-name="uni0416" unicode="&#x416;" horiz-adv-x="2077" 
d="M948 0v723l-691 -723h-235l721 759l-669 716h229l645 -696v696h184v-696l645 696h229l-670 -716l722 -759h-235l-691 723v-723h-184z" />
    <glyph glyph-name="uni0417" unicode="&#x417;" horiz-adv-x="1290" 
d="M1219 423q0 -147 -73 -251t-195 -153.5t-281 -49.5q-233 0 -391 110t-207 330l188 29q44 -150 142.5 -223t270.5 -73q156 0 254.5 71.5t98.5 203.5q0 120 -83 185.5t-211 65.5h-262v174h251q124 0 193 67t69 174q0 119 -92.5 183.5t-232.5 64.5q-306 0 -369 -292l-194 34
q50 220 199 325.5t368 105.5q148 0 261.5 -46.5t180.5 -143.5t67 -234q0 -111 -54 -197.5t-141 -125.5q98 -27 170.5 -120t72.5 -214z" />
    <glyph glyph-name="uni0418" unicode="&#x418;" horiz-adv-x="1424" 
d="M1281 0h-183v1158l-771 -1158h-184v1475h184v-1159l771 1159h183v-1475z" />
    <glyph glyph-name="uni0419" unicode="&#x419;" horiz-adv-x="1424" 
d="M720 1604q-76 0 -140.5 37t-101.5 102q-38 63 -38 140h148q0 -54 39 -93t93 -39q56 0 94 38.5t38 93.5h147q0 -76 -37 -140.5t-101 -101.5q-61 -37 -141 -37zM1281 0h-183v1158l-771 -1158h-184v1475h184v-1159l771 1159h183v-1475z" />
    <glyph glyph-name="uni041A" unicode="&#x41a;" horiz-adv-x="1253" 
d="M143 0v1475h184v-696l645 696h229l-670 -716l722 -759h-235l-691 723v-723h-184z" />
    <glyph glyph-name="uni041B" unicode="&#x41b;" horiz-adv-x="1411" 
d="M41 -13v161q27 -7 54 -7q33 0 59 12t45 41t32.5 61t22.5 90t14.5 108t8 134.5t3 151.5t0.5 175v561h987v-1475h-184v1302h-630v-587q0 -212 -20.5 -359.5t-61.5 -230.5t-94 -119t-125 -36q-45 0 -111 17z" />
    <glyph glyph-name="uni041C" unicode="&#x41c;" horiz-adv-x="1680" 
d="M327 0h-184v1475h182l516 -1090l513 1090h183v-1474h-183v1094l-431 -920h-164l-432 920v-1095z" />
    <glyph glyph-name="uni041D" unicode="&#x41d;" horiz-adv-x="1428" 
d="M327 0h-184v1475h184v-651h775v651h183v-1475h-183v651h-775v-651z" />
    <glyph glyph-name="uni041E" unicode="&#x41e;" horiz-adv-x="1499" 
d="M750 -31q-216 0 -373 97.5t-236.5 270t-79.5 400.5t79.5 400.5t236.5 270t373 97.5t373 -97.5t236 -269.5t79 -401t-79 -401t-236 -269.5t-373 -97.5zM750 143q241 0 367.5 160.5t126.5 433.5t-126.5 433.5t-367.5 160.5t-367 -160.5t-128 -433.5q-2 -272 126 -433
t369 -161z" />
    <glyph glyph-name="uni041F" unicode="&#x41f;" horiz-adv-x="1397" 
d="M327 0h-184v1475h1111v-1475h-183v1302h-744v-1302z" />
    <glyph glyph-name="uni0420" unicode="&#x420;" horiz-adv-x="1261" 
d="M327 0h-184v1475h558q239 0 369 -123.5t130 -341.5q0 -217 -130.5 -341t-368.5 -124h-374v-545zM327 1302v-584h373q149 0 231.5 77t82.5 215t-82.5 215t-231.5 77h-373z" />
    <glyph glyph-name="uni0421" unicode="&#x421;" horiz-adv-x="1480" 
d="M750 -31q-216 0 -373 97.5t-236.5 270t-79.5 400.5t79.5 400.5t236.5 270t373 97.5q251 0 418 -127.5t231 -352.5l-186 -49q-46 169 -163 262t-300 93q-238 0 -367 -161.5t-129 -432.5q0 -273 127.5 -433.5t368.5 -160.5q182 0 299.5 93.5t163.5 262.5l186 -49
q-65 -225 -232 -353t-417 -128z" />
    <glyph glyph-name="uni0422" unicode="&#x422;" horiz-adv-x="1228" 
d="M686 0h-183v1302h-452v173h1081v-173h-446v-1302z" />
    <glyph glyph-name="uni0423" unicode="&#x423;" horiz-adv-x="1222" 
d="M1197 1475l-707 -1475h-196l234 493l-497 982h201l391 -786l374 786h200z" />
    <glyph glyph-name="uni0424" unicode="&#x424;" horiz-adv-x="1563" 
d="M690 0v140q-125 4 -237.5 45t-200.5 114t-139.5 186.5t-51.5 251.5t51.5 251.5t139.5 186.5t200.5 114t237.5 45v141h183v-141q125 -4 237.5 -45t200.5 -114t139.5 -186.5t51.5 -251.5t-51.5 -251.5t-139.5 -186.5t-200.5 -114t-237.5 -45v-140h-183zM873 1163v-852
q194 6 318 121.5t124 304.5t-124 304.5t-318 121.5zM690 311v852q-193 -6 -317 -121t-124 -305t124 -305t317 -121z" />
    <glyph glyph-name="uni0425" unicode="&#x425;" horiz-adv-x="1274" 
d="M244 0h-224l507 746l-493 729h222l382 -575l381 575h223l-493 -729l505 -746h-222l-394 592z" />
    <glyph glyph-name="uni0426" unicode="&#x426;" horiz-adv-x="1491" 
d="M1471 -276h-183v276h-1145v1475h184v-1302h795v1302h184v-1302h165v-449z" />
    <glyph glyph-name="uni0427" unicode="&#x427;" horiz-adv-x="1395" 
d="M1252 0h-183v617q-70 -58 -175 -85t-212 -27q-260 0 -399.5 136t-139.5 411v423h185v-353q0 -230 88 -335.5t294 -105.5q103 0 200.5 28.5t158.5 91.5v674h183v-1475z" />
    <glyph glyph-name="uni0428" unicode="&#x428;" horiz-adv-x="2100" 
d="M143 0v1475h184v-1302h631v1302h184v-1302h632v1302h183v-1475h-1814z" />
    <glyph glyph-name="uni0429" unicode="&#x429;" horiz-adv-x="2143" 
d="M2123 -276h-184v276h-1796v1475h184v-1302h631v1302h184v-1302h632v1302h183v-1302h166v-449z" />
    <glyph glyph-name="uni042A" unicode="&#x42a;" horiz-adv-x="1355" 
d="M246 1302h-256v173h439v-545h375q239 0 369 -123.5t130 -341.5t-130 -341.5t-369 -123.5h-558v1302zM429 173h374q149 0 231 77t82 215t-82 215t-231 77h-374v-584z" />
    <glyph glyph-name="uni042B" unicode="&#x42b;" horiz-adv-x="1722" 
d="M327 1475v-545h374q239 0 369 -123.5t130 -341.5t-130 -341.5t-369 -123.5h-558v1475h184zM1579 0h-183v1475h183v-1475zM327 173h373q149 0 231.5 77t82.5 215t-82.5 215t-231.5 77h-373v-584z" />
    <glyph glyph-name="uni042C" unicode="&#x42c;" horiz-adv-x="1281" 
d="M326 1475v-545h374q239 0 369 -123.5t130 -341.5t-130 -341.5t-369 -123.5h-558v1475h184zM326 173h373q149 0 231.5 77t82.5 215t-82.5 215t-231.5 77h-373v-584z" />
    <glyph glyph-name="uni042D" unicode="&#x42d;" horiz-adv-x="1451" 
d="M711 -31q-243 0 -410.5 122t-228.5 347l179 46q46 -158 166 -249.5t279 -91.5h5q253 5 378 173q101 132 113 335h-704v173h705q-12 154 -73 268.5t-165 176.5q-106 61 -244 61h-10q-174 -1 -294.5 -97t-160.5 -262l-185 26q55 242 226 375t424 133q210 0 362 -94
t234 -269t83 -405v-16q0 -205 -79 -378q-77 -169 -233 -272q-154 -102 -367 -102z" />
    <glyph glyph-name="uni042E" unicode="&#x42e;" horiz-adv-x="2073" 
d="M327 0h-184v1475h184v-647h312q25 310 203.5 493.5t481.5 183.5q216 0 373 -97.5t236 -269.5t79 -401t-79 -401t-236 -269.5t-373 -97.5q-303 0 -481.5 183.5t-203.5 493.5h-312v-646zM1324 143q241 0 368 160.5t127 433.5t-127 433.5t-368 160.5t-367 -160.5
t-128 -433.5q-2 -272 126 -433t369 -161z" />
    <glyph glyph-name="uni042F" unicode="&#x42f;" horiz-adv-x="1312" 
d="M652 545l-357 -545h-213l369 562q-163 38 -250.5 155t-87.5 293q0 218 130 341.5t368 123.5h558v-1475h-183v545h-334zM986 718v584h-374q-149 0 -231 -77t-82 -215t82 -215t231 -77h374z" />
    <glyph glyph-name="uni0430" unicode="&#x430;" horiz-adv-x="1152" 
d="M580 1137q226 0 337.5 -116t111.5 -352v-669h-182v174q-118 -205 -386 -205q-174 0 -276.5 87.5t-102.5 237.5q0 163 114 247.5t332 112.5l319 39q-1 145 -66.5 212t-202.5 67q-231 0 -285 -190l-170 43q40 151 158 231.5t299 80.5zM847 551l-298 -37
q-152 -20 -219.5 -68.5t-67.5 -139.5q0 -179 237 -179q128 0 215.5 67.5t114.5 182.5q18 58 18 171v3z" />
    <glyph glyph-name="uni0431" unicode="&#x431;" horiz-adv-x="1190" 
d="M587 -32q-232 1 -361.5 154t-140.5 430q-9 160 10 319q22 178 71.5 291.5t151.5 179.5q70 45 159.5 71t167 34t193 22.5t205.5 35.5l14 -172q-108 -25 -243 -39.5t-227 -30.5t-159 -56q-78 -46 -114.5 -127.5t-49.5 -241.5q123 192 370 192q212 0 343.5 -145.5
t131.5 -381.5q0 -243 -143.5 -390t-378.5 -145zM593 141q153 0 238 96t85 260q0 167 -82.5 263t-231.5 96q-154 0 -238 -95.5t-84 -263.5q0 -164 84 -260t229 -96z" />
    <glyph glyph-name="uni0432" unicode="&#x432;" horiz-adv-x="1076" 
d="M604 0h-462v1106h443q194 0 295.5 -75.5t101.5 -221.5q0 -89 -41 -149.5t-112 -87.5q81 -23 133.5 -94.5t52.5 -171.5q0 -150 -105 -228t-306 -78zM585 955h-272v-316h302q88 0 139.5 38t51.5 115q0 88 -52 125.5t-169 37.5zM314 151h287q119 0 178.5 40.5t59.5 126.5
q0 88 -56 130t-149 42h-320v-339z" />
    <glyph glyph-name="uni0433" unicode="&#x433;" horiz-adv-x="916" 
d="M327 0h-184v1106h722v-172h-538v-934z" />
    <glyph glyph-name="uni0434" unicode="&#x434;" horiz-adv-x="1281" 
d="M61 -236v408h108q48 56 65.5 191t17.5 335v408h824v-934h144v-408h-183v236h-793v-236h-183zM362 172h532v762h-471v-332q0 -137 -16.5 -252t-44.5 -178z" />
    <glyph glyph-name="uni0435" unicode="&#x435;" horiz-adv-x="1209" 
d="M618 140q219 0 313 195l176 -59q-65 -147 -192.5 -227t-296.5 -80q-243 0 -389.5 160t-146.5 424q0 266 145.5 425t386.5 159q253 0 388 -169.5t123 -465.5h-847q12 -171 101.5 -266.5t238.5 -95.5zM282 648h654q-12 155 -96 239t-226 84q-140 0 -226 -84.5t-106 -238.5z
" />
    <glyph glyph-name="uni0436" unicode="&#x436;" horiz-adv-x="1738" 
d="M778 0v532l-503 -532h-255l546 553l-488 553h236l464 -533v533h183v-533l463 533h237l-489 -553l546 -553h-255l-502 532v-532h-183z" />
    <glyph glyph-name="uni0437" unicode="&#x437;" horiz-adv-x="1061" 
d="M529 -31q-199 0 -322.5 90.5t-155.5 272.5l174 32q36 -232 299 -232q132 0 203.5 49.5t71.5 137.5q0 89 -61 131.5t-163 42.5h-169v150h169q93 0 144 38.5t51 109.5q0 88 -63 135.5t-183 47.5q-231 0 -280 -197l-174 32q80 328 458 328q199 0 310.5 -89.5t111.5 -246.5
q0 -166 -144 -229q76 -24 125 -93t49 -162q0 -156 -120.5 -252t-330.5 -96z" />
    <glyph glyph-name="uni0438" unicode="&#x438;" horiz-adv-x="1191" 
d="M866 1106h183v-1106h-183v820l-541 -820h-183v1106h183v-820z" />
    <glyph glyph-name="uni0439" unicode="&#x439;" horiz-adv-x="1191" 
d="M620 1235q-76 0 -140.5 37t-101.5 102q-38 63 -38 140h147q0 -54 39.5 -93t93.5 -39q56 0 94 38.5t38 93.5h147q0 -75 -37 -139.5t-101 -101.5q-63 -38 -141 -38zM866 1106h183v-1106h-183v820l-541 -820h-183v1106h183v-820z" />
    <glyph glyph-name="uni043A" unicode="&#x43a;" horiz-adv-x="1041" 
d="M142 0v1106h183v-533l463 533h237l-488 -553l545 -553h-255l-502 532v-532h-183z" />
    <glyph glyph-name="uni043B" unicode="&#x43b;" horiz-adv-x="1191" 
d="M41 -14v158q26 -8 46 -8q82 0 114.5 113t32.5 342v515h815v-1106h-183v934h-460v-394q0 -291 -66 -431t-199 -140q-44 0 -100 17z" />
    <glyph glyph-name="uni043C" unicode="&#x43c;" horiz-adv-x="1397" 
d="M325 0h-183v1106h183l373 -733l374 733h182v-1106h-182v751l-297 -586h-153l-297 586v-751z" />
    <glyph glyph-name="uni043D" unicode="&#x43d;" horiz-adv-x="1231" 
d="M325 0h-183v1106h183v-467h581v467h183v-1106h-183v467h-581v-467z" />
    <glyph glyph-name="uni043E" unicode="&#x43e;" horiz-adv-x="1229" 
d="M614 -31q-244 0 -388 162t-144 423q0 262 144.5 422.5t387.5 160.5q245 0 389.5 -161t144.5 -422q0 -263 -144.5 -424t-389.5 -161zM614 142q164 0 252 110.5t88 301.5q0 193 -87.5 301.5t-252.5 108.5t-252 -109t-87 -301t88 -302t251 -110z" />
    <glyph glyph-name="uni043F" unicode="&#x43f;" horiz-adv-x="1181" 
d="M325 0h-183v1106h896v-1106h-182v934h-531v-934z" />
    <glyph glyph-name="uni0440" unicode="&#x440;" 
d="M326 -492h-183v1598h183v-173q113 204 369 204q151 0 265.5 -74.5t176 -206.5t61.5 -302q0 -261 -138 -423t-365 -162q-255 0 -369 204v-665zM665 142q166 0 253 111.5t87 300.5q0 191 -87 300.5t-253 109.5q-168 0 -253.5 -110.5t-85.5 -299.5q0 -191 87.5 -301.5
t251.5 -110.5z" />
    <glyph glyph-name="uni0441" unicode="&#x441;" horiz-adv-x="1148" 
d="M609 -31q-244 0 -385.5 160.5t-141.5 423.5q0 265 142.5 424.5t386.5 159.5q175 0 301.5 -86.5t169.5 -235.5l-180 -54q-35 96 -113 149.5t-180 53.5q-161 0 -247.5 -110t-86.5 -301q0 -190 86 -300.5t248 -110.5q212 0 289 194l184 -48q-58 -155 -180 -237t-293 -82z
" />
    <glyph glyph-name="uni0442" unicode="&#x442;" horiz-adv-x="1044" 
d="M613 0h-182v934h-380v172h942v-172h-380v-934z" />
    <glyph glyph-name="uni0443" unicode="&#x443;" horiz-adv-x="1101" 
d="M474 -492h-177l182 496l-448 1102h191l345 -870l324 870h185z" />
    <glyph glyph-name="uni0444" unicode="&#x444;" horiz-adv-x="1555" 
d="M686 -461v443q-127 3 -235 40t-191 106t-130.5 178t-47.5 246t47.5 246.5t130.5 179t191.5 106.5t234.5 40v330h182v-330q126 -2 234.5 -39.5t192 -106.5t131 -178.5t47.5 -247.5q0 -137 -47.5 -246.5t-131 -178.5t-192 -106t-234.5 -39v-443h-182zM868 955v-803
q191 3 304 109t113 291t-113 292t-304 111zM686 152v803q-191 -4 -304 -111t-113 -292t113 -290.5t304 -109.5z" />
    <glyph glyph-name="uni0445" unicode="&#x445;" horiz-adv-x="1097" 
d="M239 0h-219l423 559l-413 547h217l303 -406l300 406h217l-414 -547l424 -559h-218l-309 418z" />
    <glyph glyph-name="uni0446" unicode="&#x446;" horiz-adv-x="1212" 
d="M1192 -236h-182v236h-868v1106h183v-934h541v934h183v-934h143v-408z" />
    <glyph glyph-name="uni0447" unicode="&#x447;" horiz-adv-x="1081" 
d="M938 0h-182v430q-117 -68 -291 -68q-197 0 -290 103.5t-93 321.5v319h182v-293q0 -154 52 -222t184 -68q146 0 256 75v508h182v-1106z" />
    <glyph glyph-name="uni0448" unicode="&#x448;" horiz-adv-x="1741" 
d="M142 0v1106h183v-934h454v934h183v-934h454v934h182v-1106h-1456z" />
    <glyph glyph-name="uni0449" unicode="&#x449;" horiz-adv-x="1763" 
d="M1743 -236h-182v236h-1418v1106h183v-934h454v934h183v-934h454v934h182v-934h144v-408z" />
    <glyph glyph-name="uni044A" unicode="&#x44a;" horiz-adv-x="1265" 
d="M297 0v933h-256v173h438v-407h314q189 0 290 -96.5t101 -252.5t-101 -253t-290 -97h-496zM479 155h290q115 0 173 53t58 142t-58 142.5t-173 53.5h-290v-391z" />
    <glyph glyph-name="uni044B" unicode="&#x44b;" horiz-adv-x="1481" 
d="M1338 0h-182v1106h182v-1106zM639 0h-496v1106h183v-407h313q189 0 290 -96.5t101 -252.5t-101 -253t-290 -97zM326 155h289q115 0 173.5 53t58.5 142t-58.5 142.5t-173.5 53.5h-289v-391z" />
    <glyph glyph-name="uni044C" unicode="&#x44c;" horiz-adv-x="1111" 
d="M639 0h-496v1106h183v-407h313q189 0 289.5 -96.5t100.5 -252.5t-100.5 -253t-289.5 -97zM326 155h289q115 0 173.5 53t58.5 142t-58.5 142.5t-173.5 53.5h-289v-391z" />
    <glyph glyph-name="uni044D" unicode="&#x44d;" horiz-adv-x="1149" 
d="M542 -31q-172 0 -293.5 82t-180.5 237l184 48q76 -194 289 -194q143 0 226.5 88t100.5 248h-468v151h468q-15 157 -98 246t-225 89q-105 0 -183 -53t-114 -150l-180 54q44 150 171 236t304 86q161 0 280 -73t183 -206q62 -131 62 -306q0 -172 -63 -304t-182 -205
q-119 -74 -281 -74z" />
    <glyph glyph-name="uni044E" unicode="&#x44e;" horiz-adv-x="1681" 
d="M1066 -31q-222 0 -362 134.5t-166 358.5h-213v-462h-183v1106h183v-462h213q26 225 167 359t361 134q246 0 389.5 -161.5t143.5 -421.5q0 -263 -144.5 -424t-388.5 -161zM1066 142q166 0 253 111.5t87 300.5q0 191 -87 300.5t-253 109.5q-168 0 -253.5 -110.5
t-85.5 -299.5q0 -191 87.5 -301.5t251.5 -110.5z" />
    <glyph glyph-name="uni044F" unicode="&#x44f;" horiz-adv-x="1121" 
d="M283 0h-192l211 436q-103 39 -157 123.5t-54 197.5q0 156 101 252.5t290 96.5h496v-1106h-182v407h-316zM796 952h-290q-115 0 -173.5 -53t-58.5 -142t58.5 -142.5t173.5 -53.5h290v391z" />
    <glyph glyph-name="uni0450" unicode="&#x450;" horiz-adv-x="1209" 
d="M551 1275l-134 338h148l134 -338h-148zM618 140q219 0 313 195l176 -59q-65 -147 -192.5 -227t-296.5 -80q-243 0 -389.5 160t-146.5 424q0 266 145.5 425t386.5 159q253 0 388 -169.5t123 -465.5h-847q12 -171 101.5 -266.5t238.5 -95.5zM282 648h654q-12 155 -96 239
t-226 84q-140 0 -226 -84.5t-106 -238.5z" />
    <glyph glyph-name="uni0451" unicode="&#x451;" horiz-adv-x="1209" 
d="M723 1307v184h184v-184h-184zM322 1307v184h184v-184h-184zM618 140q219 0 313 195l176 -59q-65 -147 -192.5 -227t-296.5 -80q-243 0 -389.5 160t-146.5 424q0 266 145.5 425t386.5 159q253 0 388 -169.5t123 -465.5h-847q12 -171 101.5 -266.5t238.5 -95.5zM282 648
h654q-12 155 -96 239t-226 84q-140 0 -226 -84.5t-106 -238.5z" />
    <glyph glyph-name="uni0452" unicode="&#x452;" horiz-adv-x="1236" 
d="M144 1208h-124v150h124v117h183v-117h217v-150h-217v-262q98 191 344 191q207 0 325 -124.5t118 -373.5v-844q0 -135 -73.5 -210t-212.5 -75h-119v172h60q89 0 126 37t37 125v764q0 179 -79 267.5t-221 88.5t-223.5 -88.5t-81.5 -267.5v-608h-183v1208z" />
    <glyph glyph-name="uni0453" unicode="&#x453;" horiz-adv-x="916" 
d="M671 1613l-134 -338h-149l134 338h149zM327 0h-184v1106h722v-172h-538v-934z" />
    <glyph glyph-name="uni0454" unicode="&#x454;" horiz-adv-x="1149" 
d="M608 -31q-160 0 -279.5 73.5t-183.5 206.5q-63 131 -63 303q0 173 63.5 306t182.5 206q120 73 279 73q177 0 304.5 -86.5t170.5 -235.5l-180 -54q-36 97 -114 150t-183 53q-141 0 -224.5 -89t-98.5 -246h468v-151h-468q17 -160 100.5 -248t226.5 -88q213 0 289 194
l184 -48q-59 -155 -180.5 -237t-293.5 -82z" />
    <glyph glyph-name="uni0455" unicode="&#x455;" horiz-adv-x="1086" 
d="M563 -30q-198 0 -321 84t-160 245l188 32q54 -198 296 -198q117 0 183.5 45.5t66.5 127.5q0 47 -23.5 78t-86.5 55q-65 24 -193 59q-96 25 -158.5 48.5t-121.5 60t-87.5 89t-28.5 122.5q0 141 119.5 230t309.5 89q185 0 308 -88t145 -236l-186 -34q-13 91 -86 143.5
t-188 52.5q-102 0 -170.5 -43t-68.5 -109q0 -42 37 -74t69 -44t104 -33q13 -4 19 -6q82 -22 214 -66q139 -45 200 -113t61 -175q0 -159 -118 -250.5t-323 -91.5z" />
    <glyph glyph-name="uni0456" unicode="&#x456;" horiz-adv-x="509" 
d="M346 1302h-182v188h182v-188zM346 0h-182v1106h182v-1106z" />
    <glyph glyph-name="uni0457" unicode="&#x457;" horiz-adv-x="509" 
d="M548 1307h-184v184h184v-184zM146 1307h-184v184h184v-184zM346 0h-182v1106h182v-1106z" />
    <glyph glyph-name="uni0458" unicode="&#x458;" horiz-adv-x="538" 
d="M379 1302h-182v188h182v-188zM93 -490h-120v172h61q89 0 126 37t37 125v1262h182v-1311q0 -135 -73.5 -210t-212.5 -75z" />
    <glyph glyph-name="uni0459" unicode="&#x459;" horiz-adv-x="1835" 
d="M41 -14v159q26 -8 45 -8q82 0 115 116t33 347v506h816v-407h313q189 0 289.5 -96.5t100.5 -252.5t-100.5 -253t-289.5 -97h-497v934h-460v-408q0 -270 -69 -413.5t-202 -143.5q-41 0 -94 17zM1050 155h289q115 0 173.5 53t58.5 142t-58.5 142.5t-173.5 53.5h-289v-391z
" />
    <glyph glyph-name="uni045A" unicode="&#x45a;" horiz-adv-x="1874" 
d="M325 0h-183v1106h183v-467h581v467h183v-407h313q189 0 290 -96.5t101 -252.5t-101 -253t-290 -97h-496v467h-581v-467zM1089 155h289q115 0 173.5 53t58.5 142t-58.5 142.5t-173.5 53.5h-289v-391z" />
    <glyph glyph-name="uni045B" unicode="&#x45b;" horiz-adv-x="1239" 
d="M144 1208h-124v150h124v117h183v-117h218v-150h-218v-262q98 191 344 191q207 0 325 -124.5t118 -373.5v-639h-182v608q0 179 -79 267.5t-221 88.5t-223.5 -88.5t-81.5 -267.5v-608h-183v1208z" />
    <glyph glyph-name="uni045C" unicode="&#x45c;" horiz-adv-x="1041" 
d="M570 1275h-148l134 338h149zM142 0v1106h183v-533l463 533h237l-488 -553l545 -553h-255l-502 532v-532h-183z" />
    <glyph glyph-name="uni045D" unicode="&#x45d;" horiz-adv-x="1191" 
d="M753 1275h-149l-134 338h148zM866 1106h183v-1106h-183v820l-541 -820h-183v1106h183v-820z" />
    <glyph glyph-name="uni045E" unicode="&#x45e;" horiz-adv-x="1101" 
d="M587 1235q-76 0 -140.5 37t-101.5 102q-38 63 -38 140h148q0 -54 39 -93t93 -39q56 0 94 38.5t38 93.5h147q0 -75 -37 -139.5t-101 -101.5q-63 -38 -141 -38zM474 -492h-177l182 496l-448 1102h191l345 -870l324 870h185z" />
    <glyph glyph-name="uni045F" unicode="&#x45f;" horiz-adv-x="1181" 
d="M682 -236h-182v236h-358v1106h183v-933h531v933h182v-1106h-356v-236z" />
    <glyph glyph-name="uni0490" unicode="&#x490;" horiz-adv-x="1117" 
d="M327 0h-184v1475h770v276h184v-449h-770v-1302z" />
    <glyph glyph-name="uni0491" unicode="&#x491;" horiz-adv-x="915" 
d="M326 0h-183v1106h539v235h182v-408h-538v-933z" />
    <glyph glyph-name="uni04AE" unicode="&#x4ae;" horiz-adv-x="1176" 
d="M681 0h-183v613l-498 862h212l377 -653l376 653h212l-496 -862v-613z" />
    <glyph glyph-name="uni04AF" unicode="&#x4af;" horiz-adv-x="1071" 
d="M629 -369h-187v369l-401 1106h185l310 -874l310 874h184l-401 -1106v-369z" />
    <glyph glyph-name="uni04BA" unicode="&#x4ba;" horiz-adv-x="1344" 
d="M41 1475h183v-618q71 58 176 85.5t211 27.5q261 0 400 -136t139 -411v-423h-184v352q0 231 -88 336.5t-294 105.5q-104 0 -201.5 -28.5t-158.5 -91.5v-674h-183v1475z" />
    <glyph glyph-name="uni04BB" unicode="&#x4bb;" horiz-adv-x="1156" 
d="M454 0h-183v1106h183v-430q115 67 290 67q197 0 290 -103.5t93 -321.5v-318h-182v293q0 154 -51.5 222t-183.5 68q-146 0 -256 -75v-508z" />
    <glyph glyph-name="uni04E8" unicode="&#x4e8;" horiz-adv-x="1540" 
d="M750 -31q-214 0 -370 96t-238 271q-81 174 -81 401q0 229 81.5 402.5t236.5 269.5q152 96 371 96q215 0 370.5 -95t237.5 -270q80 -175 80 -403q0 -229 -81 -402.5t-235 -268.5q-154 -97 -372 -97zM259 824h982q-11 127 -52 226q-57 135 -168 207.5t-271 73.5h-5
q-156 0 -266.5 -72.5t-167.5 -207.5q-41 -99 -52 -227zM750 143h4q157 0 267.5 73t167.5 208q41 99 52 227h-983q10 -126 52 -225q56 -136 168 -209t272 -74z" />
    <glyph glyph-name="uni04E9" unicode="&#x4e9;" horiz-adv-x="1229" 
d="M614 -31q-161 0 -282 74t-186 208q-64 131 -64 303t65.5 304.5t186.5 205.5q123 73 280 73q162 0 283 -73.5t186 -206.5t65 -303q0 -172 -65 -304.5t-186 -206.5q-122 -74 -283 -74zM280 629h670q-13 137 -83 225q-87 110 -253 110q-223 0 -302 -195q-24 -60 -32 -140z
M614 142q110 0 187 51t115 145q27 67 34 140h-670q7 -76 34 -142q39 -94 115.5 -144t184.5 -50z" />
    <glyph glyph-name="Wgrave" unicode="&#x1e80;" horiz-adv-x="1943" 
d="M1036 1644h-148l-134 337h148zM645 0h-192l-422 1475h191l327 -1177l327 1177h191l328 -1177l326 1177h192l-422 -1475h-193l-326 1166z" />
    <glyph glyph-name="wgrave" unicode="&#x1e81;" horiz-adv-x="1600" 
d="M862 1275h-148l-134 338h148zM1034 0l-233 813l-235 -813h-186l-339 1106h184l248 -844l247 844h161l246 -844l248 844h185l-339 -1106h-187z" />
    <glyph glyph-name="Wacute" unicode="&#x1e82;" horiz-adv-x="1943" 
d="M1191 1981l-134 -337h-149l134 337h149zM645 0h-192l-422 1475h191l327 -1177l327 1177h191l328 -1177l326 1177h192l-422 -1475h-193l-326 1166z" />
    <glyph glyph-name="wacute" unicode="&#x1e83;" horiz-adv-x="1600" 
d="M1017 1613l-134 -338h-149l134 338h149zM1034 0l-233 813l-235 -813h-186l-339 1106h184l248 -844l247 844h161l246 -844l248 844h185l-339 -1106h-187z" />
    <glyph glyph-name="Wdieresis" unicode="&#x1e84;" horiz-adv-x="1943" 
d="M1266 1675h-185v185h185v-185zM864 1675h-184v185h184v-185zM645 0h-192l-422 1475h191l327 -1177l327 1177h191l328 -1177l326 1177h192l-422 -1475h-193l-326 1166z" />
    <glyph glyph-name="wdieresis" unicode="&#x1e85;" horiz-adv-x="1600" 
d="M1091 1307h-185v184h185v-184zM689 1307h-184v184h184v-184zM1034 0l-233 813l-235 -813h-186l-339 1106h184l248 -844l247 844h161l246 -844l248 844h185l-339 -1106h-187z" />
    <glyph glyph-name="Germandbls" unicode="&#x1e9e;" horiz-adv-x="1478" 
d="M888 -31q-109 0 -202 31v179q85 -28 183 -28q137 0 221.5 72t84.5 205q0 132 -102 207t-272 78l-26 126l250 419q-123 72 -271 72q-159 0 -263 -74t-137 -204q-24 -100 -24 -254v-798h-188v867q0 164 32 263q59 198 213 286q155 89 357 89q200 0 368 -83q71 -37 140 -83
q0 -1 2 -2t3 -1l-278 -489q104 -15 189 -69t136 -142q52 -89 52 -213q0 -211 -124 -332.5t-344 -121.5z" />
    <glyph glyph-name="uni1EA0" unicode="&#x1ea0;" horiz-adv-x="1324" 
d="M779 1475l507 -1475h-192l-119 345h-627l-118 -345h-192l507 1475h234zM407 516h509l-254 748zM561 -394v188h201v-188h-201z" />
    <glyph glyph-name="uni1EA1" unicode="&#x1ea1;" horiz-adv-x="1152" 
d="M580 1137q226 0 337.5 -116t111.5 -352v-669h-182v174q-118 -205 -386 -205q-174 0 -276.5 87.5t-102.5 237.5q0 163 114 247.5t332 112.5l319 39q-1 145 -66.5 212t-202.5 67q-231 0 -285 -190l-170 43q40 151 158 231.5t299 80.5zM847 551l-298 -37
q-152 -20 -219.5 -68.5t-67.5 -139.5q0 -179 237 -179q128 0 215.5 67.5t114.5 182.5q18 58 18 171v3zM473 -394v188h201v-188h-201z" />
    <glyph glyph-name="uni1EA2" unicode="&#x1ea2;" horiz-adv-x="1324" 
d="M479 1987q48 47 93 57q47 11 70 11q38 0 85 -19q46 -19 81 -84q23 -49 23 -93q0 -20 -9 -62q-11 -43 -59 -87q-48 -45 -111 -62l-48 81q39 16 66.5 41t32.5 47t5 29q0 18 -12 44q-23 42 -65 42q-1 0 -4.5 -0.5t-10.5 -1t-14 -0.5q-26 -2 -70 -37zM779 1475l507 -1475
h-192l-119 345h-627l-118 -345h-192l507 1475h234zM407 516h509l-254 748z" />
    <glyph glyph-name="uni1EA3" unicode="&#x1ea3;" horiz-adv-x="1152" 
d="M418 1622q48 46 93 57q51 12 70 12q37 0 86 -20q45 -18 79 -84q24 -51 24 -93q0 -19 -9 -61q-10 -41 -59 -87q-50 -47 -111 -63l-48 81q39 16 67 41.5t33 46.5q4 17 4 29q0 23 -12 45q-21 42 -65 42q-1 0 -4 -0.5t-10 -1t-14 -0.5q-26 -2 -70 -37zM580 1137
q226 0 337.5 -116t111.5 -352v-669h-182v174q-118 -205 -386 -205q-174 0 -276.5 87.5t-102.5 237.5q0 163 114 247.5t332 112.5l319 39q-1 145 -66.5 212t-202.5 67q-231 0 -285 -190l-170 43q40 151 158 231.5t299 80.5zM847 551l-298 -37q-152 -20 -219.5 -68.5
t-67.5 -139.5q0 -179 237 -179q128 0 215.5 67.5t114.5 182.5q18 58 18 171v3z" />
    <glyph glyph-name="uni1EA4" unicode="&#x1ea4;" horiz-adv-x="1323" 
d="M1101 1859h-149l134 337h149zM329 1644l250 291h161l250 -291h-179l-152 179l-151 -179h-179zM779 1475l507 -1475h-192l-119 345h-627l-118 -345h-192l507 1475h234zM407 516h509l-254 748z" />
    <glyph glyph-name="uni1EA5" unicode="&#x1ea5;" horiz-adv-x="1152" 
d="M1040 1490h-148l134 338h149zM268 1275l250 292h162l250 -292h-179l-152 179l-152 -179h-179zM580 1137q226 0 337.5 -116t111.5 -352v-669h-182v174q-118 -205 -386 -205q-174 0 -276.5 87.5t-102.5 237.5q0 163 114 247.5t332 112.5l319 39q-1 145 -66.5 212t-202.5 67
q-231 0 -285 -190l-170 43q40 151 158 231.5t299 80.5zM847 551l-298 -37q-152 -20 -219.5 -68.5t-67.5 -139.5q0 -179 237 -179q128 0 215.5 67.5t114.5 182.5q18 58 18 171v3z" />
    <glyph glyph-name="uni1EA6" unicode="&#x1ea6;" horiz-adv-x="1324" 
d="M954 1859l-134 337h149l134 -337h-149zM329 1644l250 291h161l250 -291h-179l-152 179l-151 -179h-179zM779 1475l507 -1475h-192l-119 345h-627l-118 -345h-192l507 1475h234zM407 516h509l-254 748z" />
    <glyph glyph-name="uni1EA7" unicode="&#x1ea7;" horiz-adv-x="1152" 
d="M896 1490l-134 338h148l134 -338h-148zM270 1275l250 292h162l250 -292h-179l-152 179l-151 -179h-180zM580 1137q226 0 337.5 -116t111.5 -352v-669h-182v174q-118 -205 -386 -205q-174 0 -276.5 87.5t-102.5 237.5q0 163 114 247.5t332 112.5l319 39q-1 145 -66.5 212
t-202.5 67q-231 0 -285 -190l-170 43q40 151 158 231.5t299 80.5zM847 551l-298 -37q-152 -20 -219.5 -68.5t-67.5 -139.5q0 -179 237 -179q128 0 215.5 67.5t114.5 182.5q18 58 18 171v3z" />
    <glyph glyph-name="uni1EA8" unicode="&#x1ea8;" horiz-adv-x="1323" 
d="M923 1987q48 47 93 57q47 11 69 11q38 0 85 -19q46 -19 81 -84q24 -51 24 -93q0 -20 -9 -62q-10 -42 -60 -87q-48 -45 -110 -62l-48 81q39 16 66.5 41t32.5 47q4 17 4 29q0 20 -11 44q-22 42 -66 42q-1 0 -4 -0.5t-10 -1t-14 -0.5q-26 -2 -70 -37zM330 1644l250 291h161
l250 -291h-179l-152 179l-151 -179h-179zM779 1475l507 -1475h-192l-119 345h-627l-118 -345h-192l507 1475h234zM407 516h509l-254 748z" />
    <glyph glyph-name="uni1EA9" unicode="&#x1ea9;" horiz-adv-x="1152" 
d="M843 1618q48 46 93 57q51 12 70 12q36 0 85 -20q45 -18 80 -84q24 -51 24 -93q0 -20 -9 -62q-10 -42 -60 -87q-48 -45 -110 -62l-48 81q39 16 66.5 41t32.5 47q4 17 4 30q0 20 -11 44q-22 42 -66 42q-1 0 -4 -0.5t-10 -1t-14 -0.5q-26 -2 -70 -37zM250 1275l250 292h162
l249 -292h-179l-151 179l-152 -179h-179zM580 1137q226 0 337.5 -116t111.5 -352v-669h-182v174q-118 -205 -386 -205q-174 0 -276.5 87.5t-102.5 237.5q0 163 114 247.5t332 112.5l319 39q-1 145 -66.5 212t-202.5 67q-231 0 -285 -190l-170 43q40 151 158 231.5t299 80.5z
M847 551l-298 -37q-152 -20 -219.5 -68.5t-67.5 -139.5q0 -179 237 -179q128 0 215.5 67.5t114.5 182.5q18 58 18 171v3z" />
    <glyph glyph-name="uni1EAA" unicode="&#x1eaa;" horiz-adv-x="1324" 
d="M826 1987q-41 0 -82 17t-101 55q-49 29 -75 40.5t-49 11.5q-54 0 -54 -63q0 -20 6 -41h-123q-10 37 -10 74q0 27 10 66q9 40 51 73q41 32 108 32q40 0 79.5 -16.5t104.5 -55.5q86 -53 124 -53q33 0 44 23q10 21 10 44q0 18 -6 39h123q9 -37 9 -70q0 -27 -9 -69
q-10 -41 -52 -74q-40 -33 -108 -33zM328 1644l250 291h161l250 -291h-179l-152 179l-151 -179h-179zM779 1475l507 -1475h-192l-119 345h-627l-118 -345h-192l507 1475h234zM407 516h509l-254 748z" />
    <glyph glyph-name="uni1EAB" unicode="&#x1eab;" horiz-adv-x="1152" 
d="M753 1618q-40 0 -80.5 17t-103.5 56q-84 52 -124 52q-18 0 -30.5 -8.5t-17 -22t-5.5 -21t-1 -14.5q0 -19 6 -39h-123q-9 39 -9 72q0 29 10 69q8 38 52 72q41 32 106 32q40 0 79 -16.5t106 -55.5q83 -53 123 -53q33 0 44 24t11 43t-6 40h122q11 -41 11 -73q0 -22 -10 -67
q-10 -40 -52 -73q-41 -34 -108 -34zM254 1275l250 292h162l249 -292h-179l-151 179l-152 -179h-179zM580 1137q226 0 337.5 -116t111.5 -352v-669h-182v174q-118 -205 -386 -205q-174 0 -276.5 87.5t-102.5 237.5q0 163 114 247.5t332 112.5l319 39q-1 145 -66.5 212
t-202.5 67q-231 0 -285 -190l-170 43q40 151 158 231.5t299 80.5zM847 551l-298 -37q-152 -20 -219.5 -68.5t-67.5 -139.5q0 -179 237 -179q128 0 215.5 67.5t114.5 182.5q18 58 18 171v3z" />
    <glyph glyph-name="uni1EAC" unicode="&#x1eac;" horiz-adv-x="1324" 
d="M330 1644l250 291h161l250 -291h-179l-152 179l-151 -179h-179zM779 1475l507 -1475h-192l-119 345h-627l-118 -345h-192l507 1475h234zM407 516h509l-254 748zM561 -394v188h201v-188h-201z" />
    <glyph glyph-name="uni1EAD" unicode="&#x1ead;" horiz-adv-x="1152" 
d="M260 1275l250 292h162l250 -292h-180l-151 179l-152 -179h-179zM580 1137q226 0 337.5 -116t111.5 -352v-669h-182v174q-118 -205 -386 -205q-174 0 -276.5 87.5t-102.5 237.5q0 163 114 247.5t332 112.5l319 39q-1 145 -66.5 212t-202.5 67q-231 0 -285 -190l-170 43
q40 151 158 231.5t299 80.5zM847 551l-298 -37q-152 -20 -219.5 -68.5t-67.5 -139.5q0 -179 237 -179q128 0 215.5 67.5t114.5 182.5q18 58 18 171v3zM473 -394v188h201v-188h-201z" />
    <glyph glyph-name="uni1EAE" unicode="&#x1eae;" horiz-adv-x="1324" 
d="M736 1951h-148l134 338h148zM662 1604q-76 0 -140.5 37t-101.5 102q-38 63 -38 140h147q0 -54 39.5 -93t93.5 -39q56 0 94 38.5t38 93.5h147q0 -76 -37 -140.5t-101 -101.5q-61 -37 -141 -37zM779 1475l507 -1475h-192l-119 345h-627l-118 -345h-192l507 1475h234z
M407 516h509l-254 748z" />
    <glyph glyph-name="uni1EAF" unicode="&#x1eaf;" horiz-adv-x="1152" 
d="M663 1582h-149l134 338h149zM588 1235q-76 0 -140.5 37t-101.5 102q-38 63 -38 140h148q0 -54 39 -93t93 -39q56 0 94 38.5t38 93.5h147q0 -75 -37 -139.5t-101 -101.5q-63 -38 -141 -38zM580 1137q226 0 337.5 -116t111.5 -352v-669h-182v174q-118 -205 -386 -205
q-174 0 -276.5 87.5t-102.5 237.5q0 163 114 247.5t332 112.5l319 39q-1 145 -66.5 212t-202.5 67q-231 0 -285 -190l-170 43q40 151 158 231.5t299 80.5zM847 551l-298 -37q-152 -20 -219.5 -68.5t-67.5 -139.5q0 -179 237 -179q128 0 215.5 67.5t114.5 182.5q18 58 18 171
v3z" />
    <glyph glyph-name="uni1EB0" unicode="&#x1eb0;" horiz-adv-x="1324" 
d="M588 1951l-134 338h148l134 -338h-148zM662 1604q-76 0 -140.5 37t-101.5 102q-38 63 -38 140h147q0 -54 39.5 -93t93.5 -39t93 39t39 93h147q0 -76 -37 -140.5t-101 -101.5q-61 -37 -141 -37zM779 1475l507 -1475h-192l-119 345h-627l-118 -345h-192l507 1475h234z
M407 516h509l-254 748z" />
    <glyph glyph-name="uni1EB1" unicode="&#x1eb1;" horiz-adv-x="1152" 
d="M520 1582l-134 338h149l134 -338h-149zM594 1235q-76 0 -140.5 37t-101.5 102q-38 63 -38 140h148q0 -54 39 -93t93 -39t93 39t39 93h147q0 -75 -37 -139.5t-101 -101.5q-63 -38 -141 -38zM580 1137q226 0 337.5 -116t111.5 -352v-669h-182v174q-118 -205 -386 -205
q-174 0 -276.5 87.5t-102.5 237.5q0 163 114 247.5t332 112.5l319 39q-1 145 -66.5 212t-202.5 67q-231 0 -285 -190l-170 43q40 151 158 231.5t299 80.5zM847 551l-298 -37q-152 -20 -219.5 -68.5t-67.5 -139.5q0 -179 237 -179q128 0 215.5 67.5t114.5 182.5q18 58 18 171
v3z" />
    <glyph glyph-name="uni1EB2" unicode="&#x1eb2;" horiz-adv-x="1324" 
d="M455 2273q49 48 93 58q47 11 70 11q33 0 84 -19q46 -19 81 -85q24 -51 24 -92q0 -20 -9 -62q-10 -42 -60 -87q-51 -46 -110 -62l-48 80q39 16 66.5 41t32.5 47q4 17 4 30q0 20 -11 44q-22 43 -66 43q-1 0 -4 -0.5t-10 -1t-14 -0.5q-24 -1 -70 -38zM662 1604
q-76 0 -140.5 37t-101.5 102q-38 63 -38 140h147q0 -54 39.5 -93t93.5 -39q56 0 94 38.5t38 93.5h147q0 -76 -37 -140.5t-101 -101.5q-61 -37 -141 -37zM779 1475l507 -1475h-192l-119 345h-627l-118 -345h-192l507 1475h234zM407 516h509l-254 748z" />
    <glyph glyph-name="uni1EB3" unicode="&#x1eb3;" horiz-adv-x="1152" 
d="M406 1905q48 47 93 57q47 11 70 11q36 0 84 -18q46 -19 81 -85q24 -51 24 -92q0 -21 -9 -63q-11 -42 -60 -87t-110 -61l-49 80q39 16 67 41t33 47q4 17 4 29q0 20 -11 44q-22 43 -66 43q-1 0 -4.5 -0.5t-10.5 -1t-14 -0.5q-23 -1 -69 -38zM612 1235q-76 0 -140 37
t-101 102q-38 63 -38 140h147q0 -54 39 -93t93 -39q56 0 94 38.5t38 93.5h148q0 -75 -37 -139.5t-101 -101.5q-63 -38 -142 -38zM580 1137q226 0 337.5 -116t111.5 -352v-669h-182v174q-118 -205 -386 -205q-174 0 -276.5 87.5t-102.5 237.5q0 163 114 247.5t332 112.5
l319 39q-1 145 -66.5 212t-202.5 67q-231 0 -285 -190l-170 43q40 151 158 231.5t299 80.5zM847 551l-298 -37q-152 -20 -219.5 -68.5t-67.5 -139.5q0 -179 237 -179q128 0 215.5 67.5t114.5 182.5q18 58 18 171v3z" />
    <glyph glyph-name="uni1EB4" unicode="&#x1eb4;" horiz-adv-x="1324" 
d="M805 1946q-40 0 -80.5 16.5t-102.5 55.5q-85 53 -124 53q-24 0 -37.5 -16t-15.5 -28t-2 -22q0 -16 7 -39h-123q-10 43 -10 72q0 24 11 68q9 40 51 73q41 32 106 32q40 0 80 -16.5t106 -55.5q83 -53 123 -53q33 0 44 23q10 21 10 43q0 19 -6 40h123q10 -37 10 -72
q0 -26 -9 -67q-10 -40 -53 -74q-40 -33 -108 -33zM643 1604q-76 0 -140.5 37t-101.5 102q-37 61 -37 140h147q0 -54 39 -93t93 -39t93 39t39 93h148q0 -76 -37.5 -140.5t-102.5 -101.5q-61 -37 -140 -37zM779 1475l507 -1475h-192l-119 345h-627l-118 -345h-192l507 1475
h234zM407 516h509l-254 748z" />
    <glyph glyph-name="uni1EB5" unicode="&#x1eb5;" horiz-adv-x="1152" 
d="M735 1577q-41 0 -81.5 17t-101.5 56q-49 29 -75 40.5t-49 11.5q-54 0 -54 -64q0 -20 6 -41h-123q-10 37 -10 74q0 28 10 67q9 39 51 72q41 32 108 32q40 0 79.5 -16.5t104.5 -55.5q86 -53 124 -53q33 0 44 24q10 21 10 44q0 18 -6 39h123q9 -38 9 -71q0 -27 -9 -69
q-10 -40 -52 -73q-41 -34 -108 -34zM572 1235q-76 0 -140 37t-101 102q-38 63 -38 140h147q0 -54 39 -93t93 -39q56 0 94.5 39t38.5 93h147q0 -75 -37 -139.5t-101 -101.5q-63 -38 -142 -38zM580 1137q226 0 337.5 -116t111.5 -352v-669h-182v174q-118 -205 -386 -205
q-174 0 -276.5 87.5t-102.5 237.5q0 163 114 247.5t332 112.5l319 39q-1 145 -66.5 212t-202.5 67q-231 0 -285 -190l-170 43q40 151 158 231.5t299 80.5zM847 551l-298 -37q-152 -20 -219.5 -68.5t-67.5 -139.5q0 -179 237 -179q128 0 215.5 67.5t114.5 182.5q18 58 18 171
v3z" />
    <glyph glyph-name="uni1EB6" unicode="&#x1eb6;" horiz-adv-x="1324" 
d="M663 1604q-76 0 -140.5 37t-101.5 102q-38 63 -38 140h147q0 -54 39.5 -93t93.5 -39q56 0 94 38.5t38 93.5h147q0 -76 -37 -140.5t-101 -101.5q-61 -37 -141 -37zM779 1475l507 -1475h-192l-119 345h-627l-118 -345h-192l507 1475h234zM407 516h509l-254 748zM561 -394
v188h201v-188h-201z" />
    <glyph glyph-name="uni1EB7" unicode="&#x1eb7;" horiz-adv-x="1152" 
d="M590 1235q-76 0 -140.5 37t-101.5 102q-38 63 -38 140h148q0 -54 39 -93t93 -39q56 0 94 38.5t38 93.5h147q0 -75 -37 -139.5t-101 -101.5q-63 -38 -141 -38zM580 1137q226 0 337.5 -116t111.5 -352v-669h-182v174q-118 -205 -386 -205q-174 0 -276.5 87.5t-102.5 237.5
q0 163 114 247.5t332 112.5l319 39q-1 145 -66.5 212t-202.5 67q-231 0 -285 -190l-170 43q40 151 158 231.5t299 80.5zM847 551l-298 -37q-152 -20 -219.5 -68.5t-67.5 -139.5q0 -179 237 -179q128 0 215.5 67.5t114.5 182.5q18 58 18 171v3zM473 -394v188h201v-188h-201z
" />
    <glyph glyph-name="uni1EB8" unicode="&#x1eb8;" horiz-adv-x="1229" 
d="M1076 0h-933v1475h933v-173h-749v-462h626v-173h-626v-494h749v-173zM711 -394h-201v188h201v-188z" />
    <glyph glyph-name="uni1EB9" unicode="&#x1eb9;" horiz-adv-x="1209" 
d="M618 140q219 0 313 195l176 -59q-65 -147 -192.5 -227t-296.5 -80q-243 0 -389.5 160t-146.5 424q0 266 145.5 425t386.5 159q253 0 388 -169.5t123 -465.5h-847q12 -171 101.5 -266.5t238.5 -95.5zM282 648h654q-12 155 -96 239t-226 84q-140 0 -226 -84.5t-106 -238.5z
M525 -394v188h201v-188h-201z" />
    <glyph glyph-name="uni1EBA" unicode="&#x1eba;" horiz-adv-x="1178" 
d="M499 1893l-55 94q48 46 94 57q47 11 69 11q39 0 86 -19t80 -84q24 -51 24 -93q0 -15 -10 -62q-11 -43 -58 -87q-48 -45 -112 -62l-48 81q39 16 67.5 41.5t33.5 46.5q4 17 4 28q0 23 -12 45q-21 42 -65 42q-1 0 -4.5 -0.5t-10.5 -1t-14 -0.5q-25 -1 -69 -37zM1076 0h-933
v1475h933v-173h-749v-462h626v-173h-626v-494h749v-173z" />
    <glyph glyph-name="uni1EBB" unicode="&#x1ebb;" horiz-adv-x="1228" 
d="M449 1622q48 46 93 57q51 12 69 12q37 0 86 -20q47 -19 80 -84q24 -51 24 -93q0 -19 -9 -61q-10 -41 -59 -87q-50 -47 -111 -63l-49 81q39 16 67.5 41.5t33.5 46.5q4 17 4 29q0 23 -12 45q-21 42 -65 42q-1 0 -4.5 -0.5t-10.5 -1t-14 -0.5q-25 -1 -69 -37zM618 140
q219 0 313 195l176 -59q-65 -147 -192.5 -227t-296.5 -80q-243 0 -389.5 160t-146.5 424q0 266 145.5 425t386.5 159q253 0 388 -169.5t123 -465.5h-847q12 -171 101.5 -266.5t238.5 -95.5zM282 648h654q-12 155 -96 239t-226 84q-140 0 -226 -84.5t-106 -238.5z" />
    <glyph glyph-name="uni1EBC" unicode="&#x1ebc;" horiz-adv-x="1178" 
d="M760 1647q-41 0 -82 17t-101 55q-85 53 -124 53q-25 0 -38.5 -16t-15 -27t-1.5 -21q0 -20 6 -41h-122q-11 41 -11 74q0 24 11 66q9 40 51 73q41 32 107 32q40 0 80 -16.5t105 -55.5q86 -53 124 -53q33 0 44 23q10 21 10 44q0 18 -6 39h123q9 -38 9 -70q0 -27 -9 -69
q-10 -40 -53 -74q-40 -33 -107 -33zM1076 0h-933v1475h933v-173h-749v-462h626v-173h-626v-494h749v-173z" />
    <glyph glyph-name="uni1EBD" unicode="&#x1ebd;" horiz-adv-x="1209" 
d="M784 1278q-40 0 -80 17t-103 56q-84 52 -124 52q-18 0 -30.5 -8.5t-17 -22t-5.5 -21t-1 -14.5q0 -19 6 -39h-123q-9 39 -9 72q0 29 10 69q9 39 51 72q41 32 107 32q40 0 79 -16.5t106 -55.5q83 -53 123 -53q33 0 44 24q10 21 10 43q0 19 -6 40h123q10 -37 10 -73
q0 -26 -9 -67q-10 -40 -52 -73q-41 -34 -109 -34zM618 140q219 0 313 195l176 -59q-65 -147 -192.5 -227t-296.5 -80q-243 0 -389.5 160t-146.5 424q0 266 145.5 425t386.5 159q253 0 388 -169.5t123 -465.5h-847q12 -171 101.5 -266.5t238.5 -95.5zM282 648h654
q-12 155 -96 239t-226 84q-140 0 -226 -84.5t-106 -238.5z" />
    <glyph glyph-name="uni1EBE" unicode="&#x1ebe;" horiz-adv-x="1178" 
d="M1181 2196l-134 -337h-149l134 337h149zM454 1644h-180l250 291h162l250 -291h-179l-152 179zM1076 0h-933v1475h933v-173h-749v-462h626v-173h-626v-494h749v-173z" />
    <glyph glyph-name="uni1EBF" unicode="&#x1ebf;" horiz-adv-x="1209" 
d="M1069 1490h-148l134 338h148zM297 1275l250 292h162l249 -292h-179l-151 179l-152 -179h-179zM618 140q219 0 313 195l176 -59q-65 -147 -192.5 -227t-296.5 -80q-243 0 -389.5 160t-146.5 424q0 266 145.5 425t386.5 159q253 0 388 -169.5t123 -465.5h-847
q12 -171 101.5 -266.5t238.5 -95.5zM282 648h654q-12 155 -96 239t-226 84q-140 0 -226 -84.5t-106 -238.5z" />
    <glyph glyph-name="uni1EC0" unicode="&#x1ec0;" horiz-adv-x="1178" 
d="M1086 1859h-148l-134 337h148zM492 1644h-180l250 291h162l250 -291h-179l-152 179zM1076 0h-933v1475h933v-173h-749v-462h626v-173h-626v-494h749v-173z" />
    <glyph glyph-name="uni1EC1" unicode="&#x1ec1;" horiz-adv-x="1209" 
d="M907 1490l-134 338h149l134 -338h-149zM282 1275l249 292h162l250 -292h-179l-152 179l-151 -179h-179zM618 140q219 0 313 195l176 -59q-65 -147 -192.5 -227t-296.5 -80q-243 0 -389.5 160t-146.5 424q0 266 145.5 425t386.5 159q253 0 388 -169.5t123 -465.5h-847
q12 -171 101.5 -266.5t238.5 -95.5zM282 648h654q-12 155 -96 239t-226 84q-140 0 -226 -84.5t-106 -238.5z" />
    <glyph glyph-name="uni1EC2" unicode="&#x1ec2;" horiz-adv-x="1229" 
d="M933 1893l-53 94q48 47 93 57q47 11 69 11q38 0 85 -19q46 -19 81 -84q24 -51 24 -93q0 -20 -9 -62q-11 -42 -60 -87q-48 -45 -110 -62l-48 81q39 16 66.5 41t32.5 47q4 17 4 29q0 20 -11 44q-23 42 -66 42q-1 0 -4.5 -0.5t-10.5 -1t-14 -0.5q-25 -1 -69 -37zM466 1644
h-179l250 291h161l250 -291h-179l-152 179zM1076 0h-933v1475h933v-173h-749v-462h626v-173h-626v-494h749v-173z" />
    <glyph glyph-name="uni1EC3" unicode="&#x1ec3;" horiz-adv-x="1209" 
d="M882 1618q48 46 93 57q51 12 69 12q37 0 86 -20q47 -19 80 -84q24 -51 24 -93q0 -20 -9 -62q-10 -41 -59 -87t-111 -62l-48 81q39 16 67 41.5t33 46.5q4 17 4 29q0 23 -12 45q-21 42 -65 42q-1 0 -4 -0.5t-10 -1t-14 -0.5q-26 -2 -70 -37zM290 1275l250 292h161l250 -292
h-179l-151 179l-152 -179h-179zM618 140q219 0 313 195l176 -59q-65 -147 -192.5 -227t-296.5 -80q-243 0 -389.5 160t-146.5 424q0 266 145.5 425t386.5 159q253 0 388 -169.5t123 -465.5h-847q12 -171 101.5 -266.5t238.5 -95.5zM282 648h654q-12 155 -96 239t-226 84
q-140 0 -226 -84.5t-106 -238.5z" />
    <glyph glyph-name="uni1EC4" unicode="&#x1ec4;" horiz-adv-x="1178" 
d="M774 1987q-41 0 -82 17t-101 55q-49 29 -75 40.5t-49 11.5q-54 0 -54 -63q0 -20 6 -41h-123q-10 37 -10 74q0 27 10 66q9 40 51 73q41 32 108 32q40 0 79.5 -16.5t104.5 -55.5q86 -53 124 -53q33 0 44 23q10 21 10 44q0 18 -6 39h123q9 -37 9 -70q0 -27 -9 -69
q-10 -41 -52 -74q-40 -33 -108 -33zM455 1644h-180l250 291h162l250 -291h-179l-152 179zM1076 0h-933v1475h933v-173h-749v-462h626v-173h-626v-494h749v-173z" />
    <glyph glyph-name="uni1EC5" unicode="&#x1ec5;" horiz-adv-x="1209" 
d="M785 1618q-41 0 -81.5 17t-101.5 56q-49 29 -75 40.5t-49 11.5q-54 0 -54 -64q0 -20 6 -41h-123q-10 37 -10 74q0 28 10 67q9 39 51 72q41 32 108 32q40 0 79.5 -16.5t104.5 -55.5q86 -53 124 -53q33 0 44 24q10 21 10 44q0 18 -6 39h123q9 -38 9 -71q0 -27 -9 -69
q-10 -40 -52 -73q-41 -34 -108 -34zM287 1275l250 292h161l250 -292h-179l-152 179l-151 -179h-179zM618 140q219 0 313 195l176 -59q-65 -147 -192.5 -227t-296.5 -80q-243 0 -389.5 160t-146.5 424q0 266 145.5 425t386.5 159q253 0 388 -169.5t123 -465.5h-847
q12 -171 101.5 -266.5t238.5 -95.5zM282 648h654q-12 155 -96 239t-226 84q-140 0 -226 -84.5t-106 -238.5z" />
    <glyph glyph-name="uni1EC6" unicode="&#x1ec6;" horiz-adv-x="1178" 
d="M446 1644h-179l250 291h162l250 -291h-179l-152 179zM1076 0h-933v1475h933v-173h-749v-462h626v-173h-626v-494h749v-173zM711 -394h-201v188h201v-188z" />
    <glyph glyph-name="uni1EC7" unicode="&#x1ec7;" horiz-adv-x="1209" 
d="M282 1275l249 292h162l250 -292h-179l-152 179l-151 -179h-179zM618 140q219 0 313 195l176 -59q-65 -147 -192.5 -227t-296.5 -80q-243 0 -389.5 160t-146.5 424q0 266 145.5 425t386.5 159q253 0 388 -169.5t123 -465.5h-847q12 -171 101.5 -266.5t238.5 -95.5z
M282 648h654q-12 155 -96 239t-226 84q-140 0 -226 -84.5t-106 -238.5zM504 -394v188h201v-188h-201z" />
    <glyph glyph-name="uni1EC8" unicode="&#x1ec8;" horiz-adv-x="509" 
d="M115 1893l-54 94q48 46 94 57q47 11 69 11q38 0 85 -19q46 -19 81 -84q24 -51 24 -93q0 -15 -10 -62q-11 -43 -59 -87q-48 -45 -111 -62l-48 81q39 16 67 41t33 47q4 17 4 29q0 20 -11 44q-23 42 -66 42q-1 0 -4.5 -0.5t-10.5 -1t-14 -0.5q-25 -1 -69 -37zM347 0h-183
v1475h183v-1475z" />
    <glyph glyph-name="uni1EC9" unicode="&#x1ec9;" horiz-adv-x="509" 
d="M114 1529l-54 93q48 46 94 57q51 12 69 12q36 0 85 -20q46 -19 81 -84q24 -51 24 -93q0 -14 -10 -61q-11 -43 -59 -87q-50 -46 -111 -63l-48 81q39 16 67 41t33 47q4 17 4 30q0 20 -11 44q-22 42 -66 42q-1 0 -4.5 -0.5t-10.5 -1t-14 -0.5q-25 -1 -69 -37zM346 0h-182
v1106h182v-1106z" />
    <glyph glyph-name="uni1ECA" unicode="&#x1eca;" horiz-adv-x="510" 
d="M347 0h-183v1475h183v-1475zM356 -394h-201v188h201v-188z" />
    <glyph glyph-name="uni1ECB" unicode="&#x1ecb;" horiz-adv-x="509" 
d="M346 1302h-182v188h182v-188zM346 0h-182v1106h182v-1106zM355 -394h-200v188h200v-188z" />
    <glyph glyph-name="uni1ECC" unicode="&#x1ecc;" horiz-adv-x="1499" 
d="M750 -31q-216 0 -373 97.5t-236.5 270t-79.5 400.5t79.5 400.5t236.5 270t373 97.5t373 -97.5t236 -269.5t79 -401t-79 -401t-236 -269.5t-373 -97.5zM750 143q241 0 367.5 160.5t126.5 433.5t-126.5 433.5t-367.5 160.5t-367 -160.5t-128 -433.5q-2 -272 126 -433
t369 -161zM637 -394v188h201v-188h-201z" />
    <glyph glyph-name="uni1ECD" unicode="&#x1ecd;" horiz-adv-x="1229" 
d="M614 -31q-244 0 -388 162t-144 423q0 262 144.5 422.5t387.5 160.5q245 0 389.5 -161t144.5 -422q0 -263 -144.5 -424t-389.5 -161zM614 142q164 0 252 110.5t88 301.5q0 193 -87.5 301.5t-252.5 108.5t-252 -109t-87 -301t88 -302t251 -110zM515 -394v188h201v-188h-201
z" />
    <glyph glyph-name="uni1ECE" unicode="&#x1ece;" horiz-adv-x="1499" 
d="M606 1987q48 47 93 57q47 11 70 11q38 0 85 -19q46 -19 81 -84q23 -49 23 -93q0 -20 -9 -62q-11 -43 -59 -87q-48 -45 -111 -62l-48 81q39 16 66.5 41t32.5 47t5 29q0 18 -12 44q-23 42 -65 42q-1 0 -4.5 -0.5t-10.5 -1t-14 -0.5q-26 -2 -70 -37zM750 -31
q-216 0 -373 97.5t-236.5 270t-79.5 400.5t79.5 400.5t236.5 270t373 97.5t373 -97.5t236 -269.5t79 -401t-79 -401t-236 -269.5t-373 -97.5zM750 143q241 0 367.5 160.5t126.5 433.5t-126.5 433.5t-367.5 160.5t-367 -160.5t-128 -433.5q-2 -272 126 -433t369 -161z" />
    <glyph glyph-name="uni1ECF" unicode="&#x1ecf;" horiz-adv-x="1229" 
d="M449 1622q48 46 93 57q51 12 69 12q37 0 86 -20q47 -19 80 -84q24 -51 24 -93q0 -19 -9 -61q-10 -41 -59 -87q-50 -47 -111 -63l-49 81q39 16 67.5 41.5t33.5 46.5q4 17 4 29q0 23 -12 45q-21 42 -65 42q-1 0 -4.5 -0.5t-10.5 -1t-14 -0.5q-25 -1 -69 -37zM614 -31
q-244 0 -388 162t-144 423q0 262 144.5 422.5t387.5 160.5q245 0 389.5 -161t144.5 -422q0 -263 -144.5 -424t-389.5 -161zM614 142q164 0 252 110.5t88 301.5q0 193 -87.5 301.5t-252.5 108.5t-252 -109t-87 -301t88 -302t251 -110z" />
    <glyph glyph-name="uni1ED0" unicode="&#x1ed0;" horiz-adv-x="1499" 
d="M1204 1859h-148l134 337h148zM432 1644l250 291h162l250 -291h-180l-151 179l-152 -179h-179zM750 -31q-216 0 -373 97.5t-236.5 270t-79.5 400.5t79.5 400.5t236.5 270t373 97.5t373 -97.5t236 -269.5t79 -401t-79 -401t-236 -269.5t-373 -97.5zM750 143
q241 0 367.5 160.5t126.5 433.5t-126.5 433.5t-367.5 160.5t-367 -160.5t-128 -433.5q-2 -272 126 -433t369 -161z" />
    <glyph glyph-name="uni1ED1" unicode="&#x1ed1;" horiz-adv-x="1229" 
d="M1067 1490h-148l134 338h148zM295 1275l250 292h162l249 -292h-179l-151 179l-152 -179h-179zM614 -31q-244 0 -388 162t-144 423q0 262 144.5 422.5t387.5 160.5q245 0 389.5 -161t144.5 -422q0 -263 -144.5 -424t-389.5 -161zM614 142q164 0 252 110.5t88 301.5
q0 193 -87.5 301.5t-252.5 108.5t-252 -109t-87 -301t88 -302t251 -110z" />
    <glyph glyph-name="uni1ED2" unicode="&#x1ed2;" horiz-adv-x="1499" 
d="M1043 1859l-134 337h149l134 -337h-149zM418 1644l250 291h161l250 -291h-179l-151 179l-152 -179h-179zM750 -31q-216 0 -373 97.5t-236.5 270t-79.5 400.5t79.5 400.5t236.5 270t373 97.5t373 -97.5t236 -269.5t79 -401t-79 -401t-236 -269.5t-373 -97.5zM750 143
q241 0 367.5 160.5t126.5 433.5t-126.5 433.5t-367.5 160.5t-367 -160.5t-128 -433.5q-2 -272 126 -433t369 -161z" />
    <glyph glyph-name="uni1ED3" unicode="&#x1ed3;" horiz-adv-x="1229" 
d="M929 1490l-134 338h148l134 -338h-148zM303 1275l250 292h162l250 -292h-180l-151 179l-152 -179h-179zM614 -31q-244 0 -388 162t-144 423q0 262 144.5 422.5t387.5 160.5q245 0 389.5 -161t144.5 -422q0 -263 -144.5 -424t-389.5 -161zM614 142q164 0 252 110.5
t88 301.5q0 193 -87.5 301.5t-252.5 108.5t-252 -109t-87 -301t88 -302t251 -110z" />
    <glyph glyph-name="uni1ED4" unicode="&#x1ed4;" horiz-adv-x="1499" 
d="M1028 1987q48 47 93 57q47 11 70 11q38 0 85 -19q46 -19 81 -84q23 -49 23 -93q0 -20 -9 -62q-11 -43 -59 -87q-48 -45 -111 -62l-48 81q39 16 66.5 41t32.5 47q4 17 4 29q0 20 -11 44q-23 42 -65 42q-1 0 -4.5 -0.5t-10.5 -1t-14 -0.5q-26 -2 -70 -37zM435 1644l250 291
h162l250 -291h-179l-152 179l-152 -179h-179zM750 -31q-216 0 -373 97.5t-236.5 270t-79.5 400.5t79.5 400.5t236.5 270t373 97.5t373 -97.5t236 -269.5t79 -401t-79 -401t-236 -269.5t-373 -97.5zM750 143q241 0 367.5 160.5t126.5 433.5t-126.5 433.5t-367.5 160.5
t-367 -160.5t-128 -433.5q-2 -272 126 -433t369 -161z" />
    <glyph glyph-name="uni1ED5" unicode="&#x1ed5;" horiz-adv-x="1229" 
d="M874 1618q48 46 94 57q51 12 69 12q36 0 85 -20q46 -19 81 -84q24 -51 24 -93q0 -20 -9 -62q-10 -42 -60 -87q-48 -45 -110 -62l-49 81q39 16 67 41t33 47q4 17 4 30q0 20 -11 44q-22 42 -66 42q-1 0 -4.5 -0.5t-10.5 -1t-14 -0.5q-25 -1 -69 -37zM282 1275l249 292h162
l250 -292h-179l-152 179l-151 -179h-179zM614 -31q-244 0 -388 162t-144 423q0 262 144.5 422.5t387.5 160.5q245 0 389.5 -161t144.5 -422q0 -263 -144.5 -424t-389.5 -161zM614 142q164 0 252 110.5t88 301.5q0 193 -87.5 301.5t-252.5 108.5t-252 -109t-87 -301t88 -302
t251 -110z" />
    <glyph glyph-name="uni1ED6" unicode="&#x1ed6;" horiz-adv-x="1499" 
d="M909 1987q-41 0 -82 17t-101 55q-84 52 -124 52q-54 0 -54 -63q0 -20 6 -41h-123q-10 37 -10 74q0 27 10 66q9 40 51 73q41 32 108 32q40 0 79.5 -16.5t104.5 -55.5q86 -53 124 -53q33 0 44 23q10 21 10 44q0 18 -6 39h123q9 -37 9 -70q0 -27 -9 -69q-10 -41 -52 -74
q-40 -33 -108 -33zM411 1644l249 291h162l250 -291h-179l-152 179l-151 -179h-179zM750 -31q-216 0 -373 97.5t-236.5 270t-79.5 400.5t79.5 400.5t236.5 270t373 97.5t373 -97.5t236 -269.5t79 -401t-79 -401t-236 -269.5t-373 -97.5zM750 143q241 0 367.5 160.5
t126.5 433.5t-126.5 433.5t-367.5 160.5t-367 -160.5t-128 -433.5q-2 -272 126 -433t369 -161z" />
    <glyph glyph-name="uni1ED7" unicode="&#x1ed7;" horiz-adv-x="1229" 
d="M799 1618q-40 0 -80.5 17t-103.5 56q-84 52 -123 52q-24 0 -37.5 -16t-15.5 -28t-2 -22q0 -19 6 -39h-122q-10 43 -10 72q0 25 11 69q9 39 51 72q41 32 106 32q40 0 80 -16.5t106 -55.5q83 -53 122 -53q33 0 44 24t11 43t-6 40h122q11 -41 11 -73q0 -22 -10 -67
q-10 -40 -52 -73q-41 -34 -108 -34zM300 1275l250 292h162l250 -292h-180l-151 179l-152 -179h-179zM614 -31q-244 0 -388 162t-144 423q0 262 144.5 422.5t387.5 160.5q245 0 389.5 -161t144.5 -422q0 -263 -144.5 -424t-389.5 -161zM614 142q164 0 252 110.5t88 301.5
q0 193 -87.5 301.5t-252.5 108.5t-252 -109t-87 -301t88 -302t251 -110z" />
    <glyph glyph-name="uni1ED8" unicode="&#x1ed8;" horiz-adv-x="1499" 
d="M417 1644l250 291h161l250 -291h-179l-151 179l-152 -179h-179zM750 -31q-216 0 -373 97.5t-236.5 270t-79.5 400.5t79.5 400.5t236.5 270t373 97.5t373 -97.5t236 -269.5t79 -401t-79 -401t-236 -269.5t-373 -97.5zM750 143q241 0 367.5 160.5t126.5 433.5t-126.5 433.5
t-367.5 160.5t-367 -160.5t-128 -433.5q-2 -272 126 -433t369 -161zM649 -394v188h201v-188h-201z" />
    <glyph glyph-name="uni1ED9" unicode="&#x1ed9;" horiz-adv-x="1229" 
d="M283 1275l249 292h162l250 -292h-179l-152 179l-151 -179h-179zM614 -31q-244 0 -388 162t-144 423q0 262 144.5 422.5t387.5 160.5q245 0 389.5 -161t144.5 -422q0 -263 -144.5 -424t-389.5 -161zM614 142q164 0 252 110.5t88 301.5q0 193 -87.5 301.5t-252.5 108.5
t-252 -109t-87 -301t88 -302t251 -110zM526 -394v188h201v-188h-201z" />
    <glyph glyph-name="uni1EDA" unicode="&#x1eda;" horiz-adv-x="1499" 
d="M840 1644h-149l134 337h149zM1299 1661q7 -49 7 -76q0 -47 -17 -103q-16 -51 -77 -88q-24 -13 -41 -19q130 -100 198.5 -264t68.5 -374q0 -229 -79 -401t-236 -269.5t-373 -97.5t-373 97.5t-236.5 270t-79.5 400.5t79.5 400.5t236.5 270t373 97.5q108 0 205 -25
q44 -11 68 -11h5q28 0 56 13q32 16 49 42.5t19.5 46.5t2.5 50q0 20 -1 30l-1 9zM750 143q241 0 367.5 160.5t126.5 433.5t-126.5 433.5t-367.5 160.5t-367 -160.5t-128 -433.5q-2 -272 126 -433t369 -161z" />
    <glyph glyph-name="uni1EDB" unicode="&#x1edb;" horiz-adv-x="1256" 
d="M689 1275h-148l134 338h148zM1142 1290q6 -40 6 -75q0 -51 -16 -103t-77 -89q-38 -21 -71 -27q164 -161 164 -442q0 -263 -144.5 -424t-389.5 -161q-244 0 -388 162t-144 423q0 262 144.5 422.5t387.5 160.5q90 0 176 -26q46 -11 75 -12h4q33 0 58 13q24 11 39.5 28
t21.5 38.5t7.5 35.5t1.5 37q0 20 -1 30l-1 9h147zM614 142q164 0 252 110.5t88 301.5q0 193 -87.5 301.5t-252.5 108.5t-252 -109t-87 -301t88 -302t251 -110z" />
    <glyph glyph-name="uni1EDC" unicode="&#x1edc;" horiz-adv-x="1499" 
d="M666 1644l-135 337h149l134 -337h-148zM1299 1661q7 -49 7 -76q0 -47 -17 -103q-16 -51 -77 -88q-24 -13 -41 -19q130 -100 198.5 -264t68.5 -374q0 -229 -79 -401t-236 -269.5t-373 -97.5t-373 97.5t-236.5 270t-79.5 400.5t79.5 400.5t236.5 270t373 97.5
q108 0 205 -25q44 -11 68 -11h5q28 0 56 13q32 16 49 42.5t19.5 46.5t2.5 50q0 20 -1 30l-1 9zM750 143q241 0 367.5 160.5t126.5 433.5t-126.5 433.5t-367.5 160.5t-367 -160.5t-128 -433.5q-2 -272 126 -433t369 -161z" />
    <glyph glyph-name="uni1EDD" unicode="&#x1edd;" horiz-adv-x="1256" 
d="M530 1275l-134 338h149l134 -338h-149zM1142 1290q6 -40 6 -75q0 -51 -16 -103t-77 -89q-38 -21 -71 -27q164 -161 164 -442q0 -263 -144.5 -424t-389.5 -161q-244 0 -388 162t-144 423q0 262 144.5 422.5t387.5 160.5q90 0 176 -26q46 -11 75 -12h4q33 0 58 13
q24 11 39.5 28t21.5 38.5t7.5 35.5t1.5 37q0 20 -1 30l-1 9h147zM614 142q164 0 252 110.5t88 301.5q0 193 -87.5 301.5t-252.5 108.5t-252 -109t-87 -301t88 -302t251 -110z" />
    <glyph glyph-name="uni1EDE" unicode="&#x1ede;" horiz-adv-x="1499" 
d="M606 1987q48 47 93 57q47 11 70 11q38 0 85 -19q46 -19 81 -84q23 -49 23 -93q0 -20 -9 -62q-11 -43 -59 -87q-48 -45 -111 -62l-48 81q39 16 66.5 41t32.5 47t5 29q0 18 -12 44q-23 42 -65 42q-1 0 -4.5 -0.5t-10.5 -1t-14 -0.5q-26 -2 -70 -37zM1299 1661q7 -49 7 -76
q0 -47 -17 -103q-16 -51 -77 -88q-24 -13 -41 -19q130 -100 198.5 -264t68.5 -374q0 -229 -79 -401t-236 -269.5t-373 -97.5t-373 97.5t-236.5 270t-79.5 400.5t79.5 400.5t236.5 270t373 97.5q108 0 205 -25q44 -11 68 -11h5q28 0 56 13q32 16 49 42.5t19.5 46.5t2.5 50
q0 20 -1 30l-1 9zM750 143q241 0 367.5 160.5t126.5 433.5t-126.5 433.5t-367.5 160.5t-367 -160.5t-128 -433.5q-2 -272 126 -433t369 -161z" />
    <glyph glyph-name="uni1EDF" unicode="&#x1edf;" horiz-adv-x="1229" 
d="M449 1622q48 46 93 57q51 12 69 12q37 0 86 -20q47 -19 80 -84q24 -51 24 -93q0 -19 -9 -61q-10 -41 -59 -87q-50 -47 -111 -63l-49 81q39 16 67.5 41.5t33.5 46.5q4 17 4 29q0 23 -12 45q-21 42 -65 42q-1 0 -4.5 -0.5t-10.5 -1t-14 -0.5q-25 -1 -69 -37zM1142 1290
q6 -40 6 -75q0 -51 -16 -103t-77 -89q-38 -21 -71 -27q164 -161 164 -442q0 -263 -144.5 -424t-389.5 -161q-244 0 -388 162t-144 423q0 262 144.5 422.5t387.5 160.5q90 0 176 -26q46 -11 75 -12h4q33 0 58 13q24 11 39.5 28t21.5 38.5t7.5 35.5t1.5 37q0 20 -1 30l-1 9
h147zM614 142q164 0 252 110.5t88 301.5q0 193 -87.5 301.5t-252.5 108.5t-252 -109t-87 -301t88 -302t251 -110z" />
    <glyph glyph-name="uni1EE0" unicode="&#x1ee0;" horiz-adv-x="1499" 
d="M908 1647q-41 0 -82 17t-101 55q-50 30 -75.5 41.5t-48.5 11.5q-54 0 -54 -64q0 -20 6 -41h-123q-10 37 -10 74q0 27 10 66q9 40 51 73q41 32 108 32q40 0 79.5 -16.5t104.5 -55.5q86 -53 124 -53q33 0 44 23q10 21 10 44q0 18 -6 39h123q9 -38 9 -70q0 -27 -9 -69
q-10 -41 -52 -74q-40 -33 -108 -33zM1299 1661q7 -49 7 -76q0 -47 -17 -103q-16 -51 -77 -88q-24 -13 -41 -19q130 -100 198.5 -264t68.5 -374q0 -229 -79 -401t-236 -269.5t-373 -97.5t-373 97.5t-236.5 270t-79.5 400.5t79.5 400.5t236.5 270t373 97.5q108 0 205 -25
q44 -11 68 -11h5q28 0 56 13q32 16 49 42.5t19.5 46.5t2.5 50q0 20 -1 30l-1 9zM750 143q241 0 367.5 160.5t126.5 433.5t-126.5 433.5t-367.5 160.5t-367 -160.5t-128 -433.5q-2 -272 126 -433t369 -161z" />
    <glyph glyph-name="uni1EE1" unicode="&#x1ee1;" horiz-adv-x="1229" 
d="M784 1278q-40 0 -80 17t-103 56q-84 52 -124 52q-18 0 -30.5 -8.5t-17 -22t-5.5 -21t-1 -14.5q0 -19 6 -39h-123q-9 39 -9 72q0 29 10 69q9 39 51 72q41 32 107 32q40 0 79 -16.5t106 -55.5q83 -53 123 -53q33 0 44 24q10 21 10 43q0 19 -6 40h123q10 -37 10 -73
q0 -26 -9 -67q-10 -40 -52 -73q-41 -34 -109 -34zM1142 1290q6 -40 6 -75q0 -51 -16 -103t-77 -89q-38 -21 -71 -27q164 -161 164 -442q0 -263 -144.5 -424t-389.5 -161q-244 0 -388 162t-144 423q0 262 144.5 422.5t387.5 160.5q90 0 176 -26q46 -11 75 -12h4q33 0 58 13
q24 11 39.5 28t21.5 38.5t7.5 35.5t1.5 37q0 20 -1 30l-1 9h147zM614 142q164 0 252 110.5t88 301.5q0 193 -87.5 301.5t-252.5 108.5t-252 -109t-87 -301t88 -302t251 -110z" />
    <glyph glyph-name="uni1EE2" unicode="&#x1ee2;" horiz-adv-x="1499" 
d="M1299 1661q7 -49 7 -76q0 -47 -17 -103q-16 -51 -77 -88q-24 -13 -41 -19q130 -100 198.5 -264t68.5 -374q0 -229 -79 -401t-236 -269.5t-373 -97.5t-373 97.5t-236.5 270t-79.5 400.5t79.5 400.5t236.5 270t373 97.5q108 0 205 -25q44 -11 68 -11h5q28 0 56 13
q32 16 49 42.5t19.5 46.5t2.5 50q0 20 -1 30l-1 9zM750 143q241 0 367.5 160.5t126.5 433.5t-126.5 433.5t-367.5 160.5t-367 -160.5t-128 -433.5q-2 -272 126 -433t369 -161zM662 -394v188h200v-188h-200z" />
    <glyph glyph-name="uni1EE3" unicode="&#x1ee3;" horiz-adv-x="1229" 
d="M1142 1290q6 -40 6 -75q0 -51 -16 -103t-77 -89q-38 -21 -71 -27q164 -161 164 -442q0 -263 -144.5 -424t-389.5 -161q-244 0 -388 162t-144 423q0 262 144.5 422.5t387.5 160.5q90 0 176 -26q46 -11 75 -12h4q33 0 58 13q24 11 39.5 28t21.5 38.5t7.5 35.5t1.5 37
q0 20 -1 30l-1 9h147zM614 142q164 0 252 110.5t88 301.5q0 193 -87.5 301.5t-252.5 108.5t-252 -109t-87 -301t88 -302t251 -110zM525 -394v188h201v-188h-201z" />
    <glyph glyph-name="uni1EE4" unicode="&#x1ee4;" horiz-adv-x="1449" 
d="M725 -31q-267 0 -424.5 160.5t-157.5 449.5v896h184v-891q0 -215 102 -329t296 -114q195 0 296.5 113.5t101.5 329.5v891h184v-896q0 -289 -157 -449.5t-425 -160.5zM645 -394v188h201v-188h-201z" />
    <glyph glyph-name="uni1EE5" unicode="&#x1ee5;" horiz-adv-x="1235" 
d="M305 1106v-607q0 -179 79 -268t221 -89t223.5 89t81.5 268v607h183v-1106h-183v160q-98 -191 -344 -191q-206 0 -324.5 124.5t-118.5 373.5v639h182zM715 -394h-201v188h201v-188z" />
    <glyph glyph-name="uni1EE6" unicode="&#x1ee6;" horiz-adv-x="1449" 
d="M567 1987q48 47 93 57q47 11 70 11q39 0 86 -19t80 -84q24 -51 24 -93q0 -15 -10 -62q-11 -43 -58 -87q-48 -45 -112 -62l-48 81q39 16 67.5 41.5t33.5 46.5q4 17 4 28q0 21 -13 45q-21 42 -64 42q-1 0 -4.5 -0.5t-10.5 -1t-14 -0.5q-25 -1 -69 -37zM725 -31
q-267 0 -424.5 160.5t-157.5 449.5v896h184v-891q0 -215 102 -329t296 -114q195 0 296.5 113.5t101.5 329.5v891h184v-896q0 -289 -157 -449.5t-425 -160.5z" />
    <glyph glyph-name="uni1EE7" unicode="&#x1ee7;" horiz-adv-x="1235" 
d="M502 1529l-55 93q48 46 94 57q51 12 69 12q37 0 86 -20q47 -19 80 -84q24 -51 24 -93q0 -19 -9 -61q-10 -41 -59 -87q-50 -47 -111 -63l-49 81q39 16 67.5 41.5t33.5 46.5q4 17 4 29q0 23 -12 45q-21 42 -65 42q-1 0 -4.5 -0.5t-10.5 -1t-14 -0.5q-25 -1 -69 -37z
M305 1106v-607q0 -179 79 -268t221 -89t223.5 89t81.5 268v607h183v-1106h-183v160q-98 -191 -344 -191q-206 0 -324.5 124.5t-118.5 373.5v639h182z" />
    <glyph glyph-name="uni1EE8" unicode="&#x1ee8;" horiz-adv-x="1449" 
d="M786 1644h-148l134 337h149zM1524 1659q5 -43 5 -71q0 -49 -17 -103q-16 -52 -74 -91q-50 -30 -109 -34q-3 0 -10.5 -1t-11.5 -1v-779q0 -289 -157 -449.5t-425 -160.5q-267 0 -424.5 160.5t-157.5 449.5v896h184v-891q0 -215 102 -329t296 -114q195 0 296.5 113.5
t101.5 329.5v891h89q49 2 69 6q33 6 54.5 22t29.5 39.5t10.5 41t2.5 41.5q0 22 -1 34h147z" />
    <glyph glyph-name="uni1EE9" unicode="&#x1ee9;" horiz-adv-x="1236" 
d="M809 1613l-134 -338h-149l134 338h149zM1134 1290h146q5 -43 5 -70q0 -53 -16 -104t-75 -91q-47 -30 -101 -34v-991h-183v160q-98 -191 -344 -191q-206 0 -324.5 124.5t-118.5 373.5v639h182v-607q0 -179 79 -268t221 -89t223.5 89t81.5 268v607h59q48 2 68 6
q33 6 54.5 22t30 39.5t11 41t2.5 41.5q0 22 -1 34z" />
    <glyph glyph-name="uni1EEA" unicode="&#x1eea;" horiz-adv-x="1449" 
d="M672 1644l-134 337h148l134 -337h-148zM1524 1659q5 -43 5 -71q0 -49 -17 -103q-16 -52 -74 -91q-50 -30 -109 -34q-3 0 -10.5 -1t-11.5 -1v-779q0 -289 -157 -449.5t-425 -160.5q-267 0 -424.5 160.5t-157.5 449.5v896h184v-891q0 -215 102 -329t296 -114
q195 0 296.5 113.5t101.5 329.5v891h89q49 2 69 6q33 6 54.5 22t29.5 39.5t10.5 41t2.5 41.5q0 22 -1 34h147z" />
    <glyph glyph-name="uni1EEB" unicode="&#x1eeb;" horiz-adv-x="1236" 
d="M695 1275h-148l-134 338h148zM1134 1289h146q5 -43 5 -70q0 -53 -16 -104t-75 -91q-47 -30 -101 -34v-990h-183v160q-98 -191 -344 -191q-206 0 -324.5 124.5t-118.5 373.5v639h182v-607q0 -179 79 -268t221 -89t223.5 89t81.5 268v607h83q8 0 11 1q22 2 33 4
q33 6 54.5 22t30 39.5t11 41t2.5 41.5q0 22 -1 34z" />
    <glyph glyph-name="uni1EEC" unicode="&#x1eec;" horiz-adv-x="1449" 
d="M567 1987q48 47 93 57q47 11 70 11q39 0 86 -19t80 -84q24 -51 24 -93q0 -15 -10 -62q-11 -43 -58 -87q-48 -45 -112 -62l-48 81q39 16 67.5 41.5t33.5 46.5q4 17 4 28q0 21 -13 45q-21 42 -64 42q-1 0 -4.5 -0.5t-10.5 -1t-14 -0.5q-25 -1 -69 -37zM1524 1659
q38 -20 38 -63q0 -30 -33 -97q-32 -66 -91 -105q-50 -30 -109 -34q-3 0 -10.5 -1t-11.5 -1v-779q0 -289 -157 -449.5t-425 -160.5q-267 0 -424.5 160.5t-157.5 449.5v896h184v-891q0 -215 102 -329t296 -114q195 0 296.5 113.5t101.5 329.5v891h89q49 2 69 6q33 6 54.5 22
t29.5 39.5t10.5 41t2.5 41.5q0 22 -1 34h147z" />
    <glyph glyph-name="uni1EED" unicode="&#x1eed;" horiz-adv-x="1236" 
d="M502 1529l-55 93q48 46 94 57q51 12 69 12q37 0 86 -20q47 -19 80 -84q24 -51 24 -93q0 -19 -9 -61q-10 -41 -59 -87q-50 -47 -111 -63l-49 81q39 16 67.5 41.5t33.5 46.5q4 17 4 29q0 23 -12 45q-21 42 -65 42q-1 0 -4.5 -0.5t-10.5 -1t-14 -0.5q-25 -1 -69 -37z
M1134 1290h146q5 -43 5 -70q0 -53 -16 -104t-75 -91q-47 -30 -101 -34v-991h-183v160q-98 -191 -344 -191q-206 0 -324.5 124.5t-118.5 373.5v639h182v-607q0 -179 79 -268t221 -89t223.5 89t81.5 268v607h59q48 2 68 6q33 6 54.5 22t30 39.5t11 41t2.5 41.5q0 22 -1 34z
" />
    <glyph glyph-name="uni1EEE" unicode="&#x1eee;" horiz-adv-x="1449" 
d="M900 1647q-41 0 -82 17t-101 55q-85 53 -124 53q-54 0 -54 -64q0 -20 6 -41h-123q-10 37 -10 74q0 27 10 66q9 40 51 73q41 32 108 32q40 0 79.5 -16.5t104.5 -55.5q86 -53 124 -53q33 0 44 23q10 21 10 44q0 18 -6 39h123q9 -38 9 -70q0 -27 -9 -69q-10 -41 -52 -74
q-40 -33 -108 -33zM1524 1659q5 -43 5 -71q0 -49 -17 -103q-16 -52 -74 -91q-50 -30 -109 -34q-3 0 -10.5 -1t-11.5 -1v-779q0 -289 -157 -449.5t-425 -160.5q-267 0 -424.5 160.5t-157.5 449.5v896h184v-891q0 -215 102 -329t296 -114q195 0 296.5 113.5t101.5 329.5v891
h89q49 2 69 6q33 6 54.5 22t29.5 39.5t10.5 41t2.5 41.5q0 22 -1 34h147z" />
    <glyph glyph-name="uni1EEF" unicode="&#x1eef;" horiz-adv-x="1236" 
d="M783 1278q-40 0 -80 17t-103 56q-84 52 -124 52q-18 0 -30.5 -8.5t-17 -22t-5.5 -21t-1 -14.5q0 -19 6 -39h-123q-9 39 -9 72q0 29 10 69q9 39 51 72q41 32 107 32q40 0 79 -16.5t106 -55.5q83 -53 123 -53q33 0 44 24q10 21 10 43q0 19 -6 40h123q10 -37 10 -73
q0 -26 -9 -67q-10 -40 -52 -73q-41 -34 -109 -34zM1134 1290h146q5 -43 5 -70q0 -53 -16 -104t-75 -91q-47 -30 -101 -34v-991h-183v160q-98 -191 -344 -191q-206 0 -324.5 124.5t-118.5 373.5v639h182v-607q0 -179 79 -268t221 -89t223.5 89t81.5 268v607h59q48 2 68 6
q33 6 54.5 22t30 39.5t11 41t2.5 41.5q0 22 -1 34z" />
    <glyph glyph-name="uni1EF0" unicode="&#x1ef0;" horiz-adv-x="1449" 
d="M1524 1659q5 -43 5 -71q0 -49 -17 -103q-16 -52 -74 -91q-50 -30 -109 -34q-3 0 -10.5 -1t-11.5 -1v-779q0 -289 -157 -449.5t-425 -160.5q-267 0 -424.5 160.5t-157.5 449.5v896h184v-891q0 -215 102 -329t296 -114q195 0 296.5 113.5t101.5 329.5v891h89q49 2 69 6
q33 6 54.5 22t29.5 39.5t10.5 41t2.5 41.5q0 22 -1 34h147zM633 -394v188h201v-188h-201z" />
    <glyph glyph-name="uni1EF1" unicode="&#x1ef1;" horiz-adv-x="1236" 
d="M1135 1290h146q5 -43 5 -70q0 -53 -16 -104t-75 -91q-49 -30 -102 -34v-991h-183v160q-98 -191 -344 -191q-206 0 -324.5 124.5t-118.5 373.5v639h182v-607q0 -179 79 -268t221 -89t223.5 89t81.5 268v607h60q48 2 68 6q33 6 54.5 22t30 39.5t11 41t2.5 41.5q0 22 -1 34z
M725 -394h-201v188h201v-188z" />
    <glyph glyph-name="Ygrave" unicode="&#x1ef2;" horiz-adv-x="1176" 
d="M668 1644h-149l-134 337h149zM681 0h-183v613l-498 862h212l377 -653l376 653h212l-496 -862v-613z" />
    <glyph glyph-name="ygrave" unicode="&#x1ef3;" horiz-adv-x="1101" 
d="M643 1275h-148l-135 338h149zM474 -492h-177l182 496l-448 1102h191l345 -870l324 870h185z" />
    <glyph glyph-name="uni1EF4" unicode="&#x1ef4;" horiz-adv-x="1176" 
d="M681 0h-183v613l-498 862h212l377 -653l376 653h212l-496 -862v-613zM689 -394h-201v188h201v-188z" />
    <glyph glyph-name="uni1EF5" unicode="&#x1ef5;" horiz-adv-x="1101" 
d="M474 -492h-177l182 496l-448 1102h191l345 -870l324 870h185zM938 -394h-184v184h184v-184z" />
    <glyph glyph-name="uni1EF6" unicode="&#x1ef6;" horiz-adv-x="1176" 
d="M466 1893l-53 94q48 47 93 57q47 11 69 11q38 0 85 -19q46 -19 81 -84q24 -51 24 -93q0 -20 -9 -62q-10 -42 -60 -87q-48 -45 -110 -62l-48 81q39 16 66.5 41t32.5 47q4 17 4 29q0 20 -11 44q-22 42 -66 42q-1 0 -4 -0.5t-10 -1t-14 -0.5q-26 -2 -70 -37zM681 0h-183v613
l-498 862h212l377 -653l376 653h212l-496 -862v-613z" />
    <glyph glyph-name="uni1EF7" unicode="&#x1ef7;" horiz-adv-x="1101" 
d="M441 1529l-54 93q48 46 93 57q51 12 70 12q37 0 86 -20q47 -19 80 -84q23 -49 23 -93q0 -19 -9 -61q-11 -43 -58 -87q-50 -47 -112 -63l-48 81q39 16 67 41.5t33 46.5q4 17 4 29q0 23 -12 45q-21 42 -64 42q-1 0 -4.5 -0.5t-10.5 -1t-14 -0.5q-26 -2 -70 -37zM474 -492
h-177l182 496l-448 1102h191l345 -870l324 870h185z" />
    <glyph glyph-name="uni1EF8" unicode="&#x1ef8;" horiz-adv-x="1176" 
d="M759 1647q-42 0 -83 17t-101 55q-51 30 -75.5 41.5t-47.5 11.5q-25 0 -38.5 -16t-15 -27t-1.5 -21q0 -20 6 -41h-122q-11 41 -11 74q0 24 11 66q9 40 51 73q41 32 107 32q40 0 80 -16.5t105 -55.5q86 -53 124 -53q33 0 44 23q10 21 10 44q0 18 -6 39h123q9 -38 9 -70
q0 -27 -9 -69q-10 -40 -53 -74q-40 -33 -107 -33zM681 0h-183v613l-498 862h212l377 -653l376 653h212l-496 -862v-613z" />
    <glyph glyph-name="uni1EF9" unicode="&#x1ef9;" horiz-adv-x="1101" 
d="M722 1278q-40 0 -80 17t-103 56q-84 52 -124 52q-24 0 -37.5 -16t-15.5 -28t-2 -22q0 -16 7 -39h-123q-10 43 -10 72q0 25 11 69q9 39 51 72q41 32 106 32q40 0 80 -16.5t106 -55.5q83 -53 123 -53q33 0 44 24q10 21 10 43q0 19 -6 40h123q10 -37 10 -73q0 -26 -9 -67
q-10 -39 -53 -73q-41 -34 -108 -34zM474 -492h-177l182 496l-448 1102h191l345 -870l324 870h185z" />
    <glyph glyph-name="uni2011" unicode="&#x2011;" horiz-adv-x="860" 
d="M737 570h-614v151h614v-151z" />
    <glyph glyph-name="endash" unicode="&#x2013;" horiz-adv-x="1105" 
d="M983 570h-860v151h860v-151z" />
    <glyph glyph-name="emdash" unicode="&#x2014;" horiz-adv-x="1597" 
d="M1475 570h-1352v151h1352v-151z" />
    <glyph glyph-name="quoteleft" unicode="&#x2018;" horiz-adv-x="496" 
d="M332 1099l11 -85q-20 -4 -42 -4q-94 0 -134 83q-25 50 -25 119v263h201v-232h-105q0 -4 -0.5 -12.5t-0.5 -13.5v-9q0 -109 86 -109h9z" />
    <glyph glyph-name="quoteright" unicode="&#x2019;" horiz-adv-x="496" 
d="M154 1014l11 85h9q87 0 87 109v9q0 4 -0.5 13t-1.5 13h-105v232h200v-263q0 -69 -23 -118t-61 -67q-40 -17 -74 -17q-22 0 -42 4z" />
    <glyph glyph-name="quotesinglbase" unicode="&#x201a;" horiz-adv-x="569" 
d="M123 -229l11 85q4 -1 12 -1q84 0 84 110v7q0 4 -1 13.5t-1 14.5h-105v231h201v-262q0 -70 -23 -119t-61 -67q-38 -16 -73 -16q-24 0 -44 4z" />
    <glyph glyph-name="quotedblleft" unicode="&#x201c;" horiz-adv-x="816" 
d="M652 1483l-11 -85q-4 1 -12 1q-83 0 -83 -110v-8q0 -5 0.5 -14t0.5 -14h105v-231h-200v262q0 69 23.5 118.5t61.5 67.5q39 17 71 17q24 0 44 -4zM365 1483l-12 -85q-4 1 -12 1q-83 0 -83 -110v-8q0 -5 0.5 -14t0.5 -14h106v-231h-201v262q0 69 23.5 118.5t61.5 67.5
q39 17 72 17q24 0 44 -4z" />
    <glyph glyph-name="quotedblright" unicode="&#x201d;" horiz-adv-x="816" 
d="M164 1024l11 85h9q87 0 87 110v8q0 4 -0.5 13t-1.5 13h-105v232h201v-262q0 -70 -23 -119t-61 -67q-40 -17 -75 -17q-22 0 -42 4zM452 1024l11 85h9q87 0 87 110v8q0 4 -0.5 13t-1.5 13h-105v232h200v-262q0 -70 -23 -119t-61 -67q-40 -17 -74 -17q-22 0 -42 4z" />
    <glyph glyph-name="quotedblbase" unicode="&#x201e;" horiz-adv-x="816" 
d="M164 -229l11 85q4 -1 12 -1q84 0 84 110v7q-1 5 -1 14t-1 14h-105v231h201v-262q0 -70 -23 -119t-61 -67q-38 -16 -73 -16q-24 0 -44 4zM452 -229l11 85q4 -1 12 -1q84 0 84 110v7q-1 5 -1 14t-1 14h-105v231h200v-262q0 -70 -23 -119t-61 -67q-38 -16 -72 -16
q-24 0 -44 4z" />
    <glyph glyph-name="uni201F" unicode="&#x201f;" horiz-adv-x="816" 
d="M641 1109l11 -85q-20 -4 -42 -4q-94 0 -134 83q-24 48 -24 120v262h200v-232h-105q0 -4 -0.5 -12.5t-0.5 -13.5v-8q0 -110 86 -110h9zM353 1109l12 -85q-20 -4 -42 -4q-95 0 -135 83q-24 48 -24 120v262h201v-232h-106q0 -4 -0.5 -12.5t-0.5 -13.5v-8q0 -110 86 -110h9z
" />
    <glyph glyph-name="dagger" unicode="&#x2020;" horiz-adv-x="1105" 
d="M644 0h-182v955h-339v151h339v369h182v-369h339v-151h-339v-955z" />
    <glyph glyph-name="daggerdbl" unicode="&#x2021;" horiz-adv-x="874" 
d="M528 0h-182v470h-222v151h222v284h-222v151h222v419h182v-419h224v-151h-224v-284h224v-151h-224v-470z" />
    <glyph glyph-name="bullet" unicode="&#x2022;" horiz-adv-x="1372" 
d="M691 389q-71 0 -131 34t-95 93q-35 57 -35 129q0 71 35 130t95 93q60 33 131 33q67 0 125 -33.5t92 -92.5q34 -58 34 -130q0 -70 -33.5 -129t-91.5 -93t-126 -34z" />
    <glyph glyph-name="ellipsis" unicode="&#x2026;" horiz-adv-x="1347" 
d="M365 0h-201v201h201v-201zM774 0h-201v201h201v-201zM1184 0h-201v201h201v-201z" />
    <glyph glyph-name="perthousand" unicode="&#x2030;" horiz-adv-x="2695" 
d="M492 768q-100 0 -184.5 48.5t-134.5 134.5q-50 82 -50 186q0 98 50 182.5t136 135.5q82 50 183 50q100 0 184.5 -48.5t134.5 -134.5q49 -83 49 -185q0 -100 -49 -185t-134 -135q-83 -49 -185 -49zM1661 1352l-1354 -1352l-123 123l1354 1352zM492 929q84 0 145.5 62
t61.5 146q0 85 -61 146.5t-146 61.5q-84 0 -146 -62t-62 -146q0 -83 62.5 -145.5t145.5 -62.5zM1354 -31q-100 0 -184.5 49t-134.5 135q-50 82 -50 185q0 98 50 182.5t136 135.5q84 51 183 51q100 0 184 -49t135 -135q49 -83 49 -185q0 -100 -49 -185t-134 -135
q-83 -49 -185 -49zM2204 -31q-100 0 -184.5 49t-134.5 135q-50 82 -50 185q0 98 50 182.5t136 135.5q84 51 183 51q100 0 184 -49t135 -135q49 -83 49 -185q0 -100 -49 -185t-134 -135q-83 -49 -185 -49zM1354 130q84 0 146 62t62 146q0 85 -61.5 146.5t-146.5 61.5
q-84 0 -146 -62t-62 -146q0 -83 62.5 -145.5t145.5 -62.5zM2204 130q84 0 146 62t62 146q0 85 -61.5 146.5t-146.5 61.5q-84 0 -146 -62t-62 -146q0 -83 62.5 -145.5t145.5 -62.5z" />
    <glyph glyph-name="guilsinglleft" unicode="&#x2039;" horiz-adv-x="1273" 
d="M886 274l-115 -113l-484 484l484 484l115 -113l-377 -371z" />
    <glyph glyph-name="guilsinglright" unicode="&#x203a;" horiz-adv-x="1273" 
d="M503 161l-115 113l377 371l-377 371l115 113l484 -484z" />
    <glyph glyph-name="fraction" unicode="&#x2044;" horiz-adv-x="466" 
d="M818 1393l-1052 -1393l-117 89l1053 1393z" />
    <glyph glyph-name="uni2060" unicode="&#x2060;" horiz-adv-x="0" 
 />
    <glyph glyph-name="uni2070" unicode="&#x2070;" horiz-adv-x="1024" 
d="M513 529q-175 0 -272.5 127t-97.5 357t97.5 356t272.5 126q174 0 271 -126.5t97 -355.5q0 -230 -97 -357t-271 -127zM513 652q110 0 170 94.5t60 266.5q0 171 -60 265t-170 94q-112 0 -172 -93.5t-60 -265.5t60 -266.5t172 -94.5z" />
    <glyph glyph-name="uni2074" unicode="&#x2074;" horiz-adv-x="886" 
d="M694 553h-129v172h-463v121l304 629h142l-303 -629h320v302h129v-302h90v-121h-90v-172z" />
    <glyph glyph-name="uni2075" unicode="&#x2075;" horiz-adv-x="896" 
d="M794 834q0 -137 -92.5 -219.5t-241.5 -82.5q-138 0 -233.5 70t-124.5 212l134 21q22 -90 75.5 -135.5t150.5 -45.5q88 0 142.5 50.5t54.5 124.5q0 81 -51.5 123t-147.5 42h-293l31 481h534v-122h-413l-15 -237h158q159 0 245.5 -74t86.5 -208z" />
    <glyph glyph-name="uni2076" unicode="&#x2076;" horiz-adv-x="971" 
d="M501 526q-351 0 -356 420q-4 285 82 416t276 131q138 0 224.5 -65.5t116.5 -192.5l-131 -23q-22 83 -72 121t-137 38q-113 0 -170 -77.5t-61 -237.5v-32q33 57 100 86t151 29q146 0 235 -79t89 -225t-97 -227.5t-250 -81.5zM501 649q99 0 154.5 48.5t55.5 132.5
q0 85 -55.5 134t-154.5 49t-154.5 -49t-55.5 -134q0 -84 55.5 -132.5t154.5 -48.5z" />
    <glyph glyph-name="uni2077" unicode="&#x2077;" horiz-adv-x="774" 
d="M299 553h-141l372 800h-448v122h590v-122z" />
    <glyph glyph-name="uni2078" unicode="&#x2078;" horiz-adv-x="925" 
d="M463 1493q141 0 226.5 -71.5t85.5 -199.5q0 -67 -32.5 -121t-89.5 -78q65 -19 107.5 -78t42.5 -130q0 -137 -93.5 -213t-246.5 -76q-152 0 -245.5 76.5t-93.5 212.5q0 71 42 130t107 78q-57 24 -89 78t-32 121q0 128 85.5 199.5t225.5 71.5zM463 1081q88 0 133.5 41
t45.5 102q0 69 -49 108t-130 39q-80 0 -128.5 -39t-48.5 -108q0 -61 45 -102t132 -41zM463 958q-98 0 -151 -39t-53 -109q0 -74 54.5 -117.5t149.5 -43.5q96 0 150.5 43.5t54.5 117.5q0 70 -53.5 109t-151.5 39z" />
    <glyph glyph-name="uni2079" unicode="&#x2079;" horiz-adv-x="971" 
d="M472 1493q350 0 355 -419q4 -285 -81.5 -416.5t-275.5 -131.5q-138 0 -224.5 65.5t-116.5 193.5l131 22q22 -82 72 -120t137 -38q113 0 169.5 78t60.5 238v30q-33 -57 -99.5 -85.5t-150.5 -28.5q-146 0 -235 79t-89 226q0 146 97 226.5t250 80.5zM472 1371
q-99 0 -154.5 -48.5t-55.5 -133.5q0 -84 55.5 -132.5t154.5 -48.5t154.5 48.5t55.5 132.5q0 85 -55.5 133.5t-154.5 48.5z" />
    <glyph glyph-name="uni2080" unicode="&#x2080;" horiz-adv-x="1024" 
d="M513 -24q-175 0 -272.5 127t-97.5 357t97.5 356t272.5 126q174 0 271 -126.5t97 -355.5q0 -230 -97 -357t-271 -127zM513 99q110 0 170 94.5t60 266.5q0 171 -60 265t-170 94q-112 0 -172 -93.5t-60 -265.5t60 -266.5t172 -94.5z" />
    <glyph glyph-name="uni2081" unicode="&#x2081;" horiz-adv-x="735" 
d="M489 0h-130v773l-172 -104l-64 111l236 142h130v-922z" />
    <glyph glyph-name="uni2082" unicode="&#x2082;" horiz-adv-x="858" 
d="M119 0v123l390 357q59 54 85 99t26 94q0 71 -50 109t-128 38q-82 0 -135.5 -46t-67.5 -126l-137 25q26 127 116 198t223 71q139 0 227.5 -70t86.5 -201q-3 -139 -140 -267l-309 -281h449v-123h-636z" />
    <glyph glyph-name="uni2083" unicode="&#x2083;" horiz-adv-x="897" 
d="M774 280q0 -138 -93 -220t-242 -82q-138 0 -233 70t-124 212l133 21q22 -90 75.5 -135.5t151.5 -45.5q87 0 142 50.5t55 124.5q0 81 -51.5 123t-148.5 42h-98v107l238 253h-445v122h604v-122l-244 -255q137 -11 208.5 -77.5t71.5 -187.5z" />
    <glyph glyph-name="uni2084" unicode="&#x2084;" horiz-adv-x="886" 
d="M694 0h-129v172h-463v121l304 629h142l-303 -629h320v302h129v-302h90v-121h-90v-172z" />
    <glyph glyph-name="uni2085" unicode="&#x2085;" horiz-adv-x="896" 
d="M794 281q0 -137 -92.5 -219t-241.5 -82q-138 0 -233.5 70t-124.5 211l134 21q22 -90 75.5 -135.5t150.5 -45.5q88 0 142.5 50.5t54.5 124.5q0 81 -51.5 123t-147.5 42h-293l31 481h534v-122h-413l-15 -237h158q159 0 245.5 -74t86.5 -208z" />
    <glyph glyph-name="uni2086" unicode="&#x2086;" horiz-adv-x="971" 
d="M501 -27q-351 0 -356 420q-4 285 82 416t276 131q138 0 224.5 -65.5t116.5 -192.5l-131 -23q-22 83 -72 121t-137 38q-113 0 -170 -77.5t-61 -237.5v-32q33 57 100 86t151 29q146 0 235 -79t89 -225t-97 -227.5t-250 -81.5zM501 96q99 0 154.5 48.5t55.5 133.5
t-55.5 133.5t-154.5 48.5t-154.5 -48.5t-55.5 -133.5t55.5 -133.5t154.5 -48.5z" />
    <glyph glyph-name="uni2087" unicode="&#x2087;" horiz-adv-x="774" 
d="M299 0h-141l372 800h-448v122h590v-122z" />
    <glyph glyph-name="uni2088" unicode="&#x2088;" horiz-adv-x="925" 
d="M463 940q141 0 226.5 -71.5t85.5 -199.5q0 -67 -32.5 -121t-89.5 -78q65 -19 107.5 -78t42.5 -130q0 -137 -93.5 -213t-246.5 -76q-152 0 -245.5 76.5t-93.5 212.5q0 71 42 130t107 78q-57 24 -89 78t-32 121q0 128 85.5 199.5t225.5 71.5zM463 528q88 0 133.5 41
t45.5 102q0 69 -49 108t-130 39q-80 0 -128.5 -39t-48.5 -108q0 -61 45 -102t132 -41zM463 406q-98 0 -151 -39.5t-53 -109.5q0 -74 54.5 -117.5t149.5 -43.5q96 0 150.5 43.5t54.5 117.5q0 70 -53.5 109.5t-151.5 39.5z" />
    <glyph glyph-name="uni2089" unicode="&#x2089;" horiz-adv-x="971" 
d="M472 940q350 0 355 -419q4 -285 -81.5 -416.5t-275.5 -131.5q-138 0 -224.5 65.5t-116.5 193.5l131 22q22 -82 72 -120t137 -38q113 0 169.5 78t60.5 238v30q-33 -57 -99.5 -85.5t-150.5 -28.5q-146 0 -235 79t-89 226q0 146 97 226.5t250 80.5zM472 818
q-99 0 -154.5 -48.5t-55.5 -133.5q0 -84 55.5 -132.5t154.5 -48.5t154.5 48.5t55.5 132.5q0 85 -55.5 133.5t-154.5 48.5z" />
    <glyph glyph-name="franc" unicode="&#x20a3;" horiz-adv-x="1131" 
d="M229 251h-168v150h168v1074h862v-173h-678v-499h555v-173h-555v-229h297v-150h-297v-251h-184v251z" />
    <glyph glyph-name="uni20A9" unicode="&#x20a9;" horiz-adv-x="2004" 
d="M297 663h-236v150h192l-192 662h191l186 -662h283l185 661l192 1l186 -662h283l185 662h192l-192 -662h192v-150h-236l-191 -663h-183l-190 663l-284 -1l-189 -662h-183zM1002 1156l-99 -343h198zM480 662l100 -354l99 354h-199zM1326 662l99 -354l100 355z" />
    <glyph glyph-name="uni20AA" unicode="&#x20aa;" horiz-adv-x="1673" 
d="M305 0h-182v1475h542q47 0 108 -9q173 -27 269 -151t96 -305v-607h-187v607q0 103 -51.5 182t-148.5 100q-45 10 -93 10h-353v-1302zM1368 1475h182v-1475h-541q-55 0 -109 8q-173 29 -268.5 152t-95.5 305v607h186v-607q0 -102 52 -181.5t149 -101.5q40 -9 92 -9h353
v1302z" />
    <glyph glyph-name="dong" unicode="&#x20ab;" horiz-adv-x="1229" 
d="M578 252q-145 0 -256 48t-175 145q-65 99 -65 247q0 110 38 196.5t105.5 140t156.5 81t195 27.5q211 0 326 -95v234h-202v149h202v102h183v-102h140v-149h-140v-1000h-162v91q-114 -115 -346 -115zM595 413q154 0 241.5 70.5t87.5 208.5q0 139 -87 208.5t-242 69.5
q-151 0 -235.5 -70t-84.5 -208q0 -137 87.5 -208t232.5 -71zM1125 0h-961v146h961v-146z" />
    <glyph glyph-name="Euro" unicode="&#x20ac;" horiz-adv-x="1490" 
d="M227 483h-166v161h144q-3 47 -3 93q0 30 2 90h-143v161h166q53 241 206.5 379t388.5 138q230 0 378.5 -125.5t207.5 -354.5l-185 -49q-39 170 -138.5 262.5t-262.5 92.5q-156 0 -257.5 -89.5t-142.5 -253.5h519v-161h-544q-3 -43 -3 -90q0 -48 3 -93h544v-161h-518
q41 -164 142 -252t257 -88q163 0 263 93t138 263l185 -49q-59 -228 -207.5 -354.5t-378.5 -126.5q-234 0 -387.5 137t-207.5 377z" />
    <glyph glyph-name="uni20AE" unicode="&#x20ae;" horiz-adv-x="1228" 
d="M523 323l-258 -113v185l258 112v201l-258 -113v185l258 112v410h-503v173h1188v-173h-502v-330l259 112v-184l-259 -113v-200l259 112v-184l-259 -113v-402h-183v323z" />
    <glyph glyph-name="uni20B1" unicode="&#x20b1;" horiz-adv-x="1242" 
d="M174 1048h-123v117h123v310h460q54 0 119 -9q115 -18 194 -84t117 -171q9 -26 14 -46h128v-117h-107q3 -33 3 -68q0 -34 -3 -69h107v-116h-129q-8 -28 -13 -41q-38 -102 -117 -166.5t-194 -82.5q-58 -8 -119 -8h-278v-497h-182v795h-123v116h123v137zM356 1302v-137h526
q-16 35 -42 63q-41 49 -110 64q-43 10 -102 10h-272zM356 1048v-137h559q6 44 6 69q0 31 -5 68h-560zM356 795v-138h272q58 0 102 11q66 15 108 63q28 31 43 63z" />
    <glyph glyph-name="uni20B4" unicode="&#x20b4;" horiz-adv-x="1361" 
d="M72 823v135h880q80 55 80 141q0 100 -91 166.5t-230 65.5q-143 -2 -246.5 -81t-126.5 -211l-194 34q40 201 191 315t374 116q226 1 371 -110.5t145 -302.5q0 -71 -24 -133h89v-135h-1218zM72 540v135h1218v-135h-903q-60 -52 -60 -139q0 -115 98.5 -187t255.5 -72
q156 0 268.5 79t147.5 217l188 -29q-37 -203 -198 -321.5t-397 -118.5q-155 0 -278.5 50t-198.5 152t-75 241q0 66 20 128h-86z" />
    <glyph glyph-name="uni20B9" unicode="&#x20b9;" horiz-adv-x="1242" 
d="M757 0l-614 545v173h364q51 0 92 9q130 29 179 160q12 31 15 50h-646v146h646q-4 20 -15 50q-48 130 -179 159q-45 10 -92 10h-364v173h993v-147h-256q38 -46 64 -103q29 -67 38 -142h158v-146h-158q-13 -122 -78 -214q-81 -119 -237 -161q-68 -17 -157 -17h-109
l616 -545h-260z" />
    <glyph glyph-name="uni20BA" unicode="&#x20ba;" horiz-adv-x="1283" 
d="M288 0v614l-206 -89v183l206 89v202l-206 -89v183l206 89v293h182v-213l311 136v-183l-311 -136v-202l311 136v-183l-311 -136v-526q25 -9 70 -9q55 0 97 12q236 52 309 300q34 112 34 271h180q0 -420 -209 -613q-107 -100 -285 -139q-85 -18 -168 -18q-110 0 -210 28z
" />
    <glyph glyph-name="uni20BD" unicode="&#x20bd;" horiz-adv-x="1383" 
d="M265 0v233h-152v151h152v183h-152v151h152v757h558q239 0 369 -118t130 -336q0 -217 -130.5 -335.5t-368.5 -118.5h-374v-183h514v-151h-514v-233h-184zM449 1302v-584h373q149 0 231.5 77t82.5 215t-82.5 215t-231.5 77h-373z" />
    </font>
</defs>
</svg>
