<?xml version="1.0" standalone="no"?>
<!DOCTYPE svg PUBLIC "-//W3C//DTD SVG 1.1//EN" "http://www.w3.org/Graphics/SVG/1.1/DTD/svg11.dtd" >
<svg xmlns="http://www.w3.org/2000/svg" xmlns:xlink="http://www.w3.org/1999/xlink" version="1.1">
<metadata>
Created by FontForge 20201107 at Tue Apr  2 15:09:30 2024
 By 
Copyright 2019 The Manrope Project Authors (https://github.com/sharanda/manrope)
Copyright 2021 The Vela Sans Project - Ravid Balaliev
</metadata>
<defs>
<font id="VelaSans-Bold" horiz-adv-x="1312" >
  <font-face 
    font-family="Vela Sans Bd"
    font-weight="700"
    font-stretch="normal"
    units-per-em="2048"
    panose-1="0 0 0 0 0 0 0 0 0 0"
    ascent="1638"
    descent="-410"
    x-height="1106"
    cap-height="1475"
    bbox="-312 -625 2564 2452"
    underline-thickness="51"
    underline-position="-101"
    unicode-range="U+000A-FB02"
  />
<missing-glyph horiz-adv-x="1515" 
d="M1311 1448h-1106v27h1106v-27zM1311 1329h-1106v33h1106v-33zM1311 1212h-1106v37h1106v-37zM1311 1092h-1106v43h1106v-43zM1311 975h-1106v45h1106v-45zM1311 858h-1106v49h1106v-49zM1311 737h-1106v58h1106v-58zM1311 621h-1106v61h1106v-61zM1311 502h-1106v67h1106
v-67zM1311 383h-1106v72h1106v-72zM1311 266h-1106v76h1106v-76zM1311 147h-1106v82h1106v-82zM1311 0h-1106v117h1106v-117z" />
    <glyph glyph-name="uniE001" unicode="&#x28;c&#x29;" horiz-adv-x="2020" 
d="M1010 -121q-230 0 -423 114q-194 114 -308 308q-115 194 -115 424q0 231 115 425q114 194 308 307q193 114 423 114t425 -114q192 -113 308 -307q114 -195 114 -425q0 -229 -114 -424q-115 -194 -308 -308q-195 -114 -425 -114zM1010 111q166 0 308 83q141 81 224 223
q82 143 82 308t-82 308q-83 141 -224 224q-143 82 -308 82q-166 0 -309 -82q-142 -83 -223 -224q-83 -142 -83 -308t83 -308q81 -142 223 -223q142 -83 309 -83zM1026 289q-102 0 -175.5 32.5t-131.5 103.5q-101 124 -101 301q0 179 101 298q58 71 134 104.5t182 33.5
q117 0 206 -54q121 -72 154 -212l-189 -51q-18 61 -67 102q-48 39 -114 39q-97 0 -156 -75q-51 -63 -51 -185q0 -116 51 -184q55 -76 159 -76q74 0 114 36q39 37 60 93l193 -41q-38 -123 -134 -197q-96 -68 -235 -68z" />
    <glyph glyph-name="uniE002" unicode="&#x20;&#x3c;&#x33;&#x20;" horiz-adv-x="2377" 
d="M1188 -31q-79 0 -138 61l-360 379q-118 127 -118 290q0 9 3 99q3 91 118 215t286 124q108 0 209 -62q101 62 211 62q173 0 287 -125q113 -125 116 -216q0 -26 0.5 -50t1 -35t0.5 -13q0 -166 -116 -289l-358 -379q-59 -61 -142 -61zM1188 165l359 377q66 68 66 158
q0 21 -1 54q-1 47 -63 119q-62 70 -150 70q-105 0 -211 -115q-106 115 -209 115q-91 0 -151 -71q-58 -69 -60 -119q-1 -34 -1 -54q0 -92 64 -157z" />
    <glyph glyph-name="uniE003" unicode="&#x28;&#x3e;&#x29;" horiz-adv-x="2355" 
d="M1178 -276q-277 0 -509 136q-233 137 -369 368q-136 232 -136 509t136 509t369 369q232 136 509 136t509 -136q231 -136 368 -369q136 -232 136 -509t-136 -509t-368 -368t-509 -136zM1179 -45q215 0 392 105q176 103 284 285q105 180 105 393q0 212 -105 392
q-106 180 -284 285q-180 105 -392 105q-214 0 -394 -105q-180 -106 -284 -285q-106 -179 -106 -392q0 -214 106 -393q106 -181 284 -285q177 -105 394 -105zM1034 1096l430 -359l-430 -358v717z" />
    <glyph glyph-name="uniE007" unicode="ff" horiz-adv-x="1463" 
d="M240 877h-179v229h179v56q0 182 80.5 262.5t263.5 80.5h170v-200h-124q-79 0 -111.5 -32.5t-32.5 -113.5v-53h443v56q0 182 80.5 262.5t263.5 80.5h170v-200h-124q-79 0 -111 -32.5t-32 -113.5v-53h267v-229h-267v-877h-247v877h-443v-877h-246v877z" />
    <glyph glyph-name="uniE008" unicode="ffl" horiz-adv-x="2101" 
d="M1937 0h-246v877h-515v-877h-247v877h-443v-877h-246v877h-179v229h179v56q0 182 80.5 262.5t263.5 80.5h170v-200h-124q-79 0 -111.5 -32.5t-32.5 -113.5v-53h443v41q0 199 79.5 278.5t278.5 79.5h156v-200h-124q-79 0 -111 -32.5t-32 -113.5v-53h515v399h246v-1505z
" />
    <glyph glyph-name="uniE009" unicode="tt" horiz-adv-x="1651" 
d="M20 877v229h201v369h246v-369h518v369h246v-369h324v-229h-324v-515q0 -74 34.5 -108.5t108.5 -34.5h181v-219h-232q-160 0 -249 82t-89 230v565h-518v-515q0 -74 34.5 -108.5t108.5 -34.5h182v-219h-233q-160 0 -249 82t-89 230v565h-201z" />
    <glyph glyph-name="fi" unicode="fi" horiz-adv-x="1379" 
d="M240 877h-179v229h179v56q0 182 80.5 262.5t263.5 80.5h170v-200h-124q-79 0 -111.5 -32.5t-32.5 -113.5v-53h268v-229h-268v-877h-246v877zM1215 1274h-246v226h246v-226zM1215 0h-246v1106h246v-1106z" />
    <glyph glyph-name="fl" unicode="fl" horiz-adv-x="1412" 
d="M240 877h-179v229h179v41q0 199 79.5 278.5t278.5 79.5h156v-200h-124q-79 0 -111.5 -32.5t-32.5 -113.5v-53h515v399h247v-1505h-247v877h-515v-877h-246v877z" />
    <glyph glyph-name="hyphen_hyphen.liga" unicode="&#x2d;&#x2d;" horiz-adv-x="1105" 
d="M983 549h-860v193h860v-193z" />
    <glyph glyph-name="hyphen_greater.liga" unicode="&#x2d;&#x3e;" horiz-adv-x="2071" 
d="M287 549v193h1102l-249 242l153 153l492 -492l-492 -491l-153 152l251 243h-1104z" />
    <glyph glyph-name="less_hyphen.liga" unicode="&#x3c;&#x2d;" horiz-adv-x="2071" 
d="M683 743h1102v-193h-1104l251 -244l-154 -152l-491 491l491 493l154 -153z" />
    <glyph glyph-name=".notdef" horiz-adv-x="1515" 
d="M1311 1448h-1106v27h1106v-27zM1311 1329h-1106v33h1106v-33zM1311 1212h-1106v37h1106v-37zM1311 1092h-1106v43h1106v-43zM1311 975h-1106v45h1106v-45zM1311 858h-1106v49h1106v-49zM1311 737h-1106v58h1106v-58zM1311 621h-1106v61h1106v-61zM1311 502h-1106v67h1106
v-67zM1311 383h-1106v72h1106v-72zM1311 266h-1106v76h1106v-76zM1311 147h-1106v82h1106v-82zM1311 0h-1106v117h1106v-117z" />
    <glyph glyph-name=".null" horiz-adv-x="0" 
 />
    <glyph glyph-name="uni000D" unicode="&#xd;" horiz-adv-x="1228" 
 />
    <glyph glyph-name="uni000A" unicode="&#xa;" horiz-adv-x="113" 
 />
    <glyph glyph-name="space" unicode=" " horiz-adv-x="409" 
 />
    <glyph glyph-name="exclam" unicode="!" horiz-adv-x="720" 
d="M475 369h-229v1106h229v-1106zM475 0h-229v226h229v-226z" />
    <glyph glyph-name="quotedbl" unicode="&#x22;" horiz-adv-x="956" 
d="M370 1106h-247v369h247v-369zM752 1106h-247v369h247v-369z" />
    <glyph glyph-name="numbersign" unicode="#" horiz-adv-x="1907" 
d="M627 2h-241l109 399h-372l61 233h372l64 240h-372l63 232h371l99 369h241l-100 -369h252l99 369h240l-100 -369h372l-63 -232h-370l-66 -240h372l-63 -233h-370l-107 -399h-240l106 399h-251zM860 874l-63 -240h250l64 240h-251z" />
    <glyph glyph-name="dollar" unicode="$" horiz-adv-x="1346" 
d="M566 -205v183q-198 30 -328 151.5t-159 306.5l256 39q31 -127 131 -200.5t239 -73.5q132 0 218.5 60t86.5 152q0 62 -40 103.5t-124 66.5l-381 112q-162 47 -245.5 142.5t-83.5 234.5q0 170 111.5 283t304.5 140v184h247v-186q179 -30 297 -138.5t160 -282.5l-265 -46
q-23 109 -110 176.5t-209 70.5q-118 2 -197.5 -52t-79.5 -137q0 -63 50 -104t163 -72l264 -73q200 -55 298 -155t98 -251q0 -179 -124 -300.5t-332 -151.5v-182h-246z" />
    <glyph glyph-name="percent" unicode="%" horiz-adv-x="1844" 
d="M492 768q-100 0 -184.5 48.5t-134.5 134.5q-50 82 -50 186q0 98 50 182.5t136 135.5q82 50 183 50q100 0 184.5 -48.5t134.5 -134.5q49 -83 49 -185q0 -100 -49 -185t-134 -135q-83 -49 -185 -49zM1660 1310l-1312 -1310l-164 164l1312 1311zM492 979q64 0 110.5 47
t46.5 111t-46.5 110.5t-110.5 46.5t-111 -46.5t-47 -110.5t47 -111t111 -47zM1353 -31q-100 0 -184.5 49t-134.5 135q-50 82 -50 185q0 98 50 182.5t136 135.5q84 51 183 51q100 0 184 -49t135 -135q49 -83 49 -185q0 -100 -49 -185t-134 -135q-83 -49 -185 -49zM1353 180
q63 0 110 47t47 111t-47 111t-110 47t-111 -47.5t-48 -110.5t48 -110.5t111 -47.5z" />
    <glyph glyph-name="ampersand" unicode="&#x26;" horiz-adv-x="1369" 
d="M1162 0l-108 100q-147 -131 -410 -131q-248 0 -394 125t-148 331q-3 241 201 374q-69 71 -98.5 139t-29.5 152q0 187 128 299.5t342 112.5q170 0 287.5 -81t156.5 -226l-244 -52q-40 128 -206 128q-99 0 -157 -50t-58 -135q0 -58 32.5 -101.5t118.5 -123.5q11 -10 16 -15
l356 -331v258h249v-345q0 -68 -17 -128l141 -130zM647 204q144 0 222 67l-393 364q-125 -50 -125 -196q1 -105 87 -170t209 -65z" />
    <glyph glyph-name="quotesingle" unicode="'" horiz-adv-x="533" 
d="M370 1106h-247v369h247v-369z" />
    <glyph glyph-name="parenleft" unicode="(" horiz-adv-x="927" 
d="M844 -254l-182 -136q-118 137 -204 312.5t-128 364.5q-43 185 -43 364v25v24q0 380 171 728q83 173 204 314l182 -135q-178 -214 -254 -441q-79 -231 -80 -490q2 -265 80 -492t254 -438z" />
    <glyph glyph-name="parenright" unicode=")" horiz-adv-x="927" 
d="M266 -390l-182 136q176 211 254 438t80 492q-1 257 -79 490q-77 228 -255 441l182 135q118 -137 204 -312.5t129 -364.5q42 -188 42 -365v-24v-25q0 -379 -170 -728q-84 -172 -205 -313z" />
    <glyph glyph-name="asterisk" unicode="*" horiz-adv-x="951" 
d="M445 945l-129 -201l-177 128l155 182l-233 62l68 208l222 -91l-15 242h219l-15 -242l221 91l67 -208l-231 -62l154 -182l-178 -128z" />
    <glyph glyph-name="plus" unicode="+" horiz-adv-x="1170" 
d="M683 274h-194v367h-366v194h366v365h194v-365h365v-194h-365v-367z" />
    <glyph glyph-name="comma" unicode="," horiz-adv-x="621" 
d="M123 -261l14 106q5 -1 14 -1q49 0 77 31.5t28 87.5v6q0 6 -1 16t-1 15h-131v263h253v-273q0 -88 -28.5 -150t-76.5 -85q-48 -21 -94 -21q-22 0 -54 5z" />
    <glyph glyph-name="hyphen" unicode="-" horiz-adv-x="860" 
d="M737 549h-614v193h614v-193z" />
    <glyph glyph-name="period" unicode="." horiz-adv-x="621" 
d="M437 0h-253v253h253v-253z" />
    <glyph glyph-name="slash" unicode="/" horiz-adv-x="886" 
d="M516 1475h248l-393 -1475h-248z" />
    <glyph glyph-name="zero" unicode="0" horiz-adv-x="1477" 
d="M739 -31q-280 0 -438 200t-158 568t158 568t438 200q281 0 438 -200t157 -568t-157 -568t-438 -200zM739 202q163 0 248.5 141t85.5 394t-85.5 394.5t-248.5 141.5t-249 -141.5t-86 -394.5q0 -252 86 -393.5t249 -141.5z" />
    <glyph glyph-name="one" unicode="1" horiz-adv-x="1014" 
d="M769 0h-249v1188l-274 -165l-123 213l397 239h249v-1475z" />
    <glyph glyph-name="two" unicode="2" horiz-adv-x="1270" 
d="M125 0v232l623 551q88 77 124.5 139t36.5 137q0 108 -70 161t-182 53q-117 0 -192 -64.5t-98 -182.5l-265 46q46 205 191.5 318t361.5 113q109 0 201 -27t163 -80t110.5 -140.5t37.5 -200.5q-2 -128 -64.5 -236t-149.5 -186l-452 -401h667v-232h-1043z" />
    <glyph glyph-name="three" unicode="3" horiz-adv-x="1334" 
d="M1212 458q0 -227 -151.5 -358t-394.5 -131q-106 0 -199.5 27t-172.5 81.5t-134 146t-78 212.5l256 39q27 -134 106.5 -204t226.5 -70q125 0 203.5 71t78.5 175q0 116 -75 177t-212 61h-171v199l354 359h-684v232h987v-232l-365 -365q208 -23 316.5 -128t108.5 -292z" />
    <glyph glyph-name="four" unicode="4" horiz-adv-x="1318" 
d="M1073 0h-249v260h-722v232l479 983h272l-479 -983h450v460h249v-460h144v-232h-144v-260z" />
    <glyph glyph-name="five" unicode="5" horiz-adv-x="1334" 
d="M1232 458q0 -227 -151.5 -358t-394.5 -131q-107 0 -200.5 27t-172 81.5t-133.5 146t-78 212.5l256 39q27 -134 106.5 -204t226.5 -70q125 0 204 71t79 175q0 116 -75.5 177t-212.5 61h-483l50 790h879v-232h-647l-20 -325h226q260 0 400.5 -122t140.5 -338z" />
    <glyph glyph-name="six" unicode="6" horiz-adv-x="1387" 
d="M680 -31q-282 0 -422 170.5t-148 519.5q-9 425 134 635.5t444 210.5q222 0 361.5 -103.5t189.5 -304.5l-250 -42q-34 115 -104.5 167t-192.5 52q-329 0 -338 -439l-1 -54q55 82 154.5 121.5t223.5 39.5q108 0 199 -29t161 -86.5t109.5 -151t39.5 -215.5
q0 -121 -45 -216.5t-123 -154.5t-177.5 -89.5t-214.5 -30.5zM680 201q141 0 220 67.5t79 183.5t-79 183t-220 67t-220 -67t-79 -183t78.5 -183.5t220.5 -67.5z" />
    <glyph glyph-name="seven" unicode="7" horiz-adv-x="1154" 
d="M473 0h-272l580 1243h-699v232h970v-232z" />
    <glyph glyph-name="eight" unicode="8" horiz-adv-x="1343" 
d="M672 1503q227 0 365.5 -114.5t138.5 -326.5q0 -101 -47 -184t-132 -120q96 -32 160 -125t64 -200q0 -150 -71.5 -256t-193.5 -157t-284 -51t-284 51t-193.5 157t-71.5 256q0 108 63.5 200.5t159.5 124.5q-85 36 -131.5 119.5t-46.5 184.5q0 212 138.5 326.5t365.5 114.5z
M672 866q127 0 189.5 57.5t62.5 141.5q0 98 -69.5 153t-182.5 55q-112 0 -180.5 -55t-68.5 -153q0 -84 61.5 -141.5t187.5 -57.5zM672 634q-140 0 -215 -54.5t-75 -155.5q0 -105 75.5 -164t214.5 -59t214.5 59t75.5 164q0 101 -74.5 155.5t-215.5 54.5z" />
    <glyph glyph-name="nine" unicode="9" horiz-adv-x="1387" 
d="M709 1503q282 0 421.5 -170.5t147.5 -519.5q9 -424 -134.5 -635t-444.5 -211q-221 0 -360.5 104t-190.5 306l250 41q34 -115 104.5 -167t192.5 -52q329 0 338 440l1 52q-55 -82 -154.5 -121.5t-222.5 -39.5q-108 0 -199 29t-161 86.5t-109.5 151.5t-39.5 216
q0 121 45 216t123 154t178 89.5t215 30.5zM709 1272q-142 0 -220.5 -67.5t-78.5 -183.5t79 -183.5t220 -67.5t219.5 67.5t78.5 183.5t-78.5 183.5t-219.5 67.5z" />
    <glyph glyph-name="colon" unicode=":" horiz-adv-x="701" 
d="M480 853h-253v253h253v-253zM478 0h-253v253h253v-253z" />
    <glyph glyph-name="semicolon" unicode=";" horiz-adv-x="703" 
d="M478 853h-253v253h253v-253zM225 -261l15 106q5 -1 13 -1q49 0 77 31.5t28 87.5v6q0 6 -1 16t-1 15h-131v263h253v-273q0 -88 -28 -150t-76 -85q-48 -21 -94 -21q-23 0 -55 5z" />
    <glyph glyph-name="less" unicode="&#x3c;" horiz-adv-x="1305" 
d="M932 306l-154 -152l-491 491l491 492l154 -153l-350 -339z" />
    <glyph glyph-name="equal" unicode="=" horiz-adv-x="1536" 
d="M1290 834h-1044v193h1044v-193zM1290 447h-1044v194h1044v-194z" />
    <glyph glyph-name="greater" unicode="&#x3e;" horiz-adv-x="1305" 
d="M527 154l-153 152l350 339l-350 339l153 153l492 -492z" />
    <glyph glyph-name="question" unicode="?" horiz-adv-x="1334" 
d="M1232 1018q0 -193 -111 -310.5t-315 -143.5v-202h-229v429h109q136 0 212 60.5t76 175.5q0 104 -79 175.5t-204 71.5q-147 0 -226.5 -70.5t-106.5 -204.5l-256 39q23 121 78 212.5t133.5 146t172 81.5t200.5 27q243 0 394.5 -130t151.5 -357zM806 0h-229v226h229v-226z
" />
    <glyph glyph-name="at" unicode="@" horiz-adv-x="1702" 
d="M1323 148q-72 -93 -164.5 -136t-222.5 -43q-174 0 -273 93.5t-99 238.5q0 76 24.5 135.5t64 98.5t98 67.5t118 44t132.5 24.5l283 35q-28 105 -118 159.5t-237 54.5q-242 0 -386 -151.5t-144 -403.5q0 -265 140 -416.5t385 -151.5q102 0 193.5 30t154.5 86l125 -197
q-193 -149 -472 -149q-343 0 -552 219t-209 579q0 352 209 562t557 210q293 0 451 -144t158 -410v-583h-216v148zM1294 527l-258 -32q-230 -27 -230 -173q0 -147 189 -147q99 0 172.5 48.5t102.5 125.5q22 50 24 167v11z" />
    <glyph glyph-name="A" unicode="A" horiz-adv-x="1374" 
d="M852 1475l487 -1475h-260l-104 319h-576l-104 -319h-260l488 1475h329zM474 550h426l-213 654z" />
    <glyph glyph-name="B" unicode="B" horiz-adv-x="1295" 
d="M712 0h-569v1475h553q215 0 352.5 -100.5t137.5 -287.5q0 -130 -64 -212.5t-148 -108.5q46 -9 90.5 -35t83 -68.5t62.5 -108t24 -143.5q0 -84 -26.5 -153t-74 -116.5t-113.5 -79.5t-143 -47t-165 -15zM701 1243h-310v-370h321q102 0 163 44t61 143q0 183 -235 183z
M391 231h321q59 0 104 8.5t85.5 30.5t62.5 64.5t22 104.5q0 207 -266 207h-329v-415z" />
    <glyph glyph-name="C" unicode="C" horiz-adv-x="1512" 
d="M767 -31q-327 0 -516.5 210.5t-189.5 557.5t189.5 557.5t516.5 210.5q250 0 422.5 -125t241.5 -346l-249 -68q-44 147 -148.5 227t-266.5 80q-213 0 -329.5 -144.5t-116.5 -391.5q0 -248 114 -391.5t332 -143.5q162 0 266.5 80t148.5 227l249 -69q-69 -221 -241.5 -346
t-422.5 -125z" />
    <glyph glyph-name="D" unicode="D" horiz-adv-x="1435" 
d="M609 0h-466v1475h466q349 0 538.5 -192t189.5 -546t-189 -545.5t-539 -191.5zM392 1243v-1012h192q493 0 493 506t-493 506h-192z" />
    <glyph glyph-name="E" unicode="E" horiz-adv-x="1200" 
d="M1098 0h-955v1475h955v-232h-707v-363h584v-232h-584v-417h707v-231z" />
    <glyph glyph-name="F" unicode="F" horiz-adv-x="1088" 
d="M391 0h-248v1475h905v-232h-657v-430h533v-231h-533v-582z" />
    <glyph glyph-name="G" unicode="G" horiz-adv-x="1511" 
d="M1181 0v195q-50 -105 -169 -165.5t-274 -60.5q-309 0 -493 205t-184 563q0 345 192.5 556.5t503.5 211.5q507 0 648 -481l-252 -40q-35 136 -138 212t-251 76q-208 0 -324.5 -141.5t-116.5 -395.5q0 -255 112.5 -394t326.5 -139q174 0 282 98t117 280h-486v231h755v-811
h-249z" />
    <glyph glyph-name="H" unicode="H" horiz-adv-x="1479" 
d="M391 0h-248v1475h248v-621h698v621h247v-1475h-247v623h-698v-623z" />
    <glyph glyph-name="I" unicode="I" horiz-adv-x="575" 
d="M413 0h-249v1475h249v-1475z" />
    <glyph glyph-name="J" unicode="J" horiz-adv-x="1024" 
d="M438 -31q-166 0 -279.5 87t-158.5 239l244 58q11 -63 65.5 -107.5t119.5 -44.5q48 0 94.5 24.5t68.5 72.5q19 44 19 184v993h248v-993q0 -93 -11 -166t-39.5 -140t-75 -111t-121.5 -70t-174 -26z" />
    <glyph glyph-name="K" unicode="K" horiz-adv-x="1327" 
d="M143 0v1475h249v-687l589 687h303l-634 -723l677 -752h-313l-622 689v-689h-249z" />
    <glyph glyph-name="L" unicode="L" horiz-adv-x="1093" 
d="M1063 0h-899v1475h248v-1244h651v-231z" />
    <glyph glyph-name="M" unicode="M" horiz-adv-x="1734" 
d="M392 0h-249v1475h248l476 -993l476 993h248v-1475h-248v979l-371 -776h-209l-371 776v-979z" />
    <glyph glyph-name="N" unicode="N" horiz-adv-x="1470" 
d="M391 0h-248v1475h248l687 -1049v1049h249v-1475h-249l-687 1049v-1049z" />
    <glyph glyph-name="O" unicode="O" horiz-adv-x="1534" 
d="M767 -31q-327 0 -516.5 210.5t-189.5 557.5t189.5 557.5t516.5 210.5q218 0 378.5 -96.5t244.5 -269.5t84 -402t-84 -402t-244.5 -269.5t-378.5 -96.5zM767 202q218 0 331.5 143t113.5 392t-113.5 392.5t-331.5 143.5q-217 0 -330 -143.5t-114 -392.5t112.5 -392
t331.5 -143z" />
    <glyph glyph-name="P" unicode="P" horiz-adv-x="1309" 
d="M392 0h-249v1475h583q257 0 389.5 -126t132.5 -355q0 -228 -132.5 -353.5t-389.5 -125.5h-334v-515zM392 1243v-498h332q133 0 204 64.5t71 184.5q0 121 -71 185t-204 64h-332z" />
    <glyph glyph-name="Q" unicode="Q" horiz-adv-x="1534" 
d="M1297 -31l-117 119q-172 -119 -413 -119q-327 0 -516.5 210.5t-189.5 557.5t189.5 557.5t516.5 210.5q218 0 378.5 -96.5t244.5 -269.5t84 -402q0 -295 -141 -495l117 -118zM767 202q140 0 237 60l-226 225l155 155l216 -217q63 127 63 312q0 249 -113.5 392.5
t-331.5 143.5q-217 0 -330 -143.5t-114 -392.5t112.5 -392t331.5 -143z" />
    <glyph glyph-name="R" unicode="R" horiz-adv-x="1353" 
d="M986 0l-333 515h-261v-515h-249v1475h583q257 0 389.5 -126t132.5 -355q0 -180 -82 -296.5t-242 -158.5l348 -539h-286zM392 1243v-498h332q133 0 204 64.5t71 184.5q0 121 -71 185t-204 64h-332z" />
    <glyph glyph-name="S" unicode="S" horiz-adv-x="1346" 
d="M689 -31q-246 0 -411 126.5t-199 340.5l256 39q33 -135 127 -204.5t243 -69.5q133 0 219 60.5t86 154.5q0 118 -164 167l-381 112q-329 98 -329 380q0 192 149 310t384 118q231 0 384 -112.5t203 -318.5l-265 -46q-24 118 -109.5 182.5t-216.5 64.5q-122 0 -196 -52.5
t-74 -135.5q0 -62 51 -104.5t165 -73.5l261 -72q200 -55 298 -155t98 -251q0 -205 -160 -332.5t-419 -127.5z" />
    <glyph glyph-name="T" unicode="T" horiz-adv-x="1165" 
d="M709 0h-249v1243h-440v232h1126v-232h-437v-1243z" />
    <glyph glyph-name="U" unicode="U" horiz-adv-x="1474" 
d="M737 -31q-272 0 -433 160.5t-161 459.5v886h248v-876q0 -200 85.5 -298.5t260.5 -98.5t260.5 98.5t85.5 298.5v876h248v-886q0 -299 -160.5 -459.5t-433.5 -160.5z" />
    <glyph glyph-name="V" unicode="V" horiz-adv-x="1325" 
d="M827 0h-328l-489 1475h260l393 -1205l392 1205h260z" />
    <glyph glyph-name="W" unicode="W" horiz-adv-x="1997" 
d="M707 0h-262l-421 1475h260l293 -1082l292 1082h259l294 -1082l292 1082h260l-422 -1475h-261l-292 1066z" />
    <glyph glyph-name="X" unicode="X" horiz-adv-x="1342" 
d="M325 0h-305l500 745l-485 730h302l336 -520l333 520h304l-486 -730l498 -745h-302l-347 536z" />
    <glyph glyph-name="Y" unicode="Y" horiz-adv-x="1252" 
d="M751 0h-248v604l-503 871h288l339 -588l338 588h287l-501 -871v-604z" />
    <glyph glyph-name="Z" unicode="Z" horiz-adv-x="1367" 
d="M1265 0h-1163v231l847 1012h-847v232h1163v-232l-847 -1012h847v-231z" />
    <glyph glyph-name="bracketleft" unicode="[" horiz-adv-x="867" 
d="M734 -434h-447v2271h447v-219h-228v-1833h228v-219z" />
    <glyph glyph-name="backslash" unicode="\" horiz-adv-x="886" 
d="M123 1475h248l393 -1475h-248z" />
    <glyph glyph-name="bracketright" unicode="]" horiz-adv-x="867" 
d="M581 -434h-448v219h228v1833h-228v219h448v-2271z" />
    <glyph glyph-name="asciicircum" unicode="^" horiz-adv-x="1393" 
d="M369 861l-154 153l492 492l492 -491l-152 -154l-339 349z" />
    <glyph glyph-name="underscore" unicode="_" horiz-adv-x="1351" 
d="M1352 -250h-1352v194h1352v-194z" />
    <glyph glyph-name="grave" unicode="`" horiz-adv-x="1102" 
d="M679 1633h-187l-158 379h187z" />
    <glyph glyph-name="a" unicode="a" horiz-adv-x="1179" 
d="M589 1137q237 0 352.5 -119.5t115.5 -364.5v-653h-246v148q-110 -179 -357 -179q-168 0 -270 91t-102 241q0 315 437 370l291 36q-6 213 -221 213q-99 0 -158 -37.5t-85 -116.5l-224 60q43 151 164 231t303 80zM811 526l-257 -31q-118 -14 -174 -56.5t-56 -116.5
q0 -147 189 -147q98 0 171.5 48.5t102.5 125.5q24 55 24 167v10z" />
    <glyph glyph-name="b" unicode="b" horiz-adv-x="1310" 
d="M141 0v1475h247v-518q108 180 340 180q219 0 360 -163t141 -421q0 -256 -141 -420t-360 -164q-234 0 -340 179v-148h-247zM677 905q-140 0 -214.5 -94t-74.5 -258q0 -163 72.5 -257.5t216.5 -94.5q142 0 216.5 94t74.5 258q0 161 -74 256.5t-217 95.5z" />
    <glyph glyph-name="c" unicode="c" horiz-adv-x="1178" 
d="M624 -31q-166 0 -290 76t-188 207.5t-64 300.5q0 170 66 302t190.5 207t288.5 75q188 0 319 -95t170 -259l-246 -66q-28 89 -94 138.5t-152 49.5q-138 0 -209.5 -95.5t-71.5 -256.5q0 -162 72.5 -257t208.5 -95q96 0 153.5 43.5t86.5 131.5l252 -57
q-52 -169 -179.5 -259.5t-312.5 -90.5z" />
    <glyph glyph-name="d" unicode="d" 
d="M924 1475h245v-1475h-245v148q-106 -179 -341 -179q-218 0 -359.5 164t-141.5 420q0 258 141 421t360 163q233 0 341 -180v518zM634 905q-142 0 -216.5 -95.5t-74.5 -256.5q0 -164 74.5 -258t216.5 -94q144 0 217 94.5t73 257.5q0 164 -75 258t-215 94z" />
    <glyph glyph-name="e" unicode="e" horiz-adv-x="1232" 
d="M634 197q183 0 257 157l244 -69q-64 -151 -195 -233.5t-306 -82.5q-247 0 -399.5 162t-152.5 422q0 261 153 422.5t397 161.5q262 0 399.5 -176.5t115.5 -476.5h-800q17 -137 91.5 -212t195.5 -75zM353 671h543q-9 117 -78.5 182t-185.5 65q-112 0 -184 -64.5t-95 -182.5
z" />
    <glyph glyph-name="f" unicode="f" horiz-adv-x="774" 
d="M240 877h-179v229h179v56q0 182 80.5 262.5t263.5 80.5h170v-200h-124q-79 0 -111.5 -32.5t-32.5 -113.5v-53h268v-229h-268v-877h-246v877z" />
    <glyph glyph-name="g" unicode="g" 
d="M583 1137q235 0 340 -170v139h246v-1048q0 -258 -144 -419t-400 -161q-187 0 -322.5 91.5t-186.5 258.5l251 56q60 -175 258 -175q143 0 220.5 95t77.5 257v119q-105 -170 -340 -170q-219 0 -360 155t-141 408q0 255 141 409.5t360 154.5zM634 242q138 0 213.5 89
t75.5 242q0 155 -77.5 243.5t-211.5 88.5q-136 0 -213.5 -90t-77.5 -242q0 -154 77.5 -242.5t213.5 -88.5z" />
    <glyph glyph-name="h" unicode="h" horiz-adv-x="1275" 
d="M906 0v609q0 142 -66.5 219t-191.5 77t-192.5 -77t-67.5 -219v-609h-247v1475h247v-513q94 175 325 175q205 0 322.5 -119.5t117.5 -357.5v-660h-247z" />
    <glyph glyph-name="i" unicode="i" horiz-adv-x="574" 
d="M411 1274h-247v226h247v-226zM411 0h-247v1106h247v-1106z" />
    <glyph glyph-name="j" unicode="j" horiz-adv-x="590" 
d="M443 1274h-245v226h245v-226zM131 -492h-151v230h74q74 0 109 34.5t35 108.5v1225h245v-1285q0 -151 -77.5 -232t-234.5 -81z" />
    <glyph glyph-name="k" unicode="k" horiz-adv-x="1096" 
d="M141 0v1475h247v-902l405 533h308l-429 -553l466 -553h-327l-423 534v-534h-247z" />
    <glyph glyph-name="l" unicode="l" horiz-adv-x="574" 
d="M411 0h-247v1505h247v-1505z" />
    <glyph glyph-name="m" unicode="m" horiz-adv-x="1841" 
d="M806 0v660q0 115 -52 180t-156 65t-157 -65t-53 -180v-660h-247v1106h247v-133q82 164 272 164q249 0 340 -175q48 80 127 127.5t183 47.5q200 0 304 -107.5t104 -317.5v-712h-247v660q0 115 -51.5 180t-155.5 65t-157 -65.5t-53 -179.5l-2 2v-662h-246z" />
    <glyph glyph-name="n" unicode="n" horiz-adv-x="1275" 
d="M906 0v609q0 142 -66.5 219t-191.5 77t-192.5 -77t-67.5 -219v-609h-247v1106h247v-144q94 175 325 175q205 0 322.5 -119.5t117.5 -357.5v-660h-247z" />
    <glyph glyph-name="o" unicode="o" horiz-adv-x="1265" 
d="M632 -31q-246 0 -398 162.5t-152 421.5t152.5 421.5t397.5 162.5q248 0 400 -162t152 -422t-152.5 -422t-399.5 -162zM632 201q139 0 215 93.5t76 258.5q0 167 -75.5 259.5t-215.5 92.5t-214.5 -92t-74.5 -260q0 -167 75.5 -259.5t213.5 -92.5z" />
    <glyph glyph-name="p" unicode="p" 
d="M390 -492h-247v1598h247v-149q107 180 340 180q219 0 360 -164t141 -420q0 -258 -141 -421t-360 -163q-233 0 -340 179v-640zM679 201q143 0 217 95.5t74 256.5q0 164 -74.5 258t-216.5 94q-144 0 -216.5 -94.5t-72.5 -257.5q0 -164 74.5 -258t214.5 -94z" />
    <glyph glyph-name="q" unicode="q" 
d="M1169 1106v-1598h-246v640q-106 -179 -340 -179q-219 0 -360 163t-141 421q0 256 141 420t360 164q233 0 340 -180v149h246zM634 201q140 0 214.5 94t74.5 258q0 163 -72.5 257.5t-216.5 94.5q-142 0 -216.5 -94t-74.5 -258q0 -161 74.5 -256.5t216.5 -95.5z" />
    <glyph glyph-name="r" unicode="r" horiz-adv-x="816" 
d="M765 1135v-238q-37 8 -117 8q-125 0 -192.5 -77t-67.5 -219v-609h-247v1106h247v-144q94 175 325 175q18 0 52 -2z" />
    <glyph glyph-name="s" unicode="s" horiz-adv-x="1108" 
d="M573 -31q-205 0 -332.5 91.5t-158.5 260.5l253 39q42 -177 244 -177q90 0 142.5 35t52.5 97q0 39 -19.5 62t-74.5 43q-52 18 -184 54q-201 53 -289.5 124.5t-88.5 200.5q0 153 120 245.5t317 92.5q191 0 316.5 -88.5t147.5 -238.5l-252 -45q-10 74 -69 116.5t-151 42.5
q-80 0 -131.5 -32t-51.5 -82q0 -41 34 -64t109 -47q92 -28 201 -58q173 -47 246 -119.5t73 -194.5q0 -167 -121.5 -262.5t-332.5 -95.5z" />
    <glyph glyph-name="t" unicode="t" horiz-adv-x="886" 
d="M20 877v229h201v369h246v-369h325v-229h-325v-515q0 -74 34.5 -108.5t108.5 -34.5h182v-219h-233q-160 0 -249 82t-89 230v565h-201z" />
    <glyph glyph-name="u" unicode="u" horiz-adv-x="1277" 
d="M369 1106v-608q0 -142 67 -219.5t192 -77.5t192.5 77.5t67.5 219.5v608h246v-1106h-246v144q-96 -175 -326 -175q-205 0 -322 119t-117 357v661h246z" />
    <glyph glyph-name="v" unicode="v" horiz-adv-x="1132" 
d="M690 0h-248l-401 1106h248l277 -803l279 803h247z" />
    <glyph glyph-name="w" unicode="w" horiz-adv-x="1648" 
d="M1021 0l-197 717l-195 -717h-248l-340 1106h247l217 -763l216 763h208l216 -763l216 763h247l-339 -1106h-248z" />
    <glyph glyph-name="x" unicode="x" horiz-adv-x="1134" 
d="M311 0h-291l405 559l-396 547h290l249 -353l245 353h291l-396 -547l406 -559h-291l-255 366z" />
    <glyph glyph-name="y" unicode="y" horiz-adv-x="1145" 
d="M520 -492h-231l182 499l-447 1099h257l308 -792l301 792h247z" />
    <glyph glyph-name="z" unicode="z" horiz-adv-x="1072" 
d="M990 0h-949v229l636 648h-636v229h949v-229l-636 -648h636v-229z" />
    <glyph glyph-name="braceleft" unicode="{" horiz-adv-x="919" 
d="M837 -434h-141q-131 0 -208.5 77.5t-77.5 209.5v615q0 21 -13 39l-90 129q-21 30 -21 65.5t21 65.5l90 129q13 21 13 39v615q0 131 77.5 209t208.5 78h141v-232h-123q-30 0 -50.5 -21t-20.5 -51v-598q0 -96 -56 -174l-43 -60l43 -59q56 -77 56 -174v-599q0 -30 21 -51
t50 -21h123v-231z" />
    <glyph glyph-name="bar" unicode="|" horiz-adv-x="615" 
d="M431 0h-247v1475h247v-1475z" />
    <glyph glyph-name="braceright" unicode="}" horiz-adv-x="919" 
d="M223 -434h-139v231h122q29 0 50.5 21t21.5 51v599q0 97 55 174l44 59l-44 60q-55 79 -55 174v598q0 30 -21 51t-51 21h-122v232h139q131 0 209 -78t78 -209v-615q0 -19 12 -39l91 -129q19 -30 19 -65.5t-19 -65.5l-91 -129q-12 -17 -12 -39v-615q0 -132 -78 -209.5
t-209 -77.5z" />
    <glyph glyph-name="asciitilde" unicode="~" horiz-adv-x="1466" 
d="M973 419q-83 0 -180 57q-34 19 -97 62q-66 45 -104 64t-69 19q-29 0 -47.5 -20.5t-20.5 -46.5q-2 -30 -2 -32q0 -29 9 -65h-219q-18 77 -18 134q0 38 14 106q12 65 78 121q66 54 175 54q86 0 182 -56q34 -19 97 -62q70 -47 105.5 -65t66.5 -18q28 0 47.5 20.5t21.5 45.5
q2 30 2 32q0 31 -9 67h219q17 -74 17 -136q0 -39 -12 -105q-14 -67 -80 -121q-65 -55 -176 -55z" />
    <glyph glyph-name="uni00A0" unicode="&#xa0;" horiz-adv-x="409" 
 />
    <glyph glyph-name="exclamdown" unicode="&#xa1;" horiz-adv-x="738" 
d="M246 1106h229v-226h-229v226zM246 737h229v-1106h-229v1106z" />
    <glyph glyph-name="cent" unicode="&#xa2;" horiz-adv-x="1178" 
d="M539 -59v187q-140 19 -243.5 97.5t-158.5 203.5q-53 123 -55 278q1 154 56 278t158 201t243 97v192h193v-194q148 -25 249 -115.5t135 -228.5l-246 -67q-28 88 -94 138.5t-152 50.5q-141 0 -209 -96q-71 -98 -72 -256q0 -163 73.5 -258t207.5 -95q94 0 152 43t88 132
l252 -56q-43 -142 -142 -229t-242 -112v-191h-193z" />
    <glyph glyph-name="sterling" unicode="&#xa3;" horiz-adv-x="1336" 
d="M79 0v231h100q71 54 85 143t-28 226l-4 9h-151v232h83q-27 106 -27 192q0 223 141 346.5t408 123.5q225 0 374 -113.5t198 -317.5l-265 -46q-24 116 -110 181.5t-202 65.5q-78 0 -139 -21t-103 -76t-42 -140q0 -90 29 -195h557v-232h-488q66 -241 -10 -378h722v-231
h-1128z" />
    <glyph glyph-name="currency" unicode="&#xa4;" horiz-adv-x="1373" 
d="M686 201q-145 0 -268 72l-19 13l-174 -173l-164 163l173 174q-2 4 -6 10.5t-6 9.5q-72 123 -72 269t72 269q4 9 11 17l-172 172l164 165l172 -172q7 5 21 13q125 73 268 73q144 0 270 -73q14 -8 20 -12l172 171l164 -165l-171 -171q8 -12 11 -18q73 -125 73 -269
t-73 -269l-12 -21l172 -173l-164 -163l-173 172q-4 -2 -19 -12q-124 -72 -270 -72zM686 410q88 0 164 44.5t121 120.5q44 73 44 162q0 88 -44.5 164t-120.5 120q-73 44 -164 44q-89 0 -164.5 -43.5t-119.5 -118.5q-44 -73 -44 -166q0 -86 44.5 -161t120.5 -121
q75 -45 163 -45z" />
    <glyph glyph-name="yen" unicode="&#xa5;" horiz-adv-x="1252" 
d="M502 537h-295v193h222l-429 745h288l339 -588l338 588h287l-429 -745h224v-193h-295v-142h295v-193h-295v-202h-250v202h-295v193h295v142z" />
    <glyph glyph-name="brokenbar" unicode="&#xa6;" horiz-adv-x="615" 
d="M431 640h-247v835h247v-835zM431 -418h-247v835h247v-835z" />
    <glyph glyph-name="section" unicode="&#xa7;" horiz-adv-x="1108" 
d="M570 -287q-186 0 -310.5 89.5t-154.5 262.5l252 38q20 -83 84 -129.5t145 -46.5q71 0 119.5 35t48.5 97q0 41 -24 65.5t-77 44.5q-69 22 -165 46l-16 4q-134 36 -213 75.5t-120 94.5q-42 57 -42 134q0 95 59 162q51 57 126 87q-78 39 -119 96q-41 59 -41 151
q0 107 57 185.5t153 117.5q92 37 198 37q108 0 200.5 -38.5t154.5 -111.5q63 -75 76 -177l-252 -45q-26 159 -188 159q-67 0 -110.5 -29t-43.5 -81q0 -67 91 -100q58 -21 119 -36q81 -19 92 -23q135 -38 209 -76t112 -94q40 -58 40 -148q0 -102 -49 -170q-41 -55 -99 -82
q52 -33 85 -81q40 -59 40 -151q0 -169 -121.5 -265.5t-315.5 -96.5zM674 391q13 6 22 12q37 22 59 57.5t22 77.5q0 41 -23 65t-76 43q-78 25 -165 47l-17 4q-1 1 -6 1q-62 -22 -104 -54q-43 -36 -43 -86q0 -68 91 -100q55 -20 123 -36q7 -2 88 -24q5 -2 29 -7z" />
    <glyph glyph-name="dieresis" unicode="&#xa8;" horiz-adv-x="1139" 
d="M894 1646h-225v225h225v-225zM471 1646h-225v225h225v-225z" />
    <glyph glyph-name="copyright" unicode="&#xa9;" horiz-adv-x="1815" 
d="M907 -121q-229 0 -423 114t-308 308q-115 194 -115 424q0 231 115 425q114 194 308 307q194 114 423 114q230 0 425 -114q192 -113 308 -307q114 -195 114 -425q0 -229 -114 -424q-115 -194 -308 -308q-195 -114 -425 -114zM907 111q166 0 308 83q142 82 225 223
q82 143 82 308t-82 308q-82 140 -225 224q-143 82 -308 82t-308 -82q-142 -83 -223 -224q-83 -142 -83 -308t83 -308q81 -142 223 -223q142 -83 308 -83zM924 289q-102 0 -176 32.5t-132 103.5q-100 123 -100 301q0 181 100 298q113 138 317 138q117 0 206 -54
q120 -72 153 -212l-188 -51q-18 59 -68 102q-48 39 -113 39q-97 0 -156 -75q-51 -63 -51 -185q0 -116 51 -184q55 -76 159 -76q72 0 113 36q41 38 61 93l192 -41q-38 -123 -134 -197q-96 -68 -234 -68z" />
    <glyph glyph-name="ordfeminine" unicode="&#xaa;" horiz-adv-x="655" 
d="M548 1033q21 -42 21 -127v-339h-113v72q-71 -87 -192 -87q-83 0 -133.5 46t-50.5 121q0 159 216 185l145 18q-3 98 -107 98q-91 0 -116 -73l-119 33q22 72 81 113.5t154 41.5q162 0 214 -102zM440 828l-125 -15q-107 -13 -107 -83t89 -70q45 0 80.5 22t49.5 57
q13 31 13 82v7z" />
    <glyph glyph-name="guillemotleft" unicode="&#xab;" horiz-adv-x="1200" 
d="M1074 203l-132 -104l-360 454l360 454l132 -104l-278 -350zM656 203l-132 -104l-360 454l360 454l132 -104l-279 -350z" />
    <glyph glyph-name="logicalnot" unicode="&#xac;" horiz-adv-x="1228" 
d="M1106 381h-194v240h-789v193h983v-433z" />
    <glyph glyph-name="uni00AD" unicode="&#xad;" horiz-adv-x="860" 
d="M737 549h-614v193h614v-193z" />
    <glyph glyph-name="registered" unicode="&#xae;" horiz-adv-x="1341" 
d="M670 559q-142 0 -263 72q-122 71 -192 191q-72 122 -72 265t72 264q69 119 192 192q122 71 263 71q143 0 265 -71q121 -71 192 -192q71 -122 71 -264q0 -143 -71 -265q-72 -121 -192 -191q-121 -72 -265 -72zM672 723q97 0 180 49t134 134q49 83 49 181t-48.5 181.5
t-132.5 133.5q-83 49 -182 49q-98 0 -182 -48.5t-133 -132.5q-49 -83 -49 -183q0 -98 48.5 -181t132.5 -133q82 -50 183 -50zM607 846h-106v484h206q73 0 117.5 -44t46.5 -116q0 -96 -85 -142l91 -182h-119l-80 166h-71v-166zM607 1104h85q32 0 52 17t20 49q0 67 -72 67h-85
v-133z" />
    <glyph glyph-name="macron" unicode="&#xaf;" horiz-adv-x="1037" 
d="M792 1720h-546v192h546v-192z" />
    <glyph glyph-name="degree" unicode="&#xb0;" horiz-adv-x="921" 
d="M430 768q-100 0 -184 48.5t-134 134.5q-51 84 -51 186q0 98 50.5 182.5t136.5 135.5q82 50 182 50t185 -48.5t135 -134.5q49 -83 49 -185q0 -100 -49.5 -185t-134.5 -135q-83 -49 -185 -49zM430 979q64 0 111 47t47 111t-47 110.5t-111 46.5t-111 -46.5t-47 -110.5
t47 -111t111 -47z" />
    <glyph glyph-name="plusminus" unicode="&#xb1;" horiz-adv-x="1228" 
d="M712 451h-194v231h-395v194h395v230h194v-230h394v-194h-394v-231zM1106 132h-983v194h983v-194z" />
    <glyph glyph-name="twosuperior" unicode="&#xb2;" horiz-adv-x="876" 
d="M117 553v150l389 344q55 48 77.5 85t22.5 82q0 66 -42.5 99t-111.5 33q-72 0 -118.5 -39.5t-60.5 -111.5l-171 30q30 129 121.5 199.5t226.5 70.5q144 0 235 -71t88 -212q-2 -146 -136 -264l-279 -245h415v-150h-656z" />
    <glyph glyph-name="threesuperior" unicode="&#xb3;" horiz-adv-x="916" 
d="M794 838q0 -143 -95.5 -225.5t-248.5 -82.5q-140 0 -240 73t-128 223l166 25q33 -171 206 -171q76 0 124 44t48 107q0 71 -46 108.5t-130 37.5h-109v128l219 220h-427v150h623v-150l-226 -224q129 -14 196.5 -80t67.5 -183z" />
    <glyph glyph-name="acute" unicode="&#xb4;" horiz-adv-x="1102" 
d="M770 2012l-159 -379h-187l159 379h187z" />
    <glyph glyph-name="uni00B5" unicode="&#xb5;" horiz-adv-x="1299" 
d="M908 1106h248v-1106h-248v144q-94 -175 -324 -175q-108 0 -194 33l1 -494h-250v1598h250v-639q7 -128 73 -197t184 -69q125 0 192.5 77t67.5 220v608z" />
    <glyph glyph-name="paragraph" unicode="&#xb6;" horiz-adv-x="1464" 
d="M936 -289h-247v804h-96q-58 0 -119 8q-180 27 -277.5 154t-97.5 317q0 125 40.5 223.5t126.5 165t208 83.5q68 9 119 9h343v-1764zM1366 -289h-247v1764h247v-1764z" />
    <glyph glyph-name="periodcentered" unicode="&#xb7;" horiz-adv-x="545" 
d="M276 495q-64 0 -108.5 43.5t-44.5 106.5t44.5 107t108.5 44q60 0 103.5 -44t43.5 -107t-43.5 -106.5t-103.5 -43.5z" />
    <glyph glyph-name="cedilla" unicode="&#xb8;" horiz-adv-x="846" 
d="M387 -495q-73 0 -141 37l54 147q47 -15 66 -15q28 0 46 16.5t18 39.5q0 41 -58 66q-36 15 -68 24q-1 0 -3.5 1t-4.5 1l73 210l149 1l-41 -119q125 -63 125 -189q0 -95 -63 -157.5t-152 -62.5z" />
    <glyph glyph-name="onesuperior" unicode="&#xb9;" horiz-adv-x="779" 
d="M534 553h-160v737l-172 -103l-79 137l251 151h160v-922z" />
    <glyph glyph-name="ordmasculine" unicode="&#xba;" horiz-adv-x="719" 
d="M359 553q-123 0 -200 82t-77 210q0 129 77.5 210.5t199.5 81.5q124 0 201.5 -82t77.5 -210q0 -129 -77.5 -210.5t-201.5 -81.5zM359 676q67 0 103.5 45.5t36.5 123.5q0 79 -36.5 124t-103.5 45q-68 0 -103 -45t-35 -124q0 -80 35.5 -124.5t102.5 -44.5z" />
    <glyph glyph-name="guillemotright" unicode="&#xbb;" horiz-adv-x="1200" 
d="M258 99l-132 104l278 350l-278 350l132 104l360 -454zM676 99l-132 104l279 350l-279 350l132 104l360 -454z" />
    <glyph glyph-name="onequarter" unicode="&#xbc;" horiz-adv-x="2120" 
d="M1545 1377l-1008 -1377l-145 108l1010 1379zM456 553h-160v737l-172 -103l-79 137l251 151h160v-922zM1789 0h-160v162h-446v148l295 612h176l-296 -612h271v285h160v-285h90v-148h-90v-162z" />
    <glyph glyph-name="onehalf" unicode="&#xbd;" horiz-adv-x="2076" 
d="M1545 1377l-1008 -1377l-145 108l1010 1379zM456 553h-160v737l-172 -103l-79 137l251 151h160v-922zM1974 0h-656v151l389 343q54 48 77 85t23 83q0 66 -42.5 98.5t-111.5 32.5q-71 0 -117.5 -39.5t-60.5 -111.5l-171 30q30 129 121 199.5t226 70.5q144 0 235 -71
t88 -212q-2 -146 -136 -264l-278 -244h414v-151z" />
    <glyph glyph-name="threequarters" unicode="&#xbe;" horiz-adv-x="2105" 
d="M1668 1377l-1009 -1377l-144 108l1010 1379zM783 838q0 -143 -95.5 -225.5t-248.5 -82.5q-139 0 -239 73t-128 223l166 25q33 -171 205 -171q76 0 124 44t48 107q0 71 -46 108.5t-130 37.5h-108v128l219 220h-427v150h622v-150l-225 -224q263 -29 263 -263zM1901 0h-160
v162h-447v148l295 612h176l-296 -612h272v285h160v-285h90v-148h-90v-162z" />
    <glyph glyph-name="questiondown" unicode="&#xbf;" horiz-adv-x="1334" 
d="M528 1106h230v-226h-230v226zM102 89q0 192 111 309.5t315 143.5v201h230v-427h-110q-136 0 -212 -61t-76 -176q0 -104 79 -175.5t204 -71.5q147 0 226.5 70t106.5 204l256 -38q-23 -121 -78 -212.5t-133.5 -146t-172 -81.5t-200.5 -27q-243 0 -394.5 130.5t-151.5 357.5
z" />
    <glyph glyph-name="Agrave" unicode="&#xc0;" horiz-adv-x="1374" 
d="M756 1633h-188l-157 379h187zM35 0l488 1475h328l488 -1475h-260l-104 319h-576l-104 -319h-260zM687 1204l-213 -654h426z" />
    <glyph glyph-name="Aacute" unicode="&#xc1;" horiz-adv-x="1374" 
d="M806 1633h-188l158 379h188zM852 1475l487 -1475h-260l-104 319h-576l-104 -319h-260l488 1475h329zM474 550h426l-213 654z" />
    <glyph glyph-name="Acircumflex" unicode="&#xc2;" horiz-adv-x="1374" 
d="M301 1633l280 323h206l281 -323h-230l-154 183l-153 -183h-230zM852 1475l487 -1475h-260l-104 319h-576l-104 -319h-260l488 1475h329zM474 550h426l-213 654z" />
    <glyph glyph-name="Atilde" unicode="&#xc3;" horiz-adv-x="1373" 
d="M858 1690q-43 0 -85 19t-111 65q-82 58 -123 58q-17 0 -28.5 -9t-15.5 -22.5t-5.5 -22t-1.5 -15.5q0 -22 8 -46h-156q-12 51 -12 94q0 29 9 77q9 47 56 85q45 38 124 38q43 0 85.5 -19.5t112.5 -64.5q84 -58 122 -58q32 0 41 24t9 44q0 24 -7 48h155q13 -55 13 -96
q0 -18 -9 -74q-9 -48 -56 -86q-48 -39 -125 -39zM852 1475l487 -1475h-260l-104 319h-576l-104 -319h-260l488 1475h329zM474 550h426l-213 654z" />
    <glyph glyph-name="Adieresis" unicode="&#xc4;" horiz-adv-x="1374" 
d="M786 1646v225h226v-225h-226zM364 1646v225h225v-225h-225zM852 1475l487 -1475h-260l-104 319h-576l-104 -319h-260l488 1475h329zM474 550h426l-213 654z" />
    <glyph glyph-name="Aring" unicode="&#xc5;" horiz-adv-x="1373" 
d="M688 1589q-107 0 -185.5 78.5t-78.5 184.5t79 185t185 79q70 0 131.5 -35t96.5 -96q35 -58 35 -133q0 -71 -35 -131.5t-96 -95.5q-62 -36 -132 -36zM688 1740q46 0 79.5 33t33.5 79t-33.5 79.5t-79.5 33.5t-79.5 -33.5t-33.5 -79.5t33.5 -79t79.5 -33zM852 1475
l487 -1475h-260l-104 319h-576l-104 -319h-260l488 1475h329zM474 550h426l-213 654z" />
    <glyph glyph-name="AE" unicode="&#xc6;" horiz-adv-x="1923" 
d="M867 0v319h-468l-104 -319h-260l488 1475h1298v-232h-706v-363h583v-232h-583v-417h706v-231h-954zM474 550h393v693h-167z" />
    <glyph glyph-name="Ccedilla" unicode="&#xc7;" horiz-adv-x="1512" 
d="M737 -495q-74 0 -142 37l54 147q47 -15 67 -15q28 0 45.5 16.5t17.5 39.5q0 42 -58 66q-36 15 -68 24q-1 0 -3.5 1t-4.5 1l52 150q-197 15 -341.5 115t-219.5 267t-75 383q0 347 189.5 557.5t516.5 210.5q250 0 422.5 -125t241.5 -346l-249 -68q-44 147 -148.5 227
t-266.5 80q-213 0 -329.5 -144.5t-116.5 -391.5q0 -248 114 -391.5t332 -143.5q162 0 266.5 80t148.5 227l249 -69q-64 -202 -214.5 -325t-369.5 -143l-21 -58q125 -62 125 -189q0 -95 -62.5 -157.5t-151.5 -62.5z" />
    <glyph glyph-name="Egrave" unicode="&#xc8;" horiz-adv-x="1200" 
d="M736 1633h-187l-158 379h188zM1098 0h-955v1475h955v-232h-706v-363h583v-232h-583v-417h706v-231z" />
    <glyph glyph-name="Eacute" unicode="&#xc9;" horiz-adv-x="1200" 
d="M901 2012l-159 -379h-187l159 379h187zM1098 0h-955v1475h955v-232h-707v-363h584v-232h-584v-417h707v-231z" />
    <glyph glyph-name="Ecircumflex" unicode="&#xca;" horiz-adv-x="1200" 
d="M455 1633h-231l280 323h207l280 -323h-230l-154 183zM1098 0h-955v1475h955v-232h-707v-363h584v-232h-584v-417h707v-231z" />
    <glyph glyph-name="Edieresis" unicode="&#xcb;" horiz-adv-x="1200" 
d="M939 1646h-225v225h225v-225zM516 1646h-225v225h225v-225zM1098 0h-955v1475h955v-232h-706v-363h583v-232h-583v-417h706v-231z" />
    <glyph glyph-name="Igrave" unicode="&#xcc;" horiz-adv-x="575" 
d="M377 1633h-188l-157 379h187zM412 0h-249v1475h249v-1475z" />
    <glyph glyph-name="Iacute" unicode="&#xcd;" horiz-adv-x="575" 
d="M544 2012l-159 -379h-187l158 379h188zM412 0h-248v1475h248v-1475z" />
    <glyph glyph-name="Icircumflex" unicode="&#xce;" horiz-adv-x="574" 
d="M131 1633h-230l279 323h207l280 -323h-231l-152 183zM412 0h-249v1475h249v-1475z" />
    <glyph glyph-name="Idieresis" unicode="&#xcf;" horiz-adv-x="574" 
d="M611 1646h-225v225h225v-225zM188 1646h-225v225h225v-225zM412 0h-249v1475h249v-1475z" />
    <glyph glyph-name="Eth" unicode="&#xd0;" horiz-adv-x="1440" 
d="M20 641v194h121v640h467q349 0 538 -192t189 -546t-189 -545.5t-538 -191.5h-467v641h-121zM391 1242v-407h321v-194h-321v-409h190q493 0 493 505t-493 505h-190z" />
    <glyph glyph-name="Ntilde" unicode="&#xd1;" horiz-adv-x="1470" 
d="M929 1638q-43 0 -86.5 19.5t-111.5 64.5q-83 59 -122 59q-50 0 -50 -71q0 -22 6 -44h-155q-12 58 -12 94q0 24 10 77q7 46 55 85q47 38 124 38q45 0 86 -19t111 -65q84 -58 123 -58q32 0 41 24t9 44q0 23 -7 47h156q12 -50 12 -94q0 -28 -9 -76q-9 -47 -55 -86
q-48 -39 -125 -39zM391 0h-248v1475h248l687 -1040v1040h249v-1475h-249l-687 1039v-1039z" />
    <glyph glyph-name="Ograve" unicode="&#xd2;" horiz-adv-x="1534" 
d="M651 1633l-157 379h187l158 -379h-188zM767 -31q-327 0 -516.5 210.5t-189.5 557.5t189.5 557.5t516.5 210.5q218 0 378.5 -96.5t244.5 -269.5t84 -402t-84 -402t-244.5 -269.5t-378.5 -96.5zM767 202q218 0 331.5 143t113.5 392t-113.5 392.5t-331.5 143.5
q-217 0 -330 -143.5t-114 -392.5t112.5 -392t331.5 -143z" />
    <glyph glyph-name="Oacute" unicode="&#xd3;" horiz-adv-x="1534" 
d="M871 1633h-187l159 379h187zM767 -31q-327 0 -516.5 210.5t-189.5 557.5t189.5 557.5t516.5 210.5q218 0 378.5 -96.5t244.5 -269.5t84 -402t-84 -402t-244.5 -269.5t-378.5 -96.5zM767 202q218 0 331.5 143t113.5 392t-113.5 392.5t-331.5 143.5q-217 0 -330 -143.5
t-114 -392.5t112.5 -392t331.5 -143z" />
    <glyph glyph-name="Ocircumflex" unicode="&#xd4;" horiz-adv-x="1534" 
d="M381 1633l279 323h207l280 -323h-231l-152 183l-153 -183h-230zM767 -31q-327 0 -516.5 210.5t-189.5 557.5t189.5 557.5t516.5 210.5q218 0 378.5 -96.5t244.5 -269.5t84 -402t-84 -402t-244.5 -269.5t-378.5 -96.5zM767 202q218 0 331.5 143t113.5 392t-113.5 392.5
t-331.5 143.5q-217 0 -330 -143.5t-114 -392.5t112.5 -392t331.5 -143z" />
    <glyph glyph-name="Otilde" unicode="&#xd5;" horiz-adv-x="1534" 
d="M951 1638q-43 0 -85 19t-111 65q-83 59 -123 59q-22 0 -34.5 -17t-14 -29t-1.5 -23q0 -25 7 -46h-156q-12 51 -12 94q0 29 9 77q9 47 56 85q45 38 124 38q43 0 85.5 -19.5t112.5 -64.5q84 -58 122 -58q32 0 41 24t9 44q0 23 -7 47h155q13 -55 13 -95q0 -25 -8 -75
q-9 -47 -57 -86t-125 -39zM767 -31q-327 0 -516.5 210.5t-189.5 557.5t189.5 557.5t516.5 210.5q218 0 378.5 -96.5t244.5 -269.5t84 -402t-84 -402t-244.5 -269.5t-378.5 -96.5zM767 202q218 0 331.5 143t113.5 392t-113.5 392.5t-331.5 143.5q-217 0 -330 -143.5
t-114 -392.5t112.5 -392t331.5 -143z" />
    <glyph glyph-name="Odieresis" unicode="&#xd6;" horiz-adv-x="1534" 
d="M866 1646v225h226v-225h-226zM443 1646v225h226v-225h-226zM767 -31q-327 0 -516.5 210.5t-189.5 557.5t189.5 557.5t516.5 210.5q218 0 378.5 -96.5t244.5 -269.5t84 -402t-84 -402t-244.5 -269.5t-378.5 -96.5zM767 202q218 0 331.5 143t113.5 392t-113.5 392.5
t-331.5 143.5q-217 0 -330 -143.5t-114 -392.5t112.5 -392t331.5 -143z" />
    <glyph glyph-name="multiply" unicode="&#xd7;" horiz-adv-x="1037" 
d="M915 479l-137 -136l-259 259l-259 -259l-137 136l260 260l-258 258l136 137l258 -258l258 258l137 -137l-258 -258z" />
    <glyph glyph-name="Oslash" unicode="&#xd8;" horiz-adv-x="1534" 
d="M256 -27l-174 155l111 125q-132 199 -132 484q0 347 189.5 557.5t516.5 210.5q253 0 429 -131l113 126l174 -157l-128 -142q119 -193 119 -464q0 -229 -84 -402t-244.5 -269.5t-378.5 -96.5q-239 0 -410 118zM374 450l663 740q-110 83 -270 83q-217 0 -330 -143.5
t-114 -392.5q0 -167 51 -287zM767 202q218 0 331.5 143t113.5 392q0 152 -43 265l-653 -731q103 -69 251 -69z" />
    <glyph glyph-name="Ugrave" unicode="&#xd9;" horiz-adv-x="1474" 
d="M663 1633l-159 379h187l159 -379h-187zM737 -31q-272 0 -433 160.5t-161 459.5v886h248v-876q0 -200 85.5 -298.5t260.5 -98.5t260.5 98.5t85.5 298.5v876h248v-886q0 -299 -160.5 -459.5t-433.5 -160.5z" />
    <glyph glyph-name="Uacute" unicode="&#xda;" horiz-adv-x="1474" 
d="M825 1633h-187l158 379h187zM737 -31q-272 0 -433 160.5t-161 459.5v886h248v-876q0 -200 85.5 -298.5t260.5 -98.5t260.5 98.5t85.5 298.5v876h248v-886q0 -299 -160.5 -459.5t-433.5 -160.5z" />
    <glyph glyph-name="Ucircumflex" unicode="&#xdb;" horiz-adv-x="1474" 
d="M350 1633l281 323h207l279 -323h-230l-153 183l-153 -183h-231zM737 -31q-272 0 -433 160.5t-161 459.5v886h248v-876q0 -200 85.5 -298.5t260.5 -98.5t260.5 98.5t85.5 298.5v876h248v-886q0 -299 -160.5 -459.5t-433.5 -160.5z" />
    <glyph glyph-name="Udieresis" unicode="&#xdc;" horiz-adv-x="1474" 
d="M837 1646v225h225v-225h-225zM413 1646v225h225v-225h-225zM737 -31q-272 0 -433 160.5t-161 459.5v886h248v-876q0 -200 85.5 -298.5t260.5 -98.5t260.5 98.5t85.5 298.5v876h248v-886q0 -299 -160.5 -459.5t-433.5 -160.5z" />
    <glyph glyph-name="Yacute" unicode="&#xdd;" horiz-adv-x="1252" 
d="M872 2012l-157 -379h-188l158 379h187zM751 0h-248v604l-503 871h288l339 -588l338 588h287l-501 -871v-604z" />
    <glyph glyph-name="Thorn" unicode="&#xde;" horiz-adv-x="1309" 
d="M391 0h-248v1475h248v-257h334q257 0 390 -126t133 -355t-133 -354.5t-390 -125.5h-334v-257zM391 986v-498h333q133 0 203.5 64t70.5 185t-70.5 185t-203.5 64h-333z" />
    <glyph glyph-name="germandbls" unicode="&#xdf;" horiz-adv-x="1298" 
d="M706 -31q-121 0 -191 31v242q78 -31 156 -31q121 0 189.5 58t68.5 168q0 116 -88 176.5t-242 60.5v216q99 7 153.5 57t54.5 138q0 86 -60.5 137.5t-148.5 51.5q-132 0 -181 -102q-26 -52 -26 -153v-1019h-250v1086q0 84 20 142q45 140 163 209q115 68 273 68
q128 0 232.5 -52.5t165.5 -147.5q61 -96 61 -214q0 -183 -124 -276q108 -39 176 -142.5t68 -238.5q0 -219 -122.5 -342t-347.5 -123z" />
    <glyph glyph-name="agrave" unicode="&#xe0;" horiz-adv-x="1179" 
d="M510 1265l-159 379h188l158 -379h-187zM589 1137q237 0 352.5 -119.5t115.5 -364.5v-653h-246v148q-110 -179 -357 -179q-168 0 -270 91t-102 241q0 315 437 370l291 36q-6 213 -221 213q-99 0 -158 -37.5t-85 -116.5l-224 60q43 151 164 231t303 80zM811 526l-257 -31
q-118 -14 -174 -56.5t-56 -116.5q0 -147 189 -147q98 0 171.5 48.5t102.5 125.5q24 55 24 167v10z" />
    <glyph glyph-name="aacute" unicode="&#xe1;" horiz-adv-x="1179" 
d="M702 1265h-187l159 379h187zM589 1137q237 0 352.5 -119.5t115.5 -364.5v-653h-246v148q-110 -179 -357 -179q-168 0 -270 91t-102 241q0 315 437 370l291 36q-6 213 -221 213q-99 0 -158 -37.5t-85 -116.5l-224 60q43 151 164 231t303 80zM811 526l-257 -31
q-118 -14 -174 -56.5t-56 -116.5q0 -147 189 -147q98 0 171.5 48.5t102.5 125.5q24 55 24 167v10z" />
    <glyph glyph-name="acircumflex" unicode="&#xe2;" horiz-adv-x="1179" 
d="M220 1265l281 322h207l279 -322h-230l-153 182l-153 -182h-231zM589 1137q237 0 352.5 -119.5t115.5 -364.5v-653h-246v148q-110 -179 -357 -179q-168 0 -270 91t-102 241q0 315 437 370l291 36q-6 213 -221 213q-99 0 -158 -37.5t-85 -116.5l-224 60q43 151 164 231
t303 80zM811 526l-257 -31q-118 -14 -174 -56.5t-56 -116.5q0 -147 189 -147q98 0 171.5 48.5t102.5 125.5q24 55 24 167v10z" />
    <glyph glyph-name="atilde" unicode="&#xe3;" horiz-adv-x="1179" 
d="M794 1270q-43 0 -85.5 19.5t-111.5 64.5q-82 58 -123 58q-22 0 -34.5 -17t-14 -29t-1.5 -23q0 -25 7 -46h-156q-11 53 -11 95q0 28 9 76q7 45 56 85q45 38 124 38q43 0 85.5 -19.5t111.5 -64.5q84 -58 122 -58q31 0 42 25q9 24 9 45q0 24 -7 46h156q11 -52 11 -94
q0 -25 -8 -76q-9 -47 -55 -86q-48 -39 -126 -39zM589 1137q237 0 352.5 -119.5t115.5 -364.5v-653h-246v148q-110 -179 -357 -179q-168 0 -270 91t-102 241q0 315 437 370l291 36q-6 213 -221 213q-99 0 -158 -37.5t-85 -116.5l-224 60q43 151 164 231t303 80zM811 526
l-257 -31q-118 -14 -174 -56.5t-56 -116.5q0 -147 189 -147q98 0 171.5 48.5t102.5 125.5q24 55 24 167v10z" />
    <glyph glyph-name="adieresis" unicode="&#xe4;" horiz-adv-x="1179" 
d="M708 1277v225h225v-225h-225zM285 1277v225h225v-225h-225zM589 1137q237 0 352.5 -119.5t115.5 -364.5v-653h-246v148q-110 -179 -357 -179q-168 0 -270 91t-102 241q0 315 437 370l291 36q-6 213 -221 213q-99 0 -158 -37.5t-85 -116.5l-224 60q43 151 164 231t303 80z
M811 526l-257 -31q-118 -14 -174 -56.5t-56 -116.5q0 -147 189 -147q98 0 171.5 48.5t102.5 125.5q24 55 24 167v10z" />
    <glyph glyph-name="aring" unicode="&#xe5;" horiz-adv-x="1179" 
d="M604 1221q-107 0 -185.5 78.5t-78.5 184.5t78.5 184.5t185.5 78.5q70 0 130.5 -35t96.5 -96q36 -60 36 -132q0 -71 -35.5 -132t-96.5 -96q-58 -35 -131 -35zM604 1371q46 0 79.5 33.5t33.5 79.5t-33 79t-80 33q-46 0 -79 -33t-33 -79t33 -79.5t79 -33.5zM589 1137
q237 0 352.5 -119.5t115.5 -364.5v-653h-246v148q-110 -179 -357 -179q-168 0 -270 91t-102 241q0 315 437 370l291 36q-6 213 -221 213q-99 0 -158 -37.5t-85 -116.5l-224 60q43 151 164 231t303 80zM811 526l-257 -31q-118 -14 -174 -56.5t-56 -116.5q0 -147 189 -147
q98 0 171.5 48.5t102.5 125.5q24 55 24 167v10z" />
    <glyph glyph-name="ae" unicode="&#xe6;" horiz-adv-x="1975" 
d="M589 1137q275 0 388 -162q152 162 397 162q262 0 399.5 -176.5t115.5 -476.5h-799q17 -137 91 -212t195 -75q183 0 257 157l244 -69q-64 -151 -195 -233.5t-306 -82.5q-150 0 -268 62.5t-190 175.5q-57 -116 -173 -177t-281 -61q-169 0 -275.5 91.5t-106.5 240.5
q0 315 437 370l291 36q-6 213 -221 213q-99 0 -158 -37.5t-85 -116.5l-224 60q43 151 164 231t303 80zM1096 671h542q-9 117 -78.5 182t-185.5 65q-112 0 -183.5 -64t-94.5 -183zM811 516v10l-257 -31q-118 -14 -174 -56.5t-56 -116.5q0 -147 189 -147q98 0 171.5 48.5
t102.5 125.5q24 55 24 167z" />
    <glyph glyph-name="ccedilla" unicode="&#xe7;" horiz-adv-x="1178" 
d="M588 -495q-74 0 -142 37l55 147q47 -15 65 -15q28 0 46.5 17t18.5 39q0 41 -59 66q-39 16 -67 24q-2 0 -4.5 1t-3.5 1l52 151q-217 25 -342 184t-125 396q0 170 66 302t190.5 207t288.5 75q188 0 319 -95t170 -259l-246 -66q-28 89 -94 138.5t-152 49.5
q-138 0 -209.5 -95.5t-71.5 -256.5q0 -163 73 -257.5t208 -94.5q96 0 153.5 43.5t86.5 131.5l252 -57q-46 -151 -153.5 -240t-264.5 -106l-20 -59q125 -63 125 -189q0 -95 -63 -157.5t-152 -62.5z" />
    <glyph glyph-name="egrave" unicode="&#xe8;" horiz-adv-x="1232" 
d="M541 1265l-158 379h187l158 -379h-187zM634 197q183 0 257 157l244 -69q-64 -151 -195 -233.5t-306 -82.5q-247 0 -399.5 162t-152.5 422q0 261 153 422.5t397 161.5q262 0 399.5 -176.5t115.5 -476.5h-800q17 -137 91.5 -212t195.5 -75zM353 671h543q-9 117 -78.5 182
t-185.5 65q-112 0 -184 -64.5t-95 -182.5z" />
    <glyph glyph-name="eacute" unicode="&#xe9;" horiz-adv-x="1232" 
d="M749 1265h-188l158 379h187zM634 197q183 0 257 157l244 -69q-64 -151 -195 -233.5t-306 -82.5q-247 0 -399.5 162t-152.5 422q0 261 153 422.5t397 161.5q262 0 399.5 -176.5t115.5 -476.5h-800q17 -137 91.5 -212t195.5 -75zM353 671h543q-9 117 -78.5 182t-185.5 65
q-112 0 -184 -64.5t-95 -182.5z" />
    <glyph glyph-name="ecircumflex" unicode="&#xea;" horiz-adv-x="1232" 
d="M246 1265l279 322h207l280 -322h-231l-152 182l-153 -182h-230zM634 197q183 0 257 157l244 -69q-64 -151 -195 -233.5t-306 -82.5q-247 0 -399.5 162t-152.5 422q0 261 153 422.5t397 161.5q262 0 399.5 -176.5t115.5 -476.5h-800q17 -137 91.5 -212t195.5 -75zM353 671
h543q-9 117 -78.5 182t-185.5 65q-112 0 -184 -64.5t-95 -182.5z" />
    <glyph glyph-name="edieresis" unicode="&#xeb;" horiz-adv-x="1232" 
d="M731 1277v225h225v-225h-225zM308 1277v225h226v-225h-226zM634 197q183 0 257 157l244 -69q-64 -151 -195 -233.5t-306 -82.5q-247 0 -399.5 162t-152.5 422q0 261 153 422.5t397 161.5q262 0 399.5 -176.5t115.5 -476.5h-800q17 -137 91.5 -212t195.5 -75zM353 671h543
q-9 117 -78.5 182t-185.5 65q-112 0 -184 -64.5t-95 -182.5z" />
    <glyph glyph-name="igrave" unicode="&#xec;" horiz-adv-x="574" 
d="M377 1265h-188l-157 379h187zM411 0h-247v1106h247v-1106z" />
    <glyph glyph-name="iacute" unicode="&#xed;" horiz-adv-x="574" 
d="M543 1644l-158 -379h-187l157 379h188zM411 0h-247v1106h247v-1106z" />
    <glyph glyph-name="icircumflex" unicode="&#xee;" horiz-adv-x="574" 
d="M147 1265h-230l281 322h206l280 -322h-230l-153 182zM411 0h-247v1106h247v-1106z" />
    <glyph glyph-name="idieresis" unicode="&#xef;" horiz-adv-x="574" 
d="M611 1277h-225v225h225v-225zM188 1277h-225v225h225v-225zM411 0h-247v1106h247v-1106z" />
    <glyph glyph-name="eth" unicode="&#xf0;" horiz-adv-x="1221" 
d="M611 -31q-155 0 -275.5 68.5t-187.5 192.5q-66 124 -66 284q0 161 66 285.5t187 193.5q119 68 272 68h4h7q144 0 286 -91q-13 98 -84 184q-29 39 -66 68l-105 -121l-137 121l82 96q-81 32 -172 40l37 189q156 -5 279 -63l103 120l138 -122l-89 -104q37 -37 61 -70
q131 -167 170 -446q19 -150 19 -341q0 -166 -64.5 -291t-183.5 -193q-121 -68 -281 -68zM611 188q134 0 207.5 87t73.5 241q0 153 -74 239.5t-203 86.5h-4h-5q-132 0 -204 -85t-72 -241q0 -157 73 -242.5t208 -85.5z" />
    <glyph glyph-name="ntilde" unicode="&#xf1;" horiz-adv-x="1275" 
d="M811 1270q-43 0 -85.5 19.5t-111.5 64.5q-82 58 -122 58q-17 0 -28.5 -9t-15.5 -22.5t-5.5 -22t-1.5 -15.5q0 -22 8 -46h-156q-12 51 -12 95q0 28 9 76q9 47 56 85q45 38 124 38q43 0 85.5 -19.5t112.5 -64.5q84 -58 122 -58q31 0 40 25q10 27 10 44q0 23 -7 47h155
q12 -51 12 -96q0 -24 -8 -74q-9 -48 -56 -86q-48 -39 -125 -39zM906 0v609q0 142 -66.5 219t-191.5 77t-192.5 -77t-67.5 -219v-609h-247v1106h247v-144q94 175 325 175q205 0 322.5 -119.5t117.5 -357.5v-660h-247z" />
    <glyph glyph-name="ograve" unicode="&#xf2;" horiz-adv-x="1265" 
d="M527 1265l-158 379h187l159 -379h-188zM632 -31q-246 0 -398 162.5t-152 421.5t152.5 421.5t397.5 162.5q248 0 400 -162t152 -422t-152.5 -422t-399.5 -162zM632 201q139 0 215 93.5t76 258.5q0 167 -75.5 259.5t-215.5 92.5t-214.5 -92t-74.5 -260q0 -167 75.5 -259.5
t213.5 -92.5z" />
    <glyph glyph-name="oacute" unicode="&#xf3;" horiz-adv-x="1265" 
d="M729 1265h-187l157 379h188zM632 -31q-246 0 -398 162.5t-152 421.5t152.5 421.5t397.5 162.5q248 0 400 -162t152 -422t-152.5 -422t-399.5 -162zM632 201q139 0 215 93.5t76 258.5q0 167 -75.5 259.5t-215.5 92.5t-214.5 -92t-74.5 -260q0 -167 75.5 -259.5
t213.5 -92.5z" />
    <glyph glyph-name="ocircumflex" unicode="&#xf4;" horiz-adv-x="1265" 
d="M247 1265l280 322h207l280 -322h-231l-152 182l-154 -182h-230zM632 -31q-246 0 -398 162.5t-152 421.5t152.5 421.5t397.5 162.5q248 0 400 -162t152 -422t-152.5 -422t-399.5 -162zM632 201q139 0 215 93.5t76 258.5q0 167 -75.5 259.5t-215.5 92.5t-214.5 -92
t-74.5 -260q0 -167 75.5 -259.5t213.5 -92.5z" />
    <glyph glyph-name="otilde" unicode="&#xf5;" horiz-adv-x="1265" 
d="M805 1270q-43 0 -86.5 19.5t-111.5 64.5q-82 58 -122 58q-50 0 -50 -71q0 -21 6 -44h-155q-12 58 -12 95q0 23 10 76q7 46 55 85q47 38 124 38q45 0 86 -19t111 -65q84 -58 123 -58q32 0 41 25q10 27 10 44q0 20 -8 47h156q12 -49 12 -95q0 -27 -9 -75q-9 -47 -55 -86
q-48 -39 -125 -39zM632 -31q-246 0 -398 162.5t-152 421.5t152.5 421.5t397.5 162.5q248 0 400 -162t152 -422t-152.5 -422t-399.5 -162zM632 201q139 0 215 93.5t76 258.5q0 167 -75.5 259.5t-215.5 92.5t-214.5 -92t-74.5 -260q0 -167 75.5 -259.5t213.5 -92.5z" />
    <glyph glyph-name="odieresis" unicode="&#xf6;" horiz-adv-x="1265" 
d="M733 1277v225h225v-225h-225zM309 1277v225h226v-225h-226zM632 -31q-246 0 -398 162.5t-152 421.5t152.5 421.5t397.5 162.5q248 0 400 -162t152 -422t-152.5 -422t-399.5 -162zM632 201q139 0 215 93.5t76 258.5q0 167 -75.5 259.5t-215.5 92.5t-214.5 -92t-74.5 -260
q0 -167 75.5 -259.5t213.5 -92.5z" />
    <glyph glyph-name="divide" unicode="&#xf7;" horiz-adv-x="1105" 
d="M706 946h-253v253h253v-253zM983 641h-860v194h860v-194zM706 300h-253v253h253v-253z" />
    <glyph glyph-name="oslash" unicode="&#xf8;" horiz-adv-x="1265" 
d="M217 -26q-14 10 -47 43t-71.5 73.5t-45.5 47.5l103 103q-74 136 -74 312q0 259 152.5 421.5t397.5 162.5q185 0 324 -98l93 93l163 -165l-101 -102q73 -137 73 -312q0 -260 -152.5 -422t-399.5 -162q-184 0 -322 97q-70 -74 -93 -92zM360 410l446 443q-68 52 -174 52
q-140 0 -214.5 -92t-74.5 -260q0 -78 17 -143zM632 201q139 0 215 93.5t76 258.5q0 79 -18 142l-443 -443q67 -51 170 -51z" />
    <glyph glyph-name="ugrave" unicode="&#xf9;" horiz-adv-x="1277" 
d="M725 1265h-187l-159 379h187zM370 1106v-608q0 -142 66.5 -219.5t191.5 -77.5t192.5 77t67.5 220v608h247v-1106h-247v144q-95 -175 -325 -175q-205 0 -322.5 119t-117.5 357v661h247z" />
    <glyph glyph-name="uacute" unicode="&#xfa;" horiz-adv-x="1277" 
d="M869 1644l-157 -379h-188l158 379h187zM370 1106v-608q0 -142 66.5 -219.5t191.5 -77.5q115 0 181.5 65.5t76.5 187.5v652h249v-1106h-249v141q-95 -172 -323 -172q-205 0 -322.5 119t-117.5 357v661h247z" />
    <glyph glyph-name="ucircumflex" unicode="&#xfb;" horiz-adv-x="1277" 
d="M472 1265h-230l279 322h207l281 -322h-231l-153 182zM370 1106v-608q0 -142 66.5 -219.5t191.5 -77.5t192.5 77t67.5 220v608h247v-1106h-247v144q-95 -175 -325 -175q-205 0 -322.5 119t-117.5 357v661h247z" />
    <glyph glyph-name="udieresis" unicode="&#xfc;" horiz-adv-x="1277" 
d="M952 1277h-225v225h225v-225zM529 1277h-225v225h225v-225zM370 1106v-608q0 -142 66.5 -219.5t191.5 -77.5t192.5 77t67.5 220v608h247v-1106h-247v144q-95 -175 -325 -175q-205 0 -322.5 119t-117.5 357v661h247z" />
    <glyph glyph-name="yacute" unicode="&#xfd;" horiz-adv-x="1145" 
d="M838 1644l-158 -379h-187l157 379h188zM520 -492h-231l182 499l-447 1099h257l308 -792l301 792h247z" />
    <glyph glyph-name="thorn" unicode="&#xfe;" horiz-adv-x="1310" 
d="M388 -492h-247v1967h247v-518q107 180 340 180q219 0 360 -164t141 -420q0 -258 -141 -421t-360 -163q-233 0 -340 179v-640zM677 201q143 0 217 95.5t74 256.5q0 164 -74.5 258t-216.5 94q-144 0 -216.5 -94.5t-72.5 -257.5q0 -164 74.5 -258t214.5 -94z" />
    <glyph glyph-name="ydieresis" unicode="&#xff;" horiz-adv-x="1145" 
d="M910 1277h-225v225h225v-225zM487 1277h-225v225h225v-225zM520 -492h-231l182 499l-447 1099h257l308 -792l301 792h247z" />
    <glyph glyph-name="Amacron" unicode="&#x100;" horiz-adv-x="1374" 
d="M415 1720v192h546v-192h-546zM852 1475l487 -1475h-260l-104 319h-576l-104 -319h-260l488 1475h329zM474 550h426l-213 654z" />
    <glyph glyph-name="amacron" unicode="&#x101;" horiz-adv-x="1179" 
d="M358 1352v191h546v-191h-546zM589 1137q237 0 352.5 -119.5t115.5 -364.5v-653h-246v148q-110 -179 -357 -179q-168 0 -270 91t-102 241q0 315 437 370l291 36q-6 213 -221 213q-99 0 -158 -37.5t-85 -116.5l-224 60q43 151 164 231t303 80zM811 526l-257 -31
q-118 -14 -174 -56.5t-56 -116.5q0 -147 189 -147q98 0 171.5 48.5t102.5 125.5q24 55 24 167v10z" />
    <glyph glyph-name="Abreve" unicode="&#x102;" horiz-adv-x="1374" 
d="M688 1599q-85 0 -155.5 41.5t-112.5 113.5q-42 71 -42 156h192q0 -50 34 -84t84 -34t84 34t34 84h192q0 -85 -41 -156t-112 -113q-72 -42 -157 -42zM852 1475l487 -1475h-260l-104 319h-576l-104 -319h-260l488 1475h329zM474 550h426l-213 654z" />
    <glyph glyph-name="abreve" unicode="&#x103;" horiz-adv-x="1179" 
d="M601 1231q-85 0 -155.5 41t-112.5 113q-42 71 -42 156h192q0 -49 34.5 -83.5t83.5 -34.5t83.5 34.5t34.5 83.5h192q0 -85 -41 -155.5t-112 -112.5q-72 -42 -157 -42zM589 1137q237 0 352.5 -119.5t115.5 -364.5v-653h-246v148q-110 -179 -357 -179q-168 0 -270 91
t-102 241q0 315 437 370l291 36q-6 213 -221 213q-99 0 -158 -37.5t-85 -116.5l-224 60q43 151 164 231t303 80zM811 526l-257 -31q-118 -14 -174 -56.5t-56 -116.5q0 -147 189 -147q98 0 171.5 48.5t102.5 125.5q24 55 24 167v10z" />
    <glyph glyph-name="Aogonek" unicode="&#x104;" horiz-adv-x="1374" 
d="M1133 -490q-93 0 -156.5 66.5t-63.5 156.5q0 146 153 285q3 1 5 6l-96 295h-576l-104 -319h-260l488 1475h329l487 -1475h-7q-130 -70 -195 -169q-31 -47 -31 -79q0 -26 17 -43t42 -17q37 0 76 36l88 -116q-36 -48 -87.5 -75t-108.5 -27zM474 550h426l-213 654z" />
    <glyph glyph-name="aogonek" unicode="&#x105;" horiz-adv-x="1179" 
d="M857 -490q-93 0 -156 66.5t-63 156.5q0 146 153 285q4 3 11 9.5t9 8.5v112q-110 -179 -357 -179q-168 0 -270 91t-102 241q0 315 437 370l291 36q-6 213 -221 213q-99 0 -158 -37.5t-85 -116.5l-224 60q43 151 164 231t303 80q237 0 352.5 -119.5t115.5 -364.5v-653
q-131 -71 -196 -169q-31 -46 -31 -79q0 -26 17 -43t43 -17q37 0 76 36l88 -116q-36 -48 -88 -75t-109 -27zM811 526l-257 -31q-118 -14 -174 -56.5t-56 -116.5q0 -147 189 -147q98 0 171.5 48.5t102.5 125.5q24 55 24 167v10z" />
    <glyph glyph-name="Cacute" unicode="&#x106;" horiz-adv-x="1512" 
d="M885 1633h-188l158 379h187zM767 -31q-327 0 -516.5 210.5t-189.5 557.5t189.5 557.5t516.5 210.5q250 0 422.5 -125t241.5 -346l-249 -68q-44 147 -148.5 227t-266.5 80q-213 0 -329.5 -144.5t-116.5 -391.5q0 -248 114 -391.5t332 -143.5q162 0 266.5 80t148.5 227
l249 -69q-69 -221 -241.5 -346t-422.5 -125z" />
    <glyph glyph-name="cacute" unicode="&#x107;" horiz-adv-x="1178" 
d="M722 1265h-187l157 379h188zM624 -31q-166 0 -290 76t-188 207.5t-64 300.5q0 170 66 302t190.5 207t288.5 75q188 0 319 -95t170 -259l-246 -66q-28 89 -94 138.5t-152 49.5q-138 0 -209.5 -95.5t-71.5 -256.5q0 -163 73 -257.5t208 -94.5q96 0 153.5 43.5t86.5 131.5
l252 -57q-52 -169 -179.5 -259.5t-312.5 -90.5z" />
    <glyph glyph-name="Ccircumflex" unicode="&#x108;" horiz-adv-x="1512" 
d="M381 1633l279 323h207l281 -323h-230l-154 183l-153 -183h-230zM767 -31q-327 0 -516.5 210.5t-189.5 557.5t189.5 557.5t516.5 210.5q250 0 422.5 -125t241.5 -346l-249 -68q-44 147 -148.5 227t-266.5 80q-213 0 -329.5 -144.5t-116.5 -391.5q0 -248 114 -391.5
t332 -143.5q162 0 266.5 80t148.5 227l249 -69q-69 -221 -241.5 -346t-422.5 -125z" />
    <glyph glyph-name="ccircumflex" unicode="&#x109;" horiz-adv-x="1178" 
d="M247 1265l280 322h207l280 -322h-231l-152 182l-154 -182h-230zM624 -31q-166 0 -290 76t-188 207.5t-64 300.5q0 170 66 302t190.5 207t288.5 75q188 0 319 -95t170 -259l-246 -66q-28 88 -94 138t-152 50q-138 0 -209.5 -95.5t-71.5 -256.5q0 -163 73 -257.5t208 -94.5
q96 0 153.5 43.5t86.5 131.5l252 -57q-52 -169 -179.5 -259.5t-312.5 -90.5z" />
    <glyph glyph-name="Cdotaccent" unicode="&#x10a;" horiz-adv-x="1512" 
d="M651 1693v253h253v-253h-253zM767 -31q-327 0 -516.5 210.5t-189.5 557.5t189.5 557.5t516.5 210.5q250 0 422.5 -125t241.5 -346l-249 -68q-44 147 -148.5 227t-266.5 80q-213 0 -329.5 -144.5t-116.5 -391.5q0 -248 114 -391.5t332 -143.5q162 0 266.5 80t148.5 227
l249 -69q-69 -221 -241.5 -346t-422.5 -125z" />
    <glyph glyph-name="cdotaccent" unicode="&#x10b;" horiz-adv-x="1178" 
d="M493 1324v253h251v-253h-251zM624 -31q-166 0 -290 76t-188 207.5t-64 300.5q0 170 66 302t190.5 207t288.5 75q188 0 319 -95t170 -259l-246 -66q-28 89 -94 138.5t-152 49.5q-138 0 -209.5 -95.5t-71.5 -256.5q0 -163 73 -257.5t208 -94.5q96 0 153.5 43.5t86.5 131.5
l252 -57q-52 -169 -179.5 -259.5t-312.5 -90.5z" />
    <glyph glyph-name="Ccaron" unicode="&#x10c;" horiz-adv-x="1512" 
d="M384 1956h230l154 -182l153 182h230l-280 -323h-206zM767 -31q-327 0 -516.5 210.5t-189.5 557.5t189.5 557.5t516.5 210.5q250 0 422.5 -125t241.5 -346l-249 -68q-44 147 -148.5 227t-266.5 80q-213 0 -329.5 -144.5t-116.5 -391.5q0 -248 114 -391.5t332 -143.5
q162 0 266.5 80t148.5 227l249 -69q-69 -221 -241.5 -346t-422.5 -125z" />
    <glyph glyph-name="ccaron" unicode="&#x10d;" horiz-adv-x="1178" 
d="M241 1587h230l153 -182l152 182h231l-280 -322h-207zM624 -31q-166 0 -290 76t-188 207.5t-64 300.5q0 170 66 302t190.5 207t288.5 75q188 0 319 -95t170 -259l-246 -66q-28 89 -94 138.5t-152 49.5q-138 0 -209.5 -95.5t-71.5 -256.5q0 -163 73 -257.5t208 -94.5
q96 0 153.5 43.5t86.5 131.5l252 -57q-52 -169 -179.5 -259.5t-312.5 -90.5z" />
    <glyph glyph-name="Dcaron" unicode="&#x10e;" horiz-adv-x="1435" 
d="M255 1956h230l153 -182l153 182h230l-280 -323h-206zM609 0h-466v1475h466q349 0 538.5 -192t189.5 -546t-189 -545.5t-539 -191.5zM392 1242v-1010h191q493 0 493 505t-493 505h-191z" />
    <glyph glyph-name="dcaron" unicode="&#x10f;" horiz-adv-x="1608" 
d="M1287 954l15 107q5 -1 13 -1q50 0 77.5 31.5t27.5 88.5v6q0 5 -1 14.5t-1 14.5h-131v264h253v-274q0 -88 -28 -149.5t-76 -83.5q-50 -22 -97 -22q-28 0 -52 4zM983 1475h246v-1475h-246v148q-106 -179 -341 -179q-218 0 -359.5 164t-141.5 420q0 258 141 421t360 163
q233 0 341 -180v518zM693 905q-142 0 -216.5 -95.5t-74.5 -256.5q0 -164 74.5 -258t216.5 -94q144 0 217 94.5t73 257.5q0 164 -75 258t-215 94z" />
    <glyph glyph-name="Dcroat" unicode="&#x110;" horiz-adv-x="1437" 
d="M20 641v194h121v640h467q349 0 538 -192t189 -546t-189 -545.5t-538 -191.5h-467v641h-121zM391 1242v-407h321v-194h-321v-409h190q493 0 493 505t-493 505h-190z" />
    <glyph glyph-name="dcroat" unicode="&#x111;" 
d="M923 1195h-168v191h168v89h246v-89h131v-191h-131v-1195h-246v148q-106 -179 -340 -179q-219 0 -360 164t-141 420q0 258 141 421t360 163q233 0 340 -180v238zM634 905q-142 0 -216.5 -95.5t-74.5 -256.5q0 -164 74.5 -258t216.5 -94q144 0 216.5 94.5t72.5 257.5
q0 164 -74.5 258t-214.5 94z" />
    <glyph glyph-name="Emacron" unicode="&#x112;" horiz-adv-x="1200" 
d="M903 1720h-547v192h547v-192zM1098 0h-955v1475h955v-232h-707v-363h584v-232h-584v-417h707v-231z" />
    <glyph glyph-name="emacron" unicode="&#x113;" horiz-adv-x="1232" 
d="M380 1352v191h546v-191h-546zM634 197q183 0 257 157l244 -69q-64 -151 -195 -233.5t-306 -82.5q-247 0 -399.5 162t-152.5 422q0 261 153 422.5t397 161.5q262 0 399.5 -176.5t115.5 -476.5h-800q17 -137 91.5 -212t195.5 -75zM353 671h543q-9 117 -78.5 182t-185.5 65
q-112 0 -184 -64.5t-95 -182.5z" />
    <glyph glyph-name="Edotaccent" unicode="&#x116;" horiz-adv-x="1200" 
d="M748 1693h-253v253h253v-253zM1098 0h-955v1475h955v-232h-707v-363h584v-232h-584v-417h707v-231z" />
    <glyph glyph-name="edotaccent" unicode="&#x117;" horiz-adv-x="1232" 
d="M508 1324v253h252v-253h-252zM634 197q183 0 257 157l244 -69q-64 -151 -195 -233.5t-306 -82.5q-247 0 -399.5 162t-152.5 422q0 261 153 422.5t397 161.5q262 0 399.5 -176.5t115.5 -476.5h-800q17 -137 91.5 -212t195.5 -75zM353 671h543q-9 117 -78.5 182t-185.5 65
q-112 0 -184 -64.5t-95 -182.5z" />
    <glyph glyph-name="Eogonek" unicode="&#x118;" horiz-adv-x="1200" 
d="M897 -490q-92 0 -155.5 66.5t-63.5 156.5q0 74 41 147q37 65 92 120h-668v1475h955v-232h-707v-363h584v-232h-584v-417h707v-231q-93 -49 -160.5 -123t-67.5 -125q0 -25 17.5 -42.5t42.5 -17.5q37 0 76 36l89 -116q-77 -102 -198 -102z" />
    <glyph glyph-name="eogonek" unicode="&#x119;" horiz-adv-x="1232" 
d="M980 -472q-42 -18 -86 -18q-56 0 -103 23q-49 24 -76 60q-40 50 -46 96q-6 45 -6 62q0 51 20 102q21 53 70 127q-70 -11 -119 -11q-247 0 -399.5 162t-152.5 422q0 261 153 422.5t397 161.5q262 0 399.5 -176.5t115.5 -476.5h-800q17 -137 91.5 -212t195.5 -75
q183 0 257 157l244 -69q-24 -58 -59 -106q-15 -25 -45 -73l-67 -104l-31 -52q-54 -91 -76 -161q-5 -17 -5 -33q0 -27 14 -43q16 -18 42 -18q40 0 80 33l89 -116q-33 -56 -97 -84zM353 671h543q-9 117 -78.5 182t-185.5 65q-112 0 -184 -64.5t-95 -182.5z" />
    <glyph glyph-name="Ecaron" unicode="&#x11a;" horiz-adv-x="1200" 
d="M524 1633l-280 323h230l154 -182l152 182h231l-280 -323h-207zM1098 0h-955v1475h955v-232h-707v-363h584v-232h-584v-417h707v-231z" />
    <glyph glyph-name="ecaron" unicode="&#x11b;" horiz-adv-x="1232" 
d="M246 1587h230l153 -182l152 182h231l-280 -322h-207zM634 197q183 0 257 157l244 -69q-64 -151 -195 -233.5t-306 -82.5q-247 0 -399.5 162t-152.5 422q0 261 153 422.5t397 161.5q262 0 399.5 -176.5t115.5 -476.5h-800q17 -137 91.5 -212t195.5 -75zM353 671h543
q-9 117 -78.5 182t-185.5 65q-112 0 -184 -64.5t-95 -182.5z" />
    <glyph glyph-name="Gcircumflex" unicode="&#x11c;" horiz-adv-x="1511" 
d="M366 1633l279 323h207l281 -323h-231l-153 183l-153 -183h-230zM1181 0v195q-50 -105 -169 -165.5t-274 -60.5q-309 0 -493 205t-184 563q0 345 192.5 556.5t503.5 211.5q507 0 648 -481l-252 -40q-35 136 -138 212t-251 76q-208 0 -324.5 -141.5t-116.5 -395.5
q0 -255 112.5 -394t326.5 -139q174 0 282 98t117 280h-486v231h755v-811h-249z" />
    <glyph glyph-name="gcircumflex" unicode="&#x11d;" 
d="M489 1265h-230l280 322h206l280 -322h-230l-153 182zM583 1137q235 0 340 -170v139h246v-1048q0 -258 -143.5 -419t-399.5 -161q-187 0 -323 91.5t-187 258.5l252 56q29 -86 94.5 -130.5t163.5 -44.5q143 0 220 95t77 257v119q-105 -170 -340 -170q-218 0 -359.5 155
t-141.5 408q0 255 141 409.5t360 154.5zM634 242q138 0 213.5 89t75.5 242q0 155 -77.5 243.5t-211.5 88.5q-136 0 -213.5 -90t-77.5 -242q0 -154 77.5 -242.5t213.5 -88.5z" />
    <glyph glyph-name="Gbreve" unicode="&#x11e;" horiz-adv-x="1511" 
d="M758 1599q-85 0 -156 41.5t-113 113.5q-42 71 -42 156h193q0 -49 34.5 -83.5t83.5 -34.5q50 0 84 34t34 84h192q0 -85 -41.5 -156t-112.5 -113q-72 -42 -156 -42zM1181 0v195q-50 -105 -169 -165.5t-274 -60.5q-309 0 -493 205t-184 563q0 345 192.5 556.5t503.5 211.5
q507 0 648 -481l-252 -40q-35 136 -138 212t-251 76q-208 0 -324.5 -141.5t-116.5 -395.5q0 -255 112.5 -394t326.5 -139q174 0 282 98t117 280h-486v231h755v-811h-249z" />
    <glyph glyph-name="gbreve" unicode="&#x11f;" 
d="M646 1231q-85 0 -155.5 41t-112.5 113q-42 71 -42 156h192q0 -49 34 -83.5t84 -34.5t84 34.5t34 83.5h192q0 -85 -41 -155.5t-112 -112.5q-72 -42 -157 -42zM583 1137q235 0 340 -170v139h246v-1048q0 -258 -143.5 -419t-399.5 -161q-187 0 -323 91.5t-187 258.5l252 56
q29 -86 94.5 -130.5t163.5 -44.5q143 0 220 95t77 257v119q-105 -170 -340 -170q-218 0 -359.5 155t-141.5 408q0 255 141 409.5t360 154.5zM634 242q138 0 213.5 89t75.5 242q0 155 -77.5 243.5t-211.5 88.5q-136 0 -213.5 -90t-77.5 -242q0 -154 77.5 -242.5t213.5 -88.5z
" />
    <glyph glyph-name="Gdotaccent" unicode="&#x120;" horiz-adv-x="1511" 
d="M627 1693v253h253v-253h-253zM1181 0v195q-50 -105 -169 -165.5t-274 -60.5q-309 0 -493 205t-184 563q0 345 192.5 556.5t503.5 211.5q507 0 648 -481l-252 -40q-35 136 -138 212t-251 76q-208 0 -324.5 -141.5t-116.5 -395.5q0 -255 112.5 -394t326.5 -139
q174 0 282 98t117 280h-486v231h755v-811h-249z" />
    <glyph glyph-name="gdotaccent" unicode="&#x121;" horiz-adv-x="1303" 
d="M803 1324h-252v253h252v-253zM583 1137q235 0 340 -170v139h246v-1048q0 -258 -143.5 -419t-399.5 -161q-187 0 -323 91.5t-187 258.5l252 56q29 -86 94.5 -130.5t163.5 -44.5q143 0 220 95t77 257v119q-105 -170 -340 -170q-218 0 -359.5 155t-141.5 408
q0 255 141 409.5t360 154.5zM634 242q138 0 213.5 89t75.5 242q0 155 -77.5 243.5t-211.5 88.5q-136 0 -213.5 -90t-77.5 -242q0 -154 77.5 -242.5t213.5 -88.5z" />
    <glyph glyph-name="uni0122" unicode="&#x122;" horiz-adv-x="1511" 
d="M1181 0v195q-50 -105 -169 -165.5t-274 -60.5q-309 0 -493 205t-184 563q0 345 192.5 556.5t503.5 211.5q507 0 648 -481l-252 -40q-35 136 -138 212t-251 76q-208 0 -324.5 -141.5t-116.5 -395.5q0 -255 112.5 -394t326.5 -139q174 0 282 98t117 280h-486v231h755v-811
h-249zM669 -517q27 0 54.5 7.5t52.5 33.5t25 66h-132v239h238v-239q0 -97 -66.5 -156t-171.5 -59v108z" />
    <glyph glyph-name="uni0123" unicode="&#x123;" 
d="M771 1778v-108q-19 0 -39.5 -4.5t-42.5 -15t-36 -33t-14 -53.5h132v-240h-240v240q0 95 68 154.5t172 59.5zM583 1137q235 0 340 -170v139h246v-1048q0 -258 -143.5 -419t-399.5 -161q-187 0 -323 91.5t-187 258.5l252 56q29 -86 94.5 -130.5t163.5 -44.5q143 0 220 95
t77 257v119q-105 -170 -340 -170q-218 0 -359.5 155t-141.5 408q0 255 141 409.5t360 154.5zM634 242q138 0 213.5 89t75.5 242q0 155 -77.5 243.5t-211.5 88.5q-136 0 -213.5 -90t-77.5 -242q0 -154 77.5 -242.5t213.5 -88.5z" />
    <glyph glyph-name="Hcircumflex" unicode="&#x124;" horiz-adv-x="1479" 
d="M583 1633h-231l280 323h207l280 -323h-230l-154 183zM391 0h-248v1475h248v-621h698v621h247v-1475h-247v623h-698v-623z" />
    <glyph glyph-name="hcircumflex" unicode="&#x125;" horiz-adv-x="1275" 
d="M489 1633h-230l280 323h206l281 -323h-230l-154 183zM906 0v609q0 142 -66.5 219t-191.5 77t-192.5 -77t-67.5 -219v-609h-247v1475h247v-513q94 175 325 175q205 0 322.5 -119.5t117.5 -357.5v-660h-247z" />
    <glyph glyph-name="Hbar" unicode="&#x126;" horiz-adv-x="1520" 
d="M412 0h-248v1013h-144v231h144v231h248v-231h697v231h248v-231h143v-231h-143v-1013h-248v623h-697v-623zM412 1013v-159h697v159h-697z" />
    <glyph glyph-name="hbar" unicode="&#x127;" horiz-adv-x="1275" 
d="M141 1195h-110v191h110v89h247v-89h189v-191h-189v-233q94 175 325 175q205 0 322.5 -119.5t117.5 -357.5v-660h-247v609q0 142 -66.5 219t-191.5 77t-192.5 -77t-67.5 -219v-609h-247v1195z" />
    <glyph glyph-name="Itilde" unicode="&#x128;" horiz-adv-x="574" 
d="M458 1638q-43 0 -86.5 19.5t-110.5 64.5q-48 33 -74 46t-49 13q-22 0 -34.5 -17t-14 -29t-1.5 -23q0 -25 7 -46h-156q-12 58 -12 94q0 26 8 77q9 46 57 85q47 38 125 38q43 0 85 -19t111 -65q49 -33 74.5 -45.5t48.5 -12.5q32 0 41 24t9 44q0 23 -7 47h156q12 -50 12 -94
q0 -28 -9 -76q-9 -47 -55 -86q-48 -39 -125 -39zM412 0h-249v1475h249v-1475z" />
    <glyph glyph-name="itilde" unicode="&#x129;" horiz-adv-x="574" 
d="M458 1270q-43 0 -86.5 19.5t-110.5 64.5q-85 58 -123 58q-22 0 -34.5 -17t-14 -29t-1.5 -23q0 -25 7 -46h-156q-12 58 -12 95q0 25 8 76q9 46 57 85q47 38 125 38q43 0 85 -19t111 -65q49 -33 74.5 -45.5t48.5 -12.5q32 0 41 25q9 24 9 44q0 23 -7 47h156q12 -49 12 -95
q0 -27 -9 -75q-9 -47 -55 -86q-48 -39 -125 -39zM411 0h-247v1106h247v-1106z" />
    <glyph glyph-name="Imacron" unicode="&#x12a;" horiz-adv-x="574" 
d="M560 1720h-546v192h546v-192zM411 0h-247v1475h247v-1475z" />
    <glyph glyph-name="imacron" unicode="&#x12b;" horiz-adv-x="574" 
d="M560 1352h-546v191h546v-191zM411 0h-247v1106h247v-1106z" />
    <glyph glyph-name="Iogonek" unicode="&#x12e;" horiz-adv-x="575" 
d="M211 -490q-92 0 -155.5 66.5t-63.5 156.5q0 146 152 285l19 16v1441h249v-1475q-93 -49 -160.5 -123t-67.5 -125q0 -25 17.5 -42.5t42.5 -17.5q36 0 75 36l90 -116q-77 -102 -198 -102z" />
    <glyph glyph-name="iogonek" unicode="&#x12f;" horiz-adv-x="574" 
d="M411 1274h-247v226h247v-226zM210 -490q-92 0 -155.5 66.5t-63.5 156.5q0 146 152 285q3 2 6.5 5t8 7t6.5 6v1070h247v-1106q-93 -49 -160.5 -123t-67.5 -125q0 -25 17.5 -42.5t42.5 -17.5q36 0 75 36l90 -116q-77 -102 -198 -102z" />
    <glyph glyph-name="Idotaccent" unicode="&#x130;" horiz-adv-x="575" 
d="M415 1693h-254v253h254v-253zM412 0h-248v1475h248v-1475z" />
    <glyph glyph-name="dotlessi" unicode="&#x131;" horiz-adv-x="574" 
d="M411 0h-247v1106h247v-1106z" />
    <glyph glyph-name="Jcircumflex" unicode="&#x134;" horiz-adv-x="1025" 
d="M349 1633l281 323h207l279 -323h-230l-153 183l-153 -183h-231zM438 -31q-166 0 -279.5 87t-158.5 239l244 58q11 -63 65.5 -107.5t119.5 -44.5q48 0 94.5 24.5t68.5 72.5q19 44 19 184v993h248v-993q0 -93 -11 -166t-39.5 -140t-75 -111t-121.5 -70t-174 -26z" />
    <glyph glyph-name="jcircumflex" unicode="&#x135;" horiz-adv-x="590" 
d="M164 1265h-232l281 322h207l279 -322h-230l-153 182zM131 -492h-151v230h74q74 0 109 34.5t35 108.5v1225h245v-1285q0 -151 -77.5 -232t-234.5 -81z" />
    <glyph glyph-name="uni0136" unicode="&#x136;" horiz-adv-x="1327" 
d="M143 0v1475h248v-687l590 687h303l-635 -723l678 -752h-313l-623 689v-689h-248zM591 -517q27 0 54.5 7.5t52.5 32.5t25 64v3h-132v239h239v-239q0 -96 -67.5 -155.5t-171.5 -59.5v108z" />
    <glyph glyph-name="uni0137" unicode="&#x137;" horiz-adv-x="1096" 
d="M141 0v1475h247v-902l405 533h308l-429 -553l466 -553h-327l-423 534v-534h-247zM497 -517q27 0 54 7.5t52 32.5t25 64v3h-131v239h238v-239q0 -97 -66.5 -156t-171.5 -59v108z" />
    <glyph glyph-name="Lacute" unicode="&#x139;" horiz-adv-x="1093" 
d="M545 2012l-159 -379h-187l158 379h188zM1063 0h-899v1475h248v-1244h651v-231z" />
    <glyph glyph-name="lacute" unicode="&#x13a;" horiz-adv-x="574" 
d="M543 2012l-158 -379h-187l157 379h188zM411 0h-247v1505h247v-1505z" />
    <glyph glyph-name="uni013B" unicode="&#x13b;" horiz-adv-x="1093" 
d="M1063 0h-899v1475h248v-1244h651v-231zM495 -625v108q27 0 54.5 7.5t52.5 32.5t25 64v3h-132v239h239v-239q0 -96 -67.5 -155.5t-171.5 -59.5z" />
    <glyph glyph-name="uni013C" unicode="&#x13c;" horiz-adv-x="574" 
d="M411 0h-247v1505h247v-1505zM168 -625v108q27 0 54 7.5t52 32.5t25 64v3h-131v239h239v-239q0 -96 -67 -155.5t-172 -59.5z" />
    <glyph glyph-name="Lcaron" unicode="&#x13d;" horiz-adv-x="1092" 
d="M668 954l14 107q5 -1 13 -1q50 0 78 31.5t28 88.5v6q-1 5 -1 14.5t-1 14.5h-131v264h253v-274q0 -88 -28.5 -149.5t-76.5 -83.5q-50 -22 -96 -22q-28 0 -52 4zM1064 0h-899v1475h248v-1244h651v-231z" />
    <glyph glyph-name="lcaron" unicode="&#x13e;" horiz-adv-x="898" 
d="M411 0h-247v1505h247v-1505zM575 954l15 107q5 -1 13 -1q50 0 78 31.5t28 88.5v6q-1 5 -1 14.5t-1 14.5h-132v264h253v-274q0 -88 -28 -149.5t-76 -83.5q-50 -22 -96 -22q-29 0 -53 4z" />
    <glyph glyph-name="Lslash" unicode="&#x141;" horiz-adv-x="1126" 
d="M197 427l-132 -76v267l132 76v781h247v-638l325 186v-268l-325 -186v-338h652v-231h-899v427z" />
    <glyph glyph-name="lslash" unicode="&#x142;" horiz-adv-x="816" 
d="M285 548l-229 -131v267l229 131v690h246v-548l229 132v-269l-229 -131v-689h-246v548z" />
    <glyph glyph-name="Nacute" unicode="&#x143;" horiz-adv-x="1470" 
d="M1001 2012l-157 -379h-188l158 379h187zM391 0h-248v1475h248l687 -1040v1040h249v-1475h-249l-687 1039v-1039z" />
    <glyph glyph-name="nacute" unicode="&#x144;" horiz-adv-x="1275" 
d="M902 1644l-159 -379h-187l159 379h187zM906 0v609q0 142 -66.5 219t-191.5 77t-192.5 -77t-67.5 -219v-609h-247v1106h247v-144q94 175 325 175q205 0 322.5 -119.5t117.5 -357.5v-660h-247z" />
    <glyph glyph-name="uni0145" unicode="&#x145;" horiz-adv-x="1470" 
d="M391 0h-248v1475h248l687 -1040v1040h249v-1475h-249l-687 1039v-1039zM637 -625v108q27 0 54.5 7.5t52.5 33.5t25 66h-132v239h239v-239q0 -96 -67 -155.5t-172 -59.5z" />
    <glyph glyph-name="uni0146" unicode="&#x146;" horiz-adv-x="1275" 
d="M906 0v609q0 142 -66.5 219t-191.5 77t-192.5 -77t-67.5 -219v-609h-247v1106h247v-144q94 175 325 175q205 0 322.5 -119.5t117.5 -357.5v-660h-247zM535 -625v108q27 0 54.5 7.5t52.5 32.5t25 64v3h-132v239h239v-239q0 -96 -67.5 -155.5t-171.5 -59.5z" />
    <glyph glyph-name="Ncaron" unicode="&#x147;" horiz-adv-x="1470" 
d="M651 1633l-280 323h230l154 -182l152 182h231l-280 -323h-207zM391 0h-248v1475h248l687 -1040v1040h249v-1475h-249l-687 1039v-1039z" />
    <glyph glyph-name="ncaron" unicode="&#x148;" horiz-adv-x="1275" 
d="M534 1265l-281 322h230l154 -182l153 182h230l-280 -322h-206zM906 0v609q0 142 -66.5 219t-191.5 77t-192.5 -77t-67.5 -219v-609h-247v1106h247v-144q94 175 325 175q205 0 322.5 -119.5t117.5 -357.5v-660h-247z" />
    <glyph glyph-name="Eng" unicode="&#x14a;" horiz-adv-x="1470" 
d="M1078 435v1040h249v-1657q0 -287 -283 -287q-81 0 -150 18v186l36 -3q33 -3 46 -3q74 0 109.5 28t35.5 89q0 48 -22 99q-20 49 -85 152l-623 942v-1039h-248v1475h250z" />
    <glyph glyph-name="eng" unicode="&#x14b;" horiz-adv-x="1275" 
d="M906 -119v728q0 142 -66.5 219t-191.5 77t-192.5 -77t-67.5 -219v-609h-247v1106h247v-144q94 175 325 175q205 0 322.5 -119.5t117.5 -357.5v-839q0 -151 -77.5 -232t-234.5 -81h-152v230h75q74 0 108 34.5t34 108.5z" />
    <glyph glyph-name="Omacron" unicode="&#x14c;" horiz-adv-x="1534" 
d="M495 1720v192h545v-192h-545zM767 -31q-327 0 -516.5 210.5t-189.5 557.5t189.5 557.5t516.5 210.5q218 0 378.5 -96.5t244.5 -269.5t84 -402t-84 -402t-244.5 -269.5t-378.5 -96.5zM767 202q218 0 331.5 143t113.5 392t-113.5 392.5t-331.5 143.5q-217 0 -330 -143.5
t-114 -392.5t112.5 -392t331.5 -143z" />
    <glyph glyph-name="omacron" unicode="&#x14d;" horiz-adv-x="1265" 
d="M360 1352v191h547v-191h-547zM632 -31q-246 0 -398 162.5t-152 421.5t152.5 421.5t397.5 162.5q248 0 400 -162t152 -422t-152.5 -422t-399.5 -162zM632 201q139 0 215 93.5t76 258.5q0 167 -75.5 259.5t-215.5 92.5t-214.5 -92t-74.5 -260q0 -167 75.5 -259.5
t213.5 -92.5z" />
    <glyph glyph-name="Ohungarumlaut" unicode="&#x150;" horiz-adv-x="1534" 
d="M1056 1633h-188l159 379h187zM635 1633h-188l158 379h188zM767 -31q-327 0 -516.5 210.5t-189.5 557.5t189.5 557.5t516.5 210.5q218 0 378.5 -96.5t244.5 -269.5t84 -402t-84 -402t-244.5 -269.5t-378.5 -96.5zM767 202q218 0 331.5 143t113.5 392t-113.5 392.5
t-331.5 143.5q-217 0 -330 -143.5t-114 -392.5t112.5 -392t331.5 -143z" />
    <glyph glyph-name="ohungarumlaut" unicode="&#x151;" horiz-adv-x="1265" 
d="M919 1265h-188l158 379h187zM497 1265h-188l158 379h187zM632 -31q-246 0 -398 162.5t-152 421.5t152.5 421.5t397.5 162.5q248 0 400 -162t152 -422t-152.5 -422t-399.5 -162zM632 201q139 0 215 93.5t76 258.5q0 167 -75.5 259.5t-215.5 92.5t-214.5 -92t-74.5 -260
q0 -167 75.5 -259.5t213.5 -92.5z" />
    <glyph glyph-name="OE" unicode="&#x152;" horiz-adv-x="2279" 
d="M767 -31q-327 0 -516.5 210.5t-189.5 557.5t189.5 557.5t516.5 210.5q275 0 457 -151v121h953v-232h-706v-363h583v-232h-583v-417h706v-231h-953v121q-183 -152 -457 -152zM767 202q218 0 331.5 143t113.5 392t-113.5 392.5t-331.5 143.5q-217 0 -330 -143.5
t-114 -392.5t112.5 -392t331.5 -143z" />
    <glyph glyph-name="oe" unicode="&#x153;" horiz-adv-x="2074" 
d="M632 -31q-246 0 -398 162.5t-152 421.5t152.5 421.5t397.5 162.5q132 0 240 -48.5t182 -138.5q74 89 181.5 138t237.5 49q262 0 399 -176t116 -477h-800q15 -136 90 -211.5t196 -75.5q185 0 257 157l244 -69q-64 -151 -195 -233.5t-306 -82.5q-131 0 -239 48.5
t-182 138.5q-73 -90 -181 -138.5t-240 -48.5zM1194 671h542q-9 117 -78 182t-185 65q-112 0 -184 -64.5t-95 -182.5zM632 201q76 0 133.5 28t91 78t50 111.5t16.5 134.5q0 100 -27.5 176.5t-94.5 126t-169 49.5q-140 0 -214.5 -92t-74.5 -260q0 -167 75.5 -259.5
t213.5 -92.5z" />
    <glyph glyph-name="Racute" unicode="&#x154;" horiz-adv-x="1353" 
d="M740 1633h-187l158 379h187zM986 0l-334 515h-261v-515h-248v1475h582q257 0 390 -126t133 -355q0 -180 -82 -296.5t-243 -158.5l349 -539h-286zM391 1243v-498h333q133 0 203.5 64.5t70.5 184.5q0 121 -70.5 185t-203.5 64h-333z" />
    <glyph glyph-name="racute" unicode="&#x155;" horiz-adv-x="816" 
d="M643 1644l-158 -379h-187l158 379h187zM765 1135v-238q-37 8 -117 8q-125 0 -192.5 -77t-67.5 -219v-609h-247v1106h247v-144q94 175 325 175q18 0 52 -2z" />
    <glyph glyph-name="uni0156" unicode="&#x156;" horiz-adv-x="1353" 
d="M986 0l-334 515h-261v-515h-248v1475h582q257 0 390 -126t133 -355q0 -180 -82 -296.5t-243 -158.5l349 -539h-286zM391 1243v-498h333q133 0 203.5 64.5t70.5 184.5q0 121 -70.5 185t-203.5 64h-333zM555 -517q27 0 54 7.5t52 32.5t25 64v3h-131v239h239v-239
q0 -96 -67 -155.5t-172 -59.5v108z" />
    <glyph glyph-name="uni0157" unicode="&#x157;" horiz-adv-x="817" 
d="M766 1135v-238q-37 8 -116 8q-125 0 -192.5 -77t-67.5 -219v-609h-247v1106h247v-144q94 175 325 175q19 0 51 -2zM148 -625v108q27 0 54.5 7.5t53 32.5t25.5 64v3h-133v239h240v-239q0 -96 -68 -155.5t-172 -59.5z" />
    <glyph glyph-name="Rcaron" unicode="&#x158;" horiz-adv-x="1353" 
d="M244 1956h230l153 -182l152 182h231l-280 -323h-207zM986 0l-334 515h-261v-515h-248v1475h582q257 0 390 -126t133 -355q0 -180 -82 -296.5t-243 -158.5l349 -539h-286zM391 1243v-498h333q133 0 203.5 64.5t70.5 184.5q0 121 -70.5 185t-203.5 64h-333z" />
    <glyph glyph-name="rcaron" unicode="&#x159;" horiz-adv-x="817" 
d="M349 1265l-280 322h230l154 -182l152 182h231l-280 -322h-207zM766 1135v-238q-37 8 -116 8q-125 0 -192.5 -77t-67.5 -219v-609h-247v1106h247v-144q94 175 325 175q19 0 51 -2z" />
    <glyph glyph-name="Sacute" unicode="&#x15a;" horiz-adv-x="1346" 
d="M779 1633h-187l158 379h187zM689 -31q-246 0 -411 126.5t-199 340.5l256 39q33 -135 127 -204.5t243 -69.5q133 0 219 60.5t86 154.5q0 118 -164 167l-381 112q-329 98 -329 380q0 192 149 310t384 118q231 0 384 -112.5t203 -318.5l-265 -46q-24 118 -109.5 182.5
t-216.5 64.5q-122 0 -196 -52.5t-74 -135.5q0 -62 51 -104.5t165 -73.5l261 -72q200 -55 298 -155t98 -251q0 -205 -160 -332.5t-419 -127.5z" />
    <glyph glyph-name="sacute" unicode="&#x15b;" horiz-adv-x="1108" 
d="M648 1265h-187l157 379h188zM573 -31q-205 0 -332.5 91.5t-158.5 260.5l253 39q42 -177 244 -177q90 0 142.5 35t52.5 97q0 39 -19.5 62t-74.5 43q-52 18 -184 54q-201 53 -289.5 124.5t-88.5 200.5q0 153 120 245.5t317 92.5q191 0 316.5 -88.5t147.5 -238.5l-252 -45
q-10 74 -69 116.5t-151 42.5q-80 0 -131.5 -32t-51.5 -82q0 -41 34 -64t109 -47q92 -28 201 -58q173 -47 246 -119.5t73 -194.5q0 -167 -121.5 -262.5t-332.5 -95.5z" />
    <glyph glyph-name="Scircumflex" unicode="&#x15c;" horiz-adv-x="1346" 
d="M306 1633l280 323h207l280 -323h-230l-154 183l-152 -183h-231zM689 -31q-246 0 -411 126.5t-199 340.5l256 39q33 -135 127 -204.5t243 -69.5q133 0 219 60.5t86 154.5q0 118 -164 167l-381 112q-329 98 -329 380q0 192 149 310t384 118q231 0 384 -112.5t203 -318.5
l-265 -46q-24 118 -109.5 182.5t-216.5 64.5q-122 0 -196 -52.5t-74 -135.5q0 -62 51 -104.5t165 -73.5l261 -72q200 -55 298 -155t98 -251q0 -205 -160 -332.5t-419 -127.5z" />
    <glyph glyph-name="scircumflex" unicode="&#x15d;" horiz-adv-x="1108" 
d="M188 1265l280 322h207l280 -322h-230l-154 182l-152 -182h-231zM573 -31q-205 0 -332.5 91.5t-158.5 260.5l253 39q42 -177 244 -177q90 0 142.5 35t52.5 97q0 39 -19.5 62t-74.5 43q-52 18 -184 54q-201 53 -289.5 124.5t-88.5 200.5q0 153 120 245.5t317 92.5
q191 0 316.5 -88.5t147.5 -238.5l-252 -45q-10 74 -69 116.5t-151 42.5q-80 0 -131.5 -32t-51.5 -82q0 -41 34 -64t109 -47q92 -28 201 -58q173 -47 246 -119.5t73 -194.5q0 -167 -121.5 -262.5t-332.5 -95.5z" />
    <glyph glyph-name="Scedilla" unicode="&#x15e;" horiz-adv-x="1346" 
d="M654 -495q-73 0 -141 37l54 147q47 -15 66 -15q28 0 46 16.5t18 39.5q0 41 -58 66q-36 15 -68 24q-2 0 -4.5 1t-3.5 1l52 150q-218 20 -361.5 143.5t-174.5 320.5l256 39q33 -135 127 -204.5t243 -69.5q133 0 219 60.5t86 154.5q0 118 -164 167l-381 112
q-329 98 -329 380q0 192 149 310t384 118q231 0 384 -112.5t203 -318.5l-265 -46q-24 118 -109.5 182.5t-216.5 64.5q-122 0 -196 -52.5t-74 -135.5q0 -62 51 -104.5t165 -73.5l261 -72q200 -55 298 -155t98 -251q0 -189 -138 -313t-366 -144l-20 -58q125 -63 125 -189
q0 -95 -63 -157.5t-152 -62.5z" />
    <glyph glyph-name="scedilla" unicode="&#x15f;" horiz-adv-x="1108" 
d="M536 -495q-75 0 -143 37l54 147q47 -15 67 -15q28 0 46 16.5t18 39.5q0 42 -59 66q-39 16 -67 24q-2 0 -5 1t-4 1l54 151q-174 17 -280.5 106t-134.5 242l253 39q42 -177 244 -177q90 0 142.5 35t52.5 97q0 39 -19.5 62t-74.5 43q-52 18 -184 54q-201 53 -289.5 124.5
t-88.5 200.5q0 153 120 245.5t317 92.5q191 0 316.5 -88.5t147.5 -238.5l-252 -45q-10 74 -69 116.5t-151 42.5q-80 0 -131.5 -32t-51.5 -82q0 -41 34 -64t109 -47q92 -28 201 -58q173 -47 246 -119.5t73 -194.5q0 -152 -101 -245t-281 -110l-20 -58q125 -62 125 -189
q0 -95 -62.5 -157.5t-151.5 -62.5z" />
    <glyph glyph-name="Scaron" unicode="&#x160;" horiz-adv-x="1346" 
d="M314 1956h231l152 -182l153 182h230l-279 -323h-207zM689 -31q-246 0 -411 126.5t-199 340.5l256 39q33 -135 127 -204.5t243 -69.5q133 0 219 60.5t86 154.5q0 118 -164 167l-381 112q-329 98 -329 380q0 192 149 310t384 118q231 0 384 -112.5t203 -318.5l-265 -46
q-24 118 -109.5 182.5t-216.5 64.5q-122 0 -196 -52.5t-74 -135.5q0 -62 51 -104.5t165 -73.5l261 -72q200 -55 298 -155t98 -251q0 -205 -160 -332.5t-419 -127.5z" />
    <glyph glyph-name="scaron" unicode="&#x161;" horiz-adv-x="1108" 
d="M185 1587h231l152 -182l153 182h230l-279 -322h-207zM573 -31q-205 0 -332.5 91.5t-158.5 260.5l253 39q42 -177 244 -177q90 0 142.5 35t52.5 97q0 39 -19.5 62t-74.5 43q-52 18 -184 54q-201 53 -289.5 124.5t-88.5 200.5q0 153 120 245.5t317 92.5q191 0 316.5 -88.5
t147.5 -238.5l-252 -45q-10 74 -69 116.5t-151 42.5q-80 0 -131.5 -32t-51.5 -82q0 -41 34 -64t109 -47q92 -28 201 -58q173 -47 246 -119.5t73 -194.5q0 -167 -121.5 -262.5t-332.5 -95.5z" />
    <glyph glyph-name="uni0162" unicode="&#x162;" horiz-adv-x="1242" 
d="M543 0h-64v1243h-439v232h1125v-232h-437v-1243h-37l-29 -88q124 -63 124 -190q0 -95 -63 -157t-152 -62q-73 0 -141 37l54 147q47 -15 66 -15q28 0 46 16.5t18 39.5q0 41 -58 66q-36 15 -68 24q-2 0 -4 1t-4 1z" />
    <glyph glyph-name="uni0163" unicode="&#x163;" horiz-adv-x="886" 
d="M472 -495q-73 0 -141 37l54 147q47 -15 66 -15q28 0 45.5 16.5t17.5 39.5q0 34 -29 52t-96 38q-1 0 -3.5 1t-4.5 1l65 190q-108 26 -166.5 103.5t-58.5 196.5v565h-201v229h201v307h246v-307h325v-229h-325v-515q0 -74 34.5 -108.5t108.5 -34.5h182v-219h-201l-29 -86
q124 -63 124 -189q0 -95 -62.5 -157.5t-151.5 -62.5z" />
    <glyph glyph-name="Tcaron" unicode="&#x164;" horiz-adv-x="1242" 
d="M514 1633l-280 323h231l152 -182l154 182h230l-280 -323h-207zM745 0h-247v1243h-478v232h1202v-232h-477v-1243z" />
    <glyph glyph-name="tcaron" unicode="&#x165;" horiz-adv-x="886" 
d="M696 1236l15 106q5 -1 13 -1q50 0 77.5 31.5t27.5 88.5v6q-1 5 -1 15t-1 15h-131v263h253v-273q0 -88 -28.5 -150t-75.5 -84q-48 -21 -96 -21q-29 0 -53 4zM20 877v229h201v369h246v-369h325v-229h-325v-515q0 -74 34.5 -108.5t108.5 -34.5h182v-219h-233q-160 0 -249 82
t-89 230v565h-201z" />
    <glyph glyph-name="Tbar" unicode="&#x166;" horiz-adv-x="1242" 
d="M498 614h-358v246h358v383h-478v232h1202v-232h-477v-383h358v-246h-358v-614h-247v614z" />
    <glyph glyph-name="tbar" unicode="&#x167;" horiz-adv-x="927" 
d="M221 438h-201v230h201v209h-201v229h201v307h246v-307h325v-229h-325v-209h358v-230h-358v-76q0 -74 34.5 -108.5t108.5 -34.5h182v-219h-233q-160 0 -249 82t-89 230v126z" />
    <glyph glyph-name="Utilde" unicode="&#x168;" horiz-adv-x="1474" 
d="M925 1638q-43 0 -85.5 19.5t-111.5 64.5q-83 59 -123 59q-22 0 -34.5 -17t-14 -29t-1.5 -23q0 -25 7 -46h-155q-13 55 -13 94q0 29 9 77q9 46 57 85q45 38 124 38q43 0 85 -19t112 -65q84 -58 122 -58q32 0 41 24t9 44q0 23 -7 47h156q12 -51 12 -95q0 -25 -8 -75
q-9 -48 -56 -86q-48 -39 -125 -39zM737 -31q-272 0 -433 160.5t-161 459.5v886h248v-876q0 -200 85.5 -298.5t260.5 -98.5t260.5 98.5t85.5 298.5v876h248v-886q0 -299 -160.5 -459.5t-433.5 -160.5z" />
    <glyph glyph-name="utilde" unicode="&#x169;" horiz-adv-x="1277" 
d="M822 1270q-43 0 -85 19t-111 65q-82 58 -123 58q-22 0 -34.5 -17t-14 -29t-1.5 -23q0 -25 7 -46h-156q-12 51 -12 95q0 28 9 76q9 47 56 85q45 38 124 38q43 0 85.5 -19.5t112.5 -64.5q84 -58 122 -58q32 0 41 25q9 24 9 44q0 23 -7 47h155q13 -55 13 -96q0 -24 -8 -74
q-9 -47 -57 -86t-125 -39zM369 1106v-608q0 -142 67 -219.5t192 -77.5t192.5 77.5t67.5 219.5v608h246v-1106h-246v144q-96 -175 -326 -175q-205 0 -322 119t-117 357v661h246z" />
    <glyph glyph-name="Umacron" unicode="&#x16a;" horiz-adv-x="1474" 
d="M464 1720v192h547v-192h-547zM737 -31q-272 0 -433 160.5t-161 459.5v886h248v-876q0 -200 85.5 -298.5t260.5 -98.5t260.5 98.5t85.5 298.5v876h248v-886q0 -299 -160.5 -459.5t-433.5 -160.5z" />
    <glyph glyph-name="umacron" unicode="&#x16b;" horiz-adv-x="1277" 
d="M901 1352h-546v191h546v-191zM370 1106v-608q0 -142 66.5 -219.5t191.5 -77.5t192.5 77t67.5 220v608h247v-1106h-247v144q-95 -175 -325 -175q-205 0 -322.5 119t-117.5 357v661h247z" />
    <glyph glyph-name="Ubreve" unicode="&#x16c;" horiz-adv-x="1474" 
d="M737 1599q-85 0 -155.5 41.5t-112.5 113.5q-42 71 -42 156h193q0 -50 34 -84t83 -34t83.5 34t34.5 84h193q0 -85 -41.5 -156t-112.5 -113q-72 -42 -157 -42zM737 -31q-272 0 -433 160.5t-161 459.5v886h248v-876q0 -200 85.5 -298.5t260.5 -98.5t260.5 98.5t85.5 298.5
v876h248v-886q0 -299 -160.5 -459.5t-433.5 -160.5z" />
    <glyph glyph-name="ubreve" unicode="&#x16d;" horiz-adv-x="1277" 
d="M629 1231q-85 0 -156 41t-113 113q-42 71 -42 156h193q0 -49 34.5 -83.5t83.5 -34.5t83 34t34 84h193q0 -85 -41.5 -155.5t-112.5 -112.5q-72 -42 -156 -42zM370 1106v-608q0 -142 66.5 -219.5t191.5 -77.5t192.5 77t67.5 220v608h247v-1106h-247v144q-95 -175 -325 -175
q-205 0 -322.5 119t-117.5 357v661h247z" />
    <glyph glyph-name="Uring" unicode="&#x16e;" horiz-adv-x="1474" 
d="M744 1589q-107 0 -185.5 78.5t-78.5 184.5t79 185t185 79q71 0 132.5 -35t96.5 -96q35 -58 35 -133q0 -71 -35 -131.5t-96 -95.5q-61 -36 -133 -36zM744 1740q46 0 79.5 33t33.5 79t-33.5 79.5t-79.5 33.5t-79 -33.5t-33 -79.5t33 -79t79 -33zM737 -31q-272 0 -433 160.5
t-161 459.5v886h248v-876q0 -200 85.5 -298.5t260.5 -98.5t260.5 98.5t85.5 298.5v876h248v-886q0 -299 -160.5 -459.5t-433.5 -160.5z" />
    <glyph glyph-name="uring" unicode="&#x16f;" horiz-adv-x="1277" 
d="M629 1221q-70 0 -131.5 35t-96.5 96q-35 58 -35 132q0 71 35 132t97 96q58 35 131 35q71 0 132 -35t96 -96q35 -58 35 -132q0 -71 -35 -132t-96 -96q-58 -35 -132 -35zM629 1371q46 0 79 33.5t33 79.5t-32.5 79t-79.5 33q-46 0 -79.5 -33t-33.5 -79t33.5 -79.5
t79.5 -33.5zM370 1106v-608q0 -142 66.5 -219.5t191.5 -77.5t192.5 77t67.5 220v608h247v-1106h-247v144q-95 -175 -325 -175q-205 0 -322.5 119t-117.5 357v661h247z" />
    <glyph glyph-name="Uhungarumlaut" unicode="&#x170;" horiz-adv-x="1474" 
d="M1019 1633h-188l159 379h188zM598 1633h-187l157 379h188zM737 -31q-272 0 -433 160.5t-161 459.5v886h248v-876q0 -200 85.5 -298.5t260.5 -98.5t260.5 98.5t85.5 298.5v876h248v-886q0 -299 -160.5 -459.5t-433.5 -160.5z" />
    <glyph glyph-name="uhungarumlaut" unicode="&#x171;" horiz-adv-x="1277" 
d="M1078 1644l-158 -379h-188l159 379h187zM656 1644l-157 -379h-188l158 379h187zM370 1106v-608q0 -142 66.5 -219.5t191.5 -77.5t192.5 77t67.5 220v608h247v-1106h-247v144q-95 -175 -325 -175q-205 0 -322.5 119t-117.5 357v661h247z" />
    <glyph glyph-name="Uogonek" unicode="&#x172;" horiz-adv-x="1474" 
d="M879 -434q-93 0 -156.5 66.5t-63.5 156.5q0 73 40 146q4 7 21 34q-265 5 -421 165.5t-156 454.5v886h248v-876q0 -200 85.5 -298.5t260.5 -98.5t260.5 98.5t85.5 298.5v876h248v-886q0 -202 -75.5 -342t-213.5 -211q-36 -22 -77 -58q-53 -45 -83 -91t-30 -80
q0 -25 17 -42t42 -17q37 0 76 36l88 -116q-36 -49 -87.5 -75.5t-108.5 -26.5z" />
    <glyph glyph-name="uogonek" unicode="&#x173;" horiz-adv-x="1277" 
d="M934 -490q-92 0 -155.5 66.5t-63.5 156.5q0 146 152 285q3 2 6.5 5t8 7t6.5 6v108q-95 -175 -325 -175q-205 0 -322.5 119t-117.5 357v661h247v-608q0 -142 66.5 -219.5t191.5 -77.5t192.5 77t67.5 220v608h247v-1106q-93 -49 -160.5 -123t-67.5 -125q0 -25 17.5 -42.5
t42.5 -17.5q36 0 75 36l90 -116q-77 -102 -198 -102z" />
    <glyph glyph-name="Wcircumflex" unicode="&#x174;" horiz-adv-x="1997" 
d="M844 1633h-231l280 323h207l280 -323h-230l-154 183zM707 0h-262l-421 1475h260l293 -1082l292 1082h259l294 -1082l292 1082h260l-422 -1475h-261l-292 1066z" />
    <glyph glyph-name="wcircumflex" unicode="&#x175;" horiz-adv-x="1648" 
d="M666 1265h-231l280 322h207l279 -322h-230l-153 182zM1021 0l-197 717l-195 -717h-248l-340 1106h247l217 -763l216 763h208l216 -763l216 763h247l-339 -1106h-248z" />
    <glyph glyph-name="Ycircumflex" unicode="&#x176;" horiz-adv-x="1252" 
d="M470 1633h-230l279 323h207l281 -323h-231l-153 183zM751 0h-248v604l-503 871h288l339 -588l338 588h287l-501 -871v-604z" />
    <glyph glyph-name="ycircumflex" unicode="&#x177;" horiz-adv-x="1145" 
d="M433 1265h-230l279 322h207l280 -322h-231l-152 182zM520 -492h-231l182 499l-447 1099h257l308 -792l301 792h247z" />
    <glyph glyph-name="Ydieresis" unicode="&#x178;" horiz-adv-x="1252" 
d="M950 1646h-225v225h225v-225zM527 1646h-225v225h225v-225zM751 0h-248v604l-503 871h288l339 -588l338 588h287l-501 -871v-604z" />
    <glyph glyph-name="Zacute" unicode="&#x179;" horiz-adv-x="1367" 
d="M938 2012l-158 -379h-187l158 379h187zM1265 0h-1163v231l847 1012h-847v232h1163v-232l-847 -1012h847v-231z" />
    <glyph glyph-name="zacute" unicode="&#x17a;" horiz-adv-x="1072" 
d="M768 1644l-159 -379h-203l157 379h205zM990 0h-949v229l636 648h-636v229h949v-229l-636 -648h636v-229z" />
    <glyph glyph-name="Zdotaccent" unicode="&#x17b;" horiz-adv-x="1367" 
d="M811 1693h-253v253h253v-253zM1265 0h-1163v231l847 1012h-847v232h1163v-232l-847 -1012h847v-231z" />
    <glyph glyph-name="zdotaccent" unicode="&#x17c;" horiz-adv-x="1072" 
d="M642 1324h-253v253h253v-253zM990 0h-949v229l636 648h-636v229h949v-229l-636 -648h636v-229z" />
    <glyph glyph-name="Zcaron" unicode="&#x17d;" horiz-adv-x="1367" 
d="M582 1633l-281 323h230l154 -182l153 182h230l-280 -323h-206zM1265 0h-1163v231l847 1012h-847v232h1163v-232l-847 -1012h847v-231z" />
    <glyph glyph-name="zcaron" unicode="&#x17e;" horiz-adv-x="1072" 
d="M413 1265l-281 322h230l154 -182l153 182h230l-279 -322h-207zM990 0h-949v229l636 648h-636v229h949v-229l-636 -648h636v-229z" />
    <glyph glyph-name="uni018F" unicode="&#x18f;" horiz-adv-x="1499" 
d="M738 -31q-202 0 -356 92t-237.5 261.5t-83.5 391.5q0 45 8 124h1102q-21 210 -131 322t-305 112q-143 0 -250 -77t-143 -211l-252 40q70 232 239.5 356.5t413.5 124.5q320 0 507.5 -210t187.5 -558q0 -228 -87 -402.5t-246 -270t-367 -95.5zM1167 607h-839
q8 -184 117.5 -294.5t282.5 -110.5q185 0 298 105t141 300z" />
    <glyph glyph-name="florin" unicode="&#x192;" horiz-adv-x="1452" 
d="M354 -31q-125 0 -275 63l103 208l10 -5l8 -4q74 -29 134 -29q161 0 197 242l32 197h-295v194h327l35 217q18 116 62 211q44 96 141 169t257 73q150 0 283 -64l-112 -204q0 3 -22.5 11.5t-58.5 16.5t-66 8q-80 0 -140 -41q-63 -42 -78 -128l-44 -269h375v-194h-408
l-38 -231q-36 -214 -146.5 -327.5t-280.5 -113.5z" />
    <glyph glyph-name="Ohorn" unicode="&#x1a0;" horiz-adv-x="1534" 
d="M1346 1658q6 -44 6 -80q0 -56 -21 -121q-20 -58 -89 -93q-3 -1 -9.5 -4t-10.5 -5q122 -101 187 -260t65 -358q0 -229 -84 -402t-244.5 -269.5t-378.5 -96.5q-327 0 -516.5 210.5t-189.5 557.5t189.5 557.5t516.5 210.5q106 0 198 -23q56 -11 70 -12h8q26 0 50 11
t38.5 26.5t20 38.5t6.5 37t1 43v22v9zM767 202q218 0 331.5 143t113.5 392t-113.5 392.5t-331.5 143.5q-217 0 -330 -143.5t-114 -392.5t112.5 -392t331.5 -143z" />
    <glyph glyph-name="ohorn" unicode="&#x1a1;" horiz-adv-x="1265" 
d="M1179 1290q6 -42 6 -79q0 -55 -21 -120q-21 -59 -89 -94q-23 -11 -48 -18q157 -160 157 -426q0 -260 -152.5 -422t-399.5 -162q-246 0 -398 162.5t-152 421.5t152.5 421.5t397.5 162.5q78 0 152 -19q54 -14 84 -15h9q28 0 49 10q23 11 37.5 27t20 38.5t7 38.5t1.5 44v19
v9zM632 201q139 0 215 93.5t76 258.5q0 167 -75.5 259.5t-215.5 92.5t-214.5 -92t-74.5 -260q0 -167 75.5 -259.5t213.5 -92.5z" />
    <glyph glyph-name="Uhorn" unicode="&#x1af;" horiz-adv-x="1474" 
d="M1580 1659q5 -43 5 -73q0 -154 -107 -216q-54 -31 -126 -36q-7 -1 -21 -1v-744q0 -299 -160.5 -459.5t-433.5 -160.5q-272 0 -433 160.5t-161 459.5v886h248v-876q0 -200 85.5 -298.5t260.5 -98.5t260.5 98.5t85.5 298.5v876h134q39 0 63 5q36 6 60 21.5t35 40.5t14.5 48
t3.5 56v12z" />
    <glyph glyph-name="uhorn" unicode="&#x1b0;" horiz-adv-x="1278" 
d="M1147 1289l186 1q5 -43 5 -72q0 -155 -107 -217q-43 -24 -96 -32v-969h-247v144q-95 -175 -325 -175q-205 0 -322.5 119t-117.5 357v661h247v-608q0 -142 66.5 -219.5t191.5 -77.5t192.5 77t67.5 220v608h82q39 0 64 5q67 11 90 54t23 113v11z" />
    <glyph glyph-name="uni0218" unicode="&#x218;" horiz-adv-x="1346" 
d="M689 -31q-246 0 -411 126.5t-199 340.5l256 39q33 -135 127 -204.5t243 -69.5q133 0 219 60.5t86 154.5q0 118 -164 167l-381 112q-329 98 -329 380q0 192 149 310t384 118q231 0 384 -112.5t203 -318.5l-265 -46q-24 118 -109.5 182.5t-216.5 64.5q-122 0 -196 -52.5
t-74 -135.5q0 -62 51 -104.5t165 -73.5l261 -72q200 -55 298 -155t98 -251q0 -205 -160 -332.5t-419 -127.5zM599 -517q27 0 54.5 7.5t52.5 32.5t25 64v3h-132v239h240v-239q0 -96 -68 -155.5t-172 -59.5v108z" />
    <glyph glyph-name="uni0219" unicode="&#x219;" horiz-adv-x="1108" 
d="M573 -31q-205 0 -332.5 91.5t-158.5 260.5l253 39q42 -177 244 -177q90 0 142.5 35t52.5 97q0 39 -19.5 62t-74.5 43q-52 18 -184 54q-201 53 -289.5 124.5t-88.5 200.5q0 153 120 245.5t317 92.5q191 0 316.5 -88.5t147.5 -238.5l-252 -45q-10 74 -69 116.5t-151 42.5
q-80 0 -131.5 -32t-51.5 -82q0 -41 34 -64t109 -47q92 -28 201 -58q173 -47 246 -119.5t73 -194.5q0 -167 -121.5 -262.5t-332.5 -95.5zM449 -517q27 0 54.5 7.5t52.5 32.5t25 64v3h-132v239h239v-239q0 -96 -67.5 -155.5t-171.5 -59.5v108z" />
    <glyph glyph-name="uni021A" unicode="&#x21a;" horiz-adv-x="1242" 
d="M745 0h-247v1243h-478v232h1202v-232h-477v-1243zM502 -625v108q27 0 54.5 7.5t52.5 33.5t25 66h-132v239h238v-239q0 -97 -66.5 -156t-171.5 -59z" />
    <glyph glyph-name="uni021B" unicode="&#x21b;" horiz-adv-x="886" 
d="M221 877h-201v229h201v307h246v-307h325v-229h-325v-515q0 -74 34.5 -108.5t108.5 -34.5h182v-219h-233q-160 0 -249 82t-89 230v565zM372 -625v108q27 0 54 7.5t52 32.5t25 64v3h-131v239h238v-239q0 -97 -66.5 -156t-171.5 -59z" />
    <glyph glyph-name="uni0259" unicode="&#x259;" horiz-adv-x="1232" 
d="M599 909q-184 0 -256 -157l-245 69q64 150 195.5 233t305.5 83q247 0 399.5 -162t152.5 -422q0 -261 -152.5 -422.5t-397.5 -161.5q-262 0 -399.5 176.5t-115.5 476.5h800q-17 137 -91.5 212t-195.5 75zM880 435h-543q9 -117 78.5 -182t185.5 -65q112 0 184 64.5
t95 182.5z" />
    <glyph glyph-name="circumflex" unicode="&#x2c6;" horiz-adv-x="1189" 
d="M438 1633h-230l280 323h207l280 -323h-231l-152 183z" />
    <glyph glyph-name="caron" unicode="&#x2c7;" horiz-adv-x="1185" 
d="M488 1633l-280 323h230l154 -182l152 182h231l-280 -323h-207z" />
    <glyph glyph-name="breve" unicode="&#x2d8;" horiz-adv-x="1112" 
d="M556 1599q-85 0 -155.5 41.5t-112.5 113.5q-42 71 -42 156h192q0 -50 34 -84t84 -34t84 34t34 84h192q0 -85 -41 -156t-112 -113q-72 -42 -157 -42z" />
    <glyph glyph-name="dotaccent" unicode="&#x2d9;" horiz-adv-x="744" 
d="M499 1693h-253v253h253v-253z" />
    <glyph glyph-name="ring" unicode="&#x2da;" horiz-adv-x="1122" 
d="M561 1589q-70 0 -131 35t-96 96q-36 60 -36 132q0 71 35.5 132.5t96.5 96.5q58 35 131 35q71 0 132.5 -35t96.5 -96q34 -57 34 -133q0 -71 -35 -131.5t-96 -95.5q-60 -36 -132 -36zM561 1740q46 0 79.5 33t33.5 79t-33 79.5t-80 33.5q-46 0 -79 -33.5t-33 -79.5t33 -79
t79 -33z" />
    <glyph glyph-name="ogonek" unicode="&#x2db;" horiz-adv-x="908" 
d="M464 -490q-93 0 -156.5 66.5t-63.5 156.5q0 107 89 217t223 174l108 -124q-93 -49 -160.5 -123t-67.5 -125q0 -25 17.5 -42.5t42.5 -17.5q38 0 75 36l89 -116q-36 -48 -87.5 -75t-108.5 -27z" />
    <glyph glyph-name="tilde" unicode="&#x2dc;" horiz-adv-x="1182" 
d="M762 1638q-43 0 -85.5 19.5t-111.5 64.5q-83 59 -123 59q-22 0 -34.5 -17t-14 -29t-1.5 -23q0 -25 7 -46h-155q-13 55 -13 94q0 24 10 77q9 47 56 85q45 38 124 38q43 0 85 -19t112 -65q84 -58 122 -58q32 0 41 24q10 27 10 44q0 20 -8 47h156q12 -51 12 -95
q0 -25 -8 -75q-9 -48 -56 -86q-48 -39 -125 -39z" />
    <glyph glyph-name="hungarumlaut" unicode="&#x2dd;" horiz-adv-x="1189" 
d="M976 2012l-158 -379h-187l157 379h188zM554 2012l-158 -379h-187l158 379h187z" />
    <glyph glyph-name="uni0374" unicode="&#x374;" horiz-adv-x="631" 
d="M469 1475l-159 -379h-187l159 379h187z" />
    <glyph glyph-name="uni0375" unicode="&#x375;" horiz-adv-x="631" 
d="M469 -130l-159 -379h-187l159 379h187z" />
    <glyph glyph-name="uni037E" unicode="&#x37e;" horiz-adv-x="703" 
d="M478 853h-253v253h253v-253zM225 -261l15 106q5 -1 13 -1q49 0 77 31.5t28 87.5v6q0 6 -1 16t-1 15h-131v263h253v-273q0 -88 -28 -150t-76 -85q-48 -21 -94 -21q-23 0 -55 5z" />
    <glyph glyph-name="tonos" unicode="&#x384;" horiz-adv-x="1228" 
d="M776 1475l-159 -379h-187l159 379h187z" />
    <glyph glyph-name="dieresistonos" unicode="&#x385;" horiz-adv-x="1228" 
d="M817 1644l-158 -379h-187l158 379h187zM1039 1275h-199v225h199v-225zM389 1275h-200v225h200v-225z" />
    <glyph glyph-name="Alphatonos" unicode="&#x386;" horiz-adv-x="1403" 
d="M881 1475l487 -1475h-260l-104 319h-576l-104 -319h-261l489 1475h329zM403 1475l-158 -379h-188l159 379h187zM503 550h426l-213 654z" />
    <glyph glyph-name="anoteleia" unicode="&#x387;" horiz-adv-x="1228" 
d="M276 495q-64 0 -108.5 43.5t-44.5 106.5t44.5 107t108.5 44q60 0 103.5 -44t43.5 -107t-43.5 -106.5t-103.5 -43.5z" />
    <glyph glyph-name="Epsilontonos" unicode="&#x388;" horiz-adv-x="1536" 
d="M1434 0h-955v1475h955v-232h-707v-363h584v-232h-584v-417h707v-231zM380 1475l-159 -379h-187l159 379h187z" />
    <glyph glyph-name="Etatonos" unicode="&#x389;" horiz-adv-x="1792" 
d="M706 0h-248v1475h248v-621h697v621h248v-1475h-248v623h-697v-623zM361 1475l-158 -379h-188l159 379h187z" />
    <glyph glyph-name="Iotatonos" unicode="&#x38a;" horiz-adv-x="845" 
d="M702 0h-248v1475h248v-1475zM361 1475l-158 -379h-188l159 379h187z" />
    <glyph glyph-name="Omicrontonos" unicode="&#x38c;" horiz-adv-x="1759" 
d="M992 -31q-217 0 -377.5 96.5t-244 269.5t-83.5 402t83.5 402t244 269.5t377.5 96.5q218 0 378.5 -96.5t244.5 -269.5t84 -402t-84 -402t-244.5 -269.5t-378.5 -96.5zM370 1475l-159 -379h-187l158 379h188zM992 202q218 0 332 143.5t114 391.5q0 249 -114 392.5
t-332 143.5q-217 0 -330 -143.5t-114 -392.5t112.5 -392t331.5 -143z" />
    <glyph glyph-name="Upsilontonos" unicode="&#x38e;" horiz-adv-x="1708" 
d="M1206 0h-248v604l-502 871h287l339 -588l338 588h288l-502 -871v-604zM387 1475l-159 -379h-187l159 379h187z" />
    <glyph glyph-name="Omegatonos" unicode="&#x38f;" horiz-adv-x="1783" 
d="M842 0h-520v231h212q-109 97 -169.5 239.5t-60.5 309.5q0 202 88 370q87 166 249 260q160 95 369 95t369 -95q161 -96 249 -260q88 -168 88 -370q0 -167 -60 -309.5t-169 -239.5h212v-231h-514v231q109 55 189 195t81 316v6q0 146 -54.5 265t-154.5 189q-103 70 -236 70
q-132 0 -233 -69t-157 -191q-55 -122 -55 -267q0 -123 39.5 -228t105.5 -179q64 -71 132 -107v-231zM385 1475l-159 -379h-187l159 379h187z" />
    <glyph glyph-name="iotadieresistonos" unicode="&#x390;" horiz-adv-x="999" 
d="M690 1644l-158 -379h-187l158 379h187zM912 1275h-199v225h199v-225zM262 1275h-200v225h200v-225zM903 219v-219h-233q-160 0 -249 82t-89 230v792h247v-742q0 -74 34.5 -108.5t108.5 -34.5h181z" />
    <glyph glyph-name="Alpha" unicode="&#x391;" horiz-adv-x="1374" 
d="M852 1475l487 -1475h-260l-104 319h-576l-104 -319h-260l488 1475h329zM474 550h426l-213 654z" />
    <glyph glyph-name="Beta" unicode="&#x392;" horiz-adv-x="1292" 
d="M674 0h-569v1475h553q215 0 352.5 -100.5t137.5 -287.5q0 -130 -64 -212.5t-148 -108.5q46 -9 90.5 -35t83 -68.5t62.5 -108t24 -143.5q0 -84 -26.5 -153t-74 -116.5t-113.5 -79.5t-143 -47t-165 -15zM664 1243h-311v-370h321q102 0 163 44t61 143q0 183 -234 183z
M353 231h321q59 0 104 8.5t85.5 30.5t62.5 64.5t22 104.5q0 207 -266 207h-329v-415z" />
    <glyph glyph-name="Gamma" unicode="&#x393;" horiz-adv-x="1116" 
d="M390 0h-249v1475h955v-232h-706v-1243z" />
    <glyph glyph-name="uni0394" unicode="&#x394;" horiz-adv-x="1373" 
d="M41 0l465 1475h361l465 -1475h-1291zM684 1235l-316 -1004h637z" />
    <glyph glyph-name="Epsilon" unicode="&#x395;" horiz-adv-x="1198" 
d="M1082 0h-954v1475h954v-232h-706v-363h583v-232h-583v-417h706v-231z" />
    <glyph glyph-name="Zeta" unicode="&#x396;" horiz-adv-x="1358" 
d="M1265 0h-1163v231l847 1012h-847v232h1163v-232l-847 -1012h847v-231z" />
    <glyph glyph-name="Eta" unicode="&#x397;" horiz-adv-x="1477" 
d="M391 0h-248v1475h248v-621h698v621h247v-1475h-247v623h-698v-623z" />
    <glyph glyph-name="Theta" unicode="&#x398;" horiz-adv-x="1534" 
d="M767 -31q-327 0 -516.5 210.5t-189.5 557.5t189.5 557.5t516.5 210.5q218 0 378.5 -96.5t244.5 -269.5t84 -402t-84 -402t-244.5 -269.5t-378.5 -96.5zM767 202q218 0 331.5 143t113.5 392t-113.5 392.5t-331.5 143.5q-217 0 -330 -143.5t-114 -392.5t112.5 -392
t331.5 -143zM495 641v193h545v-193h-545z" />
    <glyph glyph-name="Iota" unicode="&#x399;" horiz-adv-x="574" 
d="M411 0h-249v1475h249v-1475z" />
    <glyph glyph-name="Kappa" unicode="&#x39a;" horiz-adv-x="1325" 
d="M141 0v1475h249v-687l589 687h303l-634 -723l677 -752h-313l-622 689v-689h-249z" />
    <glyph glyph-name="Lambda" unicode="&#x39b;" horiz-adv-x="1325" 
d="M504 1475h329l487 -1475h-260l-392 1204l-393 -1204h-260z" />
    <glyph glyph-name="Mu" unicode="&#x39c;" horiz-adv-x="1751" 
d="M400 0h-248v1475h247l477 -993l476 993h247v-1475h-247v979l-372 -776h-209l-371 776v-979z" />
    <glyph glyph-name="Nu" unicode="&#x39d;" horiz-adv-x="1470" 
d="M391 0h-248v1475h248l687 -1049v1049h249v-1475h-249l-687 1049v-1049z" />
    <glyph glyph-name="Xi" unicode="&#x39e;" horiz-adv-x="1481" 
d="M1338 1243h-1195v232h1195v-232zM1236 623h-990v231h990v-231zM1338 0h-1195v231h1195v-231z" />
    <glyph glyph-name="Omicron" unicode="&#x39f;" horiz-adv-x="1534" 
d="M767 -31q-327 0 -516.5 210.5t-189.5 557.5t189.5 557.5t516.5 210.5q218 0 378.5 -96.5t244.5 -269.5t84 -402t-84 -402t-244.5 -269.5t-378.5 -96.5zM767 202q218 0 331.5 143t113.5 392t-113.5 392.5t-331.5 143.5q-217 0 -330 -143.5t-114 -392.5t112.5 -392
t331.5 -143z" />
    <glyph glyph-name="Pi" unicode="&#x3a0;" horiz-adv-x="1481" 
d="M431 0h-248v1475h1155v-1475h-247v1243h-660v-1243z" />
    <glyph glyph-name="Rho" unicode="&#x3a1;" horiz-adv-x="1307" 
d="M390 0h-249v1475h583q257 0 389.5 -126t132.5 -355q0 -228 -132.5 -353.5t-389.5 -125.5h-334v-515zM390 1243v-498h332q133 0 204 64.5t71 184.5q0 121 -71 185t-204 64h-332z" />
    <glyph glyph-name="Sigma" unicode="&#x3a3;" horiz-adv-x="1300" 
d="M451 1243l480 -487v-37l-480 -488h700v-231h-1008v230l507 507l-507 507v231h1008v-232h-700z" />
    <glyph glyph-name="Tau" unicode="&#x3a4;" horiz-adv-x="1242" 
d="M728 0h-249v1243h-439v232h1125v-232h-437v-1243z" />
    <glyph glyph-name="Upsilon" unicode="&#x3a5;" horiz-adv-x="1252" 
d="M751 0h-248v604l-503 871h288l339 -588l338 588h287l-501 -871v-604z" />
    <glyph glyph-name="Phi" unicode="&#x3a6;" horiz-adv-x="1611" 
d="M684 0v130q-125 4 -237 46.5t-198.5 117.5t-137 189.5t-50.5 252.5t51 253t137 191t198 118.5t237 46.5v130h248v-130q125 -4 236.5 -46.5t197.5 -118.5t136.5 -191t50.5 -253t-50.5 -252.5t-136.5 -189.5t-197.5 -117.5t-236.5 -46.5v-130h-248zM932 1121v-768
q160 6 265.5 111t105.5 272t-106 273t-265 112zM684 353v768q-160 -6 -266 -112t-106 -273t106 -272t266 -111z" />
    <glyph glyph-name="Chi" unicode="&#x3a7;" horiz-adv-x="1342" 
d="M325 0h-305l500 745l-485 730h302l336 -520l333 520h304l-486 -730l498 -745h-302l-347 536z" />
    <glyph glyph-name="Psi" unicode="&#x3a8;" horiz-adv-x="1543" 
d="M648 0v322q-188 7 -316 92q-128 83 -170 257q-19 73 -19 158v646h232v-606q0 -77 13 -129q25 -100 90.5 -144t169.5 -46v925h247v-925q222 7 263 205q10 53 10 114v606h232v-646q0 -78 -19 -155q-43 -175 -171 -259q-129 -84 -315 -93v-322h-247z" />
    <glyph glyph-name="uni03A9" unicode="&#x3a9;" horiz-adv-x="1534" 
d="M599 0h-520v231h212q-109 97 -169.5 239.5t-60.5 309.5q0 200 89 370q88 167 248 260q160 95 369 95q210 0 370 -95q159 -95 248 -260q89 -170 89 -370q0 -167 -60.5 -309.5t-169.5 -239.5h212v-231h-514v231q109 55 189 195t81 316v6q0 146 -54 265t-154 189
q-103 70 -237 70q-132 0 -233 -69t-157 -191q-54 -120 -54 -267q0 -123 39 -228t105 -179q64 -71 132 -107v-231z" />
    <glyph glyph-name="Iotadieresis" unicode="&#x3aa;" horiz-adv-x="574" 
d="M611 1646h-225v225h225v-225zM188 1646h-225v225h225v-225zM411 0h-247v1475h247v-1475z" />
    <glyph glyph-name="Upsilondieresis" unicode="&#x3ab;" horiz-adv-x="1252" 
d="M950 1646h-225v225h225v-225zM527 1646h-225v225h225v-225zM752 0h-250v604l-502 871h288l339 -588l338 588h287l-500 -871v-604z" />
    <glyph glyph-name="alphatonos" unicode="&#x3ac;" 
d="M887 1644l-158 -379h-187l157 379h188zM923 1106h246v-1106h-246v148q-106 -179 -340 -179q-219 0 -360 164t-141 420q0 258 141 421t360 163q233 0 340 -180v149zM634 905q-142 0 -216.5 -95.5t-74.5 -256.5q0 -164 74.5 -258t216.5 -94q144 0 216.5 94.5t72.5 257.5
q0 164 -74.5 258t-214.5 94z" />
    <glyph glyph-name="epsilontonos" unicode="&#x3ad;" horiz-adv-x="1070" 
d="M785 1644l-158 -379h-188l159 379h187zM538 -31q-211 0 -333.5 99.5t-122.5 258.5q0 90 43.5 155.5t116.5 90.5q-129 64 -129 222q0 162 113 252t316 90q115 0 206 -30t162 -105.5t98 -192.5l-232 -42q-37 156 -230 156q-88 0 -142 -36.5t-54 -104.5q0 -55 40 -85
t118 -30h164v-195h-164q-87 0 -136.5 -34t-49.5 -105q0 -69 59 -109.5t163 -40.5t170.5 47t80.5 143l231 -41q-29 -177 -155 -270t-333 -93z" />
    <glyph glyph-name="etatonos" unicode="&#x3ae;" horiz-adv-x="1281" 
d="M904 1644l-159 -379h-187l159 379h187zM908 0v609q0 142 -66.5 219t-191.5 77t-192.5 -77t-67.5 -219v-609h-247v1106h247v-144q94 175 325 175q205 0 322.5 -119.5t117.5 -357.5v-660h-247z" />
    <glyph glyph-name="iotatonos" unicode="&#x3af;" horiz-adv-x="829" 
d="M384 1265h-187l157 379h188zM734 219v-219h-233q-160 0 -249 82t-89 230v792h247v-742q0 -74 34.5 -108.5t108.5 -34.5h181z" />
    <glyph glyph-name="upsilondieresistonos" unicode="&#x3b0;" horiz-adv-x="1262" 
d="M834 1644l-158 -379h-188l158 379h188zM1056 1275h-200v225h200v-225zM406 1275h-200v225h200v-225zM123 506v600h250v-533q0 -107 19 -181.5t73 -130.5q57 -60 166 -60q110 0 167 60q58 61 74 138q18 85 18 174v533h250v-600q0 -142 -33 -255q-33 -115 -144 -198
q-112 -85 -332 -85q-219 0 -331 85q-111 83 -144 198q-33 113 -33 255z" />
    <glyph glyph-name="alpha" unicode="&#x3b1;" 
d="M923 1106h246v-1106h-246v148q-106 -179 -340 -179q-219 0 -360 164t-141 420q0 258 141 421t360 163q233 0 340 -180v149zM634 905q-142 0 -216.5 -95.5t-74.5 -256.5q0 -164 74.5 -258t216.5 -94q144 0 216.5 94.5t72.5 257.5q0 164 -74.5 258t-214.5 94z" />
    <glyph glyph-name="beta" unicode="&#x3b2;" horiz-adv-x="1236" 
d="M141 -492v1598q0 56 19 122q42 134 159.5 205.5t270.5 71.5q132 0 239 -53.5t167 -148.5q60 -98 60 -217q0 -178 -124 -271q110 -41 177 -143.5t67 -243.5q0 -213 -144 -336t-388 -123q-149 0 -255 55v-516h-248zM654 199q123 0 198.5 65.5t75.5 173.5q0 116 -87 175
t-242 61v216q99 8 153.5 57.5t54.5 133.5q0 89 -60.5 141t-150.5 52q-133 0 -179 -102q-26 -57 -26 -153v-565q0 -76 15 -124q22 -62 92 -96.5t156 -34.5z" />
    <glyph glyph-name="gamma" unicode="&#x3b3;" horiz-adv-x="1132" 
d="M690 -369h-248v369l-401 1106h248l277 -802l279 802h247l-402 -1106v-369z" />
    <glyph glyph-name="delta" unicode="&#x3b4;" horiz-adv-x="1265" 
d="M627 -31q-160 0 -284 64t-192 181q-69 115 -69 269q0 150 68 268q66 116 191 170q43 18 85 26q-61 34 -108 82q-73 74 -73 192q0 48 13 92t41 83.5t78.5 67t117.5 36.5q33 5 130 5h416v-200h-360q-75 0 -111 -9q-80 -24 -80 -88q0 -72 119 -121q27 -11 147 -53
q53 -19 99 -38q36 -13 67 -29q125 -68 193.5 -189t68.5 -275q0 -156 -69 -276.5t-195 -188.5q-126 -69 -293 -69zM634 201q130 0 199 81t69 222q0 142 -70 221.5t-198 79.5q-130 0 -199 -80t-69 -222q0 -145 69.5 -223.5t198.5 -78.5z" />
    <glyph glyph-name="epsilon" unicode="&#x3b5;" horiz-adv-x="1065" 
d="M521 -31q-211 0 -333 99.5t-122 258.5q0 90 43 155.5t116 90.5q-129 64 -129 222q0 162 113 252t316 90q115 0 206 -30t162.5 -105.5t97.5 -192.5l-231 -42q-37 156 -231 156q-88 0 -141.5 -36.5t-53.5 -104.5q0 -55 40 -85t118 -30h163v-195h-163q-87 0 -137 -34
t-50 -105q0 -69 59 -109.5t163 -40.5t171 47t81 143l231 -41q-29 -177 -155.5 -270t-333.5 -93z" />
    <glyph glyph-name="zeta" unicode="&#x3b6;" horiz-adv-x="1077" 
d="M1057 -246h-216v13q0 193 -128 220q-56 13 -160 13h-11q-226 0 -343 97t-117 309q0 94 26.5 175.5t89.5 172.5q65 94 177 208q60 60 115 110q25 22 131 113q9 9 33 33.5t35 36.5h-546v220h927v-182l-88 -86q-17 -16 -127 -116q-180 -167 -247 -228q-145 -137 -205 -236.5
t-60 -197.5q0 -157 149 -185q70 -14 180 -14q125 0 200 -27q71 -25 120.5 -84.5t62.5 -129.5q12 -67 12 -117q0 -58 -10 -118z" />
    <glyph glyph-name="eta" unicode="&#x3b7;" horiz-adv-x="1277" 
d="M908 -388v997q0 142 -66.5 219t-191.5 77t-192.5 -77t-67.5 -219v-609h-247v1106h247v-144q94 175 325 175q205 0 322.5 -119.5t117.5 -357.5v-1048h-247z" />
    <glyph glyph-name="theta" unicode="&#x3b8;" horiz-adv-x="1405" 
d="M702 -31q-191 0 -331.5 94.5t-214.5 269.5t-74 404q0 231 74 405t214 269q141 94 332 94q192 0 333 -94t215 -268q74 -175 74 -406q0 -233 -74 -406.5t-214 -267.5q-141 -94 -334 -94zM347 834h712q-7 95 -36 183q-40 122 -122 188.5t-199 66.5q-116 0 -197.5 -66.5
t-121.5 -188.5q-28 -89 -36 -183zM702 202q117 0 198.5 66.5t121.5 189.5q28 87 37 183h-712q7 -95 36 -183q40 -122 121.5 -189t197.5 -67z" />
    <glyph glyph-name="iota" unicode="&#x3b9;" horiz-adv-x="829" 
d="M734 219v-219h-233q-160 0 -249 82t-89 230v792h247v-742q0 -74 34.5 -108.5t108.5 -34.5h181z" />
    <glyph glyph-name="kappa" unicode="&#x3ba;" horiz-adv-x="1101" 
d="M143 0v1106h247v-533l405 533h308l-429 -553l466 -553h-327l-423 532v-532h-247z" />
    <glyph glyph-name="lambda" unicode="&#x3bb;" horiz-adv-x="1173" 
d="M82 0l401 1106q-3 8 -9.5 23t-8.5 22q-38 78 -86 108t-140 30h-53v216h77q102 0 165 -15q139 -33 216 -175q34 -64 70 -161q2 -6 8 -22.5t9 -25.5l402 -1106h-248l-278 802l-278 -802h-247z" />
    <glyph glyph-name="uni03BC" unicode="&#x3bc;" horiz-adv-x="1299" 
d="M908 1106h248v-1106h-248v144q-94 -175 -324 -175q-108 0 -194 33l1 -494h-250v1598h250v-639q7 -128 73 -197t184 -69q125 0 192.5 77t67.5 220v608z" />
    <glyph glyph-name="nu" unicode="&#x3bd;" horiz-adv-x="1132" 
d="M690 0h-248l-401 1106h248l277 -803l279 803h247z" />
    <glyph glyph-name="xi" unicode="&#x3be;" horiz-adv-x="1200" 
d="M658 0q-265 -1 -412 114.5t-147 324.5q0 111 58 200t172 117q-185 89 -185 291q0 110 69 196h-114v232h891v-232h-368q-109 0 -167.5 -48t-58.5 -138q0 -91 58 -140t163 -49h234v-233h-251q-119 0 -181 -49.5t-62 -145.5q0 -49 18 -86t48.5 -60.5t76 -37.5t96 -19.5
t113.5 -5.5q146 0 233 -11t147 -52q157 -106 88 -407h-211q10 90 -5 139t-57 72q-35 19 -91 24t-155 4z" />
    <glyph glyph-name="omicron" unicode="&#x3bf;" horiz-adv-x="1265" 
d="M632 -31q-246 0 -398 162.5t-152 421.5t152.5 421.5t397.5 162.5q248 0 400 -162t152 -422t-152.5 -422t-399.5 -162zM632 201q139 0 215 93.5t76 258.5q0 167 -75.5 259.5t-215.5 92.5t-214.5 -92t-74.5 -260q0 -167 75.5 -259.5t213.5 -92.5z" />
    <glyph glyph-name="pi" unicode="&#x3c0;" horiz-adv-x="1382" 
d="M499 0h-246v887h-178v219h1233v-219h-179v-887h-245v887h-385v-887z" />
    <glyph glyph-name="rho" unicode="&#x3c1;" horiz-adv-x="1326" 
d="M388 -492h-247v1045q0 260 153 422t398 162q248 0 400 -163t152 -421t-141 -421t-360 -163q-250 0 -355 206v-667zM692 201q142 0 216.5 95.5t74.5 256.5q0 164 -74.5 258t-216.5 94q-144 0 -217 -94.5t-73 -257.5q0 -164 75 -258t215 -94z" />
    <glyph glyph-name="uni03C2" unicode="&#x3c2;" horiz-adv-x="1178" 
d="M1091 -246h-215v6q0 195 -130 223q-55 12 -177 17h-11q-221 8 -348.5 145t-127.5 386q0 184 66 321t189 211q124 74 289 74q188 0 319 -95t171 -259l-246 -66q-30 90 -95.5 139t-158.5 49q-130 0 -193 -95t-63 -262q0 -75 12.5 -129t44 -98t90 -67t145.5 -24h8
q167 0 245 -27q115 -39 156 -135q40 -96 40 -194q0 -60 -10 -120z" />
    <glyph glyph-name="sigma" unicode="&#x3c3;" horiz-adv-x="1303" 
d="M632 -31q-159 0 -284.5 74.5t-195.5 206.5t-70 289q0 206 111.5 356.5t299.5 194.5q51 11 111 14q84 2 178 2h463v-219h-169q39 -55 63 -115q45 -110 45 -233q0 -158 -70 -290q-68 -129 -194 -205q-126 -75 -288 -75zM632 201q139 0 215 93t76 245q0 151 -76.5 243
t-214.5 92h-4q-136 0 -210.5 -93.5t-74.5 -241.5q0 -155 76 -246.5t213 -91.5z" />
    <glyph glyph-name="tau" unicode="&#x3c4;" horiz-adv-x="1133" 
d="M51 887v219h986v-219h-369v-525q0 -74 34.5 -108.5t108.5 -34.5h181v-219h-232q-160 0 -249.5 82t-89.5 230v575h-370z" />
    <glyph glyph-name="upsilon" unicode="&#x3c5;" horiz-adv-x="1262" 
d="M123 506v600h250v-533q0 -107 19 -181.5t73 -130.5q57 -60 166 -60q110 0 167 60q58 61 74 138q18 85 18 174v533h250v-600q0 -142 -33 -255q-33 -115 -144 -198q-112 -85 -332 -85q-219 0 -331 85q-111 83 -144 198q-33 113 -33 255z" />
    <glyph glyph-name="phi" unicode="&#x3c6;" horiz-adv-x="1610" 
d="M682 -461v443q-125 3 -233 42t-190.5 108.5t-129.5 177.5t-47 242q0 179 82 308t224 198l111 -205q-79 -43 -122.5 -120.5t-43.5 -180.5q0 -156 95.5 -249t253.5 -98v919h247q125 -3 233.5 -42t190.5 -109.5t129 -178.5t47 -242t-47 -242t-129 -177.5t-190 -108.5
t-234 -42v-443h-247zM929 901v-696q158 5 253.5 98t95.5 249t-95.5 250t-253.5 99z" />
    <glyph glyph-name="chi" unicode="&#x3c7;" horiz-adv-x="1134" 
d="M311 0h-291l405 559l-396 547h290l249 -353l245 353h291l-396 -547l406 -559h-291l-255 366z" />
    <glyph glyph-name="psi" unicode="&#x3c8;" horiz-adv-x="1502" 
d="M633 -461v407q-193 6 -322.5 91.5t-169.5 256.5q-18 69 -18 160v652h231v-612q0 -73 14 -129q47 -188 265 -191v932h236v-932q105 2 176.5 52t92.5 152q10 46 10 116v612h231v-652q0 -84 -18 -156q-43 -173 -172 -259.5t-320 -92.5v-407h-236z" />
    <glyph glyph-name="omega" unicode="&#x3c9;" horiz-adv-x="1634" 
d="M517 -31q-134 0 -233 72.5t-151 201.5q-51 125 -51 279q0 198 81 360q79 162 228 255l168 -196q-114 -87 -166 -182q-50 -91 -50 -227q0 -147 55 -238.5t152 -91.5q124 0 144 169q9 73 9 204v126h228v-117q0 -136 9 -211q8 -75 42 -123q33 -48 102 -48q97 0 152 92.5
t55 237.5q0 136 -50 227t-167 182l168 196q152 -94 231 -257q79 -162 79 -360q0 -158 -51.5 -282.5t-148.5 -195.5q-98 -73 -235 -73q-113 0 -198 56q-66 43 -102 126q-38 -84 -102 -126q-85 -56 -198 -56z" />
    <glyph glyph-name="iotadieresis" unicode="&#x3ca;" horiz-adv-x="822" 
d="M386 1277v225h225v-225h-225zM-37 1277v225h225v-225h-225zM734 219v-219h-233q-160 0 -249 82t-89 230v792h247v-742q0 -74 34.5 -108.5t108.5 -34.5h181z" />
    <glyph glyph-name="upsilondieresis" unicode="&#x3cb;" horiz-adv-x="1262" 
d="M955 1277h-225v225h225v-225zM532 1277h-225v225h225v-225zM123 506v600h250v-533q0 -107 19 -181.5t73 -130.5q57 -60 166 -60q110 0 167 60q58 61 74 138q18 85 18 174v533h250v-600q0 -142 -33 -255q-33 -115 -144 -198q-112 -85 -332 -85q-219 0 -331 85
q-111 83 -144 198q-33 113 -33 255z" />
    <glyph glyph-name="omicrontonos" unicode="&#x3cc;" horiz-adv-x="1265" 
d="M729 1265h-187l157 379h188zM632 -31q-246 0 -398 162.5t-152 421.5t152.5 421.5t397.5 162.5q248 0 400 -162t152 -422t-152.5 -422t-399.5 -162zM632 201q139 0 215 93.5t76 258.5q0 167 -75.5 259.5t-215.5 92.5t-214.5 -92t-74.5 -260q0 -167 75.5 -259.5
t213.5 -92.5z" />
    <glyph glyph-name="upsilontonos" unicode="&#x3cd;" horiz-adv-x="1262" 
d="M853 1644l-158 -379h-187l158 379h187zM123 506v600h250v-533q0 -107 19 -181.5t73 -130.5q57 -60 166 -60q110 0 167 60q58 61 74 138q18 85 18 174v533h250v-600q0 -142 -33 -255q-33 -115 -144 -198q-112 -85 -332 -85q-219 0 -331 85q-111 83 -144 198
q-33 113 -33 255z" />
    <glyph glyph-name="omegatonos" unicode="&#x3ce;" horiz-adv-x="1634" 
d="M1014 1644l-158 -379h-187l157 379h188zM517 -31q-134 0 -233 72.5t-151 201.5q-51 125 -51 279q0 198 81 360q79 162 228 255l168 -196q-114 -87 -166 -182q-50 -91 -50 -227q0 -147 55 -238.5t152 -91.5q124 0 144 169q9 73 9 204v126h228v-117q0 -136 9 -211
q8 -75 42 -123q33 -48 102 -48q97 0 152 92.5t55 237.5q0 136 -50 227t-167 182l168 196q152 -94 231 -257q79 -162 79 -360q0 -158 -51.5 -282.5t-148.5 -195.5q-98 -73 -235 -73q-113 0 -198 56q-66 43 -102 126q-38 -84 -102 -126q-85 -56 -198 -56z" />
    <glyph glyph-name="uni0400" unicode="&#x400;" horiz-adv-x="1200" 
d="M736 1633h-187l-158 379h188zM1098 0h-955v1475h955v-232h-706v-363h583v-232h-583v-417h706v-231z" />
    <glyph glyph-name="uni0401" unicode="&#x401;" horiz-adv-x="1200" 
d="M939 1646h-225v225h225v-225zM516 1646h-225v225h225v-225zM1098 0h-955v1475h955v-232h-706v-363h583v-232h-583v-417h706v-231z" />
    <glyph glyph-name="uni0402" unicode="&#x402;" horiz-adv-x="1486" 
d="M256 1255h-256v220h825v-220h-321v-369q131 103 372 103q242 0 385.5 -134.5t143.5 -361.5q0 -240 -141.5 -366.5t-419.5 -126.5h-86v231h64q169 0 251.5 64.5t82.5 197.5q0 130 -85 196.5t-249 66.5q-216 0 -318 -103v-653h-248v1255z" />
    <glyph glyph-name="uni0403" unicode="&#x403;" horiz-adv-x="1118" 
d="M857 2012l-159 -379h-187l159 379h187zM391 0h-248v1475h955v-232h-707v-1243z" />
    <glyph glyph-name="uni0404" unicode="&#x404;" horiz-adv-x="1480" 
d="M759 -31q-213 0 -369 102q-158 102 -238 274q-83 175 -83 387v5q1 229 84 403t239 270q155 95 367 95q260 0 432 -132.5t228 -374.5l-247 -34q-39 142 -143.5 224.5t-254.5 83.5h-9q-117 0 -209 -50.5t-148 -146.5q-56 -93 -73 -221h608v-231h-606q19 -164 97 -265
q55 -75 143.5 -114.5t196.5 -41.5h5q137 0 242.5 80.5t145.5 213.5l242 -61q-67 -230 -233.5 -348t-416.5 -118z" />
    <glyph glyph-name="uni0405" unicode="&#x405;" horiz-adv-x="1346" 
d="M689 -31q-246 0 -411 126.5t-199 340.5l256 39q33 -135 127 -204.5t243 -69.5q133 0 219 60.5t86 154.5q0 118 -164 167l-381 112q-329 98 -329 380q0 192 149 310t384 118q231 0 384 -112.5t203 -318.5l-265 -46q-24 118 -109.5 182.5t-216.5 64.5q-122 0 -196 -52.5
t-74 -135.5q0 -62 51 -104.5t165 -73.5l261 -72q200 -55 298 -155t98 -251q0 -205 -160 -332.5t-419 -127.5z" />
    <glyph glyph-name="uni0406" unicode="&#x406;" horiz-adv-x="574" 
d="M411 0h-249v1475h249v-1475z" />
    <glyph glyph-name="uni0407" unicode="&#x407;" horiz-adv-x="574" 
d="M611 1646h-225v225h225v-225zM188 1646h-225v225h225v-225zM412 0h-249v1475h249v-1475z" />
    <glyph glyph-name="uni0408" unicode="&#x408;" horiz-adv-x="1025" 
d="M438 -31q-166 0 -279.5 87t-158.5 239l244 58q11 -63 65.5 -107.5t119.5 -44.5q48 0 94.5 24.5t68.5 72.5q19 44 19 184v993h248v-993q0 -93 -11 -166t-39.5 -140t-75 -111t-121.5 -70t-174 -26z" />
    <glyph glyph-name="uni0409" unicode="&#x409;" horiz-adv-x="2254" 
d="M1316 1475v-516h334q257 0 390 -125t133 -354t-133 -354.5t-390 -125.5h-582v1243h-557v-510q0 -176 -16.5 -310t-45.5 -219t-71.5 -138t-90 -74.5t-106.5 -21.5q-58 0 -140 24v211q32 -8 56 -8q108 0 149 147q33 120 35 434v178v519h1035zM1316 231h333q133 0 203.5 64
t70.5 185q0 120 -70.5 184.5t-203.5 64.5h-333v-498z" />
    <glyph glyph-name="uni040A" unicode="&#x40a;" horiz-adv-x="2273" 
d="M391 0h-248v1475h248v-621h695v621h248v-516h334q257 0 390 -125t133 -354t-133 -354.5t-390 -125.5h-582v623h-695v-623zM1334 231h333q133 0 204 64t71 185q0 120 -71 184.5t-204 64.5h-333v-498z" />
    <glyph glyph-name="uni040B" unicode="&#x40b;" horiz-adv-x="1507" 
d="M258 1255h-258v220h825v-220h-319v-368q131 102 372 102q256 0 392.5 -138.5t136.5 -413.5v-437h-250v344q0 215 -73.5 313.5t-259.5 98.5q-218 0 -318 -103v-653h-248v1255z" />
    <glyph glyph-name="uni040C" unicode="&#x40c;" horiz-adv-x="1327" 
d="M767 1633h-187l158 379h188zM143 0v1475h248v-687l590 687h303l-635 -723l678 -752h-313l-623 689v-689h-248z" />
    <glyph glyph-name="uni040D" unicode="&#x40d;" horiz-adv-x="1470" 
d="M852 1633h-187l-159 379h187zM1327 0h-248v1049l-687 -1049h-249v1475h249v-1049l687 1049h248v-1475z" />
    <glyph glyph-name="uni040E" unicode="&#x40e;" horiz-adv-x="1267" 
d="M663 1599q-85 0 -156 41.5t-113 113.5q-42 71 -42 156h193q0 -50 34.5 -84t83.5 -34t83 34t34 84h193q0 -85 -41.5 -156t-112.5 -113q-72 -42 -156 -42zM1260 1475l-695 -1475h-268l223 474l-496 1001h270l352 -736l346 736h268z" />
    <glyph glyph-name="uni040F" unicode="&#x40f;" horiz-adv-x="1441" 
d="M845 -284h-247v284h-455v1475h248v-1244h660v1244h247v-1475h-453v-284z" />
    <glyph glyph-name="uni0410" unicode="&#x410;" horiz-adv-x="1374" 
d="M852 1476l487 -1475h-260l-104 320h-576l-104 -320h-260l488 1475h329zM474 551h426l-213 654z" />
    <glyph glyph-name="uni0411" unicode="&#x411;" horiz-adv-x="1309" 
d="M143 0v1475h989v-232h-741v-307h353q238 0 371 -127.5t133 -340.5q0 -211 -133 -339.5t-371 -128.5h-601zM391 231h324q141 0 212 64t71 173t-71 173t-212 64h-324v-474z" />
    <glyph glyph-name="uni0412" unicode="&#x412;" horiz-adv-x="1295" 
d="M712 0h-569v1475h553q215 0 352.5 -100.5t137.5 -287.5q0 -130 -64 -212.5t-148 -108.5q46 -9 90.5 -35t83 -68.5t62.5 -108t24 -143.5q0 -84 -26.5 -153t-74 -116.5t-113.5 -79.5t-143 -47t-165 -15zM701 1243h-310v-370h321q102 0 163 44t61 143q0 183 -235 183z
M391 231h321q59 0 104 8.5t85.5 30.5t62.5 64.5t22 104.5q0 207 -266 207h-329v-415z" />
    <glyph glyph-name="uni0413" unicode="&#x413;" horiz-adv-x="1118" 
d="M392 0h-249v1475h955v-232h-706v-1243z" />
    <glyph glyph-name="uni0414" unicode="&#x414;" horiz-adv-x="1591" 
d="M65 -284v515h123q65 72 87.5 265.5t22.5 491.5v487h1045v-1244h166v-515h-247v284h-951v-284h-246zM449 231h647v1012h-568v-376q0 -230 -22 -398t-57 -238z" />
    <glyph glyph-name="uni0415" unicode="&#x415;" horiz-adv-x="1200" 
d="M1098 0h-955v1475h955v-232h-707v-363h584v-232h-584v-417h707v-231z" />
    <glyph glyph-name="uni0416" unicode="&#x416;" horiz-adv-x="2160" 
d="M956 0v689l-622 -689h-314l678 752l-635 723h304l589 -687v687h248v-687l589 687h303l-634 -723l678 -752h-313l-623 689v-689h-248z" />
    <glyph glyph-name="uni0417" unicode="&#x417;" horiz-adv-x="1346" 
d="M1268 433q0 -152 -75.5 -258t-202.5 -156t-296 -50q-113 0 -211 27t-181 81.5t-141 146t-82 212.5l256 39q36 -135 123 -204.5t242 -69.5q136 0 222.5 58t86.5 165q0 100 -67.5 155t-174.5 55h-259v232h241q110 0 164.5 57.5t54.5 141.5q0 102 -80.5 155t-201.5 53
q-130 0 -209 -64.5t-105 -182.5l-266 46q54 219 206 325t379 106q238 0 384 -114t146 -327q0 -103 -46 -185.5t-120 -123.5q86 -27 149.5 -118.5t63.5 -201.5z" />
    <glyph glyph-name="uni0418" unicode="&#x418;" horiz-adv-x="1470" 
d="M1327 0h-248v1049l-687 -1049h-249v1475h249v-1049l687 1049h248v-1475z" />
    <glyph glyph-name="uni0419" unicode="&#x419;" horiz-adv-x="1470" 
d="M734 1599q-85 0 -155.5 41.5t-112.5 113.5q-42 71 -42 156h192q0 -50 34 -84t84 -34t84 34t34 84h192q0 -85 -41 -156t-112 -113q-72 -42 -157 -42zM1327 0h-248v1049l-687 -1049h-249v1475h249v-1049l687 1049h248v-1475z" />
    <glyph glyph-name="uni041A" unicode="&#x41a;" horiz-adv-x="1327" 
d="M143 0v1475h249v-687l589 687h303l-634 -723l677 -752h-313l-622 689v-689h-249z" />
    <glyph glyph-name="uni041B" unicode="&#x41b;" horiz-adv-x="1459" 
d="M41 -6v211q32 -8 56 -8q108 0 149 147q33 120 35 434v178v519h1035v-1475h-248v1243h-557v-510q0 -176 -16.5 -310t-45.5 -219t-71.5 -138t-90 -74.5t-106.5 -21.5q-58 0 -140 24z" />
    <glyph glyph-name="uni041C" unicode="&#x41c;" horiz-adv-x="1734" 
d="M392 0h-249v1475h248l476 -993l476 993h248v-1475h-248v979l-371 -776h-209l-371 776v-979z" />
    <glyph glyph-name="uni041D" unicode="&#x41d;" horiz-adv-x="1479" 
d="M391 0h-248v1475h248v-621h698v621h247v-1475h-247v623h-698v-623z" />
    <glyph glyph-name="uni041E" unicode="&#x41e;" horiz-adv-x="1534" 
d="M767 -31q-327 0 -516.5 210.5t-189.5 557.5t189.5 557.5t516.5 210.5q218 0 378.5 -96.5t244.5 -269.5t84 -402t-84 -402t-244.5 -269.5t-378.5 -96.5zM767 202q218 0 331.5 143t113.5 392t-113.5 392.5t-331.5 143.5q-217 0 -330 -143.5t-114 -392.5t112.5 -392
t331.5 -143z" />
    <glyph glyph-name="uni041F" unicode="&#x41f;" horiz-adv-x="1441" 
d="M391 0h-248v1475h1155v-1475h-247v1243h-660v-1243z" />
    <glyph glyph-name="uni0420" unicode="&#x420;" horiz-adv-x="1309" 
d="M392 0h-249v1475h583q257 0 389.5 -126t132.5 -355q0 -228 -132.5 -353.5t-389.5 -125.5h-334v-515zM392 1243v-498h332q133 0 204 64.5t71 184.5q0 121 -71 185t-204 64h-332z" />
    <glyph glyph-name="uni0421" unicode="&#x421;" horiz-adv-x="1512" 
d="M767 -31q-327 0 -516.5 210.5t-189.5 557.5t189.5 557.5t516.5 210.5q250 0 422.5 -125t241.5 -346l-249 -68q-44 147 -148.5 227t-266.5 80q-213 0 -329.5 -144.5t-116.5 -391.5q0 -248 114 -391.5t332 -143.5q162 0 266.5 80t148.5 227l249 -69q-69 -221 -241.5 -346
t-422.5 -125z" />
    <glyph glyph-name="uni0422" unicode="&#x422;" horiz-adv-x="1242" 
d="M728 0h-249v1243h-439v232h1125v-232h-437v-1243z" />
    <glyph glyph-name="uni0423" unicode="&#x423;" horiz-adv-x="1267" 
d="M1260 1475l-695 -1475h-268l223 474l-496 1001h270l352 -736l346 736h268z" />
    <glyph glyph-name="uni0424" unicode="&#x424;" horiz-adv-x="1614" 
d="M684 0v130q-125 4 -237 46.5t-198.5 117.5t-137 189.5t-50.5 252.5t51 253t137 191t198 118.5t237 46.5v130h248v-130q125 -4 236.5 -46.5t197.5 -118.5t136.5 -191t50.5 -253t-50.5 -252.5t-136.5 -189.5t-197.5 -117.5t-236.5 -46.5v-130h-248zM932 1121v-768
q160 6 265.5 111t105.5 272t-106 273t-265 112zM684 353v768q-160 -6 -266 -112t-106 -273t106 -272t266 -111z" />
    <glyph glyph-name="uni0425" unicode="&#x425;" horiz-adv-x="1342" 
d="M325 0h-305l500 745l-485 730h302l336 -520l333 520h304l-486 -730l498 -745h-302l-347 536z" />
    <glyph glyph-name="uni0426" unicode="&#x426;" horiz-adv-x="1543" 
d="M1523 -284h-248v284h-1132v1475h248v-1244h718v1244h248v-1244h166v-515z" />
    <glyph glyph-name="uni0427" unicode="&#x427;" horiz-adv-x="1435" 
d="M1292 0h-248v588q-132 -103 -371 -103q-256 0 -393 139t-137 413v438h250v-345q0 -214 74 -312.5t259 -98.5q219 0 318 102v654h248v-1475z" />
    <glyph glyph-name="uni0428" unicode="&#x428;" horiz-adv-x="2164" 
d="M143 0v1475h248v-1244h567v1244h248v-1244h568v1244h247v-1475h-1878z" />
    <glyph glyph-name="uni0429" unicode="&#x429;" horiz-adv-x="2207" 
d="M2187 -284h-248v284h-1796v1475h248v-1244h567v1244h248v-1244h568v1244h247v-1244h166v-515z" />
    <glyph glyph-name="uni042A" unicode="&#x42a;" horiz-adv-x="1404" 
d="M253 1243h-256v232h504v-516h334q257 0 389.5 -125t132.5 -354t-132.5 -354.5t-389.5 -125.5h-582v1243zM501 231h332q133 0 204 64t71 185q0 120 -71 184.5t-204 64.5h-332v-498z" />
    <glyph glyph-name="uni042B" unicode="&#x42b;" horiz-adv-x="1836" 
d="M391 1475v-516h334q257 0 389.5 -125t132.5 -354t-132.5 -354.5t-389.5 -125.5h-582v1475h248zM1693 0h-249v1475h249v-1475zM391 231h332q133 0 204 64t71 185q0 120 -71 184.5t-204 64.5h-332v-498z" />
    <glyph glyph-name="uni042C" unicode="&#x42c;" horiz-adv-x="1328" 
d="M390 1475v-516h334q257 0 389.5 -125t132.5 -354t-132.5 -354.5t-389.5 -125.5h-582v1475h248zM390 231h332q133 0 204 64t71 185q0 120 -71 184.5t-204 64.5h-332v-498z" />
    <glyph glyph-name="uni042D" unicode="&#x42d;" horiz-adv-x="1473" 
d="M722 -31q-250 0 -416.5 118.5t-233.5 347.5l241 61q40 -133 145.5 -213.5t242.5 -80.5h6q108 2 196.5 41.5t143.5 114.5q80 103 97 265h-605v231h607q-17 128 -73 223t-147 145q-90 50 -210 50h-9q-150 -1 -255 -83.5t-144 -224.5l-247 34q55 242 228 374.5t433 132.5
q210 0 365.5 -95t240.5 -270q83 -174 84 -403v-5q0 -211 -82 -387q-82 -173 -239 -274q-156 -102 -369 -102z" />
    <glyph glyph-name="uni042E" unicode="&#x42e;" horiz-adv-x="2109" 
d="M391 0h-248v1475h248v-615h253q33 296 217.5 470.5t480.5 174.5q218 0 378.5 -96.5t244.5 -269.5t84 -402t-84 -402t-244.5 -269.5t-378.5 -96.5q-296 0 -480.5 174.5t-217.5 470.5h-253v-614zM1342 202q218 0 332 143.5t114 391.5q0 249 -114 392.5t-332 143.5
q-217 0 -330 -143.5t-114 -392.5t112.5 -392t331.5 -143z" />
    <glyph glyph-name="uni042F" unicode="&#x42f;" horiz-adv-x="1353" 
d="M700 515l-332 -515h-286l348 539q-161 42 -243 159t-82 296q0 229 133 355t390 126h582v-1475h-248v515h-262zM962 745v498h-332q-134 0 -205 -64t-71 -185q0 -120 71.5 -184.5t204.5 -64.5h332z" />
    <glyph glyph-name="uni0430" unicode="&#x430;" horiz-adv-x="1179" 
d="M589 1137q237 0 352.5 -119.5t115.5 -364.5v-653h-246v148q-110 -179 -357 -179q-168 0 -270 91t-102 241q0 315 437 370l291 36q-6 213 -221 213q-99 0 -158 -37.5t-85 -116.5l-224 60q43 151 164 231t303 80zM811 526l-257 -31q-118 -14 -174 -56.5t-56 -116.5
q0 -147 189 -147q98 0 171.5 48.5t102.5 125.5q24 55 24 167v10z" />
    <glyph glyph-name="uni0431" unicode="&#x431;" horiz-adv-x="1220" 
d="M602 -33q-231 3 -363.5 151t-152.5 408q-12 157 7 336q19 169 67 285.5t155 188.5q92 61 210.5 88t285 43.5t259.5 36.5l17 -227q-116 -24 -250.5 -37.5t-217.5 -28t-149 -50.5q-74 -41 -106 -107.5t-43 -195.5q115 172 347 172q209 0 340 -145t131 -377
q0 -244 -149.5 -393.5t-387.5 -147.5zM612 199q127 0 197.5 81.5t70.5 217.5q0 137 -70.5 218.5t-194.5 81.5q-128 0 -197.5 -80.5t-69.5 -219.5t69.5 -219t194.5 -80z" />
    <glyph glyph-name="uni0432" unicode="&#x432;" horiz-adv-x="1107" 
d="M650 0h-509v1106h475q192 0 294 -76.5t102 -221.5q0 -89 -39 -148.5t-108 -86.5q83 -23 132.5 -94t49.5 -172q0 -150 -102 -228.5t-295 -78.5zM618 912h-247v-253h258q150 0 150 125q0 68 -41 98t-120 30zM371 194h278q79 0 122.5 34.5t43.5 102.5q0 69 -42.5 103.5
t-113.5 34.5h-288v-275z" />
    <glyph glyph-name="uni0433" unicode="&#x433;" horiz-adv-x="926" 
d="M391 0h-248v1106h733v-229h-485v-877z" />
    <glyph glyph-name="uni0434" unicode="&#x434;" horiz-adv-x="1316" 
d="M61 -243v472h108q35 38 53 133.5t20.5 169.5t2.5 197v377h867v-877h143v-472h-246v243h-701v-243h-247zM424 229h441v648h-393v-268q0 -247 -48 -380z" />
    <glyph glyph-name="uni0435" unicode="&#x435;" horiz-adv-x="1232" 
d="M634 197q183 0 257 157l244 -69q-64 -151 -195 -233.5t-306 -82.5q-247 0 -399.5 162t-152.5 422q0 261 153 422.5t397 161.5q262 0 399.5 -176.5t115.5 -476.5h-800q17 -137 91.5 -212t195.5 -75zM353 671h543q-9 117 -78.5 182t-185.5 65q-112 0 -184 -64.5t-95 -182.5
z" />
    <glyph glyph-name="uni0436" unicode="&#x436;" horiz-adv-x="1786" 
d="M770 0v534l-423 -534h-327l466 553l-429 553h309l404 -533v533h247v-533l404 533h309l-430 -553l466 -553h-326l-423 532v-532h-247z" />
    <glyph glyph-name="uni0437" unicode="&#x437;" horiz-adv-x="1070" 
d="M532 -31q-207 0 -333 93t-155 270l231 41q14 -96 80.5 -143t170.5 -47t163.5 40.5t59.5 109.5q0 71 -50 105t-137 34h-164v195h164q78 0 118 30t40 85q0 68 -54 104.5t-142 36.5q-193 0 -230 -156l-232 42q27 117 98 192.5t162 105.5t206 30q203 0 316 -90t113 -252
q0 -158 -129 -222q73 -25 116.5 -90.5t43.5 -155.5q0 -159 -122.5 -258.5t-333.5 -99.5z" />
    <glyph glyph-name="uni0438" unicode="&#x438;" horiz-adv-x="1245" 
d="M855 1106h247v-1106h-247v727l-467 -727h-247v1106h247v-727z" />
    <glyph glyph-name="uni0439" unicode="&#x439;" horiz-adv-x="1245" 
d="M654 1231q-85 0 -155.5 41t-112.5 113q-42 71 -42 156h193q0 -50 34 -84t83 -34q50 0 84 34.5t34 83.5h193q0 -85 -41.5 -155.5t-112.5 -112.5q-72 -42 -157 -42zM855 1106h247v-1106h-247v727l-467 -727h-247v1106h247v-727z" />
    <glyph glyph-name="uni043A" unicode="&#x43a;" horiz-adv-x="1096" 
d="M141 0v1106h247v-533l405 533h308l-429 -553l466 -553h-327l-423 532v-532h-247z" />
    <glyph glyph-name="uni043B" unicode="&#x43b;" horiz-adv-x="1227" 
d="M41 -11v210q27 -8 47 -8q78 0 108.5 98.5t30.5 308.5v508h857v-1106h-246v877h-383v-365q0 -543 -293 -543q-53 0 -121 20z" />
    <glyph glyph-name="uni043C" unicode="&#x43c;" horiz-adv-x="1441" 
d="M388 0h-247v1106h247l332 -641l333 641h245v-1106h-245v640l-236 -456h-193l-236 456v-640z" />
    <glyph glyph-name="uni043D" unicode="&#x43d;" horiz-adv-x="1274" 
d="M388 0h-247v1106h247v-438h497v438h247v-1106h-247v438h-497v-438z" />
    <glyph glyph-name="uni043E" unicode="&#x43e;" horiz-adv-x="1265" 
d="M632 -31q-246 0 -398 162.5t-152 421.5t152.5 421.5t397.5 162.5q248 0 400 -162t152 -422t-152.5 -422t-399.5 -162zM632 201q139 0 215 93.5t76 258.5q0 167 -75.5 259.5t-215.5 92.5t-214.5 -92t-74.5 -260q0 -167 75.5 -259.5t213.5 -92.5z" />
    <glyph glyph-name="uni043F" unicode="&#x43f;" horiz-adv-x="1234" 
d="M388 0h-247v1106h951v-1106h-247v877h-457v-877z" />
    <glyph glyph-name="uni0440" unicode="&#x440;" 
d="M390 -492h-247v1598h247v-149q107 180 340 180q219 0 360 -164t141 -420q0 -258 -141 -421t-360 -163q-233 0 -340 179v-640zM679 201q143 0 217 95.5t74 256.5q0 164 -74.5 258t-216.5 94q-144 0 -216.5 -94.5t-72.5 -257.5q0 -164 74.5 -258t214.5 -94z" />
    <glyph glyph-name="uni0441" unicode="&#x441;" horiz-adv-x="1178" 
d="M624 -31q-166 0 -290 76t-188 207.5t-64 300.5q0 170 66 302t190.5 207t288.5 75q188 0 319 -95t170 -259l-246 -66q-28 89 -94 138.5t-152 49.5q-138 0 -209.5 -95.5t-71.5 -256.5q0 -162 72.5 -257t208.5 -95q96 0 153.5 43.5t86.5 131.5l252 -57
q-52 -169 -179.5 -259.5t-312.5 -90.5z" />
    <glyph glyph-name="uni0442" unicode="&#x442;" horiz-adv-x="1072" 
d="M659 0h-246v877h-362v229h970v-229h-362v-877z" />
    <glyph glyph-name="uni0443" unicode="&#x443;" horiz-adv-x="1145" 
d="M520 -492h-231l182 499l-447 1099h257l308 -792l301 792h247z" />
    <glyph glyph-name="uni0444" unicode="&#x444;" horiz-adv-x="1610" 
d="M682 -461v443q-125 3 -233 42t-190.5 108.5t-129.5 177.5t-47 242t47 242t129.5 178.5t190.5 109.5t233 42v330h247v-330q125 -3 233.5 -42t190.5 -109.5t129 -178.5t47 -242t-47 -242t-129 -177.5t-190 -108.5t-234 -42v-443h-247zM929 901v-696q158 5 253.5 98
t95.5 249t-95.5 250t-253.5 99zM682 205v696q-157 -5 -253 -99t-96 -250t95.5 -249t253.5 -98z" />
    <glyph glyph-name="uni0445" unicode="&#x445;" horiz-adv-x="1134" 
d="M311 0h-291l405 559l-396 547h290l249 -353l245 353h291l-396 -547l406 -559h-291l-255 366z" />
    <glyph glyph-name="uni0446" unicode="&#x446;" horiz-adv-x="1265" 
d="M1245 -243h-247v243h-857v1106h247v-877h467v877h247v-877h143v-472z" />
    <glyph glyph-name="uni0447" unicode="&#x447;" horiz-adv-x="1135" 
d="M992 0h-246v406q-105 -65 -273 -65q-198 0 -294.5 104t-96.5 316v345h247v-309q0 -124 44 -181.5t156 -57.5q119 0 217 69v479h246v-1106z" />
    <glyph glyph-name="uni0448" unicode="&#x448;" horiz-adv-x="1805" 
d="M141 0v1106h247v-877h390v877h247v-877h390v877h247v-1106h-1521z" />
    <glyph glyph-name="uni0449" unicode="&#x449;" horiz-adv-x="1827" 
d="M1807 -243h-246v243h-1418v1106h247v-877h390v877h247v-877h390v877h247v-877h143v-472z" />
    <glyph glyph-name="uni044A" unicode="&#x44a;" horiz-adv-x="1295" 
d="M297 0v874h-256v232h503v-379h259q202 0 306 -102t104 -261q0 -77 -25 -141.5t-74 -115t-128.5 -79t-182.5 -28.5h-506zM544 200h222q101 0 151 45.5t50 118.5t-50 118.5t-151 45.5h-222v-328z" />
    <glyph glyph-name="uni044B" unicode="&#x44b;" horiz-adv-x="1564" 
d="M1421 0h-246v1106h246v-1106zM649 0h-506v1106h247v-379h259q202 0 306.5 -102t104.5 -261t-104.5 -261.5t-306.5 -102.5zM390 200h222q101 0 151 45.5t50 118.5t-50 118.5t-151 45.5h-222v-328z" />
    <glyph glyph-name="uni044C" unicode="&#x44c;" horiz-adv-x="1141" 
d="M649 0h-506v1106h247v-379h259q202 0 306.5 -102t104.5 -261t-104.5 -261.5t-306.5 -102.5zM390 200h222q101 0 151 45.5t50 118.5t-50 118.5t-151 45.5h-222v-328z" />
    <glyph glyph-name="uni044D" unicode="&#x44d;" horiz-adv-x="1180" 
d="M557 -31q-185 0 -312.5 90.5t-179.5 259.5l251 57q30 -89 88.5 -132t152.5 -43q113 0 182.5 67t88.5 189h-393v193h393q-18 119 -86.5 187t-177.5 68q-92 0 -158 -48.5t-96 -139.5l-245 66q40 164 171 259t319 95q163 0 286 -74t191 -208q67 -136 67 -304
q0 -169 -65 -300t-187 -206q-122 -76 -290 -76z" />
    <glyph glyph-name="uni044E" unicode="&#x44e;" horiz-adv-x="1776" 
d="M1143 -31q-216 0 -361 126t-180 335h-214v-430h-247v1106h247v-430h214q35 210 181 335.5t360 125.5q248 0 400 -163t152 -421q0 -260 -152.5 -422t-399.5 -162zM1143 201q142 0 216.5 95.5t74.5 256.5q0 164 -74.5 258t-216.5 94q-144 0 -217 -94.5t-73 -257.5
q0 -164 75 -258t215 -94z" />
    <glyph glyph-name="uni044F" unicode="&#x44f;" horiz-adv-x="1157" 
d="M343 0h-258l212 419q-99 44 -149.5 129t-50.5 194q0 159 104.5 261.5t306.5 102.5h506v-1106h-246v379h-232zM768 906h-222q-101 0 -151 -45t-50 -119q0 -73 49.5 -118t151.5 -45h222v327z" />
    <glyph glyph-name="uni0450" unicode="&#x450;" horiz-adv-x="1232" 
d="M541 1265l-158 379h187l158 -379h-187zM634 197q183 0 257 157l244 -69q-64 -151 -195 -233.5t-306 -82.5q-247 0 -399.5 162t-152.5 422q0 261 153 422.5t397 161.5q262 0 399.5 -176.5t115.5 -476.5h-800q17 -137 91.5 -212t195.5 -75zM353 671h543q-9 117 -78.5 182
t-185.5 65q-112 0 -184 -64.5t-95 -182.5z" />
    <glyph glyph-name="uni0451" unicode="&#x451;" horiz-adv-x="1232" 
d="M731 1277v225h225v-225h-225zM308 1277v225h226v-225h-226zM634 197q183 0 257 157l244 -69q-64 -151 -195 -233.5t-306 -82.5q-247 0 -399.5 162t-152.5 422q0 261 153 422.5t397 161.5q262 0 399.5 -176.5t115.5 -476.5h-800q17 -137 91.5 -212t195.5 -75zM353 671h543
q-9 117 -78.5 182t-185.5 65q-112 0 -184 -64.5t-95 -182.5z" />
    <glyph glyph-name="uni0452" unicode="&#x452;" horiz-adv-x="1278" 
d="M145 1195h-111v191h111v89h246v-89h188v-191h-188v-233q96 175 326 175q205 0 322 -119.5t117 -357.5v-839q0 -151 -77.5 -232t-234.5 -81h-152v230h75q74 0 108.5 34.5t34.5 108.5v728q0 142 -67 219t-192 77t-192.5 -77t-67.5 -219v-609h-246v1195z" />
    <glyph glyph-name="uni0453" unicode="&#x453;" horiz-adv-x="926" 
d="M735 1644l-157 -379h-188l158 379h187zM391 0h-248v1106h733v-229h-485v-877z" />
    <glyph glyph-name="uni0454" unicode="&#x454;" horiz-adv-x="1180" 
d="M624 -31q-164 0 -288 74.5t-189 208.5q-65 129 -65 299q0 171 66.5 304t190.5 207q123 75 287 75q188 0 319 -95t171 -259l-246 -66q-30 91 -96 139.5t-158 48.5q-108 0 -177 -68.5t-87 -186.5h393v-193h-393q19 -122 89 -189t183 -67q94 0 152 43t88 132l252 -57
q-52 -169 -179.5 -259.5t-312.5 -90.5z" />
    <glyph glyph-name="uni0455" unicode="&#x455;" horiz-adv-x="1108" 
d="M573 -31q-205 0 -332.5 91.5t-158.5 260.5l253 39q42 -177 244 -177q90 0 142.5 35t52.5 97q0 39 -19.5 62t-74.5 43q-52 18 -184 54q-201 53 -289.5 124.5t-88.5 200.5q0 153 120 245.5t317 92.5q191 0 316.5 -88.5t147.5 -238.5l-252 -45q-10 74 -69 116.5t-151 42.5
q-80 0 -131.5 -32t-51.5 -82q0 -41 34 -64t109 -47q92 -28 201 -58q173 -47 246 -119.5t73 -194.5q0 -167 -121.5 -262.5t-332.5 -95.5z" />
    <glyph glyph-name="uni0456" unicode="&#x456;" horiz-adv-x="574" 
d="M411 1274h-247v226h247v-226zM411 0h-247v1106h247v-1106z" />
    <glyph glyph-name="uni0457" unicode="&#x457;" horiz-adv-x="574" 
d="M611 1277h-225v225h225v-225zM188 1277h-225v225h225v-225zM411 0h-247v1106h247v-1106z" />
    <glyph glyph-name="uni0458" unicode="&#x458;" horiz-adv-x="590" 
d="M434 1274h-246v226h246v-226zM122 -492h-152v230h75q74 0 108.5 34.5t34.5 108.5v1225h246v-1285q0 -151 -77.5 -232t-234.5 -81z" />
    <glyph glyph-name="uni0459" unicode="&#x459;" horiz-adv-x="1837" 
d="M41 -11v210q27 -8 47 -8q78 0 108.5 99.5t30.5 310.5v505h858v-379h260q202 0 306 -102t104 -261q0 -77 -25 -141.5t-74 -115t-128.5 -79t-182.5 -28.5h-507v877h-383v-369q0 -270 -75.5 -404.5t-219.5 -134.5q-47 0 -119 20zM1085 200h223q101 0 150.5 45t49.5 119
t-49.5 119t-150.5 45h-223v-328z" />
    <glyph glyph-name="uni045A" unicode="&#x45a;" horiz-adv-x="1884" 
d="M388 0h-247v1106h247v-438h497v438h247v-379h259q202 0 306.5 -102t104.5 -261t-104.5 -261.5t-306.5 -102.5h-506v438h-497v-438zM1132 200h222q101 0 150.5 45t49.5 119t-49.5 119t-150.5 45h-222v-328z" />
    <glyph glyph-name="uni045B" unicode="&#x45b;" horiz-adv-x="1283" 
d="M144 1195h-110v191h110v89h247v-89h189v-191h-189v-233q95 175 325 175q205 0 322.5 -119.5t117.5 -357.5v-660h-247v609q0 142 -66.5 219t-191.5 77t-192.5 -77t-67.5 -219v-609h-247v1195z" />
    <glyph glyph-name="uni045C" unicode="&#x45c;" horiz-adv-x="1096" 
d="M616 1265h-187l158 379h187zM141 0v1106h247v-533l405 533h308l-429 -553l466 -553h-327l-423 534v-534h-247z" />
    <glyph glyph-name="uni045D" unicode="&#x45d;" horiz-adv-x="1245" 
d="M805 1265h-188l-157 379h187zM855 1106h247v-1106h-247v727l-467 -727h-247v1106h247v-727z" />
    <glyph glyph-name="uni045E" unicode="&#x45e;" horiz-adv-x="1145" 
d="M596 1231q-85 0 -155.5 41t-112.5 113q-42 71 -42 156h192q0 -49 34 -83.5t84 -34.5t84 34.5t34 83.5h192q0 -85 -41 -155.5t-112 -112.5q-72 -42 -157 -42zM520 -492h-231l182 499l-447 1099h257l308 -792l301 792h247z" />
    <glyph glyph-name="uni045F" unicode="&#x45f;" horiz-adv-x="1234" 
d="M740 -243h-246v243h-353v1106h247v-875h457v875h247v-1106h-352v-243z" />
    <glyph glyph-name="uni0490" unicode="&#x490;" horiz-adv-x="1138" 
d="M391 0h-248v1475h726v283h249v-515h-727v-1243z" />
    <glyph glyph-name="uni0491" unicode="&#x491;" horiz-adv-x="924" 
d="M390 0h-247v1106h485v243h245v-475h-483v-874z" />
    <glyph glyph-name="uni04AE" unicode="&#x4ae;" horiz-adv-x="1252" 
d="M751 0h-248v604l-503 871h288l339 -588l338 588h287l-501 -871v-604z" />
    <glyph glyph-name="uni04AF" unicode="&#x4af;" horiz-adv-x="1132" 
d="M690 -369h-248v369l-401 1106h248l277 -802l279 802h247l-402 -1106v-369z" />
    <glyph glyph-name="uni04BA" unicode="&#x4ba;" horiz-adv-x="1384" 
d="M41 1475h248v-588q131 102 371 102q256 0 393 -139t137 -413v-437h-250v344q0 215 -73.5 313.5t-259.5 98.5q-218 0 -318 -103v-653h-248v1475z" />
    <glyph glyph-name="uni04BB" unicode="&#x4bb;" horiz-adv-x="1185" 
d="M480 0h-246v1106h246v-406q105 65 274 65q198 0 294.5 -104t96.5 -316v-345h-247v309q0 123 -44.5 181t-156.5 58q-119 0 -217 -69v-479z" />
    <glyph glyph-name="uni04E8" unicode="&#x4e8;" horiz-adv-x="1575" 
d="M767 -31q-216 0 -376 95.5t-245 270.5q-85 176 -85 402q0 229 85 403t244 270q160 95 377 95t377.5 -95t245.5 -270q84 -174 84 -403t-85 -402.5t-244 -268.5q-158 -97 -378 -97zM330 853h875q-12 89 -43 167q-104 249 -395 253h-4q-140 0 -239.5 -64.5t-150.5 -186.5
q-32 -73 -43 -169zM767 202h4q141 0 240.5 65t150.5 186q32 75 43 169h-875q11 -94 43 -167q103 -248 394 -253z" />
    <glyph glyph-name="uni04E9" unicode="&#x4e9;" horiz-adv-x="1265" 
d="M632 -31q-162 0 -287.5 74t-193.5 208q-69 132 -69 302q0 171 69 304t195 207q126 73 286 73q163 0 288.5 -74t194.5 -207t69 -303t-68.5 -302.5t-194.5 -206.5q-125 -75 -289 -75zM350 650h565q-17 99 -67 161q-76 94 -216 94q-95 0 -160 -43t-97 -123q-18 -47 -25 -89z
M632 201q189 0 259 168q17 43 24 88h-565q6 -40 26 -91q70 -165 256 -165z" />
    <glyph glyph-name="Wgrave" unicode="&#x1e80;" horiz-adv-x="1997" 
d="M1080 1633h-187l-158 379h188zM707 0h-262l-421 1475h260l293 -1082l292 1082h259l294 -1082l292 1082h260l-422 -1475h-261l-292 1066z" />
    <glyph glyph-name="wgrave" unicode="&#x1e81;" horiz-adv-x="1648" 
d="M903 1265h-187l-158 379h187zM1021 0l-197 717l-195 -717h-248l-340 1106h247l217 -763l216 763h208l216 -763l216 763h247l-339 -1106h-248z" />
    <glyph glyph-name="Wacute" unicode="&#x1e82;" horiz-adv-x="1997" 
d="M1264 2012l-159 -379h-187l158 379h188zM707 0h-262l-421 1475h260l293 -1082l292 1082h259l294 -1082l292 1082h260l-422 -1475h-261l-292 1066z" />
    <glyph glyph-name="wacute" unicode="&#x1e83;" horiz-adv-x="1648" 
d="M1085 1644l-157 -379h-188l158 379h187zM1021 0l-197 717l-195 -717h-248l-340 1106h247l217 -763l216 763h208l216 -763l216 763h247l-339 -1106h-248z" />
    <glyph glyph-name="Wdieresis" unicode="&#x1e84;" horiz-adv-x="1997" 
d="M1324 1646h-225v225h225v-225zM901 1646h-225v225h225v-225zM707 0h-262l-421 1475h260l293 -1082l292 1082h259l294 -1082l292 1082h260l-422 -1475h-261l-292 1066z" />
    <glyph glyph-name="wdieresis" unicode="&#x1e85;" horiz-adv-x="1648" 
d="M1146 1277h-225v225h225v-225zM723 1277h-225v225h225v-225zM1021 0l-197 717l-195 -717h-248l-340 1106h247l217 -763l216 763h208l216 -763l216 763h247l-339 -1106h-248z" />
    <glyph glyph-name="Germandbls" unicode="&#x1e9e;" horiz-adv-x="1536" 
d="M944 -31q-129 0 -214 31v242q87 -31 181 -31q120 0 190.5 58.5t70.5 171.5q0 124 -94 186t-241 64l-43 157l232 377q-98 49 -224 49q-147 0 -247.5 -67t-137.5 -192q-26 -95 -26 -240v-775h-250v836q0 182 39 291q66 192 228 285t370 93q225 0 398 -83q80 -40 151 -86
q3 -3 6 -4l-274 -473q157 -32 255.5 -143t98.5 -283q0 -214 -124 -339t-345 -125z" />
    <glyph glyph-name="uni1EA0" unicode="&#x1ea0;" horiz-adv-x="1374" 
d="M852 1475l487 -1475h-260l-104 319h-576l-104 -319h-260l488 1475h329zM474 550h426l-213 654zM560 -397v226h253v-226h-253z" />
    <glyph glyph-name="uni1EA1" unicode="&#x1ea1;" horiz-adv-x="1179" 
d="M589 1137q237 0 352.5 -119.5t115.5 -364.5v-653h-246v148q-110 -179 -357 -179q-168 0 -270 91t-102 241q0 315 437 370l291 36q-6 213 -221 213q-99 0 -158 -37.5t-85 -116.5l-224 60q43 151 164 231t303 80zM811 526l-257 -31q-118 -14 -174 -56.5t-56 -116.5
q0 -147 189 -147q98 0 171.5 48.5t102.5 125.5q24 55 24 167v10zM473 -397v226h253v-226h-253z" />
    <glyph glyph-name="uni1EA2" unicode="&#x1ea2;" horiz-adv-x="1374" 
d="M474 2041q60 51 111 60t73 9q50 0 110 -26q56 -26 90 -107q21 -55 21 -97q0 -28 -17 -81q-16 -50 -78 -95q-61 -45 -131 -54l-44 101q39 12 69 34.5t37 44.5q7 20 7 35q0 19 -11 43q-22 47 -70 47q-12 0 -29 -1q-25 -1 -74 -35zM852 1475l487 -1475h-260l-104 319h-576
l-104 -319h-260l488 1475h329zM474 550h426l-213 654z" />
    <glyph glyph-name="uni1EA3" unicode="&#x1ea3;" horiz-adv-x="1179" 
d="M413 1678q61 53 110 62q51 9 73 9q50 0 111 -28q56 -27 90 -106q20 -52 20 -96q0 -33 -16 -82q-16 -51 -77 -96q-62 -46 -132 -53l-44 102q39 12 68.5 34t36.5 44q7 20 7 34q0 19 -11 43q-23 48 -68 48q-12 0 -29 -1q-27 -2 -75 -36zM589 1137q237 0 352.5 -119.5
t115.5 -364.5v-653h-246v148q-110 -179 -357 -179q-168 0 -270 91t-102 241q0 315 437 370l291 36q-6 213 -221 213q-99 0 -158 -37.5t-85 -116.5l-224 60q43 151 164 231t303 80zM811 526l-257 -31q-118 -14 -174 -56.5t-56 -116.5q0 -147 189 -147q98 0 171.5 48.5
t102.5 125.5q24 55 24 167v10z" />
    <glyph glyph-name="uni1EA4" unicode="&#x1ea4;" horiz-adv-x="1373" 
d="M1208 1848h-187l158 379h187zM300 1633l280 323h206l281 -323h-230l-154 183l-153 -183h-230zM852 1475l487 -1475h-260l-104 319h-576l-104 -319h-260l488 1475h329zM474 550h426l-213 654z" />
    <glyph glyph-name="uni1EA5" unicode="&#x1ea5;" horiz-adv-x="1179" 
d="M1138 1480h-188l158 379h187zM229 1265l280 322h207l280 -322h-230l-154 182l-152 -182h-231zM589 1137q237 0 352.5 -119.5t115.5 -364.5v-653h-246v148q-110 -179 -357 -179q-168 0 -270 91t-102 241q0 315 437 370l291 36q-6 213 -221 213q-99 0 -158 -37.5
t-85 -116.5l-224 60q43 151 164 231t303 80zM811 526l-257 -31q-118 -14 -174 -56.5t-56 -116.5q0 -147 189 -147q98 0 171.5 48.5t102.5 125.5q24 55 24 167v10z" />
    <glyph glyph-name="uni1EA6" unicode="&#x1ea6;" horiz-adv-x="1374" 
d="M1034 1848l-157 379h187l158 -379h-188zM300 1633l280 323h206l281 -323h-230l-154 183l-153 -183h-230zM852 1475l487 -1475h-260l-104 319h-576l-104 -319h-260l488 1475h329zM474 550h426l-213 654z" />
    <glyph glyph-name="uni1EA7" unicode="&#x1ea7;" horiz-adv-x="1179" 
d="M958 1480l-158 379h187l159 -379h-188zM224 1265l280 322h207l279 -322h-230l-153 182l-152 -182h-231zM589 1137q237 0 352.5 -119.5t115.5 -364.5v-653h-246v148q-110 -179 -357 -179q-168 0 -270 91t-102 241q0 315 437 370l291 36q-6 213 -221 213q-99 0 -158 -37.5
t-85 -116.5l-224 60q43 151 164 231t303 80zM811 526l-257 -31q-118 -14 -174 -56.5t-56 -116.5q0 -147 189 -147q98 0 171.5 48.5t102.5 125.5q24 55 24 167v10z" />
    <glyph glyph-name="uni1EA8" unicode="&#x1ea8;" horiz-adv-x="1373" 
d="M967 2041q59 51 109 60q51 9 74 9q50 0 110 -26q55 -26 91 -107q19 -50 19 -95q0 -34 -16 -83t-77 -95q-61 -45 -131 -54l-45 101q39 12 68.5 34.5t36.5 44.5q7 20 7 35q0 19 -11 43q-22 47 -68 47q-12 0 -29 -1q-26 -2 -75 -35zM301 1633l280 323h206l281 -323h-230
l-154 183l-153 -183h-230zM852 1475l487 -1475h-260l-104 319h-576l-104 -319h-260l488 1475h329zM474 550h426l-213 654z" />
    <glyph glyph-name="uni1EA9" unicode="&#x1ea9;" horiz-adv-x="1179" 
d="M880 1672q62 52 110 61q51 9 74 9q48 0 110 -27q56 -27 90 -106q20 -52 20 -97q0 -32 -16 -81q-16 -50 -78 -96q-61 -45 -131 -54l-45 101q40 12 69 34.5t36 45.5q7 20 7 34q0 22 -10 43q-22 47 -69 47q-12 0 -29 -1q-26 -2 -75 -35zM214 1265l281 322h206l280 -322h-230
l-153 182l-154 -182h-230zM589 1137q237 0 352.5 -119.5t115.5 -364.5v-653h-246v148q-110 -179 -357 -179q-168 0 -270 91t-102 241q0 315 437 370l291 36q-6 213 -221 213q-99 0 -158 -37.5t-85 -116.5l-224 60q43 151 164 231t303 80zM811 526l-257 -31
q-118 -14 -174 -56.5t-56 -116.5q0 -147 189 -147q98 0 171.5 48.5t102.5 125.5q24 55 24 167v10z" />
    <glyph glyph-name="uni1EAA" unicode="&#x1eaa;" horiz-adv-x="1374" 
d="M864 2007q-43 0 -85 19t-111 65q-82 58 -123 58q-22 0 -34.5 -16.5t-14 -28.5t-1.5 -23q0 -25 7 -46h-156q-12 51 -12 94q0 29 9 77q9 47 56 85q45 38 124 38q43 0 86.5 -19.5t111.5 -64.5q47 -33 73 -46t49 -13q32 0 41 26q9 24 9 45t-6 45h155q12 -57 12 -93
q0 -26 -8 -77q-9 -47 -57 -86t-125 -39zM300 1633l280 323h206l280 -323h-230l-153 183l-153 -183h-230zM852 1475l487 -1475h-260l-104 319h-576l-104 -319h-260l488 1475h329zM474 550h426l-213 654z" />
    <glyph glyph-name="uni1EAB" unicode="&#x1eab;" horiz-adv-x="1179" 
d="M772 1638q-43 0 -85.5 19.5t-111.5 64.5q-83 59 -122 59q-17 0 -28.5 -9t-15.5 -22.5t-5.5 -22t-1.5 -15.5q0 -22 8 -46h-156q-11 53 -11 94q0 29 9 77q7 46 55 85q45 38 124 38q43 0 86.5 -19.5t111.5 -64.5q84 -58 122 -58q31 0 42 24q9 24 9 45q0 24 -7 46h155
q12 -57 12 -93q0 -19 -9 -77q-9 -47 -55 -86q-48 -39 -126 -39zM208 1265l279 322h207l280 -322h-231l-152 182l-153 -182h-230zM589 1137q237 0 352.5 -119.5t115.5 -364.5v-653h-246v148q-110 -179 -357 -179q-168 0 -270 91t-102 241q0 315 437 370l291 36
q-6 213 -221 213q-99 0 -158 -37.5t-85 -116.5l-224 60q43 151 164 231t303 80zM811 526l-257 -31q-118 -14 -174 -56.5t-56 -116.5q0 -147 189 -147q98 0 171.5 48.5t102.5 125.5q24 55 24 167v10z" />
    <glyph glyph-name="uni1EAC" unicode="&#x1eac;" horiz-adv-x="1374" 
d="M301 1633l280 323h206l281 -323h-230l-154 183l-153 -183h-230zM852 1475l487 -1475h-260l-104 319h-576l-104 -319h-260l488 1475h329zM474 550h426l-213 654zM560 -397v226h253v-226h-253z" />
    <glyph glyph-name="uni1EAD" unicode="&#x1ead;" horiz-adv-x="1179" 
d="M220 1265l281 322h207l279 -322h-230l-153 182l-153 -182h-231zM589 1137q237 0 352.5 -119.5t115.5 -364.5v-653h-246v148q-110 -179 -357 -179q-168 0 -270 91t-102 241q0 315 437 370l291 36q-6 213 -221 213q-99 0 -158 -37.5t-85 -116.5l-224 60q43 151 164 231
t303 80zM811 526l-257 -31q-118 -14 -174 -56.5t-56 -116.5q0 -147 189 -147q98 0 171.5 48.5t102.5 125.5q24 55 24 167v10zM473 -397v226h253v-226h-253z" />
    <glyph glyph-name="uni1EAE" unicode="&#x1eae;" horiz-adv-x="1374" 
d="M784 2002h-187l159 379h187zM687 1599q-85 0 -155.5 41.5t-112.5 113.5q-42 71 -42 156h192q0 -50 34.5 -84t83.5 -34t83.5 34t34.5 84h192q0 -85 -41 -156t-112 -113q-72 -42 -157 -42zM852 1475l487 -1475h-260l-104 319h-576l-104 -319h-260l488 1475h329zM474 550
h426l-213 654z" />
    <glyph glyph-name="uni1EAF" unicode="&#x1eaf;" horiz-adv-x="1179" 
d="M696 1633h-187l158 379h187zM598 1231q-85 0 -155.5 41t-112.5 113q-42 71 -42 156h192q0 -49 34 -83.5t84 -34.5t84 34.5t34 83.5h192q0 -85 -41 -155.5t-112 -112.5q-72 -42 -157 -42zM589 1137q237 0 352.5 -119.5t115.5 -364.5v-653h-246v148q-110 -179 -357 -179
q-168 0 -270 91t-102 241q0 315 437 370l291 36q-6 213 -221 213q-99 0 -158 -37.5t-85 -116.5l-224 60q43 151 164 231t303 80zM811 526l-257 -31q-118 -14 -174 -56.5t-56 -116.5q0 -147 189 -147q98 0 171.5 48.5t102.5 125.5q24 55 24 167v10z" />
    <glyph glyph-name="uni1EB0" unicode="&#x1eb0;" horiz-adv-x="1374" 
d="M589 2002l-158 379h187l158 -379h-187zM687 1599q-85 0 -155.5 41.5t-112.5 113.5q-42 71 -42 156h192q0 -50 34.5 -84t83.5 -34t83.5 34.5t34.5 83.5h192q0 -85 -41 -156t-112 -113q-72 -42 -157 -42zM852 1475l487 -1475h-260l-104 319h-576l-104 -319h-260l488 1475
h329zM474 550h426l-213 654z" />
    <glyph glyph-name="uni1EB1" unicode="&#x1eb1;" horiz-adv-x="1179" 
d="M505 1633l-158 379h188l157 -379h-187zM603 1231q-85 0 -155.5 41t-112.5 113q-42 71 -42 156h192q0 -49 34.5 -83.5t83.5 -34.5t83.5 34.5t34.5 83.5h192q0 -85 -41 -155.5t-112 -112.5q-72 -42 -157 -42zM589 1137q237 0 352.5 -119.5t115.5 -364.5v-653h-246v148
q-110 -179 -357 -179q-168 0 -270 91t-102 241q0 315 437 370l291 36q-6 213 -221 213q-99 0 -158 -37.5t-85 -116.5l-224 60q43 151 164 231t303 80zM811 526l-257 -31q-118 -14 -174 -56.5t-56 -116.5q0 -147 189 -147q98 0 171.5 48.5t102.5 125.5q24 55 24 167v10z" />
    <glyph glyph-name="uni1EB2" unicode="&#x1eb2;" horiz-adv-x="1374" 
d="M452 2382q60 51 110 61q51 9 74 9q52 0 109 -27t91 -107q20 -52 20 -96q0 -33 -16 -82q-16 -50 -78 -95q-62 -46 -131 -53l-44 100q39 12 68.5 34.5t36.5 44.5q7 20 7 35q0 19 -11 43q-22 48 -70 48q-11 0 -28 -1q-27 -2 -75 -36zM687 1599q-85 0 -155.5 41.5
t-112.5 113.5q-42 71 -42 156h192q0 -50 34.5 -84t83.5 -34t83.5 34t34.5 84h192q0 -85 -41 -156t-112 -113q-72 -42 -157 -42zM852 1475l487 -1475h-260l-104 319h-576l-104 -319h-260l488 1475h329zM474 550h426l-213 654z" />
    <glyph glyph-name="uni1EB3" unicode="&#x1eb3;" horiz-adv-x="1179" 
d="M394 2013q61 52 111 62q51 9 74 9q50 0 109 -28q56 -27 90 -106q21 -55 21 -97q0 -28 -17 -81q-17 -52 -77 -96q-62 -45 -132 -53l-44 100q39 12 69 34.5t37 44.5q7 20 7 35q0 19 -11 43q-23 48 -70 48q-12 0 -29 -1q-26 -2 -74 -36zM630 1231q-85 0 -156 41t-113 113
q-42 71 -42 156h193q0 -49 34 -83.5t84 -34.5t84 34.5t34 83.5h192q0 -85 -41.5 -155.5t-112.5 -112.5q-72 -42 -156 -42zM589 1137q237 0 352.5 -119.5t115.5 -364.5v-653h-246v148q-110 -179 -357 -179q-168 0 -270 91t-102 241q0 315 437 370l291 36q-6 213 -221 213
q-99 0 -158 -37.5t-85 -116.5l-224 60q43 151 164 231t303 80zM811 526l-257 -31q-118 -14 -174 -56.5t-56 -116.5q0 -147 189 -147q98 0 171.5 48.5t102.5 125.5q24 55 24 167v10z" />
    <glyph glyph-name="uni1EB4" unicode="&#x1eb4;" horiz-adv-x="1374" 
d="M839 1979q-44 0 -88 20t-110 65q-47 33 -73 46t-49 13q-17 0 -28.5 -9t-15.5 -23.5t-5 -22.5t-1 -16q0 -21 6 -45h-156q-11 53 -11 94q0 29 9 77q7 45 56 85q48 39 124 39q45 0 86 -19t111 -65q83 -59 123 -59q32 0 41 24t9 45q0 23 -7 47h156q12 -51 12 -94
q0 -29 -9 -76t-55 -86q-47 -40 -125 -40zM665 1599q-85 0 -156 41.5t-113 113.5q-42 71 -42 156h193q0 -50 34.5 -84t83.5 -34t83 34.5t34 83.5h193q0 -85 -41.5 -156t-113.5 -113t-155 -42zM852 1475l487 -1475h-260l-104 319h-576l-104 -319h-260l488 1475h329zM474 550
h426l-213 654z" />
    <glyph glyph-name="uni1EB5" unicode="&#x1eb5;" horiz-adv-x="1179" 
d="M769 1611q-44 0 -87 19.5t-110 65.5q-47 32 -73 45t-49 13q-22 0 -34.5 -17t-14.5 -29.5t-2 -23.5q0 -20 8 -46h-156q-12 51 -12 95q0 28 9 76q9 47 56 85q46 39 124 39q43 0 86.5 -19.5t111.5 -64.5q83 -59 122 -59q31 0 40 26q10 27 10 45q0 22 -6 46h155
q11 -53 11 -95q0 -25 -8 -75q-9 -48 -56 -86q-47 -40 -125 -40zM595 1231q-85 0 -155.5 41t-112.5 113q-42 71 -42 156h192q0 -49 34.5 -83.5t83.5 -34.5t83.5 34.5t34.5 83.5h192q0 -85 -41 -155.5t-112 -112.5q-72 -42 -157 -42zM589 1137q237 0 352.5 -119.5
t115.5 -364.5v-653h-246v148q-110 -179 -357 -179q-168 0 -270 91t-102 241q0 315 437 370l291 36q-6 213 -221 213q-99 0 -158 -37.5t-85 -116.5l-224 60q43 151 164 231t303 80zM811 526l-257 -31q-118 -14 -174 -56.5t-56 -116.5q0 -147 189 -147q98 0 171.5 48.5
t102.5 125.5q24 55 24 167v10z" />
    <glyph glyph-name="uni1EB6" unicode="&#x1eb6;" horiz-adv-x="1374" 
d="M688 1599q-85 0 -155.5 41.5t-112.5 113.5q-42 71 -42 156h192q0 -50 34 -84t84 -34t84 34t34 84h192q0 -85 -41 -156t-112 -113q-72 -42 -157 -42zM852 1475l487 -1475h-260l-104 319h-576l-104 -319h-260l488 1475h329zM474 550h426l-213 654zM560 -397v226h253v-226
h-253z" />
    <glyph glyph-name="uni1EB7" unicode="&#x1eb7;" horiz-adv-x="1179" 
d="M601 1231q-85 0 -155.5 41t-112.5 113q-42 71 -42 156h192q0 -49 34.5 -83.5t83.5 -34.5t83.5 34.5t34.5 83.5h192q0 -85 -41 -155.5t-112 -112.5q-72 -42 -157 -42zM589 1137q237 0 352.5 -119.5t115.5 -364.5v-653h-246v148q-110 -179 -357 -179q-168 0 -270 91
t-102 241q0 315 437 370l291 36q-6 213 -221 213q-99 0 -158 -37.5t-85 -116.5l-224 60q43 151 164 231t303 80zM811 526l-257 -31q-118 -14 -174 -56.5t-56 -116.5q0 -147 189 -147q98 0 171.5 48.5t102.5 125.5q24 55 24 167v10zM473 -397v226h253v-226h-253z" />
    <glyph glyph-name="uni1EB8" unicode="&#x1eb8;" horiz-adv-x="1230" 
d="M1098 0h-955v1475h955v-232h-707v-363h584v-232h-584v-417h707v-231zM748 -397h-253v226h253v-226z" />
    <glyph glyph-name="uni1EB9" unicode="&#x1eb9;" horiz-adv-x="1232" 
d="M634 197q183 0 257 157l244 -69q-64 -151 -195 -233.5t-306 -82.5q-247 0 -399.5 162t-152.5 422q0 261 153 422.5t397 161.5q262 0 399.5 -176.5t115.5 -476.5h-800q17 -137 91.5 -212t195.5 -75zM353 671h543q-9 117 -78.5 182t-185.5 65q-112 0 -184 -64.5t-95 -182.5
zM525 -397v226h253v-226h-253z" />
    <glyph glyph-name="uni1EBA" unicode="&#x1eba;" horiz-adv-x="1200" 
d="M501 1919l-64 122q58 51 110 60q51 9 74 9q50 0 110 -26q56 -26 90 -107q20 -52 20 -95q0 -30 -17 -83q-16 -50 -76 -95q-61 -45 -132 -54l-45 101q39 12 69 34.5t37 44.5q7 20 7 35q0 19 -11 43q-22 47 -69 47q-12 0 -29 -1q-25 -1 -74 -35zM1098 0h-955v1475h955v-232
h-707v-363h584v-232h-584v-417h707v-231z" />
    <glyph glyph-name="uni1EBB" unicode="&#x1ebb;" horiz-adv-x="1228" 
d="M443 1678q61 53 111 62q51 9 73 9q49 0 110 -28q56 -27 90 -106q21 -55 21 -96q0 -29 -17 -82q-17 -51 -76 -96q-62 -46 -132 -53l-44 102q39 12 68.5 34t36.5 44q7 20 7 34q0 19 -11 43q-22 48 -69 48q-11 0 -28 -1q-27 -2 -75 -36zM634 197q183 0 257 157l244 -69
q-64 -151 -195 -233.5t-306 -82.5q-247 0 -399.5 162t-152.5 422q0 261 153 422.5t397 161.5q262 0 399.5 -176.5t115.5 -476.5h-800q17 -137 91.5 -212t195.5 -75zM353 671h543q-9 117 -78.5 182t-185.5 65q-112 0 -184 -64.5t-95 -182.5z" />
    <glyph glyph-name="uni1EBC" unicode="&#x1ebc;" horiz-adv-x="1200" 
d="M775 1638q-45 0 -86 19t-111 65q-83 59 -122 59q-50 0 -50 -69q0 -22 6 -46h-156q-11 53 -11 94q0 29 9 77q7 46 55 85q45 38 124 38q45 0 86.5 -19t111.5 -65q84 -58 123 -58q32 0 41 24t9 44q0 23 -7 47h155q12 -57 12 -93q0 -19 -9 -77q-9 -47 -55 -86
q-48 -39 -125 -39zM1098 0h-955v1475h955v-232h-707v-363h584v-232h-584v-417h707v-231z" />
    <glyph glyph-name="uni1EBD" unicode="&#x1ebd;" horiz-adv-x="1232" 
d="M821 1270q-43 0 -85 19t-111 65q-82 58 -123 58q-22 0 -34.5 -17t-14 -29t-1.5 -23q0 -25 7 -46h-156q-12 51 -12 95q0 28 9 76q9 47 56 85q45 38 124 38q43 0 85.5 -19.5t112.5 -64.5q84 -58 122 -58q32 0 41 25q9 24 9 44q0 23 -7 47h155q13 -55 13 -96q0 -18 -9 -74
q-9 -48 -56 -86q-48 -39 -125 -39zM634 197q183 0 257 157l244 -69q-64 -151 -195 -233.5t-306 -82.5q-247 0 -399.5 162t-152.5 422q0 261 153 422.5t397 161.5q262 0 399.5 -176.5t115.5 -476.5h-800q17 -137 91.5 -212t195.5 -75zM353 671h543q-9 117 -78.5 182
t-185.5 65q-112 0 -184 -64.5t-95 -182.5z" />
    <glyph glyph-name="uni1EBE" unicode="&#x1ebe;" horiz-adv-x="1200" 
d="M1306 2227l-158 -379h-187l157 379h188zM470 1633h-230l279 323h207l281 -323h-231l-153 183zM1098 0h-955v1475h955v-232h-707v-363h584v-232h-584v-417h707v-231z" />
    <glyph glyph-name="uni1EBF" unicode="&#x1ebf;" horiz-adv-x="1232" 
d="M1162 1480h-187l159 379h187zM255 1265l280 322h206l280 -322h-230l-153 182l-153 -182h-230zM634 197q183 0 257 157l244 -69q-64 -151 -195 -233.5t-306 -82.5q-247 0 -399.5 162t-152.5 422q0 261 153 422.5t397 161.5q262 0 399.5 -176.5t115.5 -476.5h-800
q17 -137 91.5 -212t195.5 -75zM353 671h543q-9 117 -78.5 182t-185.5 65q-112 0 -184 -64.5t-95 -182.5z" />
    <glyph glyph-name="uni1EC0" unicode="&#x1ec0;" horiz-adv-x="1200" 
d="M1189 1848h-188l-157 379h187zM498 1633h-231l280 323h207l280 -323h-230l-154 183zM1098 0h-955v1475h955v-232h-707v-363h584v-232h-584v-417h707v-231z" />
    <glyph glyph-name="uni1EC1" unicode="&#x1ec1;" horiz-adv-x="1232" 
d="M980 1480l-159 379h188l158 -379h-187zM246 1265l279 322h207l280 -322h-231l-152 182l-153 -182h-230zM634 197q183 0 257 157l244 -69q-64 -151 -195 -233.5t-306 -82.5q-247 0 -399.5 162t-152.5 422q0 261 153 422.5t397 161.5q262 0 399.5 -176.5t115.5 -476.5h-800
q17 -137 91.5 -212t195.5 -75zM353 671h543q-9 117 -78.5 182t-185.5 65q-112 0 -184 -64.5t-95 -182.5z" />
    <glyph glyph-name="uni1EC2" unicode="&#x1ec2;" horiz-adv-x="1230" 
d="M974 1919l-64 122q60 51 111 60t74 9q49 0 109 -26q56 -26 90 -107q21 -55 21 -96q0 -29 -17 -82q-16 -49 -77 -95q-61 -45 -131 -54l-46 101q40 12 69.5 34.5t36.5 45.5q7 20 7 34q0 22 -10 43q-22 47 -70 47q-11 0 -28 -1q-26 -2 -75 -35zM475 1633h-230l280 323h207
l280 -323h-231l-152 183zM1098 0h-955v1475h955v-232h-707v-363h584v-232h-584v-417h707v-231z" />
    <glyph glyph-name="uni1EC3" unicode="&#x1ec3;" horiz-adv-x="1232" 
d="M913 1672q61 52 111 61q51 9 74 9q47 0 109 -27q56 -27 90 -106q21 -55 21 -98q0 -31 -16 -80q-16 -51 -77 -96t-132 -54l-44 101q39 12 68.5 34.5t36.5 44.5q7 20 7 35q0 19 -11 43q-22 47 -69 47q-11 0 -28 -1q-26 -2 -75 -35zM249 1265l279 322h207l281 -322h-231
l-153 182l-153 -182h-230zM634 197q183 0 257 157l244 -69q-64 -151 -195 -233.5t-306 -82.5q-247 0 -399.5 162t-152.5 422q0 261 153 422.5t397 161.5q262 0 399.5 -176.5t115.5 -476.5h-800q17 -137 91.5 -212t195.5 -75zM353 671h543q-9 117 -78.5 182t-185.5 65
q-112 0 -184 -64.5t-95 -182.5z" />
    <glyph glyph-name="uni1EC4" unicode="&#x1ec4;" horiz-adv-x="1200" 
d="M799 2007q-43 0 -86.5 19.5t-110.5 64.5q-85 58 -123 58q-22 0 -34.5 -16.5t-14 -28.5t-1.5 -23q0 -25 7 -46h-155q-13 55 -13 96q0 22 10 75q7 46 55 85q47 38 125 38q43 0 85 -19t111 -65q50 -33 75.5 -46t47.5 -13q32 0 41 25q9 24 9 44q0 23 -7 47h156q12 -50 12 -94
q0 -28 -9 -76q-9 -47 -55 -86q-48 -39 -125 -39zM464 1633h-231l281 323h207l279 -323h-230l-153 183zM1098 0h-955v1475h955v-232h-707v-363h584v-232h-584v-417h707v-231z" />
    <glyph glyph-name="uni1EC5" unicode="&#x1ec5;" horiz-adv-x="1232" 
d="M812 1638q-43 0 -86.5 19.5t-110.5 64.5q-49 33 -74 46t-48 13q-17 0 -28.5 -9t-15.5 -22.5t-5.5 -22t-1.5 -15.5q0 -22 8 -46h-156q-12 51 -12 96q0 27 9 75q7 46 55 85q47 38 125 38q43 0 85.5 -19.5t111.5 -64.5q49 -33 74.5 -45.5t48.5 -12.5q31 0 40 24q10 27 10 44
q0 23 -7 47h155q12 -50 12 -94q0 -28 -9 -76q-9 -47 -55 -86q-48 -39 -125 -39zM247 1265l280 322h207l280 -322h-231l-152 182l-154 -182h-230zM634 197q183 0 257 157l244 -69q-64 -151 -195 -233.5t-306 -82.5q-247 0 -399.5 162t-152.5 422q0 261 153 422.5t397 161.5
q262 0 399.5 -176.5t115.5 -476.5h-800q17 -137 91.5 -212t195.5 -75zM353 671h543q-9 117 -78.5 182t-185.5 65q-112 0 -184 -64.5t-95 -182.5z" />
    <glyph glyph-name="uni1EC6" unicode="&#x1ec6;" horiz-adv-x="1200" 
d="M455 1633h-231l280 323h207l280 -323h-230l-154 183zM1098 0h-955v1475h955v-232h-707v-363h584v-232h-584v-417h707v-231zM748 -397h-253v226h253v-226z" />
    <glyph glyph-name="uni1EC7" unicode="&#x1ec7;" horiz-adv-x="1232" 
d="M246 1265l279 322h207l280 -322h-231l-152 182l-153 -182h-230zM634 197q183 0 257 157l244 -69q-64 -151 -195 -233.5t-306 -82.5q-247 0 -399.5 162t-152.5 422q0 261 153 422.5t397 161.5q262 0 399.5 -176.5t115.5 -476.5h-800q17 -137 91.5 -212t195.5 -75zM353 671
h543q-9 117 -78.5 182t-185.5 65q-112 0 -184 -64.5t-95 -182.5zM489 -397v226h253v-226h-253z" />
    <glyph glyph-name="uni1EC8" unicode="&#x1ec8;" horiz-adv-x="574" 
d="M126 1919l-64 122q58 51 110 60q51 9 74 9q49 0 109 -26q55 -26 91 -107q20 -52 20 -95q0 -34 -16 -83t-77 -95q-61 -45 -131 -54l-45 101q39 12 68.5 34.5t36.5 44.5q7 20 7 35q0 19 -11 43q-22 47 -69 47q-11 0 -28 -1q-26 -2 -75 -35zM412 0h-249v1475h249v-1475z" />
    <glyph glyph-name="uni1EC9" unicode="&#x1ec9;" horiz-adv-x="574" 
d="M130 1556l-63 122q61 53 110 62q51 9 73 9q49 0 110 -28q58 -27 91 -106q20 -52 20 -96q0 -32 -16 -81q-16 -51 -78 -97t-131 -53l-45 102q40 12 69 34t36 44q7 20 7 35q0 21 -10 42q-22 48 -70 48q-11 0 -28 -1q-27 -2 -75 -36zM411 0h-247v1106h247v-1106z" />
    <glyph glyph-name="uni1ECA" unicode="&#x1eca;" horiz-adv-x="575" 
d="M412 0h-248v1475h248v-1475zM415 -397h-254v226h254v-226z" />
    <glyph glyph-name="uni1ECB" unicode="&#x1ecb;" horiz-adv-x="574" 
d="M411 1274h-247v226h247v-226zM411 0h-247v1106h247v-1106zM414 -397h-253v226h253v-226z" />
    <glyph glyph-name="uni1ECC" unicode="&#x1ecc;" horiz-adv-x="1534" 
d="M767 -31q-327 0 -516.5 210.5t-189.5 557.5t189.5 557.5t516.5 210.5q218 0 378.5 -96.5t244.5 -269.5t84 -402t-84 -402t-244.5 -269.5t-378.5 -96.5zM767 202q218 0 331.5 143t113.5 392t-113.5 392.5t-331.5 143.5q-217 0 -330 -143.5t-114 -392.5t112.5 -392
t331.5 -143zM637 -397v226h253v-226h-253z" />
    <glyph glyph-name="uni1ECD" unicode="&#x1ecd;" horiz-adv-x="1265" 
d="M632 -31q-246 0 -398 162.5t-152 421.5t152.5 421.5t397.5 162.5q248 0 400 -162t152 -422t-152.5 -422t-399.5 -162zM632 201q139 0 215 93.5t76 258.5q0 167 -75.5 259.5t-215.5 92.5t-214.5 -92t-74.5 -260q0 -167 75.5 -259.5t213.5 -92.5zM507 -397v226h253v-226
h-253z" />
    <glyph glyph-name="uni1ECE" unicode="&#x1ece;" horiz-adv-x="1534" 
d="M603 2041q60 51 111 60t73 9q50 0 110 -26q56 -26 90 -107q21 -55 21 -97q0 -28 -17 -81q-16 -50 -78 -95q-61 -45 -131 -54l-44 101q39 12 69 34.5t37 44.5q7 20 7 35q0 19 -11 43q-22 47 -70 47q-12 0 -29 -1q-25 -1 -74 -35zM767 -31q-327 0 -516.5 210.5
t-189.5 557.5t189.5 557.5t516.5 210.5q218 0 378.5 -96.5t244.5 -269.5t84 -402t-84 -402t-244.5 -269.5t-378.5 -96.5zM767 202q218 0 331.5 143t113.5 392t-113.5 392.5t-331.5 143.5q-217 0 -330 -143.5t-114 -392.5t112.5 -392t331.5 -143z" />
    <glyph glyph-name="uni1ECF" unicode="&#x1ecf;" horiz-adv-x="1265" 
d="M443 1678q61 53 111 62q51 9 73 9q49 0 110 -28q56 -27 90 -106q21 -55 21 -96q0 -29 -17 -82q-17 -51 -76 -96q-62 -46 -132 -53l-44 102q39 12 68.5 34t36.5 44q7 20 7 34q0 19 -11 43q-22 48 -69 48q-11 0 -28 -1q-27 -2 -75 -36zM632 -31q-246 0 -398 162.5
t-152 421.5t152.5 421.5t397.5 162.5q248 0 400 -162t152 -422t-152.5 -422t-399.5 -162zM632 201q139 0 215 93.5t76 258.5q0 167 -75.5 259.5t-215.5 92.5t-214.5 -92t-74.5 -260q0 -167 75.5 -259.5t213.5 -92.5z" />
    <glyph glyph-name="uni1ED0" unicode="&#x1ed0;" horiz-adv-x="1534" 
d="M1308 1848h-188l159 379h187zM400 1633l280 323h207l279 -323h-230l-153 183l-152 -183h-231zM767 -31q-327 0 -516.5 210.5t-189.5 557.5t189.5 557.5t516.5 210.5q218 0 378.5 -96.5t244.5 -269.5t84 -402t-84 -402t-244.5 -269.5t-378.5 -96.5zM767 202
q218 0 331.5 143t113.5 392t-113.5 392.5t-331.5 143.5q-217 0 -330 -143.5t-114 -392.5t112.5 -392t331.5 -143z" />
    <glyph glyph-name="uni1ED1" unicode="&#x1ed1;" horiz-adv-x="1265" 
d="M1168 1480h-187l159 379h187zM261 1265l280 322h207l279 -322h-230l-153 182l-152 -182h-231zM632 -31q-246 0 -398 162.5t-152 421.5t152.5 421.5t397.5 162.5q248 0 400 -162t152 -422t-152.5 -422t-399.5 -162zM632 201q139 0 215 93.5t76 258.5q0 167 -75.5 259.5
t-215.5 92.5t-214.5 -92t-74.5 -260q0 -167 75.5 -259.5t213.5 -92.5z" />
    <glyph glyph-name="uni1ED2" unicode="&#x1ed2;" horiz-adv-x="1534" 
d="M1115 1848l-158 379h188l158 -379h-188zM381 1633l279 323h207l281 -323h-230l-154 183l-153 -183h-230zM767 -31q-327 0 -516.5 210.5t-189.5 557.5t189.5 557.5t516.5 210.5q218 0 378.5 -96.5t244.5 -269.5t84 -402t-84 -402t-244.5 -269.5t-378.5 -96.5zM767 202
q218 0 331.5 143t113.5 392t-113.5 392.5t-331.5 143.5q-217 0 -330 -143.5t-114 -392.5t112.5 -392t331.5 -143z" />
    <glyph glyph-name="uni1ED3" unicode="&#x1ed3;" horiz-adv-x="1265" 
d="M997 1480l-157 379h187l158 -379h-188zM263 1265l281 322h207l279 -322h-230l-153 182l-153 -182h-231zM632 -31q-246 0 -398 162.5t-152 421.5t152.5 421.5t397.5 162.5q248 0 400 -162t152 -422t-152.5 -422t-399.5 -162zM632 201q139 0 215 93.5t76 258.5
q0 167 -75.5 259.5t-215.5 92.5t-214.5 -92t-74.5 -260q0 -167 75.5 -259.5t213.5 -92.5z" />
    <glyph glyph-name="uni1ED4" unicode="&#x1ed4;" horiz-adv-x="1534" 
d="M1052 2041q59 51 109 60q51 9 74 9q50 0 110 -26q55 -26 91 -107q19 -50 19 -95q0 -34 -16 -83t-77 -95q-61 -45 -131 -54l-45 101q39 12 68.5 34.5t36.5 44.5q7 20 7 35q0 19 -11 43q-22 47 -68 47q-12 0 -29 -1q-26 -2 -75 -35zM386 1633l280 323h206l281 -323h-230
l-154 183l-153 -183h-230zM767 -31q-327 0 -516.5 210.5t-189.5 557.5t189.5 557.5t516.5 210.5q218 0 378.5 -96.5t244.5 -269.5t84 -402t-84 -402t-244.5 -269.5t-378.5 -96.5zM767 202q218 0 331.5 143t113.5 392t-113.5 392.5t-331.5 143.5q-217 0 -330 -143.5
t-114 -392.5t112.5 -392t331.5 -143z" />
    <glyph glyph-name="uni1ED5" unicode="&#x1ed5;" horiz-adv-x="1265" 
d="M911 1672q61 52 111 61q51 9 74 9q47 0 109 -27q56 -27 90 -106q21 -55 21 -97q0 -28 -17 -81q-16 -51 -77 -96t-131 -54l-45 101q40 12 69 34.5t36 45.5q7 20 7 34q0 22 -10 43q-22 47 -70 47q-11 0 -28 -1q-26 -2 -75 -35zM246 1265l280 322h207l280 -322h-231
l-152 182l-154 -182h-230zM632 -31q-246 0 -398 162.5t-152 421.5t152.5 421.5t397.5 162.5q248 0 400 -162t152 -422t-152.5 -422t-399.5 -162zM632 201q139 0 215 93.5t76 258.5q0 167 -75.5 259.5t-215.5 92.5t-214.5 -92t-74.5 -260q0 -167 75.5 -259.5t213.5 -92.5z
" />
    <glyph glyph-name="uni1ED6" unicode="&#x1ed6;" horiz-adv-x="1534" 
d="M938 2007q-43 0 -86.5 19.5t-110.5 64.5q-82 58 -123 58q-22 0 -34.5 -16.5t-14 -28.5t-1.5 -23q0 -25 7 -46h-155q-12 51 -12 96q0 27 9 75q7 46 55 85q47 38 125 38q43 0 85.5 -19.5t111.5 -64.5q51 -34 75.5 -46.5t46.5 -12.5q32 0 41 25q10 27 10 44q0 20 -8 47h156
q12 -50 12 -94q0 -28 -9 -76q-9 -47 -55 -86q-48 -39 -125 -39zM373 1633l280 323h207l280 -323h-231l-152 183l-154 -183h-230zM767 -31q-327 0 -516.5 210.5t-189.5 557.5t189.5 557.5t516.5 210.5q218 0 378.5 -96.5t244.5 -269.5t84 -402t-84 -402t-244.5 -269.5
t-378.5 -96.5zM767 202q218 0 331.5 143t113.5 392t-113.5 392.5t-331.5 143.5q-217 0 -330 -143.5t-114 -392.5t112.5 -392t331.5 -143z" />
    <glyph glyph-name="uni1ED7" unicode="&#x1ed7;" horiz-adv-x="1265" 
d="M840 1638q-43 0 -85.5 19.5t-111.5 64.5q-83 59 -123 59q-22 0 -34.5 -17t-14 -29t-1.5 -23q0 -25 7 -46h-155q-13 55 -13 94q0 29 9 77q9 46 57 85q45 38 124 38q43 0 85 -19t112 -65q84 -58 122 -58q32 0 41 24t9 44q0 23 -7 47h156q12 -51 12 -95q0 -25 -8 -75
q-9 -48 -56 -86q-48 -39 -125 -39zM274 1265l281 322h207l279 -322h-230l-153 182l-153 -182h-231zM632 -31q-246 0 -398 162.5t-152 421.5t152.5 421.5t397.5 162.5q248 0 400 -162t152 -422t-152.5 -422t-399.5 -162zM632 201q139 0 215 93.5t76 258.5q0 167 -75.5 259.5
t-215.5 92.5t-214.5 -92t-74.5 -260q0 -167 75.5 -259.5t213.5 -92.5z" />
    <glyph glyph-name="uni1ED8" unicode="&#x1ed8;" horiz-adv-x="1534" 
d="M381 1633l279 323h207l280 -323h-231l-152 183l-153 -183h-230zM767 -31q-327 0 -516.5 210.5t-189.5 557.5t189.5 557.5t516.5 210.5q218 0 378.5 -96.5t244.5 -269.5t84 -402t-84 -402t-244.5 -269.5t-378.5 -96.5zM767 202q218 0 331.5 143t113.5 392t-113.5 392.5
t-331.5 143.5q-217 0 -330 -143.5t-114 -392.5t112.5 -392t331.5 -143zM641 -397v226h253v-226h-253z" />
    <glyph glyph-name="uni1ED9" unicode="&#x1ed9;" horiz-adv-x="1265" 
d="M247 1265l280 322h207l280 -322h-231l-152 182l-154 -182h-230zM632 -31q-246 0 -398 162.5t-152 421.5t152.5 421.5t397.5 162.5q248 0 400 -162t152 -422t-152.5 -422t-399.5 -162zM632 201q139 0 215 93.5t76 258.5q0 167 -75.5 259.5t-215.5 92.5t-214.5 -92
t-74.5 -260q0 -167 75.5 -259.5t213.5 -92.5zM526 -397v226h253v-226h-253z" />
    <glyph glyph-name="uni1EDA" unicode="&#x1eda;" horiz-adv-x="1534" 
d="M871 1633h-187l159 379h187zM1346 1658q6 -44 6 -80q0 -56 -21 -121q-20 -58 -89 -93q-3 -1 -9.5 -4t-10.5 -5q122 -101 187 -260t65 -358q0 -229 -84 -402t-244.5 -269.5t-378.5 -96.5q-327 0 -516.5 210.5t-189.5 557.5t189.5 557.5t516.5 210.5q106 0 198 -23
q56 -11 70 -12h8q26 0 50 11t38.5 26.5t20 38.5t6.5 37t1 43v22v9zM767 202q218 0 331.5 143t113.5 392t-113.5 392.5t-331.5 143.5q-217 0 -330 -143.5t-114 -392.5t112.5 -392t331.5 -143z" />
    <glyph glyph-name="uni1EDB" unicode="&#x1edb;" horiz-adv-x="1274" 
d="M729 1265h-187l157 379h188zM1179 1290q6 -42 6 -79q0 -55 -21 -120q-21 -59 -89 -94q-23 -11 -48 -18q157 -160 157 -426q0 -260 -152.5 -422t-399.5 -162q-246 0 -398 162.5t-152 421.5t152.5 421.5t397.5 162.5q78 0 152 -19q54 -14 84 -15h9q28 0 49 10
q23 11 37.5 27t20 38.5t7 38.5t1.5 44v19v9zM632 201q139 0 215 93.5t76 258.5q0 167 -75.5 259.5t-215.5 92.5t-214.5 -92t-74.5 -260q0 -167 75.5 -259.5t213.5 -92.5z" />
    <glyph glyph-name="uni1EDC" unicode="&#x1edc;" horiz-adv-x="1534" 
d="M651 1633l-157 379h187l158 -379h-188zM1346 1658q6 -44 6 -80q0 -56 -21 -121q-20 -58 -89 -93q-3 -1 -9.5 -4t-10.5 -5q122 -101 187 -260t65 -358q0 -229 -84 -402t-244.5 -269.5t-378.5 -96.5q-327 0 -516.5 210.5t-189.5 557.5t189.5 557.5t516.5 210.5
q106 0 198 -23q56 -11 70 -12h8q26 0 50 11t38.5 26.5t20 38.5t6.5 37t1 43v22v9zM767 202q218 0 331.5 143t113.5 392t-113.5 392.5t-331.5 143.5q-217 0 -330 -143.5t-114 -392.5t112.5 -392t331.5 -143z" />
    <glyph glyph-name="uni1EDD" unicode="&#x1edd;" horiz-adv-x="1274" 
d="M527 1265l-158 379h187l159 -379h-188zM1179 1290q6 -42 6 -79q0 -55 -21 -120q-21 -59 -89 -94q-23 -11 -48 -18q157 -160 157 -426q0 -260 -152.5 -422t-399.5 -162q-246 0 -398 162.5t-152 421.5t152.5 421.5t397.5 162.5q78 0 152 -19q54 -14 84 -15h9q28 0 49 10
q23 11 37.5 27t20 38.5t7 38.5t1.5 44v19v9zM632 201q139 0 215 93.5t76 258.5q0 167 -75.5 259.5t-215.5 92.5t-214.5 -92t-74.5 -260q0 -167 75.5 -259.5t213.5 -92.5z" />
    <glyph glyph-name="uni1EDE" unicode="&#x1ede;" horiz-adv-x="1534" 
d="M603 2041q60 51 111 60t73 9q50 0 110 -26q56 -26 90 -107q21 -55 21 -97q0 -28 -17 -81q-16 -50 -78 -95q-61 -45 -131 -54l-44 101q39 12 69 34.5t37 44.5q7 20 7 35q0 19 -11 43q-22 47 -70 47q-12 0 -29 -1q-25 -1 -74 -35zM1346 1658q6 -44 6 -80q0 -56 -21 -121
q-20 -58 -89 -93q-3 -1 -9.5 -4t-10.5 -5q122 -101 187 -260t65 -358q0 -229 -84 -402t-244.5 -269.5t-378.5 -96.5q-327 0 -516.5 210.5t-189.5 557.5t189.5 557.5t516.5 210.5q106 0 198 -23q56 -11 70 -12h8q26 0 50 11t38.5 26.5t20 38.5t6.5 37t1 43v22v9zM767 202
q218 0 331.5 143t113.5 392t-113.5 392.5t-331.5 143.5q-217 0 -330 -143.5t-114 -392.5t112.5 -392t331.5 -143z" />
    <glyph glyph-name="uni1EDF" unicode="&#x1edf;" horiz-adv-x="1265" 
d="M443 1678q61 53 111 62q51 9 73 9q49 0 110 -28q56 -27 90 -106q21 -55 21 -96q0 -29 -17 -82q-17 -51 -76 -96q-62 -46 -132 -53l-44 102q39 12 68.5 34t36.5 44q7 20 7 34q0 19 -11 43q-22 48 -69 48q-11 0 -28 -1q-27 -2 -75 -36zM1179 1290q6 -42 6 -79
q0 -55 -21 -120q-21 -59 -89 -94q-23 -11 -48 -18q157 -160 157 -426q0 -260 -152.5 -422t-399.5 -162q-246 0 -398 162.5t-152 421.5t152.5 421.5t397.5 162.5q78 0 152 -19q54 -14 84 -15h9q28 0 49 10q23 11 37.5 27t20 38.5t7 38.5t1.5 44v19v9zM632 201q139 0 215 93.5
t76 258.5q0 167 -75.5 259.5t-215.5 92.5t-214.5 -92t-74.5 -260q0 -167 75.5 -259.5t213.5 -92.5z" />
    <glyph glyph-name="uni1EE0" unicode="&#x1ee0;" horiz-adv-x="1534" 
d="M936 1638q-43 0 -85.5 19.5t-111.5 64.5q-83 59 -123 59q-22 0 -34.5 -17t-14 -29t-1.5 -23q0 -25 7 -46h-155q-12 51 -12 94q0 29 9 77q9 47 56 85q45 38 124 38q43 0 86.5 -19.5t111.5 -64.5q47 -32 72.5 -45t48.5 -13q32 0 41 25q10 27 10 45q0 17 -7 45h156
q11 -52 11 -93q0 -26 -8 -77q-9 -48 -56 -86q-48 -39 -125 -39zM1346 1658q6 -44 6 -80q0 -56 -21 -121q-20 -58 -89 -93q-3 -1 -9.5 -4t-10.5 -5q122 -101 187 -260t65 -358q0 -229 -84 -402t-244.5 -269.5t-378.5 -96.5q-327 0 -516.5 210.5t-189.5 557.5t189.5 557.5
t516.5 210.5q106 0 198 -23q56 -11 70 -12h8q26 0 50 11t38.5 26.5t20 38.5t6.5 37t1 43v22v9zM767 202q218 0 331.5 143t113.5 392t-113.5 392.5t-331.5 143.5q-217 0 -330 -143.5t-114 -392.5t112.5 -392t331.5 -143z" />
    <glyph glyph-name="uni1EE1" unicode="&#x1ee1;" horiz-adv-x="1265" 
d="M821 1270q-43 0 -85 19t-111 65q-82 58 -123 58q-22 0 -34.5 -17t-14 -29t-1.5 -23q0 -25 7 -46h-156q-12 51 -12 95q0 28 9 76q9 47 56 85q45 38 124 38q43 0 85.5 -19.5t112.5 -64.5q84 -58 122 -58q32 0 41 25q9 24 9 44q0 23 -7 47h155q13 -55 13 -96q0 -18 -9 -74
q-9 -48 -56 -86q-48 -39 -125 -39zM1179 1290q6 -42 6 -79q0 -55 -21 -120q-21 -59 -89 -94q-23 -11 -48 -18q157 -160 157 -426q0 -260 -152.5 -422t-399.5 -162q-246 0 -398 162.5t-152 421.5t152.5 421.5t397.5 162.5q78 0 152 -19q54 -14 84 -15h9q28 0 49 10
q23 11 37.5 27t20 38.5t7 38.5t1.5 44v19v9zM632 201q139 0 215 93.5t76 258.5q0 167 -75.5 259.5t-215.5 92.5t-214.5 -92t-74.5 -260q0 -167 75.5 -259.5t213.5 -92.5z" />
    <glyph glyph-name="uni1EE2" unicode="&#x1ee2;" horiz-adv-x="1534" 
d="M1346 1658q6 -44 6 -80q0 -56 -21 -121q-20 -58 -89 -93q-3 -1 -9.5 -4t-10.5 -5q122 -101 187 -260t65 -358q0 -229 -84 -402t-244.5 -269.5t-378.5 -96.5q-327 0 -516.5 210.5t-189.5 557.5t189.5 557.5t516.5 210.5q106 0 198 -23q56 -11 70 -12h8q26 0 50 11
t38.5 26.5t20 38.5t6.5 37t1 43v22v9zM767 202q218 0 331.5 143t113.5 392t-113.5 392.5t-331.5 143.5q-217 0 -330 -143.5t-114 -392.5t112.5 -392t331.5 -143zM662 -397v226h252v-226h-252z" />
    <glyph glyph-name="uni1EE3" unicode="&#x1ee3;" horiz-adv-x="1265" 
d="M1179 1290q6 -42 6 -79q0 -55 -21 -120q-21 -59 -89 -94q-23 -11 -48 -18q157 -160 157 -426q0 -260 -152.5 -422t-399.5 -162q-246 0 -398 162.5t-152 421.5t152.5 421.5t397.5 162.5q78 0 152 -19q54 -14 84 -15h9q28 0 49 10q23 11 37.5 27t20 38.5t7 38.5t1.5 44v19
v9zM632 201q139 0 215 93.5t76 258.5q0 167 -75.5 259.5t-215.5 92.5t-214.5 -92t-74.5 -260q0 -167 75.5 -259.5t213.5 -92.5zM525 -397v226h253v-226h-253z" />
    <glyph glyph-name="uni1EE4" unicode="&#x1ee4;" horiz-adv-x="1474" 
d="M737 -31q-272 0 -433 160.5t-161 459.5v886h248v-876q0 -200 85.5 -298.5t260.5 -98.5t260.5 98.5t85.5 298.5v876h248v-886q0 -299 -160.5 -459.5t-433.5 -160.5zM645 -397v226h253v-226h-253z" />
    <glyph glyph-name="uni1EE5" unicode="&#x1ee5;" horiz-adv-x="1277" 
d="M370 1106v-608q0 -142 66.5 -219.5t191.5 -77.5t192.5 77t67.5 220v608h247v-1106h-247v144q-95 -175 -325 -175q-205 0 -322.5 119t-117.5 357v661h247zM766 -397h-253v226h253v-226z" />
    <glyph glyph-name="uni1EE6" unicode="&#x1ee6;" horiz-adv-x="1474" 
d="M562 2041q58 51 110 60q51 9 73 9q51 0 111 -26q56 -26 90 -107q20 -52 20 -95q0 -30 -17 -83q-16 -49 -77 -95q-61 -45 -131 -54l-45 101q39 12 69 34.5t37 44.5q7 20 7 35q0 19 -11 43q-22 47 -69 47q-12 0 -29 -1q-25 -1 -74 -35zM737 -31q-272 0 -433 160.5
t-161 459.5v886h248v-876q0 -200 85.5 -298.5t260.5 -98.5t260.5 98.5t85.5 298.5v876h248v-886q0 -299 -160.5 -459.5t-433.5 -160.5z" />
    <glyph glyph-name="uni1EE7" unicode="&#x1ee7;" horiz-adv-x="1277" 
d="M506 1556l-64 122q59 53 110 62t73 9q49 0 110 -28q57 -26 91 -106q20 -52 20 -95q0 -29 -17 -82t-76 -97q-62 -46 -131 -53l-45 102q39 12 68.5 34t36.5 44q7 20 7 34q0 19 -11 43q-22 48 -69 48q-11 0 -28 -1q-27 -2 -75 -36zM370 1106v-608q0 -142 66.5 -219.5
t191.5 -77.5t192.5 77t67.5 220v608h247v-1106h-247v144q-95 -175 -325 -175q-205 0 -322.5 119t-117.5 357v661h247z" />
    <glyph glyph-name="uni1EE8" unicode="&#x1ee8;" horiz-adv-x="1474" 
d="M825 1633h-187l158 379h187zM1580 1659q5 -43 5 -73q0 -154 -107 -216q-54 -31 -126 -36q-7 -1 -21 -1v-744q0 -299 -160.5 -459.5t-433.5 -160.5q-272 0 -433 160.5t-161 459.5v886h248v-876q0 -200 85.5 -298.5t260.5 -98.5t260.5 98.5t85.5 298.5v876h134q39 0 63 5
q36 6 60 21.5t35 40.5t14.5 48t3.5 56v12z" />
    <glyph glyph-name="uni1EE9" unicode="&#x1ee9;" horiz-adv-x="1278" 
d="M869 1644l-157 -379h-188l158 379h187zM1147 1289l186 1q5 -43 5 -72q0 -155 -107 -217q-43 -24 -96 -32v-969h-247v144q-95 -175 -325 -175q-205 0 -322.5 119t-117.5 357v661h247v-608q0 -142 66.5 -219.5t191.5 -77.5t192.5 77t67.5 220v608h82q39 0 64 5q67 11 90 54
t23 113v11z" />
    <glyph glyph-name="uni1EEA" unicode="&#x1eea;" horiz-adv-x="1474" 
d="M663 1633l-159 379h187l159 -379h-187zM1580 1659q5 -43 5 -73q0 -154 -107 -216q-54 -31 -126 -36q-7 -1 -21 -1v-744q0 -299 -160.5 -459.5t-433.5 -160.5q-272 0 -433 160.5t-161 459.5v886h248v-876q0 -200 85.5 -298.5t260.5 -98.5t260.5 98.5t85.5 298.5v876h134
q39 0 63 5q36 6 60 21.5t35 40.5t14.5 48t3.5 56v12z" />
    <glyph glyph-name="uni1EEB" unicode="&#x1eeb;" horiz-adv-x="1278" 
d="M725 1265h-187l-159 379h187zM1147 1288h186q5 -43 5 -73q0 -154 -107 -216q-43 -24 -96 -32v-967h-247v144q-95 -175 -325 -175q-205 0 -322.5 119t-117.5 357v661h247v-608q0 -142 66.5 -219.5t191.5 -77.5t192.5 77t67.5 220v608h122l24 3q67 11 90 54.5t23 113.5v11z
" />
    <glyph glyph-name="uni1EEC" unicode="&#x1eec;" horiz-adv-x="1474" 
d="M562 2041q58 51 110 60q51 9 73 9q51 0 111 -26q56 -26 90 -107q20 -52 20 -95q0 -30 -17 -83q-16 -49 -77 -95q-61 -45 -131 -54l-45 101q39 12 69 34.5t37 44.5q7 20 7 35q0 19 -11 43q-22 47 -69 47q-12 0 -29 -1q-25 -1 -74 -35zM1580 1659q58 -7 58 -51
q0 -31 -48 -115t-112 -123q-54 -31 -126 -36q-7 -1 -21 -1v-744q0 -299 -160.5 -459.5t-433.5 -160.5q-272 0 -433 160.5t-161 459.5v886h248v-876q0 -200 85.5 -298.5t260.5 -98.5t260.5 98.5t85.5 298.5v876h134q39 0 63 5q36 6 60 21.5t35 40.5t14.5 48t3.5 56v12z" />
    <glyph glyph-name="uni1EED" unicode="&#x1eed;" horiz-adv-x="1278" 
d="M506 1556l-64 122q59 53 110 62t73 9q49 0 110 -28q57 -26 91 -106q20 -52 20 -95q0 -29 -17 -82t-76 -97q-62 -46 -131 -53l-45 102q39 12 68.5 34t36.5 44q7 20 7 34q0 19 -11 43q-22 48 -69 48q-11 0 -28 -1q-27 -2 -75 -36zM1147 1289l186 1q5 -43 5 -72
q0 -155 -107 -217q-43 -24 -96 -32v-969h-247v144q-95 -175 -325 -175q-205 0 -322.5 119t-117.5 357v661h247v-608q0 -142 66.5 -219.5t191.5 -77.5t192.5 77t67.5 220v608h82q39 0 64 5q67 11 90 54t23 113v11z" />
    <glyph glyph-name="uni1EEE" unicode="&#x1eee;" horiz-adv-x="1474" 
d="M934 1638q-45 0 -86.5 19t-111.5 65q-83 59 -122 59q-50 0 -50 -69q0 -22 6 -46h-155q-12 58 -12 94q0 24 10 77q7 46 55 85q45 38 124 38q45 0 86.5 -19t111.5 -65q47 -32 73 -45t49 -13q32 0 41 24q10 27 10 44q0 20 -8 47h156q11 -52 11 -93q0 -26 -8 -77
q-9 -47 -55 -86q-48 -39 -125 -39zM1580 1659q5 -43 5 -73q0 -154 -107 -216q-54 -31 -126 -36q-7 -1 -21 -1v-744q0 -299 -160.5 -459.5t-433.5 -160.5q-272 0 -433 160.5t-161 459.5v886h248v-876q0 -200 85.5 -298.5t260.5 -98.5t260.5 98.5t85.5 298.5v876h134
q39 0 63 5q36 6 60 21.5t35 40.5t14.5 48t3.5 56v12z" />
    <glyph glyph-name="uni1EEF" unicode="&#x1eef;" horiz-adv-x="1278" 
d="M819 1270q-43 0 -85 19t-111 65q-82 58 -123 58q-22 0 -34.5 -17t-14 -29t-1.5 -23q0 -25 7 -46h-156q-11 53 -11 95q0 28 9 76q7 46 55 85q45 38 124 38q43 0 86.5 -19.5t111.5 -64.5q84 -58 122 -58q31 0 42 25q9 24 9 45q0 24 -7 46h155q12 -57 12 -94q0 -18 -9 -76
q-9 -47 -55 -86q-48 -39 -126 -39zM1147 1289l186 1q5 -43 5 -72q0 -155 -107 -217q-43 -24 -96 -32v-969h-247v144q-95 -175 -325 -175q-205 0 -322.5 119t-117.5 357v661h247v-608q0 -142 66.5 -219.5t191.5 -77.5t192.5 77t67.5 220v608h82q39 0 64 5q67 11 90 54t23 113
v11z" />
    <glyph glyph-name="uni1EF0" unicode="&#x1ef0;" horiz-adv-x="1474" 
d="M1580 1659q5 -43 5 -73q0 -154 -107 -216q-54 -31 -126 -36q-7 -1 -21 -1v-744q0 -299 -160.5 -459.5t-433.5 -160.5q-272 0 -433 160.5t-161 459.5v886h248v-876q0 -200 85.5 -298.5t260.5 -98.5t260.5 98.5t85.5 298.5v876h134q39 0 63 5q36 6 60 21.5t35 40.5t14.5 48
t3.5 56v12zM613 -397v226h253v-226h-253z" />
    <glyph glyph-name="uni1EF1" unicode="&#x1ef1;" horiz-adv-x="1278" 
d="M1147 1289l186 1q5 -45 5 -75q0 -152 -107 -214q-43 -24 -96 -32v-969h-247v144q-95 -175 -325 -175q-205 0 -322.5 119t-117.5 357v661h247v-608q0 -142 66.5 -219.5t191.5 -77.5t192.5 77t67.5 220v608h83q39 0 63 5q67 11 90 54t23 113v11zM776 -397h-253v226h253
v-226z" />
    <glyph glyph-name="Ygrave" unicode="&#x1ef2;" horiz-adv-x="1252" 
d="M723 1633h-187l-158 379h187zM751 0h-248v604l-503 871h288l339 -588l338 588h287l-501 -871v-604z" />
    <glyph glyph-name="ygrave" unicode="&#x1ef3;" horiz-adv-x="1145" 
d="M684 1265h-187l-158 379h187zM520 -492h-231l182 499l-447 1099h257l308 -792l301 792h247z" />
    <glyph glyph-name="uni1EF4" unicode="&#x1ef4;" horiz-adv-x="1252" 
d="M751 0h-248v604l-503 871h288l339 -588l338 588h287l-501 -871v-604zM753 -397h-253v226h253v-226z" />
    <glyph glyph-name="uni1EF5" unicode="&#x1ef5;" horiz-adv-x="1145" 
d="M520 -492h-231l182 499l-447 1099h257l308 -792l301 792h247zM1023 -397h-225v225h225v-225z" />
    <glyph glyph-name="uni1EF6" unicode="&#x1ef6;" horiz-adv-x="1252" 
d="M488 1919l-63 122q60 51 111 60t73 9q50 0 110 -26q56 -26 90 -107q20 -52 20 -96q0 -33 -16 -82q-16 -48 -78 -95q-61 -45 -131 -54l-45 101q40 12 69.5 34.5t36.5 45.5q7 20 7 34q0 22 -10 43q-22 47 -70 47q-12 0 -29 -1q-26 -2 -75 -35zM751 0h-248v604l-503 871h288
l339 -588l338 588h287l-501 -871v-604z" />
    <glyph glyph-name="uni1EF7" unicode="&#x1ef7;" horiz-adv-x="1145" 
d="M446 1556l-64 122q61 53 111 62q51 9 72 9q50 0 111 -28q56 -27 90 -106q20 -52 20 -96q0 -33 -16 -82q-16 -51 -77 -96q-62 -46 -132 -53l-44 102q39 12 69 34t37 44q7 20 7 34q0 17 -12 43q-22 48 -68 48q-12 0 -29 -1q-27 -2 -75 -36zM520 -492h-231l182 499
l-447 1099h257l308 -792l301 792h247z" />
    <glyph glyph-name="uni1EF8" unicode="&#x1ef8;" horiz-adv-x="1252" 
d="M804 1638q-43 0 -86.5 19.5t-110.5 64.5q-48 33 -74 46t-49 13q-22 0 -34.5 -17t-14 -29t-1.5 -23q0 -25 7 -46h-155q-13 55 -13 96q0 22 10 75q7 46 55 85q47 38 125 38q43 0 85 -19t111 -65q49 -33 74.5 -45.5t48.5 -12.5q32 0 41 24q10 27 10 44q0 20 -8 47h156
q12 -50 12 -94q0 -28 -9 -76q-9 -47 -55 -86q-48 -39 -125 -39zM751 0h-248v604l-503 871h288l339 -588l338 588h287l-501 -871v-604z" />
    <glyph glyph-name="uni1EF9" unicode="&#x1ef9;" horiz-adv-x="1145" 
d="M754 1270q-43 0 -85.5 19.5t-111.5 64.5q-82 58 -123 58q-22 0 -34.5 -17t-14 -29t-1.5 -23q0 -25 7 -46h-155q-13 55 -13 95q0 28 9 76q9 46 57 85q45 38 124 38q43 0 85 -19t112 -65q84 -58 122 -58q32 0 41 25q9 24 9 44q0 23 -7 47h156q12 -51 12 -96q0 -24 -8 -74
q-9 -48 -56 -86q-48 -39 -125 -39zM520 -492h-231l182 499l-447 1099h257l308 -792l301 792h247z" />
    <glyph glyph-name="uni2011" unicode="&#x2011;" horiz-adv-x="860" 
d="M737 549h-614v193h614v-193z" />
    <glyph glyph-name="endash" unicode="&#x2013;" horiz-adv-x="1105" 
d="M983 549h-860v193h860v-193z" />
    <glyph glyph-name="emdash" unicode="&#x2014;" horiz-adv-x="1597" 
d="M1475 549h-1352v193h1352v-193z" />
    <glyph glyph-name="quoteleft" unicode="&#x2018;" horiz-adv-x="581" 
d="M393 1057l15 -107q-24 -4 -53 -4q-123 0 -172 105q-28 59 -28 150v274h253v-264h-132q0 -11 -2 -29v-6q0 -57 28 -88.5t78 -31.5q8 0 13 1z" />
    <glyph glyph-name="quoteright" unicode="&#x2019;" horiz-adv-x="581" 
d="M174 950l14 107q5 -1 14 -1q50 0 77.5 31.5t27.5 88.5v6q-1 4 -1 14t-1 15h-131v264h253v-274q0 -88 -28 -149.5t-76 -83.5q-50 -22 -97 -22q-28 0 -52 4z" />
    <glyph glyph-name="quotesinglbase" unicode="&#x201a;" horiz-adv-x="621" 
d="M123 -261l14 106q5 -1 14 -1q49 0 77 31.5t28 87.5v6q0 6 -1 16t-1 15h-131v263h253v-273q0 -88 -28.5 -150t-76.5 -85q-48 -21 -94 -21q-22 0 -54 5z" />
    <glyph glyph-name="quotedblleft" unicode="&#x201c;" horiz-adv-x="923" 
d="M760 1478l-15 -107q-5 1 -13 1q-49 0 -77 -31.5t-28 -87.5v-6q2 -22 2 -30h131v-264h-253v274q0 88 28 149.5t76 84.5q50 22 95 22q22 0 54 -5zM417 1478l-15 -107q-5 1 -13 1q-49 0 -77 -31.5t-28 -87.5v-6q2 -22 2 -30h131v-264h-253v274q0 88 28 149.5t76 84.5
q50 22 94 22q23 0 55 -5z" />
    <glyph glyph-name="quotedblright" unicode="&#x201d;" horiz-adv-x="923" 
d="M164 954l14 107q5 -1 13 -1q50 0 78 31.5t28 88.5v6q-1 4 -1 14t-1 15h-131v264h253v-274q0 -88 -28.5 -149.5t-76.5 -83.5q-50 -22 -96 -22q-28 0 -52 4zM507 954l14 107q5 -1 14 -1q50 0 77.5 31.5t27.5 88.5v6q0 5 -1 14.5t-1 14.5h-131v264h253v-274
q0 -88 -28.5 -149.5t-76.5 -83.5q-50 -22 -96 -22q-28 0 -52 4z" />
    <glyph glyph-name="quotedblbase" unicode="&#x201e;" horiz-adv-x="923" 
d="M164 -261l14 106q5 -1 13 -1q49 0 77.5 31.5t28.5 87.5v6q-1 6 -1 16t-1 15h-131v263h253v-273q0 -88 -28.5 -150t-76.5 -85q-48 -21 -94 -21q-22 0 -54 5zM507 -261l14 106q5 -1 14 -1q49 0 77 31.5t28 87.5v6q0 5 -1 15.5t-1 15.5h-131v263h253v-273q0 -88 -28.5 -150
t-76.5 -85q-48 -21 -94 -21q-22 0 -54 5z" />
    <glyph glyph-name="uni201F" unicode="&#x201f;" horiz-adv-x="923" 
d="M745 1061l15 -107q-24 -4 -52 -4q-123 0 -172 105q-29 61 -29 150v274h253v-264h-131q0 -11 -2 -29v-6q0 -57 27.5 -88.5t77.5 -31.5q8 0 13 1zM402 1061l15 -107q-24 -4 -52 -4q-123 0 -172 105q-29 61 -29 150v274h253v-264h-131q0 -11 -2 -29v-6q0 -57 27.5 -88.5
t77.5 -31.5q8 0 13 1z" />
    <glyph glyph-name="dagger" unicode="&#x2020;" horiz-adv-x="1105" 
d="M677 0h-247v912h-307v194h307v369h247v-369h306v-194h-306v-912z" />
    <glyph glyph-name="daggerdbl" unicode="&#x2021;" horiz-adv-x="947" 
d="M597 0h-247v447h-225v194h225v255h-225v194h225v385h247v-385h227v-194h-227v-255h227v-194h-227v-447z" />
    <glyph glyph-name="bullet" unicode="&#x2022;" horiz-adv-x="1440" 
d="M726 355q-81 0 -149 38.5t-107 105.5q-40 65 -40 146t39.5 148t108.5 105q67 37 148 37q77 0 142 -37.5t104 -104.5q39 -66 39 -148q0 -79 -39 -146.5t-104 -105.5q-64 -38 -142 -38z" />
    <glyph glyph-name="ellipsis" unicode="&#x2026;" horiz-adv-x="1454" 
d="M417 0h-253v253h253v-253zM854 0h-253v253h253v-253zM1290 0h-253v253h253v-253z" />
    <glyph glyph-name="perthousand" unicode="&#x2030;" horiz-adv-x="2686" 
d="M492 768q-100 0 -184.5 48.5t-134.5 134.5q-50 82 -50 186q0 98 50 182.5t136 135.5q82 50 183 50q100 0 184.5 -48.5t134.5 -134.5q49 -83 49 -185q0 -100 -49 -185t-134 -135q-83 -49 -185 -49zM1660 1310l-1312 -1310l-164 164l1312 1311zM492 979q64 0 110.5 47
t46.5 111t-46.5 110.5t-110.5 46.5t-111 -46.5t-47 -110.5t47 -111t111 -47zM1353 -31q-100 0 -184.5 49t-134.5 135q-50 82 -50 185q0 98 50 182.5t136 135.5q84 51 183 51q100 0 184 -49t135 -135q49 -83 49 -185q0 -100 -49 -185t-134 -135q-83 -49 -185 -49zM2195 -31
q-100 0 -184 49t-134 135q-50 82 -50 185q0 98 50 182.5t136 135.5q84 51 182 51q100 0 184.5 -49t135.5 -135q49 -83 49 -185q0 -100 -49 -185t-134 -135q-83 -49 -186 -49zM1353 180q63 0 110 47t47 111t-47 111t-110 47t-111 -47.5t-48 -110.5t48 -110.5t111 -47.5z
M2195 180q64 0 111 47t47 111t-47 111t-111 47t-110.5 -47t-46.5 -111t46.5 -111t110.5 -47z" />
    <glyph glyph-name="guilsinglleft" unicode="&#x2039;" horiz-adv-x="1305" 
d="M932 306l-154 -152l-491 491l491 492l154 -153l-350 -339z" />
    <glyph glyph-name="guilsinglright" unicode="&#x203a;" horiz-adv-x="1305" 
d="M527 154l-153 152l350 339l-350 339l153 153l492 -492z" />
    <glyph glyph-name="fraction" unicode="&#x2044;" horiz-adv-x="528" 
d="M841 1377l-1009 -1377l-144 108l1009 1379z" />
    <glyph glyph-name="uni2060" unicode="&#x2060;" horiz-adv-x="0" 
 />
    <glyph glyph-name="uni2070" unicode="&#x2070;" horiz-adv-x="1037" 
d="M519 530q-176 0 -276 126t-100 357t100 356.5t276 125.5t275.5 -125.5t99.5 -356.5t-99.5 -357t-275.5 -126zM519 681q100 0 153 88t53 244t-53 244t-153 88q-101 0 -153.5 -87.5t-52.5 -244.5q0 -156 52.5 -244t153.5 -88z" />
    <glyph glyph-name="uni2074" unicode="&#x2074;" horiz-adv-x="901" 
d="M709 553h-160v162h-447v148l295 612h176l-295 -612h271v285h160v-285h90v-148h-90v-162z" />
    <glyph glyph-name="uni2075" unicode="&#x2075;" horiz-adv-x="915" 
d="M812 839q0 -143 -95 -225t-248 -82q-139 0 -239 73t-128 222l166 25q32 -170 204 -170q76 0 124.5 44t48.5 107q0 70 -46.5 107.5t-129.5 37.5h-304l31 497h553v-150h-403l-12 -198h138q163 0 251.5 -76.5t88.5 -211.5z" />
    <glyph glyph-name="uni2076" unicode="&#x2076;" horiz-adv-x="968" 
d="M504 526q-97 0 -168 33t-111.5 92t-59.5 129.5t-21 157.5q-6 289 82 422t283 133q282 0 349 -257l-164 -27q-21 70 -64 102t-117 32q-208 0 -211 -270v-33q68 99 235 99q142 0 231 -76.5t89 -226.5q0 -149 -101 -229.5t-252 -80.5zM504 677q87 0 135 40.5t48 111.5
t-48 112.5t-135 41.5t-136 -41.5t-49 -112.5q0 -70 48.5 -111t136.5 -41z" />
    <glyph glyph-name="uni2077" unicode="&#x2077;" horiz-adv-x="793" 
d="M332 553h-175l360 772h-435v150h609v-150z" />
    <glyph glyph-name="uni2078" unicode="&#x2078;" horiz-adv-x="939" 
d="M470 1493q143 0 231.5 -73t88.5 -207q0 -63 -29.5 -115t-82.5 -76q60 -19 99.5 -77t39.5 -125q0 -143 -95 -218.5t-252 -75.5t-251.5 75.5t-94.5 218.5q0 67 39.5 125t99.5 78q-53 23 -82 74.5t-29 115.5q0 134 87.5 207t230.5 73zM470 1094q79 0 117 35t38 86
q0 60 -43 94t-112 34t-111 -34t-42 -94q0 -51 37 -86t116 -35zM470 942q-87 0 -132.5 -33t-45.5 -96q0 -64 46 -100t132 -36t132.5 36t46.5 100q0 62 -46 95.5t-133 33.5z" />
    <glyph glyph-name="uni2079" unicode="&#x2079;" horiz-adv-x="968" 
d="M465 1493q97 0 168.5 -33t111.5 -92t59 -129.5t20 -157.5q6 -290 -81.5 -422.5t-282.5 -132.5q-139 0 -227.5 65t-120.5 192l162 27q21 -70 64.5 -101.5t117.5 -31.5q208 0 211 269v33q-68 -98 -235 -98q-142 0 -231 77t-89 227q0 76 28.5 136t77.5 97t112 56t135 19z
M465 1343q-87 0 -135 -41t-48 -112t48 -112.5t135 -41.5t135.5 41.5t48.5 112.5t-48.5 112t-135.5 41z" />
    <glyph glyph-name="uni2080" unicode="&#x2080;" horiz-adv-x="1037" 
d="M519 -23q-176 0 -276 126t-100 357t100 356.5t276 125.5t275.5 -125.5t99.5 -356.5t-99.5 -357t-275.5 -126zM519 128q100 0 153 88t53 244t-53 244t-153 88q-101 0 -153.5 -87.5t-52.5 -244.5q0 -156 52.5 -244t153.5 -88z" />
    <glyph glyph-name="uni2081" unicode="&#x2081;" horiz-adv-x="779" 
d="M534 0h-160v737l-172 -103l-79 137l251 151h160v-922z" />
    <glyph glyph-name="uni2082" unicode="&#x2082;" horiz-adv-x="876" 
d="M117 0v151l389 343q54 48 77 85t23 83q0 66 -42.5 98.5t-111.5 32.5q-72 0 -118.5 -39.5t-60.5 -111.5l-171 30q30 129 121.5 199.5t226.5 70.5q144 0 235 -71t88 -212q-2 -146 -136 -264l-279 -244h415v-151h-656z" />
    <glyph glyph-name="uni2083" unicode="&#x2083;" horiz-adv-x="916" 
d="M794 285q0 -143 -95.5 -225.5t-248.5 -82.5q-140 0 -240 73t-128 223l166 25q33 -171 206 -171q76 0 124 44.5t48 107.5q0 71 -46 108t-130 37h-109v128l219 220h-427v150h623v-150l-226 -224q129 -14 196.5 -80t67.5 -183z" />
    <glyph glyph-name="uni2084" unicode="&#x2084;" horiz-adv-x="901" 
d="M709 0h-160v162h-447v148l295 612h176l-295 -612h271v285h160v-285h90v-148h-90v-162z" />
    <glyph glyph-name="uni2085" unicode="&#x2085;" horiz-adv-x="915" 
d="M812 286q0 -143 -95 -224.5t-248 -81.5q-139 0 -239 72.5t-128 221.5l166 25q32 -170 204 -170q76 0 124.5 44t48.5 107q0 70 -46.5 107.5t-129.5 37.5h-304l31 497h553v-150h-403l-12 -198h138q163 0 251.5 -76.5t88.5 -211.5z" />
    <glyph glyph-name="uni2086" unicode="&#x2086;" horiz-adv-x="968" 
d="M504 -27q-97 0 -168 33t-111.5 92t-59.5 129.5t-21 157.5q-6 289 82 422t283 133q282 0 349 -257l-164 -27q-21 70 -64 102.5t-117 32.5q-208 0 -211 -271v-33q68 99 235 99q142 0 231 -76.5t89 -226.5q0 -149 -101 -229.5t-252 -80.5zM504 124q87 0 135 40.5t48 111.5
t-48 112.5t-135 41.5t-136 -41.5t-49 -112.5q0 -70 48.5 -111t136.5 -41z" />
    <glyph glyph-name="uni2087" unicode="&#x2087;" horiz-adv-x="793" 
d="M332 0h-175l360 772h-435v150h609v-150z" />
    <glyph glyph-name="uni2088" unicode="&#x2088;" horiz-adv-x="939" 
d="M470 940q143 0 231.5 -73t88.5 -207q0 -63 -29.5 -115t-82.5 -76q60 -19 99.5 -77t39.5 -125q0 -143 -95 -218.5t-252 -75.5t-251.5 75.5t-94.5 218.5q0 67 39.5 125t99.5 78q-53 23 -82 74.5t-29 115.5q0 134 87.5 207t230.5 73zM470 541q79 0 117 35.5t38 86.5
q0 60 -43 94t-112 34t-111 -34t-42 -94q0 -51 37.5 -86.5t115.5 -35.5zM470 389q-87 0 -132.5 -33t-45.5 -96q0 -64 46 -100t132 -36t132.5 36t46.5 100q0 62 -46 95.5t-133 33.5z" />
    <glyph glyph-name="uni2089" unicode="&#x2089;" horiz-adv-x="968" 
d="M465 940q97 0 168.5 -33t111.5 -92t59 -129.5t20 -157.5q6 -290 -81.5 -422.5t-282.5 -132.5q-139 0 -227.5 65t-120.5 192l162 27q21 -70 64.5 -101.5t117.5 -31.5q208 0 211 269v33q-68 -98 -235 -98q-142 0 -231 77t-89 227q0 76 28.5 136t77.5 97t112 56t135 19z
M465 791q-87 0 -135 -41.5t-48 -112.5t48 -112.5t135 -41.5t135.5 41.5t48.5 112.5t-48.5 112.5t-135.5 41.5z" />
    <glyph glyph-name="franc" unicode="&#x20a3;" horiz-adv-x="1169" 
d="M239 215h-178v194h178v1066h889v-232h-641v-425h519v-231h-519v-178h289v-194h-289v-215h-248v215z" />
    <glyph glyph-name="uni20A9" unicode="&#x20a9;" horiz-adv-x="2073" 
d="M305 641h-244v194l188 -1l-188 641h260l176 -640h234l176 638l259 2l176 -640l234 -1l177 641h259l-187 -640h187v-194l-244 -1l-187 -640h-244l-183 640h-234l-185 -640h-243zM1036 1049l-61 -214h123zM550 640l63 -230l64 231zM1396 640l63 -230l64 231z" />
    <glyph glyph-name="uni20AA" unicode="&#x20aa;" horiz-adv-x="1754" 
d="M370 0h-247v1475h596q57 0 118 -9q184 -29 279.5 -155t95.5 -317v-591h-249v591q0 85 -39.5 152t-121.5 88q-37 9 -93 9h-339v-1243zM1384 1475h247v-1475h-596q-63 0 -117 8q-184 30 -280 155.5t-96 316.5v591h249v-591q0 -84 39.5 -150.5t121.5 -88.5q42 -10 94 -10
h338v1244z" />
    <glyph glyph-name="dong" unicode="&#x20ab;" horiz-adv-x="1263" 
d="M587 275q-304 0 -434 179q-71 95 -71 247q0 157 72 254q73 98 187 140q115 42 255 42q172 0 275 -60v190h-166v191h166v83h249v-83h131v-191h-131v-970h-218v60q-114 -82 -315 -82zM616 487q286 0 286 214t-286 214q-122 0 -197 -48q-76 -50 -76 -166q0 -214 273 -214z
M1153 0h-976v186h976v-186z" />
    <glyph glyph-name="Euro" unicode="&#x20ac;" horiz-adv-x="1510" 
d="M227 452h-166v211h134q-2 25 -2 74t2 73h-134v210h166q60 227 216.5 356t385.5 129q232 0 382.5 -122t215.5 -349l-249 -68q-71 307 -349 307q-250 0 -337 -253h443v-210h-481q-2 -48 -2 -73q0 -24 2 -74h481v-211h-442q87 -250 336 -250q281 0 349 307l249 -69
q-65 -227 -215.5 -349t-382.5 -122q-228 0 -384.5 128.5t-217.5 354.5z" />
    <glyph glyph-name="uni20AE" unicode="&#x20ae;" horiz-adv-x="1242" 
d="M498 245l-239 -100v241l239 99v170l-239 -99v242l239 99v346h-478v232h1202v-232h-478v-244l240 100v-242l-240 -99v-169l240 99v-242l-240 -99v-347h-246v245z" />
    <glyph glyph-name="uni20B1" unicode="&#x20b1;" horiz-adv-x="1304" 
d="M174 997h-123v140h123v338h494q67 0 135 -9q240 -37 314 -272q11 -33 16 -57h132v-140h-114q1 -17 1 -52q0 -37 -1 -54h114v-138h-133q-3 -10 -9 -29.5t-7 -21.5q-77 -224 -313 -260q-61 -8 -135 -8h-247v-434h-247v753h-123v138h123v106zM421 1243v-106h456q-4 7 -21 34
q-33 49 -88 63q-39 9 -111 9h-236zM421 997v-106h488q2 34 2 53t-2 53h-488zM421 753v-108h236q67 0 111 11q51 14 85 61q10 13 21 36h-453z" />
    <glyph glyph-name="uni20B4" unicode="&#x20b4;" horiz-adv-x="1411" 
d="M79 804v168h857q64 45 64 112q0 83 -79 137t-197 52q-118 -3 -207.5 -68.5t-112.5 -178.5l-265 46q49 204 201.5 316.5t379.5 114.5q153 1 273.5 -46.5t193.5 -147t73 -237.5q0 -47 -12 -100h84v-168h-1253zM79 530v168h1253v-168h-873q-60 -45 -60 -117q0 -92 87 -152
t219 -60q136 0 236.5 72.5t132.5 201.5l257 -39q-35 -216 -200.5 -341.5t-410.5 -125.5q-92 0 -176.5 18t-158 56t-128 91.5t-85.5 129.5t-31 165q0 52 13 101h-75z" />
    <glyph glyph-name="uni20B9" unicode="&#x20b9;" horiz-adv-x="1265" 
d="M717 0l-574 515v230h342q54 0 95 11q108 28 145 139q1 1 1 3t1 3h-576v188h576q-1 1 -1 3t-1 3q-37 111 -145 139q-39 9 -95 9h-342v232h1014v-187h-246q25 -40 37 -70q26 -62 35 -129h180v-188h-180q-17 -122 -80 -211q-88 -122 -256 -161q-67 -14 -152 -14h-14
l580 -515h-344z" />
    <glyph glyph-name="uni20BA" unicode="&#x20ba;" horiz-adv-x="1351" 
d="M272 0v557l-190 -80v238l190 80v173l-190 -79v237l190 79v270h247v-167l288 119v-237l-288 -120v-173l288 120v-239l-288 -119v-429q16 -4 42 -4q24 0 57 5q176 24 273.5 156.5t97.5 337.5h240q0 -408 -258 -611q-130 -103 -323 -130q-86 -12 -150 -12q-114 0 -226 28z
" />
    <glyph glyph-name="uni20BD" unicode="&#x20bd;" horiz-adv-x="1402" 
d="M238 0v201h-146v193h146v158h-146v193h146v730h581q259 0 390.5 -116.5t131.5 -344.5t-132 -345t-390 -117h-334v-158h532v-193h-532v-201h-247zM485 1243v-498h332q133 0 204.5 64.5t71.5 184.5q0 121 -71 185t-205 64h-332z" />
    <glyph glyph-name="uni20BF" unicode="&#x20bf;" horiz-adv-x="1295" 
d="M517 -204h-204v204h-170v1475h170v202h204v-202h161v202h204v-225q141 -36 222.5 -128.5t81.5 -236.5q0 -121 -64 -208.5t-148 -117.5q41 -7 85 -33.5t84 -69.5t65.5 -108t25.5 -139q0 -164 -95 -263.5t-257 -131.5v-220h-204v204h-161v-204zM701 1243h-310v-370h321
q102 0 163 44t61 143q0 183 -235 183zM391 231h321q59 0 104 8.5t85.5 30.5t62.5 64.5t22 104.5q0 207 -266 207h-329v-415z" />
    <glyph glyph-name="uni2116" unicode="&#x2116;" horiz-adv-x="2317" 
d="M1846 768q-100 0 -184 48.5t-134 134.5q-50 82 -50 186q0 98 50 182.5t136 135.5q82 50 182 50t185 -48.5t135 -134.5q49 -83 49 -185q0 -100 -49 -185t-134 -135q-83 -49 -186 -49zM391 0h-248v1475h248l687 -1049v1049h249v-1475h-249l-687 1049v-1049zM1846 979
q64 0 111 47t47 111t-47 110.5t-111 46.5t-110.5 -46.5t-46.5 -110.5t46.5 -111t110.5 -47zM2153 484h-614v194h614v-194z" />
    <glyph glyph-name="trademark" unicode="&#x2122;" horiz-adv-x="1885" 
d="M1119 707h-167v768h141l264 -414l264 414h140l1 -768h-168v441l-189 -305h-96l-190 305v-441zM554 707h-175v610h-256v158h686v-158h-255v-610z" />
    <glyph glyph-name="arrowleft" unicode="&#x2190;" horiz-adv-x="2071" 
d="M683 743h1102v-193h-1104l251 -244l-154 -152l-491 491l491 493l154 -153z" />
    <glyph glyph-name="arrowup" unicode="&#x2191;" horiz-adv-x="1475" 
d="M834 0h-194v1078l-242 -249l-152 154l491 492l493 -492l-153 -154l-243 251v-1080z" />
    <glyph glyph-name="arrowright" unicode="&#x2192;" horiz-adv-x="2071" 
d="M287 549v193h1102l-249 242l153 153l492 -492l-492 -491l-153 152l251 243h-1104z" />
    <glyph glyph-name="arrowdown" unicode="&#x2193;" horiz-adv-x="1475" 
d="M640 1475h194v-1081l243 251l153 -153l-493 -492l-491 492l152 153l242 -249v1079z" />
    </font>
</defs>
</svg>
