<?xml version="1.0" standalone="no"?>
<!DOCTYPE svg PUBLIC "-//W3C//DTD SVG 1.1//EN" "http://www.w3.org/Graphics/SVG/1.1/DTD/svg11.dtd" >
<svg xmlns="http://www.w3.org/2000/svg" xmlns:xlink="http://www.w3.org/1999/xlink" version="1.1">
<metadata>
Created by FontForge 20201107 at Tue Apr  2 15:09:29 2024
 By 
Copyright 2019 The Manrope Project Authors (https://github.com/sharanda/manrope)
Copyright 2021 The Vela Sans Project - Ravid Balaliev
</metadata>
<defs>
<font id="VelaSans-ExtraLight" horiz-adv-x="1173" >
  <font-face 
    font-family="Vela Sans ExtLt"
    font-weight="200"
    font-stretch="normal"
    units-per-em="2048"
    panose-1="0 0 0 0 0 0 0 0 0 0"
    ascent="1638"
    descent="-410"
    x-height="1106"
    cap-height="1475"
    bbox="-410 -522 2585 2177"
    underline-thickness="51"
    underline-position="-101"
    unicode-range="U+000A-FB02"
  />
<missing-glyph horiz-adv-x="1515" 
d="M1311 1448h-1106v27h1106v-27zM1311 1329h-1106v33h1106v-33zM1311 1212h-1106v37h1106v-37zM1311 1092h-1106v43h1106v-43zM1311 975h-1106v45h1106v-45zM1311 858h-1106v49h1106v-49zM1311 737h-1106v58h1106v-58zM1311 621h-1106v61h1106v-61zM1311 502h-1106v67h1106
v-67zM1311 383h-1106v72h1106v-72zM1311 266h-1106v76h1106v-76zM1311 147h-1106v82h1106v-82zM1311 0h-1106v117h1106v-117z" />
    <glyph glyph-name="uniE001" unicode="&#x28;c&#x29;" horiz-adv-x="1736" 
d="M868 -10q-190 0 -353 95q-163 93 -256 256q-95 163 -95 353q0 191 95 354q93 162 256 257q164 94 353 94q190 0 354 -94q162 -95 257 -257q94 -164 94 -354q0 -189 -94 -353q-95 -163 -257 -256q-163 -95 -354 -95zM868 80q166 0 308 83q141 82 223 224q82 143 82 309
q0 165 -82 308q-83 140 -223 223q-143 82 -308 82q-166 0 -309 -82q-142 -82 -224 -223q-83 -142 -83 -308q0 -167 83 -309q81 -143 224 -224q142 -83 309 -83zM872 266q-185 0 -288 131q-88 111 -88 301q5 191 88 297q105 131 293 131q113 0 198 -51q100 -62 133 -164
l-84 -28q-30 70 -100 118q-60 41 -150 41q-137 0 -217 -102q-67 -85 -67 -240q0 -156 67 -247q75 -103 215 -103q87 0 154 41q59 38 96 117l86 -31q-46 -102 -127 -153q-93 -58 -209 -58z" />
    <glyph glyph-name="uniE002" unicode="&#x20;&#x3c;&#x33;&#x20;" horiz-adv-x="2398" 
d="M1200 -31q-40 0 -65 27l-457 481q-105 114 -105 263q0 1 0.5 11.5t1 32t0.5 44.5q1 80 103 195q100 114 250 114q135 0 272 -113q125 113 268 113q153 0 253 -115q102 -117 103 -196q1 -54 1 -84q0 -152 -107 -265l-456 -481q-25 -27 -62 -27zM1200 55l457 482
q81 87 81 203q0 26 -1 68q-1 62 -78 154q-77 89 -191 89q-139 0 -268 -146q-146 146 -272 146q-115 0 -190 -90q-73 -88 -75 -153q-1 -42 -1 -67q0 -119 79 -204z" />
    <glyph glyph-name="uniE003" unicode="&#x28;&#x3e;&#x29;" horiz-adv-x="2355" 
d="M1178 -276q-276 0 -508 136t-369 369t-137 508t137 508q137 234 369 370t508 136t508 -136t369 -370q136 -232 136 -508t-136 -508q-137 -233 -369 -369t-508 -136zM1182 -186q251 0 462 124q211 125 334 336q123 213 123 467q0 252 -124 461q-125 210 -335 335
q-209 124 -460 124q-254 0 -467 -123q-212 -124 -337 -335q-124 -211 -124 -462q0 -255 124 -467q123 -211 337 -336q212 -124 467 -124zM1053 1044l368 -307l-368 -307v614z" />
    <glyph glyph-name="uniE007" unicode="ff" horiz-adv-x="1286" 
d="M262 1020h-201v86h201v130q0 128 70.5 198.5t197.5 70.5h144v-78h-133q-104 0 -148.5 -46.5t-44.5 -157.5v-117h506v130q0 128 70.5 198.5t197.5 70.5h144v-78h-133q-104 0 -148.5 -46.5t-44.5 -157.5v-117h326v-86h-326v-1020h-86v1020h-506v-1020h-86v1020z" />
    <glyph glyph-name="uniE008" unicode="ffl" horiz-adv-x="1781" 
d="M1618 0h-86v1020h-592v-1020h-86v1020h-506v-1020h-86v1020h-201v86h201v130q0 128 70.5 198.5t197.5 70.5h144v-78h-133q-104 0 -148.5 -46.5t-44.5 -157.5v-117h506v130q0 128 70.5 198.5t197.5 70.5h144v-78h-133q-104 0 -148.5 -46.5t-44.5 -157.5v-117h592v399h86
v-1505z" />
    <glyph glyph-name="uniE009" unicode="tt" horiz-adv-x="1429" 
d="M20 1020v86h261v370h86v-370h567v370h86v-370h348v-86h-348v-737q0 -110 42 -153.5t150 -43.5h156v-86h-187q-114 0 -180.5 66.5t-66.5 180.5v773h-567v-737q0 -110 42 -153.5t150 -43.5h156v-86h-188q-114 0 -180 66.5t-66 180.5v773h-261z" />
    <glyph glyph-name="fi" unicode="fi" horiz-adv-x="1138" 
d="M262 1020h-201v86h201v130q0 128 70.5 198.5t197.5 70.5h144v-78h-133q-104 0 -148.5 -46.5t-44.5 -157.5v-117h326v-86h-326v-1020h-86v1020zM975 1343h-86v132h86v-132zM975 0h-86v1106h86v-1106z" />
    <glyph glyph-name="fl" unicode="fl" horiz-adv-x="1189" 
d="M262 1020h-201v86h201v130q0 128 70.5 198.5t197.5 70.5h144v-78h-133q-104 0 -148.5 -46.5t-44.5 -157.5v-117h592v399h86v-1505h-86v1020h-592v-1020h-86v1020z" />
    <glyph glyph-name="hyphen_hyphen.liga" unicode="&#x2d;&#x2d;" horiz-adv-x="1105" 
d="M983 602h-860v86h860v-86z" />
    <glyph glyph-name="hyphen_greater.liga" unicode="&#x2d;&#x3e;" horiz-adv-x="2035" 
d="M287 602v86h1306l-374 375l57 55l473 -473l-473 -473l-57 55l374 375h-1306z" />
    <glyph glyph-name="less_hyphen.liga" unicode="&#x3c;&#x2d;" horiz-adv-x="2035" 
d="M442 688h1307v-86h-1307l375 -375l-57 -55l-473 473l473 473l57 -55z" />
    <glyph glyph-name=".notdef" horiz-adv-x="1515" 
d="M1311 1448h-1106v27h1106v-27zM1311 1329h-1106v33h1106v-33zM1311 1212h-1106v37h1106v-37zM1311 1092h-1106v43h1106v-43zM1311 975h-1106v45h1106v-45zM1311 858h-1106v49h1106v-49zM1311 737h-1106v58h1106v-58zM1311 621h-1106v61h1106v-61zM1311 502h-1106v67h1106
v-67zM1311 383h-1106v72h1106v-72zM1311 266h-1106v76h1106v-76zM1311 147h-1106v82h1106v-82zM1311 0h-1106v117h1106v-117z" />
    <glyph glyph-name=".null" horiz-adv-x="0" 
 />
    <glyph glyph-name="uni000D" unicode="&#xd;" horiz-adv-x="1228" 
 />
    <glyph glyph-name="uni000A" unicode="&#xa;" horiz-adv-x="683" 
 />
    <glyph glyph-name="space" unicode=" " horiz-adv-x="409" 
 />
    <glyph glyph-name="exclam" unicode="!" horiz-adv-x="577" 
d="M332 369h-86v1106h86v-1106zM332 0h-86v131h86v-131z" />
    <glyph glyph-name="quotedbl" unicode="&#x22;" horiz-adv-x="700" 
d="M209 1106h-86v369h86v-369zM496 1106h-86v369h86v-369z" />
    <glyph glyph-name="numbersign" unicode="#" horiz-adv-x="1869" 
d="M532 0h-88l125 473h-446l22 86h449l102 387h-446l22 86h449l117 443h90l-119 -443h403l117 443h90l-119 -443h447l-23 -86h-446l-104 -387h446l-23 -86h-446l-127 -473h-88l125 473h-402zM786 946l-104 -387h403l103 387h-402z" />
    <glyph glyph-name="dollar" unicode="$" horiz-adv-x="1206" 
d="M590 -205v175q-207 11 -349.5 117t-179.5 280l86 16q40 -152 170 -240t316 -88q194 0 311 90.5t117 239.5q0 206 -268 285l-369 110q-305 90 -305 338q0 161 121 268t317 118v175h86v-175q200 -12 335 -128t161 -301l-86 -16q-22 161 -147 260.5t-306 99.5
q-171 0 -280 -85.5t-109 -213.5q0 -101 65.5 -160.5t229.5 -109.5l305 -92q163 -50 248.5 -145t85.5 -228q0 -181 -126.5 -292.5t-342.5 -122.5v-175h-86z" />
    <glyph glyph-name="percent" unicode="%" horiz-adv-x="1847" 
d="M492 768q-100 0 -184.5 48.5t-134.5 134.5q-50 82 -50 186q0 98 50 182.5t136 135.5q82 50 183 50q100 0 184.5 -48.5t134.5 -134.5q49 -83 49 -185q0 -100 -49 -185t-134 -135q-83 -49 -185 -49zM1663 1415l-1417 -1415l-62 61l1418 1414zM492 854q75 0 140.5 38
t103.5 104q38 63 38 141q0 75 -38 140t-103 104q-64 38 -141 38q-75 0 -140 -38t-104 -103q-39 -66 -39 -141t38 -140.5t104 -103.5q64 -39 141 -39zM1356 -31q-100 0 -184.5 49t-134.5 135q-50 82 -50 185q0 98 50.5 182.5t136.5 135.5q84 51 182 51q100 0 184 -49
t135 -135q49 -83 49 -185q0 -100 -49 -185t-134 -135q-83 -49 -185 -49zM1356 55q75 0 140.5 38.5t104.5 104.5q37 61 37 140q0 75 -38 141t-103 104q-64 38 -141 38q-75 0 -140 -38.5t-104 -103.5q-39 -66 -39 -141t38 -140.5t104 -103.5q65 -39 141 -39z" />
    <glyph glyph-name="ampersand" unicode="&#x26;" horiz-adv-x="1310" 
d="M1223 0l-168 157q-114 -188 -426 -188q-233 0 -377 114.5t-150 305.5q-4 142 67 246.5t205 155.5q-100 93 -140.5 168t-40.5 169q0 169 112.5 273t296.5 104q138 0 240.5 -55.5t148.5 -155.5l-80 -37q-32 75 -113 118.5t-188 43.5q-152 0 -240 -76.5t-88 -209.5
q0 -81 42.5 -149.5t158.5 -176.5l533 -497q8 50 8 100v266h92v-266q0 -93 -23 -170l187 -175zM625 55q282 0 362 165l-541 503q-125 -35 -189.5 -120.5t-61.5 -211.5q4 -152 121.5 -244t308.5 -92z" />
    <glyph glyph-name="quotesingle" unicode="'" horiz-adv-x="372" 
d="M209 1106h-86v369h86v-369z" />
    <glyph glyph-name="parenleft" unicode="(" horiz-adv-x="835" 
d="M743 -297l-63 -55q-183 207 -288 479t-105 549t105 549t288 479l63 -53q-175 -206 -275 -462q-99 -250 -99 -513q0 -252 101.5 -515t272.5 -458z" />
    <glyph glyph-name="parenright" unicode=")" horiz-adv-x="835" 
d="M156 -352l-64 55q171 195 273 458t102 515q0 262 -98 513q-101 255 -277 462l64 53q183 -207 288 -479t105 -549t-105 -549t-288 -479z" />
    <glyph glyph-name="asterisk" unicode="*" horiz-adv-x="856" 
d="M397 1061l-166 -227l-69 51l166 227l-267 86l27 82l266 -86v281h86v-281l267 86l26 -82l-266 -86l164 -227l-70 -51z" />
    <glyph glyph-name="plus" unicode="+" horiz-adv-x="1187" 
d="M637 266h-86v428h-428v86h428v428h86v-428h428v-86h-428v-428z" />
    <glyph glyph-name="comma" unicode="," horiz-adv-x="491" 
d="M123 -182l6 53h7q18 0 29.5 6.5t16.5 20.5t6.5 27t1.5 34v18v23h-67v184h123v-245q0 -42 -16.5 -73.5t-40.5 -41.5q-22 -9 -41 -9q-12 0 -25 3z" />
    <glyph glyph-name="hyphen" unicode="-" horiz-adv-x="860" 
d="M737 602h-614v86h614v-86z" />
    <glyph glyph-name="period" unicode="." horiz-adv-x="450" 
d="M287 0h-123v123h123v-123z" />
    <glyph glyph-name="slash" unicode="/" horiz-adv-x="731" 
d="M516 1475h92l-393 -1475h-92z" />
    <glyph glyph-name="zero" unicode="0" horiz-adv-x="1405" 
d="M702 -31q-272 0 -415.5 204t-143.5 564t143.5 564t415.5 204t416.5 -204t144.5 -564t-144.5 -564t-416.5 -204zM702 55q219 0 343.5 174t124.5 508t-124.5 508t-343.5 174t-342.5 -173t-123.5 -509q0 -333 123.5 -507.5t342.5 -174.5z" />
    <glyph glyph-name="one" unicode="1" horiz-adv-x="776" 
d="M530 0h-86v1374l-278 -168l-43 75l321 194h86v-1475z" />
    <glyph glyph-name="two" unicode="2" 
d="M136 0v86l628 628q219 219 219 406q0 131 -104 215t-266 84q-171 0 -289 -99t-139 -261l-83 16q26 195 166 312.5t345 117.5q201 0 329.5 -108.5t128.5 -278.5q0 -219 -215 -434l-599 -598h814v-86h-935z" />
    <glyph glyph-name="three" unicode="3" horiz-adv-x="1233" 
d="M1111 429q0 -200 -138.5 -330t-358.5 -130q-429 0 -532 398l82 16q55 -173 159.5 -250.5t290.5 -77.5q183 0 296.5 105t113.5 268q0 169 -103 255t-307 86h-119v86l452 534h-780v86h893v-86l-453 -534h7q238 0 367.5 -109t129.5 -317z" />
    <glyph glyph-name="four" unicode="4" horiz-adv-x="1243" 
d="M995 0h-86v313h-807v86l522 1076h95l-521 -1076h711v553h86v-553h146v-86h-146v-313z" />
    <glyph glyph-name="five" unicode="5" horiz-adv-x="1233" 
d="M1132 429q0 -200 -138.5 -330t-358.5 -130q-430 0 -533 398l82 16q55 -173 160 -250.5t291 -77.5q183 0 296 105t113 268q0 341 -409 341h-421l44 706h781v-86h-700l-34 -534h330q238 0 367.5 -109t129.5 -317z" />
    <glyph glyph-name="six" unicode="6" horiz-adv-x="1366" 
d="M693 -31q-288 0 -419 166.5t-131 532.5q0 435 129.5 636t409.5 201q214 0 345 -106t169 -310l-85 -15q-36 178 -142 261.5t-296 83.5q-220 0 -327.5 -165t-115.5 -515l-1 -44q47 114 172.5 180.5t291.5 66.5q244 0 387 -131t143 -355q0 -225 -142.5 -356t-387.5 -131z
M693 55q205 0 321 106.5t116 294.5q0 187 -116.5 293.5t-320.5 106.5t-320 -106.5t-116 -293.5q0 -188 115.5 -294.5t320.5 -106.5z" />
    <glyph glyph-name="seven" unicode="7" horiz-adv-x="1046" 
d="M299 0h-92l645 1386h-770v89h862v-89z" />
    <glyph glyph-name="eight" unicode="8" horiz-adv-x="1269" 
d="M635 1505q212 0 340 -109t128 -289q0 -118 -63 -211.5t-169 -133.5q121 -26 198.5 -125.5t77.5 -229.5q0 -194 -142.5 -316t-369.5 -122t-369.5 122t-142.5 316q0 130 77 229.5t198 125.5q-106 40 -168.5 133.5t-62.5 211.5q0 180 128 289t340 109zM635 804
q172 0 276.5 84t104.5 222q0 141 -103.5 225t-277.5 84t-277.5 -84t-103.5 -225q0 -138 104.5 -222t276.5 -84zM635 718q-198 0 -311.5 -83.5t-113.5 -228.5q0 -157 117 -254t308 -97q190 0 307 96.5t117 254.5q0 146 -113 229t-311 83z" />
    <glyph glyph-name="nine" unicode="9" horiz-adv-x="1366" 
d="M673 1505q288 0 419 -166t131 -532q0 -435 -129.5 -636.5t-409.5 -201.5q-214 0 -345 106.5t-169 310.5l85 14q36 -178 142 -261.5t296 -83.5q220 0 327.5 165t115.5 515l1 44q-47 -114 -172.5 -180.5t-291.5 -66.5q-243 0 -386.5 131t-143.5 356t142.5 355.5
t387.5 130.5zM673 1419q-205 0 -321 -106t-116 -294q0 -187 116.5 -294t320.5 -107t320 106.5t116 294.5t-115.5 294t-320.5 106z" />
    <glyph glyph-name="colon" unicode=":" horiz-adv-x="552" 
d="M348 983h-123v123h123v-123zM348 0h-123v123h123v-123z" />
    <glyph glyph-name="semicolon" unicode=";" horiz-adv-x="573" 
d="M348 983h-123v123h123v-123zM225 -182l6 53h8q18 0 29.5 6.5t16.5 20.5t6.5 27t1.5 34v18v23h-68v184h123v-245q0 -42 -16 -73.5t-40 -41.5q-22 -9 -41 -9q-13 0 -26 3z" />
    <glyph glyph-name="less" unicode="&#x3c;" horiz-adv-x="1226" 
d="M817 227l-57 -55l-473 473l473 473l57 -55l-418 -418z" />
    <glyph glyph-name="equal" unicode="=" horiz-adv-x="1536" 
d="M1290 856h-1044v86h1044v-86zM1290 532h-1044v86h1044v-86z" />
    <glyph glyph-name="greater" unicode="&#x3e;" horiz-adv-x="1226" 
d="M467 172l-57 55l417 418l-417 418l57 55l473 -473z" />
    <glyph glyph-name="question" unicode="?" horiz-adv-x="1233" 
d="M1132 1046q0 -198 -118.5 -306.5t-335.5 -118.5v-252h-86v337h43q409 0 409 341q0 163 -113 267.5t-296 104.5q-187 0 -292 -77t-159 -250l-82 16q103 397 533 397q220 0 358.5 -129.5t138.5 -329.5zM678 0h-86v131h86v-131z" />
    <glyph glyph-name="at" unicode="@" horiz-adv-x="1594" 
d="M1352 212q-62 -117 -175 -180t-263 -63q-184 0 -286 82.5t-102 230.5q0 71 23.5 126t62 91.5t99.5 63t125.5 41t149.5 25.5l360 45v6q1 177 -124.5 274t-349.5 97q-178 0 -319.5 -87t-221 -243t-79.5 -352q0 -321 169.5 -501.5t471.5 -180.5q113 0 214 34t169 95l50 -73
q-182 -142 -429 -142q-342 0 -537.5 205.5t-195.5 562.5q0 220 91 395.5t254 274t368 98.5q257 0 406 -122t149 -333v-682h-80v212zM1346 587l-360 -45q-202 -26 -287 -85t-85 -175q0 -111 78 -169t229 -58q171 0 281 96.5t135 266.5q9 61 9 169z" />
    <glyph glyph-name="A" unicode="A" horiz-adv-x="1247" 
d="M670 1475l536 -1475h-92l-139 383h-703l-139 -383h-92l537 1475h92zM302 465h643l-322 886z" />
    <glyph glyph-name="B" unicode="B" horiz-adv-x="1196" 
d="M625 0h-482v1475h466q227 0 354.5 -92.5t127.5 -281.5q0 -130 -66.5 -216.5t-178.5 -125.5q118 -25 204.5 -120t86.5 -237q0 -207 -135.5 -304.5t-376.5 -97.5zM609 1389h-380v-587h443q146 0 236 79t90 224t-102.5 214.5t-286.5 69.5zM229 86h396q202 0 310.5 74
t108.5 244q0 151 -105.5 232.5t-266.5 81.5h-443v-632z" />
    <glyph glyph-name="C" unicode="C" horiz-adv-x="1433" 
d="M723 -31q-162 0 -288.5 56.5t-208 158.5t-123.5 242.5t-42 310.5t42 310.5t123.5 242.5t208 158.5t288.5 56.5q251 0 411.5 -131t217.5 -362l-90 -21q-51 201 -188 314.5t-351 113.5q-139 0 -248 -50t-179 -141.5t-106 -215.5t-36 -275t36 -275t106 -215.5t179 -141.5
t248 -50q214 0 351 113.5t188 314.5l90 -20q-57 -231 -217.5 -362.5t-411.5 -131.5z" />
    <glyph glyph-name="D" unicode="D" horiz-adv-x="1335" 
d="M545 0h-402v1475h402q352 0 530 -186t178 -552t-178 -551.5t-530 -185.5zM236 1389v-1303h299q322 0 474 158.5t152 492.5q0 333 -153 492.5t-473 159.5h-299z" />
    <glyph glyph-name="E" unicode="E" horiz-adv-x="1146" 
d="M1044 0h-901v1475h901v-86h-815v-609h693v-86h-693v-608h815v-86z" />
    <glyph glyph-name="F" unicode="F" horiz-adv-x="1095" 
d="M229 0h-86v1475h912v-86h-826v-639h693v-86h-693v-664z" />
    <glyph glyph-name="G" unicode="G" horiz-adv-x="1417" 
d="M1249 0v284q-62 -151 -199.5 -233t-331.5 -82q-309 0 -483 204t-174 564q0 359 176 562.5t486 203.5q193 0 338.5 -89.5t212.5 -264.5l-84 -35q-58 148 -181 225.5t-286 77.5q-274 0 -421.5 -179.5t-147.5 -512.5q0 -315 149 -492.5t415 -177.5q139 0 241 43t163.5 123
t91 187t29.5 243h-598v86h690v-737h-86z" />
    <glyph glyph-name="H" unicode="H" horiz-adv-x="1351" 
d="M229 0h-86v1475h86v-695h893v695h86v-1475h-86v694h-893v-694z" />
    <glyph glyph-name="I" unicode="I" horiz-adv-x="413" 
d="M250 0h-86v1475h86v-1475z" />
    <glyph glyph-name="J" unicode="J" horiz-adv-x="899" 
d="M367 -29q-134 0 -235 78t-132 207l88 20q24 -96 101 -157.5t182 -61.5q72 0 137 32.5t102 100.5q18 32 26 73t9.5 72.5t1.5 98.5v1041h86v-1041q0 -136 -9 -183q-10 -57 -38 -106q-49 -85 -132.5 -129.5t-186.5 -44.5z" />
    <glyph glyph-name="K" unicode="K" horiz-adv-x="1142" 
d="M229 770l729 705h119l-723 -705l789 -770h-119zM143 0v1475h86v-1475h-86z" />
    <glyph glyph-name="L" unicode="L" horiz-adv-x="1013" 
d="M983 0h-819v1475h86v-1389h733v-86z" />
    <glyph glyph-name="M" unicode="M" horiz-adv-x="1599" 
d="M229 0h-86v1475h82l576 -1237l569 1237h86v-1473h-86v1266l-522 -1135h-96l-523 1135v-1268z" />
    <glyph glyph-name="N" unicode="N" horiz-adv-x="1355" 
d="M229 0h-86v1475h86l897 -1323v1323h86v-1475h-86l-897 1323v-1323z" />
    <glyph glyph-name="O" unicode="O" horiz-adv-x="1445" 
d="M723 -31q-162 0 -288.5 56.5t-208 158.5t-123.5 242.5t-42 310.5t42 310.5t123.5 242.5t208 158.5t288.5 56.5t288.5 -56.5t207.5 -159t123 -242t42 -310.5t-42 -310.5t-123 -242t-207.5 -159t-288.5 -56.5zM723 55q139 0 248 50t179 141.5t106 215.5t36 275t-36 275
t-106 215.5t-179 141.5t-248 50t-247.5 -50t-178 -141.5t-105.5 -215.5t-38 -275q-2 -202 60.5 -354t193 -240t315.5 -88z" />
    <glyph glyph-name="P" unicode="P" horiz-adv-x="1189" 
d="M229 0h-86v1475h523q210 0 336 -121t126 -322q0 -200 -126 -321t-336 -121h-437v-590zM229 1389v-713h437q172 0 271 95.5t99 260.5t-99 261t-271 96h-437z" />
    <glyph glyph-name="Q" unicode="Q" horiz-adv-x="1445" 
d="M1305 -29l-149 148q-167 -150 -433 -150q-162 0 -288.5 56.5t-208 158.5t-123.5 242.5t-42 310.5t42 310.5t123.5 242.5t208 158.5t288.5 56.5t288.5 -56.5t207.5 -159t123 -242t42 -310.5q0 -348 -162 -550l148 -148zM723 55q227 0 368 129l-243 242l67 68l240 -240
q137 181 137 483q0 151 -36 275t-106 215.5t-179 141.5t-248 50t-247.5 -50t-178 -141.5t-105.5 -215.5t-38 -275q-2 -202 60.5 -354t193 -240t315.5 -88z" />
    <glyph glyph-name="R" unicode="R" horiz-adv-x="1251" 
d="M1066 0l-394 590h-6h-437v-590h-86v1475h523q210 0 336 -121t126 -322q0 -173 -96 -288.5t-262 -144.5l399 -599h-103zM229 1389v-713h437q172 0 271 95.5t99 260.5t-99 261t-271 96h-437z" />
    <glyph glyph-name="S" unicode="S" horiz-adv-x="1206" 
d="M633 -31q-224 0 -378 107t-194 291l86 16q40 -152 170 -240t316 -88q194 0 311 90.5t117 239.5q0 206 -268 285l-369 110q-305 90 -305 338q0 170 134 278.5t347 108.5q217 0 364 -117.5t175 -312.5l-86 -16q-22 161 -147 260.5t-306 99.5q-171 0 -280 -85.5t-109 -213.5
q0 -101 65.5 -160.5t229.5 -109.5l305 -92q163 -50 248.5 -145t85.5 -228q0 -190 -139 -303t-373 -113z" />
    <glyph glyph-name="T" unicode="T" horiz-adv-x="1054" 
d="M575 0h-86v1389h-469v86h1014v-86h-459v-1389z" />
    <glyph glyph-name="U" unicode="U" horiz-adv-x="1413" 
d="M707 -31q-260 0 -412 160t-152 434v912h86v-914q0 -238 127.5 -374t350.5 -136t350 136t127 374v914h86v-912q0 -275 -151.5 -434.5t-411.5 -159.5z" />
    <glyph glyph-name="V" unicode="V" horiz-adv-x="1185" 
d="M639 0h-92l-537 1475h92l490 -1351l491 1351h93z" />
    <glyph glyph-name="W" unicode="W" horiz-adv-x="1861" 
d="M553 0h-90l-422 1475h88l379 -1319l377 1319h90l379 -1319l377 1319h90l-422 -1475h-90l-379 1317z" />
    <glyph glyph-name="X" unicode="X" 
d="M123 0h-103l519 748l-506 727h102l451 -658l452 658h103l-506 -727l518 -748h-102l-465 676z" />
    <glyph glyph-name="Y" unicode="Y" horiz-adv-x="1062" 
d="M575 0h-86v627l-489 848h98l434 -750l433 750h98l-488 -848v-627z" />
    <glyph glyph-name="Z" unicode="Z" horiz-adv-x="1241" 
d="M1139 0h-1037v86l931 1303h-931v86h1037v-86l-931 -1303h931v-86z" />
    <glyph glyph-name="bracketleft" unicode="[" horiz-adv-x="811" 
d="M627 -455h-340v2261h340v-86h-254v-2089h254v-86z" />
    <glyph glyph-name="backslash" unicode="\" horiz-adv-x="731" 
d="M123 1475h92l393 -1475h-92z" />
    <glyph glyph-name="bracketright" unicode="]" horiz-adv-x="811" 
d="M524 -455h-340v86h254v2089h-254v86h340v-2261z" />
    <glyph glyph-name="asciicircum" unicode="^" horiz-adv-x="1355" 
d="M271 977l-55 57l472 474l474 -473l-55 -57l-419 418z" />
    <glyph glyph-name="underscore" unicode="_" horiz-adv-x="1351" 
d="M1352 -197h-1352v86h1352v-86z" />
    <glyph glyph-name="grave" unicode="`" horiz-adv-x="935" 
d="M552 1659h-90l-98 276h90z" />
    <glyph glyph-name="a" unicode="a" horiz-adv-x="1110" 
d="M565 1137q422 0 422 -445v-692h-86v212q-62 -118 -173 -180.5t-258 -62.5q-184 0 -286 82.5t-102 230.5q0 71 23.5 126t62 91.5t99.5 63t125.5 41t149.5 25.5l359 45v10q0 193 -80.5 280t-259.5 87q-287 0 -348 -244l-88 16q36 152 149 233t291 81zM901 587l-359 -45
q-202 -26 -287 -85t-85 -175q0 -111 77.5 -169t228.5 -58q171 0 281.5 96.5t135.5 266.5q8 54 8 169z" />
    <glyph glyph-name="b" unicode="b" horiz-adv-x="1230" 
d="M143 0v1475h86v-579q122 241 414 241q240 0 373 -159t133 -427q0 -263 -132 -422.5t-374 -159.5q-291 0 -414 239v-208h-86zM643 1051q-200 0 -307 -134.5t-107 -365.5q0 -227 105 -361.5t309 -134.5q203 0 308.5 132.5t105.5 363.5q0 230 -105.5 365t-308.5 135z" />
    <glyph glyph-name="c" unicode="c" horiz-adv-x="1103" 
d="M588 -31q-236 0 -371 155.5t-135 428.5q0 275 134 429.5t372 154.5q154 0 273.5 -74t170.5 -201l-82 -35q-46 105 -141.5 164.5t-220.5 59.5q-196 0 -305 -131t-109 -367q0 -231 107 -364.5t307 -133.5q124 0 217 57t143 164l84 -36q-140 -271 -444 -271z" />
    <glyph glyph-name="d" unicode="d" horiz-adv-x="1230" 
d="M1001 1475h86v-1475h-86v208q-123 -239 -413 -239q-242 0 -374 159.5t-132 422.5q0 268 133 427t373 159q291 0 413 -241v579zM588 1051q-203 0 -308.5 -135t-105.5 -365q0 -231 105.5 -363.5t308.5 -132.5q204 0 308.5 134.5t104.5 361.5q0 231 -106.5 365.5
t-306.5 134.5z" />
    <glyph glyph-name="e" unicode="e" 
d="M596 55q271 0 394 250l75 -41q-68 -143 -189 -219t-280 -76q-236 0 -375 157t-139 427q0 273 135 428.5t371 155.5q238 0 371 -160.5t133 -448.5h-918q7 -223 119 -348t303 -125zM176 614h820q-18 212 -122.5 324.5t-285.5 112.5q-182 0 -290 -115.5t-122 -321.5z" />
    <glyph glyph-name="f" unicode="f" horiz-adv-x="694" 
d="M262 1020h-201v86h201v130q0 128 70.5 198.5t197.5 70.5h144v-78h-133q-104 0 -148.5 -46.5t-44.5 -157.5v-117h326v-86h-326v-1020h-86v1020z" />
    <glyph glyph-name="g" unicode="g" horiz-adv-x="1230" 
d="M588 1137q143 0 248 -61.5t165 -175.5v206h86v-1045q0 -267 -129 -425t-370 -158q-305 0 -445 270l84 37q50 -108 144 -164.5t217 -56.5q200 0 306.5 133t106.5 364v185q-60 -114 -166 -175t-247 -61q-232 0 -369 152t-137 409q0 261 138 413.5t368 152.5zM588 96
q194 0 303.5 127.5t109.5 347.5q0 224 -111.5 352t-301.5 128q-193 0 -303.5 -128.5t-110.5 -351.5q0 -224 110.5 -349.5t303.5 -125.5z" />
    <glyph glyph-name="h" unicode="h" 
d="M965 0v606q0 445 -363 445q-80 0 -145 -23.5t-117.5 -74t-81.5 -138.5t-29 -209v-606h-86v1475h86v-536q115 198 373 198q209 0 329 -132.5t120 -398.5v-606h-86z" />
    <glyph glyph-name="i" unicode="i" horiz-adv-x="413" 
d="M250 1343h-86v132h86v-132zM250 0h-86v1106h86v-1106z" />
    <glyph glyph-name="j" unicode="j" horiz-adv-x="460" 
d="M297 1343h-86v132h86v-132zM50 -489h-70v86h38q109 0 151 41.5t42 150.5v1317h86v-1349q0 -114 -66.5 -180t-180.5 -66z" />
    <glyph glyph-name="k" unicode="k" horiz-adv-x="958" 
d="M143 0v1475h86v-902l553 533h129l-577 -553l665 -553h-147l-623 532v-532h-86z" />
    <glyph glyph-name="l" unicode="l" horiz-adv-x="413" 
d="M250 0h-86v1505h86v-1505z" />
    <glyph glyph-name="m" unicode="m" horiz-adv-x="1667" 
d="M801 0v657q0 96 -16 168t-42 114.5t-64.5 68t-77 34.5t-86.5 9q-47 0 -85 -9t-77 -34.5t-65 -68t-42.5 -114.5t-16.5 -168v-657h-86v1106h86v-133q97 164 286 164q255 0 336 -228q84 228 321 228q372 0 372 -480v-657h-86v657q0 96 -16 168t-42 114.5t-64.5 68t-77 34.5
t-86.5 9q-47 0 -85 -9t-76.5 -34.5t-64.5 -68t-42.5 -114.5t-16.5 -168v-657h-86z" />
    <glyph glyph-name="n" unicode="n" 
d="M965 0v606q0 445 -363 445q-80 0 -145 -23.5t-117.5 -74t-81.5 -138.5t-29 -209v-606h-86v1106h86v-167q115 198 373 198q209 0 329 -132.5t120 -398.5v-606h-86z" />
    <glyph glyph-name="o" unicode="o" horiz-adv-x="1175" 
d="M588 -31q-161 0 -276 75t-172.5 206.5t-57.5 304.5q0 265 134 423.5t372 158.5q242 0 374 -159.5t132 -422.5q0 -268 -133 -427t-373 -159zM588 55q203 0 308 135t105 365q0 231 -105.5 363.5t-307.5 132.5q-204 0 -309 -134.5t-105 -361.5q0 -231 107 -365.5t307 -134.5
z" />
    <glyph glyph-name="p" unicode="p" horiz-adv-x="1230" 
d="M229 -492h-86v1598h86v-208q123 239 414 239q242 0 374 -159.5t132 -422.5q0 -268 -133 -427t-373 -159q-292 0 -414 241v-702zM643 55q203 0 308.5 135t105.5 365q0 231 -105.5 363.5t-308.5 132.5q-204 0 -309 -134.5t-105 -361.5q0 -231 107 -365.5t307 -134.5z" />
    <glyph glyph-name="q" unicode="q" horiz-adv-x="1230" 
d="M1087 1106v-1598h-86v702q-122 -241 -413 -241q-240 0 -373 159t-133 427q0 263 132 422.5t374 159.5q290 0 413 -239v208h86zM588 55q200 0 306.5 134.5t106.5 365.5q0 227 -104.5 361.5t-308.5 134.5q-203 0 -308.5 -132.5t-105.5 -363.5q0 -230 105.5 -365t308.5 -135
z" />
    <glyph glyph-name="r" unicode="r" horiz-adv-x="686" 
d="M635 1136v-86q-11 1 -33 1q-80 0 -145 -23.5t-117.5 -74t-81.5 -138.5t-29 -209v-606h-86v1106h86v-167q115 198 373 198q22 0 33 -1z" />
    <glyph glyph-name="s" unicode="s" horiz-adv-x="1052" 
d="M547 -29q-376 0 -465 295l90 20q71 -229 375 -229q157 0 244.5 62t87.5 174q0 58 -31 100.5t-106 74.5q-69 27 -203 64q-162 44 -213 65q-175 69 -204 192q-7 27 -7 58q0 125 118 207.5t298 82.5q177 0 297.5 -88t142.5 -232l-88 -16q-19 117 -114 183.5t-244 66.5
q-135 0 -227.5 -59t-92.5 -148q0 -22 7 -42.5t17 -36.5t29 -31.5t34.5 -26.5t42.5 -22.5t44 -18t48 -16t46.5 -13.5t47 -11.5t41.5 -10.5q160 -41 235 -76q89 -41 130.5 -101.5t41.5 -146.5q0 -148 -113 -234t-309 -86z" />
    <glyph glyph-name="t" unicode="t" horiz-adv-x="776" 
d="M20 1020v86h261v370h86v-370h348v-86h-348v-737q0 -110 42 -153.5t150 -43.5h156v-86h-188q-114 0 -180 66.5t-66 180.5v773h-261z" />
    <glyph glyph-name="u" unicode="u" 
d="M209 1106v-606q0 -445 362 -445q80 0 145 23.5t117.5 74t81.5 138.5t29 209v606h86v-1106h-86v167q-115 -198 -373 -198q-209 0 -328.5 132.5t-119.5 398.5v606h86z" />
    <glyph glyph-name="v" unicode="v" horiz-adv-x="978" 
d="M537 0h-95l-401 1106h91l357 -985l358 985h91z" />
    <glyph glyph-name="w" unicode="w" horiz-adv-x="1527" 
d="M1055 0l-291 957l-291 -957h-94l-338 1106h90l295 -967l293 967h90l293 -967l295 967h90l-338 -1106h-94z" />
    <glyph glyph-name="x" unicode="x" horiz-adv-x="1042" 
d="M129 0h-109l451 559l-440 547h106l385 -483l383 483h107l-441 -547l451 -559h-109l-391 496z" />
    <glyph glyph-name="y" unicode="y" horiz-adv-x="1036" 
d="M406 -492h-97l183 491l-451 1107h94l400 -988l358 988h92z" />
    <glyph glyph-name="z" unicode="z" horiz-adv-x="1058" 
d="M977 0h-936v86l821 934h-821v86h936v-86l-821 -934h821v-86z" />
    <glyph glyph-name="braceleft" unicode="{" horiz-adv-x="818" 
d="M726 -455h-111q-88 0 -151.5 63t-63.5 150v703q0 39 -22 74l-84 116q-16 26 0 49l84 117q22 35 22 74v700q0 89 63 152t152 63h111v-86h-111q-53 0 -91 -37q-38 -38 -38 -92v-700q0 -69 -39 -123l-65 -92l65 -92q39 -54 39 -123v-703q0 -52 38 -89.5t91 -37.5h111v-86z
" />
    <glyph glyph-name="bar" unicode="|" horiz-adv-x="454" 
d="M270 0h-86v1475h86v-1475z" />
    <glyph glyph-name="braceright" unicode="}" horiz-adv-x="818" 
d="M203 -455h-111v86h111q53 0 91 37.5t38 89.5v703q0 69 39 123l65 92l-65 92q-39 54 -39 123v700q0 54 -38 92q-38 37 -91 37h-111v86h111q89 0 152 -63t63 -152v-700q0 -39 22 -74l84 -117q16 -23 0 -49l-84 -116q-22 -35 -22 -74v-703q0 -87 -63.5 -150t-151.5 -63z" />
    <glyph glyph-name="asciitilde" unicode="~" horiz-adv-x="1282" 
d="M842 516q-67 0 -148 36q-18 8 -83 40q-65 34 -103.5 48t-73.5 14q-36 0 -58 -17.5t-25 -38.5q-2 -24 -2 -26q0 -24 7 -42h-103q-8 32 -8 59q0 97 79 149q47 32 113 32q65 0 150 -36q23 -10 85 -41q67 -34 104 -48t72 -14q33 0 55.5 17.5t26.5 39.5q3 20 3 30q0 23 -7 43
h103q8 -32 8 -60q0 -97 -79 -151q-49 -34 -116 -34z" />
    <glyph glyph-name="uni00A0" unicode="&#xa0;" horiz-adv-x="409" 
 />
    <glyph glyph-name="exclamdown" unicode="&#xa1;" horiz-adv-x="577" 
d="M246 1106h86v-131h-86v131zM246 737h86v-1106h-86v1106z" />
    <glyph glyph-name="cent" unicode="&#xa2;" horiz-adv-x="1103" 
d="M547 -61v186q-220 13 -340 169t-125 413q5 260 125 414t340 167v187h86v-187q139 -10 246 -83q105 -71 153 -189l-82 -35q-46 105 -141.5 164t-220.5 59q-201 0 -306 -133q-105 -134 -108 -364q3 -232 109.5 -365t304.5 -133q123 0 216.5 57t143.5 164l84 -37
q-131 -250 -399 -268v-186h-86z" />
    <glyph glyph-name="sterling" unicode="&#xa3;" horiz-adv-x="1234" 
d="M61 0v86h126q110 62 128.5 185.5t-49.5 344.5l-21 70h-169v86h142q-1 2 -12.5 35t-15 44t-13 44.5t-13 57t-7 59.5t-3.5 72q0 199 133.5 310t353.5 111q210 0 361.5 -122t171.5 -308l-87 -16q-23 167 -149.5 263t-308.5 96q-168 0 -275.5 -88.5t-107.5 -242.5
q0 -52 6 -96t11.5 -66t20.5 -66.5t21 -65.5l6 -21h611v-86h-585l25 -86q54 -180 44 -312t-83 -202h833v-86h-1095z" />
    <glyph glyph-name="currency" unicode="&#xa4;" horiz-adv-x="1273" 
d="M637 201q-145 0 -268 72q-33 19 -80 57l-166 -166l-62 61l167 167q-33 40 -55 78q-73 125 -73 269t73 269q18 32 55 76l-167 167l62 60l165 -165q37 31 81 57q125 73 268 73q144 0 270 -73q46 -28 79 -57l165 165l61 -60l-165 -166q32 -35 56 -77q73 -125 73 -269
t-73 -269q-25 -45 -56 -79l165 -166l-61 -61l-166 166q-36 -33 -78 -57q-125 -72 -270 -72zM637 287q123 0 227 61q104 62 165 166q61 105 61 223q0 122 -62 228q-63 103 -167 164q-107 61 -224 61q-121 0 -225 -60.5t-165 -164.5q-61 -107 -61 -228q0 -118 61 -223
q59 -104 164 -166q103 -61 226 -61z" />
    <glyph glyph-name="yen" unicode="&#xa5;" horiz-adv-x="1062" 
d="M489 524h-325v86h325v17l-489 848h98l434 -750l433 750h98l-488 -848v-17h326v-86h-326v-188h326v-86h-326v-250h-86v250h-325v86h325v188z" />
    <glyph glyph-name="brokenbar" unicode="&#xa6;" horiz-adv-x="454" 
d="M270 770h-86v705h86v-705zM270 -254h-86v705h86v-705z" />
    <glyph glyph-name="section" unicode="&#xa7;" horiz-adv-x="1052" 
d="M555 -336q-101 0 -188.5 30t-154.5 98.5t-89 166.5l88 16q21 -74 75.5 -126t129.5 -76q72 -23 141 -23q126 0 212.5 65t86.5 175q0 65 -35.5 106.5t-103.5 68.5q-59 22 -201 61l-18 5q-160 45 -225 72q-78 29 -129 85q-50 53 -50 142q0 93 55 160.5t147 96.5q43 12 56 14
q-4 2 -18 6.5t-20 7.5q-179 69 -179 227q0 92 54 161t145 105q83 33 184 33q106 0 197 -40.5t148 -113.5q56 -71 67 -165l-88 -16q-16 85 -68 142t-126 83q-70 24 -140 24q-117 0 -200 -59t-83 -149q0 -99 111 -150q56 -26 129 -46q30 -7 62 -16t36 -10q171 -44 237 -70
q82 -32 137 -93q52 -61 52 -164q0 -101 -50 -172.5t-134 -95.5l-12 -3q62 -30 103 -77q52 -61 52 -164q0 -151 -110.5 -236.5t-282.5 -85.5zM431 337l9 -3q10 -2 33 -8t49 -13q78 -20 164 -46q35 7 72 24q63 29 101 84t38 127q0 65 -35.5 106.5t-103.5 68.5q-59 22 -201 61
l-18 5q-22 6 -58 16.5t-46 13.5q-101 -30 -169 -84q-82 -67 -82 -154q0 -99 114 -151q56 -26 133 -47z" />
    <glyph glyph-name="dieresis" unicode="&#xa8;" horiz-adv-x="983" 
d="M737 1720h-123v123h123v-123zM369 1720h-123v123h123v-123z" />
    <glyph glyph-name="copyright" unicode="&#xa9;" horiz-adv-x="1531" 
d="M766 -10q-190 0 -353 95q-163 93 -256 256q-96 165 -96 353q0 189 96 354q93 162 256 257q164 94 353 94t353 -94q162 -95 257 -257q94 -164 94 -354q0 -189 -94 -353q-95 -163 -257 -256q-163 -95 -353 -95zM766 80q165 0 307 83q141 82 223 224q82 143 82 309
q0 165 -82 308q-83 140 -223 223q-143 82 -307 82q-166 0 -309 -82q-144 -83 -225 -223q-82 -140 -82 -308q0 -169 82 -309q81 -142 225 -224q142 -83 309 -83zM770 266q-186 0 -289 131q-88 111 -88 301q5 191 88 297q105 131 293 131q114 0 199 -51q100 -62 133 -164
l-84 -28q-30 70 -100 118q-60 41 -150 41q-137 0 -217 -102q-68 -86 -68 -240t68 -247q75 -103 215 -103q87 0 154 41q59 38 96 117l86 -31q-46 -102 -127 -153q-93 -58 -209 -58z" />
    <glyph glyph-name="ordfeminine" unicode="&#xaa;" horiz-adv-x="637" 
d="M538 1028q18 -41 18 -118v-342h-81v87q-67 -102 -204 -102q-87 0 -138 44t-51 118q0 152 219 179l165 20q-1 71 -33.5 106t-102.5 35q-113 0 -142 -98l-86 24q21 74 79 115t150 41q159 0 207 -109zM466 844l-151 -19q-75 -9 -109 -34t-34 -70q0 -90 118 -90
q65 0 109.5 34t57.5 92q9 31 9 85v2z" />
    <glyph glyph-name="guillemotleft" unicode="&#xab;" horiz-adv-x="1028" 
d="M885 164l-64 -49l-350 440l350 438l64 -49l-312 -389zM578 164l-64 -49l-350 440l350 438l64 -49l-312 -389z" />
    <glyph glyph-name="logicalnot" unicode="&#xac;" horiz-adv-x="1228" 
d="M1106 412h-86v262h-897v86h983v-348z" />
    <glyph glyph-name="uni00AD" unicode="&#xad;" horiz-adv-x="860" 
d="M737 602h-614v86h614v-86z" />
    <glyph glyph-name="registered" unicode="&#xae;" horiz-adv-x="1239" 
d="M621 608q-130 0 -240 65q-110 63 -173 173q-65 110 -65 239t65 239q62 108 173 173q111 64 240 64q127 0 238 -64q109 -64 173 -173q64 -111 64 -239t-64 -239q-65 -111 -173 -173q-110 -65 -238 -65zM621 694q104 0 193.5 52t142.5 143t53 196q0 104 -52 194t-142 143
q-91 53 -195 53q-106 0 -196 -52t-143 -142q-53 -91 -53 -196q0 -106 52 -196t143 -143q89 -52 197 -52zM528 854h-73v471h209q60 0 106.5 -45.5t46.5 -105.5q0 -41 -25 -80.5t-65 -57.5l90 -182h-84l-82 168h-123v-168zM528 1092h134q32 0 55.5 24.5t23.5 57.5t-24.5 57
t-54.5 24h-134v-163z" />
    <glyph glyph-name="macron" unicode="&#xaf;" horiz-adv-x="983" 
d="M737 1720h-491v86h491v-86z" />
    <glyph glyph-name="degree" unicode="&#xb0;" horiz-adv-x="921" 
d="M430 768q-100 0 -184 48.5t-134 134.5q-51 84 -51 186q0 98 50.5 182.5t136.5 135.5q82 50 182 50t185 -48.5t135 -134.5q49 -83 49 -185q0 -100 -49.5 -185t-134.5 -135q-83 -49 -185 -49zM430 854q75 0 141 38t104 104q38 63 38 141q0 75 -38.5 140t-103.5 104
q-64 38 -141 38q-75 0 -140 -38t-104 -103q-39 -66 -39 -141t38.5 -140t104.5 -104q64 -39 140 -39z" />
    <glyph glyph-name="plusminus" unicode="&#xb1;" horiz-adv-x="1228" 
d="M657 451h-86v284h-448v86h448v285h86v-285h449v-86h-449v-284zM1106 180h-983v86h983v-86z" />
    <glyph glyph-name="twosuperior" unicode="&#xb2;" horiz-adv-x="830" 
d="M122 553v81l391 379q127 123 127 229q0 78 -58.5 125t-151.5 47q-97 0 -163 -56t-80 -149l-85 17q20 124 108.5 196.5t219.5 72.5t214.5 -69t82.5 -185q-2 -132 -143 -269l-351 -338h494v-81h-605z" />
    <glyph glyph-name="threesuperior" unicode="&#xb3;" horiz-adv-x="867" 
d="M744 825q0 -130 -89 -211.5t-231 -81.5q-137 0 -224.5 66t-117.5 196l83 14q29 -101 90 -148t170 -47q104 0 168.5 59t64.5 151q0 96 -59.5 145.5t-174.5 49.5h-84v74l266 302h-472v81h577v-81l-269 -302q147 -4 224.5 -71.5t77.5 -195.5z" />
    <glyph glyph-name="acute" unicode="&#xb4;" horiz-adv-x="935" 
d="M572 1935l-98 -276h-90l98 276h90z" />
    <glyph glyph-name="uni00B5" unicode="&#xb5;" horiz-adv-x="1193" 
d="M229 1106v-606q0 -445 363 -445q80 0 145 23.5t117.5 74t81.5 138.5t29 209v606h86v-1106h-86v167q-115 -198 -373 -198q-249 0 -363 177v-638h-86v1598h86z" />
    <glyph glyph-name="paragraph" unicode="&#xb6;" horiz-adv-x="1189" 
d="M801 -289h-86v879h-88q-42 0 -95 8q-157 26 -252.5 146.5t-95.5 287.5t95.5 287.5t252.5 146.5q59 9 95 9h174v-1764zM1006 -289h-86v1764h86v-1764z" />
    <glyph glyph-name="periodcentered" unicode="&#xb7;" horiz-adv-x="409" 
d="M207 563q-35 0 -59.5 23.5t-24.5 58.5t24.5 58.5t59.5 23.5q33 0 56.5 -24t23.5 -58t-23.5 -58t-56.5 -24z" />
    <glyph glyph-name="cedilla" unicode="&#xb8;" horiz-adv-x="790" 
d="M369 -489q-60 0 -123 28l28 76q55 -21 88 -21q42 0 69.5 28.5t27.5 68.5q0 56 -60 83q-27 13 -70 27q-1 0 -7 2l77 211h86l-59 -159q123 -52 123 -168q0 -72 -53.5 -124t-126.5 -52z" />
    <glyph glyph-name="onesuperior" unicode="&#xb9;" horiz-adv-x="667" 
d="M422 553h-84v825l-173 -105l-42 73l215 129h84v-922z" />
    <glyph glyph-name="ordmasculine" unicode="&#xba;" horiz-adv-x="697" 
d="M348 553q-121 0 -193.5 81t-72.5 212q0 130 73 210.5t193 80.5q122 0 194.5 -80.5t72.5 -210.5q0 -131 -73 -212t-194 -81zM348 640q83 0 126.5 55t43.5 151q0 97 -44 151t-126 54q-83 0 -126 -54.5t-43 -150.5q0 -97 43.5 -151.5t125.5 -54.5z" />
    <glyph glyph-name="guillemotright" unicode="&#xbb;" horiz-adv-x="1028" 
d="M207 115l-64 49l312 391l-312 389l64 49l350 -438zM514 115l-63 49l311 391l-311 389l63 49l350 -438z" />
    <glyph glyph-name="onequarter" unicode="&#xbc;" horiz-adv-x="1908" 
d="M1411 1415l-1118 -1415l-76 61l1120 1414zM381 553h-84v825l-173 -105l-42 73l215 129h84v-922zM1561 0h-84v186h-487v80l316 656h92l-316 -656h395v329h84v-329h90v-80h-90v-186z" />
    <glyph glyph-name="onehalf" unicode="&#xbd;" horiz-adv-x="1804" 
d="M381 553h-84v825l-173 -105l-42 73l215 129h84v-922zM1411 1415l-1118 -1415l-76 61l1120 1414zM1702 0h-605v81l391 379q127 123 127 229q0 78 -58.5 125t-151.5 47q-97 0 -163 -56t-80 -149l-85 17q20 124 108.5 196.5t219.5 72.5t214.5 -69t82.5 -185
q-2 -132 -143 -269l-351 -338h494v-81z" />
    <glyph glyph-name="threequarters" unicode="&#xbe;" horiz-adv-x="1939" 
d="M1563 1415l-1119 -1415l-75 61l1120 1414zM734 825q0 -130 -89 -211.5t-231 -81.5q-137 0 -224.5 66t-117.5 196l83 14q29 -101 90 -148t170 -47q104 0 168.5 59t64.5 151q0 96 -59.5 145.5t-174.5 49.5h-84v74l266 302h-472v81h576v-81l-268 -302q147 -4 224.5 -71.5
t77.5 -195.5zM1715 0h-84v186h-486v80l315 656h92l-315 -656h394v329h84v-329h90v-80h-90v-186z" />
    <glyph glyph-name="questiondown" unicode="&#xbf;" horiz-adv-x="1233" 
d="M556 1106h86v-131h-86v131zM102 60q0 198 118.5 306.5t335.5 118.5v252h86v-337h-43q-410 0 -410 -341q0 -163 113.5 -267.5t296.5 -104.5q187 0 292 77t159 250l82 -16q-103 -397 -533 -397q-220 0 -358.5 129.5t-138.5 329.5z" />
    <glyph glyph-name="Agrave" unicode="&#xc0;" horiz-adv-x="1247" 
d="M662 1659h-91l-98 276h90zM41 0l537 1475h92l536 -1475h-92l-139 383h-703l-139 -383h-92zM625 1351l-323 -886h643z" />
    <glyph glyph-name="Aacute" unicode="&#xc1;" horiz-adv-x="1247" 
d="M676 1659h-90l98 276h90zM670 1475l536 -1475h-92l-139 383h-703l-139 -383h-92l537 1475h92zM302 465h643l-322 886z" />
    <glyph glyph-name="Acircumflex" unicode="&#xc2;" horiz-adv-x="1247" 
d="M373 1659l205 246h94l205 -246h-103l-149 174l-150 -174h-102zM670 1475l536 -1475h-92l-139 383h-703l-139 -383h-92l537 1475h92zM302 465h643l-322 886z" />
    <glyph glyph-name="Atilde" unicode="&#xc3;" horiz-adv-x="1247" 
d="M766 1710q-62 0 -163 54q-85 44 -126 44q-25 0 -41.5 -13t-17.5 -27q-1 -8 -1 -17q0 -14 5 -31h-74q-6 21 -6 42q0 68 56 106q35 22 81 22q61 0 166 -54q88 -44 125 -44q33 0 46.5 18.5t13.5 42.5q0 13 -5 31h74q6 -21 6 -41q0 -69 -56 -108q-37 -25 -83 -25zM670 1475
l536 -1475h-92l-139 383h-703l-139 -383h-92l537 1475h92zM302 465h643l-322 886z" />
    <glyph glyph-name="Adieresis" unicode="&#xc4;" horiz-adv-x="1247" 
d="M748 1720v123h122v-123h-122zM379 1720v123h123v-123h-123zM670 1475l536 -1475h-92l-139 383h-703l-139 -383h-92l537 1475h92zM302 465h643l-322 886z" />
    <glyph glyph-name="Aring" unicode="&#xc5;" horiz-adv-x="1247" 
d="M625 1597q-81 0 -140 58.5t-59 140.5q0 81 59 140t140 59q82 0 140 -59t58 -140q0 -83 -58 -141t-140 -58zM625 1683q46 0 79 33.5t33 79.5q0 47 -33 80t-79 33t-79.5 -33.5t-33.5 -79.5t33.5 -79.5t79.5 -33.5zM670 1475l536 -1475h-92l-139 383h-703l-139 -383h-92
l537 1475h92zM302 465h643l-322 886z" />
    <glyph glyph-name="AE" unicode="&#xc6;" horiz-adv-x="1853" 
d="M850 0v383h-578l-139 -383h-92l537 1475h1173v-86h-815v-609h692v-86h-692v-608h815v-86h-901zM302 465h548v924h-214z" />
    <glyph glyph-name="Ccedilla" unicode="&#xc7;" horiz-adv-x="1433" 
d="M664 -489q-60 0 -123 28l28 76q55 -21 88 -21q42 0 69.5 28.5t27.5 68.5q0 56 -60 83q-27 13 -70 27q-2 0 -8 2l62 167q-201 11 -341.5 112t-208 268t-67.5 387q0 170 42 310.5t123.5 242.5t208 158.5t288.5 56.5q251 0 411.5 -131t217.5 -362l-90 -21
q-51 201 -188 314.5t-351 113.5q-139 0 -248 -50t-179 -141.5t-106 -215.5t-36 -275t36 -275t106 -215.5t179 -141.5t248 -50q214 0 351 113.5t188 314.5l90 -20q-55 -221 -204.5 -351.5t-383.5 -141.5l-43 -115q123 -52 123 -168q0 -72 -53.5 -124t-126.5 -52z" />
    <glyph glyph-name="Egrave" unicode="&#xc8;" horiz-adv-x="1146" 
d="M678 1659h-90l-99 276h91zM1044 0h-901v1475h901v-86h-815v-609h693v-86h-693v-608h815v-86z" />
    <glyph glyph-name="Eacute" unicode="&#xc9;" horiz-adv-x="1146" 
d="M760 1935l-98 -276h-91l99 276h90zM1044 0h-901v1475h901v-86h-815v-609h693v-86h-693v-608h815v-86z" />
    <glyph glyph-name="Ecircumflex" unicode="&#xca;" horiz-adv-x="1146" 
d="M434 1659h-102l205 246h94l205 -246h-103l-149 174zM1044 0h-901v1475h901v-86h-815v-609h693v-86h-693v-608h815v-86z" />
    <glyph glyph-name="Edieresis" unicode="&#xcb;" horiz-adv-x="1146" 
d="M809 1720h-123v123h123v-123zM440 1720h-123v123h123v-123zM1044 0h-901v1475h901v-86h-815v-609h693v-86h-693v-608h815v-86z" />
    <glyph glyph-name="Igrave" unicode="&#xcc;" horiz-adv-x="413" 
d="M250 1659h-90l-99 276h91zM250 0h-86v1475h86v-1475z" />
    <glyph glyph-name="Iacute" unicode="&#xcd;" horiz-adv-x="413" 
d="M352 1935l-98 -276h-90l98 276h90zM250 0h-86v1475h86v-1475z" />
    <glyph glyph-name="Icircumflex" unicode="&#xce;" horiz-adv-x="413" 
d="M57 1659h-102l205 246h94l205 -246h-103l-149 174zM250 0h-86v1475h86v-1475z" />
    <glyph glyph-name="Idieresis" unicode="&#xcf;" horiz-adv-x="413" 
d="M453 1720h-123v123h123v-123zM84 1720h-123v123h123v-123zM250 0h-86v1475h86v-1475z" />
    <glyph glyph-name="Eth" unicode="&#xd0;" horiz-adv-x="1335" 
d="M20 694v86h123v695h402q352 0 530 -186t178 -552t-178 -551.5t-530 -185.5h-402v694h-123zM236 1389v-609h399v-86h-399v-608h299q322 0 474 158.5t152 492.5q0 333 -153 492.5t-473 159.5h-299z" />
    <glyph glyph-name="Ntilde" unicode="&#xd1;" horiz-adv-x="1355" 
d="M850 1659q-62 0 -163 54q-88 44 -126 44q-25 0 -41.5 -13t-17.5 -27q-1 -8 -1 -17q0 -14 5 -31h-74q-6 21 -6 42q0 68 56 106q35 22 81 22q61 0 166 -54q88 -44 125 -44q33 0 46.5 18.5t13.5 42.5q0 13 -5 31h74q6 -21 6 -41q0 -70 -56 -109q-36 -24 -83 -24zM229 0h-86
v1475h86l897 -1323v1323h86v-1475h-86l-897 1323v-1323z" />
    <glyph glyph-name="Ograve" unicode="&#xd2;" horiz-adv-x="1445" 
d="M686 1659l-98 276h90l98 -276h-90zM723 -31q-162 0 -288.5 56.5t-208 158.5t-123.5 242.5t-42 310.5t42 310.5t123.5 242.5t208 158.5t288.5 56.5t288.5 -56.5t207.5 -159t123 -242t42 -310.5t-42 -310.5t-123 -242t-207.5 -159t-288.5 -56.5zM723 55q139 0 248 50
t179 141.5t106 215.5t36 275t-36 275t-106 215.5t-179 141.5t-248 50t-247.5 -50t-178 -141.5t-105.5 -215.5t-38 -275q-2 -202 60.5 -354t193 -240t315.5 -88z" />
    <glyph glyph-name="Oacute" unicode="&#xd3;" horiz-adv-x="1445" 
d="M791 1659h-91l99 276h90zM723 -31q-162 0 -288.5 56.5t-208 158.5t-123.5 242.5t-42 310.5t42 310.5t123.5 242.5t208 158.5t288.5 56.5t288.5 -56.5t207.5 -159t123 -242t42 -310.5t-42 -310.5t-123 -242t-207.5 -159t-288.5 -56.5zM723 55q139 0 248 50t179 141.5
t106 215.5t36 275t-36 275t-106 215.5t-179 141.5t-248 50t-247.5 -50t-178 -141.5t-105.5 -215.5t-38 -275q-2 -202 60.5 -354t193 -240t315.5 -88z" />
    <glyph glyph-name="Ocircumflex" unicode="&#xd4;" horiz-adv-x="1445" 
d="M471 1659l205 246h94l205 -246h-103l-149 174l-150 -174h-102zM723 -31q-162 0 -288.5 56.5t-208 158.5t-123.5 242.5t-42 310.5t42 310.5t123.5 242.5t208 158.5t288.5 56.5t288.5 -56.5t207.5 -159t123 -242t42 -310.5t-42 -310.5t-123 -242t-207.5 -159t-288.5 -56.5z
M723 55q139 0 248 50t179 141.5t106 215.5t36 275t-36 275t-106 215.5t-179 141.5t-248 50t-247.5 -50t-178 -141.5t-105.5 -215.5t-38 -275q-2 -202 60.5 -354t193 -240t315.5 -88z" />
    <glyph glyph-name="Otilde" unicode="&#xd5;" horiz-adv-x="1445" 
d="M882 1659q-62 0 -163 54q-85 44 -126 44q-25 0 -41.5 -13t-17.5 -27q-2 -16 -2 -17q0 -11 6 -31h-74q-6 21 -6 42q0 68 56 106q35 22 81 22q61 0 166 -54q88 -44 125 -44q33 0 46.5 18.5t13.5 42.5q0 13 -5 31h74q6 -21 6 -41q0 -70 -56 -109q-36 -24 -83 -24zM723 -31
q-162 0 -288.5 56.5t-208 158.5t-123.5 242.5t-42 310.5t42 310.5t123.5 242.5t208 158.5t288.5 56.5t288.5 -56.5t207.5 -159t123 -242t42 -310.5t-42 -310.5t-123 -242t-207.5 -159t-288.5 -56.5zM723 55q139 0 248 50t179 141.5t106 215.5t36 275t-36 275t-106 215.5
t-179 141.5t-248 50t-247.5 -50t-178 -141.5t-105.5 -215.5t-38 -275q-2 -202 60.5 -354t193 -240t315.5 -88z" />
    <glyph glyph-name="Odieresis" unicode="&#xd6;" horiz-adv-x="1445" 
d="M846 1720v123h123v-123h-123zM477 1720v123h123v-123h-123zM723 -31q-162 0 -288.5 56.5t-208 158.5t-123.5 242.5t-42 310.5t42 310.5t123.5 242.5t208 158.5t288.5 56.5t288.5 -56.5t207.5 -159t123 -242t42 -310.5t-42 -310.5t-123 -242t-207.5 -159t-288.5 -56.5z
M723 55q139 0 248 50t179 141.5t106 215.5t36 275t-36 275t-106 215.5t-179 141.5t-248 50t-247.5 -50t-178 -141.5t-105.5 -215.5t-38 -275q-2 -202 60.5 -354t193 -240t315.5 -88z" />
    <glyph glyph-name="multiply" unicode="&#xd7;" horiz-adv-x="972" 
d="M850 434l-60 -61l-304 303l-303 -303l-60 61l303 302l-303 303l60 61l303 -302l304 302l60 -61l-303 -303z" />
    <glyph glyph-name="Oslash" unicode="&#xd8;" horiz-adv-x="1445" 
d="M74 -27l-64 60l184 196q-133 199 -133 508q0 170 42 310.5t123.5 242.5t208 158.5t288.5 56.5q306 0 481 -197l173 186l64 -56l-185 -200q128 -197 128 -501q0 -171 -42 -310.5t-123 -242t-207.5 -159t-288.5 -56.5q-300 0 -474 191zM258 299l882 941q-149 179 -417 179
q-139 0 -247.5 -50t-178 -141.5t-105.5 -215.5t-38 -275q-3 -265 104 -438zM723 55q139 0 248 50t179 141.5t106 215.5t36 275q0 260 -101 431l-880 -942q149 -171 412 -171z" />
    <glyph glyph-name="Ugrave" unicode="&#xd9;" horiz-adv-x="1413" 
d="M685 1659l-98 276h90l98 -276h-90zM707 -31q-260 0 -412 160t-152 434v912h86v-914q0 -238 127.5 -374t350.5 -136t350 136t127 374v914h86v-912q0 -275 -151.5 -434.5t-411.5 -159.5z" />
    <glyph glyph-name="Uacute" unicode="&#xda;" horiz-adv-x="1413" 
d="M728 1659h-90l98 276h90zM707 -31q-260 0 -412 160t-152 434v912h86v-914q0 -238 127.5 -374t350.5 -136t350 136t127 374v914h86v-912q0 -275 -151.5 -434.5t-411.5 -159.5z" />
    <glyph glyph-name="Ucircumflex" unicode="&#xdb;" horiz-adv-x="1413" 
d="M455 1659l204 246h95l204 -246h-102l-149 174l-150 -174h-102zM707 -31q-260 0 -412 160t-152 434v912h86v-914q0 -238 127.5 -374t350.5 -136t350 136t127 374v914h86v-912q0 -275 -151.5 -434.5t-411.5 -159.5z" />
    <glyph glyph-name="Udieresis" unicode="&#xdc;" horiz-adv-x="1413" 
d="M829 1720v123h123v-123h-123zM461 1720v123h123v-123h-123zM707 -31q-260 0 -412 160t-152 434v912h86v-914q0 -238 127.5 -374t350.5 -136t350 136t127 374v914h86v-912q0 -275 -151.5 -434.5t-411.5 -159.5z" />
    <glyph glyph-name="Yacute" unicode="&#xdd;" horiz-adv-x="1062" 
d="M646 1935l-98 -276h-90l98 276h90zM575 0h-86v627l-489 848h98l434 -750l433 750h98l-488 -848v-627z" />
    <glyph glyph-name="Thorn" unicode="&#xde;" horiz-adv-x="1189" 
d="M229 0h-86v1475h86v-295h437q210 0 336 -121t126 -322q0 -200 -126 -321t-336 -121h-437v-295zM229 1094v-713h437q172 0 271 95.5t99 260.5t-99 261t-271 96h-437z" />
    <glyph glyph-name="germandbls" unicode="&#xdf;" horiz-adv-x="1177" 
d="M596 -29q-115 0 -186 29v86q75 -27 186 -27q165 0 266 95t101 258q0 147 -118.5 237.5t-312.5 95.5v86q125 15 211 90q84 72 84 205q0 137 -77.5 215t-214.5 78q-101 0 -176 -46.5t-101 -131.5q-20 -65 -20 -174v-1067h-95v1090q0 117 31 196q89 219 358 219
q180 0 284 -99t104 -282q0 -121 -57 -208q-58 -88 -156 -113q70 -3 150 -49q83 -49 140 -134q58 -89 58 -208q0 -203 -120.5 -322t-338.5 -119z" />
    <glyph glyph-name="agrave" unicode="&#xe0;" horiz-adv-x="1110" 
d="M528 1290l-98 277h90l98 -277h-90zM565 1137q422 0 422 -445v-692h-86v212q-62 -118 -173 -180.5t-258 -62.5q-184 0 -286 82.5t-102 230.5q0 71 23.5 126t62 91.5t99.5 63t125.5 41t149.5 25.5l359 45v10q0 193 -80.5 280t-259.5 87q-287 0 -348 -244l-88 16
q36 152 149 233t291 81zM901 587l-359 -45q-202 -26 -287 -85t-85 -175q0 -111 77.5 -169t228.5 -58q171 0 281.5 96.5t135.5 266.5q8 54 8 169z" />
    <glyph glyph-name="aacute" unicode="&#xe1;" horiz-adv-x="1110" 
d="M607 1290h-90l98 277h91zM565 1137q422 0 422 -445v-692h-86v212q-62 -118 -173 -180.5t-258 -62.5q-184 0 -286 82.5t-102 230.5q0 71 23.5 126t62 91.5t99.5 63t125.5 41t149.5 25.5l359 45v10q0 193 -80.5 280t-259.5 87q-287 0 -348 -244l-88 16q36 152 149 233
t291 81zM901 587l-359 -45q-202 -26 -287 -85t-85 -175q0 -111 77.5 -169t228.5 -58q171 0 281.5 96.5t135.5 266.5q8 54 8 169z" />
    <glyph glyph-name="acircumflex" unicode="&#xe2;" horiz-adv-x="1110" 
d="M319 1290l205 246h94l205 -246h-102l-150 174l-149 -174h-103zM565 1137q422 0 422 -445v-692h-86v212q-62 -118 -173 -180.5t-258 -62.5q-184 0 -286 82.5t-102 230.5q0 71 23.5 126t62 91.5t99.5 63t125.5 41t149.5 25.5l359 45v10q0 193 -80.5 280t-259.5 87
q-287 0 -348 -244l-88 16q36 152 149 233t291 81zM901 587l-359 -45q-202 -26 -287 -85t-85 -175q0 -111 77.5 -169t228.5 -58q171 0 281.5 96.5t135.5 266.5q8 54 8 169z" />
    <glyph glyph-name="atilde" unicode="&#xe3;" horiz-adv-x="1110" 
d="M719 1290q-61 0 -163 55q-88 44 -126 44q-26 0 -42 -13t-17 -27q-1 -8 -1 -18q0 -14 5 -31h-74q-6 21 -6 42q0 68 56 106q35 22 81 22q61 0 166 -54q88 -44 125 -44q33 0 46.5 19t13.5 43q0 12 -5 30h74q6 -21 6 -41q0 -69 -56 -108q-38 -25 -83 -25zM565 1137
q422 0 422 -445v-692h-86v212q-62 -118 -173 -180.5t-258 -62.5q-184 0 -286 82.5t-102 230.5q0 71 23.5 126t62 91.5t99.5 63t125.5 41t149.5 25.5l359 45v10q0 193 -80.5 280t-259.5 87q-287 0 -348 -244l-88 16q36 152 149 233t291 81zM901 587l-359 -45
q-202 -26 -287 -85t-85 -175q0 -111 77.5 -169t228.5 -58q171 0 281.5 96.5t135.5 266.5q8 54 8 169z" />
    <glyph glyph-name="adieresis" unicode="&#xe4;" horiz-adv-x="1110" 
d="M705 1352v123h122v-123h-122zM336 1352v123h123v-123h-123zM565 1137q422 0 422 -445v-692h-86v212q-62 -118 -173 -180.5t-258 -62.5q-184 0 -286 82.5t-102 230.5q0 71 23.5 126t62 91.5t99.5 63t125.5 41t149.5 25.5l359 45v10q0 193 -80.5 280t-259.5 87
q-287 0 -348 -244l-88 16q36 152 149 233t291 81zM901 587l-359 -45q-202 -26 -287 -85t-85 -175q0 -111 77.5 -169t228.5 -58q171 0 281.5 96.5t135.5 266.5q8 54 8 169z" />
    <glyph glyph-name="aring" unicode="&#xe5;" horiz-adv-x="1110" 
d="M570 1229q-81 0 -139.5 58t-58.5 140q0 81 58.5 140t139.5 59q82 0 140.5 -59t58.5 -140q0 -82 -58 -140t-141 -58zM570 1315q46 0 79.5 33t33.5 79q0 47 -33.5 80t-79.5 33t-79 -33.5t-33 -79.5t33 -79t79 -33zM565 1137q422 0 422 -445v-692h-86v212
q-62 -118 -173 -180.5t-258 -62.5q-184 0 -286 82.5t-102 230.5q0 71 23.5 126t62 91.5t99.5 63t125.5 41t149.5 25.5l359 45v10q0 193 -80.5 280t-259.5 87q-287 0 -348 -244l-88 16q36 152 149 233t291 81zM901 587l-359 -45q-202 -26 -287 -85t-85 -175q0 -111 77.5 -169
t228.5 -58q171 0 281.5 96.5t135.5 266.5q8 54 8 169z" />
    <glyph glyph-name="ae" unicode="&#xe6;" horiz-adv-x="1992" 
d="M565 1137q326 0 400 -266q61 128 174 197t268 69q238 0 371 -160.5t133 -448.5h-918q7 -223 119 -348t303 -125q271 0 394 250l75 -41q-68 -143 -189 -219t-280 -76q-170 0 -292 84t-179 237q-128 -321 -474 -321q-184 0 -286 82.5t-102 230.5q0 71 23.5 126t62 91.5
t99.5 63t125.5 41t149.5 25.5l359 45v10q0 193 -80.5 280t-259.5 87q-287 0 -348 -244l-88 16q36 152 149 233t291 81zM995 614h821q-18 212 -123 324.5t-286 112.5q-182 0 -290 -115.5t-122 -321.5zM901 587l-359 -45q-202 -26 -287 -85t-85 -175q0 -111 77.5 -169
t228.5 -58q171 0 281.5 96.5t135.5 266.5q8 54 8 169z" />
    <glyph glyph-name="ccedilla" unicode="&#xe7;" horiz-adv-x="1103" 
d="M528 -489q-59 0 -122 28l28 76q55 -21 88 -21q42 0 69 28.5t27 68.5q0 56 -59 83q-24 11 -71 27q-1 0 -7 2l62 168q-216 14 -338.5 168.5t-122.5 413.5q0 275 134 429.5t372 154.5q154 0 273.5 -74t170.5 -201l-82 -35q-46 105 -141.5 164.5t-220.5 59.5
q-196 0 -305 -131t-109 -367q0 -235 109 -366.5t305 -131.5q124 0 217 57t143 164l84 -36q-130 -252 -403 -270l-43 -115q123 -52 123 -168q0 -72 -54 -124t-127 -52z" />
    <glyph glyph-name="egrave" unicode="&#xe8;" 
d="M565 1290l-98 277h90l98 -277h-90zM596 55q271 0 394 250l75 -41q-68 -143 -189 -219t-280 -76q-236 0 -375 157t-139 427q0 273 135 428.5t371 155.5q238 0 371 -160.5t133 -448.5h-918q7 -223 119 -348t303 -125zM176 614h820q-18 212 -122.5 324.5t-285.5 112.5
q-182 0 -290 -115.5t-122 -321.5z" />
    <glyph glyph-name="eacute" unicode="&#xe9;" 
d="M654 1290h-90l99 277h90zM596 55q271 0 394 250l75 -41q-68 -143 -189 -219t-280 -76q-236 0 -375 157t-139 427q0 273 135 428.5t371 155.5q238 0 371 -160.5t133 -448.5h-918q7 -223 119 -348t303 -125zM176 614h820q-18 212 -122.5 324.5t-285.5 112.5
q-182 0 -290 -115.5t-122 -321.5z" />
    <glyph glyph-name="ecircumflex" unicode="&#xea;" 
d="M336 1290l205 246h94l205 -246h-103l-149 174l-150 -174h-102zM596 55q271 0 394 250l75 -41q-68 -143 -189 -219t-280 -76q-236 0 -375 157t-139 427q0 273 135 428.5t371 155.5q238 0 371 -160.5t133 -448.5h-918q7 -223 119 -348t303 -125zM176 614h820
q-18 212 -122.5 324.5t-285.5 112.5q-182 0 -290 -115.5t-122 -321.5z" />
    <glyph glyph-name="edieresis" unicode="&#xeb;" 
d="M711 1352v123h123v-123h-123zM342 1352v123h123v-123h-123zM596 55q271 0 394 250l75 -41q-68 -143 -189 -219t-280 -76q-236 0 -375 157t-139 427q0 273 135 428.5t371 155.5q238 0 371 -160.5t133 -448.5h-918q7 -223 119 -348t303 -125zM176 614h820
q-18 212 -122.5 324.5t-285.5 112.5q-182 0 -290 -115.5t-122 -321.5z" />
    <glyph glyph-name="igrave" unicode="&#xec;" horiz-adv-x="413" 
d="M250 1290h-90l-99 277h91zM250 0h-86v1106h86v-1106z" />
    <glyph glyph-name="iacute" unicode="&#xed;" horiz-adv-x="413" 
d="M352 1567l-98 -277h-90l98 277h90zM250 0h-86v1106h86v-1106z" />
    <glyph glyph-name="icircumflex" unicode="&#xee;" horiz-adv-x="413" 
d="M57 1290h-102l205 246h94l205 -246h-103l-149 174zM250 0h-86v1106h86v-1106z" />
    <glyph glyph-name="idieresis" unicode="&#xef;" horiz-adv-x="413" 
d="M453 1352h-123v123h123v-123zM84 1352h-123v123h123v-123zM250 0h-86v1106h86v-1106z" />
    <glyph glyph-name="eth" unicode="&#xf0;" 
d="M588 -31h-9q-151 0 -263 66t-172 191q-61 126 -62 290q2 168 63 292t172 189q113 66 262 66h9h9q119 0 226 -49q105 -48 170 -144q-18 164 -83 284q-65 117 -172 182l-117 -150l-68 53l107 137q-86 34 -189 41l10 84q133 -8 236 -54l121 155l67 -54l-111 -142
q131 -83 205 -235q73 -139 86 -356q7 -131 7 -297t-61 -290.5t-174 -191.5q-114 -67 -260 -67h-9zM588 55q198 0 304.5 123t106.5 340q0 215 -107.5 337t-294.5 122h-9h-9q-189 0 -297 -123.5t-108 -337.5q0 -218 108 -339.5t306 -121.5z" />
    <glyph glyph-name="ntilde" unicode="&#xf1;" 
d="M729 1290q-61 0 -163 55q-85 44 -126 44q-26 0 -42 -13t-17 -27q-1 -8 -1 -18q0 -14 5 -31h-74q-6 21 -6 42q0 68 56 106q35 22 81 22q61 0 166 -54q88 -44 125 -44q33 0 47 19t14 43q0 8 -6 30h74q6 -21 6 -41q0 -69 -56 -108q-38 -25 -83 -25zM965 0v606
q0 445 -363 445q-80 0 -145 -23.5t-117.5 -74t-81.5 -138.5t-29 -209v-606h-86v1106h86v-167q115 198 373 198q209 0 329 -132.5t120 -398.5v-606h-86z" />
    <glyph glyph-name="ograve" unicode="&#xf2;" horiz-adv-x="1175" 
d="M536 1290l-99 277h90l99 -277h-90zM588 -31q-161 0 -276 75t-172.5 206.5t-57.5 304.5q0 265 134 423.5t372 158.5q242 0 374 -159.5t132 -422.5q0 -268 -133 -427t-373 -159zM588 55q203 0 308 135t105 365q0 231 -105.5 363.5t-307.5 132.5q-204 0 -309 -134.5
t-105 -361.5q0 -231 107 -365.5t307 -134.5z" />
    <glyph glyph-name="oacute" unicode="&#xf3;" horiz-adv-x="1175" 
d="M630 1290h-90l98 277h90zM588 -31q-161 0 -276 75t-172.5 206.5t-57.5 304.5q0 265 134 423.5t372 158.5q242 0 374 -159.5t132 -422.5q0 -268 -133 -427t-373 -159zM588 55q203 0 308 135t105 365q0 231 -105.5 363.5t-307.5 132.5q-204 0 -309 -134.5t-105 -361.5
q0 -231 107 -365.5t307 -134.5z" />
    <glyph glyph-name="ocircumflex" unicode="&#xf4;" horiz-adv-x="1175" 
d="M336 1290l205 246h94l205 -246h-103l-149 174l-150 -174h-102zM588 -31q-161 0 -276 75t-172.5 206.5t-57.5 304.5q0 265 134 423.5t372 158.5q242 0 374 -159.5t132 -422.5q0 -268 -133 -427t-373 -159zM588 55q203 0 308 135t105 365q0 231 -105.5 363.5t-307.5 132.5
q-204 0 -309 -134.5t-105 -361.5q0 -231 107 -365.5t307 -134.5z" />
    <glyph glyph-name="otilde" unicode="&#xf5;" horiz-adv-x="1175" 
d="M731 1290q-61 0 -163 55q-88 44 -126 44q-25 0 -41.5 -13t-17.5 -27q-1 -8 -1 -18q0 -14 5 -31h-74q-6 21 -6 42q0 68 57 106q35 22 80 22q61 0 166 -54q88 -44 125 -44q33 0 47 19t14 43q0 12 -5 30h73q6 -21 6 -41q0 -69 -56 -108q-38 -25 -83 -25zM588 -31
q-161 0 -276 75t-172.5 206.5t-57.5 304.5q0 265 134 423.5t372 158.5q242 0 374 -159.5t132 -422.5q0 -268 -133 -427t-373 -159zM588 55q203 0 308 135t105 365q0 231 -105.5 363.5t-307.5 132.5q-204 0 -309 -134.5t-105 -361.5q0 -231 107 -365.5t307 -134.5z" />
    <glyph glyph-name="odieresis" unicode="&#xf6;" horiz-adv-x="1175" 
d="M711 1352v123h123v-123h-123zM342 1352v123h123v-123h-123zM588 -31q-161 0 -276 75t-172.5 206.5t-57.5 304.5q0 265 134 423.5t372 158.5q242 0 374 -159.5t132 -422.5q0 -268 -133 -427t-373 -159zM588 55q203 0 308 135t105 365q0 231 -105.5 363.5t-307.5 132.5
q-204 0 -309 -134.5t-105 -361.5q0 -231 107 -365.5t307 -134.5z" />
    <glyph glyph-name="divide" unicode="&#xf7;" horiz-adv-x="1105" 
d="M614 924h-122v123h122v-123zM983 694h-860v86h860v-86zM614 428h-122v123h122v-123z" />
    <glyph glyph-name="oslash" unicode="&#xf8;" horiz-adv-x="1175" 
d="M94 0q-14 -6 -23 3t-19.5 29.5t-18.5 28.5l135 136q-86 147 -86 358q0 265 134 423.5t372 158.5q233 0 368 -154l125 123l62 -59l-135 -135q86 -146 86 -357q0 -268 -133 -427t-373 -159q-232 0 -367 153q-6 -8 -26 -33.5t-29 -35.5t-29 -26t-43 -27zM234 263l660 658
q-108 130 -306 130q-204 0 -309 -134.5t-105 -361.5q0 -173 60 -292zM588 55q203 0 308 135t105 365q0 176 -59 293l-659 -660q108 -133 305 -133z" />
    <glyph glyph-name="ugrave" unicode="&#xf9;" 
d="M650 1290h-90l-98 277h90zM209 1106v-606q0 -445 362 -445q80 0 145 23.5t117.5 74t81.5 138.5t29 209v606h86v-1106h-86v167q-115 -198 -373 -198q-209 0 -328.5 132.5t-119.5 398.5v606h86z" />
    <glyph glyph-name="uacute" unicode="&#xfa;" 
d="M717 1567l-99 -277h-90l99 277h90zM209 1106v-606q0 -445 362 -445q80 0 145 23.5t117.5 74t81.5 138.5t29 209v606h86v-1106h-86v167q-115 -198 -373 -198q-209 0 -328.5 132.5t-119.5 398.5v606h86z" />
    <glyph glyph-name="ucircumflex" unicode="&#xfb;" 
d="M426 1290h-102l204 246h95l204 -246h-102l-150 174zM209 1106v-606q0 -445 362 -445q80 0 145 23.5t117.5 74t81.5 138.5t29 209v606h86v-1106h-86v167q-115 -198 -373 -198q-209 0 -328.5 132.5t-119.5 398.5v606h86z" />
    <glyph glyph-name="udieresis" unicode="&#xfc;" 
d="M821 1352h-123v123h123v-123zM453 1352h-123v123h123v-123zM209 1106v-606q0 -445 362 -445q80 0 145 23.5t117.5 74t81.5 138.5t29 209v606h86v-1106h-86v167q-115 -198 -373 -198q-209 0 -328.5 132.5t-119.5 398.5v606h86z" />
    <glyph glyph-name="yacute" unicode="&#xfd;" horiz-adv-x="1036" 
d="M652 1567l-98 -277h-90l98 277h90zM406 -492h-97l183 491l-451 1107h94l400 -988l358 988h92z" />
    <glyph glyph-name="thorn" unicode="&#xfe;" horiz-adv-x="1230" 
d="M229 -492h-86v1969h86v-579q123 239 414 239q242 0 374 -159.5t132 -422.5q0 -268 -133 -427t-373 -159q-292 0 -414 241v-702zM643 55q203 0 308.5 135t105.5 365q0 231 -105.5 363.5t-308.5 132.5q-204 0 -309 -134.5t-105 -361.5q0 -231 107 -365.5t307 -134.5z" />
    <glyph glyph-name="ydieresis" unicode="&#xff;" horiz-adv-x="1036" 
d="M772 1352h-123v123h123v-123zM403 1352h-122v123h122v-123zM406 -492h-97l183 491l-451 1107h94l400 -988l358 988h92z" />
    <glyph glyph-name="Amacron" unicode="&#x100;" horiz-adv-x="1247" 
d="M379 1720v86h491v-86h-491zM670 1475l536 -1475h-92l-139 383h-703l-139 -383h-92l537 1475h92zM302 465h643l-322 886z" />
    <glyph glyph-name="amacron" unicode="&#x101;" horiz-adv-x="1110" 
d="M356 1352v86h492v-86h-492zM565 1137q422 0 422 -445v-692h-86v212q-62 -118 -173 -180.5t-258 -62.5q-184 0 -286 82.5t-102 230.5q0 71 23.5 126t62 91.5t99.5 63t125.5 41t149.5 25.5l359 45v10q0 193 -80.5 280t-259.5 87q-287 0 -348 -244l-88 16q36 152 149 233
t291 81zM901 587l-359 -45q-202 -26 -287 -85t-85 -175q0 -111 77.5 -169t228.5 -58q171 0 281.5 96.5t135.5 266.5q8 54 8 169z" />
    <glyph glyph-name="Abreve" unicode="&#x102;" horiz-adv-x="1247" 
d="M625 1610q-96 0 -165 68.5t-69 164.5h80q0 -62 46 -107.5t108 -45.5q63 0 108 45t45 108h80q0 -96 -68.5 -164.5t-164.5 -68.5zM670 1475l536 -1475h-92l-139 383h-703l-139 -383h-92l537 1475h92zM302 465h643l-322 886z" />
    <glyph glyph-name="abreve" unicode="&#x103;" horiz-adv-x="1110" 
d="M573 1241q-96 0 -164.5 69t-68.5 165h80q0 -62 45.5 -108t107.5 -46q63 0 108.5 45.5t45.5 108.5h80q0 -96 -69 -165t-165 -69zM565 1137q422 0 422 -445v-692h-86v212q-62 -118 -173 -180.5t-258 -62.5q-184 0 -286 82.5t-102 230.5q0 71 23.5 126t62 91.5t99.5 63
t125.5 41t149.5 25.5l359 45v10q0 193 -80.5 280t-259.5 87q-287 0 -348 -244l-88 16q36 152 149 233t291 81zM901 587l-359 -45q-202 -26 -287 -85t-85 -175q0 -111 77.5 -169t228.5 -58q171 0 281.5 96.5t135.5 266.5q8 54 8 169z" />
    <glyph glyph-name="Aogonek" unicode="&#x104;" horiz-adv-x="1247" 
d="M1061 -496q-71 0 -125.5 56t-54.5 129q0 116 129 256q41 46 92 89l-127 349h-703l-139 -383h-92l537 1475h92l536 -1475q-99 -65 -167 -152.5t-68 -158.5q0 -44 26.5 -73.5t63.5 -29.5q54 0 106 60l52 -58q-66 -84 -158 -84zM302 465h643l-322 886z" />
    <glyph glyph-name="aogonek" unicode="&#x105;" horiz-adv-x="1110" 
d="M842 -496q-71 0 -125.5 56t-54.5 129q0 116 129 256q49 53 110 104v163q-62 -118 -173 -180.5t-258 -62.5q-184 0 -286 82.5t-102 230.5q0 71 23.5 126t62 91.5t99.5 63t125.5 41t149.5 25.5l359 45v10q0 193 -80.5 280t-259.5 87q-287 0 -348 -244l-88 16
q36 152 149 233t291 81q422 0 422 -445v-692q-99 -65 -167 -152.5t-68 -158.5q0 -44 26.5 -73.5t63.5 -29.5q54 0 106 60l51 -58q-66 -84 -157 -84zM901 587l-359 -45q-202 -26 -287 -85t-85 -175q0 -111 77.5 -169t228.5 -58q171 0 281.5 96.5t135.5 266.5q8 54 8 169z" />
    <glyph glyph-name="Cacute" unicode="&#x106;" horiz-adv-x="1433" 
d="M775 1659h-90l98 276h90zM723 -31q-162 0 -288.5 56.5t-208 158.5t-123.5 242.5t-42 310.5t42 310.5t123.5 242.5t208 158.5t288.5 56.5q251 0 411.5 -131t217.5 -362l-90 -21q-51 201 -188 314.5t-351 113.5q-139 0 -248 -50t-179 -141.5t-106 -215.5t-36 -275t36 -275
t106 -215.5t179 -141.5t248 -50q214 0 351 113.5t188 314.5l90 -20q-57 -231 -217.5 -362.5t-411.5 -131.5z" />
    <glyph glyph-name="cacute" unicode="&#x107;" horiz-adv-x="1103" 
d="M655 1290h-90l99 277h90zM588 -31q-236 0 -371 155.5t-135 428.5q0 275 134 429.5t372 154.5q154 0 273.5 -74t170.5 -201l-82 -35q-46 105 -141.5 164.5t-220.5 59.5q-196 0 -305 -131t-109 -367q0 -235 109 -366.5t305 -131.5q124 0 217 57t143 164l84 -36
q-140 -271 -444 -271z" />
    <glyph glyph-name="Ccircumflex" unicode="&#x108;" horiz-adv-x="1433" 
d="M472 1659l205 246h94l205 -246h-103l-149 174l-150 -174h-102zM723 -31q-162 0 -288.5 56.5t-208 158.5t-123.5 242.5t-42 310.5t42 310.5t123.5 242.5t208 158.5t288.5 56.5q251 0 411.5 -131t217.5 -362l-90 -21q-51 201 -188 314.5t-351 113.5q-139 0 -248 -50
t-179 -141.5t-106 -215.5t-36 -275t36 -275t106 -215.5t179 -141.5t248 -50q214 0 351 113.5t188 314.5l90 -20q-57 -231 -217.5 -362.5t-411.5 -131.5z" />
    <glyph glyph-name="ccircumflex" unicode="&#x109;" horiz-adv-x="1103" 
d="M336 1290l205 246h94l205 -246h-103l-149 174l-150 -174h-102zM588 -31q-236 0 -371 155.5t-135 428.5q0 275 134 429.5t372 154.5q154 0 273.5 -74t170.5 -201l-82 -35q-46 106 -141.5 165t-220.5 59q-196 0 -305 -131t-109 -367q0 -235 109 -366.5t305 -131.5
q124 0 217 57t143 164l84 -36q-140 -271 -444 -271z" />
    <glyph glyph-name="Cdotaccent" unicode="&#x10a;" horiz-adv-x="1433" 
d="M682 1720v123h123v-123h-123zM723 -31q-162 0 -288.5 56.5t-208 158.5t-123.5 242.5t-42 310.5t42 310.5t123.5 242.5t208 158.5t288.5 56.5q251 0 411.5 -131t217.5 -362l-90 -21q-51 201 -188 314.5t-351 113.5q-139 0 -248 -50t-179 -141.5t-106 -215.5t-36 -275
t36 -275t106 -215.5t179 -141.5t248 -50q214 0 351 113.5t188 314.5l90 -20q-57 -231 -217.5 -362.5t-411.5 -131.5z" />
    <glyph glyph-name="cdotaccent" unicode="&#x10b;" horiz-adv-x="1103" 
d="M516 1352v123h123v-123h-123zM588 -31q-236 0 -371 155.5t-135 428.5q0 275 134 429.5t372 154.5q154 0 273.5 -74t170.5 -201l-82 -35q-46 105 -141.5 164.5t-220.5 59.5q-196 0 -305 -131t-109 -367q0 -235 109 -366.5t305 -131.5q124 0 217 57t143 164l84 -36
q-140 -271 -444 -271z" />
    <glyph glyph-name="Ccaron" unicode="&#x10c;" horiz-adv-x="1433" 
d="M535 1905h102l149 -174l150 174h102l-204 -246h-95zM723 -31q-162 0 -288.5 56.5t-208 158.5t-123.5 242.5t-42 310.5t42 310.5t123.5 242.5t208 158.5t288.5 56.5q251 0 411.5 -131t217.5 -362l-90 -21q-51 201 -188 314.5t-351 113.5q-139 0 -248 -50t-179 -141.5
t-106 -215.5t-36 -275t36 -275t106 -215.5t179 -141.5t248 -50q214 0 351 113.5t188 314.5l90 -20q-57 -231 -217.5 -362.5t-411.5 -131.5z" />
    <glyph glyph-name="ccaron" unicode="&#x10d;" horiz-adv-x="1103" 
d="M336 1536h102l150 -174l149 174h103l-205 -246h-94zM588 -31q-236 0 -371 155.5t-135 428.5q0 275 134 429.5t372 154.5q154 0 273.5 -74t170.5 -201l-82 -35q-46 105 -141.5 164.5t-220.5 59.5q-196 0 -305 -131t-109 -367q0 -235 109 -366.5t305 -131.5q124 0 217 57
t143 164l84 -36q-140 -271 -444 -271z" />
    <glyph glyph-name="Dcaron" unicode="&#x10e;" horiz-adv-x="1335" 
d="M330 1905h102l150 -174l149 174h103l-205 -246h-94zM545 0h-402v1475h402q352 0 530 -186t178 -552t-178 -551.5t-530 -185.5zM236 1389v-1303h299q322 0 474 158.5t152 492.5q0 333 -153 492.5t-473 159.5h-299z" />
    <glyph glyph-name="dcaron" unicode="&#x10f;" horiz-adv-x="1378" 
d="M1270 1128l6 54h7q24 0 36.5 13.5t15 30t2.5 45.5v17v23h-67v184h123v-246q0 -42 -16.5 -73t-40.5 -40q-24 -11 -41 -11q-11 0 -25 3zM1063 1475h86v-1475h-86v208q-123 -239 -414 -239q-242 0 -374 159.5t-132 422.5q0 268 133 427t373 159q292 0 414 -241v579z
M649 1051q-203 0 -308 -135t-105 -365q0 -231 105.5 -363.5t307.5 -132.5q204 0 309 134.5t105 361.5q0 231 -107 365.5t-307 134.5z" />
    <glyph glyph-name="Dcroat" unicode="&#x110;" horiz-adv-x="1312" 
d="M20 694v86h123v695h402q352 0 530 -186t178 -552t-178 -551.5t-530 -185.5h-402v694h-123zM236 1389v-609h399v-86h-399v-608h299q322 0 474 158.5t152 492.5q0 333 -153 492.5t-473 159.5h-299z" />
    <glyph glyph-name="dcroat" unicode="&#x111;" horiz-adv-x="1230" 
d="M1001 1229h-253v86h253v160h86v-160h152v-86h-152v-1229h-86v208q-123 -239 -413 -239q-242 0 -374 159.5t-132 422.5q0 268 133 427t373 159q291 0 413 -241v333zM588 1051q-203 0 -308.5 -135t-105.5 -365q0 -231 105.5 -363.5t308.5 -132.5q204 0 308.5 134.5
t104.5 361.5q0 231 -106.5 365.5t-306.5 134.5z" />
    <glyph glyph-name="Emacron" unicode="&#x112;" horiz-adv-x="1146" 
d="M840 1720h-492v86h492v-86zM1044 0h-901v1475h901v-86h-815v-609h693v-86h-693v-608h815v-86z" />
    <glyph glyph-name="emacron" unicode="&#x113;" 
d="M362 1352v86h492v-86h-492zM596 55q271 0 394 250l75 -41q-68 -143 -189 -219t-280 -76q-236 0 -375 157t-139 427q0 273 135 428.5t371 155.5q238 0 371 -160.5t133 -448.5h-918q7 -223 119 -348t303 -125zM176 614h820q-18 212 -122.5 324.5t-285.5 112.5
q-182 0 -290 -115.5t-122 -321.5z" />
    <glyph glyph-name="Edotaccent" unicode="&#x116;" horiz-adv-x="1146" 
d="M666 1720h-123v123h123v-123zM1044 0h-901v1475h901v-86h-815v-609h693v-86h-693v-608h815v-86z" />
    <glyph glyph-name="edotaccent" unicode="&#x117;" 
d="M526 1352v123h123v-123h-123zM596 55q271 0 394 250l75 -41q-68 -143 -189 -219t-280 -76q-236 0 -375 157t-139 427q0 273 135 428.5t371 155.5q238 0 371 -160.5t133 -448.5h-918q7 -223 119 -348t303 -125zM176 614h820q-18 212 -122.5 324.5t-285.5 112.5
q-182 0 -290 -115.5t-122 -321.5z" />
    <glyph glyph-name="Eogonek" unicode="&#x118;" horiz-adv-x="1146" 
d="M899 -496q-71 0 -125.5 56t-54.5 129q0 116 129 256q30 34 54 55h-759v1475h901v-86h-815v-609h693v-86h-693v-608h815v-86q-99 -65 -167 -152.5t-68 -158.5q0 -44 26.5 -73.5t63.5 -29.5q55 0 107 60l51 -58q-66 -84 -158 -84z" />
    <glyph glyph-name="eogonek" unicode="&#x119;" 
d="M872 -475q-55 -22 -107.5 -11.5t-88.5 46.5q-48 48 -48 121q0 31 9 67q20 72 73 147q0 1 2 3t2 3l9 11q1 1 2 3t2 3q9 12 53 62q18 20 27 29q-93 -40 -211 -40q-236 0 -375 157t-139 427q0 273 135 428.5t371 155.5q238 0 371 -160.5t133 -448.5h-918q7 -223 119 -348
t303 -125q271 0 394 250l75 -41q-7 -14 -8 -17q-27 -63 -81 -135q-61 -84 -129 -169l-44 -58q-68 -101 -84 -159q-7 -22 -7 -45q0 -37 23 -60q29 -29 63 -29q52 0 113 56l54 -60q-39 -39 -93 -63zM176 614h820q-18 212 -122.5 324.5t-285.5 112.5q-182 0 -290 -115.5
t-122 -321.5z" />
    <glyph glyph-name="Ecaron" unicode="&#x11a;" horiz-adv-x="1146" 
d="M553 1659l-205 246h103l149 -174l150 174h102l-205 -246h-94zM1044 0h-901v1475h901v-86h-815v-609h693v-86h-693v-608h815v-86z" />
    <glyph glyph-name="ecaron" unicode="&#x11b;" 
d="M336 1536h102l150 -174l149 174h103l-205 -246h-94zM596 55q271 0 394 250l75 -41q-68 -143 -189 -219t-280 -76q-236 0 -375 157t-139 427q0 273 135 428.5t371 155.5q238 0 371 -160.5t133 -448.5h-918q7 -223 119 -348t303 -125zM176 614h820q-18 212 -122.5 324.5
t-285.5 112.5q-182 0 -290 -115.5t-122 -321.5z" />
    <glyph glyph-name="Gcircumflex" unicode="&#x11c;" horiz-adv-x="1417" 
d="M462 1659l205 246h94l205 -246h-103l-149 174l-150 -174h-102zM1249 0v284q-62 -151 -199.5 -233t-331.5 -82q-309 0 -483 204t-174 564q0 359 176 562.5t486 203.5q193 0 338.5 -89.5t212.5 -264.5l-84 -35q-58 148 -181 225.5t-286 77.5q-274 0 -421.5 -179.5
t-147.5 -512.5q0 -315 149 -492.5t415 -177.5q139 0 241 43t163.5 123t91 187t29.5 243h-598v86h690v-737h-86z" />
    <glyph glyph-name="gcircumflex" unicode="&#x11d;" horiz-adv-x="1230" 
d="M451 1290h-103l205 246h94l205 -246h-102l-150 174zM588 1137q143 0 248 -61.5t165 -175.5v206h86v-1045q0 -267 -129 -425t-370 -158q-305 0 -445 270l84 37q50 -108 144 -164.5t217 -56.5q200 0 306.5 133t106.5 364v185q-60 -114 -166 -175t-247 -61q-232 0 -369 152
t-137 409q0 261 138 413.5t368 152.5zM588 96q194 0 303.5 127.5t109.5 347.5q0 224 -111.5 352t-301.5 128q-193 0 -303.5 -128.5t-110.5 -351.5q0 -224 110.5 -349.5t303.5 -125.5z" />
    <glyph glyph-name="Gbreve" unicode="&#x11e;" horiz-adv-x="1417" 
d="M728 1610q-96 0 -164.5 68.5t-68.5 164.5h79q0 -62 46 -107.5t108 -45.5q64 0 109 45t45 108h80q0 -96 -69 -164.5t-165 -68.5zM1249 0v284q-62 -151 -199.5 -233t-331.5 -82q-309 0 -483 204t-174 564q0 359 176 562.5t486 203.5q193 0 338.5 -89.5t212.5 -264.5
l-84 -35q-58 148 -181 225.5t-286 77.5q-274 0 -421.5 -179.5t-147.5 -512.5q0 -315 149 -492.5t415 -177.5q139 0 241 43t163.5 123t91 187t29.5 243h-598v86h690v-737h-86z" />
    <glyph glyph-name="gbreve" unicode="&#x11f;" horiz-adv-x="1230" 
d="M598 1241q-96 0 -164.5 69t-68.5 165h79q0 -62 46 -108t108 -46q63 0 108.5 45.5t45.5 108.5h79q0 -96 -68.5 -165t-164.5 -69zM588 1137q143 0 248 -61.5t165 -175.5v206h86v-1045q0 -267 -129 -425t-370 -158q-305 0 -445 270l84 37q50 -108 144 -164.5t217 -56.5
q200 0 306.5 133t106.5 364v185q-60 -114 -166 -175t-247 -61q-232 0 -369 152t-137 409q0 261 138 413.5t368 152.5zM588 96q194 0 303.5 127.5t109.5 347.5q0 224 -111.5 352t-301.5 128q-193 0 -303.5 -128.5t-110.5 -351.5q0 -224 110.5 -349.5t303.5 -125.5z" />
    <glyph glyph-name="Gdotaccent" unicode="&#x120;" horiz-adv-x="1417" 
d="M656 1720v123h123v-123h-123zM1249 0v284q-62 -151 -199.5 -233t-331.5 -82q-309 0 -483 204t-174 564q0 359 176 562.5t486 203.5q193 0 338.5 -89.5t212.5 -264.5l-84 -35q-58 148 -181 225.5t-286 77.5q-274 0 -421.5 -179.5t-147.5 -512.5q0 -315 149 -492.5
t415 -177.5q139 0 241 43t163.5 123t91 187t29.5 243h-598v86h690v-737h-86z" />
    <glyph glyph-name="gdotaccent" unicode="&#x121;" horiz-adv-x="1177" 
d="M682 1352h-123v123h123v-123zM588 1137q143 0 248 -61.5t165 -175.5v206h86v-1045q0 -267 -129 -425t-370 -158q-305 0 -445 270l84 37q50 -108 144 -164.5t217 -56.5q200 0 306.5 133t106.5 364v185q-60 -114 -166 -175t-247 -61q-232 0 -369 152t-137 409
q0 261 138 413.5t368 152.5zM588 96q194 0 303.5 127.5t109.5 347.5q0 224 -111.5 352t-301.5 128q-193 0 -303.5 -128.5t-110.5 -351.5q0 -224 110.5 -349.5t303.5 -125.5z" />
    <glyph glyph-name="uni0122" unicode="&#x122;" horiz-adv-x="1417" 
d="M1249 0v284q-62 -151 -199.5 -233t-331.5 -82q-309 0 -483 204t-174 564q0 359 176 562.5t486 203.5q193 0 338.5 -89.5t212.5 -264.5l-84 -35q-58 148 -181 225.5t-286 77.5q-274 0 -421.5 -179.5t-147.5 -512.5q0 -315 149 -492.5t415 -177.5q139 0 241 43t163.5 123
t91 187t29.5 243h-598v86h690v-737h-86zM674 -461q23 0 43.5 19.5t20.5 48.5q0 8 -1 12h-63v123h123v-123q0 -68 -38 -104.5t-85 -36.5v61z" />
    <glyph glyph-name="uni0123" unicode="&#x123;" horiz-adv-x="1230" 
d="M662 1616v-62q-23 0 -44 -19t-21 -48q0 -8 1 -12h64v-123h-123v123q0 68 38 104.5t85 36.5zM588 1137q143 0 248 -61.5t165 -175.5v206h86v-1045q0 -267 -129 -425t-370 -158q-305 0 -445 270l84 37q50 -108 144 -164.5t217 -56.5q200 0 306.5 133t106.5 364v185
q-60 -114 -166 -175t-247 -61q-232 0 -369 152t-137 409q0 261 138 413.5t368 152.5zM588 96q194 0 303.5 127.5t109.5 347.5q0 224 -111.5 352t-301.5 128q-193 0 -303.5 -128.5t-110.5 -351.5q0 -224 110.5 -349.5t303.5 -125.5z" />
    <glyph glyph-name="Hcircumflex" unicode="&#x124;" horiz-adv-x="1351" 
d="M526 1659h-102l205 246h94l205 -246h-103l-149 174zM229 0h-86v1475h86v-695h893v695h86v-1475h-86v694h-893v-694z" />
    <glyph glyph-name="hcircumflex" unicode="&#x125;" 
d="M505 1659h-103l205 246h94l205 -246h-102l-150 174zM965 0v606q0 445 -363 445q-80 0 -145 -23.5t-117.5 -74t-81.5 -138.5t-29 -209v-606h-86v1475h86v-536q115 198 373 198q209 0 329 -132.5t120 -398.5v-606h-86z" />
    <glyph glyph-name="Hbar" unicode="&#x126;" horiz-adv-x="1392" 
d="M250 0h-86v1020h-144v86h144v369h86v-369h893v369h86v-369h143v-86h-143v-1020h-86v694h-893v-694zM250 1020v-240h893v240h-893z" />
    <glyph glyph-name="hbar" unicode="&#x127;" 
d="M143 1229h-143v86h143v160h86v-160h263v-86h-263v-290q115 198 373 198q209 0 329 -132.5t120 -398.5v-606h-86v606q0 445 -363 445q-80 0 -145 -23.5t-117.5 -74t-81.5 -138.5t-29 -209v-606h-86v1229z" />
    <glyph glyph-name="Itilde" unicode="&#x128;" horiz-adv-x="413" 
d="M349 1659q-63 0 -163 54q-88 44 -126 44q-26 0 -42 -13t-17 -27q-1 -8 -1 -17q0 -14 5 -31h-74q-6 21 -6 42q0 68 57 106q35 22 80 22q61 0 166 -54q88 -44 125 -44q33 0 47 18.5t14 42.5q0 13 -5 31h73q6 -21 6 -41q0 -70 -56 -109q-36 -24 -83 -24zM250 0h-86v1475h86
v-1475z" />
    <glyph glyph-name="itilde" unicode="&#x129;" horiz-adv-x="413" 
d="M349 1290q-61 0 -163 55q-88 44 -126 44q-26 0 -42 -13t-17 -27q-1 -8 -1 -18q0 -14 5 -31h-74q-6 21 -6 42q0 68 57 106q35 22 80 22q61 0 166 -54q88 -44 125 -44q33 0 47 19t14 43q0 12 -5 30h73q6 -21 6 -41q0 -69 -56 -108q-38 -25 -83 -25zM250 0h-86v1106h86
v-1106z" />
    <glyph glyph-name="Imacron" unicode="&#x12a;" horiz-adv-x="413" 
d="M453 1720h-492v86h492v-86zM250 0h-86v1475h86v-1475z" />
    <glyph glyph-name="imacron" unicode="&#x12b;" horiz-adv-x="413" 
d="M453 1352h-492v86h492v-86zM250 0h-86v1106h86v-1106z" />
    <glyph glyph-name="Iogonek" unicode="&#x12e;" horiz-adv-x="413" 
d="M104 -496q-71 0 -125.5 56t-54.5 129q0 116 129 256q46 50 111 104v1426h86v-1475q-99 -66 -167.5 -153.5t-68.5 -157.5q0 -44 26.5 -73.5t63.5 -29.5q55 0 107 60l51 -58q-66 -84 -158 -84z" />
    <glyph glyph-name="iogonek" unicode="&#x12f;" horiz-adv-x="413" 
d="M250 1343h-86v132h86v-132zM104 -496q-71 0 -125.5 56t-54.5 129q0 116 129 256q46 50 111 104v1057h86v-1106q-99 -66 -167.5 -153.5t-68.5 -157.5q0 -44 26.5 -73.5t63.5 -29.5q55 0 107 60l51 -58q-66 -84 -158 -84z" />
    <glyph glyph-name="Idotaccent" unicode="&#x130;" horiz-adv-x="413" 
d="M268 1720h-123v123h123v-123zM250 0h-86v1475h86v-1475z" />
    <glyph glyph-name="dotlessi" unicode="&#x131;" horiz-adv-x="413" 
d="M250 0h-86v1106h86v-1106z" />
    <glyph glyph-name="Jcircumflex" unicode="&#x134;" horiz-adv-x="899" 
d="M438 1659l205 246h94l205 -246h-102l-150 174l-149 -174h-103zM367 -29q-134 0 -235 78t-132 207l88 20q24 -96 101 -157.5t182 -61.5q72 0 137 32.5t102 100.5q18 32 26 73t9.5 72.5t1.5 98.5v1041h86v-1041q0 -136 -9 -183q-10 -57 -38 -106q-49 -85 -132.5 -129.5
t-186.5 -44.5z" />
    <glyph glyph-name="jcircumflex" unicode="&#x135;" horiz-adv-x="460" 
d="M104 1290h-102l205 246h94l205 -246h-103l-149 174zM50 -489h-70v86h38q109 0 151 41.5t42 150.5v1317h86v-1349q0 -114 -66.5 -180t-180.5 -66z" />
    <glyph glyph-name="uni0136" unicode="&#x136;" horiz-adv-x="1142" 
d="M229 770l729 705h119l-723 -705l789 -770h-119zM143 0v1475h86v-1475h-86zM537 -461q23 0 43.5 19.5t20.5 48.5q0 8 -1 12h-63v123h122v-123q0 -68 -37.5 -104.5t-84.5 -36.5v61z" />
    <glyph glyph-name="uni0137" unicode="&#x137;" horiz-adv-x="958" 
d="M143 0v1475h86v-902l553 533h129l-577 -553l665 -553h-147l-623 532v-532h-86zM479 -461q23 0 44 19.5t21 48.5q0 8 -1 12h-64v123h123v-123q0 -68 -38 -104.5t-85 -36.5v61z" />
    <glyph glyph-name="Lacute" unicode="&#x139;" horiz-adv-x="1013" 
d="M352 1935l-98 -276h-90l98 276h90zM983 0h-819v1475h86v-1389h733v-86z" />
    <glyph glyph-name="lacute" unicode="&#x13a;" horiz-adv-x="413" 
d="M352 1935l-98 -276h-90l98 276h90zM250 0h-86v1505h86v-1505z" />
    <glyph glyph-name="uni013B" unicode="&#x13b;" horiz-adv-x="1013" 
d="M983 0h-819v1475h86v-1389h733v-86zM512 -522v61q23 0 44 19.5t21 48.5q0 4 -2 12h-63v123h123v-123q0 -68 -38 -104.5t-85 -36.5z" />
    <glyph glyph-name="uni013C" unicode="&#x13c;" horiz-adv-x="413" 
d="M250 0h-86v1505h86v-1505zM145 -522v61q23 0 44 19.5t21 48.5q0 8 -1 12h-64v123h123v-123q0 -68 -38 -104.5t-85 -36.5z" />
    <glyph glyph-name="Lcaron" unicode="&#x13d;" horiz-adv-x="1013" 
d="M649 1128l6 54h8q24 0 36.5 13.5t15 30t2.5 45.5v17v23h-68v184h123v-246q0 -42 -16 -73t-40 -40q-24 -11 -41 -11q-13 0 -26 3zM987 0h-819v1475h86v-1389h733v-86z" />
    <glyph glyph-name="lcaron" unicode="&#x13e;" horiz-adv-x="532" 
d="M250 0h-86v1505h86v-1505zM424 1128l6 54h7q35 0 45 22.5t10 66.5v17v23h-68v184h123v-246q0 -42 -16.5 -73t-40.5 -40q-24 -11 -40 -11q-12 0 -26 3z" />
    <glyph glyph-name="Lslash" unicode="&#x141;" horiz-adv-x="1013" 
d="M164 498l-64 -37v102l64 37v875h86v-826l389 223v-100l-389 -225v-461h733v-86h-819v498z" />
    <glyph glyph-name="lslash" unicode="&#x142;" horiz-adv-x="739" 
d="M328 678l-228 -131v102l228 130v726h86v-676l225 129v-100l-225 -130v-728h-86v678z" />
    <glyph glyph-name="Nacute" unicode="&#x143;" horiz-adv-x="1355" 
d="M844 1935l-99 -276h-90l99 276h90zM229 0h-86v1475h86l897 -1323v1323h86v-1475h-86l-897 1323v-1323z" />
    <glyph glyph-name="nacute" unicode="&#x144;" 
d="M763 1567l-98 -277h-91l99 277h90zM965 0v606q0 445 -363 445q-80 0 -145 -23.5t-117.5 -74t-81.5 -138.5t-29 -209v-606h-86v1106h86v-167q115 198 373 198q209 0 329 -132.5t120 -398.5v-606h-86z" />
    <glyph glyph-name="uni0145" unicode="&#x145;" horiz-adv-x="1355" 
d="M229 0h-86v1475h86l897 -1323v1323h86v-1475h-86l-897 1323v-1323zM637 -522v61q23 0 43.5 19.5t20.5 48.5q0 8 -1 12h-63v123h123v-123q0 -68 -38 -104.5t-85 -36.5z" />
    <glyph glyph-name="uni0146" unicode="&#x146;" 
d="M965 0v606q0 445 -363 445q-80 0 -145 -23.5t-117.5 -74t-81.5 -138.5t-29 -209v-606h-86v1106h86v-167q115 198 373 198q209 0 329 -132.5t120 -398.5v-606h-86zM537 -522v61q23 0 43.5 19.5t20.5 48.5q0 8 -1 12h-63v123h122v-123q0 -68 -37.5 -104.5t-84.5 -36.5z" />
    <glyph glyph-name="Ncaron" unicode="&#x147;" horiz-adv-x="1355" 
d="M659 1659l-204 246h102l150 -174l149 174h102l-204 -246h-95zM229 0h-86v1475h86l897 -1323v1323h86v-1475h-86l-897 1323v-1323z" />
    <glyph glyph-name="ncaron" unicode="&#x148;" 
d="M547 1290l-205 246h102l150 -174l149 174h103l-205 -246h-94zM965 0v606q0 445 -363 445q-80 0 -145 -23.5t-117.5 -74t-81.5 -138.5t-29 -209v-606h-86v1106h86v-167q115 198 373 198q209 0 329 -132.5t120 -398.5v-606h-86z" />
    <glyph glyph-name="Eng" unicode="&#x14a;" horiz-adv-x="1355" 
d="M1126 152v1323h86v-1670q0 -89 -37 -130.5t-118 -41.5q-37 0 -84 11v84l20 -3q28 -4 39 -4q56 0 75 33.5t19 132.5q0 114 -43 176l-854 1260v-1323h-86v1475h86z" />
    <glyph glyph-name="eng" unicode="&#x14b;" 
d="M965 -211v817q0 445 -363 445q-80 0 -145 -23.5t-117.5 -74t-81.5 -138.5t-29 -209v-606h-86v1106h86v-167q115 198 373 198q209 0 329 -132.5t120 -398.5v-849q0 -114 -66.5 -180t-180.5 -66h-71v86h39q109 0 151 41.5t42 150.5z" />
    <glyph glyph-name="Omacron" unicode="&#x14c;" horiz-adv-x="1445" 
d="M477 1720v86h492v-86h-492zM723 -31q-162 0 -288.5 56.5t-208 158.5t-123.5 242.5t-42 310.5t42 310.5t123.5 242.5t208 158.5t288.5 56.5t288.5 -56.5t207.5 -159t123 -242t42 -310.5t-42 -310.5t-123 -242t-207.5 -159t-288.5 -56.5zM723 55q139 0 248 50t179 141.5
t106 215.5t36 275t-36 275t-106 215.5t-179 141.5t-248 50t-247.5 -50t-178 -141.5t-105.5 -215.5t-38 -275q-2 -202 60.5 -354t193 -240t315.5 -88z" />
    <glyph glyph-name="omacron" unicode="&#x14d;" horiz-adv-x="1175" 
d="M342 1352v86h492v-86h-492zM588 -31q-161 0 -276 75t-172.5 206.5t-57.5 304.5q0 265 134 423.5t372 158.5q242 0 374 -159.5t132 -422.5q0 -268 -133 -427t-373 -159zM588 55q203 0 308 135t105 365q0 231 -105.5 363.5t-307.5 132.5q-204 0 -309 -134.5t-105 -361.5
q0 -231 107 -365.5t307 -134.5z" />
    <glyph glyph-name="Ohungarumlaut" unicode="&#x150;" horiz-adv-x="1445" 
d="M949 1659h-90l98 276h91zM591 1659h-90l98 276h90zM723 -31q-162 0 -288.5 56.5t-208 158.5t-123.5 242.5t-42 310.5t42 310.5t123.5 242.5t208 158.5t288.5 56.5t288.5 -56.5t207.5 -159t123 -242t42 -310.5t-42 -310.5t-123 -242t-207.5 -159t-288.5 -56.5zM723 55
q139 0 248 50t179 141.5t106 215.5t36 275t-36 275t-106 215.5t-179 141.5t-248 50t-247.5 -50t-178 -141.5t-105.5 -215.5t-38 -275q-2 -202 60.5 -354t193 -240t315.5 -88z" />
    <glyph glyph-name="ohungarumlaut" unicode="&#x151;" horiz-adv-x="1175" 
d="M818 1290h-90l98 277h90zM460 1290h-90l98 277h90zM588 -31q-161 0 -276 75t-172.5 206.5t-57.5 304.5q0 265 134 423.5t372 158.5q242 0 374 -159.5t132 -422.5q0 -268 -133 -427t-373 -159zM588 55q203 0 308 135t105 365q0 231 -105.5 363.5t-307.5 132.5
q-204 0 -309 -134.5t-105 -361.5q0 -231 107 -365.5t307 -134.5z" />
    <glyph glyph-name="OE" unicode="&#x152;" horiz-adv-x="2301" 
d="M723 -31q-162 0 -288.5 56.5t-208 158.5t-123.5 242.5t-42 310.5t42 310.5t123.5 242.5t208 158.5t288.5 56.5q207 0 352 -89.5t223 -252.5v312h902v-86h-816v-609h693v-86h-693v-608h816v-86h-902v311q-78 -163 -223 -252.5t-352 -89.5zM723 55q139 0 248 50t179 141.5
t106 215.5t36 275t-36 275t-106 215.5t-179 141.5t-248 50t-247.5 -50t-178 -141.5t-105.5 -215.5t-38 -275q-2 -202 60.5 -354t193 -240t315.5 -88z" />
    <glyph glyph-name="oe" unicode="&#x153;" horiz-adv-x="2095" 
d="M588 -31q-161 0 -276 75t-172.5 206.5t-57.5 304.5q0 265 134 423.5t372 158.5q168 0 285 -79.5t173 -222.5q57 146 174.5 224t282.5 78q238 0 371 -160.5t133 -448.5h-913q0 -6 -1 -17t-1 -16q15 -209 125.5 -324.5t293.5 -115.5q272 0 395 250l74 -41
q-68 -143 -189 -219t-280 -76q-166 0 -286 79.5t-178 225.5q-57 -145 -174 -225t-285 -80zM588 55q188 0 292.5 117.5t118.5 320.5q-2 38 -2 60q0 23 2 63q-13 204 -117.5 319.5t-293.5 115.5q-204 0 -309 -134.5t-105 -361.5q0 -231 107 -365.5t307 -134.5zM1092 614h820
q-18 212 -123 324.5t-286 112.5t-289 -115t-122 -320v-2z" />
    <glyph glyph-name="Racute" unicode="&#x154;" horiz-adv-x="1251" 
d="M606 1659h-90l98 276h91zM1066 0l-394 590h-6h-437v-590h-86v1475h523q210 0 336 -121t126 -322q0 -173 -96 -288.5t-262 -144.5l399 -599h-103zM229 1389v-713h437q172 0 271 95.5t99 260.5t-99 261t-271 96h-437z" />
    <glyph glyph-name="racute" unicode="&#x155;" horiz-adv-x="686" 
d="M455 1567l-99 -277h-90l99 277h90zM635 1136v-86q-11 1 -33 1q-80 0 -145 -23.5t-117.5 -74t-81.5 -138.5t-29 -209v-606h-86v1106h86v-167q115 198 373 198q22 0 33 -1z" />
    <glyph glyph-name="uni0156" unicode="&#x156;" horiz-adv-x="1251" 
d="M1066 0l-394 590h-6h-437v-590h-86v1475h523q210 0 336 -121t126 -322q0 -173 -96 -288.5t-262 -144.5l399 -599h-103zM229 1389v-713h437q172 0 271 95.5t99 260.5t-99 261t-271 96h-437zM543 -461q23 0 43.5 19.5t20.5 48.5q0 8 -1 12h-63v123h123v-123
q0 -68 -38 -104.5t-85 -36.5v61z" />
    <glyph glyph-name="uni0157" unicode="&#x157;" horiz-adv-x="686" 
d="M635 1136v-86q-11 1 -33 1q-80 0 -145 -23.5t-117.5 -74t-81.5 -138.5t-29 -209v-606h-86v1106h86v-167q115 198 373 198q22 0 33 -1zM125 -522v61q23 0 43.5 19.5t20.5 48.5q0 8 -1 12h-63v123h123v-123q0 -68 -38 -104.5t-85 -36.5z" />
    <glyph glyph-name="Rcaron" unicode="&#x158;" horiz-adv-x="1251" 
d="M313 1905h103l149 -174l150 174h102l-205 -246h-94zM1066 0l-394 590h-6h-437v-590h-86v1475h523q210 0 336 -121t126 -322q0 -173 -96 -288.5t-262 -144.5l399 -599h-103zM229 1389v-713h437q172 0 271 95.5t99 260.5t-99 261t-271 96h-437z" />
    <glyph glyph-name="rcaron" unicode="&#x159;" horiz-adv-x="686" 
d="M342 1290l-205 246h103l149 -174l150 174h102l-205 -246h-94zM635 1136v-86q-11 1 -33 1q-80 0 -145 -23.5t-117.5 -74t-81.5 -138.5t-29 -209v-606h-86v1106h86v-167q115 198 373 198q22 0 33 -1z" />
    <glyph glyph-name="Sacute" unicode="&#x15a;" horiz-adv-x="1206" 
d="M655 1659h-90l99 276h90zM633 -31q-224 0 -378 107t-194 291l86 16q40 -152 170 -240t316 -88q194 0 311 90.5t117 239.5q0 206 -268 285l-369 110q-305 90 -305 338q0 170 134 278.5t347 108.5q217 0 364 -117.5t175 -312.5l-86 -16q-22 161 -147 260.5t-306 99.5
q-171 0 -280 -85.5t-109 -213.5q0 -101 65.5 -160.5t229.5 -109.5l305 -92q163 -50 248.5 -145t85.5 -228q0 -190 -139 -303t-373 -113z" />
    <glyph glyph-name="sacute" unicode="&#x15b;" horiz-adv-x="1052" 
d="M579 1290h-91l99 277h90zM547 -29q-376 0 -465 295l90 20q71 -229 375 -229q157 0 244.5 62t87.5 174q0 58 -31 100.5t-106 74.5q-69 27 -203 64q-162 44 -213 65q-175 69 -204 192q-7 27 -7 58q0 125 118 207.5t298 82.5q177 0 297.5 -88t142.5 -232l-88 -16
q-19 117 -114 183.5t-244 66.5q-135 0 -227.5 -59t-92.5 -148q0 -22 7 -42.5t17 -36.5t29 -31.5t34.5 -26.5t42.5 -22.5t44 -18t48 -16t46.5 -13.5t47 -11.5t41.5 -10.5q160 -41 235 -76q89 -41 130.5 -101.5t41.5 -146.5q0 -148 -113 -234t-309 -86z" />
    <glyph glyph-name="Scircumflex" unicode="&#x15c;" horiz-adv-x="1206" 
d="M367 1659l204 246h95l204 -246h-102l-150 174l-149 -174h-102zM633 -31q-224 0 -378 107t-194 291l86 16q40 -152 170 -240t316 -88q194 0 311 90.5t117 239.5q0 206 -268 285l-369 110q-305 90 -305 338q0 170 134 278.5t347 108.5q217 0 364 -117.5t175 -312.5l-86 -16
q-22 161 -147 260.5t-306 99.5q-171 0 -280 -85.5t-109 -213.5q0 -101 65.5 -160.5t229.5 -109.5l305 -92q163 -50 248.5 -145t85.5 -228q0 -190 -139 -303t-373 -113z" />
    <glyph glyph-name="scircumflex" unicode="&#x15d;" horiz-adv-x="1052" 
d="M295 1290l205 246h94l205 -246h-103l-149 174l-150 -174h-102zM547 -29q-376 0 -465 295l90 20q71 -229 375 -229q157 0 244.5 62t87.5 174q0 58 -31 100.5t-106 74.5q-69 27 -203 64q-162 44 -213 65q-175 69 -204 192q-7 27 -7 58q0 125 118 207.5t298 82.5
q177 0 297.5 -88t142.5 -232l-88 -16q-19 117 -114 183.5t-244 66.5q-135 0 -227.5 -59t-92.5 -148q0 -22 7 -42.5t17 -36.5t29 -31.5t34.5 -26.5t42.5 -22.5t44 -18t48 -16t46.5 -13.5t47 -11.5t41.5 -10.5q160 -41 235 -76q89 -41 130.5 -101.5t41.5 -146.5
q0 -148 -113 -234t-309 -86z" />
    <glyph glyph-name="Scedilla" unicode="&#x15e;" horiz-adv-x="1206" 
d="M580 -489q-60 0 -123 28l28 76q55 -21 88 -21q42 0 69.5 28.5t27.5 68.5q0 56 -60 83q-27 13 -70 27q-2 0 -8 2l62 167q-209 9 -352 115.5t-181 281.5l86 16q40 -152 170 -240t316 -88q194 0 311 90.5t117 239.5q0 206 -268 285l-369 110q-305 90 -305 338
q0 170 134 278.5t347 108.5q217 0 364 -117.5t175 -312.5l-86 -16q-22 161 -147 260.5t-306 99.5q-171 0 -280 -85.5t-109 -213.5q0 -101 65.5 -160.5t229.5 -109.5l305 -92q163 -50 248.5 -145t85.5 -228q0 -180 -125.5 -291.5t-339.5 -123.5l-43 -115q123 -52 123 -168
q0 -72 -53.5 -124t-126.5 -52z" />
    <glyph glyph-name="scedilla" unicode="&#x15f;" horiz-adv-x="1052" 
d="M487 -489q-59 0 -122 28l28 76q55 -21 88 -21q42 0 69.5 28.5t27.5 68.5q0 56 -60 83q-24 11 -71 27q-1 0 -7 2l63 169q-337 17 -421 294l90 20q71 -229 375 -229q157 0 244.5 62t87.5 174q0 58 -31 100.5t-106 74.5q-69 27 -203 64q-162 44 -213 65q-175 69 -204 192
q-7 27 -7 58q0 125 118 207.5t298 82.5q177 0 297.5 -88t142.5 -232l-88 -16q-19 117 -114 183.5t-244 66.5q-135 0 -227.5 -59t-92.5 -148q0 -22 7 -42.5t17 -36.5t29 -31.5t34.5 -26.5t42.5 -22.5t44 -18t48 -16t46.5 -13.5t47 -11.5t41.5 -10.5q160 -41 235 -76
q89 -41 130.5 -101.5t41.5 -146.5q0 -140 -101 -225t-279 -94l-44 -117q123 -52 123 -168q0 -72 -54 -124t-127 -52z" />
    <glyph glyph-name="Scaron" unicode="&#x160;" horiz-adv-x="1206" 
d="M379 1905h102l150 -174l149 174h103l-205 -246h-94zM633 -31q-224 0 -378 107t-194 291l86 16q40 -152 170 -240t316 -88q194 0 311 90.5t117 239.5q0 206 -268 285l-369 110q-305 90 -305 338q0 170 134 278.5t347 108.5q217 0 364 -117.5t175 -312.5l-86 -16
q-22 161 -147 260.5t-306 99.5q-171 0 -280 -85.5t-109 -213.5q0 -101 65.5 -160.5t229.5 -109.5l305 -92q163 -50 248.5 -145t85.5 -228q0 -190 -139 -303t-373 -113z" />
    <glyph glyph-name="scaron" unicode="&#x161;" horiz-adv-x="1052" 
d="M301 1536h102l150 -174l149 174h103l-205 -246h-94zM547 -29q-376 0 -465 295l90 20q71 -229 375 -229q157 0 244.5 62t87.5 174q0 58 -31 100.5t-106 74.5q-69 27 -203 64q-162 44 -213 65q-175 69 -204 192q-7 27 -7 58q0 125 118 207.5t298 82.5q177 0 297.5 -88
t142.5 -232l-88 -16q-19 117 -114 183.5t-244 66.5q-135 0 -227.5 -59t-92.5 -148q0 -22 7 -42.5t17 -36.5t29 -31.5t34.5 -26.5t42.5 -22.5t44 -18t48 -16t46.5 -13.5t47 -11.5t41.5 -10.5q160 -41 235 -76q89 -41 130.5 -101.5t41.5 -146.5q0 -148 -113 -234t-309 -86z
" />
    <glyph glyph-name="uni0162" unicode="&#x162;" horiz-adv-x="1208" 
d="M561 0h-24v1389h-469v86h1013v-86h-458v-1389h24l-59 -160q123 -52 123 -168q0 -72 -54 -124t-127 -52q-56 0 -122 29l28 76q55 -21 88 -21q43 0 70 28t27 68q0 56 -60 83q-32 15 -71 28q-1 0 -7 2z" />
    <glyph glyph-name="uni0163" unicode="&#x163;" horiz-adv-x="776" 
d="M416 -489q-60 0 -123 28l29 76q55 -21 88 -21q42 0 69 28.5t27 68.5q0 56 -60 83q-27 13 -70 27q-1 0 -7 2l76 207q-78 23 -121 84.5t-43 152.5v773h-261v86h261v307h86v-307h348v-86h-348v-737q0 -110 42 -153.5t150 -43.5h156v-86h-188l-54 -145q123 -52 123 -168
q0 -72 -53.5 -124t-126.5 -52z" />
    <glyph glyph-name="Tcaron" unicode="&#x164;" horiz-adv-x="1208" 
d="M557 1659l-205 246h103l149 -174l150 174h102l-205 -246h-94zM647 0h-86v1389h-541v86h1168v-86h-541v-1389z" />
    <glyph glyph-name="tcaron" unicode="&#x165;" horiz-adv-x="776" 
d="M592 1272l6 53h7q24 0 36.5 13.5t15 30t2.5 45.5v18v22h-67v184h123v-245q0 -42 -16.5 -73.5t-40.5 -40.5q-21 -10 -41 -10q-11 0 -25 3zM20 1020v86h261v370h86v-370h348v-86h-348v-737q0 -110 42 -153.5t150 -43.5h156v-86h-188q-114 0 -180 66.5t-66 180.5v773h-261z
" />
    <glyph glyph-name="Tbar" unicode="&#x166;" horiz-adv-x="1208" 
d="M561 694h-387v86h387v609h-541v86h1168v-86h-541v-609h387v-86h-387v-694h-86v694z" />
    <glyph glyph-name="tbar" unicode="&#x167;" horiz-adv-x="817" 
d="M281 510h-261v86h261v424h-261v86h261v307h86v-307h348v-86h-348v-424h348v-86h-348v-227q0 -110 42 -153.5t150 -43.5h156v-86h-188q-114 0 -180 66.5t-66 180.5v263z" />
    <glyph glyph-name="Utilde" unicode="&#x168;" horiz-adv-x="1413" 
d="M854 1659q-62 0 -163 54q-85 44 -126 44q-25 0 -41.5 -13t-17.5 -27q-1 -8 -1 -17q0 -14 5 -31h-74q-6 21 -6 42q0 68 56 106q35 22 81 22q61 0 166 -54q88 -44 125 -44q33 0 47 18.5t14 42.5q0 9 -6 31h74q6 -21 6 -41q0 -70 -56 -109q-36 -24 -83 -24zM707 -31
q-260 0 -412 160t-152 434v912h86v-914q0 -238 127.5 -374t350.5 -136t350 136t127 374v914h86v-912q0 -275 -151.5 -434.5t-411.5 -159.5z" />
    <glyph glyph-name="utilde" unicode="&#x169;" 
d="M743 1290q-60 0 -162 55q-85 44 -126 44q-26 0 -42.5 -13t-17.5 -27q-1 -8 -1 -18q0 -14 5 -31h-73q-7 24 -7 42q0 68 57 106q35 22 81 22q61 0 166 -54q88 -44 125 -44q33 0 46.5 19t13.5 43q0 12 -5 30h74q6 -21 6 -41q0 -68 -57 -108q-38 -25 -83 -25zM209 1106v-606
q0 -445 362 -445q80 0 145 23.5t117.5 74t81.5 138.5t29 209v606h86v-1106h-86v167q-115 -198 -373 -198q-209 0 -328.5 132.5t-119.5 398.5v606h86z" />
    <glyph glyph-name="Umacron" unicode="&#x16a;" horiz-adv-x="1413" 
d="M461 1720v86h491v-86h-491zM707 -31q-260 0 -412 160t-152 434v912h86v-914q0 -238 127.5 -374t350.5 -136t350 136t127 374v914h86v-912q0 -275 -151.5 -434.5t-411.5 -159.5z" />
    <glyph glyph-name="umacron" unicode="&#x16b;" 
d="M821 1352h-491v86h491v-86zM209 1106v-606q0 -445 362 -445q80 0 145 23.5t117.5 74t81.5 138.5t29 209v606h86v-1106h-86v167q-115 -198 -373 -198q-209 0 -328.5 132.5t-119.5 398.5v606h86z" />
    <glyph glyph-name="Ubreve" unicode="&#x16c;" horiz-adv-x="1413" 
d="M707 1610q-96 0 -165 68.5t-69 164.5h80q0 -62 46 -107.5t108 -45.5q63 0 108 45t45 108h80q0 -96 -68.5 -164.5t-164.5 -68.5zM707 -31q-260 0 -412 160t-152 434v912h86v-914q0 -238 127.5 -374t350.5 -136t350 136t127 374v914h86v-912q0 -275 -151.5 -434.5
t-411.5 -159.5z" />
    <glyph glyph-name="ubreve" unicode="&#x16d;" 
d="M577 1241q-96 0 -165 69t-69 165h80q0 -62 46 -108t108 -46q63 0 108 45.5t45 108.5h80q0 -96 -68.5 -165t-164.5 -69zM209 1106v-606q0 -445 362 -445q80 0 145 23.5t117.5 74t81.5 138.5t29 209v606h86v-1106h-86v167q-115 -198 -373 -198q-209 0 -328.5 132.5
t-119.5 398.5v606h86z" />
    <glyph glyph-name="Uring" unicode="&#x16e;" horiz-adv-x="1413" 
d="M707 1597q-81 0 -140 58.5t-59 140.5q0 81 59 140t140 59q82 0 140 -59t58 -140q0 -83 -58 -141t-140 -58zM707 1683q46 0 79 33.5t33 79.5q0 47 -33 80t-79 33t-79.5 -33.5t-33.5 -79.5t33.5 -79.5t79.5 -33.5zM707 -31q-260 0 -412 160t-152 434v912h86v-914
q0 -238 127.5 -374t350.5 -136t350 136t127 374v914h86v-912q0 -275 -151.5 -434.5t-411.5 -159.5z" />
    <glyph glyph-name="uring" unicode="&#x16f;" 
d="M578 1229q-81 0 -140 58t-59 140q0 81 59 140t140 59q82 0 140 -59t58 -140q0 -83 -58 -140.5t-140 -57.5zM578 1315q46 0 79 33t33 79q0 47 -33 80t-79 33t-79.5 -33.5t-33.5 -79.5t33.5 -79t79.5 -33zM209 1106v-606q0 -445 362 -445q80 0 145 23.5t117.5 74
t81.5 138.5t29 209v606h86v-1106h-86v167q-115 -198 -373 -198q-209 0 -328.5 132.5t-119.5 398.5v606h86z" />
    <glyph glyph-name="Uhungarumlaut" unicode="&#x170;" horiz-adv-x="1413" 
d="M918 1659h-91l99 276h90zM559 1659h-90l98 276h90zM707 -31q-260 0 -412 160t-152 434v912h86v-914q0 -238 127.5 -374t350.5 -136t350 136t127 374v914h86v-912q0 -275 -151.5 -434.5t-411.5 -159.5z" />
    <glyph glyph-name="uhungarumlaut" unicode="&#x171;" 
d="M892 1567l-98 -277h-91l99 277h90zM534 1567l-99 -277h-90l98 277h91zM209 1106v-606q0 -445 362 -445q80 0 145 23.5t117.5 74t81.5 138.5t29 209v606h86v-1106h-86v167q-115 -198 -373 -198q-209 0 -328.5 132.5t-119.5 398.5v606h86z" />
    <glyph glyph-name="Uogonek" unicode="&#x172;" horiz-adv-x="1413" 
d="M707 -31q-260 0 -412 160t-152 434v912h86v-914q0 -238 127.5 -374t350.5 -136q178 0 298 89l4 3q175 133 175 418v914h86v-912q0 -163 -55.5 -287.5t-158.5 -201.5q-55 -44 -99 -89q-118 -115 -118 -215q0 -44 26.5 -73.5t63.5 -29.5q54 0 106 60l51 -58
q-66 -84 -157 -84q-71 0 -125.5 56t-54.5 129q0 63 34 125q20 41 57 87q-68 -13 -133 -13z" />
    <glyph glyph-name="uogonek" unicode="&#x173;" 
d="M885 -496q-71 0 -125.5 56t-54.5 129q0 116 129 256q49 53 110 104v118q-115 -198 -373 -198q-209 0 -328.5 132.5t-119.5 398.5v606h86v-606q0 -445 362 -445q80 0 145 23.5t117.5 74t81.5 138.5t29 209v606h86v-1106q-99 -65 -167 -152.5t-68 -158.5q0 -44 26.5 -73.5
t63.5 -29.5q54 0 106 60l51 -58q-66 -84 -157 -84z" />
    <glyph glyph-name="Wcircumflex" unicode="&#x174;" horiz-adv-x="1861" 
d="M782 1659h-102l205 246h94l205 -246h-103l-149 174zM553 0h-90l-422 1475h88l379 -1319l377 1319h90l379 -1319l377 1319h90l-422 -1475h-90l-379 1317z" />
    <glyph glyph-name="wcircumflex" unicode="&#x175;" horiz-adv-x="1527" 
d="M612 1290h-102l205 246h94l205 -246h-103l-149 174zM1055 0l-291 957l-291 -957h-94l-338 1106h90l295 -967l293 967h90l293 -967l295 967h90l-338 -1106h-94z" />
    <glyph glyph-name="Ycircumflex" unicode="&#x176;" horiz-adv-x="1062" 
d="M383 1659h-102l204 246h95l204 -246h-102l-150 174zM575 0h-86v627l-489 848h98l434 -750l433 750h98l-488 -848v-627z" />
    <glyph glyph-name="ycircumflex" unicode="&#x177;" horiz-adv-x="1036" 
d="M385 1290h-102l204 246h95l204 -246h-102l-149 174zM406 -492h-97l183 491l-451 1107h94l400 -988l358 988h92z" />
    <glyph glyph-name="Ydieresis" unicode="&#x178;" horiz-adv-x="1062" 
d="M778 1720h-123v123h123v-123zM410 1720h-123v123h123v-123zM575 0h-86v627l-489 848h98l434 -750l433 750h98l-488 -848v-627z" />
    <glyph glyph-name="Zacute" unicode="&#x179;" horiz-adv-x="1241" 
d="M779 1935l-98 -276h-90l98 276h90zM1139 0h-1037v86l931 1303h-931v86h1037v-86l-931 -1303h931v-86z" />
    <glyph glyph-name="zacute" unicode="&#x17a;" horiz-adv-x="1058" 
d="M652 1567l-98 -277h-90l98 277h90zM977 0h-936v86l821 934h-821v86h936v-86l-821 -934h821v-86z" />
    <glyph glyph-name="Zdotaccent" unicode="&#x17b;" horiz-adv-x="1241" 
d="M687 1720h-123v123h123v-123zM1139 0h-1037v86l931 1303h-931v86h1037v-86l-931 -1303h931v-86z" />
    <glyph glyph-name="zdotaccent" unicode="&#x17c;" horiz-adv-x="1058" 
d="M570 1352h-123v123h123v-123zM977 0h-936v86l821 934h-821v86h936v-86l-821 -934h821v-86z" />
    <glyph glyph-name="Zcaron" unicode="&#x17d;" horiz-adv-x="1241" 
d="M579 1659l-205 246h102l150 -174l149 174h103l-205 -246h-94zM1139 0h-1037v86l931 1303h-931v86h1037v-86l-931 -1303h931v-86z" />
    <glyph glyph-name="zcaron" unicode="&#x17e;" horiz-adv-x="1058" 
d="M462 1290l-205 246h102l150 -174l149 174h103l-205 -246h-94zM977 0h-936v86l821 934h-821v86h936v-86l-821 -934h821v-86z" />
    <glyph glyph-name="uni018F" unicode="&#x18f;" horiz-adv-x="1406" 
d="M684 -31q-292 0 -457.5 186.5t-165.5 514.5q0 46 5 88h1187q-8 315 -164 487t-425 172q-167 0 -290 -80t-177 -223l-84 35q65 169 209 261.5t342 92.5q313 0 497.5 -205t184.5 -561q0 -359 -176 -563.5t-486 -204.5zM1252 672h-1098q0 -296 137.5 -456.5t392.5 -160.5
q253 0 403.5 164t164.5 453z" />
    <glyph glyph-name="florin" unicode="&#x192;" horiz-adv-x="1482" 
d="M311 -31q-77 0 -149 22q-73 23 -101 38l37 77q3 0 10 -4q122 -47 205 -47q101 0 189 70q86 68 119 260l50 309h-405v86h419l60 369q24 149 103 228q79 80 162 104q84 24 159 24q115 0 215 -41q37 -15 37 -19v-1l-43 -74q-98 49 -215 49q-105 0 -206 -57
q-101 -59 -128 -227l-58 -355h505v-86h-518l-53 -323q-39 -238 -155 -319q-118 -83 -239 -83z" />
    <glyph glyph-name="Ohorn" unicode="&#x1a0;" horiz-adv-x="1445" 
d="M1230 1665q6 -37 6 -71q0 -32 -9 -75t-60 -82q-32 -23 -69 -34h-2q143 -95 215.5 -267t72.5 -399q0 -171 -42 -310.5t-123 -242t-207.5 -159t-288.5 -56.5t-288.5 56.5t-208 158.5t-123.5 242.5t-42 310.5t42 310.5t123.5 242.5t208 158.5t288.5 56.5q99 0 190 -22
q1 0 2 -1q7 -1 21 -5q40 -10 62 -10h6q34 0 68 17q75 38 75 134q0 12 -2 38l-1 9h86zM723 55q139 0 248 50t179 141.5t106 215.5t36 275t-36 275t-106 215.5t-179 141.5t-248 50t-247.5 -50t-178 -141.5t-105.5 -215.5t-38 -275q-2 -202 60.5 -354t193 -240t315.5 -88z" />
    <glyph glyph-name="ohorn" unicode="&#x1a1;" horiz-adv-x="1175" 
d="M1086 1290q7 -44 7 -70q0 -28 -10 -76q-9 -44 -59 -82q-31 -23 -70 -34q-21 -6 -34 -7q86 -76 130 -195.5t44 -270.5q0 -268 -133 -427t-373 -159q-161 0 -276 75t-172.5 206.5t-57.5 304.5q0 265 134 423.5t372 158.5q95 0 182 -29q51 -16 88 -16t71 17q75 38 75 134
q0 5 -0.5 11.5t-1.5 14.5t-1 12l-1 9h86zM588 55q203 0 308 135t105 365q0 231 -105.5 363.5t-307.5 132.5q-204 0 -309 -134.5t-105 -361.5q0 -231 107 -365.5t307 -134.5z" />
    <glyph glyph-name="Uhorn" unicode="&#x1af;" horiz-adv-x="1413" 
d="M1439 1659q6 -39 6 -73q0 -30 -8 -76q-8 -41 -60 -80q-37 -28 -82 -32q-16 -2 -25 -2v-833q0 -275 -151.5 -434.5t-411.5 -159.5t-412 160t-152 434v912h86v-914q0 -238 127.5 -374t350.5 -136t350 136t127 374v914h21q56 2 77 7q36 8 55 33t20 50q1 13 1 27q0 24 -5 67
h86z" />
    <glyph glyph-name="uhorn" unicode="&#x1b0;" 
d="M1113 1290h86q6 -39 6 -72q0 -30 -8 -76q-9 -43 -59 -81q-37 -28 -82 -32q-16 -2 -26 -2v-1027h-86v167q-115 -198 -373 -198q-209 0 -328.5 132.5t-119.5 398.5v606h86v-606q0 -445 362 -445q80 0 145 23.5t117.5 74t81.5 138.5t29 209v606h22q55 2 76 7q36 8 55 33
t20 50q1 13 1 28q0 23 -5 66z" />
    <glyph glyph-name="uni0218" unicode="&#x218;" horiz-adv-x="1206" 
d="M633 -31q-224 0 -378 107t-194 291l86 16q40 -152 170 -240t316 -88q194 0 311 90.5t117 239.5q0 206 -268 285l-369 110q-305 90 -305 338q0 170 134 278.5t347 108.5q217 0 364 -117.5t175 -312.5l-86 -16q-22 161 -147 260.5t-306 99.5q-171 0 -280 -85.5t-109 -213.5
q0 -101 65.5 -160.5t229.5 -109.5l305 -92q163 -50 248.5 -145t85.5 -228q0 -190 -139 -303t-373 -113zM596 -461q23 0 43.5 19.5t20.5 48.5q0 8 -1 12h-63v123h123v-123q0 -68 -38 -104.5t-85 -36.5v61z" />
    <glyph glyph-name="uni0219" unicode="&#x219;" horiz-adv-x="1052" 
d="M547 -29q-376 0 -465 295l90 20q71 -229 375 -229q157 0 244.5 62t87.5 174q0 58 -31 100.5t-106 74.5q-69 27 -203 64q-162 44 -213 65q-175 69 -204 192q-7 27 -7 58q0 125 118 207.5t298 82.5q177 0 297.5 -88t142.5 -232l-88 -16q-19 117 -114 183.5t-244 66.5
q-135 0 -227.5 -59t-92.5 -148q0 -22 7 -42.5t17 -36.5t29 -31.5t34.5 -26.5t42.5 -22.5t44 -18t48 -16t46.5 -13.5t47 -11.5t41.5 -10.5q160 -41 235 -76q89 -41 130.5 -101.5t41.5 -146.5q0 -148 -113 -234t-309 -86zM471 -461q23 0 44 19.5t21 48.5q0 8 -1 12h-64v123
h123v-123q0 -68 -38 -104.5t-85 -36.5v61z" />
    <glyph glyph-name="uni021A" unicode="&#x21a;" horiz-adv-x="1208" 
d="M647 0h-86v1389h-541v86h1168v-86h-541v-1389zM543 -522v61q23 0 43.5 19.5t20.5 48.5q0 8 -1 12h-63v123h123v-123q0 -68 -38 -104.5t-85 -36.5z" />
    <glyph glyph-name="uni021B" unicode="&#x21b;" horiz-adv-x="776" 
d="M281 1020h-261v86h261v307h86v-307h348v-86h-348v-737q0 -110 42 -153.5t150 -43.5h156v-86h-188q-114 0 -180 66.5t-66 180.5v773zM324 -522v61q23 0 43.5 19.5t20.5 48.5q0 8 -1 12h-63v123h122v-123q0 -68 -37.5 -104.5t-84.5 -36.5z" />
    <glyph glyph-name="uni0259" unicode="&#x259;" 
d="M578 1051q-272 0 -395 -250l-74 41q68 143 189 219t280 76q236 0 375 -157t139 -427q0 -273 -135 -428.5t-371 -155.5q-238 0 -371 160.5t-133 448.5h917q-7 223 -118.5 348t-302.5 125zM997 492h-820q18 -212 123 -324.5t286 -112.5q182 0 289.5 115.5t121.5 321.5z" />
    <glyph glyph-name="circumflex" unicode="&#x2c6;" horiz-adv-x="995" 
d="M348 1659h-102l205 246h94l205 -246h-103l-149 174z" />
    <glyph glyph-name="caron" unicode="&#x2c7;" horiz-adv-x="970" 
d="M451 1659l-205 246h102l150 -174l149 174h103l-205 -246h-94z" />
    <glyph glyph-name="breve" unicode="&#x2d8;" horiz-adv-x="958" 
d="M479 1610q-96 0 -164.5 68.5t-68.5 164.5h80q0 -62 45.5 -107.5t107.5 -45.5q63 0 108.5 45t45.5 108h80q0 -96 -69 -164.5t-165 -68.5z" />
    <glyph glyph-name="dotaccent" unicode="&#x2d9;" horiz-adv-x="614" 
d="M369 1720h-123v123h123v-123z" />
    <glyph glyph-name="ring" unicode="&#x2da;" horiz-adv-x="897" 
d="M449 1597q-81 0 -140 58.5t-59 140.5q0 81 59 140t140 59q82 0 140 -59t58 -140q0 -83 -58 -141t-140 -58zM449 1683q46 0 79 33.5t33 79.5q0 47 -33 80t-79 33t-79.5 -33.5t-33.5 -79.5t33.5 -79.5t79.5 -33.5z" />
    <glyph glyph-name="ogonek" unicode="&#x2db;" horiz-adv-x="831" 
d="M426 -496q-71 0 -125.5 56t-54.5 129q0 85 72.5 186t189.5 193l63 -68q-99 -65 -167 -152.5t-68 -158.5q0 -44 26.5 -73.5t63.5 -29.5q54 0 106 60l52 -58q-66 -84 -158 -84z" />
    <glyph glyph-name="tilde" unicode="&#x2dc;" horiz-adv-x="1054" 
d="M670 1659q-62 0 -163 54q-85 44 -126 44q-25 0 -41.5 -13t-17.5 -27q-1 -8 -1 -17q0 -14 5 -31h-74q-6 21 -6 42q0 68 56 106q35 22 81 22q61 0 166 -54q88 -44 125 -44q33 0 46.5 18.5t13.5 42.5q0 13 -5 31h74q6 -21 6 -41q0 -70 -56 -109q-36 -24 -83 -24z" />
    <glyph glyph-name="hungarumlaut" unicode="&#x2dd;" horiz-adv-x="1017" 
d="M775 1935l-98 -276h-90l98 276h90zM417 1935l-99 -276h-90l99 276h90z" />
    <glyph glyph-name="uni0374" unicode="&#x374;" horiz-adv-x="475" 
d="M311 1475l-98 -277h-90l98 277h90z" />
    <glyph glyph-name="uni0375" unicode="&#x375;" horiz-adv-x="475" 
d="M311 -104l-98 -277h-90l98 277h90z" />
    <glyph glyph-name="uni037E" unicode="&#x37e;" horiz-adv-x="573" 
d="M348 983h-123v123h123v-123zM225 -182l6 53h8q18 0 29.5 6.5t16.5 20.5t6.5 27t1.5 34v18v23h-68v184h123v-245q0 -42 -16 -73.5t-40 -41.5q-22 -9 -41 -9q-13 0 -26 3z" />
    <glyph glyph-name="tonos" unicode="&#x384;" horiz-adv-x="1228" 
d="M698 1475l-98 -277h-90l98 277h90z" />
    <glyph glyph-name="dieresistonos" unicode="&#x385;" horiz-adv-x="1228" 
d="M715 1567l-99 -277h-90l99 277h90zM901 1352h-123v123h123v-123zM453 1352h-123v123h123v-123z" />
    <glyph glyph-name="Alphatonos" unicode="&#x386;" horiz-adv-x="1247" 
d="M670 1475l536 -1475h-92l-139 383h-703l-139 -383h-92l537 1475h92zM330 1475l-99 -277h-90l99 277h90zM302 465h643l-322 886z" />
    <glyph glyph-name="anoteleia" unicode="&#x387;" horiz-adv-x="1228" 
d="M207 563q-35 0 -59.5 23.5t-24.5 58.5t24.5 58.5t59.5 23.5q33 0 56.5 -24t23.5 -58t-23.5 -58t-56.5 -24z" />
    <glyph glyph-name="Epsilontonos" unicode="&#x388;" horiz-adv-x="1392" 
d="M1290 0h-901v1475h901v-86h-815v-609h692v-86h-692v-608h815v-86zM229 1475l-98 -277h-90l98 277h90z" />
    <glyph glyph-name="Etatonos" unicode="&#x389;" horiz-adv-x="1599" 
d="M477 0h-86v1475h86v-695h893v695h86v-1475h-86v694h-893v-694zM229 1475l-98 -277h-90l98 277h90z" />
    <glyph glyph-name="Iotatonos" unicode="&#x38a;" horiz-adv-x="617" 
d="M474 0h-86v1475h86v-1475zM229 1475l-98 -277h-90l98 277h90z" />
    <glyph glyph-name="Omicrontonos" unicode="&#x38c;" horiz-adv-x="1628" 
d="M905 -31q-162 0 -288.5 56.5t-207.5 159t-123 242t-42 310.5t42 310.5t123 242t207.5 159t288.5 56.5t288.5 -56.5t208 -158.5t123.5 -242.5t42 -310.5t-42 -310.5t-123.5 -242.5t-208 -158.5t-288.5 -56.5zM258 1475l-98 -277h-90l98 277h90zM905 55q185 0 315 88
t192.5 240t62.5 354t-62.5 354t-192.5 240t-315 88q-139 0 -247.5 -50t-178 -141.5t-105.5 -215.5t-38 -275q-2 -202 60.5 -354t193 -240t315.5 -88z" />
    <glyph glyph-name="Upsilontonos" unicode="&#x38e;" horiz-adv-x="1400" 
d="M913 0h-86v627l-489 848h98l434 -750l433 750h98l-488 -848v-627zM270 1475l-98 -277h-90l98 277h90z" />
    <glyph glyph-name="Omegatonos" unicode="&#x38f;" horiz-adv-x="1660" 
d="M698 0h-462v86h321q-154 117 -237.5 291t-83.5 391q0 209 78 377q75 162 229 263q149 95 354 95t354 -95q154 -101 229 -263q79 -170 79 -377q0 -217 -84 -391t-238 -291h319v-86h-462l2 86q92 48 173.5 139.5t135.5 218.5q56 131 61 293v26q0 170 -65 318
q-66 151 -197 244q-131 92 -307 92q-172 0 -302 -91q-128 -89 -199 -245q-68 -151 -68 -333q0 -168 57 -302q57 -136 141 -224q82 -88 172 -136v-86zM258 1475l-98 -277h-90l98 277h90z" />
    <glyph glyph-name="iotadieresistonos" unicode="&#x390;" horiz-adv-x="659" 
d="M340 1567l-98 -277h-90l98 277h90zM526 1352h-123v123h123v-123zM78 1352h-123v123h123v-123zM598 86v-86h-187q-114 0 -180.5 66.5t-66.5 180.5v859h86v-823q0 -110 42 -153.5t150 -43.5h156z" />
    <glyph glyph-name="Alpha" unicode="&#x391;" horiz-adv-x="1247" 
d="M670 1475l536 -1475h-92l-139 383h-703l-139 -383h-92l537 1475h92zM302 465h643l-322 886z" />
    <glyph glyph-name="Beta" unicode="&#x392;" horiz-adv-x="1230" 
d="M625 0h-482v1475h466q227 0 354.5 -92.5t127.5 -281.5q0 -130 -66.5 -216.5t-178.5 -125.5q118 -25 204.5 -120t86.5 -237q0 -207 -135.5 -304.5t-376.5 -97.5zM609 1389h-380v-587h443q146 0 236 79t90 224t-102.5 214.5t-286.5 69.5zM229 86h396q202 0 310.5 74
t108.5 244q0 151 -105.5 232.5t-266.5 81.5h-443v-632z" />
    <glyph glyph-name="Gamma" unicode="&#x393;" horiz-adv-x="1064" 
d="M229 0h-86v1475h901v-86h-815v-1389z" />
    <glyph glyph-name="uni0394" unicode="&#x394;" horiz-adv-x="1247" 
d="M41 0l537 1475h92l536 -1475h-1165zM623 1350l-459 -1264h918z" />
    <glyph glyph-name="Epsilon" unicode="&#x395;" horiz-adv-x="1146" 
d="M1044 0h-901v1475h901v-86h-815v-609h693v-86h-693v-608h815v-86z" />
    <glyph glyph-name="Zeta" unicode="&#x396;" horiz-adv-x="1189" 
d="M1139 0h-1037v86l931 1303h-931v86h1037v-86l-931 -1303h931v-86z" />
    <glyph glyph-name="Eta" unicode="&#x397;" horiz-adv-x="1351" 
d="M229 0h-86v1475h86v-695h893v695h86v-1475h-86v694h-893v-694z" />
    <glyph glyph-name="Theta" unicode="&#x398;" horiz-adv-x="1445" 
d="M723 -31q-162 0 -288.5 56.5t-208 158.5t-123.5 242.5t-42 310.5t42 310.5t123.5 242.5t208 158.5t288.5 56.5t288.5 -56.5t207.5 -159t123 -242t42 -310.5t-42 -310.5t-123 -242t-207.5 -159t-288.5 -56.5zM723 55q139 0 248 50t179 141.5t106 215.5t36 275t-36 275
t-106 215.5t-179 141.5t-248 50t-247.5 -50t-178 -141.5t-105.5 -215.5t-38 -275q-2 -202 60.5 -354t193 -240t315.5 -88zM477 694v86h492v-86h-492z" />
    <glyph glyph-name="Iota" unicode="&#x399;" horiz-adv-x="413" 
d="M250 0h-86v1475h86v-1475z" />
    <glyph glyph-name="Kappa" unicode="&#x39a;" horiz-adv-x="1142" 
d="M229 770l729 705h119l-723 -705l789 -770h-119zM143 0v1475h86v-1475h-86z" />
    <glyph glyph-name="Lambda" unicode="&#x39b;" horiz-adv-x="1185" 
d="M578 1475h92l536 -1475h-92l-491 1351l-490 -1351h-92z" />
    <glyph glyph-name="Mu" unicode="&#x39c;" horiz-adv-x="1701" 
d="M281 0h-86v1475h81l576 -1237l569 1237h86v-1473h-86v1266l-522 -1135h-96l-522 1135v-1268z" />
    <glyph glyph-name="Nu" unicode="&#x39d;" horiz-adv-x="1355" 
d="M229 0h-86v1475h86l897 -1323v1323h86v-1475h-86l-897 1323v-1323z" />
    <glyph glyph-name="Xi" unicode="&#x39e;" horiz-adv-x="1372" 
d="M1229 1389h-1086v86h1086v-86zM1126 694h-880v86h880v-86zM1229 0h-1086v86h1086v-86z" />
    <glyph glyph-name="Omicron" unicode="&#x39f;" horiz-adv-x="1445" 
d="M723 -31q-162 0 -288.5 56.5t-208 158.5t-123.5 242.5t-42 310.5t42 310.5t123.5 242.5t208 158.5t288.5 56.5t288.5 -56.5t207.5 -159t123 -242t42 -310.5t-42 -310.5t-123 -242t-207.5 -159t-288.5 -56.5zM723 55q139 0 248 50t179 141.5t106 215.5t36 275t-36 275
t-106 215.5t-179 141.5t-248 50t-247.5 -50t-178 -141.5t-105.5 -215.5t-38 -275q-2 -202 60.5 -354t193 -240t315.5 -88z" />
    <glyph glyph-name="Pi" unicode="&#x3a0;" horiz-adv-x="1372" 
d="M262 0h-86v1475h1045v-1475h-86v1389h-873v-1389z" />
    <glyph glyph-name="Rho" unicode="&#x3a1;" horiz-adv-x="1189" 
d="M229 0h-86v1475h523q210 0 336 -121t126 -322q0 -200 -126 -321t-336 -121h-437v-590zM229 1389v-713h437q172 0 271 95.5t99 260.5t-99 261t-271 96h-437z" />
    <glyph glyph-name="Sigma" unicode="&#x3a3;" horiz-adv-x="1351" 
d="M268 1389l625 -635v-33l-625 -635h901v-86h-1026v82l645 655l-645 656v82h1026v-86h-901z" />
    <glyph glyph-name="Tau" unicode="&#x3a4;" horiz-adv-x="1208" 
d="M623 0h-86v1389h-469v86h1013v-86h-458v-1389z" />
    <glyph glyph-name="Upsilon" unicode="&#x3a5;" horiz-adv-x="1062" 
d="M575 0h-86v627l-489 848h98l434 -750l433 750h98l-488 -848v-627z" />
    <glyph glyph-name="Phi" unicode="&#x3a6;" horiz-adv-x="1486" 
d="M700 0v156q-100 3 -193 27.5t-174.5 72.5t-141.5 115t-95 161t-35 205q0 138 53 249t143 181.5t203.5 109t239.5 42.5v156h86v-156q126 -4 239.5 -42.5t203.5 -109t143 -181.5t53 -249q0 -111 -35 -205t-95 -161t-141.5 -115t-174.5 -72.5t-193 -27.5v-156h-86zM786 1227
v-979q244 6 395.5 136t151.5 353t-151.5 353.5t-395.5 136.5zM700 248v979q-244 -6 -395 -136.5t-151 -353.5t151 -353t395 -136z" />
    <glyph glyph-name="Chi" unicode="&#x3a7;" 
d="M123 0h-103l519 748l-506 727h102l451 -658l452 658h103l-506 -727l518 -748h-102l-465 676z" />
    <glyph glyph-name="Psi" unicode="&#x3a8;" horiz-adv-x="1413" 
d="M664 0v383q-176 4 -300 95q-123 90 -182 237q-39 99 -39 217v543h86v-437q0 -136 21 -229q36 -152 147 -247.5t267 -96.5v1010h86v-1010q156 0 266.5 95.5t146.5 248.5q21 93 21 229v437h86v-543q0 -118 -39 -217q-59 -149 -182 -238q-126 -91 -299 -94v-383h-86z" />
    <glyph glyph-name="uni03A9" unicode="&#x3a9;" horiz-adv-x="1445" 
d="M524 0h-463v86h322q-154 117 -238 291t-84 391q0 207 79 377q75 162 229 263q149 95 354 95t354 -95q154 -101 229 -263q78 -168 78 -377q0 -217 -83.5 -391t-237.5 -291h319v-86h-462l2 86q92 48 173.5 139.5t135.5 218.5q56 131 61 293v26q0 170 -65 318
q-66 151 -197 244q-131 92 -307 92q-172 0 -302 -91q-128 -89 -199 -245q-68 -151 -68 -333q0 -168 57 -302q57 -136 141 -224q82 -88 172 -136v-86z" />
    <glyph glyph-name="Iotadieresis" unicode="&#x3aa;" horiz-adv-x="413" 
d="M453 1720h-123v123h123v-123zM84 1720h-123v123h123v-123zM250 0h-86v1475h86v-1475z" />
    <glyph glyph-name="Upsilondieresis" unicode="&#x3ab;" horiz-adv-x="1062" 
d="M778 1720h-123v123h123v-123zM410 1720h-123v123h123v-123zM575 0h-86v627l-489 848h98l434 -750l433 750h98l-488 -848v-627z" />
    <glyph glyph-name="alphatonos" unicode="&#x3ac;" horiz-adv-x="1230" 
d="M730 1567l-98 -277h-90l98 277h90zM1001 1106h86v-1106h-86v208q-123 -239 -413 -239q-242 0 -374 159.5t-132 422.5q0 268 133 427t373 159q291 0 413 -241v210zM588 1051q-203 0 -308.5 -135t-105.5 -365q0 -231 105.5 -363.5t308.5 -132.5q204 0 308.5 134.5
t104.5 361.5q0 231 -106.5 365.5t-306.5 134.5z" />
    <glyph glyph-name="epsilontonos" unicode="&#x3ad;" horiz-adv-x="1048" 
d="M645 1567l-98 -277h-90l98 277h90zM524 -31q-209 0 -325.5 90.5t-116.5 243.5q0 100 56 172.5t136 96.5q-75 27 -119 87.5t-44 149.5q0 151 107.5 239.5t301.5 88.5q362 0 449 -328l-88 -16q-34 124 -116 191t-241 67q-321 0 -321 -248q0 -96 67.5 -146t182.5 -50h180
v-84h-180q-126 0 -202.5 -53.5t-76.5 -170.5q0 -115 91 -179.5t263 -64.5q325 0 371 293l88 -16q-68 -363 -463 -363z" />
    <glyph glyph-name="etatonos" unicode="&#x3ae;" 
d="M763 1567l-98 -277h-91l99 277h90zM965 0v606q0 445 -363 445q-80 0 -145 -23.5t-117.5 -74t-81.5 -138.5t-29 -209v-606h-86v1106h86v-167q115 198 373 198q209 0 329 -132.5t120 -398.5v-606h-86z" />
    <glyph glyph-name="iotatonos" unicode="&#x3af;" horiz-adv-x="659" 
d="M256 1290h-90l98 277h90zM598 86v-86h-187q-114 0 -180.5 66.5t-66.5 180.5v859h86v-823q0 -110 42 -153.5t150 -43.5h156z" />
    <glyph glyph-name="upsilondieresistonos" unicode="&#x3b0;" horiz-adv-x="1142" 
d="M671 1567l-99 -277h-90l99 277h90zM857 1352h-123v123h123v-123zM409 1352h-123v123h123v-123zM123 504v602h86v-586q0 -230 93 -345.5t269 -115.5t269.5 115.5t93.5 345.5v586h86v-602q0 -246 -119.5 -387.5t-329.5 -141.5t-329 141.5t-119 387.5z" />
    <glyph glyph-name="alpha" unicode="&#x3b1;" horiz-adv-x="1230" 
d="M1001 1106h86v-1106h-86v208q-123 -239 -413 -239q-242 0 -374 159.5t-132 422.5q0 268 133 427t373 159q291 0 413 -241v210zM588 1051q-203 0 -308.5 -135t-105.5 -365q0 -231 105.5 -363.5t308.5 -132.5q204 0 308.5 134.5t104.5 361.5q0 231 -106.5 365.5
t-306.5 134.5z" />
    <glyph glyph-name="beta" unicode="&#x3b2;" horiz-adv-x="1112" 
d="M143 -492v1598q0 105 29 180q40 103 130.5 161t227.5 58q178 0 283 -98.5t105 -276.5q0 -128 -55.5 -215t-157.5 -112q79 -8 158 -53q79 -48 135 -137q55 -92 55 -218q0 -187 -122 -306.5t-335 -119.5q-244 0 -369 152v-613h-84zM600 57q158 0 259.5 95.5t101.5 246.5
q0 158 -114.5 249t-316.5 97v86q128 16 213 92q82 73 82 210q0 132 -78.5 209t-214.5 77q-103 0 -176 -45.5t-100 -132.5q-20 -68 -20 -174v-649q0 -90 16 -148q28 -94 125.5 -153.5t222.5 -59.5z" />
    <glyph glyph-name="gamma" unicode="&#x3b3;" horiz-adv-x="978" 
d="M537 -369h-95v369l-401 1106h92l356 -981l359 981h90l-401 -1106v-369z" />
    <glyph glyph-name="delta" unicode="&#x3b4;" horiz-adv-x="1175" 
d="M588 -29q-239 0 -372.5 147t-133.5 394q0 164 61 288.5t175 190.5q68 41 158 53q-11 3 -48 18q-76 28 -134 86q-56 56 -56 144q0 76 44 128.5t126 72.5q46 12 116 12h428v-78h-409q-58 0 -101 -10q-120 -27 -120 -125q0 -100 179 -166q94 -36 241 -82q67 -17 121 -49
q113 -68 172 -191t59 -286q0 -164 -59.5 -287.5t-172.5 -190.5q-115 -69 -274 -69zM588 57q200 0 306.5 124t106.5 341t-106 336t-307 119q-202 0 -308 -123t-106 -336q0 -215 107.5 -338t306.5 -123z" />
    <glyph glyph-name="epsilon" unicode="&#x3b5;" horiz-adv-x="1017" 
d="M501 -31q-209 0 -326 91t-117 243q0 99 56 172t137 97q-75 27 -119.5 87.5t-44.5 149.5q0 151 108 239.5t302 88.5q361 0 448 -328l-88 -16q-34 124 -115.5 191t-240.5 67q-322 0 -322 -248q0 -96 67.5 -146t182.5 -50h180v-84h-180q-126 0 -202 -53.5t-76 -170.5
q0 -115 91 -179.5t263 -64.5q325 0 371 293l88 -16q-68 -363 -463 -363z" />
    <glyph glyph-name="zeta" unicode="&#x3b6;" horiz-adv-x="1003" 
d="M963 -246h-84q2 38 2 56q0 74 -23 116.5t-84 56.5q-60 15 -201 17h-18q-146 0 -241 19q-96 19 -164 98t-68 237q0 79 22 151q21 69 90 174q66 101 191 236q22 24 69 72q12 13 181 191q70 74 205 211h-697v86h820v-86l-278 -287q-80 -82 -208 -215q-229 -240 -279 -383
q-26 -72 -26 -144q0 -105 44.5 -165.5t135.5 -86.5q92 -26 236 -26q112 0 172 -10q149 -24 188 -134q20 -55 20 -113q0 -28 -5 -71z" />
    <glyph glyph-name="eta" unicode="&#x3b7;" 
d="M965 -388v994q0 445 -363 445q-80 0 -145 -23.5t-117.5 -74t-81.5 -138.5t-29 -209v-606h-86v1106h86v-167q115 198 373 198q209 0 329 -132.5t120 -398.5v-994h-86z" />
    <glyph glyph-name="theta" unicode="&#x3b8;" horiz-adv-x="1306" 
d="M653 -31q-187 0 -316 108q-130 109 -192 282q-63 174 -63 378q0 203 63 378q63 174 192 282q128 106 316 106q189 0 317 -106q129 -108 192 -282q63 -175 63 -378q0 -212 -63 -386t-191 -277q-129 -105 -318 -105zM175 780h958q-5 158 -53 296q-56 155 -165 248t-262 93
q-151 0 -260 -92q-108 -93 -162 -248q-48 -134 -56 -297zM653 55q152 0 260 93q106 92 163 249q49 138 56 297h-958q5 -163 53 -296q56 -155 165 -248q112 -95 261 -95z" />
    <glyph glyph-name="iota" unicode="&#x3b9;" horiz-adv-x="659" 
d="M598 86v-86h-187q-114 0 -180.5 66.5t-66.5 180.5v859h86v-823q0 -110 42 -153.5t150 -43.5h156z" />
    <glyph glyph-name="kappa" unicode="&#x3ba;" horiz-adv-x="958" 
d="M143 0v1106h86v-533l553 533h129l-577 -553l665 -553h-147l-623 532v-532h-86z" />
    <glyph glyph-name="lambda" unicode="&#x3bb;" horiz-adv-x="1019" 
d="M82 0l401 1106q-4 11 -13 35.5t-13 37.5q-33 88 -61 148q-24 49 -66 74q-43 26 -115 26h-51v78h61q54 0 92 -8q112 -23 177 -170q30 -70 66 -171q10 -31 18 -50l401 -1106h-92l-357 981l-358 -981h-90z" />
    <glyph glyph-name="uni03BC" unicode="&#x3bc;" horiz-adv-x="1193" 
d="M229 1106v-606q0 -445 363 -445q80 0 145 23.5t117.5 74t81.5 138.5t29 209v606h86v-1106h-86v167q-115 -198 -373 -198q-249 0 -363 177v-638h-86v1598h86z" />
    <glyph glyph-name="nu" unicode="&#x3bd;" horiz-adv-x="978" 
d="M537 0h-95l-401 1106h91l357 -985l358 985h91z" />
    <glyph glyph-name="xi" unicode="&#x3be;" horiz-adv-x="1079" 
d="M594 0q-244 -5 -385.5 109t-141.5 313q0 129 76.5 221t198.5 119q-105 40 -168 133.5t-63 211.5q0 179 132 282h-176v86h869v-86h-428q-143 0 -226.5 -74.5t-83.5 -210.5q0 -138 84.5 -219t225.5 -81h284v-86h-284q-163 0 -258.5 -78.5t-95.5 -218.5q0 -162 116.5 -250.5
t323.5 -84.5q170 3 259 -7.5t140 -43.5q53 -33 69 -97t4 -172h-86q10 79 -1.5 125t-54.5 71q-76 44 -330 38z" />
    <glyph glyph-name="omicron" unicode="&#x3bf;" horiz-adv-x="1175" 
d="M588 -31q-161 0 -276 75t-172.5 206.5t-57.5 304.5q0 265 134 423.5t372 158.5q242 0 374 -159.5t132 -422.5q0 -268 -133 -427t-373 -159zM588 55q203 0 308 135t105 365q0 231 -105.5 363.5t-307.5 132.5q-204 0 -309 -134.5t-105 -361.5q0 -231 107 -365.5t307 -134.5
z" />
    <glyph glyph-name="pi" unicode="&#x3c0;" horiz-adv-x="1310" 
d="M373 0h-86v1020h-246v86h1229v-86h-246v-1020h-86v1020h-565v-1020z" />
    <glyph glyph-name="rho" unicode="&#x3c1;" horiz-adv-x="1236" 
d="M229 -492h-86v1047q0 265 134 423.5t372 158.5q242 0 374 -159.5t132 -422.5q0 -268 -133 -427t-373 -159q-151 0 -256.5 66t-163.5 187v-714zM649 55q203 0 308.5 135t105.5 365q0 231 -105.5 363.5t-308.5 132.5q-204 0 -308.5 -134.5t-104.5 -361.5
q0 -231 106.5 -365.5t306.5 -134.5z" />
    <glyph glyph-name="uni03C2" unicode="&#x3c2;" horiz-adv-x="1103" 
d="M963 -246h-84q3 30 3 58q0 73 -25 115t-84 54q-59 13 -207 19h-11q-202 7 -308 98q-107 90 -135 201q-30 115 -30 225q0 295 130 454t368 159q161 0 279.5 -72t172.5 -203l-82 -35q-46 105 -142 164.5t-224 59.5q-194 0 -301 -137t-109 -361v-7q0 -98 28 -205
q27 -102 112 -181q84 -78 241 -78h8q132 0 197 -10q208 -34 208 -243q0 -30 -5 -75z" />
    <glyph glyph-name="sigma" unicode="&#x3c3;" horiz-adv-x="1196" 
d="M588 -31q-152 0 -267 72t-177 202q-62 127 -62 296q0 230 114 381.5t310 179.5q53 6 164 6h485v-86h-272q86 -59 142 -168q69 -136 69 -313q0 -167 -62 -296t-177 -201q-115 -73 -267 -73zM588 55q196 0 304.5 130.5t108.5 353.5q0 219 -108.5 349.5t-304.5 131.5h-4
q-129 0 -222.5 -60.5t-140.5 -171.5q-47 -107 -47 -249q0 -222 110.5 -353t303.5 -131z" />
    <glyph glyph-name="tau" unicode="&#x3c4;" horiz-adv-x="1013" 
d="M51 1020v86h901v-86h-407v-737q0 -110 42 -153.5t150 -43.5h156v-86h-187q-114 0 -180.5 66.5t-66.5 180.5v773h-408z" />
    <glyph glyph-name="upsilon" unicode="&#x3c5;" horiz-adv-x="1142" 
d="M123 504v602h86v-586q0 -230 93 -345.5t269 -115.5t269.5 115.5t93.5 345.5v586h86v-602q0 -246 -119.5 -387.5t-329.5 -141.5t-329 141.5t-119 387.5z" />
    <glyph glyph-name="phi" unicode="&#x3c6;" horiz-adv-x="1471" 
d="M692 -461v443q-128 2 -236.5 36.5t-193 101.5t-132.5 178t-48 254q0 190 81 318t223 192l42 -80q-122 -55 -188 -164.5t-66 -265.5q0 -228 138.5 -353.5t379.5 -127.5v1053h86q129 -1 237.5 -35.5t193.5 -102.5t133 -179t48 -255t-48 -254.5t-133 -178t-193.5 -102
t-237.5 -35.5v-443h-86zM778 1035v-964q241 1 380 127t139 354q0 229 -139 355.5t-380 127.5z" />
    <glyph glyph-name="chi" unicode="&#x3c7;" horiz-adv-x="1042" 
d="M129 0h-109l451 559l-440 547h106l385 -483l383 483h107l-441 -547l451 -559h-109l-391 496z" />
    <glyph glyph-name="psi" unicode="&#x3c8;" horiz-adv-x="1372" 
d="M643 -461v430q-167 4 -294.5 96t-186.5 236q-39 97 -39 217v588h86v-481q0 -144 20 -230q24 -98 84.5 -176t146.5 -122q85 -44 183 -46v1055h86v-1055q96 1 182.5 45.5t147.5 123.5q62 81 84 175q20 86 20 230v481h86v-588q0 -120 -39 -217q-56 -141 -183.5 -234.5
t-297.5 -97.5v-430h-86z" />
    <glyph glyph-name="omega" unicode="&#x3c9;" horiz-adv-x="1560" 
d="M481 -33q-196 0 -297.5 137.5t-101.5 376.5q0 233 95 392.5t298 263.5l45 -80q-182 -92 -264 -231q-82 -138 -82 -337q0 -197 79.5 -316.5t229.5 -119.5q185 0 233 170q20 75 21 180v302h86v-293q0 -111 21.5 -187t75.5 -123q56 -49 157 -49q151 0 230 120.5t79 315.5
q0 202 -82 338.5t-264 229.5l45 80q204 -104 299 -264t95 -392q0 -239 -102.5 -376.5t-295.5 -137.5q-127 0 -212 68q-62 49 -89 129q-27 -80 -88 -129q-86 -68 -211 -68z" />
    <glyph glyph-name="iotadieresis" unicode="&#x3ca;" horiz-adv-x="618" 
d="M330 1352v123h123v-123h-123zM-39 1352v123h123v-123h-123zM598 86v-86h-187q-114 0 -180.5 66.5t-66.5 180.5v859h86v-823q0 -110 42 -153.5t150 -43.5h156z" />
    <glyph glyph-name="upsilondieresis" unicode="&#x3cb;" horiz-adv-x="1142" 
d="M817 1352h-123v123h123v-123zM449 1352h-123v123h123v-123zM123 504v602h86v-586q0 -230 93 -345.5t269 -115.5t269.5 115.5t93.5 345.5v586h86v-602q0 -246 -119.5 -387.5t-329.5 -141.5t-329 141.5t-119 387.5z" />
    <glyph glyph-name="omicrontonos" unicode="&#x3cc;" horiz-adv-x="1175" 
d="M630 1290h-90l98 277h90zM588 -31q-161 0 -276 75t-172.5 206.5t-57.5 304.5q0 265 134 423.5t372 158.5q242 0 374 -159.5t132 -422.5q0 -268 -133 -427t-373 -159zM588 55q203 0 308 135t105 365q0 231 -105.5 363.5t-307.5 132.5q-204 0 -309 -134.5t-105 -361.5
q0 -231 107 -365.5t307 -134.5z" />
    <glyph glyph-name="upsilontonos" unicode="&#x3cd;" horiz-adv-x="1142" 
d="M689 1567l-98 -277h-90l98 277h90zM123 504v602h86v-586q0 -230 93 -345.5t269 -115.5t269.5 115.5t93.5 345.5v586h86v-602q0 -246 -119.5 -387.5t-329.5 -141.5t-329 141.5t-119 387.5z" />
    <glyph glyph-name="omegatonos" unicode="&#x3ce;" horiz-adv-x="1560" 
d="M912 1567l-98 -277h-90l98 277h90zM481 -33q-196 0 -297.5 137.5t-101.5 376.5q0 233 95 392.5t298 263.5l45 -80q-182 -92 -264 -231q-82 -138 -82 -337q0 -197 79.5 -316.5t229.5 -119.5q185 0 233 170q20 75 21 180v302h86v-293q0 -111 21.5 -187t75.5 -123
q56 -49 157 -49q151 0 230 120.5t79 315.5q0 202 -82 338.5t-264 229.5l45 80q204 -104 299 -264t95 -392q0 -239 -102.5 -376.5t-295.5 -137.5q-127 0 -212 68q-62 49 -89 129q-27 -80 -88 -129q-86 -68 -211 -68z" />
    <glyph glyph-name="uni0400" unicode="&#x400;" horiz-adv-x="1146" 
d="M678 1659h-90l-99 276h91zM1044 0h-901v1475h901v-86h-815v-609h693v-86h-693v-608h815v-86z" />
    <glyph glyph-name="uni0401" unicode="&#x401;" horiz-adv-x="1146" 
d="M809 1720h-123v123h123v-123zM440 1720h-123v123h123v-123zM1044 0h-901v1475h901v-86h-815v-609h693v-86h-693v-608h815v-86z" />
    <glyph glyph-name="uni0402" unicode="&#x402;" horiz-adv-x="1386" 
d="M256 1389h-256v86h649v-86h-307v-576q72 64 186 95.5t225 31.5q277 0 414.5 -117.5t137.5 -355.5q0 -467 -542 -467h-64v86h64q236 0 342.5 90t106.5 291q0 195 -110 289t-339 94q-117 0 -233.5 -37t-187.5 -110v-703h-86v1389z" />
    <glyph glyph-name="uni0403" unicode="&#x403;" horiz-adv-x="1064" 
d="M726 1935l-98 -276h-90l98 276h90zM229 0h-86v1475h901v-86h-815v-1389z" />
    <glyph glyph-name="uni0404" unicode="&#x404;" horiz-adv-x="1458" 
d="M764 -31q-214 0 -364 102q-153 101 -224 269q-74 169 -74 370v27q5 235 82 407.5t223 266.5q147 94 357 94q242 0 410 -134.5t223 -375.5l-90 -14q-43 203 -186 318t-357 118h-9q-170 0 -294.5 -78t-191.5 -224q-66 -142 -74 -335h851v-86h-851q3 -135 34 -240.5
t101 -199.5q146 -194 434 -199h10q125 0 232 48.5t183 140.5q75 93 111 223l86 -25q-52 -218 -220 -345.5t-402 -127.5z" />
    <glyph glyph-name="uni0405" unicode="&#x405;" horiz-adv-x="1206" 
d="M633 -31q-224 0 -378 107t-194 291l86 16q40 -152 170 -240t316 -88q194 0 311 90.5t117 239.5q0 206 -268 285l-369 110q-305 90 -305 338q0 170 134 278.5t347 108.5q217 0 364 -117.5t175 -312.5l-86 -16q-22 161 -147 260.5t-306 99.5q-171 0 -280 -85.5t-109 -213.5
q0 -101 65.5 -160.5t229.5 -109.5l305 -92q163 -50 248.5 -145t85.5 -228q0 -190 -139 -303t-373 -113z" />
    <glyph glyph-name="uni0406" unicode="&#x406;" horiz-adv-x="413" 
d="M250 0h-86v1475h86v-1475z" />
    <glyph glyph-name="uni0407" unicode="&#x407;" horiz-adv-x="413" 
d="M453 1720h-123v123h123v-123zM84 1720h-123v123h123v-123zM250 0h-86v1475h86v-1475z" />
    <glyph glyph-name="uni0408" unicode="&#x408;" horiz-adv-x="899" 
d="M367 -29q-134 0 -235 78t-132 207l88 20q24 -96 101 -157.5t182 -61.5q72 0 137 32.5t102 100.5q18 32 26 73t9.5 72.5t1.5 98.5v1041h86v-1041q0 -136 -9 -183q-10 -57 -38 -106q-49 -85 -132.5 -129.5t-186.5 -44.5z" />
    <glyph glyph-name="uni0409" unicode="&#x409;" horiz-adv-x="2174" 
d="M1194 1475v-590h436q210 0 336.5 -121.5t126.5 -321.5q0 -201 -126 -321.5t-337 -120.5h-522v1389h-742v-703q0 -268 -25 -423t-79 -224.5t-147 -69.5q-31 0 -74 8v86q27 -7 54 -7q114 0 149.5 170.5t35.5 623.5v625h914zM1194 86h436q172 0 271.5 95.5t99.5 260.5
t-99.5 261t-271.5 96h-436v-713z" />
    <glyph glyph-name="uni040A" unicode="&#x40a;" horiz-adv-x="2189" 
d="M229 0h-86v1475h86v-695h893v695h86v-590h437q210 0 336 -121t126 -322t-125.5 -321.5t-336.5 -120.5h-523v694h-893v-694zM1208 86h437q172 0 271 95.5t99 260.5t-99 261t-271 96h-437v-713z" />
    <glyph glyph-name="uni040B" unicode="&#x40b;" horiz-adv-x="1447" 
d="M256 1389h-256v86h649v-86h-307v-576q72 64 186 95.5t225 31.5q552 0 552 -539v-401h-86v365q0 254 -109.5 369.5t-346.5 115.5q-117 0 -233.5 -37t-187.5 -110v-703h-86v1389z" />
    <glyph glyph-name="uni040C" unicode="&#x40c;" horiz-adv-x="1142" 
d="M650 1659h-90l98 276h91zM229 770l729 705h119l-723 -705l789 -770h-119zM143 0v1475h86v-1475h-86z" />
    <glyph glyph-name="uni040D" unicode="&#x40d;" horiz-adv-x="1355" 
d="M748 1659h-91l-98 276h90zM1212 0h-86v1323l-897 -1323h-86v1475h86v-1323l897 1323h86v-1475z" />
    <glyph glyph-name="uni040E" unicode="&#x40e;" horiz-adv-x="1155" 
d="M584 1610q-96 0 -165 68.5t-69 164.5h80q0 -62 46 -107.5t108 -45.5q63 0 108 45t45 108h80q0 -96 -68.5 -164.5t-164.5 -68.5zM1104 1475l-725 -1475h-91l254 521l-501 954h98l448 -861l419 861h98z" />
    <glyph glyph-name="uni040F" unicode="&#x40f;" horiz-adv-x="1331" 
d="M709 -266h-86v266h-480v1475h86v-1389h873v1389h86v-1475h-479v-266z" />
    <glyph glyph-name="uni0410" unicode="&#x410;" horiz-adv-x="1247" 
d="M670 1475l536 -1475h-92l-139 383h-703l-139 -383h-92l537 1475h92zM302 465h643l-322 886z" />
    <glyph glyph-name="uni0411" unicode="&#x411;" horiz-adv-x="1189" 
d="M143 0v1475h861v-86h-775v-545h422q229 0 353 -116.5t124 -305.5t-124 -305.5t-353 -116.5h-508zM229 86h416q193 0 292 91.5t99 244.5t-99 244.5t-292 91.5h-416v-672z" />
    <glyph glyph-name="uni0412" unicode="&#x412;" horiz-adv-x="1196" 
d="M625 0h-482v1475h466q227 0 354.5 -92.5t127.5 -281.5q0 -130 -66.5 -216.5t-178.5 -125.5q118 -25 204.5 -120t86.5 -237q0 -207 -135.5 -304.5t-376.5 -97.5zM609 1389h-380v-587h443q146 0 236 79t90 224t-102.5 214.5t-286.5 69.5zM229 86h396q202 0 310.5 74
t108.5 244q0 151 -105.5 232.5t-266.5 81.5h-443v-632z" />
    <glyph glyph-name="uni0413" unicode="&#x413;" horiz-adv-x="1064" 
d="M229 0h-86v1475h901v-86h-815v-1389z" />
    <glyph glyph-name="uni0414" unicode="&#x414;" horiz-adv-x="1490" 
d="M82 -266v352h123q64 87 88.5 318.5t24.5 583.5v487h925v-1389h166v-352h-86v266h-1155v-266h-86zM306 86h851v1303h-753v-515q0 -277 -25 -487.5t-73 -300.5z" />
    <glyph glyph-name="uni0415" unicode="&#x415;" horiz-adv-x="1146" 
d="M1044 0h-901v1475h901v-86h-815v-609h693v-86h-693v-608h815v-86z" />
    <glyph glyph-name="uni0416" unicode="&#x416;" horiz-adv-x="1953" 
d="M1020 770l729 705h119l-723 -705l788 -770h-118zM934 0v1475h86v-1475h-86zM934 770l-795 -770h-119l789 770l-723 705h119z" />
    <glyph glyph-name="uni0417" unicode="&#x417;" horiz-adv-x="1206" 
d="M1145 407q0 -140 -69.5 -240.5t-183.5 -149t-259 -48.5q-231 0 -375 101.5t-197 296.5l86 16q58 -173 172.5 -250.5t313.5 -77.5q89 0 164.5 22t133 64t90 110t32.5 155q0 101 -51.5 173t-134.5 105.5t-187 33.5h-266v86h266q144 0 235.5 81.5t91.5 224.5q0 145 -111 227
t-279 82q-376 0 -452 -360l-86 16q22 114 73 198.5t123 134t157.5 73.5t184.5 24q137 0 244.5 -44.5t172.5 -136t65 -217.5q0 -121 -68 -213.5t-177 -131.5q118 -25 204.5 -119t86.5 -236z" />
    <glyph glyph-name="uni0418" unicode="&#x418;" horiz-adv-x="1355" 
d="M1212 0h-86v1323l-897 -1323h-86v1475h86v-1323l897 1323h86v-1475z" />
    <glyph glyph-name="uni0419" unicode="&#x419;" horiz-adv-x="1355" 
d="M698 1610q-96 0 -164.5 68.5t-68.5 164.5h80q0 -62 45.5 -107.5t107.5 -45.5q64 0 109 45t45 108h80q0 -96 -69 -164.5t-165 -68.5zM1212 0h-86v1323l-897 -1323h-86v1475h86v-1323l897 1323h86v-1475z" />
    <glyph glyph-name="uni041A" unicode="&#x41a;" horiz-adv-x="1142" 
d="M229 770l729 705h119l-723 -705l789 -770h-119zM143 0v1475h86v-1475h-86z" />
    <glyph glyph-name="uni041B" unicode="&#x41b;" horiz-adv-x="1337" 
d="M41 -23v86q27 -7 54 -7q114 0 149.5 170.5t35.5 623.5v625h914v-1475h-86v1389h-742v-703q0 -268 -25 -423t-79 -224.5t-147 -69.5q-31 0 -74 8z" />
    <glyph glyph-name="uni041C" unicode="&#x41c;" horiz-adv-x="1599" 
d="M229 0h-86v1475h82l576 -1237l569 1237h86v-1473h-86v1266l-522 -1135h-96l-523 1135v-1268z" />
    <glyph glyph-name="uni041D" unicode="&#x41d;" horiz-adv-x="1351" 
d="M229 0h-86v1475h86v-695h893v695h86v-1475h-86v694h-893v-694z" />
    <glyph glyph-name="uni041E" unicode="&#x41e;" horiz-adv-x="1445" 
d="M723 -31q-162 0 -288.5 56.5t-208 158.5t-123.5 242.5t-42 310.5t42 310.5t123.5 242.5t208 158.5t288.5 56.5t288.5 -56.5t207.5 -159t123 -242t42 -310.5t-42 -310.5t-123 -242t-207.5 -159t-288.5 -56.5zM723 55q139 0 248 50t179 141.5t106 215.5t36 275t-36 275
t-106 215.5t-179 141.5t-248 50t-247.5 -50t-178 -141.5t-105.5 -215.5t-38 -275q-2 -202 60.5 -354t193 -240t315.5 -88z" />
    <glyph glyph-name="uni041F" unicode="&#x41f;" horiz-adv-x="1331" 
d="M229 0h-86v1475h1045v-1475h-86v1389h-873v-1389z" />
    <glyph glyph-name="uni0420" unicode="&#x420;" horiz-adv-x="1189" 
d="M229 0h-86v1475h523q210 0 336 -121t126 -322q0 -200 -126 -321t-336 -121h-437v-590zM229 1389v-713h437q172 0 271 95.5t99 260.5t-99 261t-271 96h-437z" />
    <glyph glyph-name="uni0421" unicode="&#x421;" horiz-adv-x="1433" 
d="M723 -31q-162 0 -288.5 56.5t-208 158.5t-123.5 242.5t-42 310.5t42 310.5t123.5 242.5t208 158.5t288.5 56.5q251 0 411.5 -131t217.5 -362l-90 -21q-51 201 -188 314.5t-351 113.5q-139 0 -248 -50t-179 -141.5t-106 -215.5t-36 -275t36 -275t106 -215.5t179 -141.5
t248 -50q214 0 351 113.5t188 314.5l90 -20q-57 -231 -217.5 -362.5t-411.5 -131.5z" />
    <glyph glyph-name="uni0422" unicode="&#x422;" horiz-adv-x="1208" 
d="M623 0h-86v1389h-469v86h1013v-86h-458v-1389z" />
    <glyph glyph-name="uni0423" unicode="&#x423;" horiz-adv-x="1155" 
d="M1104 1475l-725 -1475h-91l254 521l-501 954h98l448 -861l419 861h98z" />
    <glyph glyph-name="uni0424" unicode="&#x424;" horiz-adv-x="1486" 
d="M700 0v156q-100 3 -193 27.5t-174.5 72.5t-141.5 115t-95 161t-35 205q0 138 53 249t143 181.5t203.5 109t239.5 42.5v156h86v-156q126 -4 239.5 -42.5t203.5 -109t143 -181.5t53 -249q0 -111 -35 -205t-95 -161t-141.5 -115t-174.5 -72.5t-193 -27.5v-156h-86zM786 1227
v-979q244 6 395.5 136t151.5 353t-151.5 353.5t-395.5 136.5zM700 248v979q-244 -6 -395 -136.5t-151 -353.5t151 -353t395 -136z" />
    <glyph glyph-name="uni0425" unicode="&#x425;" 
d="M123 0h-103l519 748l-506 727h102l451 -658l452 658h103l-506 -727l518 -748h-102l-465 676z" />
    <glyph glyph-name="uni0426" unicode="&#x426;" horiz-adv-x="1415" 
d="M1395 -266h-86v266h-1166v1475h86v-1389h914v1389h86v-1389h166v-352z" />
    <glyph glyph-name="uni0427" unicode="&#x427;" horiz-adv-x="1335" 
d="M1192 0h-86v662q-72 -64 -186 -95.5t-225 -31.5q-552 0 -552 538v402h86v-365q0 -254 109.5 -369.5t346.5 -115.5q117 0 233.5 36.5t187.5 109.5v704h86v-1475z" />
    <glyph glyph-name="uni0428" unicode="&#x428;" horiz-adv-x="2002" 
d="M143 0v1475h86v-1389h729v1389h86v-1389h730v1389h86v-1475h-1717z" />
    <glyph glyph-name="uni0429" unicode="&#x429;" horiz-adv-x="2045" 
d="M2025 -266h-86v266h-1796v1475h86v-1389h729v1389h86v-1389h730v1389h86v-1389h165v-352z" />
    <glyph glyph-name="uni042A" unicode="&#x42a;" horiz-adv-x="1282" 
d="M236 1389h-256v86h342v-590h436q210 0 336.5 -121.5t126.5 -321.5q0 -201 -126 -321.5t-337 -120.5h-522v1389zM322 86h436q172 0 271 95.5t99 260.5t-99 261t-271 96h-436v-713z" />
    <glyph glyph-name="uni042B" unicode="&#x42b;" horiz-adv-x="1552" 
d="M229 1475v-590h437q210 0 336 -121t126 -322t-125.5 -321.5t-336.5 -120.5h-523v1475h86zM1409 0h-86v1475h86v-1475zM229 86h437q172 0 271 95.5t99 260.5t-99 261t-271 96h-437v-713z" />
    <glyph glyph-name="uni042C" unicode="&#x42c;" horiz-adv-x="1210" 
d="M229 1475v-590h437q210 0 336 -121t126 -322t-125.5 -321.5t-336.5 -120.5h-523v1475h86zM229 86h437q172 0 271 95.5t99 260.5t-99 261t-271 96h-437v-713z" />
    <glyph glyph-name="uni042D" unicode="&#x42d;" horiz-adv-x="1417" 
d="M694 -31q-234 0 -402 127.5t-220 345.5l86 25q36 -129 112 -223t184 -141q107 -48 230 -48h10q288 5 434 199q70 94 101.5 199.5t34.5 240.5h-851v86h851q-7 192 -75 336t-191 222q-126 79 -295 79h-9q-214 -3 -356.5 -118t-185.5 -318l-91 14q55 241 223 375.5
t410 134.5q209 0 356 -93.5t225 -267.5q77 -178 81 -407v-27q0 -200 -73 -370q-73 -168 -224 -269q-151 -102 -365 -102z" />
    <glyph glyph-name="uni042E" unicode="&#x42e;" horiz-adv-x="2019" 
d="M229 0h-86v1475h86v-695h407q7 217 81 378t222.5 254t356.5 93q162 0 288.5 -56.5t208 -158.5t123.5 -242.5t42 -310.5t-42 -310.5t-123.5 -242.5t-208 -158.5t-288.5 -56.5q-208 0 -356.5 93t-222.5 254t-81 378h-407v-694zM1296 55q185 0 315 88t192.5 240t62.5 354
t-62.5 354t-192.5 240t-315 88q-139 0 -247.5 -50t-178 -141.5t-105.5 -215.5t-38 -275q-2 -202 60.5 -354t193 -240t315.5 -88z" />
    <glyph glyph-name="uni042F" unicode="&#x42f;" horiz-adv-x="1251" 
d="M580 590l-395 -590h-103l399 599q-166 29 -262 144.5t-96 288.5q0 201 126 322t337 121h522v-1475h-86v590h-442zM1022 676v713h-436q-172 0 -271.5 -96t-99.5 -261t99.5 -260.5t271.5 -95.5h436z" />
    <glyph glyph-name="uni0430" unicode="&#x430;" horiz-adv-x="1110" 
d="M565 1137q422 0 422 -445v-692h-86v212q-62 -118 -173 -180.5t-258 -62.5q-184 0 -286 82.5t-102 230.5q0 71 23.5 126t62 91.5t99.5 63t125.5 41t149.5 25.5l359 45v10q0 193 -80.5 280t-259.5 87q-287 0 -348 -244l-88 16q36 152 149 233t291 81zM901 587l-359 -45
q-202 -26 -287 -85t-85 -175q0 -111 77.5 -169t228.5 -58q171 0 281.5 96.5t135.5 266.5q8 54 8 169z" />
    <glyph glyph-name="uni0431" unicode="&#x431;" horiz-adv-x="1145" 
d="M564 -31q-234 0 -358 160t-124 461q0 177 15 295q25 194 77.5 301t148.5 166q67 41 147 63t149 28t177.5 21.5t205.5 40.5l9 -87q-96 -27 -232.5 -42.5t-240 -35t-172.5 -63.5q-84 -55 -126 -159t-61 -311q69 114 167.5 168t235.5 54q216 0 349 -146t133 -387
q0 -243 -135 -385t-365 -142zM564 55q190 0 299 117.5t109 323.5q0 210 -102.5 328.5t-287.5 118.5q-192 0 -299 -118t-107 -329q0 -199 106 -320t282 -121z" />
    <glyph glyph-name="uni0432" unicode="&#x432;" horiz-adv-x="1027" 
d="M535 0h-392v1106h395q399 0 399 -297q0 -89 -44.5 -149.5t-118.5 -87.5q80 -25 136 -97.5t56 -171.5q0 -150 -109 -226.5t-322 -76.5zM534 1020h-307v-413h368q115 0 182.5 50t67.5 146q0 117 -69.5 167t-241.5 50zM229 86h300q177 0 260.5 50.5t83.5 162.5
q0 117 -76 169.5t-202 52.5h-366v-435z" />
    <glyph glyph-name="uni0433" unicode="&#x433;" horiz-adv-x="901" 
d="M229 0h-86v1106h707v-86h-621v-1020z" />
    <glyph glyph-name="uni0434" unicode="&#x434;" horiz-adv-x="1226" 
d="M61 -225v311h108q93 119 93 566v454h760v-1020h143v-311h-86v225h-932v-225h-86zM270 86h666v934h-588v-428q0 -170 -21.5 -307.5t-56.5 -198.5z" />
    <glyph glyph-name="uni0435" unicode="&#x435;" 
d="M596 55q271 0 394 250l75 -41q-68 -143 -189 -219t-280 -76q-236 0 -375 157t-139 427q0 273 135 428.5t371 155.5q238 0 371 -160.5t133 -448.5h-918q7 -223 119 -348t303 -125zM176 614h820q-18 212 -122.5 324.5t-285.5 112.5q-182 0 -290 -115.5t-122 -321.5z" />
    <glyph glyph-name="uni0436" unicode="&#x436;" horiz-adv-x="1667" 
d="M791 0v532l-623 -532h-148l666 553l-577 553h129l553 -533v533h86v-533l553 533h129l-578 -553l666 -553h-148l-622 532v-532h-86z" />
    <glyph glyph-name="uni0437" unicode="&#x437;" horiz-adv-x="1048" 
d="M524 -31q-395 0 -463 363l89 16q46 -293 370 -293q172 0 263 64.5t91 179.5q0 117 -76 170.5t-202 53.5h-180v84h180q115 0 182.5 50t67.5 146q0 248 -322 248q-159 0 -240.5 -67t-115.5 -191l-88 16q87 328 448 328q194 0 302 -88.5t108 -239.5q0 -89 -44.5 -149.5
t-119.5 -87.5q81 -24 137 -97t56 -172q0 -152 -117 -243t-326 -91z" />
    <glyph glyph-name="uni0438" unicode="&#x438;" horiz-adv-x="1112" 
d="M883 1106h86v-1106h-86v961l-654 -961h-86v1106h86v-961z" />
    <glyph glyph-name="uni0439" unicode="&#x439;" horiz-adv-x="1112" 
d="M567 1241q-96 0 -164.5 69t-68.5 165h80q0 -62 45.5 -108t107.5 -46q63 0 108.5 45.5t45.5 108.5h80q0 -96 -69 -165t-165 -69zM883 1106h86v-1106h-86v961l-654 -961h-86v1106h86v-961z" />
    <glyph glyph-name="uni043A" unicode="&#x43a;" horiz-adv-x="958" 
d="M143 0v1106h86v-533l553 533h129l-577 -553l665 -553h-147l-623 532v-532h-86z" />
    <glyph glyph-name="uni043B" unicode="&#x43b;" horiz-adv-x="1138" 
d="M41 -18v81q26 -8 45 -8q86 0 123 135.5t37 389.5v526h749v-1106h-86v1020h-577v-440q0 -317 -51.5 -464t-165.5 -147q-30 0 -74 13z" />
    <glyph glyph-name="uni043C" unicode="&#x43c;" horiz-adv-x="1331" 
d="M229 0h-86v1106h86l437 -873l436 873h86v-1106h-86v916l-389 -781h-95l-389 781v-916z" />
    <glyph glyph-name="uni043D" unicode="&#x43d;" horiz-adv-x="1167" 
d="M229 0h-86v1106h86v-510h709v510h86v-1106h-86v510h-709v-510z" />
    <glyph glyph-name="uni043E" unicode="&#x43e;" horiz-adv-x="1175" 
d="M588 -31q-161 0 -276 75t-172.5 206.5t-57.5 304.5q0 265 134 423.5t372 158.5q242 0 374 -159.5t132 -422.5q0 -268 -133 -427t-373 -159zM588 55q203 0 308 135t105 365q0 231 -105.5 363.5t-307.5 132.5q-204 0 -309 -134.5t-105 -361.5q0 -231 107 -365.5t307 -134.5
z" />
    <glyph glyph-name="uni043F" unicode="&#x43f;" horiz-adv-x="1101" 
d="M229 0h-86v1106h815v-1106h-86v1020h-643v-1020z" />
    <glyph glyph-name="uni0440" unicode="&#x440;" horiz-adv-x="1230" 
d="M229 -492h-86v1598h86v-208q123 239 414 239q242 0 374 -159.5t132 -422.5q0 -268 -133 -427t-373 -159q-292 0 -414 241v-702zM643 55q203 0 308.5 135t105.5 365q0 231 -105.5 363.5t-308.5 132.5q-204 0 -309 -134.5t-105 -361.5q0 -231 107 -365.5t307 -134.5z" />
    <glyph glyph-name="uni0441" unicode="&#x441;" horiz-adv-x="1103" 
d="M588 -31q-236 0 -371 155.5t-135 428.5q0 275 134 429.5t372 154.5q154 0 273.5 -74t170.5 -201l-82 -35q-46 105 -141.5 164.5t-220.5 59.5q-196 0 -305 -131t-109 -367q0 -231 107 -364.5t307 -133.5q124 0 217 57t143 164l84 -36q-140 -271 -444 -271z" />
    <glyph glyph-name="uni0442" unicode="&#x442;" horiz-adv-x="1003" 
d="M545 0h-86v1020h-408v86h901v-86h-407v-1020z" />
    <glyph glyph-name="uni0443" unicode="&#x443;" horiz-adv-x="1036" 
d="M406 -492h-97l183 491l-451 1107h94l400 -988l358 988h92z" />
    <glyph glyph-name="uni0444" unicode="&#x444;" horiz-adv-x="1471" 
d="M692 -461v443q-128 2 -236.5 36.5t-193 101.5t-132.5 178t-48 254t48 254t132.5 179t193 102.5t236.5 36.5v330h86v-330q129 -1 237.5 -35.5t193.5 -102.5t133 -179t48 -255t-48 -254.5t-133 -178t-193.5 -102t-237.5 -35.5v-443h-86zM778 1035v-964q241 1 380 127
t139 354q0 229 -139 355.5t-380 127.5zM692 71v964q-241 -2 -379.5 -128.5t-138.5 -354.5t138.5 -353.5t379.5 -127.5z" />
    <glyph glyph-name="uni0445" unicode="&#x445;" horiz-adv-x="1042" 
d="M129 0h-109l451 559l-440 547h106l385 -483l383 483h107l-441 -547l451 -559h-109l-391 496z" />
    <glyph glyph-name="uni0446" unicode="&#x446;" horiz-adv-x="1132" 
d="M1112 -225h-86v225h-883v1106h86v-1020h654v1020h86v-1020h143v-311z" />
    <glyph glyph-name="uni0447" unicode="&#x447;" horiz-adv-x="999" 
d="M856 0h-86v468q-134 -73 -317 -73q-196 0 -283.5 102t-87.5 330v279h86v-268q0 -201 62 -284t225 -83q185 0 315 84v551h86v-1106z" />
    <glyph glyph-name="uni0448" unicode="&#x448;" horiz-adv-x="1646" 
d="M143 0v1106h86v-1020h551v1020h86v-1020h551v1020h86v-1106h-1360z" />
    <glyph glyph-name="uni0449" unicode="&#x449;" horiz-adv-x="1667" 
d="M1647 -225h-86v225h-1418v1106h86v-1020h551v1020h86v-1020h551v1020h86v-1020h144v-311z" />
    <glyph glyph-name="uni044A" unicode="&#x44a;" horiz-adv-x="1219" 
d="M297 0v1020h-256v86h342v-449h394q171 0 266 -88t95 -240t-95 -240.5t-266 -88.5h-480zM383 86h391q134 0 206 66t72 177q0 110 -72 176t-206 66h-391v-485z" />
    <glyph glyph-name="uni044B" unicode="&#x44b;" horiz-adv-x="1356" 
d="M1213 0h-86v1106h86v-1106zM624 0h-481v1106h86v-449h395q171 0 265.5 -88t94.5 -240t-95 -240.5t-265 -88.5zM229 86h392q134 0 205.5 66t71.5 177t-71.5 176.5t-205.5 65.5h-392v-485z" />
    <glyph glyph-name="uni044C" unicode="&#x44c;" horiz-adv-x="1063" 
d="M622 0h-481v1106h86v-449h395q171 0 265.5 -88t94.5 -240t-95 -240.5t-265 -88.5zM227 86h391q134 0 206 66t72 177q0 110 -72 176t-206 66h-391v-485z" />
    <glyph glyph-name="uni044D" unicode="&#x44d;" horiz-adv-x="1103" 
d="M518 -31q-305 0 -446 271l84 36q50 -107 143.5 -164t216.5 -57q190 0 295 121q105 122 117 334h-580v86h580q-11 210 -115 333q-105 122 -297 122q-125 0 -220.5 -59.5t-141.5 -164.5l-82 35q51 127 171.5 201t280.5 74q234 0 366 -157.5t132 -426.5t-134.5 -426.5
t-369.5 -157.5z" />
    <glyph glyph-name="uni044E" unicode="&#x44e;" horiz-adv-x="1538" 
d="M950 -31q-229 0 -361 147.5t-144 393.5h-216v-510h-86v1106h86v-510h216q11 248 144 394.5t361 146.5q242 0 374 -159.5t132 -422.5q0 -268 -133 -427t-373 -159zM950 55q203 0 308.5 135t105.5 365q0 231 -105.5 363.5t-308.5 132.5q-204 0 -308.5 -134.5t-104.5 -361.5
q0 -231 106.5 -365.5t306.5 -134.5z" />
    <glyph glyph-name="uni044F" unicode="&#x44f;" horiz-adv-x="1065" 
d="M191 0h-92l211 465q-110 31 -169 112t-59 200q0 152 95 240.5t265 88.5h481v-1106h-86v449h-395q-16 0 -44 2zM837 1020h-392q-134 0 -205.5 -66t-71.5 -177t71.5 -176.5t205.5 -65.5h392v485z" />
    <glyph glyph-name="uni0450" unicode="&#x450;" 
d="M565 1290l-98 277h90l98 -277h-90zM596 55q271 0 394 250l75 -41q-68 -143 -189 -219t-280 -76q-236 0 -375 157t-139 427q0 273 135 428.5t371 155.5q238 0 371 -160.5t133 -448.5h-918q7 -223 119 -348t303 -125zM176 614h820q-18 212 -122.5 324.5t-285.5 112.5
q-182 0 -290 -115.5t-122 -321.5z" />
    <glyph glyph-name="uni0451" unicode="&#x451;" 
d="M711 1352v123h123v-123h-123zM342 1352v123h123v-123h-123zM596 55q271 0 394 250l75 -41q-68 -143 -189 -219t-280 -76q-236 0 -375 157t-139 427q0 273 135 428.5t371 155.5q238 0 371 -160.5t133 -448.5h-918q7 -223 119 -348t303 -125zM176 614h820
q-18 212 -122.5 324.5t-285.5 112.5q-182 0 -290 -115.5t-122 -321.5z" />
    <glyph glyph-name="uni0452" unicode="&#x452;" 
d="M143 1229h-143v86h143v160h86v-160h263v-86h-263v-290q115 198 373 198q209 0 329 -132.5t120 -398.5v-849q0 -114 -66.5 -180t-180.5 -66h-71v86h39q109 0 151 41.5t42 150.5v817q0 445 -363 445q-80 0 -145 -23.5t-117.5 -74t-81.5 -138.5t-29 -209v-606h-86v1229z" />
    <glyph glyph-name="uni0453" unicode="&#x453;" horiz-adv-x="901" 
d="M572 1567l-98 -277h-90l98 277h90zM229 0h-86v1106h707v-86h-621v-1020z" />
    <glyph glyph-name="uni0454" unicode="&#x454;" horiz-adv-x="1103" 
d="M586 -31q-235 0 -369.5 157.5t-134.5 426.5t132 426.5t366 157.5q160 0 280.5 -74t171.5 -201l-82 -35q-46 105 -141.5 164.5t-220.5 59.5q-192 0 -296 -122q-105 -122 -116 -333h580v-86h-580q12 -212 117 -334q105 -121 295 -121q123 0 216.5 57t143.5 164l84 -36
q-141 -271 -446 -271z" />
    <glyph glyph-name="uni0455" unicode="&#x455;" horiz-adv-x="1052" 
d="M547 -29q-376 0 -465 295l90 20q71 -229 375 -229q157 0 244.5 62t87.5 174q0 58 -31 100.5t-106 74.5q-69 27 -203 64q-162 44 -213 65q-175 69 -204 192q-7 27 -7 58q0 125 118 207.5t298 82.5q177 0 297.5 -88t142.5 -232l-88 -16q-19 117 -114 183.5t-244 66.5
q-135 0 -227.5 -59t-92.5 -148q0 -22 7 -42.5t17 -36.5t29 -31.5t34.5 -26.5t42.5 -22.5t44 -18t48 -16t46.5 -13.5t47 -11.5t41.5 -10.5q160 -41 235 -76q89 -41 130.5 -101.5t41.5 -146.5q0 -148 -113 -234t-309 -86z" />
    <glyph glyph-name="uni0456" unicode="&#x456;" horiz-adv-x="413" 
d="M250 1343h-86v132h86v-132zM250 0h-86v1106h86v-1106z" />
    <glyph glyph-name="uni0457" unicode="&#x457;" horiz-adv-x="413" 
d="M453 1352h-123v123h123v-123zM84 1352h-123v123h123v-123zM250 0h-86v1106h86v-1106z" />
    <glyph glyph-name="uni0458" unicode="&#x458;" horiz-adv-x="460" 
d="M297 1343h-86v132h86v-132zM50 -489h-70v86h38q109 0 151 41.5t42 150.5v1317h86v-1349q0 -114 -66.5 -180t-180.5 -66z" />
    <glyph glyph-name="uni0459" unicode="&#x459;" horiz-adv-x="1831" 
d="M41 -17v82q27 -9 42 -9q88 0 125.5 142t37.5 401v507h749v-449h395q171 0 265.5 -88t94.5 -240t-95 -240.5t-265 -88.5h-481v1020h-577v-467q0 -177 -22.5 -305t-73.5 -203.5t-127 -75.5q-29 0 -68 14zM995 86h391q134 0 206 66t72 177q0 110 -72 176t-206 66h-391v-485z
" />
    <glyph glyph-name="uni045A" unicode="&#x45a;" horiz-adv-x="1860" 
d="M229 0h-86v1106h86v-510h709v510h86v-449h394q171 0 266 -88t95 -240t-95 -240.5t-266 -88.5h-480v510h-709v-510zM1024 86h391q134 0 206 66t72 177q0 110 -71.5 176t-206.5 66h-391v-485z" />
    <glyph glyph-name="uni045B" unicode="&#x45b;" 
d="M143 1229h-143v86h143v160h86v-160h263v-86h-263v-290q115 198 373 198q209 0 329 -132.5t120 -398.5v-606h-86v606q0 445 -363 445q-80 0 -145 -23.5t-117.5 -74t-81.5 -138.5t-29 -209v-606h-86v1229z" />
    <glyph glyph-name="uni045C" unicode="&#x45c;" horiz-adv-x="958" 
d="M501 1290h-90l98 277h90zM143 0v1106h86v-533l553 533h129l-577 -553l665 -553h-147l-623 532v-532h-86z" />
    <glyph glyph-name="uni045D" unicode="&#x45d;" horiz-adv-x="1112" 
d="M673 1290h-90l-99 277h90zM883 1106h86v-1106h-86v961l-654 -961h-86v1106h86v-961z" />
    <glyph glyph-name="uni045E" unicode="&#x45e;" horiz-adv-x="1036" 
d="M573 1241q-96 0 -164.5 69t-68.5 165h80q0 -62 45.5 -108t107.5 -46q63 0 108.5 45.5t45.5 108.5h80q0 -96 -69 -165t-165 -69zM406 -492h-97l183 491l-451 1107h94l400 -988l358 988h92z" />
    <glyph glyph-name="uni045F" unicode="&#x45f;" horiz-adv-x="1101" 
d="M594 -225h-86v225h-365v1106h86v-1020h643v1020h86v-1106h-364v-225z" />
    <glyph glyph-name="uni0490" unicode="&#x490;" horiz-adv-x="1085" 
d="M229 0h-86v1475h836v266h86v-352h-836v-1389z" />
    <glyph glyph-name="uni0491" unicode="&#x491;" horiz-adv-x="901" 
d="M229 0h-86v1106h621v225h86v-311h-621v-1020z" />
    <glyph glyph-name="uni04AE" unicode="&#x4ae;" horiz-adv-x="1062" 
d="M575 0h-86v627l-489 848h98l434 -750l433 750h98l-488 -848v-627z" />
    <glyph glyph-name="uni04AF" unicode="&#x4af;" horiz-adv-x="978" 
d="M537 -369h-95v369l-401 1106h92l356 -981l359 981h90l-401 -1106v-369z" />
    <glyph glyph-name="uni04BA" unicode="&#x4ba;" horiz-adv-x="1284" 
d="M41 1475h86v-662q72 64 186 95.5t225 31.5q552 0 552 -539v-401h-86v365q0 254 -109.5 369.5t-346.5 115.5q-117 0 -233.5 -37t-187.5 -110v-703h-86v1475z" />
    <glyph glyph-name="uni04BB" unicode="&#x4bb;" horiz-adv-x="1112" 
d="M414 0h-86v1106h86v-468q134 73 317 73q196 0 283.5 -102t87.5 -330v-279h-86v268q0 201 -62 284t-225 83q-185 0 -315 -84v-551z" />
    <glyph glyph-name="uni04E8" unicode="&#x4e8;" horiz-adv-x="1486" 
d="M723 -31q-212 0 -361.5 96t-225.5 271q-75 174 -75 401q0 231 75.5 403.5t222.5 268.5q146 96 364 96q212 0 362 -95.5t225 -270.5q74 -172 74 -402t-75.5 -402t-222.5 -268q-149 -98 -363 -98zM155 780h1136q-6 178 -63 314q-66 156 -194 240.5t-311 84.5
q-182 0 -310 -84.5t-193 -239.5q-57 -138 -65 -315zM723 55q182 0 310.5 85t194.5 241q57 137 63 313h-1137q4 -174 62 -312q65 -157 194.5 -242t312.5 -85z" />
    <glyph glyph-name="uni04E9" unicode="&#x4e9;" horiz-adv-x="1175" 
d="M588 -31q-159 0 -273.5 73.5t-173.5 207.5q-59 130 -59 305t60 306.5t174 203.5t272 72q240 0 373 -158.5t133 -423.5q0 -176 -59.5 -308.5t-172.5 -204.5q-117 -73 -274 -73zM175 596h825q-8 204 -104 323q-106 132 -308 132q-135 0 -228.5 -61.5t-139.5 -174.5
q-41 -98 -45 -219zM588 55q134 0 227.5 61t139.5 176q39 94 45 218h-825q6 -126 46 -219q47 -114 140.5 -175t226.5 -61z" />
    <glyph glyph-name="Wgrave" unicode="&#x1e80;" horiz-adv-x="1861" 
d="M969 1659h-90l-99 276h90zM553 0h-90l-422 1475h88l379 -1319l377 1319h90l379 -1319l377 1319h90l-422 -1475h-90l-379 1317z" />
    <glyph glyph-name="wgrave" unicode="&#x1e81;" horiz-adv-x="1527" 
d="M800 1290h-90l-99 277h90zM1055 0l-291 957l-291 -957h-94l-338 1106h90l295 -967l293 967h90l293 -967l295 967h90l-338 -1106h-94z" />
    <glyph glyph-name="Wacute" unicode="&#x1e82;" horiz-adv-x="1861" 
d="M1081 1935l-98 -276h-90l98 276h90zM553 0h-90l-422 1475h88l379 -1319l377 1319h90l379 -1319l377 1319h90l-422 -1475h-90l-379 1317z" />
    <glyph glyph-name="wacute" unicode="&#x1e83;" horiz-adv-x="1527" 
d="M912 1567l-98 -277h-90l98 277h90zM1055 0l-291 957l-291 -957h-94l-338 1106h90l295 -967l293 967h90l293 -967l295 967h90l-338 -1106h-94z" />
    <glyph glyph-name="Wdieresis" unicode="&#x1e84;" horiz-adv-x="1861" 
d="M1178 1720h-123v123h123v-123zM809 1720h-123v123h123v-123zM553 0h-90l-422 1475h88l379 -1319l377 1319h90l379 -1319l377 1319h90l-422 -1475h-90l-379 1317z" />
    <glyph glyph-name="wdieresis" unicode="&#x1e85;" horiz-adv-x="1527" 
d="M1008 1352h-123v123h123v-123zM639 1352h-123v123h123v-123zM1055 0l-291 957l-291 -957h-94l-338 1106h90l295 -967l293 967h90l293 -967l295 967h90l-338 -1106h-94z" />
    <glyph glyph-name="Germandbls" unicode="&#x1e9e;" horiz-adv-x="1391" 
d="M803 -31q-54 0 -88 6t-94 25v86q93 -27 186 -27q162 0 266.5 94t104.5 254q0 149 -111.5 240t-318.5 98v80l274 485q-68 46 -148 75q-82 30 -193 30q-176 0 -284.5 -85t-137.5 -223q-21 -105 -21 -276v-831h-95v915q0 126 21 220q46 204 191 287q146 83 339 83
q224 0 446 -160q1 0 1 -2l2 -1q1 0 1 -1l-285 -513q107 -9 199.5 -60t150.5 -140q60 -91 60 -220q0 -205 -124.5 -322t-341.5 -117z" />
    <glyph glyph-name="uni1EA0" unicode="&#x1ea0;" horiz-adv-x="1247" 
d="M670 1475l536 -1475h-92l-139 383h-703l-139 -383h-92l537 1475h92zM302 465h643l-322 886zM562 -389v131h123v-131h-123z" />
    <glyph glyph-name="uni1EA1" unicode="&#x1ea1;" horiz-adv-x="1110" 
d="M565 1137q422 0 422 -445v-692h-86v212q-62 -118 -173 -180.5t-258 -62.5q-184 0 -286 82.5t-102 230.5q0 71 23.5 126t62 91.5t99.5 63t125.5 41t149.5 25.5l359 45v10q0 193 -80.5 280t-259.5 87q-287 0 -348 -244l-88 16q36 152 149 233t291 81zM901 587l-359 -45
q-202 -26 -287 -85t-85 -175q0 -111 77.5 -169t228.5 -58q171 0 281.5 96.5t135.5 266.5q8 54 8 169zM473 -389v131h123v-131h-123z" />
    <glyph glyph-name="uni1EA2" unicode="&#x1ea2;" horiz-adv-x="1247" 
d="M485 1905q55 66 132 66q19 0 50 -7q31 -8 64 -51q32 -41 32 -91q0 -12 -1 -30q-1 -27 -32 -74q-30 -46 -81 -73l-53 49q39 21 64 50.5t27 49.5q1 11 1 22q0 25 -14 48q-20 34 -59 34q-5 0 -28 -3q-25 -3 -63 -41zM670 1475l536 -1475h-92l-139 383h-703l-139 -383h-92
l537 1475h92zM302 465h643l-322 886z" />
    <glyph glyph-name="uni1EA3" unicode="&#x1ea3;" horiz-adv-x="1110" 
d="M425 1536q56 67 132 67q14 0 49 -8q32 -8 65 -51q31 -39 31 -91q0 -12 -1 -30q-2 -27 -31 -73q-30 -47 -81 -74l-53 49q39 21 64 50.5t27 49.5q1 11 1 22q0 23 -15 48q-20 35 -58 35q-7 0 -29 -3q-24 -3 -62 -41zM565 1137q422 0 422 -445v-692h-86v212
q-62 -118 -173 -180.5t-258 -62.5q-184 0 -286 82.5t-102 230.5q0 71 23.5 126t62 91.5t99.5 63t125.5 41t149.5 25.5l359 45v10q0 193 -80.5 280t-259.5 87q-287 0 -348 -244l-88 16q36 152 149 233t291 81zM901 587l-359 -45q-202 -26 -287 -85t-85 -175q0 -111 77.5 -169
t228.5 -58q171 0 281.5 96.5t135.5 266.5q8 54 8 169z" />
    <glyph glyph-name="uni1EA4" unicode="&#x1ea4;" horiz-adv-x="1247" 
d="M939 1874h-90l98 276h90zM372 1659l205 246h94l205 -246h-103l-149 174l-150 -174h-102zM670 1475l536 -1475h-92l-139 383h-703l-139 -383h-92l537 1475h92zM302 465h643l-322 886z" />
    <glyph glyph-name="uni1EA5" unicode="&#x1ea5;" horiz-adv-x="1110" 
d="M894 1505h-90l98 277h90zM327 1290l204 246h95l204 -246h-102l-149 174l-150 -174h-102zM565 1137q422 0 422 -445v-692h-86v212q-62 -118 -173 -180.5t-258 -62.5q-184 0 -286 82.5t-102 230.5q0 71 23.5 126t62 91.5t99.5 63t125.5 41t149.5 25.5l359 45v10
q0 193 -80.5 280t-259.5 87q-287 0 -348 -244l-88 16q36 152 149 233t291 81zM901 587l-359 -45q-202 -26 -287 -85t-85 -175q0 -111 77.5 -169t228.5 -58q171 0 281.5 96.5t135.5 266.5q8 54 8 169z" />
    <glyph glyph-name="uni1EA6" unicode="&#x1ea6;" horiz-adv-x="1247" 
d="M835 1874l-99 276h90l99 -276h-90zM372 1659l205 246h94l205 -246h-103l-149 174l-150 -174h-102zM670 1475l536 -1475h-92l-139 383h-703l-139 -383h-92l537 1475h92zM302 465h643l-322 886z" />
    <glyph glyph-name="uni1EA7" unicode="&#x1ea7;" horiz-adv-x="1110" 
d="M802 1505l-99 277h91l98 -277h-90zM339 1290l205 246h94l205 -246h-103l-149 174l-150 -174h-102zM565 1137q422 0 422 -445v-692h-86v212q-62 -118 -173 -180.5t-258 -62.5q-184 0 -286 82.5t-102 230.5q0 71 23.5 126t62 91.5t99.5 63t125.5 41t149.5 25.5l359 45v10
q0 193 -80.5 280t-259.5 87q-287 0 -348 -244l-88 16q36 152 149 233t291 81zM901 587l-359 -45q-202 -26 -287 -85t-85 -175q0 -111 77.5 -169t228.5 -58q171 0 281.5 96.5t135.5 266.5q8 54 8 169z" />
    <glyph glyph-name="uni1EA8" unicode="&#x1ea8;" horiz-adv-x="1247" 
d="M856 1905q55 66 132 66q18 0 49 -7q32 -8 65 -51q32 -41 32 -91q0 -12 -1 -30q-1 -27 -32 -74q-30 -46 -81 -73l-53 49q39 21 64 50.5t27 49.5q1 11 1 22q0 23 -15 48q-20 34 -58 34q-6 0 -29 -3q-24 -3 -62 -41zM373 1659l205 246h94l205 -246h-103l-149 174l-150 -174
h-102zM670 1475l536 -1475h-92l-139 383h-703l-139 -383h-92l537 1475h92zM302 465h643l-322 886z" />
    <glyph glyph-name="uni1EA9" unicode="&#x1ea9;" horiz-adv-x="1110" 
d="M786 1536q56 67 133 67q14 0 49 -8q31 -8 64 -51q32 -41 32 -91q0 -12 -1 -30q-1 -26 -32 -73q-30 -47 -81 -74l-53 49q39 21 64 50.5t27 49.5q1 11 1 22q0 25 -14 48q-20 35 -59 35q-6 0 -28 -3q-25 -3 -63 -41zM303 1290l205 246h94l205 -246h-102l-150 174l-149 -174
h-103zM565 1137q422 0 422 -445v-692h-86v212q-62 -118 -173 -180.5t-258 -62.5q-184 0 -286 82.5t-102 230.5q0 71 23.5 126t62 91.5t99.5 63t125.5 41t149.5 25.5l359 45v10q0 193 -80.5 280t-259.5 87q-287 0 -348 -244l-88 16q36 152 149 233t291 81zM901 587l-359 -45
q-202 -26 -287 -85t-85 -175q0 -111 77.5 -169t228.5 -58q171 0 281.5 96.5t135.5 266.5q8 54 8 169z" />
    <glyph glyph-name="uni1EAA" unicode="&#x1eaa;" horiz-adv-x="1247" 
d="M768 1956q-62 0 -163 54q-88 44 -126 44q-25 0 -41.5 -13t-17.5 -27q-1 -8 -1 -17q0 -14 5 -31h-74q-6 21 -6 42q0 68 56 106q35 22 81 22q61 0 166 -54q88 -44 125 -44q33 0 47 18.5t14 42.5q0 9 -6 31h74q6 -21 6 -41q0 -70 -56 -109q-36 -24 -83 -24zM369 1659
l204 246h95l204 -246h-102l-149 174l-150 -174h-102zM670 1475l536 -1475h-92l-139 383h-703l-139 -383h-92l537 1475h92zM302 465h643l-322 886z" />
    <glyph glyph-name="uni1EAB" unicode="&#x1eab;" horiz-adv-x="1110" 
d="M723 1587q-63 0 -163 54q-87 45 -126 45q-26 0 -42 -13t-17 -27q-1 -8 -1 -18q0 -14 5 -31h-74q-6 21 -6 42q0 68 56 106q35 22 81 22q61 0 166 -54q88 -44 125 -44q33 0 46.5 19t13.5 43q0 12 -5 30h74q6 -21 6 -41q0 -69 -56 -108q-38 -25 -83 -25zM324 1290l204 246
h95l204 -246h-102l-150 174l-149 -174h-102zM565 1137q422 0 422 -445v-692h-86v212q-62 -118 -173 -180.5t-258 -62.5q-184 0 -286 82.5t-102 230.5q0 71 23.5 126t62 91.5t99.5 63t125.5 41t149.5 25.5l359 45v10q0 193 -80.5 280t-259.5 87q-287 0 -348 -244l-88 16
q36 152 149 233t291 81zM901 587l-359 -45q-202 -26 -287 -85t-85 -175q0 -111 77.5 -169t228.5 -58q171 0 281.5 96.5t135.5 266.5q8 54 8 169z" />
    <glyph glyph-name="uni1EAC" unicode="&#x1eac;" horiz-adv-x="1247" 
d="M373 1659l205 246h94l205 -246h-103l-149 174l-150 -174h-102zM670 1475l536 -1475h-92l-139 383h-703l-139 -383h-92l537 1475h92zM302 465h643l-322 886zM562 -389v131h123v-131h-123z" />
    <glyph glyph-name="uni1EAD" unicode="&#x1ead;" horiz-adv-x="1110" 
d="M319 1290l205 246h94l205 -246h-102l-150 174l-149 -174h-103zM565 1137q422 0 422 -445v-692h-86v212q-62 -118 -173 -180.5t-258 -62.5q-184 0 -286 82.5t-102 230.5q0 71 23.5 126t62 91.5t99.5 63t125.5 41t149.5 25.5l359 45v10q0 193 -80.5 280t-259.5 87
q-287 0 -348 -244l-88 16q36 152 149 233t291 81zM901 587l-359 -45q-202 -26 -287 -85t-85 -175q0 -111 77.5 -169t228.5 -58q171 0 281.5 96.5t135.5 266.5q8 54 8 169zM473 -389v131h123v-131h-123z" />
    <glyph glyph-name="uni1EAE" unicode="&#x1eae;" horiz-adv-x="1247" 
d="M663 1874h-91l99 276h90zM624 1610q-96 0 -165 68.5t-69 164.5h80q0 -62 46 -107.5t108 -45.5q63 0 108 45t45 108h80q0 -96 -68.5 -164.5t-164.5 -68.5zM670 1475l536 -1475h-92l-139 383h-703l-139 -383h-92l537 1475h92zM302 465h643l-322 886z" />
    <glyph glyph-name="uni1EAF" unicode="&#x1eaf;" horiz-adv-x="1110" 
d="M611 1505h-90l99 277h90zM572 1241q-96 0 -164.5 69t-68.5 165h80q0 -62 45.5 -108t107.5 -46q63 0 108.5 45.5t45.5 108.5h80q0 -96 -69 -165t-165 -69zM565 1137q422 0 422 -445v-692h-86v212q-62 -118 -173 -180.5t-258 -62.5q-184 0 -286 82.5t-102 230.5
q0 71 23.5 126t62 91.5t99.5 63t125.5 41t149.5 25.5l359 45v10q0 193 -80.5 280t-259.5 87q-287 0 -348 -244l-88 16q36 152 149 233t291 81zM901 587l-359 -45q-202 -26 -287 -85t-85 -175q0 -111 77.5 -169t228.5 -58q171 0 281.5 96.5t135.5 266.5q8 54 8 169z" />
    <glyph glyph-name="uni1EB0" unicode="&#x1eb0;" horiz-adv-x="1247" 
d="M585 1874l-99 276h91l98 -276h-90zM624 1610q-96 0 -165 68.5t-69 164.5h80q0 -63 45 -108t109 -45q62 0 107.5 45.5t45.5 107.5h80q0 -96 -68.5 -164.5t-164.5 -68.5zM670 1475l536 -1475h-92l-139 383h-703l-139 -383h-92l537 1475h92zM302 465h643l-322 886z" />
    <glyph glyph-name="uni1EB1" unicode="&#x1eb1;" horiz-adv-x="1110" 
d="M542 1505l-99 277h91l98 -277h-90zM581 1241q-96 0 -165 69t-69 165h80q0 -63 45.5 -108.5t108.5 -45.5q62 0 107.5 46t45.5 108h80q0 -96 -68.5 -165t-164.5 -69zM565 1137q422 0 422 -445v-692h-86v212q-62 -118 -173 -180.5t-258 -62.5q-184 0 -286 82.5t-102 230.5
q0 71 23.5 126t62 91.5t99.5 63t125.5 41t149.5 25.5l359 45v10q0 193 -80.5 280t-259.5 87q-287 0 -348 -244l-88 16q36 152 149 233t291 81zM901 587l-359 -45q-202 -26 -287 -85t-85 -175q0 -111 77.5 -169t228.5 -58q171 0 281.5 96.5t135.5 266.5q8 54 8 169z" />
    <glyph glyph-name="uni1EB2" unicode="&#x1eb2;" horiz-adv-x="1247" 
d="M458 2110q56 67 132 67q18 0 49 -7q31 -8 64 -51q32 -41 32 -91q0 -12 -1 -30q-1 -27 -32 -74q-31 -48 -80 -74l-54 50q39 21 64 50.5t27 49.5q1 11 1 21q0 26 -14 49q-20 34 -58 34q-6 0 -29 -3q-24 -3 -62 -41zM624 1610q-96 0 -165 68.5t-69 164.5h80q0 -62 46 -107.5
t108 -45.5q63 0 108 45t45 108h80q0 -96 -68.5 -164.5t-164.5 -68.5zM670 1475l536 -1475h-92l-139 383h-703l-139 -383h-92l537 1475h92zM302 465h643l-322 886z" />
    <glyph glyph-name="uni1EB3" unicode="&#x1eb3;" horiz-adv-x="1110" 
d="M421 1742q55 66 132 66q18 0 49 -7q32 -8 65 -51q31 -39 31 -91q0 -12 -1 -30q-2 -28 -31 -74q-30 -46 -81 -73l-54 49q39 21 64.5 50.5t27.5 49.5q1 11 1 22q0 23 -15 48q-20 35 -58 35q-7 0 -29 -3q-24 -3 -62 -41zM587 1241q-96 0 -165 69t-69 165h80q0 -62 46 -108
t108 -46q63 0 108 45.5t45 108.5h80q0 -96 -68.5 -165t-164.5 -69zM565 1137q422 0 422 -445v-692h-86v212q-62 -118 -173 -180.5t-258 -62.5q-184 0 -286 82.5t-102 230.5q0 71 23.5 126t62 91.5t99.5 63t125.5 41t149.5 25.5l359 45v10q0 193 -80.5 280t-259.5 87
q-287 0 -348 -244l-88 16q36 152 149 233t291 81zM901 587l-359 -45q-202 -26 -287 -85t-85 -175q0 -111 77.5 -169t228.5 -58q171 0 281.5 96.5t135.5 266.5q8 54 8 169z" />
    <glyph glyph-name="uni1EB4" unicode="&#x1eb4;" horiz-adv-x="1247" 
d="M755 1894q-61 0 -163 55q-88 44 -126 44q-26 0 -42 -13t-17 -27q-1 -8 -1 -18q0 -13 5 -30h-74q-6 21 -6 42q0 67 56 105q37 23 81 23q37 0 72.5 -12.5t93.5 -42.5q88 -44 125 -44q33 0 46.5 19t13.5 43q0 12 -5 30h74q6 -21 6 -40q0 -70 -56 -109q-38 -25 -83 -25z
M610 1610q-96 0 -164.5 68.5t-68.5 164.5h80q0 -62 45.5 -107.5t107.5 -45.5q64 0 109 45t45 108h80q0 -96 -69 -164.5t-165 -68.5zM670 1475l536 -1475h-92l-139 383h-703l-139 -383h-92l537 1475h92zM302 465h643l-322 886z" />
    <glyph glyph-name="uni1EB5" unicode="&#x1eb5;" horiz-adv-x="1110" 
d="M683 1526q-63 0 -163 54q-88 44 -126 44q-26 0 -42 -13t-17 -27q-1 -8 -1 -17q0 -14 5 -31h-74q-6 21 -6 42q0 67 56 105q37 23 81 23q61 0 166 -54q88 -44 125 -44q33 0 47 18.5t14 42.5q0 9 -6 31h74q6 -21 6 -41q0 -70 -56 -109q-36 -24 -83 -24zM539 1241
q-96 0 -165 69t-69 165h80q0 -62 46 -108t108 -46q63 0 108 45.5t45 108.5h80q0 -96 -68.5 -165t-164.5 -69zM565 1137q422 0 422 -445v-692h-86v212q-62 -118 -173 -180.5t-258 -62.5q-184 0 -286 82.5t-102 230.5q0 71 23.5 126t62 91.5t99.5 63t125.5 41t149.5 25.5
l359 45v10q0 193 -80.5 280t-259.5 87q-287 0 -348 -244l-88 16q36 152 149 233t291 81zM901 587l-359 -45q-202 -26 -287 -85t-85 -175q0 -111 77.5 -169t228.5 -58q171 0 281.5 96.5t135.5 266.5q8 54 8 169z" />
    <glyph glyph-name="uni1EB6" unicode="&#x1eb6;" horiz-adv-x="1247" 
d="M625 1610q-96 0 -165 68.5t-69 164.5h80q0 -62 46 -107.5t108 -45.5q63 0 108 45t45 108h80q0 -96 -68.5 -164.5t-164.5 -68.5zM670 1475l536 -1475h-92l-139 383h-703l-139 -383h-92l537 1475h92zM302 465h643l-322 886zM562 -389v131h123v-131h-123z" />
    <glyph glyph-name="uni1EB7" unicode="&#x1eb7;" horiz-adv-x="1110" 
d="M573 1241q-96 0 -164.5 69t-68.5 165h80q0 -62 45.5 -108t107.5 -46q63 0 108.5 45.5t45.5 108.5h80q0 -96 -69 -165t-165 -69zM565 1137q422 0 422 -445v-692h-86v212q-62 -118 -173 -180.5t-258 -62.5q-184 0 -286 82.5t-102 230.5q0 71 23.5 126t62 91.5t99.5 63
t125.5 41t149.5 25.5l359 45v10q0 193 -80.5 280t-259.5 87q-287 0 -348 -244l-88 16q36 152 149 233t291 81zM901 587l-359 -45q-202 -26 -287 -85t-85 -175q0 -111 77.5 -169t228.5 -58q171 0 281.5 96.5t135.5 266.5q8 54 8 169zM473 -389v131h123v-131h-123z" />
    <glyph glyph-name="uni1EB8" unicode="&#x1eb8;" horiz-adv-x="1228" 
d="M1044 0h-901v1475h901v-86h-815v-609h693v-86h-693v-608h815v-86zM655 -389h-123v131h123v-131z" />
    <glyph glyph-name="uni1EB9" unicode="&#x1eb9;" 
d="M596 55q271 0 394 250l75 -41q-68 -143 -189 -219t-280 -76q-236 0 -375 157t-139 427q0 273 135 428.5t371 155.5q238 0 371 -160.5t133 -448.5h-918q7 -223 119 -348t303 -125zM176 614h820q-18 212 -122.5 324.5t-285.5 112.5q-182 0 -290 -115.5t-122 -321.5z
M525 -389v131h123v-131h-123z" />
    <glyph glyph-name="uni1EBA" unicode="&#x1eba;" horiz-adv-x="1146" 
d="M495 1854l-39 51q55 66 132 66q18 0 49 -7q31 -8 64 -51q32 -41 32 -91q0 -12 -1 -30q-1 -27 -32 -74q-30 -47 -80 -73l-54 49q39 21 64 50.5t27 49.5q1 11 1 22q0 25 -14 48q-20 34 -58 34q-6 0 -29 -3q-24 -3 -62 -41zM1044 0h-901v1475h901v-86h-815v-609h693v-86
h-693v-608h815v-86z" />
    <glyph glyph-name="uni1EBB" unicode="&#x1ebb;" horiz-adv-x="1228" 
d="M456 1536q56 67 132 67q14 0 49 -8q31 -8 64 -51q32 -41 32 -91q0 -12 -1 -30q-1 -26 -32 -73q-31 -48 -80 -74l-54 49q39 21 64 50.5t27 49.5q1 11 1 22q0 25 -14 48q-20 35 -58 35q-6 0 -29 -3q-24 -3 -62 -41zM596 55q271 0 394 250l75 -41q-68 -143 -189 -219
t-280 -76q-236 0 -375 157t-139 427q0 273 135 428.5t371 155.5q238 0 371 -160.5t133 -448.5h-918q7 -223 119 -348t303 -125zM176 614h820q-18 212 -122.5 324.5t-285.5 112.5q-182 0 -290 -115.5t-122 -321.5z" />
    <glyph glyph-name="uni1EBC" unicode="&#x1ebc;" horiz-adv-x="1146" 
d="M736 1659q-62 0 -163 54q-85 44 -126 44q-25 0 -41.5 -13t-17.5 -27q-1 -8 -1 -17q0 -14 5 -31h-74q-6 21 -6 42q0 68 57 106q35 22 81 22q37 0 72.5 -12.5t92.5 -41.5q88 -44 125 -44q33 0 47 18.5t14 42.5q0 13 -5 31h73q7 -24 7 -41q0 -69 -57 -109q-36 -24 -83 -24z
M1044 0h-901v1475h901v-86h-815v-609h693v-86h-693v-608h815v-86z" />
    <glyph glyph-name="uni1EBD" unicode="&#x1ebd;" 
d="M729 1290q-61 0 -163 55q-85 44 -126 44q-26 0 -42 -13t-17 -27q-1 -8 -1 -18q0 -14 5 -31h-74q-6 21 -6 42q0 68 56 106q35 22 81 22q61 0 166 -54q88 -44 125 -44q33 0 47 19t14 43q0 8 -6 30h74q6 -21 6 -41q0 -69 -56 -108q-38 -25 -83 -25zM596 55q271 0 394 250
l75 -41q-68 -143 -189 -219t-280 -76q-236 0 -375 157t-139 427q0 273 135 428.5t371 155.5q238 0 371 -160.5t133 -448.5h-918q7 -223 119 -348t303 -125zM176 614h820q-18 212 -122.5 324.5t-285.5 112.5q-182 0 -290 -115.5t-122 -321.5z" />
    <glyph glyph-name="uni1EBE" unicode="&#x1ebe;" horiz-adv-x="1146" 
d="M992 2150l-98 -276h-90l98 276h90zM429 1659h-102l204 246h95l204 -246h-102l-149 174zM1044 0h-901v1475h901v-86h-815v-609h693v-86h-693v-608h815v-86z" />
    <glyph glyph-name="uni1EBF" unicode="&#x1ebf;" 
d="M928 1505h-90l98 277h90zM360 1290l205 246h94l205 -246h-102l-150 174l-149 -174h-103zM596 55q271 0 394 250l75 -41q-68 -143 -189 -219t-280 -76q-236 0 -375 157t-139 427q0 273 135 428.5t371 155.5q238 0 371 -160.5t133 -448.5h-918q7 -223 119 -348t303 -125z
M176 614h820q-18 212 -122.5 324.5t-285.5 112.5q-182 0 -290 -115.5t-122 -321.5z" />
    <glyph glyph-name="uni1EC0" unicode="&#x1ec0;" horiz-adv-x="1146" 
d="M932 1874h-90l-99 276h91zM481 1659h-102l205 246h94l205 -246h-103l-149 174zM1044 0h-901v1475h901v-86h-815v-609h693v-86h-693v-608h815v-86z" />
    <glyph glyph-name="uni1EC1" unicode="&#x1ec1;" 
d="M798 1505l-99 277h91l98 -277h-90zM335 1290l205 246h94l205 -246h-103l-149 174l-150 -174h-102zM596 55q271 0 394 250l75 -41q-68 -143 -189 -219t-280 -76q-236 0 -375 157t-139 427q0 273 135 428.5t371 155.5q238 0 371 -160.5t133 -448.5h-918q7 -223 119 -348
t303 -125zM176 614h820q-18 212 -122.5 324.5t-285.5 112.5q-182 0 -290 -115.5t-122 -321.5z" />
    <glyph glyph-name="uni1EC2" unicode="&#x1ec2;" horiz-adv-x="1228" 
d="M871 1854l-38 51q55 66 132 66q18 0 49 -7q31 -8 64 -51q32 -41 32 -91q0 -12 -1 -30q-1 -27 -32 -74q-30 -46 -81 -73l-53 49q39 21 64 50.5t27 49.5q1 11 1 22q0 25 -14 48q-20 34 -58 34q-7 0 -29 -3q-25 -3 -63 -41zM452 1659h-103l205 246h94l205 -246h-102
l-150 174zM1044 0h-901v1475h901v-86h-815v-609h693v-86h-693v-608h815v-86z" />
    <glyph glyph-name="uni1EC3" unicode="&#x1ec3;" 
d="M834 1536q56 67 132 67q14 0 49 -8q31 -8 64 -51q32 -41 32 -91q0 -12 -1 -30q-1 -26 -32 -73q-30 -47 -81 -74l-53 49q39 21 64 50.5t27 49.5q1 11 1 22q0 25 -14 48q-20 35 -58 35q-6 0 -29 -3q-25 -3 -63 -41zM350 1290l205 246h94l205 -246h-102l-150 174l-149 -174
h-103zM596 55q271 0 394 250l75 -41q-68 -143 -189 -219t-280 -76q-236 0 -375 157t-139 427q0 273 135 428.5t371 155.5q238 0 371 -160.5t133 -448.5h-918q7 -223 119 -348t303 -125zM176 614h820q-18 212 -122.5 324.5t-285.5 112.5q-182 0 -290 -115.5t-122 -321.5z" />
    <glyph glyph-name="uni1EC4" unicode="&#x1ec4;" horiz-adv-x="1146" 
d="M736 1956q-62 0 -163 54q-88 44 -126 44q-25 0 -41.5 -13t-17.5 -27q-1 -8 -1 -17q0 -14 5 -31h-74q-6 21 -6 42q0 68 57 106q35 22 81 22q37 0 72.5 -12.5t92.5 -41.5q88 -44 125 -44q33 0 47 18.5t14 42.5q0 13 -5 31h73q7 -25 7 -41q0 -69 -57 -109q-36 -24 -83 -24z
M439 1659h-102l205 246h94l205 -246h-103l-149 174zM1044 0h-901v1475h901v-86h-815v-609h693v-86h-693v-608h815v-86z" />
    <glyph glyph-name="uni1EC5" unicode="&#x1ec5;" 
d="M744 1587q-62 0 -162 54q-90 45 -126 45q-26 0 -42.5 -13t-17.5 -27q-1 -8 -1 -18q0 -14 5 -31h-73q-6 21 -6 42q0 68 56 106q35 22 81 22q61 0 166 -54q88 -44 125 -44q33 0 46.5 19t13.5 43q0 12 -5 30h74q6 -21 6 -41q0 -68 -57 -108q-38 -25 -83 -25zM345 1290
l205 246h94l205 -246h-103l-149 174l-150 -174h-102zM596 55q271 0 394 250l75 -41q-68 -143 -189 -219t-280 -76q-236 0 -375 157t-139 427q0 273 135 428.5t371 155.5q238 0 371 -160.5t133 -448.5h-918q7 -223 119 -348t303 -125zM176 614h820q-18 212 -122.5 324.5
t-285.5 112.5q-182 0 -290 -115.5t-122 -321.5z" />
    <glyph glyph-name="uni1EC6" unicode="&#x1ec6;" horiz-adv-x="1146" 
d="M434 1659h-102l205 246h94l205 -246h-103l-149 174zM1044 0h-901v1475h901v-86h-815v-609h693v-86h-693v-608h815v-86zM655 -389h-123v131h123v-131z" />
    <glyph glyph-name="uni1EC7" unicode="&#x1ec7;" 
d="M336 1290l205 246h94l205 -246h-103l-149 174l-150 -174h-102zM596 55q271 0 394 250l75 -41q-68 -143 -189 -219t-280 -76q-236 0 -375 157t-139 427q0 273 135 428.5t371 155.5q238 0 371 -160.5t133 -448.5h-918q7 -223 119 -348t303 -125zM176 614h820
q-18 212 -122.5 324.5t-285.5 112.5q-182 0 -290 -115.5t-122 -321.5zM525 -389v131h123v-131h-123z" />
    <glyph glyph-name="uni1EC8" unicode="&#x1ec8;" horiz-adv-x="413" 
d="M98 1854l-39 51q55 66 132 66q19 0 50 -7q31 -8 64 -51q32 -41 32 -91q0 -12 -1 -30q-1 -27 -32 -74q-30 -46 -81 -73l-53 49q39 21 64 50.5t27 49.5q1 11 1 22q0 25 -14 48q-20 34 -59 34q-5 0 -28 -3q-25 -3 -63 -41zM250 0h-86v1475h86v-1475z" />
    <glyph glyph-name="uni1EC9" unicode="&#x1ec9;" horiz-adv-x="413" 
d="M89 1486l-39 50q56 67 132 67q14 0 49 -8q32 -8 65 -51q32 -41 32 -91q0 -12 -1 -30q-1 -26 -32 -73q-30 -47 -81 -74l-53 49q39 21 64 50.5t27 49.5q1 11 1 22q0 25 -14 48q-20 35 -59 35q-6 0 -28 -3q-25 -3 -63 -41zM250 0h-86v1106h86v-1106z" />
    <glyph glyph-name="uni1ECA" unicode="&#x1eca;" horiz-adv-x="413" 
d="M250 0h-86v1475h86v-1475zM268 -389h-123v131h123v-131z" />
    <glyph glyph-name="uni1ECB" unicode="&#x1ecb;" horiz-adv-x="413" 
d="M250 1343h-86v132h86v-132zM250 0h-86v1106h86v-1106zM268 -389h-123v131h123v-131z" />
    <glyph glyph-name="uni1ECC" unicode="&#x1ecc;" horiz-adv-x="1445" 
d="M723 -31q-162 0 -288.5 56.5t-208 158.5t-123.5 242.5t-42 310.5t42 310.5t123.5 242.5t208 158.5t288.5 56.5t288.5 -56.5t207.5 -159t123 -242t42 -310.5t-42 -310.5t-123 -242t-207.5 -159t-288.5 -56.5zM723 55q139 0 248 50t179 141.5t106 215.5t36 275t-36 275
t-106 215.5t-179 141.5t-248 50t-247.5 -50t-178 -141.5t-105.5 -215.5t-38 -275q-2 -202 60.5 -354t193 -240t315.5 -88zM637 -389v131h123v-131h-123z" />
    <glyph glyph-name="uni1ECD" unicode="&#x1ecd;" horiz-adv-x="1175" 
d="M588 -31q-161 0 -276 75t-172.5 206.5t-57.5 304.5q0 265 134 423.5t372 158.5q242 0 374 -159.5t132 -422.5q0 -268 -133 -427t-373 -159zM588 55q203 0 308 135t105 365q0 231 -105.5 363.5t-307.5 132.5q-204 0 -309 -134.5t-105 -361.5q0 -231 107 -365.5t307 -134.5
zM526 -389v131h123v-131h-123z" />
    <glyph glyph-name="uni1ECE" unicode="&#x1ece;" horiz-adv-x="1445" 
d="M609 1905q55 66 132 66q19 0 50 -7q31 -8 64 -51q32 -41 32 -91q0 -12 -1 -30q-1 -27 -32 -74q-30 -46 -81 -73l-53 49q39 21 64 50.5t27 49.5q1 11 1 22q0 25 -14 48q-20 34 -59 34q-5 0 -28 -3q-25 -3 -63 -41zM723 -31q-162 0 -288.5 56.5t-208 158.5t-123.5 242.5
t-42 310.5t42 310.5t123.5 242.5t208 158.5t288.5 56.5t288.5 -56.5t207.5 -159t123 -242t42 -310.5t-42 -310.5t-123 -242t-207.5 -159t-288.5 -56.5zM723 55q139 0 248 50t179 141.5t106 215.5t36 275t-36 275t-106 215.5t-179 141.5t-248 50t-247.5 -50t-178 -141.5
t-105.5 -215.5t-38 -275q-2 -202 60.5 -354t193 -240t315.5 -88z" />
    <glyph glyph-name="uni1ECF" unicode="&#x1ecf;" horiz-adv-x="1175" 
d="M456 1536q56 67 132 67q14 0 49 -8q31 -8 64 -51q32 -41 32 -91q0 -12 -1 -30q-1 -26 -32 -73q-31 -48 -80 -74l-54 49q39 21 64 50.5t27 49.5q1 11 1 22q0 25 -14 48q-20 35 -58 35q-6 0 -29 -3q-24 -3 -62 -41zM588 -31q-161 0 -276 75t-172.5 206.5t-57.5 304.5
q0 265 134 423.5t372 158.5q242 0 374 -159.5t132 -422.5q0 -268 -133 -427t-373 -159zM588 55q203 0 308 135t105 365q0 231 -105.5 363.5t-307.5 132.5q-204 0 -309 -134.5t-105 -361.5q0 -231 107 -365.5t307 -134.5z" />
    <glyph glyph-name="uni1ED0" unicode="&#x1ed0;" horiz-adv-x="1445" 
d="M1048 1874h-91l99 276h90zM480 1659l205 246h94l205 -246h-102l-150 174l-149 -174h-103zM723 -31q-162 0 -288.5 56.5t-208 158.5t-123.5 242.5t-42 310.5t42 310.5t123.5 242.5t208 158.5t288.5 56.5t288.5 -56.5t207.5 -159t123 -242t42 -310.5t-42 -310.5t-123 -242
t-207.5 -159t-288.5 -56.5zM723 55q139 0 248 50t179 141.5t106 215.5t36 275t-36 275t-106 215.5t-179 141.5t-248 50t-247.5 -50t-178 -141.5t-105.5 -215.5t-38 -275q-2 -202 60.5 -354t193 -240t315.5 -88z" />
    <glyph glyph-name="uni1ED1" unicode="&#x1ed1;" horiz-adv-x="1175" 
d="M913 1505h-90l99 277h90zM346 1290l205 246h94l205 -246h-102l-150 174l-149 -174h-103zM588 -31q-161 0 -276 75t-172.5 206.5t-57.5 304.5q0 265 134 423.5t372 158.5q242 0 374 -159.5t132 -422.5q0 -268 -133 -427t-373 -159zM588 55q203 0 308 135t105 365
q0 231 -105.5 363.5t-307.5 132.5q-204 0 -309 -134.5t-105 -361.5q0 -231 107 -365.5t307 -134.5z" />
    <glyph glyph-name="uni1ED2" unicode="&#x1ed2;" horiz-adv-x="1445" 
d="M935 1874l-98 276h90l98 -276h-90zM472 1659l205 246h94l205 -246h-103l-149 174l-150 -174h-102zM723 -31q-162 0 -288.5 56.5t-208 158.5t-123.5 242.5t-42 310.5t42 310.5t123.5 242.5t208 158.5t288.5 56.5t288.5 -56.5t207.5 -159t123 -242t42 -310.5t-42 -310.5
t-123 -242t-207.5 -159t-288.5 -56.5zM723 55q139 0 248 50t179 141.5t106 215.5t36 275t-36 275t-106 215.5t-179 141.5t-248 50t-247.5 -50t-178 -141.5t-105.5 -215.5t-38 -275q-2 -202 60.5 -354t193 -240t315.5 -88z" />
    <glyph glyph-name="uni1ED3" unicode="&#x1ed3;" horiz-adv-x="1175" 
d="M824 1505l-98 277h90l98 -277h-90zM361 1290l205 246h94l205 -246h-102l-150 174l-149 -174h-103zM588 -31q-161 0 -276 75t-172.5 206.5t-57.5 304.5q0 265 134 423.5t372 158.5q242 0 374 -159.5t132 -422.5q0 -268 -133 -427t-373 -159zM588 55q203 0 308 135t105 365
q0 231 -105.5 363.5t-307.5 132.5q-204 0 -309 -134.5t-105 -361.5q0 -231 107 -365.5t307 -134.5z" />
    <glyph glyph-name="uni1ED4" unicode="&#x1ed4;" horiz-adv-x="1445" 
d="M992 1905q55 66 132 66q19 0 50 -7q31 -8 64 -51q32 -41 32 -91q0 -12 -1 -30q-1 -27 -32 -74q-30 -46 -81 -73l-53 49q39 21 64 50.5t27 49.5q1 11 1 22q0 25 -14 48q-20 34 -59 34q-6 0 -28 -3q-25 -3 -63 -41zM509 1659l205 246h94l205 -246h-103l-149 174l-150 -174
h-102zM723 -31q-162 0 -288.5 56.5t-208 158.5t-123.5 242.5t-42 310.5t42 310.5t123.5 242.5t208 158.5t288.5 56.5t288.5 -56.5t207.5 -159t123 -242t42 -310.5t-42 -310.5t-123 -242t-207.5 -159t-288.5 -56.5zM723 55q139 0 248 50t179 141.5t106 215.5t36 275t-36 275
t-106 215.5t-179 141.5t-248 50t-247.5 -50t-178 -141.5t-105.5 -215.5t-38 -275q-2 -202 60.5 -354t193 -240t315.5 -88z" />
    <glyph glyph-name="uni1ED5" unicode="&#x1ed5;" horiz-adv-x="1175" 
d="M818 1536q56 67 132 67q14 0 49 -8q32 -8 65 -51q32 -41 32 -91q0 -12 -1 -30q-1 -26 -32 -73q-30 -47 -81 -74l-53 49q39 21 64 50.5t27 49.5q1 11 1 22q0 25 -14 48q-20 35 -59 35q-6 0 -28 -3q-25 -3 -63 -41zM335 1290l205 246h94l205 -246h-103l-149 174l-150 -174
h-102zM588 -31q-161 0 -276 75t-172.5 206.5t-57.5 304.5q0 265 134 423.5t372 158.5q242 0 374 -159.5t132 -422.5q0 -268 -133 -427t-373 -159zM588 55q203 0 308 135t105 365q0 231 -105.5 363.5t-307.5 132.5q-204 0 -309 -134.5t-105 -361.5q0 -231 107 -365.5
t307 -134.5z" />
    <glyph glyph-name="uni1ED6" unicode="&#x1ed6;" horiz-adv-x="1445" 
d="M865 1956q-63 0 -163 54q-85 44 -125 44q-26 0 -42.5 -13t-17.5 -27q-1 -8 -1 -17q0 -14 5 -31h-74q-6 21 -6 42q0 68 57 106q35 22 81 22q37 0 72.5 -12.5t92.5 -41.5q88 -44 125 -44q33 0 47 18.5t14 42.5q0 13 -5 31h73q7 -25 7 -41q0 -69 -57 -109q-36 -24 -83 -24z
M466 1659l205 246h94l205 -246h-103l-149 174l-150 -174h-102zM723 -31q-162 0 -288.5 56.5t-208 158.5t-123.5 242.5t-42 310.5t42 310.5t123.5 242.5t208 158.5t288.5 56.5t288.5 -56.5t207.5 -159t123 -242t42 -310.5t-42 -310.5t-123 -242t-207.5 -159t-288.5 -56.5z
M723 55q139 0 248 50t179 141.5t106 215.5t36 275t-36 275t-106 215.5t-179 141.5t-248 50t-247.5 -50t-178 -141.5t-105.5 -215.5t-38 -275q-2 -202 60.5 -354t193 -240t315.5 -88z" />
    <glyph glyph-name="uni1ED7" unicode="&#x1ed7;" horiz-adv-x="1175" 
d="M737 1587q-63 0 -163 54q-52 26 -76.5 35.5t-48.5 9.5q-26 0 -42.5 -13t-17.5 -27q-1 -8 -1 -18q0 -14 5 -31h-74q-6 21 -6 42q0 68 57 106q35 22 81 22q37 0 72.5 -12.5t92.5 -41.5q88 -44 125 -44q33 0 47 19t14 43q0 12 -5 30h73q7 -25 7 -41q0 -68 -57 -108
q-38 -25 -83 -25zM338 1290l205 246h94l205 -246h-103l-149 174l-150 -174h-102zM588 -31q-161 0 -276 75t-172.5 206.5t-57.5 304.5q0 265 134 423.5t372 158.5q242 0 374 -159.5t132 -422.5q0 -268 -133 -427t-373 -159zM588 55q203 0 308 135t105 365q0 231 -105.5 363.5
t-307.5 132.5q-204 0 -309 -134.5t-105 -361.5q0 -231 107 -365.5t307 -134.5z" />
    <glyph glyph-name="uni1ED8" unicode="&#x1ed8;" horiz-adv-x="1445" 
d="M471 1659l205 246h94l205 -246h-103l-149 174l-150 -174h-102zM723 -31q-162 0 -288.5 56.5t-208 158.5t-123.5 242.5t-42 310.5t42 310.5t123.5 242.5t208 158.5t288.5 56.5t288.5 -56.5t207.5 -159t123 -242t42 -310.5t-42 -310.5t-123 -242t-207.5 -159t-288.5 -56.5z
M723 55q139 0 248 50t179 141.5t106 215.5t36 275t-36 275t-106 215.5t-179 141.5t-248 50t-247.5 -50t-178 -141.5t-105.5 -215.5t-38 -275q-2 -202 60.5 -354t193 -240t315.5 -88zM662 -389v131h122v-131h-122z" />
    <glyph glyph-name="uni1ED9" unicode="&#x1ed9;" horiz-adv-x="1175" 
d="M336 1290l205 246h94l205 -246h-103l-149 174l-150 -174h-102zM588 -31q-161 0 -276 75t-172.5 206.5t-57.5 304.5q0 265 134 423.5t372 158.5q242 0 374 -159.5t132 -422.5q0 -268 -133 -427t-373 -159zM588 55q203 0 308 135t105 365q0 231 -105.5 363.5t-307.5 132.5
q-204 0 -309 -134.5t-105 -361.5q0 -231 107 -365.5t307 -134.5zM526 -389v131h123v-131h-123z" />
    <glyph glyph-name="uni1EDA" unicode="&#x1eda;" horiz-adv-x="1445" 
d="M791 1659h-91l99 276h90zM1230 1665q6 -37 6 -71q0 -32 -9 -75t-60 -82q-32 -23 -69 -34h-2q143 -95 215.5 -267t72.5 -399q0 -171 -42 -310.5t-123 -242t-207.5 -159t-288.5 -56.5t-288.5 56.5t-208 158.5t-123.5 242.5t-42 310.5t42 310.5t123.5 242.5t208 158.5
t288.5 56.5q99 0 190 -22q1 0 2 -1q7 -1 21 -5q40 -10 62 -10h6q34 0 68 17q75 38 75 134q0 12 -2 38l-1 9h86zM723 55q139 0 248 50t179 141.5t106 215.5t36 275t-36 275t-106 215.5t-179 141.5t-248 50t-247.5 -50t-178 -141.5t-105.5 -215.5t-38 -275q-2 -202 60.5 -354
t193 -240t315.5 -88z" />
    <glyph glyph-name="uni1EDB" unicode="&#x1edb;" horiz-adv-x="1228" 
d="M630 1290h-90l98 277h90zM1086 1290q7 -44 7 -70q0 -28 -10 -76q-9 -44 -59 -82q-31 -23 -70 -34q-21 -6 -34 -7q86 -76 130 -195.5t44 -270.5q0 -268 -133 -427t-373 -159q-161 0 -276 75t-172.5 206.5t-57.5 304.5q0 265 134 423.5t372 158.5q95 0 182 -29
q51 -16 88 -16t71 17q75 38 75 134q0 5 -0.5 11.5t-1.5 14.5t-1 12l-1 9h86zM588 55q203 0 308 135t105 365q0 231 -105.5 363.5t-307.5 132.5q-204 0 -309 -134.5t-105 -361.5q0 -231 107 -365.5t307 -134.5z" />
    <glyph glyph-name="uni1EDC" unicode="&#x1edc;" horiz-adv-x="1445" 
d="M686 1659l-98 276h90l98 -276h-90zM1230 1665q6 -37 6 -71q0 -32 -9 -75t-60 -82q-32 -23 -69 -34h-2q143 -95 215.5 -267t72.5 -399q0 -171 -42 -310.5t-123 -242t-207.5 -159t-288.5 -56.5t-288.5 56.5t-208 158.5t-123.5 242.5t-42 310.5t42 310.5t123.5 242.5
t208 158.5t288.5 56.5q99 0 190 -22q1 0 2 -1q7 -1 21 -5q40 -10 62 -10h6q34 0 68 17q75 38 75 134q0 12 -2 38l-1 9h86zM723 55q139 0 248 50t179 141.5t106 215.5t36 275t-36 275t-106 215.5t-179 141.5t-248 50t-247.5 -50t-178 -141.5t-105.5 -215.5t-38 -275
q-2 -202 60.5 -354t193 -240t315.5 -88z" />
    <glyph glyph-name="uni1EDD" unicode="&#x1edd;" horiz-adv-x="1228" 
d="M536 1290l-99 277h90l99 -277h-90zM1086 1290q7 -44 7 -70q0 -28 -10 -76q-9 -44 -59 -82q-31 -23 -70 -34q-21 -6 -34 -7q86 -76 130 -195.5t44 -270.5q0 -268 -133 -427t-373 -159q-161 0 -276 75t-172.5 206.5t-57.5 304.5q0 265 134 423.5t372 158.5q95 0 182 -29
q51 -16 88 -16t71 17q75 38 75 134q0 5 -0.5 11.5t-1.5 14.5t-1 12l-1 9h86zM588 55q203 0 308 135t105 365q0 231 -105.5 363.5t-307.5 132.5q-204 0 -309 -134.5t-105 -361.5q0 -231 107 -365.5t307 -134.5z" />
    <glyph glyph-name="uni1EDE" unicode="&#x1ede;" horiz-adv-x="1445" 
d="M609 1905q55 66 132 66q19 0 50 -7q31 -8 64 -51q32 -41 32 -91q0 -12 -1 -30q-1 -27 -32 -74q-30 -46 -81 -73l-53 49q39 21 64 50.5t27 49.5q1 11 1 22q0 25 -14 48q-20 34 -59 34q-5 0 -28 -3q-25 -3 -63 -41zM1230 1665q6 -37 6 -71q0 -32 -9 -75t-60 -82
q-32 -23 -69 -34h-2q143 -95 215.5 -267t72.5 -399q0 -171 -42 -310.5t-123 -242t-207.5 -159t-288.5 -56.5t-288.5 56.5t-208 158.5t-123.5 242.5t-42 310.5t42 310.5t123.5 242.5t208 158.5t288.5 56.5q99 0 190 -22q1 0 2 -1q7 -1 21 -5q40 -10 62 -10h6q34 0 68 17
q75 38 75 134q0 12 -2 38l-1 9h86zM723 55q139 0 248 50t179 141.5t106 215.5t36 275t-36 275t-106 215.5t-179 141.5t-248 50t-247.5 -50t-178 -141.5t-105.5 -215.5t-38 -275q-2 -202 60.5 -354t193 -240t315.5 -88z" />
    <glyph glyph-name="uni1EDF" unicode="&#x1edf;" horiz-adv-x="1175" 
d="M456 1536q56 67 132 67q14 0 49 -8q31 -8 64 -51q32 -41 32 -91q0 -12 -1 -30q-1 -26 -32 -73q-31 -48 -80 -74l-54 49q39 21 64 50.5t27 49.5q1 11 1 22q0 25 -14 48q-20 35 -58 35q-6 0 -29 -3q-24 -3 -62 -41zM1086 1290q7 -44 7 -70q0 -28 -10 -76q-9 -44 -59 -82
q-31 -23 -70 -34q-21 -6 -34 -7q86 -76 130 -195.5t44 -270.5q0 -268 -133 -427t-373 -159q-161 0 -276 75t-172.5 206.5t-57.5 304.5q0 265 134 423.5t372 158.5q95 0 182 -29q51 -16 88 -16t71 17q75 38 75 134q0 5 -0.5 11.5t-1.5 14.5t-1 12l-1 9h86zM588 55
q203 0 308 135t105 365q0 231 -105.5 363.5t-307.5 132.5q-204 0 -309 -134.5t-105 -361.5q0 -231 107 -365.5t307 -134.5z" />
    <glyph glyph-name="uni1EE0" unicode="&#x1ee0;" horiz-adv-x="1445" 
d="M865 1659q-63 0 -163 54q-88 44 -125 44q-26 0 -42.5 -13t-17.5 -27q-1 -8 -1 -17q0 -14 5 -31h-74q-6 21 -6 42q0 68 57 106q35 22 81 22q37 0 72.5 -12.5t92.5 -41.5q88 -44 125 -44q33 0 47 18.5t14 42.5q0 13 -5 31h73q7 -24 7 -41q0 -69 -57 -109q-36 -24 -83 -24z
M1230 1665q6 -37 6 -71q0 -32 -9 -75t-60 -82q-32 -23 -69 -34h-2q143 -95 215.5 -267t72.5 -399q0 -171 -42 -310.5t-123 -242t-207.5 -159t-288.5 -56.5t-288.5 56.5t-208 158.5t-123.5 242.5t-42 310.5t42 310.5t123.5 242.5t208 158.5t288.5 56.5q99 0 190 -22q1 0 2 -1
q7 -1 21 -5q40 -10 62 -10h6q34 0 68 17q75 38 75 134q0 12 -2 38l-1 9h86zM723 55q139 0 248 50t179 141.5t106 215.5t36 275t-36 275t-106 215.5t-179 141.5t-248 50t-247.5 -50t-178 -141.5t-105.5 -215.5t-38 -275q-2 -202 60.5 -354t193 -240t315.5 -88z" />
    <glyph glyph-name="uni1EE1" unicode="&#x1ee1;" horiz-adv-x="1175" 
d="M729 1290q-61 0 -163 55q-85 44 -126 44q-26 0 -42 -13t-17 -27q-1 -8 -1 -18q0 -14 5 -31h-74q-6 21 -6 42q0 68 56 106q35 22 81 22q61 0 166 -54q88 -44 125 -44q33 0 47 19t14 43q0 8 -6 30h74q6 -21 6 -41q0 -69 -56 -108q-38 -25 -83 -25zM1086 1290q7 -44 7 -70
q0 -28 -10 -76q-9 -44 -59 -82q-31 -23 -70 -34q-21 -6 -34 -7q86 -76 130 -195.5t44 -270.5q0 -268 -133 -427t-373 -159q-161 0 -276 75t-172.5 206.5t-57.5 304.5q0 265 134 423.5t372 158.5q95 0 182 -29q51 -16 88 -16t71 17q75 38 75 134q0 5 -0.5 11.5t-1.5 14.5
t-1 12l-1 9h86zM588 55q203 0 308 135t105 365q0 231 -105.5 363.5t-307.5 132.5q-204 0 -309 -134.5t-105 -361.5q0 -231 107 -365.5t307 -134.5z" />
    <glyph glyph-name="uni1EE2" unicode="&#x1ee2;" horiz-adv-x="1445" 
d="M1230 1665q6 -37 6 -71q0 -32 -9 -75t-60 -82q-32 -23 -69 -34h-2q143 -95 215.5 -267t72.5 -399q0 -171 -42 -310.5t-123 -242t-207.5 -159t-288.5 -56.5t-288.5 56.5t-208 158.5t-123.5 242.5t-42 310.5t42 310.5t123.5 242.5t208 158.5t288.5 56.5q99 0 190 -22
q1 0 2 -1q7 -1 21 -5q40 -10 62 -10h6q34 0 68 17q75 38 75 134q0 12 -2 38l-1 9h86zM723 55q139 0 248 50t179 141.5t106 215.5t36 275t-36 275t-106 215.5t-179 141.5t-248 50t-247.5 -50t-178 -141.5t-105.5 -215.5t-38 -275q-2 -202 60.5 -354t193 -240t315.5 -88z
M662 -389v131h122v-131h-122z" />
    <glyph glyph-name="uni1EE3" unicode="&#x1ee3;" horiz-adv-x="1175" 
d="M1086 1290q7 -44 7 -70q0 -28 -10 -76q-9 -44 -59 -82q-31 -23 -70 -34q-21 -6 -34 -7q86 -76 130 -195.5t44 -270.5q0 -268 -133 -427t-373 -159q-161 0 -276 75t-172.5 206.5t-57.5 304.5q0 265 134 423.5t372 158.5q95 0 182 -29q51 -16 88 -16t71 17q75 38 75 134
q0 5 -0.5 11.5t-1.5 14.5t-1 12l-1 9h86zM588 55q203 0 308 135t105 365q0 231 -105.5 363.5t-307.5 132.5q-204 0 -309 -134.5t-105 -361.5q0 -231 107 -365.5t307 -134.5zM525 -389v131h123v-131h-123z" />
    <glyph glyph-name="uni1EE4" unicode="&#x1ee4;" horiz-adv-x="1413" 
d="M707 -31q-260 0 -412 160t-152 434v912h86v-914q0 -238 127.5 -374t350.5 -136t350 136t127 374v914h86v-912q0 -275 -151.5 -434.5t-411.5 -159.5zM645 -389v131h123v-131h-123z" />
    <glyph glyph-name="uni1EE5" unicode="&#x1ee5;" 
d="M209 1106v-606q0 -445 362 -445q80 0 145 23.5t117.5 74t81.5 138.5t29 209v606h86v-1106h-86v167q-115 -198 -373 -198q-209 0 -328.5 132.5t-119.5 398.5v606h86zM638 -389h-123v131h123v-131z" />
    <glyph glyph-name="uni1EE6" unicode="&#x1ee6;" horiz-adv-x="1413" 
d="M575 1905q55 66 133 66q18 0 49 -7q31 -8 64 -51q32 -41 32 -91q0 -12 -1 -30q-1 -27 -32 -74q-30 -46 -81 -73l-53 49q39 21 64 50.5t27 49.5q1 11 1 22q0 25 -14 48q-20 34 -58 34q-6 0 -29 -3q-25 -3 -63 -41zM707 -31q-260 0 -412 160t-152 434v912h86v-914
q0 -238 127.5 -374t350.5 -136t350 136t127 374v914h86v-912q0 -275 -151.5 -434.5t-411.5 -159.5z" />
    <glyph glyph-name="uni1EE7" unicode="&#x1ee7;" 
d="M495 1486l-39 50q56 67 132 67q14 0 49 -8q31 -8 64 -51q32 -41 32 -91q0 -12 -1 -30q-1 -26 -32 -73q-31 -48 -80 -74l-54 49q39 21 64 50.5t27 49.5q1 11 1 22q0 25 -14 48q-20 35 -58 35q-6 0 -29 -3q-24 -3 -62 -41zM209 1106v-606q0 -445 362 -445q80 0 145 23.5
t117.5 74t81.5 138.5t29 209v606h86v-1106h-86v167q-115 -198 -373 -198q-209 0 -328.5 132.5t-119.5 398.5v606h86z" />
    <glyph glyph-name="uni1EE8" unicode="&#x1ee8;" horiz-adv-x="1413" 
d="M728 1659h-90l98 276h90zM1439 1659q6 -39 6 -73q0 -30 -8 -76q-8 -41 -60 -80q-37 -28 -82 -32q-16 -2 -25 -2v-833q0 -275 -151.5 -434.5t-411.5 -159.5t-412 160t-152 434v912h86v-914q0 -238 127.5 -374t350.5 -136t350 136t127 374v914h21q56 2 77 7q36 8 55 33
t20 50q1 13 1 27q0 24 -5 67h86z" />
    <glyph glyph-name="uni1EE9" unicode="&#x1ee9;" 
d="M717 1567l-99 -277h-90l99 277h90zM1113 1290h86q6 -39 6 -72q0 -30 -8 -76q-9 -43 -59 -81q-37 -28 -82 -32q-16 -2 -26 -2v-1027h-86v167q-115 -198 -373 -198q-209 0 -328.5 132.5t-119.5 398.5v606h86v-606q0 -445 362 -445q80 0 145 23.5t117.5 74t81.5 138.5
t29 209v606h22q55 2 76 7q36 8 55 33t20 50q1 13 1 28q0 23 -5 66z" />
    <glyph glyph-name="uni1EEA" unicode="&#x1eea;" horiz-adv-x="1413" 
d="M685 1659l-98 276h90l98 -276h-90zM1439 1659q6 -39 6 -73q0 -30 -8 -76q-8 -41 -60 -80q-37 -28 -82 -32q-16 -2 -25 -2v-833q0 -275 -151.5 -434.5t-411.5 -159.5t-412 160t-152 434v912h86v-914q0 -238 127.5 -374t350.5 -136t350 136t127 374v914h21q56 2 77 7
q36 8 55 33t20 50q1 13 1 27q0 24 -5 67h86z" />
    <glyph glyph-name="uni1EEB" unicode="&#x1eeb;" 
d="M650 1290h-90l-98 277h90zM1113 1290h86q6 -39 6 -72q0 -30 -8 -76q-9 -43 -59 -81q-37 -28 -82 -32q-16 -2 -26 -2v-1027h-86v167q-115 -198 -373 -198q-209 0 -328.5 132.5t-119.5 398.5v606h86v-606q0 -445 362 -445q80 0 145 23.5t117.5 74t81.5 138.5t29 209v606h22
q55 2 76 7q36 8 55 33t20 50q1 13 1 28q0 23 -5 66z" />
    <glyph glyph-name="uni1EEC" unicode="&#x1eec;" horiz-adv-x="1413" 
d="M575 1905q55 66 133 66q18 0 49 -7q31 -8 64 -51q32 -41 32 -91q0 -12 -1 -30q-1 -27 -32 -74q-30 -46 -81 -73l-53 49q39 21 64 50.5t27 49.5q1 11 1 22q0 25 -14 48q-20 34 -58 34q-6 0 -29 -3q-25 -3 -63 -41zM1439 1659q6 -39 6 -73q0 -30 -8 -76q-8 -41 -60 -80
q-37 -28 -82 -32q-16 -2 -25 -2v-833q0 -275 -151.5 -434.5t-411.5 -159.5t-412 160t-152 434v912h86v-914q0 -238 127.5 -374t350.5 -136t350 136t127 374v914h21q56 2 77 7q36 8 55 33t20 50q1 13 1 27q0 24 -5 67h86z" />
    <glyph glyph-name="uni1EED" unicode="&#x1eed;" 
d="M495 1486l-39 50q56 67 132 67q14 0 49 -8q31 -8 64 -51q32 -41 32 -91q0 -12 -1 -30q-1 -26 -32 -73q-31 -48 -80 -74l-54 49q39 21 64 50.5t27 49.5q1 11 1 22q0 25 -14 48q-20 35 -58 35q-6 0 -29 -3q-24 -3 -62 -41zM1113 1290h86q6 -39 6 -72q0 -30 -8 -76
q-9 -43 -59 -81q-37 -28 -82 -32q-16 -2 -26 -2v-1027h-86v167q-115 -198 -373 -198q-209 0 -328.5 132.5t-119.5 398.5v606h86v-606q0 -445 362 -445q80 0 145 23.5t117.5 74t81.5 138.5t29 209v606h22q55 2 76 7q36 8 55 33t20 50q1 13 1 28q0 23 -5 66z" />
    <glyph glyph-name="uni1EEE" unicode="&#x1eee;" horiz-adv-x="1413" 
d="M849 1659q-63 0 -163 54q-85 44 -126 44q-26 0 -42 -13t-17 -27q-1 -8 -1 -17q0 -14 5 -31h-74q-6 21 -6 42q0 68 56 106q35 22 81 22q61 0 166 -54q88 -44 125 -44q33 0 46.5 18.5t13.5 42.5q0 13 -5 31h74q6 -21 6 -41q0 -70 -56 -109q-36 -24 -83 -24zM1439 1659
q6 -39 6 -73q0 -30 -8 -76q-8 -41 -60 -80q-37 -28 -82 -32q-16 -2 -25 -2v-833q0 -275 -151.5 -434.5t-411.5 -159.5t-412 160t-152 434v912h86v-914q0 -238 127.5 -374t350.5 -136t350 136t127 374v914h21q56 2 77 7q36 8 55 33t20 50q1 13 1 27q0 24 -5 67h86z" />
    <glyph glyph-name="uni1EEF" unicode="&#x1eef;" 
d="M729 1290q-61 0 -163 55q-85 44 -126 44q-26 0 -42 -13t-17 -27q-1 -8 -1 -18q0 -14 5 -31h-74q-6 21 -6 42q0 68 56 106q35 22 81 22q61 0 166 -54q88 -44 125 -44q33 0 47 19t14 43q0 8 -6 30h74q6 -21 6 -41q0 -69 -56 -108q-38 -25 -83 -25zM1113 1290h86
q6 -39 6 -72q0 -30 -8 -76q-9 -43 -59 -81q-37 -28 -82 -32q-16 -2 -26 -2v-1027h-86v167q-115 -198 -373 -198q-209 0 -328.5 132.5t-119.5 398.5v606h86v-606q0 -445 362 -445q80 0 145 23.5t117.5 74t81.5 138.5t29 209v606h22q55 2 76 7q36 8 55 33t20 50q1 13 1 28
q0 23 -5 66z" />
    <glyph glyph-name="uni1EF0" unicode="&#x1ef0;" horiz-adv-x="1413" 
d="M1439 1659q6 -39 6 -73q0 -30 -8 -76q-8 -41 -60 -80q-37 -28 -82 -32q-16 -2 -25 -2v-833q0 -275 -151.5 -434.5t-411.5 -159.5t-412 160t-152 434v912h86v-914q0 -238 127.5 -374t350.5 -136t350 136t127 374v914h21q56 2 77 7q36 8 55 33t20 50q1 13 1 27q0 24 -5 67
h86zM662 -389v131h122v-131h-122z" />
    <glyph glyph-name="uni1EF1" unicode="&#x1ef1;" 
d="M1115 1290h86q6 -39 6 -72q0 -30 -8 -76q-9 -43 -59 -81q-37 -28 -82 -32q-18 -2 -28 -2v-1027h-86v167q-115 -198 -373 -198q-209 0 -328.5 132.5t-119.5 398.5v606h86v-606q0 -445 362 -445q80 0 145 23.5t117.5 74t81.5 138.5t29 209v606h24q55 2 76 7q36 8 55 33
t20 50q1 13 1 28q0 23 -5 66zM648 -389h-123v131h123v-131z" />
    <glyph glyph-name="Ygrave" unicode="&#x1ef2;" horiz-adv-x="1062" 
d="M585 1659h-90l-99 276h90zM575 0h-86v627l-489 848h98l434 -750l433 750h98l-488 -848v-627z" />
    <glyph glyph-name="ygrave" unicode="&#x1ef3;" horiz-adv-x="1036" 
d="M582 1290h-90l-99 277h90zM406 -492h-97l183 491l-451 1107h94l400 -988l358 988h92z" />
    <glyph glyph-name="uni1EF4" unicode="&#x1ef4;" horiz-adv-x="1062" 
d="M575 0h-86v627l-489 848h98l434 -750l433 750h98l-488 -848v-627zM593 -389h-123v131h123v-131z" />
    <glyph glyph-name="uni1EF5" unicode="&#x1ef5;" horiz-adv-x="1036" 
d="M406 -492h-97l183 491l-451 1107h94l400 -988l358 988h92zM811 -389h-123v123h123v-123z" />
    <glyph glyph-name="uni1EF6" unicode="&#x1ef6;" horiz-adv-x="1062" 
d="M432 1854l-39 51q55 66 132 66q18 0 49 -7q32 -8 65 -51q32 -41 32 -91q0 -12 -1 -30q-1 -27 -32 -74q-30 -46 -81 -73l-53 49q39 21 64 50.5t27 49.5q1 11 1 22q0 25 -14 48q-20 34 -59 34q-5 0 -28 -3q-25 -3 -63 -41zM575 0h-86v627l-489 848h98l434 -750l433 750h98
l-488 -848v-627z" />
    <glyph glyph-name="uni1EF7" unicode="&#x1ef7;" horiz-adv-x="1036" 
d="M433 1486l-39 50q56 67 132 67q14 0 49 -8q32 -8 65 -51q32 -41 32 -91q0 -12 -1 -30q-1 -26 -32 -73q-30 -47 -81 -74l-53 49q39 21 64 50.5t27 49.5q1 11 1 22q0 25 -14 48q-20 35 -59 35q-6 0 -28 -3q-25 -3 -63 -41zM406 -492h-97l183 491l-451 1107h94l400 -988
l358 988h92z" />
    <glyph glyph-name="uni1EF8" unicode="&#x1ef8;" horiz-adv-x="1062" 
d="M690 1659q-62 0 -163 54q-88 44 -126 44q-25 0 -41.5 -13t-17.5 -27q-1 -8 -1 -17q0 -14 5 -31h-74q-6 21 -6 42q0 68 57 106q35 22 80 22q61 0 166 -54q88 -44 125 -44q33 0 47 18.5t14 42.5q0 13 -5 31h73q6 -21 6 -41q0 -70 -56 -109q-36 -24 -83 -24zM575 0h-86v627
l-489 848h98l434 -750l433 750h98l-488 -848v-627z" />
    <glyph glyph-name="uni1EF9" unicode="&#x1ef9;" horiz-adv-x="1036" 
d="M675 1290q-61 0 -163 55q-85 44 -126 44q-26 0 -42 -13t-17 -27q-1 -8 -1 -18q0 -14 5 -31h-74q-6 21 -6 42q0 68 56 106q35 22 81 22q61 0 166 -54q88 -44 125 -44q33 0 46.5 19t13.5 43q0 12 -5 30h74q6 -21 6 -41q0 -69 -56 -108q-38 -25 -83 -25zM406 -492h-97
l183 491l-451 1107h94l400 -988l358 988h92z" />
    <glyph glyph-name="uni2011" unicode="&#x2011;" horiz-adv-x="860" 
d="M737 602h-614v86h614v-86z" />
    <glyph glyph-name="endash" unicode="&#x2013;" horiz-adv-x="1105" 
d="M983 602h-860v86h860v-86z" />
    <glyph glyph-name="emdash" unicode="&#x2014;" horiz-adv-x="1597" 
d="M1475 602h-1352v86h1352v-86z" />
    <glyph glyph-name="quoteleft" unicode="&#x2018;" horiz-adv-x="368" 
d="M240 1161l6 -53q-13 -3 -26 -3q-52 0 -80 50q-17 29 -17 74v246h123v-185h-68v-22v-18q0 -29 2.5 -45.5t15 -30t36.5 -13.5h8z" />
    <glyph glyph-name="quoteright" unicode="&#x2019;" horiz-adv-x="368" 
d="M123 1108l6 53h7q24 0 36.5 13.5t15 30t2.5 45.5v18v22h-67v185h123v-246q0 -42 -16.5 -73.5t-40.5 -40.5q-21 -10 -41 -10q-12 0 -25 3z" />
    <glyph glyph-name="quotesinglbase" unicode="&#x201a;" horiz-adv-x="491" 
d="M123 -182l6 53h7q18 0 29.5 6.5t16.5 20.5t6.5 27t1.5 34v18v23h-67v184h123v-245q0 -42 -16.5 -73.5t-40.5 -41.5q-22 -9 -41 -9q-12 0 -25 3z" />
    <glyph glyph-name="quotedblleft" unicode="&#x201c;" horiz-adv-x="655" 
d="M492 1491l-7 -53h-7q-18 0 -29.5 -6.5t-16.5 -20.5t-6.5 -27t-1.5 -34v-19v-22h68v-185h-123v246q0 42 16 73.5t40 41.5q23 9 41 9q12 0 26 -3zM287 1491l-6 -53h-8q-18 0 -29.5 -6.5t-16.5 -20.5t-6.5 -27t-1.5 -34v-19v-22h68v-185h-123v246q0 42 16 73.5t40 41.5
q22 9 41 9q13 0 26 -3z" />
    <glyph glyph-name="quotedblright" unicode="&#x201d;" horiz-adv-x="655" 
d="M164 1128l6 54h7q24 0 36.5 13.5t15 30t2.5 45.5v17v23h-67v184h123v-246q0 -42 -16.5 -73t-40.5 -40q-24 -11 -41 -11q-11 0 -25 3zM369 1128l6 54h7q24 0 36.5 13.5t15 30t2.5 45.5v17v23h-67v184h123v-246q0 -42 -16.5 -73t-40.5 -40q-24 -11 -41 -11q-12 0 -25 3z
" />
    <glyph glyph-name="quotedblbase" unicode="&#x201e;" horiz-adv-x="655" 
d="M164 -182l6 53h7q18 0 29.5 6.5t16.5 20.5t6.5 27t1.5 34v18v23h-67v184h123v-245q0 -42 -16.5 -73.5t-40.5 -41.5q-22 -9 -41 -9q-11 0 -25 3zM369 -182l6 53h7q18 0 29.5 6.5t16.5 20.5t6.5 27t1.5 34v18v23h-67v184h123v-245q0 -42 -16.5 -73.5t-40.5 -41.5
q-23 -9 -41 -9q-12 0 -25 3z" />
    <glyph glyph-name="uni201F" unicode="&#x201f;" horiz-adv-x="655" 
d="M485 1182l7 -54q-13 -3 -26 -3q-51 0 -80 51q-17 29 -17 73v246h123v-184h-68v-23v-17q0 -29 2.5 -45.5t15 -30t36.5 -13.5h7zM281 1182l6 -54q-13 -3 -26 -3q-51 0 -80 51q-17 29 -17 73v246h123v-184h-68v-23v-17q0 -29 2.5 -45.5t15 -30t36.5 -13.5h8z" />
    <glyph glyph-name="dagger" unicode="&#x2020;" horiz-adv-x="1105" 
d="M596 0h-86v1020h-387v86h387v369h86v-369h387v-86h-387v-1020z" />
    <glyph glyph-name="daggerdbl" unicode="&#x2021;" horiz-adv-x="765" 
d="M426 0h-86v504h-217v86h217v330h-217v86h217v469h86v-469h217v-86h-217v-330h217v-86h-217v-504z" />
    <glyph glyph-name="bullet" unicode="&#x2022;" horiz-adv-x="1269" 
d="M639 440q-88 0 -148.5 59t-60.5 146t60.5 146t148.5 59q83 0 142 -59.5t59 -145.5t-59 -145.5t-142 -59.5z" />
    <glyph glyph-name="ellipsis" unicode="&#x2026;" horiz-adv-x="1187" 
d="M287 0h-123v123h123v-123zM655 0h-123v123h123v-123zM1024 0h-123v123h123v-123z" />
    <glyph glyph-name="perthousand" unicode="&#x2030;" horiz-adv-x="2707" 
d="M492 768q-100 0 -184.5 48.5t-134.5 134.5q-50 82 -50 186q0 98 50 182.5t136 135.5q82 50 183 50q100 0 184.5 -48.5t134.5 -134.5q49 -83 49 -185q0 -100 -49 -185t-134 -135q-83 -49 -185 -49zM1663 1415l-1417 -1415l-62 61l1418 1414zM492 854q75 0 140.5 38
t103.5 104q38 63 38 141q0 75 -38 140t-103 104q-64 38 -141 38q-75 0 -140 -38t-104 -103q-39 -66 -39 -141t38 -140.5t104 -103.5q64 -39 141 -39zM1356 -31q-100 0 -184.5 49t-134.5 135q-50 82 -50 185q0 98 50.5 182.5t136.5 135.5q84 51 182 51q100 0 184 -49
t135 -135q49 -83 49 -185q0 -100 -49 -185t-134 -135q-83 -49 -185 -49zM2216 -31q-100 0 -184.5 49t-134.5 135q-50 82 -50 185q0 98 50.5 182.5t136.5 135.5q84 51 182 51q100 0 184 -49t135 -135q50 -85 50 -185t-49.5 -185t-134.5 -135q-83 -49 -185 -49zM1356 55
q75 0 140.5 38.5t104.5 104.5q37 61 37 140q0 75 -38 141t-103 104q-64 38 -141 38q-75 0 -140 -38.5t-104 -103.5q-39 -66 -39 -141t38 -140.5t104 -103.5q65 -39 141 -39zM2216 55q75 0 140.5 38.5t104.5 104.5q38 63 38 140q0 75 -38.5 140.5t-103.5 104.5
q-64 38 -141 38q-75 0 -140 -38.5t-104 -103.5q-39 -66 -39 -141t38.5 -140t104.5 -104q64 -39 140 -39z" />
    <glyph glyph-name="guilsinglleft" unicode="&#x2039;" horiz-adv-x="1226" 
d="M817 227l-57 -55l-473 473l473 473l57 -55l-418 -418z" />
    <glyph glyph-name="guilsinglright" unicode="&#x203a;" horiz-adv-x="1226" 
d="M467 172l-57 55l417 418l-417 418l57 55l473 -473z" />
    <glyph glyph-name="fraction" unicode="&#x2044;" horiz-adv-x="374" 
d="M784 1415l-1118 -1415l-76 61l1121 1414z" />
    <glyph glyph-name="uni2060" unicode="&#x2060;" horiz-adv-x="0" 
 />
    <glyph glyph-name="uni2070" unicode="&#x2070;" horiz-adv-x="1004" 
d="M503 528q-173 0 -266.5 128t-93.5 356t93.5 355.5t266.5 127.5q172 0 265 -127.5t93 -355.5t-93 -356t-265 -128zM503 609q126 0 197.5 104t71.5 299t-71.5 298.5t-197.5 103.5q-127 0 -199 -103t-72 -299q0 -194 71.5 -298.5t199.5 -104.5z" />
    <glyph glyph-name="uni2074" unicode="&#x2074;" horiz-adv-x="865" 
d="M673 553h-84v186h-487v80l316 656h92l-315 -656h394v329h84v-329h90v-80h-90v-186z" />
    <glyph glyph-name="uni2075" unicode="&#x2075;" horiz-adv-x="867" 
d="M765 825q0 -130 -89.5 -211.5t-230.5 -81.5q-137 0 -224.5 66t-118.5 196l83 14q29 -101 90 -148t170 -47q104 0 169 59.5t65 150.5q0 96 -59.5 145.5t-174.5 49.5h-275l29 457h507v-81h-428l-19 -295h186q153 0 236.5 -71t83.5 -203z" />
    <glyph glyph-name="uni2076" unicode="&#x2076;" horiz-adv-x="975" 
d="M494 526q-179 0 -263.5 104.5t-86.5 326.5q-2 279 81 407.5t265 128.5q136 0 220 -66.5t111 -194.5l-84 -14q-22 100 -82.5 147t-167.5 47q-128 0 -190 -93.5t-69 -290.5l-1 -29q32 66 106.5 103t170.5 37q152 0 240.5 -82.5t88.5 -223.5t-91.5 -224t-247.5 -83zM494 607
q118 0 183.5 59.5t65.5 164.5t-66 165t-183 60t-183 -60t-66 -165t65.5 -164.5t183.5 -59.5z" />
    <glyph glyph-name="uni2077" unicode="&#x2077;" horiz-adv-x="743" 
d="M250 553h-91l392 841h-469v81h559v-81z" />
    <glyph glyph-name="uni2078" unicode="&#x2078;" horiz-adv-x="904" 
d="M452 1493q136 0 218.5 -69.5t82.5 -189.5q0 -72 -37 -128.5t-101 -81.5q72 -16 119 -78t47 -139q0 -128 -91 -204.5t-238 -76.5t-238 76.5t-91 204.5q0 77 47 139t119 78q-64 25 -101 81.5t-37 128.5q0 120 82.5 189.5t218.5 69.5zM452 1063q100 0 158 48t58 125
q0 81 -59 128.5t-157 47.5t-156.5 -47.5t-58.5 -128.5q0 -77 58 -125t157 -48zM452 982q-114 0 -178.5 -47.5t-64.5 -130.5q0 -89 66.5 -143t176.5 -54t176 54t66 143q0 84 -64 131t-178 47z" />
    <glyph glyph-name="uni2079" unicode="&#x2079;" horiz-adv-x="975" 
d="M482 1493q179 0 263 -104.5t86 -326.5q2 -279 -81 -407.5t-265 -128.5q-136 0 -219.5 66.5t-110.5 194.5l84 15q23 -101 83 -148t166 -47q128 0 190.5 93.5t69.5 290.5l1 29q-32 -65 -106.5 -102t-170.5 -37q-152 0 -240.5 82.5t-88.5 223.5t91.5 223.5t247.5 82.5z
M482 1412q-118 0 -184 -59.5t-66 -164.5t66.5 -164.5t183.5 -59.5t183 60t66 164q0 105 -65.5 164.5t-183.5 59.5z" />
    <glyph glyph-name="uni2080" unicode="&#x2080;" horiz-adv-x="1004" 
d="M503 -25q-173 0 -266.5 128t-93.5 356t93.5 355.5t266.5 127.5q172 0 265 -127.5t93 -355.5t-93 -356t-265 -128zM503 56q126 0 197.5 104t71.5 299t-71.5 298.5t-197.5 103.5q-127 0 -199 -103t-72 -299q0 -194 71.5 -298.5t199.5 -104.5z" />
    <glyph glyph-name="uni2081" unicode="&#x2081;" horiz-adv-x="667" 
d="M422 0h-84v825l-173 -105l-42 73l215 129h84v-922z" />
    <glyph glyph-name="uni2082" unicode="&#x2082;" horiz-adv-x="830" 
d="M122 0v81l391 379q127 123 127 229q0 78 -58.5 125t-151.5 47q-97 0 -163 -56t-80 -149l-85 17q20 124 108.5 196.5t219.5 72.5t214.5 -69t82.5 -185q-2 -132 -143 -269l-351 -338h494v-81h-605z" />
    <glyph glyph-name="uni2083" unicode="&#x2083;" horiz-adv-x="867" 
d="M744 272q0 -130 -89 -211t-231 -81q-137 0 -224.5 65.5t-117.5 195.5l83 14q29 -101 90 -148t170 -47q104 0 168.5 59t64.5 151q0 96 -59.5 145.5t-174.5 49.5h-84v74l266 302h-472v81h577v-81l-269 -302q147 -4 224.5 -71.5t77.5 -195.5z" />
    <glyph glyph-name="uni2084" unicode="&#x2084;" horiz-adv-x="865" 
d="M673 0h-84v186h-487v80l316 656h92l-315 -656h394v329h84v-329h90v-80h-90v-186z" />
    <glyph glyph-name="uni2085" unicode="&#x2085;" horiz-adv-x="867" 
d="M765 272q0 -129 -89.5 -210.5t-230.5 -81.5q-281 0 -343 261l83 14q29 -101 90 -148t170 -47q104 0 169 59.5t65 150.5q0 96 -59.5 145.5t-174.5 49.5h-275l29 457h507v-81h-428l-19 -295h186q153 0 236.5 -71t83.5 -203z" />
    <glyph glyph-name="uni2086" unicode="&#x2086;" horiz-adv-x="975" 
d="M494 -27q-179 0 -263.5 104.5t-86.5 326.5q-2 279 81 407.5t265 128.5q136 0 220 -66.5t111 -194.5l-84 -14q-22 100 -82.5 147t-167.5 47q-128 0 -190 -93.5t-69 -290.5l-1 -29q32 66 106.5 103t170.5 37q152 0 240.5 -82.5t88.5 -223.5t-91.5 -224t-247.5 -83zM494 54
q117 0 183 60t66 165t-66 164.5t-183 59.5t-183 -60t-66 -164q0 -105 66 -165t183 -60z" />
    <glyph glyph-name="uni2087" unicode="&#x2087;" horiz-adv-x="743" 
d="M250 0h-91l392 841h-469v81h559v-81z" />
    <glyph glyph-name="uni2088" unicode="&#x2088;" horiz-adv-x="904" 
d="M452 940q136 0 218.5 -69.5t82.5 -189.5q0 -72 -37 -128.5t-101 -81.5q72 -16 119 -78t47 -139q0 -128 -91 -204.5t-238 -76.5t-238 76.5t-91 204.5q0 77 47 139t119 78q-64 25 -101 81.5t-37 128.5q0 120 82.5 189.5t218.5 69.5zM452 510q100 0 158 48t58 125
q0 81 -59 128.5t-157 47.5t-156.5 -47.5t-58.5 -128.5q0 -77 58 -125t157 -48zM452 429q-114 0 -178.5 -47.5t-64.5 -130.5q0 -89 66.5 -143t176.5 -54t176 54t66 143q0 84 -64 131t-178 47z" />
    <glyph glyph-name="uni2089" unicode="&#x2089;" horiz-adv-x="975" 
d="M482 940q179 0 263 -104.5t86 -326.5q2 -279 -81 -407.5t-265 -128.5q-136 0 -219.5 66.5t-110.5 194.5l84 15q23 -101 83 -148t166 -47q128 0 190.5 93.5t69.5 290.5l1 29q-32 -65 -106.5 -102t-170.5 -37q-152 0 -240.5 82.5t-88.5 223.5t91.5 223.5t247.5 82.5z
M482 859q-118 0 -184 -59.5t-66 -164.5t66.5 -164.5t183.5 -59.5t183 60t66 164q0 105 -65.5 164.5t-183.5 59.5z" />
    <glyph glyph-name="franc" unicode="&#x20a3;" horiz-adv-x="1075" 
d="M215 304h-154v86h154v1085h819v-86h-733v-609h610v-86h-610v-304h309v-86h-309v-304h-86v304z" />
    <glyph glyph-name="uni20A9" unicode="&#x20a9;" horiz-adv-x="1902" 
d="M285 694h-224v86h199l-199 695h89l199 -695h358l198 695h90l200 -695h357l199 695h90l-199 -695h199v-86h-223l-199 -694h-90l-200 694h-357l-199 -694h-90zM950 1317l-153 -537h308zM374 694l154 -538l154 538h-308zM1220 694l154 -538l154 538h-308z" />
    <glyph glyph-name="uni20AA" unicode="&#x20aa;" horiz-adv-x="1551" 
d="M209 0h-86v1475h461q35 0 94 -9q157 -26 252.5 -146.5t95.5 -287.5v-630h-92v630q0 130 -69.5 227.5t-190.5 120.5q-54 9 -90 9h-375v-1389zM1342 1475h86v-1475h-460q-42 0 -95 8q-157 26 -252.5 146.5t-95.5 287.5v630h92v-630q0 -130 70 -227.5t191 -120.5
q48 -8 90 -8h374v1389z" />
    <glyph glyph-name="dong" unicode="&#x20ab;" horiz-adv-x="1179" 
d="M563 215q-221 0 -351 125.5t-130 337.5q0 137 57.5 241.5t162.5 160.5q106 57 245 57q239 0 357 -118q29 -29 46 -58v329h-254v86h254v129h86v-129h152v-86h-152v-1044h-80v158q-20 -36 -50 -66q-117 -123 -343 -123zM563 301q188 0 290.5 102t102.5 275
q0 174 -102 273.5t-291 99.5q-187 0 -288 -97t-101 -276q0 -175 104.5 -276t284.5 -101zM1082 0h-939v86h939v-86z" />
    <glyph glyph-name="Euro" unicode="&#x20ac;" horiz-adv-x="1461" 
d="M230 530h-169v86h159q-5 65 -5 121q0 54 5 117h-159v86h169q40 263 188.5 414t393.5 151q227 0 371.5 -131t195.5 -362l-90 -21q-45 202 -165 315t-312 113q-204 0 -327.5 -127t-161.5 -352h627v-86h-638q-5 -63 -5 -117q0 -56 5 -121h638v-86h-626q38 -223 161 -349
t327 -126q192 0 312 113t165 315l90 -20q-51 -231 -195.5 -362.5t-371.5 -131.5q-243 0 -391.5 150t-190.5 411z" />
    <glyph glyph-name="uni20AE" unicode="&#x20ae;" horiz-adv-x="1208" 
d="M561 442l-288 -135v101l288 134v246l-288 -135v101l288 134v501h-541v86h1168v-86h-541v-460l288 134v-98l-288 -136v-246l288 134v-99l-288 -135v-483h-86v442z" />
    <glyph glyph-name="uni20B1" unicode="&#x20b1;" horiz-adv-x="1148" 
d="M174 1122h-123v86h123v267h410q35 0 94 -9q105 -18 184 -77.5t122 -151.5q5 -12 11 -29h123v-86h-99q7 -41 7 -90t-7 -90h99v-86h-123q-2 -5 -5.5 -14.5t-4.5 -11.5q-42 -93 -121 -153t-186 -79q-53 -8 -94 -8h-324v-590h-86v856h-123v86h123v180zM260 1389v-181h635
q-28 60 -80 106q-56 49 -141 66q-50 9 -90 9h-324zM260 1122v-180h665q9 43 9 90q0 46 -9 90h-665zM260 856v-180h324q45 0 90 8q82 16 141 68q53 45 80 104h-635z" />
    <glyph glyph-name="uni20B4" unicode="&#x20b4;" horiz-adv-x="1288" 
d="M61 852v86h924q94 68 94 182q0 128 -109 213.5t-280 85.5q-181 0 -305.5 -99.5t-146.5 -260.5l-86 16q28 195 174.5 312.5t363.5 117.5q213 0 347 -108.5t134 -278.5q0 -104 -54 -180h110v-86h-1166zM61 553v86h1166v-86h-953q-57 -67 -57 -168q0 -149 117 -239.5
t311 -90.5q186 0 315.5 88t169.5 240l87 -16q-40 -183 -194 -290.5t-378 -107.5q-234 0 -373 113t-139 303q0 97 38 168h-110z" />
    <glyph glyph-name="uni20B9" unicode="&#x20b9;" horiz-adv-x="1206" 
d="M817 0l-674 590v86h396q42 0 90 8q81 15 139.5 65t90.5 125q22 57 28 115h-744v86h744q-6 58 -28 115q-32 75 -90.5 125t-139.5 65q-54 9 -90 9h-396v86h961v-86h-289h1q78 -62 122 -154q35 -71 41 -160h125v-86h-125q-9 -119 -73 -218q-75 -112 -210 -160
q-59 -21 -164 -21h-252l670 -590h-133z" />
    <glyph glyph-name="uni20BA" unicode="&#x20ba;" horiz-adv-x="1179" 
d="M309 0v702l-227 -106v100l227 107v246l-227 -107v100l227 107v326h86v-286l348 163v-99l-348 -163v-247l348 163v-99l-348 -164v-670q43 -18 107 -18q91 0 162 24q132 44 196 142q65 98 85 229q20 132 20 318h92q0 -220 -28 -371q-28 -143 -107 -245q-77 -100 -230 -153
q-84 -28 -189 -28q-109 0 -194 29z" />
    <glyph glyph-name="uni20BD" unicode="&#x20bd;" horiz-adv-x="1353" 
d="M307 0v283h-164v86h164v221h-164v86h164v799h522q211 0 337 -121t126 -322q0 -200 -126.5 -321t-336.5 -121h-436v-221h488v-86h-488v-283h-86zM393 1389v-713h436q172 0 271.5 95.5t99.5 260.5t-99.5 261t-271.5 96h-436z" />
    </font>
</defs>
</svg>
